<svg width="26" height="22" viewBox="0 0 26 22" fill="none" xmlns="http://www.w3.org/2000/svg">
<path d="M26 10.7393C26 10.8892 25.9405 11.0329 25.8345 11.1389C25.7285 11.2449 25.5847 11.3045 25.4348 11.3045H1.93063L11.1393 20.5131C11.2453 20.6192 11.3049 20.763 11.3049 20.913C11.3049 21.063 11.2453 21.2068 11.1393 21.3129C11.0332 21.4189 10.8894 21.4785 10.7394 21.4785C10.5894 21.4785 10.4456 21.4189 10.3395 21.3129L0.165768 11.1391C0.113217 11.0867 0.0715279 11.0243 0.0430842 10.9557C0.0146405 10.8871 0 10.8135 0 10.7393C0 10.665 0.0146405 10.5914 0.0430842 10.5228C0.0715279 10.4542 0.113217 10.3919 0.165768 10.3394L10.3395 0.165637C10.392 0.113124 10.4544 0.0714677 10.523 0.0430475C10.5916 0.0146274 10.6651 0 10.7394 0C10.8137 0 10.8872 0.0146274 10.9558 0.0430475C11.0244 0.0714677 11.0868 0.113124 11.1393 0.165637C11.1918 0.218151 11.2334 0.280494 11.2619 0.349106C11.2903 0.417718 11.3049 0.491257 11.3049 0.565522C11.3049 0.639787 11.2903 0.713326 11.2619 0.781938C11.2334 0.85055 11.1918 0.912893 11.1393 0.965407L1.93063 10.1741H25.4348C25.5847 10.1741 25.7285 10.2336 25.8345 10.3396C25.9405 10.4456 26 10.5894 26 10.7393Z" fill="#5B5B5B"/>
</svg>
