<svg width="15" height="16" viewBox="0 0 15 16" fill="none" xmlns="http://www.w3.org/2000/svg">
<path d="M8.57143 9.71429C8.57143 9.56273 8.63163 9.41739 8.7388 9.31022C8.84596 9.20306 8.9913 9.14286 9.14286 9.14286H11.4286C11.5801 9.14286 11.7255 9.20306 11.8326 9.31022C11.9398 9.41739 12 9.56273 12 9.71429V12C12 12.1516 11.9398 12.2969 11.8326 12.4041C11.7255 12.5112 11.5801 12.5714 11.4286 12.5714H9.14286C8.9913 12.5714 8.84596 12.5112 8.7388 12.4041C8.63163 12.2969 8.57143 12.1516 8.57143 12V9.71429ZM9.71428 11.4286H10.8571V10.2857H9.71428V11.4286ZM3.072 0.125714L0.214857 2.41143C0.0251428 2.56229 0 2.82286 0 3.05143V5.14286C0 5.78629 0.212571 6.37943 0.571429 6.85714V15.4286C0.571429 15.5801 0.631633 15.7255 0.738796 15.8326C0.84596 15.9398 0.991305 16 1.14286 16H13.7143C13.8658 16 14.0112 15.9398 14.1183 15.8326C14.2255 15.7255 14.2857 15.5801 14.2857 15.4286V6.85714C14.6446 6.37943 14.8571 5.78629 14.8571 5.14286V3.04686C14.8571 2.81829 14.832 2.56229 14.6423 2.41143L11.7851 0.125714C11.684 0.0445637 11.5582 0.000231022 11.4286 0H3.42857C3.29889 0.000231022 3.17315 0.0445637 3.072 0.125714ZM4.57143 3.42857V5.14286C4.57143 5.59751 4.39082 6.03355 4.06933 6.35504C3.74783 6.67653 3.3118 6.85714 2.85714 6.85714C2.40249 6.85714 1.96645 6.67653 1.64496 6.35504C1.32347 6.03355 1.14286 5.59751 1.14286 5.14286V3.42857H4.57143ZM9.14286 3.42857V5.14286C9.14286 5.59751 8.96225 6.03355 8.64075 6.35504C8.31926 6.67653 7.88323 6.85714 7.42857 6.85714C6.97391 6.85714 6.53788 6.67653 6.21639 6.35504C5.8949 6.03355 5.71429 5.59751 5.71429 5.14286V3.42857H9.14286ZM13.7143 3.42857V5.14286C13.7143 5.59751 13.5337 6.03355 13.2122 6.35504C12.8907 6.67653 12.4547 6.85714 12 6.85714C11.5453 6.85714 11.1093 6.67653 10.7878 6.35504C10.4663 6.03355 10.2857 5.59751 10.2857 5.14286V3.42857H13.7143ZM5.176 1.14286L4.74743 2.28571H2.2L3.62857 1.14286H5.176ZM5.968 2.28571L6.39657 1.14286H8.44571L8.82628 2.28571H5.968ZM9.65029 1.14286H11.2274L12.656 2.28571H10.0309L9.65029 1.14286ZM13.1429 7.76229V14.8571H7.42857V9.71429C7.42857 9.56273 7.36837 9.41739 7.2612 9.31022C7.15404 9.20306 7.00869 9.14286 6.85714 9.14286H3.42857C3.27702 9.14286 3.13167 9.20306 3.02451 9.31022C2.91735 9.41739 2.85714 9.56273 2.85714 9.71429V14.8571H1.71429V7.76229C2.30406 8.02045 2.96383 8.07152 3.5863 7.90719C4.20878 7.74285 4.75737 7.37278 5.14286 6.85714C5.664 7.55086 6.49371 8 7.42857 8C8.36343 8 9.19314 7.55086 9.71428 6.85714C10.0998 7.37278 10.6484 7.74285 11.2708 7.90719C11.8933 8.07152 12.5531 8.02045 13.1429 7.76229ZM6.28571 14.8571H4V10.2857H6.28571V14.8571Z" fill="#5B5B5B"/>
</svg>
