<svg width="17" height="16" viewBox="0 0 17 16" fill="none" xmlns="http://www.w3.org/2000/svg">
<path d="M3.47435 4.76107V10.487M13.9799 1L9.5514 4.59616H1.81423C1.60005 4.59687 1.39485 4.68227 1.24341 4.83371C1.09196 4.98516 1.00657 5.19036 1.00586 5.40453V9.9023C1.00657 10.1165 1.09196 10.3217 1.24341 10.4731C1.39485 10.6246 1.60005 10.71 1.81423 10.7107H9.55113L13.9796 14.2481L13.9799 1Z" stroke="#5B5B5B" stroke-width="1.2" stroke-linecap="round" stroke-linejoin="round"/>
<path d="M5.62977 11.7972C5.62977 9.50005 5.62977 14.2223 5.62977 14.2223C5.62977 14.3652 5.57299 14.5023 5.47193 14.6033C5.37086 14.7044 5.23379 14.7612 5.09086 14.7612H4.01303C3.87011 14.7612 3.73303 14.7044 3.63197 14.6033C3.5309 14.5023 3.47412 14.3652 3.47412 14.2223C3.47412 14.2223 3.47412 9.50003 3.47412 11.7972" stroke="#5B5B5B" stroke-width="1.2" stroke-linecap="round" stroke-linejoin="round"/>
<path d="M14.5 9C15.3284 9 16 8.32843 16 7.5C16 6.67157 15.3284 6 14.5 6C13.6716 6 13 6.67157 13 7.5C13 8.32843 13.6716 9 14.5 9Z" stroke="#5B5B5B" stroke-width="1.2" stroke-miterlimit="10"/>
</svg>
