<svg width="16" height="16" viewBox="0 0 16 16" fill="none" xmlns="http://www.w3.org/2000/svg">
<path d="M1 13.2501C1 12.3218 1.36875 11.4316 2.02513 10.7752C2.6815 10.1188 3.57174 9.75008 4.5 9.75008H11.5C12.4283 9.75008 13.3185 10.1188 13.9749 10.7752C14.6313 11.4316 15 12.3218 15 13.2501C15 13.7142 14.8156 14.1593 14.4874 14.4875C14.1592 14.8157 13.7141 15.0001 13.25 15.0001H2.75C2.28587 15.0001 1.84075 14.8157 1.51256 14.4875C1.18437 14.1593 1 13.7142 1 13.2501Z" stroke="#5B5B5B" stroke-width="1.2" stroke-linejoin="round"/>
<path d="M8 6.25C9.44975 6.25 10.625 5.07475 10.625 3.625C10.625 2.17525 9.44975 1 8 1C6.55025 1 5.375 2.17525 5.375 3.625C5.375 5.07475 6.55025 6.25 8 6.25Z" stroke="#5B5B5B" stroke-width="1.2"/>
</svg>
