<svg width="18" height="18" viewBox="0 0 18 18" fill="none" xmlns="http://www.w3.org/2000/svg">
<mask id="path-1-outside-1_148_471" maskUnits="userSpaceOnUse" x="0" y="0" width="18" height="18" fill="black">
<rect fill="white" width="18" height="18"/>
<path fill-rule="evenodd" clip-rule="evenodd" d="M9.4504 1.96H8.5496L8.0336 4.0224L7.516 4.1824C7.21439 4.27534 6.92217 4.3964 6.6432 4.544L6.164 4.7976L4.34 3.7032L3.7032 4.3408L4.7976 6.1648L4.544 6.6432C4.39613 6.92214 4.2748 7.21436 4.1816 7.516L4.0224 8.0336L1.96 8.5496V9.4504L4.0224 9.9664L4.1824 10.484C4.27467 10.7869 4.3952 11.0779 4.544 11.3568L4.7976 11.836L3.7032 13.66L4.3408 14.2968L6.1648 13.2024L6.6432 13.456C6.92213 13.6043 7.21307 13.7251 7.516 13.8184L8.0336 13.9776L8.5496 16.04H9.4504L9.9664 13.9776L10.484 13.8176C10.7856 13.7247 11.0778 13.6036 11.3568 13.456L11.836 13.2024L13.66 14.2968L14.2968 13.6592L13.2024 11.8352L13.456 11.3568C13.6043 11.0779 13.7251 10.7869 13.8184 10.484L13.9776 9.9664L16.04 9.4504V8.5496L13.9776 8.0336L13.8176 7.516C13.7247 7.21439 13.6036 6.92217 13.456 6.6432L13.2024 6.164L14.2968 4.34L13.6592 3.7032L11.8352 4.7976L11.3568 4.544C11.0779 4.39613 10.7856 4.2748 10.484 4.1816L9.9664 4.0224L9.4504 1.96ZM11.8064 3.696L13.2728 2.816C13.4257 2.72429 13.6049 2.68629 13.7818 2.70803C13.9588 2.72977 14.1234 2.81001 14.2496 2.936L15.064 3.7504C15.19 3.87656 15.2702 4.0412 15.292 4.21816C15.3137 4.39513 15.2757 4.57429 15.184 4.7272L14.304 6.1936C14.48 6.52427 14.624 6.87093 14.736 7.2336L16.3944 7.6488C16.5674 7.69214 16.721 7.79204 16.8307 7.93263C16.9404 8.07323 17 8.24646 17 8.4248V9.5752C17 9.75354 16.9404 9.92677 16.8307 10.0674C16.721 10.208 16.5674 10.3079 16.3944 10.3512L14.736 10.7664C14.624 11.1291 14.48 11.4757 14.304 11.8064L15.184 13.2728C15.2757 13.4257 15.3137 13.6049 15.292 13.7818C15.2702 13.9588 15.19 14.1234 15.064 14.2496L14.2496 15.064C14.1234 15.19 13.9588 15.2702 13.7818 15.292C13.6049 15.3137 13.4257 15.2757 13.2728 15.184L11.8064 14.304C11.4757 14.48 11.1291 14.624 10.7664 14.736L10.3512 16.3944C10.3079 16.5674 10.208 16.721 10.0674 16.8307C9.92677 16.9404 9.75354 17 9.5752 17H8.4248C8.24646 17 8.07323 16.9404 7.93263 16.8307C7.79204 16.721 7.69214 16.5674 7.6488 16.3944L7.2336 14.736C6.87416 14.6249 6.52596 14.4803 6.1936 14.304L4.7272 15.184C4.57429 15.2757 4.39513 15.3137 4.21816 15.292C4.0412 15.2702 3.87656 15.19 3.7504 15.064L2.936 14.2496C2.81001 14.1234 2.72977 13.9588 2.70803 13.7818C2.68629 13.6049 2.72429 13.4257 2.816 13.2728L3.696 11.8064C3.51971 11.474 3.37508 11.1258 3.264 10.7664L1.6056 10.3512C1.43274 10.3079 1.27928 10.2081 1.16957 10.0677C1.05986 9.92725 1.00018 9.75421 1 9.576V8.4256C1 8.24726 1.0596 8.07403 1.16932 7.93343C1.27905 7.79284 1.4326 7.69294 1.6056 7.6496L3.264 7.2344C3.376 6.87173 3.52 6.52507 3.696 6.1944L2.816 4.728C2.72429 4.57509 2.68629 4.39593 2.70803 4.21896C2.72977 4.042 2.81001 3.87736 2.936 3.7512L3.7504 2.936C3.87656 2.81001 4.0412 2.72977 4.21816 2.70803C4.39513 2.68629 4.57429 2.72429 4.7272 2.816L6.1936 3.696C6.52427 3.52 6.87093 3.376 7.2336 3.264L7.6488 1.6056C7.6921 1.43274 7.79189 1.27928 7.93232 1.16957C8.07275 1.05986 8.24579 1.00018 8.424 1H9.5744C9.75274 1 9.92597 1.0596 10.0666 1.16932C10.2072 1.27905 10.3071 1.4326 10.3504 1.6056L10.7656 3.264C11.1283 3.376 11.4749 3.52 11.8056 3.696H11.8064ZM9 11.24C9.59408 11.24 10.1638 11.004 10.5839 10.5839C11.004 10.1638 11.24 9.59408 11.24 9C11.24 8.40591 11.004 7.83616 10.5839 7.41608C10.1638 6.996 9.59408 6.76 9 6.76C8.40591 6.76 7.83616 6.996 7.41608 7.41608C6.996 7.83616 6.76 8.40591 6.76 9C6.76 9.59408 6.996 10.1638 7.41608 10.5839C7.83616 11.004 8.40591 11.24 9 11.24ZM9 12.2C8.15131 12.2 7.33737 11.8629 6.73726 11.2627C6.13714 10.6626 5.8 9.84869 5.8 9C5.8 8.15131 6.13714 7.33737 6.73726 6.73726C7.33737 6.13714 8.15131 5.8 9 5.8C9.84869 5.8 10.6626 6.13714 11.2627 6.73726C11.8629 7.33737 12.2 8.15131 12.2 9C12.2 9.84869 11.8629 10.6626 11.2627 11.2627C10.6626 11.8629 9.84869 12.2 9 12.2Z"/>
</mask>
<path fill-rule="evenodd" clip-rule="evenodd" d="M9.4504 1.96H8.5496L8.0336 4.0224L7.516 4.1824C7.21439 4.27534 6.92217 4.3964 6.6432 4.544L6.164 4.7976L4.34 3.7032L3.7032 4.3408L4.7976 6.1648L4.544 6.6432C4.39613 6.92214 4.2748 7.21436 4.1816 7.516L4.0224 8.0336L1.96 8.5496V9.4504L4.0224 9.9664L4.1824 10.484C4.27467 10.7869 4.3952 11.0779 4.544 11.3568L4.7976 11.836L3.7032 13.66L4.3408 14.2968L6.1648 13.2024L6.6432 13.456C6.92213 13.6043 7.21307 13.7251 7.516 13.8184L8.0336 13.9776L8.5496 16.04H9.4504L9.9664 13.9776L10.484 13.8176C10.7856 13.7247 11.0778 13.6036 11.3568 13.456L11.836 13.2024L13.66 14.2968L14.2968 13.6592L13.2024 11.8352L13.456 11.3568C13.6043 11.0779 13.7251 10.7869 13.8184 10.484L13.9776 9.9664L16.04 9.4504V8.5496L13.9776 8.0336L13.8176 7.516C13.7247 7.21439 13.6036 6.92217 13.456 6.6432L13.2024 6.164L14.2968 4.34L13.6592 3.7032L11.8352 4.7976L11.3568 4.544C11.0779 4.39613 10.7856 4.2748 10.484 4.1816L9.9664 4.0224L9.4504 1.96ZM11.8064 3.696L13.2728 2.816C13.4257 2.72429 13.6049 2.68629 13.7818 2.70803C13.9588 2.72977 14.1234 2.81001 14.2496 2.936L15.064 3.7504C15.19 3.87656 15.2702 4.0412 15.292 4.21816C15.3137 4.39513 15.2757 4.57429 15.184 4.7272L14.304 6.1936C14.48 6.52427 14.624 6.87093 14.736 7.2336L16.3944 7.6488C16.5674 7.69214 16.721 7.79204 16.8307 7.93263C16.9404 8.07323 17 8.24646 17 8.4248V9.5752C17 9.75354 16.9404 9.92677 16.8307 10.0674C16.721 10.208 16.5674 10.3079 16.3944 10.3512L14.736 10.7664C14.624 11.1291 14.48 11.4757 14.304 11.8064L15.184 13.2728C15.2757 13.4257 15.3137 13.6049 15.292 13.7818C15.2702 13.9588 15.19 14.1234 15.064 14.2496L14.2496 15.064C14.1234 15.19 13.9588 15.2702 13.7818 15.292C13.6049 15.3137 13.4257 15.2757 13.2728 15.184L11.8064 14.304C11.4757 14.48 11.1291 14.624 10.7664 14.736L10.3512 16.3944C10.3079 16.5674 10.208 16.721 10.0674 16.8307C9.92677 16.9404 9.75354 17 9.5752 17H8.4248C8.24646 17 8.07323 16.9404 7.93263 16.8307C7.79204 16.721 7.69214 16.5674 7.6488 16.3944L7.2336 14.736C6.87416 14.6249 6.52596 14.4803 6.1936 14.304L4.7272 15.184C4.57429 15.2757 4.39513 15.3137 4.21816 15.292C4.0412 15.2702 3.87656 15.19 3.7504 15.064L2.936 14.2496C2.81001 14.1234 2.72977 13.9588 2.70803 13.7818C2.68629 13.6049 2.72429 13.4257 2.816 13.2728L3.696 11.8064C3.51971 11.474 3.37508 11.1258 3.264 10.7664L1.6056 10.3512C1.43274 10.3079 1.27928 10.2081 1.16957 10.0677C1.05986 9.92725 1.00018 9.75421 1 9.576V8.4256C1 8.24726 1.0596 8.07403 1.16932 7.93343C1.27905 7.79284 1.4326 7.69294 1.6056 7.6496L3.264 7.2344C3.376 6.87173 3.52 6.52507 3.696 6.1944L2.816 4.728C2.72429 4.57509 2.68629 4.39593 2.70803 4.21896C2.72977 4.042 2.81001 3.87736 2.936 3.7512L3.7504 2.936C3.87656 2.81001 4.0412 2.72977 4.21816 2.70803C4.39513 2.68629 4.57429 2.72429 4.7272 2.816L6.1936 3.696C6.52427 3.52 6.87093 3.376 7.2336 3.264L7.6488 1.6056C7.6921 1.43274 7.79189 1.27928 7.93232 1.16957C8.07275 1.05986 8.24579 1.00018 8.424 1H9.5744C9.75274 1 9.92597 1.0596 10.0666 1.16932C10.2072 1.27905 10.3071 1.4326 10.3504 1.6056L10.7656 3.264C11.1283 3.376 11.4749 3.52 11.8056 3.696H11.8064ZM9 11.24C9.59408 11.24 10.1638 11.004 10.5839 10.5839C11.004 10.1638 11.24 9.59408 11.24 9C11.24 8.40591 11.004 7.83616 10.5839 7.41608C10.1638 6.996 9.59408 6.76 9 6.76C8.40591 6.76 7.83616 6.996 7.41608 7.41608C6.996 7.83616 6.76 8.40591 6.76 9C6.76 9.59408 6.996 10.1638 7.41608 10.5839C7.83616 11.004 8.40591 11.24 9 11.24ZM9 12.2C8.15131 12.2 7.33737 11.8629 6.73726 11.2627C6.13714 10.6626 5.8 9.84869 5.8 9C5.8 8.15131 6.13714 7.33737 6.73726 6.73726C7.33737 6.13714 8.15131 5.8 9 5.8C9.84869 5.8 10.6626 6.13714 11.2627 6.73726C11.8629 7.33737 12.2 8.15131 12.2 9C12.2 9.84869 11.8629 10.6626 11.2627 11.2627C10.6626 11.8629 9.84869 12.2 9 12.2Z" fill="#5B5B5B"/>
<path fill-rule="evenodd" clip-rule="evenodd" d="M9.4504 1.96H8.5496L8.0336 4.0224L7.516 4.1824C7.21439 4.27534 6.92217 4.3964 6.6432 4.544L6.164 4.7976L4.34 3.7032L3.7032 4.3408L4.7976 6.1648L4.544 6.6432C4.39613 6.92214 4.2748 7.21436 4.1816 7.516L4.0224 8.0336L1.96 8.5496V9.4504L4.0224 9.9664L4.1824 10.484C4.27467 10.7869 4.3952 11.0779 4.544 11.3568L4.7976 11.836L3.7032 13.66L4.3408 14.2968L6.1648 13.2024L6.6432 13.456C6.92213 13.6043 7.21307 13.7251 7.516 13.8184L8.0336 13.9776L8.5496 16.04H9.4504L9.9664 13.9776L10.484 13.8176C10.7856 13.7247 11.0778 13.6036 11.3568 13.456L11.836 13.2024L13.66 14.2968L14.2968 13.6592L13.2024 11.8352L13.456 11.3568C13.6043 11.0779 13.7251 10.7869 13.8184 10.484L13.9776 9.9664L16.04 9.4504V8.5496L13.9776 8.0336L13.8176 7.516C13.7247 7.21439 13.6036 6.92217 13.456 6.6432L13.2024 6.164L14.2968 4.34L13.6592 3.7032L11.8352 4.7976L11.3568 4.544C11.0779 4.39613 10.7856 4.2748 10.484 4.1816L9.9664 4.0224L9.4504 1.96ZM11.8064 3.696L13.2728 2.816C13.4257 2.72429 13.6049 2.68629 13.7818 2.70803C13.9588 2.72977 14.1234 2.81001 14.2496 2.936L15.064 3.7504C15.19 3.87656 15.2702 4.0412 15.292 4.21816C15.3137 4.39513 15.2757 4.57429 15.184 4.7272L14.304 6.1936C14.48 6.52427 14.624 6.87093 14.736 7.2336L16.3944 7.6488C16.5674 7.69214 16.721 7.79204 16.8307 7.93263C16.9404 8.07323 17 8.24646 17 8.4248V9.5752C17 9.75354 16.9404 9.92677 16.8307 10.0674C16.721 10.208 16.5674 10.3079 16.3944 10.3512L14.736 10.7664C14.624 11.1291 14.48 11.4757 14.304 11.8064L15.184 13.2728C15.2757 13.4257 15.3137 13.6049 15.292 13.7818C15.2702 13.9588 15.19 14.1234 15.064 14.2496L14.2496 15.064C14.1234 15.19 13.9588 15.2702 13.7818 15.292C13.6049 15.3137 13.4257 15.2757 13.2728 15.184L11.8064 14.304C11.4757 14.48 11.1291 14.624 10.7664 14.736L10.3512 16.3944C10.3079 16.5674 10.208 16.721 10.0674 16.8307C9.92677 16.9404 9.75354 17 9.5752 17H8.4248C8.24646 17 8.07323 16.9404 7.93263 16.8307C7.79204 16.721 7.69214 16.5674 7.6488 16.3944L7.2336 14.736C6.87416 14.6249 6.52596 14.4803 6.1936 14.304L4.7272 15.184C4.57429 15.2757 4.39513 15.3137 4.21816 15.292C4.0412 15.2702 3.87656 15.19 3.7504 15.064L2.936 14.2496C2.81001 14.1234 2.72977 13.9588 2.70803 13.7818C2.68629 13.6049 2.72429 13.4257 2.816 13.2728L3.696 11.8064C3.51971 11.474 3.37508 11.1258 3.264 10.7664L1.6056 10.3512C1.43274 10.3079 1.27928 10.2081 1.16957 10.0677C1.05986 9.92725 1.00018 9.75421 1 9.576V8.4256C1 8.24726 1.0596 8.07403 1.16932 7.93343C1.27905 7.79284 1.4326 7.69294 1.6056 7.6496L3.264 7.2344C3.376 6.87173 3.52 6.52507 3.696 6.1944L2.816 4.728C2.72429 4.57509 2.68629 4.39593 2.70803 4.21896C2.72977 4.042 2.81001 3.87736 2.936 3.7512L3.7504 2.936C3.87656 2.81001 4.0412 2.72977 4.21816 2.70803C4.39513 2.68629 4.57429 2.72429 4.7272 2.816L6.1936 3.696C6.52427 3.52 6.87093 3.376 7.2336 3.264L7.6488 1.6056C7.6921 1.43274 7.79189 1.27928 7.93232 1.16957C8.07275 1.05986 8.24579 1.00018 8.424 1H9.5744C9.75274 1 9.92597 1.0596 10.0666 1.16932C10.2072 1.27905 10.3071 1.4326 10.3504 1.6056L10.7656 3.264C11.1283 3.376 11.4749 3.52 11.8056 3.696H11.8064ZM9 11.24C9.59408 11.24 10.1638 11.004 10.5839 10.5839C11.004 10.1638 11.24 9.59408 11.24 9C11.24 8.40591 11.004 7.83616 10.5839 7.41608C10.1638 6.996 9.59408 6.76 9 6.76C8.40591 6.76 7.83616 6.996 7.41608 7.41608C6.996 7.83616 6.76 8.40591 6.76 9C6.76 9.59408 6.996 10.1638 7.41608 10.5839C7.83616 11.004 8.40591 11.24 9 11.24ZM9 12.2C8.15131 12.2 7.33737 11.8629 6.73726 11.2627C6.13714 10.6626 5.8 9.84869 5.8 9C5.8 8.15131 6.13714 7.33737 6.73726 6.73726C7.33737 6.13714 8.15131 5.8 9 5.8C9.84869 5.8 10.6626 6.13714 11.2627 6.73726C11.8629 7.33737 12.2 8.15131 12.2 9C12.2 9.84869 11.8629 10.6626 11.2627 11.2627C10.6626 11.8629 9.84869 12.2 9 12.2Z" stroke="black" stroke-width="0.2" mask="url(#path-1-outside-1_148_471)"/>
</svg>
