<svg width="20" height="20" viewBox="0 0 20 20" fill="none" xmlns="http://www.w3.org/2000/svg">
<g clip-path="url(#clip0_229_471)">
<path d="M10.7142 0.714279H3.57138C3.1925 0.714279 2.82913 0.864789 2.56122 1.1327C2.29331 1.40061 2.1428 1.76397 2.1428 2.14285V15L0.714233 19.2857L6.42852 17.8571H17.8571C18.236 17.8571 18.5993 17.7066 18.8672 17.4387C19.1352 17.1708 19.2857 16.8074 19.2857 16.4286V9.28571" stroke="#5B5B5B" stroke-linecap="round" stroke-linejoin="round"/>
<path d="M11.9471 11.6243L7.66138 12.3957L8.37566 8.05284L15.1328 1.32427C15.2656 1.19037 15.4236 1.0841 15.5977 1.01157C15.7718 0.939043 15.9585 0.901703 16.1471 0.901703C16.3357 0.901703 16.5224 0.939043 16.6965 1.01157C16.8706 1.0841 17.0286 1.19037 17.1614 1.32427L18.6757 2.83856C18.8096 2.97136 18.9158 3.12936 18.9884 3.30345C19.0609 3.47753 19.0982 3.66425 19.0982 3.85284C19.0982 4.04143 19.0609 4.22815 18.9884 4.40224C18.9158 4.57632 18.8096 4.73432 18.6757 4.86713L11.9471 11.6243Z" stroke="#5B5B5B" stroke-linecap="round" stroke-linejoin="round"/>
</g>
<defs>
<clipPath id="clip0_229_471">
<rect width="20" height="20" fill="white"/>
</clipPath>
</defs>
</svg>
