<svg width="123" height="96" viewBox="0 0 123 96" fill="none" xmlns="http://www.w3.org/2000/svg">
<path d="M60.8398 60.1914C56.3407 61.2718 51.6438 61.2194 47.1699 60.0391C42.6959 58.8588 38.5845 56.5873 35.2038 53.4281C31.8231 50.2689 29.2787 46.3206 27.7985 41.9367C26.3182 37.5528 25.9482 32.8703 26.7217 28.3083C26.6058 28.4239 26.4815 28.5306 26.3498 28.6276C25.4281 29.3288 24.276 29.5888 21.9718 30.1089L19.8816 30.5829C11.7841 32.4163 7.73538 33.3314 6.77092 36.4289C5.80975 39.5231 8.56817 42.7522 14.0883 49.2071L15.5169 50.876C17.0837 52.7095 17.8704 53.6278 18.2226 54.7602C18.5748 55.8958 18.4563 57.1203 18.2193 59.566L18.0021 61.7945C17.1693 70.4088 16.7513 74.7143 19.2727 76.6267C21.7941 78.5392 25.5861 76.7979 33.1635 73.3054L35.1286 72.4035C37.2814 71.4094 38.3577 70.9157 39.5 70.9157C40.6422 70.9157 41.7185 71.4094 43.8746 72.4035L45.8331 73.3054C53.4138 76.7946 57.2058 78.5392 59.724 76.63C62.2487 74.7143 61.8306 70.4088 60.9978 61.7945L60.8398 60.1914Z" fill="#B8B8B8"/>
<path opacity="0.5" d="M30.1286 22.8014L29.0489 24.7369C27.8639 26.8633 27.2714 27.9265 26.3498 28.6276C26.4814 28.5289 26.6054 28.4224 26.7217 28.3083C25.948 32.8706 26.318 37.5535 27.7984 41.9378C29.2789 46.322 31.8236 50.2705 35.2047 53.4298C38.5858 56.5891 42.6977 58.8605 47.1721 60.0405C51.6465 61.2206 56.3438 61.2724 60.8432 60.1914L60.7773 59.566C60.5436 57.1203 60.4251 55.8958 60.7773 54.7602C61.1295 53.6278 61.9129 52.7095 63.4831 50.876L64.9117 49.2071C70.4318 42.7555 73.1902 39.5263 72.2257 36.4289C71.2646 33.3314 67.2158 32.413 59.1183 30.5829L57.0248 30.1089C54.7239 29.5888 53.5719 29.3287 52.6469 28.6276C51.7252 27.9265 51.1327 26.8633 49.9477 24.7369L48.8714 22.8014C44.7008 15.3227 42.6172 11.5834 39.5 11.5834C36.3828 11.5834 34.2992 15.3227 30.1286 22.8014Z" fill="#B8B8B8"/>
<g clip-path="url(#clip0_252_217)">
<path d="M58.8128 55.1676C56.8097 53.2124 53.7249 53.2936 51.3707 54.6608C49.0165 56.0281 47.2721 58.4496 45.768 60.9435C44.2439 63.4674 42.8802 66.2035 42.3893 69.2187C41.8985 72.2339 42.4078 75.5946 44.246 77.8142C45.4035 79.2146 46.994 80.0674 48.6224 80.5443C51.3546 81.3426 54.2189 81.1741 57.034 80.995C58.7074 80.8904 60.3807 80.7859 62.054 80.6813C63.8061 80.5724 65.5582 80.4586 67.3015 80.2343C69.1483 79.9959 71.0457 79.5975 72.6013 78.4233C75.6827 76.0998 76.6392 71.1727 75.6842 67.0904C74.7243 63.0131 72.9794 59.756 70.3314 56.8265C68.8661 55.2075 67.3921 53.4779 65.4049 52.9675C63.4176 52.4622 60.1079 53.4442 59.4035 55.6397L58.803 55.1625L58.8128 55.1676Z" fill="#EFEFEF"/>
<path d="M59.4731 54.5118C56.8941 52.0846 53.0454 52.3242 50.2628 54.2643C47.2624 56.3528 45.1837 59.7844 43.5546 63.0246C41.8451 66.4296 40.8057 70.2372 41.5615 74.0568C41.8949 75.7354 42.6075 77.3524 43.7317 78.6321C44.9482 80.0231 46.6365 80.937 48.3778 81.4501C52.3852 82.6267 56.7692 81.9508 60.859 81.6935C62.9704 81.5629 65.0816 81.4474 67.1794 81.1864C69.0064 80.9578 70.859 80.6142 72.4668 79.6411C75.3113 77.9223 76.651 74.6042 76.9177 71.3611C77.2063 67.8975 76.128 64.3659 74.578 61.3163C73.7764 59.7386 72.777 58.2694 71.6486 56.9194C70.5203 55.5694 69.2504 54.0976 67.7747 53.0653C65.3462 51.3669 61.8374 51.5595 59.6438 53.6306C59.1276 54.1173 58.7629 54.7158 58.5254 55.3858L59.8832 54.8368L59.2827 54.3596C58.8873 54.0448 58.2554 54.2896 58.0156 54.6837C57.7307 55.1625 57.9424 55.6612 58.3329 55.9759L58.9334 56.4531C59.4362 56.8541 60.1192 56.4091 60.2912 55.9041C60.6401 54.8941 61.713 54.3123 62.665 54.0303C63.7748 53.6997 64.9359 53.6656 65.9983 54.1873C67.4181 54.8879 68.488 56.1772 69.5346 57.3358C70.5812 58.4945 71.4461 59.6163 72.221 60.8978C73.7707 63.4657 74.9711 66.5621 75.0997 69.6032C75.2125 72.2379 74.5945 75.1817 72.6974 77.1C70.3286 79.4905 66.3546 79.458 63.2539 79.6644C61.3837 79.7872 59.5086 79.8999 57.6384 80.0177C55.7682 80.1354 54.0356 80.2645 52.2313 80.1772C48.9963 80.0162 45.588 78.9456 44.0487 75.7909C42.6736 72.9687 42.9958 69.5757 43.9773 66.6905C44.6098 64.8304 45.5459 63.0986 46.5504 61.4226C47.4649 59.9063 48.4578 58.4158 49.6994 57.1534C50.941 55.891 52.2823 55.0007 53.9478 54.6854C55.4359 54.4035 57.0163 54.7645 58.1376 55.8235C59.0054 56.6444 60.3262 55.3275 59.4535 54.5066L59.4731 54.5118Z" fill="#BABABA"/>
<path d="M51.5151 72.6859C50.9834 72.731 50.5481 72.9978 50.41 73.5583C50.2719 74.1188 50.5829 74.513 50.9336 74.8826C51.5765 75.5558 52.3284 76.1498 53.1256 76.6239C54.8816 77.6638 56.9082 78.1696 58.9348 78.1636C62.7469 78.1495 67.296 76.6525 69.3264 73.1201C69.9265 72.0723 68.342 71.1093 67.7418 72.157C66.2465 74.7664 63.014 75.9097 60.2124 76.2143C58.6564 76.3852 57.0788 76.2549 55.5983 75.7293C54.9414 75.4973 54.3246 75.1855 53.738 74.8037C53.4202 74.595 53.1125 74.3714 52.8247 74.1179C52.6734 73.986 52.5272 73.8492 52.3859 73.7074C52.2641 73.5859 52.1003 73.2131 52.1805 73.575L52.1758 74.0766L52.0457 74.3062L51.389 74.5758L51.4875 74.5667C51.9847 74.5213 52.4158 74.1792 52.421 73.6325C52.4255 73.161 52.0074 72.6404 51.5053 72.6808L51.5151 72.6859Z" fill="#BABABA"/>
<path d="M49.6961 65.8264C49.9352 64.9809 50.5418 64.2894 51.2724 64.0103C52.166 63.6676 53.2402 63.9788 53.8224 64.827C54.4046 65.6753 54.392 67.0145 53.7403 67.7959C53.0885 68.5773 51.8536 68.6108 51.2267 67.8073C50.4831 66.8622 50.843 65.2102 51.7549 64.4864" fill="white"/>
<path d="M50.2847 65.9975C50.3049 65.9375 50.3202 65.8775 50.3405 65.8124C50.3405 65.8124 50.421 65.6226 50.3708 65.7274C50.4211 65.6125 50.4812 65.5028 50.5461 65.398C50.676 65.1886 50.7407 65.1089 50.954 64.9153C50.954 64.9153 51.1077 64.7863 51.0135 64.8607C51.0532 64.831 51.0928 64.8012 51.1324 64.7765C51.2215 64.7172 51.3154 64.6679 51.4093 64.6186C51.5675 64.5398 51.3058 64.6427 51.4735 64.5941C51.5277 64.5796 51.582 64.5601 51.6363 64.5455C51.6905 64.531 51.7447 64.5215 51.8038 64.512C51.932 64.4831 51.7202 64.5112 51.8629 64.5075C51.976 64.5086 52.0891 64.5097 52.2023 64.5107C52.3793 64.5174 52.0943 64.4796 52.2612 64.5213C52.3151 64.5369 52.3741 64.5475 52.428 64.563C52.4623 64.5734 52.5016 64.5838 52.5359 64.5992C52.5457 64.5993 52.7221 64.6712 52.5996 64.6198C52.7221 64.6762 52.8345 64.7475 52.9469 64.8238C53.0936 64.9205 52.8788 64.7479 53.0055 64.8695C53.0348 64.8948 53.0641 64.9202 53.0933 64.9506C53.1372 64.9911 53.1761 65.0366 53.215 65.0821C53.215 65.0821 53.3315 65.2438 53.2685 65.1479C53.3315 65.2438 53.3896 65.3446 53.4428 65.4455C53.4572 65.4807 53.4765 65.516 53.4909 65.5513C53.4478 65.4355 53.5195 65.6569 53.5291 65.677C53.5624 65.7927 53.5859 65.9083 53.6045 66.0239C53.5812 65.8882 53.604 66.0841 53.6088 66.0941C53.6084 66.1343 53.6129 66.1744 53.6126 66.2146C53.6114 66.335 53.6103 66.4553 53.5994 66.5706C53.5828 66.7561 53.6348 66.4606 53.5889 66.6407C53.5685 66.7158 53.553 66.7959 53.5326 66.871C53.5174 66.916 53.5022 66.966 53.487 67.011C53.4769 67.041 53.4217 67.1508 53.4718 67.051C53.4217 67.1558 53.3618 67.2506 53.3018 67.3503C53.2119 67.49 53.3762 67.2858 53.262 67.4001C53.2222 67.4399 53.1874 67.4797 53.1428 67.5194C53.118 67.5442 53.0882 67.569 53.0585 67.5888C53.1626 67.5096 52.9794 67.6332 52.9596 67.6431C52.9151 67.6677 52.8657 67.6924 52.8163 67.717C52.9447 67.663 52.7867 67.7217 52.767 67.7265C52.7177 67.7411 52.6635 67.7506 52.6142 67.7652C52.5895 67.775 52.496 67.7792 52.624 67.7653C52.5206 67.7744 52.4173 67.7734 52.3141 67.7674C52.1518 67.7659 52.4269 67.8036 52.2699 67.762C52.2012 67.7413 52.1374 67.7256 52.0688 67.7049C51.961 67.6587 52.0442 67.6996 52.0688 67.7049C52.0198 67.6844 51.9757 67.6589 51.9318 67.6283C51.8878 67.5978 51.8438 67.5723 51.7998 67.5368C51.9072 67.6231 51.7706 67.5064 51.7609 67.4913C51.7219 67.4508 51.683 67.4103 51.649 67.3648C51.6635 67.385 51.7219 67.4558 51.649 67.3648C51.6248 67.3194 51.5957 67.274 51.5716 67.2286C51.5571 67.1984 51.5377 67.1681 51.5233 67.1329C51.5472 67.2033 51.5521 67.2034 51.5233 67.1329C51.4851 67.0121 51.4567 66.8965 51.4333 66.7709C51.4286 66.7407 51.4246 66.6504 51.4332 66.7759C51.4339 66.7006 51.4247 66.6303 51.4205 66.56C51.421 66.5049 51.4215 66.4497 51.4221 66.3945C51.4223 66.3694 51.454 66.134 51.428 66.2842C51.4438 66.174 51.4694 66.0639 51.5 65.9588C51.5152 65.9038 51.5305 65.8538 51.5506 65.7988C51.5607 65.7738 51.6463 65.5639 51.591 65.6888C51.6363 65.5889 51.6864 65.4891 51.7463 65.3993C51.7762 65.3545 51.8061 65.3096 51.8361 65.2647C51.876 65.2049 51.876 65.2049 51.8361 65.2647C51.856 65.2348 51.8808 65.21 51.9057 65.1851C51.9852 65.0956 52.0746 65.0112 52.1688 64.9318C52.4265 64.7185 52.3915 64.2667 52.1772 64.044C51.9239 63.7807 51.5693 63.8225 51.3066 64.0357C50.4095 64.7647 50.008 66.1303 50.2777 67.2565C50.5854 68.5236 51.8667 69.3132 53.105 68.9186C54.3433 68.524 54.9664 67.1253 54.8114 65.8346C54.6423 64.4686 53.634 63.4307 52.2977 63.2626C50.7993 63.0728 49.5043 64.2545 49.0927 65.6502C49.0012 65.9653 49.1943 66.3484 49.5133 66.4266C49.8323 66.5049 50.1733 66.3326 50.2748 65.9974L50.2847 65.9975Z" fill="#BABABA"/>
<path d="M64.2033 64.5689C64.4424 63.7234 65.0441 63.0319 65.7747 62.7528C66.6633 62.4101 67.7326 62.7212 68.3149 63.5694C68.8971 64.4177 68.8844 65.7569 68.2327 66.5383C67.581 67.3197 66.3559 67.3533 65.729 66.5498C64.9903 65.6047 65.3453 63.9527 66.2572 63.2289" fill="white"/>
<path d="M64.7919 64.7401C64.8121 64.6801 64.8274 64.62 64.8477 64.555C64.8477 64.555 64.9282 64.3651 64.878 64.47C64.9283 64.3551 64.9884 64.2453 65.0533 64.1406C65.0883 64.0857 65.1232 64.0359 65.1581 63.9861C65.168 63.9761 65.2278 63.8914 65.173 63.9661C65.2626 63.8566 65.357 63.7522 65.4612 63.6578C65.4612 63.6578 65.6149 63.5289 65.5207 63.6032C65.5653 63.5685 65.6149 63.5339 65.6643 63.5043C65.7485 63.4499 65.8325 63.4055 65.9165 63.3612C66.0698 63.2824 65.813 63.3853 65.9807 63.3367C66.0349 63.3222 66.0892 63.3026 66.1435 63.2881C66.1977 63.2735 66.2519 63.264 66.311 63.2545C66.3849 63.2402 66.3849 63.2452 66.311 63.2545C66.3405 63.2548 66.3652 63.25 66.3947 63.2503C66.498 63.2463 66.6013 63.2523 66.7045 63.2532C66.8815 63.2649 66.5917 63.2221 66.7635 63.2638C66.8174 63.2794 66.8714 63.2899 66.9303 63.3055C66.9892 63.3211 67.0382 63.3417 67.0921 63.3572C67.2589 63.409 67.0334 63.3266 67.1313 63.3727C67.2439 63.4289 67.3466 63.4951 67.4542 63.5613C67.6008 63.658 67.386 63.4854 67.5128 63.607C67.5567 63.6476 67.6005 63.6881 67.6395 63.7286C67.6785 63.7691 67.7223 63.8197 67.7563 63.8651C67.766 63.8753 67.8193 63.9611 67.7708 63.8853C67.8339 63.9813 67.887 64.0821 67.9402 64.1829C68.0272 64.3392 67.9117 64.0773 67.9691 64.2484C67.9929 64.3239 68.0168 64.3993 68.0407 64.4748C68.0644 64.5703 68.0832 64.6658 68.1019 64.7663C68.0835 64.6307 68.1013 64.8265 68.1061 64.8366C68.1056 64.8968 68.1099 64.957 68.1094 65.0172C68.1082 65.1376 68.1071 65.258 68.0863 65.3732C68.0866 65.3431 68.107 65.263 68.0813 65.3832C68.0658 65.4583 68.0454 65.5383 68.025 65.6134C68.0097 65.6684 67.9896 65.7234 67.9694 65.7784C67.9088 65.9434 68.0292 65.6887 67.9393 65.8383C67.8942 65.9232 67.8443 66.0029 67.7943 66.0827C67.7044 66.2274 67.8687 66.0182 67.7545 66.1325C67.7148 66.1723 67.68 66.2121 67.6402 66.2518C67.6254 66.2667 67.4867 66.3658 67.5956 66.2915C67.5362 66.3311 67.4768 66.3707 67.4125 66.4052C67.4125 66.4052 67.2545 66.4739 67.3434 66.4396C67.4322 66.4054 67.2693 66.464 67.2693 66.464C67.22 66.4786 67.1658 66.4881 67.1165 66.5027C66.9587 66.5464 67.2345 66.5038 67.0721 66.5123C66.9689 66.5113 66.8656 66.5104 66.7623 66.5094C66.8852 66.5206 66.8016 66.5148 66.7721 66.5095C66.7035 66.4888 66.6397 66.4731 66.571 66.4524C66.4189 66.4108 66.6639 66.5135 66.5269 66.4319C66.4829 66.4064 66.434 66.3809 66.39 66.3504C66.3704 66.3402 66.2485 66.2286 66.346 66.3199C66.3119 66.2894 66.2777 66.259 66.2485 66.2236C66.2194 66.1882 66.1853 66.1528 66.1561 66.1174C66.2436 66.2286 66.1465 66.0922 66.1319 66.072C66.1028 66.0266 66.0787 65.9812 66.0594 65.9359C66.045 65.9057 66.0305 65.8754 66.0161 65.8402C66.0449 65.9107 66.0449 65.9107 66.021 65.8402C65.9924 65.7396 65.9688 65.6391 65.9452 65.5335C65.9074 65.3676 65.944 65.6589 65.9407 65.4883C65.9414 65.4181 65.9322 65.3428 65.9329 65.2726C65.9334 65.2174 65.9339 65.1622 65.9344 65.112C65.9347 65.0819 65.9713 64.8566 65.9452 65.0068C65.966 64.8966 65.9866 64.7915 66.0171 64.6864C66.0324 64.6314 66.0476 64.5814 66.0678 64.5314C66.0779 64.5064 66.1683 64.3016 66.1081 64.4264C66.1533 64.3265 66.2034 64.2317 66.2584 64.1419C66.2883 64.0971 66.3182 64.0522 66.3482 64.0073C66.388 63.9525 66.388 63.9525 66.3482 64.0073C66.3681 63.9824 66.393 63.9526 66.4178 63.9277C66.4973 63.8382 66.5866 63.7588 66.6759 63.6794C66.9337 63.4661 66.8986 63.0193 66.6843 62.7915C66.431 62.5283 66.0765 62.5701 65.8138 62.7833C64.9215 63.5123 64.5251 64.868 64.785 65.9891C65.0781 67.2459 66.3199 68.0352 67.553 67.6807C68.786 67.3261 69.4582 65.9379 69.3128 64.6674C69.2356 63.9945 68.9907 63.3651 68.533 62.8692C68.0753 62.3733 67.4533 62.0915 66.795 62.005C65.2966 61.8153 64.0115 62.997 63.5999 64.3927C63.5084 64.7079 63.7015 65.0909 64.0205 65.1692C64.3395 65.2475 64.6805 65.0751 64.782 64.74L64.7919 64.7401Z" fill="#BABABA"/>
<path d="M52.8275 58.7328L52.8281 58.6626C52.7424 58.8825 52.6469 59.1023 52.5562 59.3272C52.6508 59.2127 52.6707 59.1878 52.616 59.2525L51.6864 59.2437L51.7403 59.2693L51.2906 58.4524L51.3373 58.192L52.6281 59.5335L52.7525 59.3792C52.9262 59.2203 52.9216 59.1802 52.7339 59.2687C52.7055 59.143 52.5364 59.3421 52.6106 59.3026C52.6501 59.2829 52.6994 59.2734 52.7389 59.2587C52.9215 59.1902 53.109 59.1318 53.2965 59.0633L55.2063 58.3991C56.1538 58.072 57.1063 57.7399 58.0537 57.4128C58.7841 57.1588 59.0053 56.1325 58.2913 55.6944C56.785 54.7772 55.0329 54.3694 53.2848 54.5836C51.6893 54.7792 49.9071 55.4747 49.3109 57.1395C48.7653 58.6693 49.5308 60.4223 50.8013 61.2971C52.2087 62.2685 54.1574 62.1716 55.6879 61.569C57.5541 60.8342 59.0412 59.0975 58.8941 56.9642C58.8292 56.0306 57.7111 55.6789 57.1822 56.4715L56.808 57.0298L57.8548 56.6083C56.681 56.4166 55.5304 56.3806 54.3531 56.5601C53.4369 56.7019 52.023 56.9394 52.0506 58.1837C52.0782 59.428 53.5557 59.748 54.4782 59.4607C55.4747 59.1491 56.0639 58.2216 56.4709 57.3075C56.6619 56.8729 56.6382 56.2607 56.1536 56.0153C55.385 55.6268 54.5256 55.4882 53.6918 55.7563C52.9616 55.9901 52.145 56.5242 52.0485 57.366C51.952 58.2079 52.6483 58.9518 53.4792 58.9898C54.3544 59.0282 54.9268 58.3162 55.3024 57.6025C55.5178 57.1881 55.4551 56.5354 54.9851 56.3103C53.7707 55.7319 52.4934 56.0911 51.3369 56.6721C50.1805 57.2531 49.5565 58.742 50.5455 59.7446C51.3835 60.5953 52.8623 60.2531 53.8684 59.9717C55.1456 59.6175 56.2829 58.9812 57.3237 58.1533C57.849 57.7369 57.5785 56.6959 56.9303 56.5795C55.8206 56.3783 54.8583 56.7104 53.9568 57.3841C53.1889 57.9587 52.0745 58.7809 52.192 59.8756C52.3182 61.0957 53.5953 61.2783 54.5043 60.8656C55.5416 60.3988 56.5217 59.7409 57.4575 59.0876C58.0814 58.6521 58.0668 57.5885 57.2524 57.365L57.4722 57.5277L57.5956 58.0054L57.5823 57.8497L56.1877 58.6492L57.2441 59.2862C57.6452 59.5258 58.2905 59.4215 58.5113 58.9621C58.682 58.5975 58.9245 57.9126 59.3535 57.8063C59.5655 57.7531 59.8936 57.9067 60.1098 57.9238C60.503 57.9576 60.8235 57.8703 61.1794 57.6931C62.1283 57.2105 61.4834 55.7095 60.4874 55.966L60.0288 56.087C59.4371 56.242 59.1895 56.9369 59.4649 57.4612C61.0207 60.4305 65.1701 62.1954 68.1541 60.2823C68.9558 59.7681 69.5734 58.9563 69.6074 57.9584C69.6359 57.0306 69.1969 56.1135 68.6033 55.4357C67.4111 54.075 65.6966 53.8532 64.0146 53.8272C62.3327 53.8013 60.2488 54.1528 59.6597 56.1086C59.548 56.4738 59.7152 57.0021 60.0726 57.176C61.1155 57.6825 62.1634 58.184 63.2063 58.6905C63.7448 58.9514 64.2834 59.2123 64.8269 59.4733C65.0081 59.5603 65.1842 59.6623 65.3807 59.6892C65.8031 59.7534 66.1155 59.4905 66.4568 59.283C66.8179 59.0657 67.1839 58.8585 67.5547 58.6563L66.1754 57.8306C66.1724 57.6249 66.2848 57.7113 65.9448 57.7733C65.7576 57.8066 65.5657 57.8098 65.3789 57.798C65.0151 57.7795 64.6619 57.6759 64.3188 57.5522C63.5542 57.2691 62.8602 56.791 62.2007 56.3183L62.3736 57.7947C62.8055 57.3774 63.3933 57.1121 63.9974 57.2081L63.4596 55.8235C63.3445 56.0381 63.2248 56.2126 63.0072 56.3359C62.9874 56.3458 62.8097 56.4093 62.7997 56.4293C62.7898 56.4342 62.775 56.4391 62.7603 56.4389C62.6421 56.4478 62.7151 56.5288 62.9892 56.6718L62.9845 57.1734C62.8064 57.2821 62.7815 57.312 62.9147 57.2681C63.0085 57.2389 63.1021 57.2197 63.1957 57.2055C63.3238 57.1817 63.4469 57.1678 63.5748 57.164C63.7815 57.1509 63.998 57.1479 64.2044 57.1699C64.396 57.1868 64.5475 57.2935 64.3432 57.0508C64.1389 56.8081 64.1326 56.9585 63.8072 57.0357C63.7234 57.055 63.6102 57.059 63.5362 57.0833L63.3985 57.082C63.2419 57.0053 63.3392 57.1116 63.6956 57.4009L63.5632 57.8762C63.7386 57.5267 64.5027 57.3483 64.8529 57.2463C65.1094 57.1735 65.3756 57.1057 65.6414 57.0832C65.7497 57.0742 65.858 57.0702 65.9709 57.0863C66.0785 57.1575 66.1031 57.1527 66.0498 57.067C66.2046 56.8226 65.9077 57.0104 65.8436 57.0299C65.5969 57.1078 65.3649 57.2009 65.1086 57.2587C64.8177 57.3262 64.5271 57.3686 64.227 57.3808C63.789 57.4018 64.0211 57.2986 64.0679 57.5599L64.0631 58.0615C64.0423 58.1817 64.2212 57.9928 64.3496 57.9338C64.4681 57.8847 64.6013 57.8509 64.7293 57.832C65.0199 57.7896 65.3394 57.8177 65.6087 57.9457L65.2913 56.6535C64.9965 57.1473 64.4827 57.3882 63.9283 57.2325L64.1334 58.9551C65.2009 58.4184 66.377 58.3542 67.5099 58.7111L67.3048 56.9885C66.6066 57.4886 65.8562 57.7825 65.0001 57.7995L65.4508 59.5544C65.7976 59.2918 66.1238 59.1244 66.5569 59.1034L65.6732 58.4028L65.6583 58.4227L65.7907 57.9474L65.86 57.8979L66.3284 57.7719C65.9445 57.7984 65.7221 57.9166 65.4152 58.1244C64.9151 58.4759 64.7092 59.4371 65.3998 59.7496C66.2667 60.139 67.6757 59.9065 67.6284 58.657C67.6125 58.2606 67.3657 57.8369 66.9583 57.7427C66.551 57.6486 66.2306 57.7208 65.9376 58.014C65.6297 58.3271 65.6058 58.7733 65.7842 59.1513L65.8083 59.2016C66.3194 60.295 67.9219 59.3571 67.4108 58.2687L67.3867 58.2183L67.2333 59.3556L67.2879 59.3009L66.3905 59.5332L66.4592 59.5489L65.7891 58.6346L65.7878 58.765C65.8385 58.605 65.8794 58.4499 65.9251 58.2898L66.3546 58.1283L66.3392 59.7534L66.6561 59.5307L66.1877 59.6567C67.0933 59.595 67.6907 58.8332 67.4682 57.9131C67.3784 57.531 66.9832 57.1962 66.5846 57.2125C65.8416 57.2456 65.146 57.4547 64.5466 57.9106C63.8728 58.4209 63.9887 59.6911 64.9973 59.6655C66.1632 59.6414 67.2831 59.2908 68.2388 58.6076C68.8727 58.1521 68.838 57.1385 68.0338 56.8851C66.4203 56.3782 64.7463 56.553 63.239 57.3063C62.5125 57.6706 62.7132 58.8162 63.4441 59.0288C64.793 59.4178 66.176 58.8138 66.8957 57.6067C67.1355 57.2077 67.0289 56.5244 66.5783 56.3145C65.3589 55.7512 63.9616 55.7881 62.8762 56.6607C61.6668 57.6375 62.5382 59.1206 63.87 59.2385C65.0003 59.3395 66.6905 59.0143 67.4665 58.0987C68.4066 56.9889 67.6242 55.4616 66.3132 55.2234C65.1004 55.0013 63.3147 55.5462 62.4018 56.3804C61.3152 57.3734 62.0534 58.8852 63.4055 58.9432C64.5118 58.9887 65.8106 58.4392 66.0531 57.2376C66.373 55.6604 64.8329 55.1944 63.6173 55.2682C62.9185 55.3067 62.0913 55.4043 61.5795 55.9512C61.0677 56.4982 61.0938 57.3763 61.6301 57.883C62.7514 58.942 64.463 57.9047 65.0688 56.7768C65.3242 56.3026 65.1499 55.4883 64.531 55.3922C63.2492 55.1844 62.0557 55.5243 61.1075 56.4434C60.6509 56.8855 60.8066 57.5843 61.2805 57.9198C62.4237 58.7433 63.6711 59.4724 65.0812 59.6362C66.2751 59.7779 68.0839 59.3887 68.0445 57.8333C68.0267 57.1107 67.2932 56.6624 66.6652 57.0076C66.1263 57.2984 65.602 57.6095 65.0825 57.9357L66.012 57.9445C64.3571 57.1463 62.7021 56.3481 61.0471 55.5499L61.46 56.6173C61.8155 55.4368 63.7462 55.6858 64.646 55.7143C65.8655 55.756 67.676 56.2245 67.7893 57.7706C67.8463 58.5086 66.9477 58.8663 66.3757 59.0164C65.7445 59.186 65.0656 59.1996 64.4275 59.0582C62.9894 58.7386 61.7928 57.8394 61.097 56.5135L60.5332 57.8877L60.9917 57.7666L60.2998 56.0394C60.1021 56.1429 59.5632 55.9071 59.3172 55.9148C58.9433 55.9313 58.5831 56.0483 58.2713 56.251C57.6527 56.6465 57.2676 57.3251 56.9614 57.9743L58.2286 57.6502L57.1721 57.0131C56.6097 56.6717 55.7254 57.0797 55.7775 57.8126C55.8254 58.4702 56.1403 58.9848 56.7879 59.1615L56.5828 57.439C56.0728 57.7953 55.5482 58.1365 55.014 58.4575C54.7617 58.6056 54.5095 58.7537 54.2524 58.8918C54.1733 58.9362 53.6747 59.1221 53.6543 59.2021L54.0767 59.783L54.2009 59.6538C54.3048 59.5945 54.3995 59.46 54.4888 59.3806C54.6773 59.2068 54.8708 59.033 55.0739 58.8845C55.4602 58.6022 55.96 58.2859 56.4608 58.3759L56.0674 56.8021C55.0168 57.6349 53.703 58.2144 52.3735 58.3623C52.2504 58.3762 52.1177 58.3649 51.9995 58.3839C51.9306 58.3933 51.651 58.3104 51.8712 58.4328C52.062 58.54 52.0089 58.4341 52.2905 58.2963C52.7403 58.0698 53.5703 57.6764 54.0747 57.9169L53.7574 56.6247C53.7023 56.7245 53.5229 56.9686 53.5023 57.0738L53.4327 57.1433C53.5612 57.0793 53.6841 57.0855 53.8063 57.1669L53.9297 57.6447C53.938 57.8053 53.8106 57.7589 54.0972 57.6161C54.2059 57.562 54.3194 57.5279 54.4377 57.504C54.7136 57.4514 54.9985 57.4942 55.2481 57.622L54.9308 56.3298C54.7801 56.6645 54.634 57.0293 54.4001 57.318C54.2955 57.4475 54.1565 57.5916 53.9986 57.6453L53.8654 57.6792C53.7229 57.6628 53.7081 57.6727 53.816 57.7088L53.9393 58.1865L53.9505 58.0462L53.8181 58.5215C53.7181 58.6911 53.7782 58.5813 53.9555 58.5529C54.1082 58.5292 54.2612 58.4805 54.409 58.4518C54.749 58.3848 55.0888 58.3429 55.4333 58.321C56.083 58.282 56.7468 58.3033 57.3901 58.4098C57.8223 58.479 58.1824 58.3671 58.4369 57.9882L58.811 57.4299L57.0991 56.9372C57.2115 58.5786 55.9423 59.6301 54.4928 59.9926C53.3145 60.2875 51.7071 60.177 51.1736 58.8627C50.5967 57.4476 51.9461 56.7531 53.0945 56.5031C54.5731 56.1809 56.1095 56.5115 57.3957 57.2962L57.6333 55.5778C56.6266 55.9245 55.6199 56.2761 54.6132 56.6228L52.7626 57.2674C52.5899 57.326 52.4172 57.3846 52.2494 57.4432C51.8595 57.59 51.6554 57.8439 51.3966 58.1675C50.6599 59.0886 51.7843 60.3382 52.6873 59.509C52.9801 59.2409 53.1952 58.8517 53.1942 58.4403C53.1971 58.1343 53.0334 57.7566 52.7445 57.6234C51.9463 57.2497 51.1049 57.7985 51.0424 58.6909C50.9523 59.8989 52.7967 59.9114 52.8867 58.7083L52.8275 58.7328Z" fill="#8B8B8B"/>
</g>
<path d="M112 18.0881L112.705 18.7931M109.413 23.029L103.556 17.5M104.235 25.5L103.556 24.9683M112.801 31.354L114.349 34.3093C114.724 35.0239 115.747 35.0239 116.121 34.3093L117.669 31.354C117.77 31.1626 117.929 31.0088 118.124 30.9157L121.11 29.4906C121.869 29.1283 121.869 28.048 121.11 27.6857L118.124 26.2606C117.929 26.1675 117.77 26.0137 117.669 25.8222L116.121 22.8669C115.747 22.1524 114.724 22.1524 114.349 22.8669L112.801 25.8222C112.701 26.0137 112.541 26.1675 112.346 26.2606L109.361 27.6857C108.602 28.048 108.602 29.1283 109.361 29.4906L112.346 30.9157C112.541 31.0088 112.701 31.1626 112.801 31.354Z" stroke="#B8B8B8" stroke-width="2" stroke-linecap="round" stroke-linejoin="round"/>
<path d="M91 13.4999L88.353 11M88.883 17.4997L83.058 12.0011M84.647 19.5L82 17.0001M91.6847 24.2944L92.7633 26.3311C93.1389 27.0405 94.1551 27.0405 94.5307 26.3311L95.6093 24.2944C95.7104 24.1035 95.8706 23.9504 96.0659 23.8581L98.0857 22.9042C98.8495 22.5433 98.8495 21.4565 98.0857 21.0957L96.0659 20.1417C95.8706 20.0495 95.7104 19.8964 95.6093 19.7055L94.5307 17.6688C94.1551 16.9594 93.1389 16.9594 92.7633 17.6688L91.6847 19.7055C91.5836 19.8964 91.4234 20.0495 91.2281 20.1417L89.2083 21.0957C88.4445 21.4565 88.4445 22.5433 89.2083 22.9042L91.2281 23.8581C91.4234 23.9504 91.5836 24.1035 91.6847 24.2944Z" stroke="#B8B8B8" stroke-width="2" stroke-linecap="round" stroke-linejoin="round"/>
<path d="M102.5 2.26038L101.218 0.999899M100.821 5.03285L98 2.26046M101.846 7.73045L103.897 6.72188L104.923 4.70521L105.949 6.72188L108 7.73045L105.949 8.73903L104.923 10.7557L103.897 8.73903L101.846 7.73045Z" stroke="#B8B8B8" stroke-width="1.5" stroke-linecap="round" stroke-linejoin="round"/>
<path d="M9 84H31.1007M46.295 89.5H58M67.4748 87.2083H73M52.7914 95H62M14.5 89.5H25.0899" stroke="#B8B8B8" stroke-width="2" stroke-linecap="round"/>
<defs>
<clipPath id="clip0_252_217">
<rect width="35.644" height="30.2974" fill="white" transform="translate(41.4973 51.7081) rotate(0.541569)"/>
</clipPath>
</defs>
</svg>
