<svg width="35" height="35" viewBox="0 0 35 35" fill="none" xmlns="http://www.w3.org/2000/svg">
<path d="M11.6805 6.41189C12.0358 5.6303 13.146 5.6303 13.5013 6.4119L16.6818 13.4091L23.679 16.5896C24.4606 16.9449 24.4606 18.0551 23.679 18.4104L16.6818 21.5909L13.5013 28.5881C13.146 29.3697 12.0358 29.3697 11.6805 28.5881L8.5 21.5909L1.5028 18.4104C0.721208 18.0551 0.72121 16.9449 1.50281 16.5896L8.5 13.4091L11.6805 6.41189ZM12.5909 12.3127L10.9545 15.8636L7.40364 17.5L10.9545 19.1364L12.5909 22.6873L14.2273 19.1364L17.7782 17.5L14.2273 15.8636L12.5909 12.3127ZM29.8607 10.6046C29.5055 11.3832 28.3999 11.3849 28.0424 10.6073L26.8927 8.10727L24.3927 6.95762C23.6151 6.60005 23.6168 5.4945 24.3954 5.13928L26.8927 4L28.0418 1.49209C28.3988 0.712861 29.5066 0.714528 29.8613 1.49483L31 4L33.5052 5.13871C34.2855 5.4934 34.2871 6.60117 33.5079 6.9582L31 8.10727L29.8607 10.6046ZM29.8607 33.5137C29.5055 34.2923 28.3999 34.294 28.0424 33.5164L26.8927 31.0164L24.3927 29.8667C23.6151 29.5091 23.6168 28.4036 24.3954 28.0484L26.8927 26.9091L28.0418 24.4012C28.3988 23.622 29.5066 23.6236 29.8613 24.4039L31 26.9091L33.5052 28.0478C34.2855 28.4025 34.2871 29.5103 33.5079 29.8673L31 31.0164L29.8607 33.5137Z" fill="#5B5B5B"/>
</svg>
