<svg width="79" height="66" viewBox="0 0 79 66" fill="none" xmlns="http://www.w3.org/2000/svg">
<path d="M20.5512 11.3796C20.1186 11.3489 19.6818 11.3333 19.2414 11.3333C9.16799 11.3333 1 19.4907 1 29.5556C1 36.4653 4.8496 42.4759 10.5225 45.5654C10.4961 45.9661 10.4828 46.3704 10.4828 46.7778C10.4828 56.8427 18.6507 65 28.7241 65C34.7716 65 40.1324 62.06 43.4514 57.5323C46.3773 59.5277 49.9144 60.6944 53.7241 60.6944C63.7975 60.6944 71.9655 52.5371 71.9655 42.4722C71.9655 41.0614 71.805 39.688 71.5013 38.3693C75.4514 35.3546 78 30.5999 78 25.25C78 16.1363 70.6039 8.75 61.4828 8.75C59.6889 8.75 57.9619 9.03568 56.3446 9.56399C52.3829 4.35966 46.1184 1 39.069 1C31.2302 1 24.3619 5.15421 20.5512 11.3796Z" fill="#C5D9E0" stroke="#9FC1CB" stroke-width="2"/>
<path d="M34.19 41V21.32H45.83V24.35H37.64V29.48H45.53V32.54H37.64V37.94H45.83V41H34.19Z" fill="white"/>
</svg>
