<svg width="79" height="64" viewBox="0 0 79 64" fill="none" xmlns="http://www.w3.org/2000/svg">
<path d="M15.0965 48.2613C17.0932 48.2613 18.9522 47.9542 20.6787 47.399C22.2817 53.859 28.8322 63 44.4623 63C53.8025 63 58.9357 57.8272 61.1454 52.6285C61.536 51.7094 61.8371 50.7863 62.0547 49.8877C62.5849 49.9516 63.1244 49.9845 63.6716 49.9845C71.6608 49.9845 78 42.9792 78 34.5141C78 28.5713 74.8756 23.3479 70.2495 20.7628C70.315 20.1323 70.3486 19.4919 70.3486 18.8438C70.3486 9.49072 63.3464 1.76556 54.5393 1.76556C49.6184 1.76556 45.2609 4.17735 42.3736 7.9373C39.5069 3.74229 34.9003 1 29.653 1C21.3368 1 14.6298 7.88814 13.9081 16.5308C13.0344 16.3805 12.0843 16.5644 11.2104 16.9049C9.6942 17.4956 8.06786 18.6642 6.58632 20.1685C3.63251 23.1677 1 27.7675 1 32.552C1 37.1697 2.27945 41.1027 4.72932 43.8959C7.1928 46.7047 10.7539 48.2613 15.0965 48.2613Z" fill="white" stroke="#9FC1CB" stroke-width="2" stroke-linejoin="round"/>
<path d="M34.8595 42.5V39.74H38.9995V25.58H34.8595V22.82H46.5595V25.58H42.4195V39.74H46.5595V42.5H34.8595Z" fill="#5B5B5B"/>
</svg>
