<svg width="14" height="15" viewBox="0 0 14 15" fill="none" xmlns="http://www.w3.org/2000/svg">
<path fill-rule="evenodd" clip-rule="evenodd" d="M7 0C3.13409 0 0 3.35795 0 7.5C0 11.642 3.13409 15 7 15C10.8659 15 14 11.642 14 7.5C14 3.35795 10.8659 0 7 0ZM7.63636 10.2273C7.63636 10.4081 7.56932 10.5815 7.44998 10.7094C7.33064 10.8373 7.16877 10.9091 7 10.9091C6.83123 10.9091 6.66936 10.8373 6.55002 10.7094C6.43068 10.5815 6.36364 10.4081 6.36364 10.2273V8.18182H4.45455C4.28577 8.18182 4.12391 8.10998 4.00457 7.98212C3.88523 7.85425 3.81818 7.68083 3.81818 7.5C3.81818 7.31917 3.88523 7.14575 4.00457 7.01788C4.12391 6.89002 4.28577 6.81818 4.45455 6.81818H6.36364V4.77273C6.36364 4.5919 6.43068 4.41847 6.55002 4.29061C6.66936 4.16274 6.83123 4.09091 7 4.09091C7.16877 4.09091 7.33064 4.16274 7.44998 4.29061C7.56932 4.41847 7.63636 4.5919 7.63636 4.77273V6.81818H9.54545C9.71423 6.81818 9.87609 6.89002 9.99543 7.01788C10.1148 7.14575 10.1818 7.31917 10.1818 7.5C10.1818 7.68083 10.1148 7.85425 9.99543 7.98212C9.87609 8.10998 9.71423 8.18182 9.54545 8.18182H7.63636V10.2273Z" fill="#5B5B5B"/>
</svg>
