<svg width="50" height="49" viewBox="0 0 50 49" fill="none" xmlns="http://www.w3.org/2000/svg">
<path d="M21.3575 33.7932C15.0221 44.3401 22.9063 53.8309 25.0365 43.2145C26.0188 51.4805 35.8728 47.6227 29.0713 33.3519" fill="white"/>
<path d="M20.5456 33.3271C18.5056 36.7585 17.2877 41.0923 18.4104 45.0343C18.7613 46.2591 19.3728 47.5037 20.4353 48.2673C21.3526 48.9268 22.5655 48.9566 23.4928 48.302C25.0115 47.226 25.5879 45.1831 25.9437 43.4674L24.0992 43.2195C24.2847 44.7021 24.6957 46.2194 25.7633 47.3302C26.5703 48.1781 27.7381 48.6144 28.9009 48.3715C31.8982 47.7467 32.5247 43.8443 32.3643 41.3699C32.1739 38.4047 31.1514 35.5585 29.8833 32.8858C29.6678 32.4296 29.0062 32.3156 28.5952 32.5536C28.124 32.8263 28.0438 33.3668 28.2594 33.8279C29.2518 35.9204 30.0938 38.2163 30.3945 40.4724C30.5048 41.3005 30.5399 42.1484 30.4798 42.9864C30.4447 43.4178 30.4497 43.4327 30.3545 43.874C30.2893 44.1815 30.2091 44.4839 30.1038 44.7765C30.0788 44.8459 30.0537 44.9153 30.0287 44.9798C29.9435 45.2079 30.1139 44.8013 30.0136 45.0195C29.9535 45.1434 29.8983 45.2624 29.8332 45.3814C29.773 45.4905 29.7029 45.5996 29.6327 45.7087C29.5976 45.7583 29.5625 45.8079 29.5274 45.8575C29.4322 45.9913 29.6678 45.7137 29.4873 45.8971C29.347 46.0459 29.2067 46.1847 29.0463 46.3186C29.2818 46.1252 29.0062 46.3384 28.941 46.3781C28.8608 46.4277 28.505 46.5665 28.8107 46.4624C28.6453 46.5219 28.4749 46.5517 28.3095 46.6012C28.6102 46.5169 28.3496 46.5913 28.2343 46.5913C28.1892 46.5913 28.1391 46.5864 28.094 46.5913C27.8634 46.6012 28.2393 46.6459 28.114 46.5963C28.0338 46.5665 27.9235 46.5517 27.8383 46.5318C27.7932 46.5219 27.7481 46.4971 27.703 46.4872C27.5276 46.4327 27.9085 46.5913 27.7481 46.507C27.6729 46.4674 27.5977 46.4327 27.5276 46.388C27.4825 46.3632 27.4424 46.3335 27.3973 46.3037C27.1817 46.1798 27.4925 46.3979 27.3772 46.2889C27.282 46.1996 27.1817 46.1203 27.0915 46.026C27.0514 45.9864 27.0163 45.9368 26.9762 45.8971C26.7958 45.7087 27.0264 45.9814 26.9361 45.8525C26.7707 45.6194 26.6254 45.3765 26.5001 45.1186C26.47 45.0542 26.4399 44.9897 26.4099 44.9252C26.5101 45.1484 26.3798 44.8459 26.3648 44.8062C26.2996 44.6327 26.2445 44.4591 26.1943 44.2806C26.1392 44.0922 26.0941 43.8988 26.059 43.7054C26.044 43.6162 26.0289 43.5319 26.0089 43.4426C25.9989 43.3831 25.9888 43.3236 25.9788 43.2641C25.9888 43.3583 25.9888 43.3484 25.9788 43.2344C25.9237 42.7732 25.663 42.3815 25.1618 42.322C24.7258 42.2724 24.2245 42.5302 24.1293 42.9864C23.9689 43.7649 23.7584 44.598 23.4577 45.3021C23.3424 45.5699 23.2071 45.8327 23.0517 46.0806C23.0216 46.1302 22.7961 46.4475 22.8913 46.3285C22.8111 46.4326 22.7209 46.5318 22.6257 46.6211C22.5655 46.6756 22.3751 46.8293 22.5455 46.7103C22.4653 46.7698 22.3751 46.8145 22.2949 46.869C22.1345 46.9831 22.4402 46.8541 22.2097 46.9087C22.1094 46.9335 21.8387 46.9434 22.1194 46.9434C22.0342 46.9434 21.949 46.9434 21.8638 46.9434C21.7435 46.9434 22.0944 47.0128 21.9189 46.9434C21.8939 46.9335 21.8337 46.9186 21.8087 46.9136C21.7736 46.9136 21.7285 46.8839 21.6984 46.8789C21.9089 46.9434 21.8137 46.9335 21.7586 46.9037C21.6583 46.8492 21.5631 46.7897 21.4628 46.7302C21.3576 46.6657 21.5932 46.8393 21.4979 46.7599C21.4528 46.7252 21.4127 46.6855 21.3676 46.6508C21.2974 46.5864 21.2323 46.5219 21.1671 46.4525C21.132 46.4178 21.102 46.3781 21.0719 46.3434C20.9115 46.1649 21.1421 46.4475 21.0518 46.3236C20.9616 46.1996 20.8814 46.0806 20.8062 45.9566C20.5005 45.4459 20.3902 45.1583 20.2198 44.5583C19.8289 43.1947 19.7938 41.7617 19.9742 40.3237C20.2449 38.1816 21.0619 36.1386 22.1645 34.2891C22.781 33.2577 21.1571 32.3205 20.5406 33.3519L20.5456 33.3271Z" fill="#5B5B5B"/>
<path d="M20.8061 14.2912C18.8414 10.6317 17.2274 5.52936 19.6834 1.83025C22.0742 -0.703586 24.1242 2.71784 25.0815 4.72111C25.6078 4.1955 25.8634 3.09965 26.2794 2.42032C27.2919 0.764155 29.6126 0.387303 30.6852 2.19719C32.2289 5.98059 30.224 10.9392 28.7755 14.5044" fill="white"/>
<path d="M21.6182 13.8251C20.0945 10.959 18.7412 7.3789 19.6584 4.12111C19.9391 3.12443 20.736 1.24513 22.0543 2.08809C23.1118 2.76741 23.7484 4.10623 24.2747 5.19712C24.5303 5.72273 25.3673 5.80703 25.7482 5.38555C26.6655 4.37399 26.7206 2.52444 28.1591 2.02858C28.6252 1.86991 29.1315 1.91949 29.5174 2.23189C30.0587 2.6732 30.174 3.56575 30.2542 4.21532C30.6752 7.65658 29.1465 11.1474 27.8834 14.2664C27.693 14.7374 28.0939 15.2829 28.54 15.4118C29.0763 15.5606 29.5074 15.2283 29.6978 14.7622C31.2015 11.0582 33.0109 6.71445 31.8531 2.6732C31.3418 0.88315 29.7079 -0.296993 27.8082 0.198865C26.9361 0.42696 26.1893 0.98728 25.663 1.70132C25.1367 2.41535 25.0265 3.41699 24.43 4.07648L25.9036 4.26491C24.9012 2.17734 22.756 -1.17962 19.9792 0.417043C18.5557 1.23521 17.9042 3.00542 17.6586 4.53763C17.3929 6.18388 17.5333 7.85492 17.9192 9.47142C18.3603 11.321 19.1171 13.0912 20.0043 14.7672C20.5656 15.8283 22.1896 14.8862 21.6282 13.83L21.6182 13.8251Z" fill="#5B5B5B"/>
<path d="M15.9645 20.9256C12.8269 17.8711 3.66959 16.3935 1.74992 21.1438C2.01055 22.8297 4.26604 23.5735 5.71957 22.914C-2.53049 21.1934 -0.645904 32.6775 15.6587 26.6825" fill="white"/>
<path d="M16.6311 20.2661C14.4207 18.1538 10.9824 17.2265 7.98009 17.1621C6.42631 17.1274 4.8174 17.3654 3.42402 18.0745C2.21608 18.6893 0.431741 20.2463 0.93296 21.7438C1.64469 23.8661 4.27609 24.5157 6.19575 23.7124C6.93756 23.4 6.71702 22.1653 5.97021 22.0116C4.53171 21.719 2.9228 21.6496 1.59457 22.3835C0.632229 22.9239 -0.0243676 23.9157 0.000693371 25.0264C0.0758761 28.185 4.14577 29.2412 6.67191 29.3453C9.81956 29.4742 12.9823 28.6412 15.9094 27.5751C17.0371 27.1635 16.5459 25.3685 15.4081 25.7801C13.0274 26.6478 10.5263 27.3569 7.98009 27.4759C7.12802 27.5156 6.19074 27.4908 5.42388 27.3619C5.05799 27.2974 4.69711 27.2181 4.34125 27.109C3.96533 26.9949 3.81497 26.9404 3.56937 26.8214C3.30873 26.6974 3.06314 26.5536 2.82757 26.395C2.60703 26.2462 2.87267 26.4545 2.6772 26.2859C2.57696 26.1966 2.47671 26.1123 2.38649 26.0131C2.33637 25.9586 2.09077 25.6462 2.25116 25.8743C2.19603 25.795 2.1409 25.7156 2.09077 25.6313C2.04065 25.547 2.00056 25.4677 1.96046 25.3884C1.87024 25.2148 2.03063 25.5966 1.97549 25.4132C1.96046 25.3636 1.94041 25.314 1.92537 25.2644C1.90532 25.1702 1.87525 24.8429 1.89029 25.1652C1.89029 25.0859 1.88026 25.0016 1.88026 24.9223C1.88026 24.8231 1.94542 24.5851 1.87024 24.8826C1.8953 24.7933 1.91535 24.6991 1.94041 24.6049C1.99053 24.3917 1.82012 24.7537 1.97048 24.5404C2.0206 24.4661 2.06571 24.3867 2.11583 24.3124C1.91535 24.6148 2.54187 23.9702 2.26119 24.1686C2.35642 24.1041 2.45165 24.0396 2.54688 23.9851C2.597 23.9553 2.65214 23.9305 2.70727 23.9008C2.94285 23.7818 2.61204 23.9256 2.77243 23.876C3.03808 23.7867 3.30372 23.7173 3.57939 23.6777C3.35384 23.7124 3.79993 23.6628 3.87511 23.6628C4.04553 23.6578 4.21594 23.6578 4.38635 23.6628C4.87755 23.6826 4.99283 23.7024 5.474 23.8016L5.24845 22.1008C4.25103 22.5173 2.86766 21.962 2.65715 20.886V21.3818C3.56937 19.2199 6.47142 18.9025 8.54647 19.0364C10.8821 19.1852 13.6038 19.9488 15.3029 21.5703C16.175 22.4033 17.5032 21.0893 16.6311 20.2562V20.2661Z" fill="#5B5B5B"/>
<path d="M33.9733 20.9108C37.1259 17.8414 46.3333 16.3539 48.263 21.1339C48.0024 22.8298 45.7318 23.5736 44.2733 22.9091C51.8868 21.0397 51.8417 32.4147 33.9031 26.9256" fill="white"/>
<path d="M34.6348 21.5703C36.344 19.9389 39.0856 19.1704 41.4313 19.0216C43.5164 18.8877 46.4385 19.21 47.3557 21.3819V20.886C47.1502 21.967 45.7468 22.5273 44.7444 22.1058L44.5188 23.8066C44.6943 23.767 44.8647 23.7323 45.0401 23.6975C45.0652 23.6926 45.3509 23.6529 45.1253 23.6827C45.2055 23.6728 45.2857 23.6628 45.3659 23.6579C45.6666 23.6331 45.9674 23.6331 46.2681 23.648C46.3383 23.648 46.4084 23.6579 46.4736 23.6678C46.213 23.638 46.4385 23.6628 46.4886 23.6728C46.5939 23.6926 46.6991 23.7124 46.8044 23.7422C46.9247 23.7719 47.04 23.8116 47.1552 23.8513C47.2154 23.8711 47.3958 23.9604 47.1452 23.8463C47.2054 23.8761 47.2655 23.9009 47.3206 23.9306C47.4059 23.9802 47.4911 24.0298 47.5763 24.0794C47.8319 24.2281 47.5211 24 47.6715 24.1537C47.7367 24.2182 47.7968 24.2827 47.867 24.3422C48.0524 24.5108 47.8118 24.1884 47.9371 24.4364C47.9772 24.5157 48.0274 24.6 48.0725 24.6793C48.0975 24.724 48.0324 24.4909 48.0725 24.7091C48.0875 24.7934 48.1126 24.8876 48.1326 24.9719C48.0524 24.6496 48.1176 24.9769 48.1226 25.086C48.1226 25.1851 48.0474 25.4231 48.1276 25.1157C48.1025 25.2099 48.0825 25.2992 48.0624 25.3934C48.0524 25.443 48.0274 25.4876 48.0123 25.5322C47.9572 25.7107 48.1176 25.3289 48.0274 25.4926C47.9772 25.5868 47.9271 25.676 47.872 25.7653C47.8419 25.8099 47.8118 25.8545 47.7768 25.8992C47.6615 26.0628 47.9221 25.7355 47.7818 25.8892C47.7166 25.9636 47.6514 26.038 47.5813 26.1074C47.4911 26.1967 47.3958 26.276 47.2956 26.3554C47.4911 26.1967 47.1101 26.4793 47.04 26.5239C46.4385 26.8958 46.1428 26.995 45.431 27.1834C44.569 27.4066 43.8522 27.481 42.945 27.5057C39.9527 27.5851 36.9805 26.8958 34.1336 26.033C32.9758 25.681 32.4796 27.476 33.6324 27.8281C36.5294 28.7057 39.5718 29.39 42.6192 29.3702C44.4236 29.3553 46.3884 29.1024 47.9572 28.1504C49.0198 27.5057 49.8919 26.4942 49.9921 25.2248C50.0773 24.1042 49.4608 23.1025 48.5436 22.4877C47.2304 21.61 45.4862 21.6645 44.0076 22.0215C43.2858 22.1951 43.0202 23.4 43.782 23.7223C45.4812 24.4364 47.6565 24.0446 48.7241 22.4529C48.9646 22.091 49.1902 21.5852 49.1902 21.1389C49.1902 20.7274 48.8945 20.2612 48.6689 19.9241C48.2529 19.2993 47.7216 18.7885 47.1001 18.372C44.4587 16.6117 40.6394 16.944 37.7524 17.8365C36.1334 18.3373 34.5245 19.0861 33.2915 20.2612C32.4194 21.0943 33.7476 22.4083 34.6198 21.5753L34.6348 21.5703Z" fill="#5B5B5B"/>
<path d="M15.9796 28.6263C12.436 27.5106 1.60965 33.0543 5.70461 37.2096C6.85741 37.7402 11.3383 36.3815 10.9423 34.9733C8.40116 36.7832 6.84237 41.5285 11.4436 41.5335C15.0724 40.9087 18.0997 35.8113 21.2223 34.0857" fill="white"/>
<path d="M16.2301 27.7288C14.6763 27.2677 12.8719 27.714 11.3933 28.2247C9.54885 28.8643 7.79458 29.7966 6.29093 31.0412C5.05292 32.0676 3.84498 33.5304 3.85501 35.2163C3.86002 36.0741 4.20085 36.8576 4.73715 37.5171C5.38873 38.3204 6.32601 38.3105 7.28334 38.1766C8.92233 37.9485 12.3406 36.9617 11.8444 34.7254C11.7241 34.18 10.9422 33.8229 10.4661 34.17C8.49629 35.608 6.321 39.0493 8.30081 41.3054C9.34836 42.5005 11.258 42.6988 12.6765 42.1484C14.4357 41.4691 15.8592 40.1749 17.1824 38.8807C18.6009 37.4923 19.9441 35.8807 21.6934 34.889C22.7409 34.294 21.7986 32.6874 20.7461 33.2825C17.9994 34.8394 16.2451 37.6163 13.719 39.4509C12.7015 40.1947 11.4084 40.9633 10.1303 40.3881C9.80447 40.2393 9.60398 39.9964 9.5288 39.7782C9.4035 39.4311 9.41853 39.0394 9.51376 38.6377C9.7744 37.5369 10.5012 36.446 11.4184 35.7766L10.04 35.2213C10.03 35.1866 10.025 35.0775 10.0551 35.0527C9.92476 35.1667 10.0751 35.0973 9.88968 35.251C9.70423 35.4047 9.39347 35.5932 9.10778 35.732C8.43614 36.0593 7.65424 36.2873 6.91244 36.3766C6.74202 36.3964 6.29093 36.4064 6.21073 36.3964C6.34105 36.4163 6.09044 36.3766 6.09044 36.3667L6.05536 36.3568C5.92504 36.3121 6.00523 36.3568 6.29093 36.4708C6.26587 36.4857 6.06037 36.1832 6.03029 36.1386C5.84484 35.846 5.84484 35.8262 5.76465 35.5188C5.71954 35.3353 5.72956 35.5089 5.73458 35.2708C5.73458 35.1865 5.76966 34.8345 5.7446 34.9783C5.94509 33.8626 6.88738 32.9205 7.85974 32.1717C9.04262 31.2593 10.421 30.5453 11.8294 30.0495C12.5461 29.7966 13.3832 29.5635 14.0799 29.4693C14.3204 29.4346 14.7164 29.4098 15.0171 29.4197C15.4131 29.4296 15.3479 29.4197 15.7289 29.5288C16.8917 29.8759 17.3879 28.0809 16.2301 27.7338V27.7288Z" fill="#5B5B5B"/>
<path d="M30.194 15.1241C30.5599 11.6283 33.6875 6.99204 37.2913 5.91603C38.6195 5.28133 40.865 5.20695 41.2659 6.9375C41.4865 8.17715 39.0004 12.1043 37.7323 11.3655C40.1532 9.40192 45.1905 9.13911 44.0076 13.5374C42.519 16.7307 37.3314 18.1241 34.9606 20.6232" fill="white"/>
<path d="M31.1314 15.1241C31.4722 12.1836 33.5422 9.0647 36.0583 7.50274C36.6548 7.13085 37.2963 6.873 37.958 6.64491C38.4842 6.4664 39.0807 6.35235 39.632 6.49119C40.038 6.59532 40.3337 6.86308 40.3337 7.19531C40.3337 7.29944 40.3337 7.18043 40.3387 7.1606C40.3287 7.2201 40.3137 7.28952 40.2986 7.34902C40.2686 7.45316 40.2435 7.55233 40.2084 7.6515C40.1232 7.90934 40.0079 8.14736 39.8826 8.38537C39.5769 8.96057 39.221 9.51593 38.7649 9.98699C38.5795 10.1804 38.399 10.3391 38.2236 10.4481C38.1685 10.4829 38.0482 10.4878 38.0331 10.5275C38.0331 10.5126 38.1735 10.5424 38.2035 10.5572L38.394 12.0151C39.1408 11.425 40.2385 11.0134 41.1657 10.944C41.692 10.9043 42.0479 10.9093 42.519 11.0928C42.7245 11.1721 43.0102 11.3754 43.1355 11.6779C43.1706 11.7572 43.2308 12.0101 43.2408 12.1688C43.2558 12.4613 43.2358 12.7588 43.1606 13.0415C43.0052 13.6316 42.5241 14.1423 42.093 14.5588C41.0204 15.5952 39.6821 16.334 38.399 17.0778C36.9605 17.9158 35.4619 18.7538 34.2991 19.9537C33.462 20.8165 34.7902 22.1355 35.6273 21.2678C38.0281 18.7934 41.7572 17.9703 43.9776 15.2728C45.0101 14.0183 45.5464 12.2679 44.7595 10.7357C44.153 9.54568 42.7847 9.0647 41.5066 9.06965C39.8927 9.07461 38.3138 9.70931 37.0608 10.6961C36.5946 11.063 36.755 11.901 37.2512 12.1539C38.805 12.9473 40.2034 11.3159 40.9803 10.1804C41.8023 8.97544 42.7095 7.26969 41.8274 5.87137C40.7547 4.17057 38.5343 4.44329 36.9254 5.04328C34.9456 5.78211 33.3618 7.0168 32.0636 8.66801C30.5951 10.5374 29.5224 12.739 29.2518 15.1043C29.1916 15.6051 29.7229 16.0365 30.1941 16.0365C30.7504 16.0365 31.0762 15.61 31.1364 15.1043L31.1314 15.1241Z" fill="#5B5B5B"/>
<path d="M33.9332 28.6263C37.4517 27.5156 48.1778 33.1139 44.0979 37.2096C42.9451 37.7402 38.4642 36.3816 38.8602 34.9733C41.4013 36.7832 42.9601 41.5286 38.359 41.5335C34.665 41.0674 32.3193 35.9353 29.4373 34.0857" fill="white"/>
<path d="M34.1838 29.5238C34.2991 29.4891 34.4144 29.4643 34.5296 29.4395C34.4695 29.4495 34.6048 29.4296 34.7502 29.4197C35.0409 29.4048 35.3316 29.4197 35.6223 29.4445C36.1185 29.4941 36.9104 29.6875 37.5069 29.8759C38.9654 30.337 40.3588 31.0362 41.6018 31.9188C42.1682 32.3155 42.6945 32.7767 43.1506 33.2924C43.4814 33.6692 43.8322 34.1899 43.9576 34.5915C44.1029 35.0675 44.128 35.4047 43.9576 35.8163C43.9024 35.9452 43.6468 36.2427 43.5967 36.3816C43.5265 36.565 43.6568 36.4262 43.7871 36.3369C43.747 36.3617 43.6468 36.3865 43.6017 36.3865C43.6819 36.3865 43.4263 36.3964 43.2859 36.3915C42.5191 36.3766 41.677 36.1436 40.9502 35.8411C40.6245 35.7022 40.2285 35.5039 39.9879 35.3105C40.043 35.3551 39.8977 35.2262 39.8877 35.2163C39.7874 35.1171 39.8175 35.132 39.7974 35.127C39.7323 35.0973 39.7724 34.9634 39.7523 35.0576C39.7072 35.2758 39.8075 35.0378 39.7674 35.2213L38.389 35.7766C39.1809 36.3518 39.8526 37.2791 40.1683 38.2014C40.3287 38.6774 40.419 39.1237 40.3488 39.5253C40.2987 39.8278 40.1533 40.0856 39.9027 40.2542C37.547 41.8658 34.7402 38.251 33.447 36.7435C32.3694 35.494 31.3068 34.2047 29.9134 33.2874C28.901 32.623 27.9587 34.2345 28.9661 34.894C30.3445 35.8014 31.377 37.2047 32.4446 38.4344C33.5723 39.7336 34.8053 41.1071 36.3841 41.8806C37.963 42.6542 39.8125 42.7335 41.1758 41.6228C42.2534 40.7501 42.4138 39.3071 42.078 38.0377C41.667 36.4807 40.6295 35.1171 39.3363 34.175C38.8552 33.8279 38.0783 34.1849 37.958 34.7304C37.5069 36.7634 40.3638 37.7501 41.8925 38.0774C42.6795 38.246 43.7019 38.4295 44.4638 38.0625C45.2256 37.6956 45.7369 36.6642 45.8822 35.8907C46.208 34.1998 45.2206 32.6527 44.0428 31.5172C42.6394 30.1685 40.8951 29.1916 39.0907 28.4726C37.4718 27.823 35.4268 27.2131 33.6876 27.7338C32.5348 28.0809 33.026 29.8759 34.1888 29.5288L34.1838 29.5238Z" fill="#5B5B5B"/>
<path d="M20.1548 15.2034C19.9242 11.7671 16.8618 7.28458 13.4535 6.03998C12.1553 5.35074 9.91991 5.17223 9.43373 6.88294C9.15806 8.11267 11.4587 12.149 12.7618 11.4647C10.4312 9.39694 5.41396 8.90604 6.39133 13.3539C7.68448 16.6712 12.8871 18.0794 15.2028 20.5835" fill="white"/>
<path d="M21.097 15.2034C20.9316 13.1456 20.0895 11.1721 18.9167 9.48123C17.7438 7.79035 16.17 6.19865 14.2303 5.35569C12.6565 4.67636 10.5614 4.05654 9.17801 5.48957C7.96005 6.74905 8.62667 8.4548 9.34842 9.77874C10.0702 11.1027 11.4936 13.0663 13.2379 12.268C13.7692 12.025 13.8544 11.1771 13.4283 10.8101C11.6189 9.24322 7.82472 7.91927 6.01031 10.1953C5.02291 11.43 5.16826 13.2993 5.9652 14.5886C6.88744 16.0861 8.40112 17.1224 9.8747 18.0397C11.4686 19.0265 13.2429 19.8744 14.5461 21.248C15.3731 22.1256 16.7013 20.8066 15.8743 19.9339C13.8443 17.7869 10.8671 16.8646 8.68681 14.9059C7.77459 14.0878 7.00773 13.0762 7.25834 11.8366C7.33352 11.4597 7.529 11.2366 7.80968 11.0829C8.11542 10.9143 8.48632 10.8647 8.94243 10.8746C10.0301 10.8994 11.2581 11.3952 12.1051 12.1291L12.2956 10.6713C12.3307 10.6564 12.4059 10.6415 12.4309 10.6267C12.5562 10.5473 12.3507 10.701 12.456 10.6267C12.476 10.6118 12.461 10.6267 12.446 10.6167C12.2505 10.4779 12.1703 10.4482 11.9748 10.2498C11.5839 9.85808 11.2781 9.39197 11.0125 8.91099C10.7468 8.43001 10.5363 7.97382 10.411 7.46308C10.3559 7.23003 10.3258 7.28458 10.3659 7.03665C10.3358 7.25978 10.406 6.97714 10.4611 6.89781C10.5062 6.82839 10.5564 6.76888 10.6215 6.71434C11.4836 6.01518 13.0875 6.8383 13.8794 7.25978C15.2628 7.99861 16.4156 9.15892 17.2977 10.4333C18.2751 11.8366 19.0871 13.4927 19.2224 15.2183C19.3177 16.4034 21.1972 16.4133 21.102 15.2183L21.097 15.2034Z" fill="#5B5B5B"/>
<path d="M14.6529 16.8458C7.29154 27.3114 18.6277 42.0624 31.5538 35.0708C48.774 23.4781 28.1987 1.1473 14.6529 16.8458Z" fill="#FFF100"/>
<path d="M13.6388 16.2575C10.027 21.4718 10.5215 28.358 14.5527 33.1883C16.3993 35.4053 19.0095 37.0588 21.8514 37.7028C25.2191 38.4707 28.6869 37.8266 31.7353 36.2847C33.1438 35.5725 34.4458 34.3959 35.5162 33.2503C36.4927 32.2037 37.3627 31.0209 37.9824 29.7328C39.1092 27.4106 39.5098 24.8654 39.128 22.314C38.4206 17.5704 34.9966 13.3346 30.5773 11.4272C27.9545 10.294 25.0563 9.97815 22.2583 10.616C18.9094 11.3839 16.03 13.4832 13.814 16.0222C12.8313 17.1493 14.4838 18.7965 15.4728 17.6633C17.1942 15.6878 19.2912 13.9662 21.8326 13.1426C23.8795 12.48 26.0203 12.4305 28.0609 12.9878C31.9544 14.0529 35.2282 17.2236 36.4301 21.0197C37.8072 25.3855 36.1296 29.7328 32.643 32.7734C28.4303 36.4519 21.9203 36.7615 17.6387 33.0211C15.5229 31.1695 14.1145 28.6553 13.6325 25.8995C13.113 22.9147 13.9392 19.905 15.6544 17.4341C16.5119 16.1956 14.4776 15.0376 13.6263 16.2637L13.6388 16.2575Z" fill="#5B5B5B"/>
<path d="M28.6938 23.2667L28.8668 23.3558C29.0142 23.4502 29.1719 23.5026 29.3397 23.5131C29.5076 23.5498 29.6754 23.5446 29.8483 23.4921C30.0161 23.4502 30.1585 23.3716 30.2806 23.2562C30.4179 23.1619 30.5298 23.0413 30.6061 22.8892L30.7332 22.5747C30.7943 22.344 30.7943 22.1081 30.7332 21.8774L30.6061 21.5629C30.4942 21.3637 30.3416 21.2116 30.1484 21.091L29.9754 21.0019C29.828 20.9075 29.6703 20.8551 29.5025 20.8446C29.3346 20.8079 29.1668 20.8132 28.9939 20.8656C28.8261 20.9075 28.6837 20.9862 28.5616 21.1015C28.4243 21.1959 28.3124 21.3165 28.2361 21.4685L28.109 21.7831C28.0479 22.0137 28.0479 22.2496 28.109 22.4803L28.2361 22.7949C28.348 22.9941 28.5006 23.1461 28.6938 23.2667Z" fill="#5B5B5B"/>
<path d="M22.001 21.091L21.8281 21.0019C21.6806 20.9076 21.5229 20.8551 21.3551 20.8446C21.1873 20.8079 21.0194 20.8132 20.8465 20.8656C20.6787 20.9075 20.5363 20.9862 20.4142 21.1015C20.2769 21.1959 20.165 21.3165 20.0887 21.4685L19.9616 21.7831C19.9006 22.0137 19.9006 22.2496 19.9616 22.4803L20.0887 22.7949C20.2006 22.9941 20.3532 23.1461 20.5465 23.2667L20.7194 23.3558C20.8669 23.4502 21.0245 23.5026 21.1923 23.5131C21.3602 23.5498 21.528 23.5446 21.7009 23.4921C21.8688 23.4502 22.0112 23.3716 22.1332 23.2562C22.2705 23.1619 22.3824 23.0413 22.4587 22.8892L22.5858 22.5747C22.6469 22.344 22.6469 22.1081 22.5858 21.8774L22.4587 21.5629C22.3468 21.3637 22.1942 21.2116 22.001 21.091Z" fill="#5B5B5B"/>
<path d="M25.0848 30.7789C24.8707 30.7789 24.6622 30.7229 24.4762 30.616L22.2446 29.3127C21.7205 29.0072 21.5683 28.3759 21.9064 27.9076C22.2446 27.4341 22.9433 27.3017 23.4618 27.6021L25.0341 28.5185L28.0716 26.4566C28.5675 26.1206 29.2776 26.2072 29.6495 26.6603C30.0215 27.1134 29.92 27.7497 29.4241 28.0857L25.7611 30.5702C25.5638 30.7076 25.3215 30.7738 25.0848 30.7738V30.7789Z" fill="#5B5B5B"/>
</svg>
