<svg width="40" height="40" viewBox="0 0 40 40" fill="none" xmlns="http://www.w3.org/2000/svg">
<path d="M30.805 27.945C28.5269 28.492 26.1488 28.4655 23.8835 27.8679C21.6182 27.2703 19.5365 26.1202 17.8247 24.5206C16.113 22.921 14.8247 20.9218 14.0752 18.7021C13.3257 16.4825 13.1384 14.1115 13.53 11.8017C13.4713 11.8602 13.4084 11.9142 13.3417 11.9634C12.875 12.3184 12.2917 12.45 11.125 12.7134L10.0667 12.9534C5.96667 13.8817 3.91667 14.345 3.42834 15.9134C2.94167 17.48 4.33834 19.115 7.13334 22.3834L7.85667 23.2284C8.65001 24.1567 9.04834 24.6217 9.22667 25.195C9.405 25.77 9.345 26.39 9.225 27.6284L9.115 28.7567C8.69334 33.1184 8.48167 35.2984 9.75834 36.2667C11.035 37.235 12.955 36.3534 16.7917 34.585L17.7867 34.1284C18.8767 33.625 19.4217 33.375 20 33.375C20.5783 33.375 21.1233 33.625 22.215 34.1284L23.2067 34.585C27.045 36.3517 28.965 37.235 30.24 36.2684C31.5183 35.2984 31.3067 33.1184 30.885 28.7567L30.805 27.945Z" fill="#7665F6"/>
<path opacity="0.5" d="M15.255 9.01331L14.7083 9.99331C14.1083 11.07 13.8083 11.6083 13.3417 11.9633C13.4083 11.9133 13.4711 11.8594 13.53 11.8016C13.1382 14.1117 13.3256 16.4828 14.0751 18.7026C14.8247 20.9225 16.1132 22.9217 17.8252 24.5214C19.5371 26.121 21.6191 27.2711 23.8846 27.8686C26.1501 28.4661 28.5285 28.4923 30.8067 27.945L30.7733 27.6283C30.655 26.39 30.595 25.77 30.7733 25.195C30.9517 24.6216 31.3483 24.1566 32.1433 23.2283L32.8667 22.3833C35.6617 19.1166 37.0583 17.4816 36.57 15.9133C36.0833 14.345 34.0333 13.88 29.9333 12.9533L28.8733 12.7133C27.7083 12.45 27.125 12.3183 26.6567 11.9633C26.19 11.6083 25.89 11.07 25.29 9.99331L24.745 9.01331C22.6333 5.22665 21.5783 3.33331 20 3.33331C18.4217 3.33331 17.3667 5.22665 15.255 9.01331Z" fill="white"/>
</svg>
