<svg width="40" height="40" viewBox="0 0 40 40" fill="none" xmlns="http://www.w3.org/2000/svg">
<path d="M20.6667 3.33325C22.5229 3.33245 24.3466 3.82144 25.9534 4.75084C27.5602 5.68024 28.8934 7.01715 29.8183 8.62659L29.9683 8.89659L30.1783 8.94159C32.4331 9.46852 34.4521 10.722 35.9244 12.5091C37.3968 14.2962 38.2409 16.5177 38.3267 18.8316L38.3333 19.2216C38.3336 20.6078 38.0607 21.9805 37.5304 23.2613C37 24.5421 36.2226 25.7059 35.2424 26.6862C34.2623 27.6665 33.0986 28.4441 31.8179 28.9746C30.5372 29.5052 29.1646 29.7783 27.7783 29.7783L27.72 29.7749L27.6617 29.8583C26.8843 30.8852 25.8902 31.7282 24.75 32.3274C23.6099 32.9266 22.3517 33.2672 21.065 33.3249L20.6667 33.3333C19.8644 33.3333 19.0844 33.2277 18.3267 33.0166L18.2483 32.9933L12.525 36.4283C12.2859 36.5721 12.0146 36.6536 11.7359 36.6653C11.4571 36.677 11.1799 36.6186 10.9296 36.4953C10.6793 36.3721 10.464 36.188 10.3033 35.9599C10.1426 35.7319 10.0418 35.4671 10.01 35.1899L10 34.9999V30.9433L9.79833 30.8433C8.8684 30.3482 8.0821 29.6213 7.51562 28.733C6.94914 27.8448 6.6217 26.8252 6.565 25.7733L6.555 25.4449C6.555 25.0394 6.59389 24.641 6.67167 24.2499L6.69333 24.1533L6.505 24.0033C5.46281 23.1413 4.61309 22.0702 4.01078 20.8593C3.40846 19.6483 3.06696 18.3245 3.00833 16.9733L3 16.5566C3 13.9928 4.01845 11.5341 5.8313 9.72122C7.64415 7.90837 10.1029 6.88992 12.6667 6.88992L12.7633 6.89159L13.0133 6.61992C14.8995 4.62999 17.4872 3.45392 20.2267 3.34159L20.6667 3.33325Z" fill="#5B5B5B"/>
</svg>
