<svg width="100" height="98" viewBox="0 0 100 98" fill="none" xmlns="http://www.w3.org/2000/svg">
<path d="M42.7149 67.9046C30.0441 88.9984 45.8125 107.98 50.0728 86.7472C52.0376 103.279 71.7455 95.5636 58.1424 67.022" fill="white"/>
<path d="M41.0912 66.9721C37.0112 73.8348 34.5753 82.5024 36.8208 90.3865C37.5225 92.8361 38.7455 95.3253 40.8706 96.8525C42.7051 98.1715 45.131 98.231 46.9855 96.9219C50.0229 94.7699 51.1757 90.684 51.8874 87.2527L48.1984 86.7568C48.5693 89.7221 49.3913 92.7567 51.5265 94.9782C53.1405 96.674 55.4761 97.5467 57.8018 97.0608C63.7964 95.8112 65.0494 88.0064 64.7286 83.0577C64.3477 77.1273 62.3027 71.4348 59.7666 66.0894C59.3355 65.1771 58.0123 64.949 57.1903 65.425C56.248 65.9704 56.0876 67.0514 56.5187 67.9737C58.5035 72.1588 60.1876 76.7504 60.7891 81.2627C61.0096 82.9189 61.0798 84.6147 60.9595 86.2907C60.8893 87.1535 60.8993 87.1833 60.7089 88.0659C60.5785 88.6808 60.4182 89.2857 60.2076 89.8708C60.1575 90.0097 60.1074 90.1485 60.0573 90.2774C59.8869 90.7336 60.2277 89.9204 60.0272 90.3568C59.9069 90.6047 59.7966 90.8427 59.6663 91.0807C59.546 91.2989 59.4057 91.5171 59.2653 91.7353C59.1952 91.8344 59.125 91.9336 59.0548 92.0328C58.8644 92.3005 59.3355 91.7452 58.9746 92.1121C58.694 92.4096 58.4133 92.6873 58.0925 92.9551C58.5636 92.5683 58.0123 92.9947 57.882 93.0741C57.7216 93.1733 57.0099 93.4509 57.6214 93.2427C57.2905 93.3617 56.9497 93.4212 56.6189 93.5203C57.2204 93.3518 56.6991 93.5005 56.4686 93.5005C56.3783 93.5005 56.2781 93.4906 56.1879 93.5005C55.7267 93.5204 56.4786 93.6096 56.228 93.5104C56.0676 93.4509 55.847 93.4212 55.6766 93.3815C55.5864 93.3617 55.4962 93.3121 55.406 93.2923C55.0551 93.1832 55.817 93.5005 55.4962 93.3319C55.3458 93.2526 55.1955 93.1832 55.0551 93.0939C54.9649 93.0443 54.8847 92.9848 54.7945 92.9253C54.3634 92.6774 54.9849 93.1137 54.7544 92.8956C54.5639 92.7171 54.3634 92.5584 54.183 92.37C54.1028 92.2906 54.0326 92.1915 53.9524 92.1121C53.5916 91.7353 54.0527 92.2807 53.8722 92.0229C53.5414 91.5567 53.2507 91.0708 53.0001 90.5551C52.94 90.4262 52.8798 90.2973 52.8197 90.1683C53.0202 90.6146 52.7595 90.0097 52.7295 89.9303C52.5991 89.5832 52.4889 89.2361 52.3886 88.8791C52.2784 88.5023 52.1881 88.1155 52.118 87.7287C52.0879 87.5502 52.0578 87.3816 52.0177 87.2031C51.9977 87.0841 51.9776 86.9651 51.9576 86.8461C51.9776 87.0345 51.9776 87.0147 51.9576 86.7866C51.8473 85.8643 51.326 85.0808 50.3236 84.9618C49.4515 84.8627 48.4491 85.3783 48.2586 86.2907C47.9378 87.8477 47.5168 89.5138 46.9153 90.922C46.6848 91.4576 46.4141 91.9832 46.1034 92.479C46.0432 92.5782 45.5921 93.2129 45.7826 92.9749C45.6222 93.1832 45.4417 93.3815 45.2513 93.56C45.131 93.6691 44.7501 93.9765 45.0909 93.7385C44.9305 93.8575 44.7501 93.9468 44.5897 94.0559C44.2689 94.284 44.8804 94.0261 44.4193 94.1352C44.2188 94.1848 43.6775 94.2046 44.2388 94.2046C44.0684 94.2046 43.898 94.2046 43.7276 94.2046C43.487 94.2046 44.1887 94.3435 43.8378 94.2046C43.7877 94.1848 43.6674 94.155 43.6173 94.1451C43.5471 94.1451 43.4569 94.0856 43.3968 94.0757C43.8178 94.2046 43.6273 94.1848 43.5171 94.1253C43.3166 94.0162 43.1261 93.8972 42.9256 93.7782C42.7151 93.6493 43.1863 93.9964 42.9958 93.8377C42.9056 93.7683 42.8254 93.6889 42.7352 93.6195C42.5948 93.4906 42.4645 93.3617 42.3342 93.2228C42.264 93.1534 42.2039 93.0741 42.1437 93.0047C41.8229 92.6476 42.2841 93.2129 42.1036 92.965C41.9232 92.7171 41.7628 92.479 41.6124 92.2311C41.0009 91.2096 40.7804 90.6344 40.4396 89.4345C39.6577 86.7072 39.5875 83.8412 39.9484 80.9652C40.4897 76.681 42.1237 72.5951 44.329 68.896C45.562 66.8332 42.3141 64.9589 41.0811 67.0217L41.0912 66.9721Z" fill="#FFF255"/>
<path d="M41.6124 28.8998C37.6828 21.581 34.455 11.3762 39.3669 3.97799C44.1485 -1.08968 48.2485 5.75316 50.1632 9.7597C51.2157 8.70848 51.727 6.51679 52.559 5.15813C54.5839 1.8458 59.2252 1.09209 61.3704 4.71186C64.4579 12.2787 60.4482 22.1958 57.5511 29.3263" fill="white"/>
<path d="M43.2365 27.9677C40.1891 22.2356 37.4825 15.0754 39.317 8.55984C39.8784 6.56649 41.4722 2.80788 44.1087 4.4938C46.2238 5.85245 47.4969 8.53009 48.5495 10.7119C49.0607 11.7631 50.7348 11.9317 51.4966 11.0887C53.3311 9.06562 53.4413 5.36651 56.3183 4.37479C57.2506 4.05744 58.2631 4.15662 59.0349 4.7814C60.1176 5.66403 60.3481 7.44912 60.5085 8.74827C61.3506 15.6308 58.2931 22.6125 55.767 28.8504C55.3861 29.7925 56.188 30.8834 57.0802 31.1412C58.1528 31.4388 59.0149 30.7743 59.3958 29.8421C62.4031 22.434 66.0219 13.7465 63.7063 5.66403C62.6838 2.08393 59.4159 -0.27636 55.6166 0.715357C53.8724 1.17155 52.3788 2.29219 51.3262 3.72026C50.2736 5.14833 50.0531 7.1516 48.8602 8.47059L51.8074 8.84744C49.8025 4.67231 45.5121 -2.04162 39.9586 1.15171C37.1116 2.78805 35.8085 6.32848 35.3173 9.39288C34.786 12.6854 35.0667 16.0275 35.8385 19.2605C36.7207 22.9596 38.2344 26.5 40.0087 29.852C41.1314 31.9743 44.3793 30.09 43.2566 27.9777L43.2365 27.9677Z" fill="#FFF255"/>
<path d="M31.9289 42.1695C25.6537 36.0606 7.33913 33.1052 3.49979 42.6059C4.02106 45.9777 8.53203 47.4653 11.4391 46.1463C-5.06102 42.7051 -1.29185 65.6732 31.3174 53.6834" fill="white"/>
<path d="M33.2622 40.8504C28.8415 36.6257 21.9648 34.7712 15.9602 34.6423C12.8526 34.5728 9.63481 35.0489 6.84803 36.467C4.43216 37.6968 0.863483 40.8107 1.86592 43.8057C3.28938 48.0503 8.55217 49.3494 12.3915 47.7429C13.8751 47.1181 13.434 44.6487 11.9404 44.3413C9.06342 43.7561 5.84559 43.6173 3.18914 45.085C1.26446 46.166 -0.0487351 48.1495 0.00138674 50.3709C0.151752 56.6881 8.29154 58.8005 13.3438 59.0088C19.6391 59.2666 25.9645 57.6005 31.8187 55.4683C34.0742 54.6452 33.0918 51.0552 30.8163 51.8783C26.0547 53.6138 21.0526 55.032 15.9602 55.27C14.256 55.3493 12.3815 55.2997 10.8478 55.0419C10.116 54.913 9.39422 54.7543 8.68249 54.5361C7.93066 54.308 7.62993 54.1989 7.13874 53.9609C6.61747 53.713 6.12628 53.4254 5.65513 53.108C5.21406 52.8105 5.74535 53.227 5.3544 52.8899C5.15391 52.7114 4.95343 52.5428 4.77299 52.3444C4.67274 52.2353 4.18155 51.6105 4.50233 52.0667C4.39206 51.9081 4.28179 51.7494 4.18155 51.5808C4.08131 51.4122 4.00111 51.2535 3.92092 51.0949C3.74048 50.7478 4.06126 51.5114 3.95099 51.1444C3.92092 51.0453 3.88082 50.9461 3.85074 50.8469C3.81065 50.6585 3.7505 50.004 3.78057 50.6486C3.78057 50.4899 3.76053 50.3213 3.76053 50.1626C3.76053 49.9643 3.89084 49.4883 3.74048 50.0833C3.7906 49.9048 3.8307 49.7164 3.88082 49.5279C3.98106 49.1015 3.64023 49.8255 3.94096 49.399C4.04121 49.2503 4.13143 49.0916 4.23167 48.9428C3.8307 49.5478 5.08374 48.2585 4.52238 48.6552C4.71284 48.5263 4.9033 48.3974 5.09377 48.2883C5.19401 48.2288 5.30428 48.1792 5.41455 48.1197C5.88569 47.8817 5.22408 48.1693 5.54486 48.0701C6.07616 47.8916 6.60745 47.7528 7.15879 47.6734C6.70769 47.7429 7.59986 47.6437 7.75022 47.6437C8.09105 47.6338 8.43188 47.6338 8.77271 47.6437C9.7551 47.6833 9.98566 47.723 10.948 47.9214L10.4969 44.5198C8.50205 45.3528 5.73533 44.2421 5.3143 42.0901V43.0818C7.13874 38.7579 12.9428 38.1232 17.0929 38.391C21.7643 38.6885 27.2075 40.2157 30.6058 43.4586C32.35 45.1247 35.0065 42.4967 33.2622 40.8306V40.8504Z" fill="#FFF255"/>
<path d="M67.9465 42.1398C74.2518 36.001 92.6666 33.0259 96.526 42.586C96.0047 45.9777 91.4637 47.4653 88.5466 46.1364C103.774 42.3976 103.683 65.1476 67.8062 54.1693" fill="white"/>
<path d="M69.2696 43.4584C72.6879 40.1956 78.1713 38.6585 82.8627 38.3609C87.0328 38.0932 92.877 38.7378 94.7115 43.0815V42.0898C94.3005 44.2517 91.4936 45.3724 89.4888 44.5294L89.0377 47.931C89.3885 47.8517 89.7294 47.7823 90.0802 47.7128C90.1303 47.7029 90.7017 47.6236 90.2506 47.6831C90.411 47.6632 90.5714 47.6434 90.7318 47.6335C91.3333 47.5839 91.9347 47.5839 92.5362 47.6137C92.6765 47.6137 92.8169 47.6335 92.9472 47.6533C92.4259 47.5938 92.877 47.6434 92.9773 47.6632C93.1878 47.7029 93.3983 47.7426 93.6088 47.8021C93.8494 47.8616 94.0799 47.9409 94.3105 48.0203C94.4308 48.0599 94.7917 48.2384 94.2904 48.0104C94.4107 48.0699 94.531 48.1194 94.6413 48.1789C94.8117 48.2781 94.9821 48.3773 95.1525 48.4765C95.6638 48.774 95.0423 48.3178 95.343 48.6252C95.4733 48.7541 95.5936 48.8831 95.734 49.0021C96.1049 49.3393 95.6237 48.6946 95.8743 49.1905C95.9545 49.3492 96.0547 49.5178 96.145 49.6764C96.1951 49.7657 96.0648 49.2996 96.145 49.7359C96.175 49.9045 96.2251 50.093 96.2652 50.2616C96.1049 49.6169 96.2352 50.2715 96.2452 50.4896C96.2452 50.688 96.0948 51.164 96.2552 50.5491C96.2051 50.7376 96.165 50.9161 96.1249 51.1045C96.1049 51.2037 96.0547 51.2929 96.0247 51.3822C95.9144 51.7392 96.2352 50.9756 96.0547 51.3029C95.9545 51.4913 95.8542 51.6698 95.744 51.8483C95.6838 51.9376 95.6237 52.0268 95.5535 52.1161C95.323 52.4433 95.8442 51.7888 95.5635 52.0962C95.4332 52.245 95.3029 52.3937 95.1626 52.5326C94.9821 52.7111 94.7917 52.8698 94.5912 53.0284C94.9821 52.7111 94.2203 53.2764 94.0799 53.3656C92.877 54.1094 92.2856 54.3078 90.8621 54.6846C89.1379 55.1309 87.7044 55.2796 85.89 55.3292C79.9055 55.4879 73.961 54.1094 68.2672 52.3838C65.9515 51.6797 64.9591 55.2697 67.2647 55.9738C73.0588 57.7292 79.1436 59.0978 85.2384 59.0581C88.8472 59.0283 92.7768 58.5226 95.9144 56.6185C98.0396 55.3292 99.7838 53.3061 99.9843 50.7673C100.155 48.526 98.9217 46.5228 97.0872 45.293C94.4609 43.5377 90.9724 43.6468 88.0152 44.3608C86.5717 44.7079 86.0404 47.1178 87.5641 47.7624C90.9624 49.1905 95.3129 48.407 97.4481 45.2236C97.9293 44.4997 98.3804 43.4881 98.3804 42.5956C98.3804 41.7725 97.7889 40.8402 97.3379 40.1659C96.5058 38.9163 95.4432 37.8948 94.2002 37.0618C88.9174 33.5412 81.2788 34.2056 75.5048 35.9907C72.2669 36.9924 69.0491 38.4899 66.5831 40.8402C64.8388 42.5063 67.4953 45.1344 69.2395 43.4683L69.2696 43.4584Z" fill="#FFF255"/>
<path d="M31.9592 57.5707C24.872 55.3393 3.21935 66.4267 11.4093 74.7373C13.7149 75.7984 22.6767 73.0811 21.8847 70.2646C16.8024 73.8844 13.6848 83.3751 22.8872 83.3851C30.1448 82.1355 36.1995 71.9406 42.4447 68.4895" fill="white"/>
<path d="M32.4601 55.7756C29.3526 54.8533 25.7438 55.7458 22.7866 56.7673C19.0976 58.0466 15.5891 59.9111 12.5818 62.4003C10.1058 64.4531 7.68991 67.3787 7.70996 70.7505C7.71999 72.4662 8.40164 74.0331 9.47425 75.3521C10.7774 76.9587 12.652 76.9388 14.5666 76.6711C17.8446 76.2149 24.6812 74.2414 23.6888 69.7687C23.4482 68.6778 21.8844 67.9638 20.9321 68.658C16.9925 71.534 12.642 78.4165 16.6016 82.9288C18.6967 85.3189 22.516 85.7155 25.3529 84.6147C28.8714 83.2561 31.7183 80.6677 34.3648 78.0793C37.2017 75.3025 39.8882 72.0794 43.3867 70.096C45.4818 68.9059 43.5972 65.6928 41.4921 66.8828C35.9987 69.9968 32.4902 75.5504 27.4379 79.2198C25.403 80.7074 22.8167 82.2445 20.2605 81.0941C19.6089 80.7966 19.2079 80.3107 19.0576 79.8743C18.8069 79.1801 18.837 78.3967 19.0275 77.5934C19.5487 75.3918 21.0023 73.21 22.8367 71.8712L20.08 70.7605C20.06 70.691 20.05 70.4728 20.1101 70.4233C19.8495 70.6514 20.1502 70.5125 19.7793 70.82C19.4084 71.1274 18.7869 71.5042 18.2155 71.7819C16.8722 72.4365 15.3084 72.8926 13.8248 73.0711C13.484 73.1108 12.5818 73.1306 12.4214 73.1108C12.6821 73.1505 12.1808 73.0711 12.1808 73.0513L12.1107 73.0315C11.85 72.9422 12.0104 73.0315 12.5818 73.2596C12.5317 73.2893 12.1207 72.6844 12.0605 72.5951C11.6896 72.01 11.6896 71.9703 11.5292 71.3555C11.439 70.9885 11.4591 71.3356 11.4691 70.8596C11.4691 70.691 11.5393 69.9869 11.4892 70.2745C11.8901 68.0431 13.7747 66.1589 15.7194 64.6614C18.0852 62.8366 20.8419 61.4086 23.6587 60.4168C25.0922 59.9111 26.7663 59.445 28.1597 59.2565C28.6409 59.1871 29.4328 59.1375 30.0342 59.1574C30.8262 59.1772 30.6958 59.1574 31.4577 59.3755C33.7834 60.0697 34.7758 56.4797 32.4601 55.7855V55.7756Z" fill="#FFF255"/>
<path d="M60.3881 30.5665C61.1199 23.5748 67.3751 14.3023 74.5826 12.1503C77.2391 10.8809 81.73 10.7321 82.532 14.1932C82.973 16.6725 78.0009 24.5269 75.4648 23.0492C80.3065 19.122 90.381 18.5964 88.0153 27.393C85.0381 33.7796 74.6628 36.5663 69.9213 41.5646" fill="white"/>
<path d="M62.2627 30.5665C62.9444 24.6856 67.0844 18.4477 72.1167 15.3238C73.3096 14.58 74.5927 14.0643 75.9159 13.6081C76.9684 13.2511 78.1613 13.023 79.264 13.3007C80.076 13.5089 80.6674 14.0445 80.6674 14.7089C80.6674 14.9172 80.6674 14.6792 80.6775 14.6395C80.6574 14.7585 80.6273 14.8973 80.5973 15.0163C80.5371 15.2246 80.487 15.4229 80.4168 15.6213C80.2464 16.137 80.0159 16.613 79.7652 17.089C79.1538 18.2394 78.442 19.3501 77.5298 20.2923C77.1589 20.679 76.798 20.9964 76.4472 21.2146C76.3369 21.284 76.0963 21.2939 76.0662 21.3733C76.0662 21.3435 76.3469 21.403 76.4071 21.4328L76.788 24.3484C78.2816 23.1683 80.477 22.3451 82.3315 22.2063C83.384 22.127 84.0958 22.1369 85.0381 22.5038C85.4491 22.6625 86.0204 23.0691 86.2711 23.674C86.3412 23.8327 86.4615 24.3385 86.4816 24.6558C86.5116 25.2409 86.4715 25.836 86.3212 26.4013C86.0104 27.5814 85.0481 28.6029 84.186 29.4359C82.0408 31.5086 79.3643 32.9863 76.798 34.4738C73.921 36.1498 70.9237 37.8258 68.5981 40.2258C66.924 41.9514 69.5805 44.5893 71.2546 42.8538C76.0562 37.9052 83.5144 36.2589 87.9552 30.864C90.0202 28.3549 91.0928 24.8542 89.519 21.7898C88.306 19.4096 85.5694 18.4477 83.0131 18.4576C79.7853 18.4675 76.6276 19.7369 74.1215 21.7104C73.1893 22.4443 73.51 24.1203 74.5024 24.6261C77.61 26.2128 80.4068 22.9501 81.9606 20.679C83.6046 18.2692 85.419 14.8577 83.6547 12.061C81.5095 8.65944 77.0687 9.20488 73.8509 10.4049C69.8912 11.8825 66.7235 14.3519 64.1272 17.6543C61.1901 21.3931 59.0449 25.7963 58.5036 30.5268C58.3833 31.5284 59.4458 32.3912 60.3881 32.3912C61.5008 32.3912 62.1524 31.5383 62.2727 30.5268L62.2627 30.5665Z" fill="#FFF255"/>
<path d="M67.8663 57.5701C74.9034 55.3487 96.3556 66.5452 88.1957 74.7367C85.8901 75.7979 76.9283 73.0806 77.7203 70.2641C82.8026 73.8839 85.9202 83.3746 76.7178 83.3845C69.3299 82.4523 64.6385 72.188 58.8745 68.4889" fill="white"/>
<path d="M68.3676 59.3655C68.5981 59.2961 68.8287 59.2465 69.0593 59.1969C68.939 59.2167 69.2096 59.1771 69.5003 59.1572C70.0818 59.1275 70.6632 59.1572 71.2446 59.2068C72.237 59.306 73.8208 59.6928 75.0137 60.0696C77.9308 60.9919 80.7176 62.3902 83.2037 64.1555C84.3364 64.9489 85.389 65.8712 86.3012 66.9025C86.9628 67.6563 87.6645 68.6976 87.9151 69.5008C88.2058 70.4529 88.2559 71.1273 87.9151 71.9504C87.8048 72.2082 87.2936 72.8033 87.1934 73.0809C87.053 73.4479 87.3136 73.1702 87.5743 72.9917C87.4941 73.0413 87.2936 73.0909 87.2034 73.0909C87.3638 73.0909 86.8525 73.1107 86.5718 73.1008C85.0381 73.071 83.354 72.6049 81.9005 72C81.2489 71.7223 80.457 71.3256 79.9758 70.9388C80.0861 71.0281 79.7954 70.7702 79.7753 70.7504C79.5748 70.5521 79.635 70.5818 79.5949 70.5719C79.4646 70.5124 79.5448 70.2446 79.5047 70.4331C79.4144 70.8694 79.6149 70.3934 79.5347 70.7603L76.778 71.871C78.3619 73.0214 79.7052 74.8759 80.3367 76.7205C80.6575 77.6726 80.8379 78.5651 80.6976 79.3684C80.5973 79.9734 80.3066 80.4891 79.8054 80.8263C75.0939 84.0493 69.4803 76.8197 66.894 73.8049C64.7388 71.3058 62.6136 68.7273 59.8268 66.8926C57.8019 65.5637 55.9173 68.7868 57.9322 70.1058C60.6889 71.9206 62.7539 74.7272 64.8891 77.1866C67.1446 79.7849 69.6106 82.532 72.7683 84.0791C75.926 85.6262 79.625 85.7848 82.3516 83.5634C84.5068 81.818 84.8276 78.9321 84.156 76.3933C83.334 73.2793 81.2589 70.5521 78.6726 68.6678C77.7103 67.9736 76.1565 68.6876 75.9159 69.7785C75.0138 73.8446 80.7276 75.8181 83.7851 76.4726C85.3589 76.8098 87.4039 77.1767 88.9276 76.4429C90.4513 75.709 91.4738 73.6462 91.7645 72.0991C92.4161 68.7174 90.4413 65.6232 88.0855 63.3522C85.2787 60.6547 81.7902 58.701 78.1814 57.2631C74.9436 55.9639 70.8536 54.7441 67.3752 55.7854C65.0696 56.4796 66.052 60.0696 68.3776 59.3754L68.3676 59.3655Z" fill="#FFF255"/>
<path d="M40.3095 30.7247C39.8484 23.8521 33.7235 14.887 26.9069 12.3977C24.3106 11.0193 19.8397 10.6622 18.8674 14.0837C18.316 16.5431 22.9172 24.6157 25.5236 23.2471C20.8622 19.1117 10.8278 18.1299 12.7826 27.0256C15.3689 33.6602 25.7742 36.4766 30.4054 41.4848" fill="white"/>
<path d="M42.1939 30.7247C41.8631 26.6091 40.179 22.6621 37.8333 19.2803C35.4876 15.8986 32.34 12.7152 28.4606 11.0292C25.3129 9.67059 21.1227 8.43094 18.356 11.297C15.9201 13.816 17.2533 17.2275 18.6968 19.8754C20.1403 22.5232 22.9872 26.4504 26.4757 24.8538C27.5383 24.3678 27.7087 22.672 26.8567 21.9381C23.2379 18.8043 15.6494 16.1564 12.0206 20.7084C10.0458 23.1778 10.3365 26.9165 11.9304 29.495C13.7749 32.49 16.8022 34.5627 19.7494 36.3974C22.9371 38.3709 26.4858 40.0667 29.0921 42.8138C30.7461 44.5691 33.4026 41.9311 31.7485 40.1857C27.6887 35.8916 21.7342 34.047 17.3736 30.1297C15.5492 28.4934 14.0154 26.4703 14.5167 23.991C14.667 23.2373 15.058 22.791 15.6193 22.4836C16.2308 22.1464 16.9726 22.0472 17.8848 22.0671C20.0601 22.1166 22.5161 23.1084 24.2102 24.5761L24.5911 21.6604C24.6613 21.6307 24.8117 21.6009 24.8618 21.5712C25.1124 21.4125 24.7014 21.72 24.9119 21.5712C24.952 21.5414 24.9219 21.5712 24.8919 21.5514C24.5009 21.2737 24.3405 21.2142 23.9496 20.8175C23.1677 20.034 22.5562 19.1018 22.0249 18.1399C21.4936 17.1779 21.0726 16.2655 20.822 15.244C20.7117 14.7779 20.6516 14.887 20.7318 14.3912C20.6716 14.8374 20.812 14.2722 20.9222 14.1135C21.0124 13.9746 21.1127 13.8556 21.243 13.7465C22.9672 12.3482 26.175 13.9945 27.7588 14.8374C30.5256 16.3151 32.8312 18.6357 34.5955 21.1844C36.5502 23.991 38.1742 27.3033 38.4448 30.7545C38.6353 33.1247 42.3944 33.1445 42.204 30.7545L42.1939 30.7247Z" fill="#FFF255"/>
<path d="M33.1821 36.5864C21.3934 53.3464 39.5475 76.9691 60.2479 65.7726C87.8249 47.2077 54.8748 11.4464 33.1821 36.5864Z" fill="white"/>
<path d="M31.558 35.6438C25.774 43.994 26.5659 55.0219 33.0216 62.7573C35.9788 66.3077 40.1589 68.9556 44.71 69.9869C50.1031 71.2167 55.6566 70.1853 60.5385 67.7159C62.794 66.5754 64.879 64.6912 66.5932 62.8565C68.157 61.1805 69.5504 59.2863 70.5428 57.2236C72.3472 53.5046 72.9887 49.4286 72.3773 45.3428C71.2445 37.7462 65.7612 30.9629 58.684 27.9084C54.4838 26.0935 49.8425 25.5878 45.3616 26.6092C39.9985 27.839 35.3873 31.2009 31.8387 35.2669C30.2649 37.0719 32.9113 39.7098 34.4952 37.895C37.2519 34.7314 40.61 31.9744 44.6799 30.6554C47.9579 29.5943 51.3862 29.515 54.6542 30.4075C60.8893 32.1133 66.1321 37.1909 68.0568 43.2701C70.2621 50.2617 67.5756 57.2236 61.992 62.0929C55.2456 67.9837 44.8203 68.4795 37.9636 62.4896C34.5754 59.5243 32.3199 55.498 31.548 51.0848C30.716 46.3047 32.0392 41.485 34.7859 37.528C36.1592 35.5446 32.9013 33.6901 31.538 35.6537L31.558 35.6438Z" fill="#FFF255"/>
<path d="M49.4942 55.3179C48.9685 55.3179 48.4567 55.1632 48.0002 54.868L42.522 51.2688C41.2355 50.4252 40.862 48.6818 41.692 47.3883C42.522 46.0808 44.2374 45.7153 45.5101 46.5448L49.3697 49.0755L56.8261 43.3814C58.0435 42.4535 59.7865 42.6925 60.6995 43.9438C61.6126 45.1951 61.3636 46.9525 60.1462 47.8804L51.1543 54.7414C50.6701 55.121 50.0752 55.3038 49.4942 55.3038V55.3179Z" fill="#FFF255"/>
</svg>
