<svg width="42" height="36" viewBox="0 0 42 36" fill="none" xmlns="http://www.w3.org/2000/svg">
<path fill-rule="evenodd" clip-rule="evenodd" d="M16.7562 6.99382C14.7409 5.78487 12.4733 5.0584 10.1307 4.87119C7.78802 4.68398 5.43381 5.0411 3.25208 5.91465C2.93699 6.04007 2.66687 6.25731 2.47677 6.53816C2.28668 6.81901 2.18538 7.15051 2.18604 7.48965V24.4938C2.18604 25.6313 3.33666 26.4101 4.39395 25.9872C6.18065 25.2728 8.10832 24.9811 10.0264 25.1349C11.9445 25.2887 13.801 25.8838 15.451 26.8738L17.1062 27.8655C17.2331 27.9428 17.3687 27.9749 17.4985 27.9734C17.6372 27.9761 17.7738 27.9392 17.8923 27.8669L19.546 26.8738C21.1961 25.8838 23.0526 25.2887 24.9707 25.1349C26.8888 24.9811 28.8164 25.2728 30.6031 25.9872C30.8474 26.0849 31.1119 26.1212 31.3735 26.093C31.6351 26.0648 31.8858 25.973 32.1036 25.8255C32.3215 25.678 32.4999 25.4794 32.6232 25.2469C32.7465 25.0145 32.811 24.7555 32.811 24.4924V7.48965C32.811 6.79548 32.3881 6.17278 31.745 5.91465C29.5632 5.04177 27.2092 4.68526 24.8668 4.87297C22.5244 5.06069 20.2572 5.78754 18.2423 6.99673L17.4985 7.44298L16.7562 6.99382ZM18.5937 10.4792C18.5937 10.1892 18.4785 9.91095 18.2734 9.70584C18.0683 9.50072 17.7901 9.38548 17.5 9.38548C17.2099 9.38548 16.9317 9.50072 16.7266 9.70584C16.5215 9.91095 16.4062 10.1892 16.4062 10.4792V24.3334C16.4062 24.6235 16.5215 24.9017 16.7266 25.1068C16.9317 25.3119 17.2099 25.4272 17.5 25.4272C17.7901 25.4272 18.0683 25.3119 18.2734 25.1068C18.4785 24.9017 18.5937 24.6235 18.5937 24.3334V10.4792Z" fill="white"/>
<path d="M3.974 28.7696C5.42365 27.9241 7.0718 27.4785 8.75004 27.4785C10.4283 27.4785 12.0764 27.9241 13.5261 28.7696L15.1113 29.6942C15.8363 30.1173 16.6606 30.3402 17.5 30.3402C18.3394 30.3402 19.1638 30.1173 19.8888 29.6942L21.474 28.7696C22.9236 27.9241 24.5718 27.4785 26.25 27.4785C27.9283 27.4785 29.5764 27.9241 31.0261 28.7696L31.1763 28.8571C31.3004 28.9295 31.409 29.0257 31.496 29.14C31.5829 29.2544 31.6465 29.3848 31.683 29.5237C31.7196 29.6627 31.7284 29.8074 31.7091 29.9498C31.6897 30.0922 31.6424 30.2293 31.57 30.3534C31.4976 30.4775 31.4015 30.5861 31.2871 30.6731C31.1728 30.76 31.0424 30.8236 30.9035 30.8602C30.7645 30.8967 30.6197 30.9056 30.4774 30.8862C30.335 30.8668 30.1979 30.8195 30.0738 30.7471L29.9236 30.6596C28.8085 30.0093 27.5409 29.6667 26.25 29.6667C24.9592 29.6667 23.6915 30.0093 22.5765 30.6596L20.9898 31.5842C19.9306 32.202 18.7263 32.5275 17.5 32.5275C16.2738 32.5275 15.0695 32.202 14.0102 31.5842L12.4236 30.6596C11.3085 30.0093 10.0409 29.6667 8.75004 29.6667C7.45922 29.6667 6.19153 30.0093 5.0765 30.6596L4.92629 30.7471C4.67566 30.8933 4.37722 30.934 4.09662 30.8602C3.81601 30.7863 3.57624 30.604 3.43004 30.3534C3.28384 30.1028 3.24319 29.8043 3.31703 29.5237C3.39087 29.2431 3.57316 29.0033 3.82379 28.8571L3.974 28.7696Z" fill="white"/>
<g clip-path="url(#clip0_252_220)">
<mask id="path-3-inside-1_252_220" fill="white">
<path d="M37.6714 1.0604C38.3726 0.375347 39.3156 -0.00564538 40.2959 6.32378e-05C41.2762 0.00577186 42.2147 0.397721 42.9078 1.0909C43.601 1.78408 43.993 2.72259 43.9987 3.70287C44.0044 4.68316 43.6234 5.62617 42.9383 6.32737L42.0995 7.16618L42.5202 7.58684C42.9896 8.05639 43.2533 8.69315 43.2533 9.3571C43.2533 10.021 42.9896 10.6578 42.5202 11.1274L41.3434 12.3042C41.2258 12.4216 41.0665 12.4874 40.9003 12.4873C40.7342 12.4872 40.575 12.4211 40.4576 12.3036C40.3402 12.186 40.2743 12.0267 40.2745 11.8606C40.2746 11.6945 40.3407 11.5352 40.4582 11.4178L41.6351 10.2422C41.8698 10.0075 42.0016 9.68907 42.0016 9.3571C42.0016 9.02513 41.8698 8.70675 41.6351 8.47197L41.2144 8.05131L31.2238 18.0432C30.8005 18.4685 30.2638 18.7631 29.6776 18.892L24.7625 19.9849C24.6596 20.0079 24.5526 20.0046 24.4513 19.9751C24.3501 19.9457 24.2579 19.8912 24.1833 19.8167C24.1088 19.7421 24.0543 19.6499 24.0249 19.5487C23.9954 19.4474 23.9921 19.3404 24.0151 19.2375L25.1143 14.2923C25.2395 13.7264 25.5249 13.2069 25.9343 12.7975L37.6714 1.0604Z"/>
</mask>
<path d="M37.6714 1.0604C38.3726 0.375347 39.3156 -0.00564538 40.2959 6.32378e-05C41.2762 0.00577186 42.2147 0.397721 42.9078 1.0909C43.601 1.78408 43.993 2.72259 43.9987 3.70287C44.0044 4.68316 43.6234 5.62617 42.9383 6.32737L42.0995 7.16618L42.5202 7.58684C42.9896 8.05639 43.2533 8.69315 43.2533 9.3571C43.2533 10.021 42.9896 10.6578 42.5202 11.1274L41.3434 12.3042C41.2258 12.4216 41.0665 12.4874 40.9003 12.4873C40.7342 12.4872 40.575 12.4211 40.4576 12.3036C40.3402 12.186 40.2743 12.0267 40.2745 11.8606C40.2746 11.6945 40.3407 11.5352 40.4582 11.4178L41.6351 10.2422C41.8698 10.0075 42.0016 9.68907 42.0016 9.3571C42.0016 9.02513 41.8698 8.70675 41.6351 8.47197L41.2144 8.05131L31.2238 18.0432C30.8005 18.4685 30.2638 18.7631 29.6776 18.892L24.7625 19.9849C24.6596 20.0079 24.5526 20.0046 24.4513 19.9751C24.3501 19.9457 24.2579 19.8912 24.1833 19.8167C24.1088 19.7421 24.0543 19.6499 24.0249 19.5487C23.9954 19.4474 23.9921 19.3404 24.0151 19.2375L25.1143 14.2923C25.2395 13.7264 25.5249 13.2069 25.9343 12.7975L37.6714 1.0604Z" fill="white"/>
<path d="M37.6714 1.0604L36.2737 -0.370184L36.2654 -0.362044L36.2572 -0.353809L37.6714 1.0604ZM42.9383 6.32737L44.3526 7.74159L44.3608 7.73335L44.3689 7.72502L42.9383 6.32737ZM42.0995 7.16618L40.6853 5.75197L39.2711 7.16618L40.6853 8.58039L42.0995 7.16618ZM42.5202 7.58684L43.9346 6.17284L43.9344 6.17263L42.5202 7.58684ZM42.5202 11.1274L43.9344 12.5416L43.9346 12.5414L42.5202 11.1274ZM41.3434 12.3042L42.7566 13.7194L42.7576 13.7184L41.3434 12.3042ZM40.4582 11.4178L41.8714 12.833L41.8717 12.8328L40.4582 11.4178ZM41.6351 10.2422L43.0485 11.6572L43.0495 11.6562L41.6351 10.2422ZM42.0016 9.3571H44.0016H42.0016ZM41.6351 8.47197L43.0495 7.05797L43.0493 7.05776L41.6351 8.47197ZM41.2144 8.05131L42.6286 6.6371L41.2143 5.2228L39.8001 6.63719L41.2144 8.05131ZM31.2238 18.0432L29.8095 16.629L29.8063 16.6322L31.2238 18.0432ZM29.6776 18.892L29.2482 16.9386L29.2435 16.9397L29.6776 18.892ZM24.7625 19.9849L24.3284 18.0326L24.3263 18.0331L24.7625 19.9849ZM24.0151 19.2375L25.9669 19.6736L25.9674 19.6715L24.0151 19.2375ZM25.1143 14.2923L27.0666 14.7263L27.0671 14.7243L25.1143 14.2923ZM25.9343 12.7975L24.5201 11.3833L25.9343 12.7975ZM39.069 2.49099C39.3937 2.17379 39.8303 1.99739 40.2842 2.00003L40.3075 -1.9999C38.8008 -2.00868 37.3515 -1.4231 36.2737 -0.370184L39.069 2.49099ZM40.2842 2.00003C40.7381 2.00267 41.1727 2.18415 41.4936 2.50511L44.3221 -0.323315C43.2567 -1.38871 41.8142 -1.99113 40.3075 -1.9999L40.2842 2.00003ZM41.4936 2.50511C41.8146 2.82607 41.9961 3.26062 41.9987 3.71452L45.9986 3.69123C45.9899 2.18455 45.3875 0.742082 44.3221 -0.323315L41.4936 2.50511ZM41.9987 3.71452C42.0014 4.16842 41.825 4.60505 41.5078 4.92973L44.3689 7.72502C45.4219 6.64729 46.0074 5.1979 45.9986 3.69123L41.9987 3.71452ZM41.5241 4.91316L40.6853 5.75197L43.5137 8.5804L44.3526 7.74159L41.5241 4.91316ZM40.6853 8.58039L41.106 9.00105L43.9344 6.17263L43.5138 5.75197L40.6853 8.58039ZM41.1058 9.00084C41.2002 9.09534 41.2533 9.22348 41.2533 9.3571H45.2533C45.2533 8.16282 44.779 7.01745 43.9346 6.17284L41.1058 9.00084ZM41.2533 9.3571C41.2533 9.49072 41.2002 9.61887 41.1058 9.71336L43.9346 12.5414C44.779 11.6968 45.2533 10.5514 45.2533 9.3571H41.2533ZM41.106 9.71315L39.9291 10.89L42.7576 13.7184L43.9344 12.5416L41.106 9.71315ZM39.9301 10.889C40.1879 10.6316 40.5374 10.4871 40.9018 10.4873L40.8989 14.4873C41.5955 14.4878 42.2637 14.2116 42.7566 13.7194L39.9301 10.889ZM40.9018 10.4873C41.2661 10.4876 41.6154 10.6326 41.8728 10.8904L39.0424 13.7168C39.5346 14.2097 40.2024 14.4868 40.8989 14.4873L40.9018 10.4873ZM41.8728 10.8904C42.1302 11.1482 42.2747 11.4977 42.2745 11.862L38.2745 11.8592C38.274 12.5557 38.5502 13.2239 39.0424 13.7168L41.8728 10.8904ZM42.2745 11.862C42.2742 12.2263 42.1292 12.5756 41.8714 12.833L39.045 10.0026C38.5521 10.4948 38.275 11.1626 38.2745 11.8592L42.2745 11.862ZM41.8717 12.8328L43.0485 11.6572L40.2216 8.82726L39.0448 10.0028L41.8717 12.8328ZM43.0495 11.6562C43.6591 11.0464 44.0016 10.2194 44.0016 9.3571H40.0016C40.0016 9.15875 40.0804 8.96851 40.2206 8.82823L43.0495 11.6562ZM44.0016 9.3571C44.0016 8.4948 43.6591 7.6678 43.0495 7.05797L40.2206 9.88597C40.0804 9.74569 40.0016 9.55545 40.0016 9.3571H44.0016ZM43.0493 7.05776L42.6286 6.6371L39.8002 9.46553L40.2208 9.88618L43.0493 7.05776ZM39.8001 6.63719L29.8095 16.629L32.6381 19.4573L42.6287 9.46544L39.8001 6.63719ZM29.8063 16.6322C29.6535 16.7857 29.4598 16.8921 29.2482 16.9386L30.1071 20.8453C31.0678 20.6341 31.9474 20.1512 32.6413 19.4541L29.8063 16.6322ZM29.2435 16.9397L24.3284 18.0326L25.1966 21.9373L30.1118 20.8443L29.2435 16.9397ZM24.3263 18.0331C24.5522 17.9826 24.7871 17.99 25.0094 18.0546L23.8933 21.8957C24.318 22.0191 24.767 22.0332 25.1986 21.9368L24.3263 18.0331ZM25.0094 18.0546C25.2316 18.1191 25.4339 18.2388 25.5976 18.4024L22.7691 21.2309C23.0819 21.5436 23.4685 21.7723 23.8933 21.8957L25.0094 18.0546ZM25.5976 18.4024C25.7612 18.5661 25.8809 18.7684 25.9454 18.9906L22.1043 20.1067C22.2277 20.5315 22.4564 20.9181 22.7691 21.2309L25.5976 18.4024ZM25.9454 18.9906C26.01 19.2129 26.0174 19.4478 25.9669 19.6736L22.0632 18.8014C21.9668 19.233 21.9809 19.682 22.1043 20.1067L25.9454 18.9906ZM25.9674 19.6715L27.0666 14.7263L23.1619 13.8583L22.0627 18.8036L25.9674 19.6715ZM27.0671 14.7243C27.1097 14.5314 27.2079 14.3523 27.3485 14.2117L24.5201 11.3833C23.842 12.0614 23.3692 12.9214 23.1615 13.8603L27.0671 14.7243ZM27.3485 14.2117L39.0856 2.47462L36.2572 -0.353809L24.5201 11.3833L27.3485 14.2117Z" fill="#9FC1CB" mask="url(#path-3-inside-1_252_220)"/>
</g>
<defs>
<clipPath id="clip0_252_220">
<rect width="20" height="20" fill="white" transform="translate(22)"/>
</clipPath>
</defs>
</svg>
