<svg width="47" height="46" viewBox="0 0 47 46" fill="none" xmlns="http://www.w3.org/2000/svg">
<path d="M19.7922 31.3166C13.9211 41.0906 21.2274 49.8857 23.2015 40.0475C24.1119 47.7076 33.2436 44.1326 26.9406 30.9077" fill="white"/>
<path d="M19.0398 30.8847C17.1493 34.0645 16.0206 38.0807 17.0611 41.7339C17.3862 42.8689 17.9529 44.0223 18.9376 44.7299C19.7876 45.3411 20.9117 45.3686 21.771 44.7621C23.1783 43.7649 23.7125 41.8717 24.0423 40.2818L22.333 40.052C22.5048 41.426 22.8857 42.8321 23.8751 43.8614C24.6229 44.6472 25.7051 45.0516 26.7827 44.8264C29.5604 44.2474 30.141 40.631 29.9923 38.338C29.8158 35.5901 28.8683 32.9525 27.6931 30.4757C27.4934 30.0529 26.8803 29.9472 26.4994 30.1678C26.0628 30.4206 25.9885 30.9214 26.1882 31.3488C27.1079 33.2879 27.8882 35.4155 28.1669 37.5063C28.2691 38.2737 28.3016 39.0595 28.2459 39.8361C28.2134 40.2358 28.218 40.2496 28.1297 40.6586C28.0694 40.9435 27.995 41.2238 27.8975 41.4949C27.8743 41.5592 27.8511 41.6236 27.8278 41.6833C27.7489 41.8947 27.9068 41.5179 27.8139 41.7201C27.7582 41.835 27.7071 41.9452 27.6467 42.0555C27.5909 42.1566 27.5259 42.2577 27.4609 42.3588C27.4284 42.4048 27.3959 42.4507 27.3633 42.4967C27.2751 42.6207 27.4934 42.3634 27.3262 42.5334C27.1961 42.6713 27.0661 42.7999 26.9174 42.924C27.1357 42.7448 26.8803 42.9424 26.8199 42.9792C26.7456 43.0251 26.4158 43.1538 26.6991 43.0573C26.5459 43.1124 26.3879 43.14 26.2346 43.1859C26.5133 43.1078 26.2718 43.1767 26.165 43.1767C26.1232 43.1767 26.0767 43.1722 26.0349 43.1767C25.8213 43.1859 26.1696 43.2273 26.0535 43.1813C25.9792 43.1538 25.877 43.14 25.798 43.1216C25.7562 43.1124 25.7144 43.0894 25.6726 43.0802C25.5101 43.0297 25.8631 43.1767 25.7144 43.0986C25.6448 43.0619 25.5751 43.0297 25.5101 42.9883C25.4683 42.9654 25.4311 42.9378 25.3893 42.9102C25.1896 42.7953 25.4775 42.9975 25.3707 42.8964C25.2825 42.8137 25.1896 42.7402 25.106 42.6529C25.0688 42.6161 25.0363 42.5702 24.9991 42.5334C24.8319 42.3588 25.0456 42.6115 24.962 42.4921C24.8087 42.2761 24.674 42.0509 24.5579 41.812C24.53 41.7522 24.5021 41.6925 24.4743 41.6328C24.5672 41.8395 24.4464 41.5592 24.4325 41.5225C24.3721 41.3616 24.321 41.2008 24.2745 41.0354C24.2234 40.8608 24.1816 40.6816 24.1491 40.5024C24.1352 40.4196 24.1212 40.3415 24.1027 40.2588C24.0934 40.2037 24.0841 40.1485 24.0748 40.0934C24.0841 40.1807 24.0841 40.1715 24.0748 40.0658C24.0237 39.6385 23.7822 39.2754 23.3177 39.2203C22.9136 39.1744 22.4491 39.4133 22.3609 39.8361C22.2122 40.5575 22.0171 41.3295 21.7384 41.982C21.6316 42.2301 21.5062 42.4737 21.3622 42.7034C21.3343 42.7494 21.1253 43.0435 21.2136 42.9332C21.1393 43.0297 21.0557 43.1216 20.9674 43.2043C20.9117 43.2549 20.7352 43.3973 20.8931 43.287C20.8188 43.3422 20.7352 43.3835 20.6608 43.4341C20.5122 43.5398 20.7955 43.4203 20.5819 43.4708C20.489 43.4938 20.2382 43.503 20.4983 43.503C20.4193 43.503 20.3403 43.503 20.2614 43.503C20.1499 43.503 20.475 43.5673 20.3125 43.503C20.2893 43.4938 20.2335 43.48 20.2103 43.4754C20.1778 43.4754 20.136 43.4479 20.1081 43.4433C20.3032 43.503 20.2149 43.4938 20.1638 43.4662C20.0709 43.4157 19.9827 43.3606 19.8898 43.3054C19.7923 43.2457 20.0106 43.4065 19.9223 43.333C19.8805 43.3008 19.8433 43.2641 19.8015 43.2319C19.7365 43.1721 19.6761 43.1124 19.6158 43.0481C19.5832 43.0159 19.5554 42.9792 19.5275 42.947C19.3789 42.7816 19.5925 43.0435 19.5089 42.9286C19.4253 42.8137 19.351 42.7034 19.2813 42.5886C18.998 42.1153 18.8958 41.8487 18.7379 41.2927C18.3756 40.0291 18.3431 38.701 18.5103 37.3684C18.7611 35.3833 19.5182 33.4901 20.5401 31.7761C21.1114 30.8203 19.6065 29.9518 19.0351 30.9076L19.0398 30.8847Z" fill="#5B5B5B"/>
<path d="M19.2812 13.2437C17.4604 9.8525 15.9648 5.12407 18.2408 1.69608C20.4563 -0.652055 22.3561 2.51861 23.2433 4.37506C23.731 3.88797 23.9678 2.87244 24.3534 2.2429C25.2916 0.708116 27.4422 0.358882 28.4362 2.03612C29.8668 5.54223 28.0089 10.1374 26.6665 13.4413" fill="white"/>
<path d="M20.0338 12.8118C18.6217 10.1558 17.3676 6.8381 18.2176 3.81907C18.4777 2.89544 19.2163 1.15387 20.4379 1.93505C21.4179 2.56459 22.0078 3.80528 22.4955 4.81622C22.7324 5.30331 23.5081 5.38143 23.8611 4.99084C24.7111 4.05342 24.7622 2.33943 26.0953 1.87991C26.5273 1.73286 26.9964 1.77881 27.354 2.06831C27.8557 2.47728 27.9625 3.30441 28.0368 3.90638C28.427 7.09543 27.0103 10.3304 25.8398 13.2208C25.6633 13.6573 26.0349 14.1628 26.4483 14.2823C26.9453 14.4201 27.3448 14.1123 27.5213 13.6803C28.9147 10.2477 30.5915 6.22234 29.5185 2.47728C29.0448 0.818424 27.5305 -0.275227 25.7701 0.18429C24.9619 0.395668 24.2699 0.914923 23.7822 1.57663C23.2944 2.23833 23.1923 3.16656 22.6395 3.77771L24.0051 3.95233C23.0761 2.01776 21.0881 -1.09317 18.5149 0.386478C17.1958 1.14468 16.5919 2.78516 16.3643 4.20506C16.1182 5.73066 16.2482 7.27923 16.6059 8.77726C17.0146 10.4913 17.716 12.1317 18.5381 13.6849C19.0584 14.6683 20.5633 13.7952 20.0431 12.8164L20.0338 12.8118Z" fill="#5B5B5B"/>
<path d="M14.7944 19.3922C11.8867 16.5616 3.40062 15.1922 1.62164 19.5944C1.86317 21.1568 3.95335 21.8461 5.30036 21.2349C-2.34505 19.6404 -0.59859 30.2828 14.5111 24.7272" fill="white"/>
<path d="M15.4122 18.7809C13.3639 16.8234 10.1775 15.9641 7.39523 15.9044C5.95533 15.8722 4.46433 16.0928 3.17307 16.7499C2.05366 17.3197 0.400099 18.7626 0.864583 20.1503C1.52415 22.117 3.96269 22.719 5.74167 21.9746C6.4291 21.6851 6.22473 20.5409 5.53265 20.3984C4.19958 20.1273 2.70858 20.063 1.4777 20.7431C0.585893 21.244 -0.0225817 22.163 0.000642554 23.1923C0.0703152 26.1194 3.84193 27.0982 6.18293 27.1947C9.09989 27.3142 12.0308 26.5422 14.7434 25.5542C15.7885 25.1728 15.3333 23.5094 14.2789 23.8908C12.0726 24.6949 9.75481 25.352 7.39523 25.4623C6.60561 25.4991 5.73702 25.4761 5.02636 25.3566C4.68729 25.2969 4.35286 25.2234 4.02308 25.1223C3.67471 25.0166 3.53537 24.966 3.30777 24.8558C3.06624 24.7409 2.83864 24.6076 2.62033 24.4606C2.41596 24.3227 2.66214 24.5157 2.48099 24.3595C2.38809 24.2768 2.29519 24.1986 2.21159 24.1067C2.16514 24.0562 1.93754 23.7667 2.08618 23.9781C2.03508 23.9046 1.98399 23.831 1.93754 23.7529C1.89109 23.6748 1.85393 23.6013 1.81678 23.5278C1.73317 23.3669 1.8818 23.7207 1.83071 23.5507C1.81678 23.5048 1.7982 23.4588 1.78426 23.4129C1.76568 23.3256 1.73781 23.0223 1.75175 23.321C1.75175 23.2474 1.74246 23.1693 1.74246 23.0958C1.74246 23.0039 1.80284 22.7833 1.73317 23.059C1.75639 22.9763 1.77497 22.889 1.7982 22.8017C1.84464 22.6041 1.68672 22.9396 1.82607 22.742C1.87251 22.6731 1.91432 22.5995 1.96077 22.5306C1.77497 22.8109 2.35558 22.2135 2.09547 22.3973C2.18372 22.3376 2.27197 22.2779 2.36022 22.2273C2.40667 22.1997 2.45776 22.1768 2.50886 22.1492C2.72716 22.0389 2.4206 22.1722 2.56924 22.1262C2.81542 22.0435 3.06159 21.9792 3.31706 21.9424C3.10804 21.9746 3.52143 21.9286 3.5911 21.9286C3.74903 21.924 3.90695 21.924 4.06488 21.9286C4.52007 21.947 4.6269 21.9654 5.07281 22.0573L4.86379 20.4812C3.93947 20.8671 2.65749 20.3525 2.46241 19.3553V19.8149C3.30777 17.8114 5.99713 17.5173 7.9201 17.6413C10.0846 17.7792 12.6067 18.4869 14.1813 19.9895C14.9895 20.7615 16.2204 19.5437 15.4122 18.7718V18.7809Z" fill="#5B5B5B"/>
<path d="M31.4833 19.3785C34.4049 16.534 42.9375 15.1555 44.7258 19.5852C44.4843 21.1568 42.3801 21.8461 41.0285 21.2303C48.084 19.4979 48.0422 30.0392 31.4183 24.9524" fill="white"/>
<path d="M32.0964 19.9895C33.6803 18.4777 36.221 17.7655 38.3948 17.6276C40.3271 17.5035 43.035 17.8022 43.885 19.8149V19.3554C43.6946 20.3571 42.394 20.8764 41.4651 20.4858L41.256 22.0619C41.4186 22.0252 41.5765 21.993 41.7391 21.9609C41.7623 21.9563 42.0271 21.9195 41.8181 21.9471C41.8924 21.9379 41.9667 21.9287 42.041 21.9241C42.3197 21.9011 42.5984 21.9011 42.8771 21.9149C42.9421 21.9149 43.0072 21.9241 43.0675 21.9333C42.826 21.9057 43.035 21.9287 43.0815 21.9379C43.179 21.9563 43.2766 21.9746 43.3741 22.0022C43.4856 22.0298 43.5924 22.0665 43.6992 22.1033C43.755 22.1217 43.9222 22.2044 43.6899 22.0987C43.7457 22.1263 43.8014 22.1493 43.8525 22.1768C43.9315 22.2228 44.0104 22.2687 44.0894 22.3147C44.3263 22.4525 44.0383 22.2412 44.1777 22.3836C44.238 22.4433 44.2938 22.5031 44.3588 22.5582C44.5307 22.7145 44.3077 22.4158 44.4238 22.6455C44.461 22.7191 44.5074 22.7972 44.5492 22.8707C44.5725 22.9121 44.5121 22.6961 44.5492 22.8983C44.5632 22.9764 44.5864 23.0637 44.605 23.1418C44.5307 22.8431 44.591 23.1464 44.5957 23.2475C44.5957 23.3394 44.526 23.56 44.6003 23.2751C44.5771 23.3624 44.5585 23.4451 44.54 23.5324C44.5307 23.5784 44.5074 23.6197 44.4935 23.6611C44.4424 23.8265 44.591 23.4727 44.5074 23.6243C44.461 23.7116 44.4145 23.7943 44.3634 23.877C44.3356 23.9184 44.3077 23.9598 44.2752 24.0011C44.1684 24.1528 44.4099 23.8495 44.2798 23.9919C44.2195 24.0608 44.1591 24.1298 44.094 24.1941C44.0104 24.2768 43.9222 24.3503 43.8293 24.4239C44.0104 24.2768 43.6574 24.5387 43.5924 24.5801C43.035 24.9247 42.761 25.0166 42.1014 25.1913C41.3025 25.398 40.6383 25.467 39.7976 25.4899C37.0246 25.5635 34.2702 24.9247 31.6319 24.1252C30.559 23.7989 30.0991 25.4624 31.1674 25.7886C33.8522 26.602 36.6716 27.2361 39.4957 27.2177C41.1678 27.2039 42.9886 26.9696 44.4424 26.0873C45.4271 25.4899 46.2353 24.5525 46.3282 23.3762C46.4072 22.3377 45.8359 21.4094 44.9859 20.8396C43.7689 20.0263 42.1525 20.0768 40.7823 20.4077C40.1134 20.5685 39.8672 21.6851 40.5733 21.9838C42.1479 22.6455 44.1637 22.2825 45.1531 20.8075C45.376 20.472 45.585 20.0033 45.585 19.5897C45.585 19.2083 45.311 18.7764 45.102 18.4639C44.7165 17.8849 44.2241 17.4116 43.6481 17.0256C41.2003 15.3944 37.6609 15.7022 34.9855 16.5294C33.4852 16.9935 31.9942 17.6873 30.8516 18.7764C30.0434 19.5484 31.2743 20.7661 32.0825 19.9941L32.0964 19.9895Z" fill="#5B5B5B"/>
<path d="M14.8085 26.5284C11.5246 25.4945 1.49172 30.6319 5.28655 34.4826C6.35487 34.9743 10.5074 33.7152 10.1404 32.4102C7.78548 34.0874 6.34093 38.485 10.6049 38.4896C13.9678 37.9106 16.7732 33.1868 19.667 31.5877" fill="white"/>
<path d="M15.0406 25.6967C13.6007 25.2693 11.9286 25.6829 10.5584 26.1562C8.84906 26.749 7.22337 27.6129 5.82992 28.7663C4.68264 29.7175 3.56323 31.073 3.57252 32.6354C3.57717 33.4304 3.89302 34.1564 4.39002 34.7676C4.99385 35.512 5.86243 35.5028 6.7496 35.3787C8.26846 35.1673 11.4362 34.2529 10.9764 32.1805C10.8649 31.675 10.1403 31.3442 9.69907 31.6658C7.87365 32.9984 5.85779 36.1875 7.6925 38.2783C8.66327 39.3857 10.433 39.5695 11.7474 39.0594C13.3778 38.4299 14.6969 37.2306 15.9232 36.0312C17.2376 34.7446 18.4825 33.2511 20.1035 32.3321C21.0743 31.7807 20.2011 30.2919 19.2256 30.8433C16.6803 32.2862 15.0546 34.8595 12.7136 36.5597C11.7707 37.2489 10.5723 37.9612 9.38787 37.4282C9.08595 37.2903 8.90016 37.0651 8.83048 36.863C8.71436 36.5413 8.7283 36.1783 8.81655 35.8061C9.05808 34.7859 9.73158 33.775 10.5816 33.1547L9.30426 32.64C9.29497 32.6078 9.29032 32.5067 9.31819 32.4838C9.19743 32.5894 9.33677 32.5251 9.16491 32.6676C8.99305 32.81 8.70507 32.9846 8.44032 33.1133C7.81791 33.4166 7.09331 33.628 6.40588 33.7107C6.24795 33.729 5.82992 33.7382 5.7556 33.729C5.87637 33.7474 5.64412 33.7107 5.64412 33.7015L5.61161 33.6923C5.49084 33.6509 5.56516 33.6923 5.82992 33.798C5.80669 33.8118 5.61625 33.5315 5.58838 33.4901C5.41653 33.219 5.41653 33.2006 5.34221 32.9157C5.30041 32.7457 5.30969 32.9065 5.31434 32.6859C5.31434 32.6078 5.34685 32.2816 5.32363 32.4148C5.50942 31.3809 6.38265 30.5078 7.28375 29.814C8.37993 28.9685 9.65727 28.3067 10.9625 27.8472C11.6267 27.6129 12.4024 27.3969 13.048 27.3096C13.271 27.2774 13.6379 27.2545 13.9166 27.2636C14.2835 27.2728 14.2231 27.2636 14.5762 27.3647C15.6538 27.6864 16.1136 26.0229 15.0406 25.7013V25.6967Z" fill="#5B5B5B"/>
<path d="M27.9812 14.0159C28.3202 10.7763 31.2186 6.47984 34.5583 5.48269C35.7891 4.89451 37.87 4.82558 38.2416 6.4293C38.446 7.57809 36.1422 11.2175 34.967 10.5328C37.2105 8.7131 41.8785 8.46955 40.7823 12.5455C39.4028 15.5048 34.5954 16.796 32.3984 19.112" fill="white"/>
<path d="M28.8498 14.0158C29.1656 11.2909 31.084 8.40055 33.4157 6.95307C33.9684 6.60843 34.5629 6.36948 35.1761 6.15811C35.6638 5.99268 36.2165 5.88699 36.7274 6.01566C37.1037 6.11215 37.3777 6.36029 37.3777 6.66817C37.3777 6.76467 37.3777 6.65438 37.3824 6.636C37.3731 6.69115 37.3591 6.75548 37.3452 6.81062C37.3173 6.90712 37.2941 6.99902 37.2616 7.09093C37.1826 7.32987 37.0758 7.55044 36.9597 7.77101C36.6763 8.30405 36.3466 8.81871 35.9239 9.25525C35.752 9.43446 35.5848 9.58151 35.4222 9.6826C35.3711 9.71477 35.2597 9.71936 35.2457 9.75612C35.2457 9.74234 35.3758 9.76991 35.4037 9.7837L35.5802 11.1347C36.2722 10.5878 37.2895 10.2065 38.1488 10.1421C38.6365 10.1054 38.9663 10.11 39.4029 10.28C39.5933 10.3535 39.8581 10.5419 39.9742 10.8222C40.0067 10.8957 40.0624 11.1301 40.0717 11.2771C40.0857 11.5482 40.0671 11.824 39.9974 12.0859C39.8534 12.6327 39.4075 13.106 39.0081 13.492C38.0141 14.4524 36.7739 15.1371 35.5848 15.8263C34.2517 16.6029 32.8629 17.3795 31.7853 18.4915C31.0096 19.2911 32.2405 20.5134 33.0162 19.7093C35.2411 17.4163 38.6969 16.6535 40.7545 14.1537C41.7114 12.9911 42.2084 11.369 41.4791 9.94912C40.9171 8.84628 39.649 8.40055 38.4646 8.40514C36.969 8.40974 35.5058 8.99792 34.3446 9.91236C33.9127 10.2524 34.0613 11.029 34.5211 11.2633C35.961 11.9986 37.257 10.4868 37.9769 9.43446C38.7387 8.31784 39.5794 6.7371 38.7619 5.44126C37.7679 3.86512 35.7102 4.11785 34.2192 4.67387C32.3845 5.35855 30.9167 6.50274 29.7137 8.03294C28.3528 9.76531 27.3588 11.8056 27.108 13.9975C27.0522 14.4616 27.5446 14.8614 27.9812 14.8614C28.4968 14.8614 28.7987 14.4662 28.8544 13.9975L28.8498 14.0158Z" fill="#5B5B5B"/>
<path d="M31.4462 26.5282C34.7069 25.4989 44.6468 30.6868 40.8659 34.4824C39.7976 34.9741 35.6451 33.715 36.0121 32.41C38.367 34.0872 39.8116 38.4848 35.5476 38.4894C32.1243 38.0575 29.9506 33.3015 27.2798 31.5875" fill="white"/>
<path d="M31.6785 27.3601C31.7853 27.328 31.8921 27.305 31.999 27.282C31.9432 27.2912 32.0686 27.2728 32.2033 27.2636C32.4727 27.2499 32.7421 27.2636 33.0115 27.2866C33.4714 27.3326 34.2053 27.5118 34.758 27.6864C36.1096 28.1137 37.4009 28.7617 38.5528 29.5796C39.0777 29.9472 39.5654 30.3746 39.9881 30.8525C40.2946 31.2017 40.6198 31.6842 40.7359 32.0564C40.8706 32.4975 40.8938 32.81 40.7359 33.1914C40.6848 33.3109 40.4479 33.5866 40.4015 33.7153C40.3365 33.8853 40.4572 33.7566 40.578 33.6739C40.5408 33.6969 40.4479 33.7199 40.4061 33.7199C40.4804 33.7199 40.2436 33.729 40.1135 33.7245C39.4028 33.7107 38.6225 33.4947 37.949 33.2144C37.6471 33.0857 37.2801 32.9019 37.0572 32.7227C37.1083 32.7641 36.9736 32.6446 36.9643 32.6354C36.8714 32.5435 36.8993 32.5573 36.8807 32.5527C36.8203 32.5251 36.8575 32.401 36.8389 32.4883C36.7971 32.6905 36.89 32.47 36.8528 32.64L35.5755 33.1546C36.3094 33.6877 36.9318 34.547 37.2244 35.4017C37.373 35.8428 37.4566 36.2564 37.3916 36.6286C37.3452 36.9089 37.2105 37.1479 36.9782 37.3041C34.7952 38.7975 32.194 35.4476 30.9957 34.0507C29.997 32.8927 29.0123 31.698 27.7211 30.8479C26.7828 30.2321 25.9096 31.7256 26.8432 32.3367C28.1205 33.1776 29.0774 34.4781 30.0667 35.6177C31.1118 36.8216 32.2544 38.0945 33.7175 38.8113C35.1807 39.5282 36.8946 39.6017 38.158 38.5724C39.1567 37.7636 39.3053 36.4264 38.9941 35.25C38.6132 33.8072 37.6517 32.5435 36.4534 31.6704C36.0075 31.3487 35.2875 31.6796 35.176 32.1851C34.758 34.0691 37.4056 34.9835 38.8222 35.2868C39.5515 35.443 40.499 35.6131 41.205 35.273C41.911 34.933 42.3848 33.9772 42.5195 33.2603C42.8214 31.6934 41.9064 30.2597 40.8149 29.2074C39.5143 27.9575 37.8979 27.0523 36.2258 26.386C34.7255 25.784 32.8304 25.2188 31.2186 25.7013C30.1503 26.0229 30.6055 27.6864 31.6831 27.3647L31.6785 27.3601Z" fill="#5B5B5B"/>
<path d="M18.6776 14.0892C18.4639 10.9048 15.6259 6.75072 12.4674 5.59733C11.2644 4.9586 9.19281 4.79318 8.74226 6.37851C8.48679 7.51811 10.6188 11.2586 11.8264 10.6244C9.66658 8.70826 5.01709 8.25334 5.92284 12.3752C7.12121 15.4494 11.9426 16.7544 14.0885 19.075" fill="white"/>
<path d="M19.5508 14.0893C19.3975 12.1823 18.6172 10.3534 17.5303 8.78645C16.4434 7.2195 14.9849 5.74445 13.1873 4.96327C11.7289 4.33373 9.78733 3.75934 8.50535 5.08734C7.37665 6.25451 7.99442 7.83525 8.66327 9.06216C9.33213 10.2891 10.6513 12.1088 12.2677 11.3689C12.76 11.1438 12.839 10.358 12.4442 10.018C10.7674 8.56588 7.25124 7.33897 5.56981 9.44816C4.65478 10.5924 4.78948 12.3247 5.52801 13.5195C6.38266 14.9072 7.7854 15.8676 9.15098 16.7177C10.628 17.6322 12.2723 18.4179 13.48 19.6908C14.2464 20.5041 15.4773 19.2818 14.7109 18.4731C12.8297 16.4834 10.0707 15.6287 8.05016 13.8136C7.20479 13.0554 6.49413 12.118 6.72638 10.9692C6.79605 10.6199 6.9772 10.4131 7.23731 10.2707C7.52064 10.1145 7.86436 10.0685 8.28704 10.0777C9.29497 10.1007 10.433 10.5602 11.2179 11.2403L11.3944 9.88929C11.427 9.87551 11.4966 9.86172 11.5199 9.84794C11.636 9.77441 11.4455 9.91687 11.5431 9.84794C11.5617 9.83415 11.5477 9.84794 11.5338 9.83875C11.3526 9.71008 11.2783 9.68251 11.0972 9.4987C10.7349 9.13569 10.4515 8.70374 10.2054 8.25801C9.95918 7.81228 9.7641 7.38952 9.64798 6.91622C9.59689 6.70024 9.56902 6.75079 9.60618 6.52103C9.57831 6.72782 9.64334 6.46589 9.69443 6.39237C9.73623 6.32804 9.78268 6.27289 9.84306 6.22235C10.642 5.57443 12.1283 6.33723 12.8622 6.72782C14.1442 7.4125 15.2125 8.48777 16.03 9.66873C16.9357 10.9692 17.6882 12.5039 17.8136 14.1031C17.9019 15.2013 19.6437 15.2105 19.5554 14.1031L19.5508 14.0893Z" fill="#5B5B5B"/>
<path d="M15.375 16.8051C9.91266 24.571 18.3245 35.5166 27.9161 30.3287C40.694 21.7265 25.4264 5.15636 15.375 16.8051Z" fill="#FFF255"/>
<path d="M14.6225 16.3686C11.9425 20.2377 12.3094 25.3476 15.3007 28.9318C16.6709 30.5769 18.6078 31.8038 20.7166 32.2817C23.2155 32.8515 25.7887 32.3736 28.0508 31.2294C29.0959 30.7009 30.062 29.8279 30.8563 28.9778C31.5809 28.2012 32.2265 27.3235 32.6863 26.3677C33.5224 24.6445 33.8197 22.7559 33.5363 20.8627C33.0115 17.3428 30.4707 14.1997 27.1915 12.7844C25.2453 11.9435 23.0947 11.7091 21.0185 12.1824C18.5335 12.7522 16.3969 14.31 14.7526 16.194C14.0234 17.0303 15.2496 18.2526 15.9835 17.4117C17.2608 15.9458 18.8168 14.6684 20.7026 14.0572C22.2215 13.5655 23.81 13.5288 25.3243 13.9424C28.2133 14.7327 30.6426 17.0855 31.5344 19.9023C32.5563 23.1419 31.3115 26.3677 28.7243 28.6239C25.5983 31.3535 20.7677 31.5832 17.5906 28.8077C16.0206 27.4338 14.9755 25.5681 14.6179 23.5233C14.2324 21.3084 14.8455 19.0752 16.1182 17.2417C16.7545 16.3227 15.245 15.4634 14.6133 16.3732L14.6225 16.3686Z" fill="#5B5B5B"/>
<path d="M26.0064 24.3286H20.134C20.2564 25.4472 21.0149 27.6843 23.0702 27.6843C25.1256 27.6843 25.8841 25.4472 26.0064 24.3286Z" fill="#F1D500"/>
<path fill-rule="evenodd" clip-rule="evenodd" d="M19.5756 23.8279C19.7179 23.6693 19.9209 23.5786 20.134 23.5786H26.0064C26.2196 23.5786 26.4226 23.6693 26.5649 23.8279C26.7071 23.9866 26.7752 24.1983 26.752 24.4102C26.6813 25.0562 26.4322 26.0171 25.889 26.8393C25.3328 27.6813 24.421 28.4343 23.0702 28.4343C21.7195 28.4343 20.8077 27.6813 20.2515 26.8393C19.7083 26.0171 19.4591 25.0562 19.3885 24.4102C19.3653 24.1983 19.4333 23.9866 19.5756 23.8279ZM21.064 25.0786C21.1661 25.3927 21.3103 25.7207 21.503 26.0125C21.8705 26.5688 22.3657 26.9343 23.0702 26.9343C23.7748 26.9343 24.27 26.5688 24.6374 26.0125C24.8302 25.7207 24.9744 25.3927 25.0765 25.0786H21.064Z" fill="#5B5B5B"/>
<path fill-rule="evenodd" clip-rule="evenodd" d="M19.3678 20.2807C19.2547 20.49 19.2062 20.7774 19.2062 20.9729C19.2062 21.3872 18.8704 21.7229 18.4562 21.7229C18.042 21.7229 17.7062 21.3872 17.7062 20.9729C17.7062 20.6092 17.7835 20.0577 18.0479 19.5679C18.3299 19.0457 18.8644 18.5451 19.7146 18.5451C20.5647 18.5451 21.0992 19.0457 21.3812 19.5679C21.6457 20.0577 21.7229 20.6092 21.7229 20.9729C21.7229 21.3872 21.3872 21.7229 20.9729 21.7229C20.5587 21.7229 20.2229 21.3872 20.2229 20.9729C20.2229 20.7774 20.1744 20.49 20.0613 20.2807C20.0087 20.1832 19.9554 20.1272 19.9109 20.0966C19.8737 20.071 19.8182 20.0451 19.7146 20.0451C19.611 20.0451 19.5554 20.071 19.5183 20.0966C19.4737 20.1272 19.4204 20.1832 19.3678 20.2807Z" fill="#5B5B5B"/>
<path fill-rule="evenodd" clip-rule="evenodd" d="M26.0791 20.2807C25.9661 20.49 25.9175 20.7774 25.9175 20.9729C25.9175 21.3872 25.5817 21.7229 25.1675 21.7229C24.7533 21.7229 24.4175 21.3872 24.4175 20.9729C24.4175 20.6092 24.4948 20.0577 24.7593 19.5679C25.0413 19.0457 25.5758 18.5451 26.4259 18.5451C27.276 18.5451 27.8105 19.0457 28.0925 19.5679C28.357 20.0577 28.4343 20.6092 28.4343 20.9729C28.4343 21.3872 28.0985 21.7229 27.6843 21.7229C27.2701 21.7229 26.9343 21.3872 26.9343 20.9729C26.9343 20.7774 26.8857 20.49 26.7727 20.2807C26.72 20.1832 26.6667 20.1272 26.6222 20.0966C26.5851 20.071 26.5295 20.0451 26.4259 20.0451C26.3223 20.0451 26.2667 20.071 26.2296 20.0966C26.1851 20.1272 26.1318 20.1832 26.0791 20.2807Z" fill="#5B5B5B"/>
</svg>
