<svg width="60" height="60" viewBox="0 0 60 60" fill="none" xmlns="http://www.w3.org/2000/svg">
<path d="M37.5 45H45V37.5H50V45H57.5V50H50V57.5H45V50H37.5V45ZM30 43.75C24.175 43.75 19.225 40.1 17.225 35H39.225C36.2285 36.9661 34.0442 39.9496 33.075 43.4C32.075 43.625 31.05 43.75 30 43.75ZM21.25 27.5C19.175 27.5 17.5 25.825 17.5 23.75C17.5 21.675 19.175 20 21.25 20C23.325 20 25 21.675 25 23.75C25 25.825 23.325 27.5 21.25 27.5ZM38.75 27.5C36.675 27.5 35 25.825 35 23.75C35 21.675 36.675 20 38.75 20C40.825 20 42.5 21.675 42.5 23.75C42.5 25.825 40.825 27.5 38.75 27.5ZM30 50L32.675 49.825C32.95 51.525 33.5 53.15 34.3 54.625C32.9 54.875 31.45 55 30 55C16.175 55 5 43.75 5 30C5 16.25 16.175 5 30 5C43.75 5 55 16.25 55 30C55 31.475 54.875 32.9 54.625 34.3C53.15 33.5 51.55 32.95 49.825 32.675L50 30C50 18.95 41.05 10 30 10C18.95 10 10 18.95 10 30C10 41.05 18.95 50 30 50Z" fill="url(#paint0_linear_142_633)"/>
<defs>
<linearGradient id="paint0_linear_142_633" x1="31.25" y1="5" x2="31.25" y2="57.5" gradientUnits="userSpaceOnUse">
<stop stop-color="#E9F9FF"/>
<stop offset="1" stop-color="#C5D9E0"/>
</linearGradient>
</defs>
</svg>
