<svg width="41" height="48" viewBox="0 0 41 48" fill="none" xmlns="http://www.w3.org/2000/svg">
<g clip-path="url(#clip0_216_611)">
<path d="M11.8273 3.11941C10.2066 3.29723 9.09907 4.3184 8.31668 5.70028C7.49365 7.15328 6.9094 8.79935 6.36071 10.3743C5.18713 13.7629 4.46571 17.2888 4.15072 20.8603L4.52159 19.9611L4.60288 19.895L5.24301 19.7223C5.57324 19.8798 5.64437 19.895 5.45639 19.768L5.91363 20.2253L5.99492 20.5606L5.82218 21.2007L5.76122 21.2871L5.20237 21.6122L4.24725 21.0229C4.35394 21.7037 5.20237 22.0745 5.81202 21.912C6.53345 21.7138 6.80271 21.028 6.7011 20.3472C6.50804 19.1177 4.83658 18.7062 3.9729 19.4937C3.0127 20.3675 3.51566 21.8612 4.68925 22.2066C5.26842 22.3794 5.91871 22.2066 6.32515 21.7595C6.78239 21.2667 6.72142 20.5606 6.78747 19.9306C6.9094 18.8027 7.08721 17.685 7.31075 16.5724C7.76799 14.2811 8.41829 12.0254 9.25656 9.84592C9.62743 8.88063 10.0034 7.88995 10.5165 6.99071C10.7909 6.50807 11.243 5.73076 11.8374 5.66471C12.5182 5.58851 13.1075 5.13635 13.1075 4.3946C13.1075 3.76463 12.5233 3.04829 11.8374 3.12449L11.8273 3.11941Z" fill="white"/>
<path d="M12.9094 4.41503H12.9856C13.4073 4.44551 13.8899 4.16609 14.083 3.79014C14.276 3.41419 14.3776 3.02807 14.2202 2.63688C13.9915 2.06787 13.6105 1.75796 12.9958 1.70208C12.1321 1.63095 11.3091 2.45398 10.6791 2.95187C10.0491 3.44975 9.4547 3.98319 8.89585 4.55728C7.7934 5.69022 6.81795 6.96541 6.00508 8.32189C4.34886 11.0856 3.35309 14.2152 3.07367 17.421C2.91617 19.255 3.04318 21.0992 3.39373 22.9078C3.52583 23.5835 4.32854 23.9646 4.95851 23.7969C5.65961 23.6039 5.97968 22.9078 5.84759 22.2321C5.17697 18.8181 5.63421 15.216 6.97036 12.0154C7.62574 10.4455 8.51482 8.92138 9.59187 7.60047C10.6689 6.27955 11.9797 4.82655 13.4886 4.06448L12.8484 4.23722L12.9958 4.24738L11.7714 3.31258L11.8069 3.39894L11.934 2.41842L11.8882 2.50479L12.9856 1.87481H12.9094C11.2786 1.7732 11.2837 4.31342 12.9094 4.40995V4.41503Z" fill="white"/>
<path d="M12.3556 3.37366C7.60542 9.3381 4.37426 16.4304 3.13463 23.9647C3.02286 24.6404 3.31245 25.3313 4.02371 25.5295C4.63336 25.6971 5.47163 25.3212 5.58848 24.6404C6.75191 17.5583 9.67824 10.7911 14.1541 5.16706C14.5809 4.62853 14.6774 3.89187 14.1541 3.36858C13.7121 2.92659 12.7875 2.83006 12.3556 3.36858V3.37366Z" fill="white"/>
<path d="M8.9619 5.77655C7.25995 4.15081 5.26842 6.86884 4.6232 8.26596C3.76461 10.1152 3.23624 12.1525 2.81964 14.144C1.94073 18.3456 1.81372 22.7351 3.07367 26.8756C3.54615 28.4353 6 27.7698 5.52244 26.1999C4.52667 22.923 4.46571 19.448 5.02964 16.0848C5.31414 14.393 5.73582 12.7266 6.25402 11.0907C6.45724 10.4455 6.67062 9.80534 6.98053 9.20076C7.13294 8.9061 7.30059 8.61143 7.50889 8.35233C7.62574 8.21008 7.78832 8.09323 7.895 7.9459C8.10838 7.65123 8.27604 7.96622 7.63082 7.8138L7.07197 7.48866L7.16342 7.57502C8.34716 8.70288 10.1456 6.90949 8.9619 5.77655Z" fill="white"/>
<path d="M16.9128 6.24899C11.5682 8.52502 7.6105 12.9552 3.56647 16.9636C2.40305 18.1169 4.20152 19.9154 5.36495 18.7621C9.26672 14.8908 13.0364 10.6436 18.1981 8.44374C18.8281 8.17447 18.9704 7.24475 18.6554 6.70623C18.2743 6.05085 17.5529 5.97972 16.9179 6.24899H16.9128Z" fill="white"/>
<path d="M12.9399 4.80628C10.9433 10.2119 8.95174 15.6175 6.95512 21.023C6.71634 21.6683 7.21931 22.4151 7.8442 22.5878C8.55546 22.7809 9.1702 22.349 9.40898 21.6987C11.4056 16.2932 13.3971 10.8876 15.3937 5.48198C15.6325 4.83677 15.1296 4.08994 14.5047 3.91721C13.7934 3.72415 13.1787 4.15599 12.9399 4.80628Z" fill="white"/>
<path d="M9.81033 9.88162C8.45893 12.7876 7.29043 15.7851 6.35055 18.8537C5.89839 20.3372 5.49704 21.8308 5.15157 23.3448C4.77561 24.9908 4.51651 26.6217 4.84674 28.2982C4.97883 28.9739 5.78154 29.3549 6.41152 29.1873C7.11262 28.9942 7.43268 28.2982 7.30059 27.6225C7.03133 26.266 7.4022 24.8689 7.71211 23.5582C8.0525 22.1306 8.43861 20.708 8.87045 19.3058C9.72904 16.5268 10.7756 13.8088 12 11.167C12.2896 10.5472 12.1727 9.80033 11.5428 9.42946C10.9941 9.10939 10.0948 9.26181 9.80525 9.8867L9.81033 9.88162Z" fill="white"/>
<path d="M20.0119 7.05183C19.5343 6.14751 18.3861 6.14243 17.6596 6.7216C17.0195 7.22964 16.4505 7.85962 15.8967 8.45403C14.7993 9.63777 13.7832 10.9028 12.8586 12.2288C11.0093 14.8808 9.57155 17.802 8.55038 20.8655C8.03218 22.4202 10.4809 23.0857 10.9992 21.5412C11.8323 19.0467 12.9805 16.6793 14.4081 14.4693C15.094 13.4125 15.8357 12.3965 16.6486 11.4312C17.0754 10.9231 17.5224 10.4252 17.9848 9.9426C18.2286 9.68858 18.4725 9.43963 18.7214 9.19577C18.8179 9.09925 18.9348 9.0078 19.0262 8.90111C19.3006 8.58104 18.9043 8.82998 19.1177 8.7995H18.442L18.5334 8.82998L17.7765 8.24573L17.8222 8.3321C18.5893 9.77494 20.779 8.49467 20.0169 7.05183H20.0119Z" fill="white"/>
<path d="M17.4818 7.83923C17.873 9.7444 17.2583 11.9239 16.6588 13.7325C16.0593 15.5412 15.2667 17.0907 14.2608 18.6047C12.2286 21.6784 9.39373 24.1525 6.09145 25.7681C5.47671 26.0679 5.30906 26.9468 5.63421 27.5056C6 28.1356 6.75191 28.2626 7.37172 27.9629C13.199 25.1127 17.6698 19.6563 19.4073 13.4176C19.9661 11.4057 20.3522 9.24144 19.9255 7.16862C19.7883 6.498 18.9907 6.1068 18.3607 6.27954C17.6596 6.47259 17.3345 7.16862 17.4716 7.84431L17.4818 7.83923Z" fill="white"/>
<path d="M15.3734 9.82573C12.9754 11.7106 11.6342 14.6115 10.2015 17.2229C8.5199 20.2864 6.83827 23.3448 5.15665 26.4083C4.36918 27.841 6.56393 29.1263 7.3514 27.6886C8.99238 24.7013 10.6334 21.7089 12.2743 18.7216C13.6461 16.222 14.8806 13.4227 17.1719 11.6191C17.7104 11.1924 17.6139 10.2677 17.1719 9.82065C16.6384 9.28721 15.917 9.3939 15.3734 9.82065V9.82573Z" fill="white"/>
<path d="M16.7959 9.4854C13.0263 14.5201 11.5732 20.9977 7.326 25.7022H9.12447L9.25148 25.88V26.5557L9.2718 26.4083C9.37341 25.7326 9.09907 25.0417 8.38273 24.8436C7.78323 24.681 6.92464 25.0468 6.81795 25.7326C6.71126 26.4185 6.80779 26.9977 7.32091 27.5006C7.7934 27.963 8.65199 28.0138 9.11939 27.5006C13.5343 22.6082 15.0737 15.9884 18.9856 10.7707C19.3971 10.2221 19.072 9.3533 18.5284 9.03324C17.8781 8.6522 17.2024 8.93671 16.7909 9.49048L16.7959 9.4854Z" fill="white"/>
<path d="M11.8527 10.9739C9.62235 14.2152 8.0271 17.8935 7.17866 21.7292C7.03133 22.3998 7.38188 23.1009 8.06774 23.294C8.70279 23.4667 9.4801 23.0806 9.63252 22.4049C10.4403 18.7572 11.934 15.3329 14.0525 12.2542C14.4437 11.6903 14.1592 10.8469 13.5953 10.5167C12.9653 10.1509 12.2489 10.4049 11.8577 10.9739H11.8527Z" fill="white"/>
<path d="M30.7722 3.21098C24.0406 6.38117 19.6918 13.4328 19.8696 20.8655C19.9255 23.1212 20.3675 25.3719 21.2058 27.4701C21.4598 28.1051 22.0542 28.5522 22.7705 28.3592C23.3751 28.1915 23.9136 27.4396 23.6596 26.7944C21.9932 22.6233 21.9424 17.7918 23.8374 13.6767C25.5191 10.0289 28.4301 7.11783 32.0627 5.40573C32.6825 5.11106 32.8451 4.22198 32.5199 3.66822C32.149 3.03316 31.4073 2.92139 30.7824 3.21098H30.7722Z" fill="white"/>
<path d="M29.812 4.74531C26.8654 8.37275 24.3455 12.3304 22.4098 16.5878C20.4742 20.8452 19.0974 25.5802 20.3675 30.2186C20.7993 31.7936 23.2481 31.123 22.8163 29.5429C21.6986 25.4481 23.0601 21.1755 24.7925 17.4566C26.525 13.7377 28.8975 9.87656 31.6054 6.53871C32.0373 6.00526 32.1236 5.26352 31.6054 4.74023C31.1583 4.29315 30.2439 4.20679 29.8069 4.74023L29.812 4.74531Z" fill="white"/>
<path d="M30.569 4.94349L30.4928 4.93332L31.5902 5.5633L31.5597 5.50741L31.7324 6.14755L31.7426 6.07134L31.5699 6.71148L31.4733 6.81817L30.9145 7.14332L30.9907 7.11283H30.315L30.4014 7.13316L29.8425 6.80801L29.934 6.90454L29.6088 6.34569C29.6494 6.07134 29.6494 6.0053 29.6088 6.16279C29.5834 6.2644 29.5478 6.36601 29.5123 6.46254C29.4361 6.69116 29.3599 6.91978 29.2786 7.1484C29.1516 7.52943 29.0195 7.91046 28.8874 8.2915C28.5978 9.12977 28.2981 9.96296 27.9983 10.7911C27.3785 12.493 26.7333 14.1848 26.0576 15.8614C24.7367 19.1586 23.304 22.41 21.7798 25.6158C21.4852 26.2356 21.6071 26.9875 22.2371 27.3533C22.7909 27.6785 23.6799 27.521 23.9746 26.8961C26.0576 22.5116 27.9678 18.0409 29.6901 13.4989C30.1168 12.3711 30.5334 11.2382 30.9399 10.1001C31.3463 8.96211 31.8137 7.89014 32.083 6.76228C32.3776 5.51758 31.2803 4.03917 29.9441 4.81647C29.492 5.08066 29.1973 5.61918 29.2075 6.13739C29.2176 6.95534 29.8425 7.37702 30.5843 7.46846C31.265 7.55483 31.8544 6.82325 31.8544 6.19835C31.8544 5.44137 31.2701 5.01461 30.5843 4.92824L30.569 4.94349Z" fill="white"/>
<path d="M29.8323 5.79171C25.7477 12.7011 22.6283 20.1744 20.6012 27.9374C20.1897 29.5224 22.6384 30.1931 23.05 28.613C25.0262 21.0483 28.044 13.8036 32.0271 7.07198C32.8603 5.65962 30.6655 4.38443 29.8323 5.79171Z" fill="white"/>
<path d="M25.0567 8.77413C22.6842 12.7877 21.4344 17.4007 21.4699 22.0646C21.4801 23.7005 24.0203 23.7005 24.0102 22.0646C23.9797 17.8376 25.0974 13.6971 27.2464 10.0544C28.0796 8.64204 25.8848 7.36685 25.0517 8.77413H25.0567Z" fill="white"/>
<path d="M30.7976 7.06194C30.9958 7.80876 31.1583 8.56067 31.2904 9.31766C31.3209 9.49547 31.3514 9.67329 31.3768 9.85618C31.392 9.94763 31.4022 10.034 31.4174 10.1254C31.392 9.94255 31.4276 10.2271 31.4327 10.2575C31.4835 10.6894 31.5241 11.1161 31.5851 11.548C31.7934 13.0365 32.5809 14.5759 34.1609 14.962C34.8061 15.1195 35.5682 14.7588 35.7257 14.0729C35.8831 13.3871 35.5275 12.6809 34.8366 12.5082C34.7705 12.4929 34.7096 12.4777 34.6435 12.4574C34.7959 12.5234 34.8061 12.5285 34.6791 12.4624C34.6232 12.432 34.5673 12.3913 34.5114 12.3558C34.6384 12.4523 34.6486 12.4523 34.5419 12.3558C34.4962 12.31 34.4505 12.2592 34.4047 12.2084C34.486 12.3202 34.5013 12.3405 34.4505 12.2643C34.3946 12.1627 34.3285 12.0611 34.2726 11.9595C34.2168 11.8376 34.2168 11.8376 34.2726 11.9595C34.2422 11.8833 34.2168 11.802 34.1964 11.7207C34.1507 11.5632 34.1152 11.4006 34.0847 11.233C34.0745 11.1822 34.0237 10.8316 34.0593 11.0755C34.0389 10.9078 34.0237 10.7402 34.0034 10.5776C33.8459 9.16016 33.6071 7.75796 33.2413 6.38116C33.0737 5.74103 32.3268 5.28379 31.6765 5.49208C31.0262 5.70038 30.6097 6.36592 30.7875 7.05686L30.7976 7.06194Z" fill="white"/>
<path d="M31.6511 5.63443C31.3819 6.96043 31.138 8.28642 30.9196 9.62258C30.8637 9.96805 30.8637 10.2881 31.0466 10.6031C31.199 10.8673 31.5038 11.1162 31.8036 11.1874C32.1287 11.2636 32.4945 11.2432 32.7841 11.0603C33.0432 10.8927 33.3125 10.6234 33.3683 10.3034C33.5868 8.97228 33.8307 7.64121 34.0999 6.31521C34.166 5.9799 34.1507 5.63952 33.9729 5.33469C33.8205 5.07051 33.5157 4.82156 33.2159 4.75044C32.5859 4.60819 31.7934 4.9435 31.6511 5.63952V5.63443Z" fill="white"/>
<path d="M33.3734 10.9587C34.7858 10.5777 36.1677 10.1052 37.514 9.54127C37.834 9.40918 38.0881 9.27201 38.271 8.95702C38.4285 8.68268 38.4996 8.28132 38.398 7.9765C38.2964 7.67167 38.1084 7.37192 37.8137 7.21951C37.5191 7.0671 37.1431 6.96041 36.8332 7.0925C35.4869 7.65643 34.105 8.12891 32.6926 8.50994C32.0525 8.68268 31.5953 9.42442 31.8036 10.0747C32.0119 10.725 32.6774 11.1467 33.3683 10.9638L33.3734 10.9587Z" fill="white"/>
<path d="M36.1219 7.9917C35.3802 10.2169 34.6334 12.4422 33.8916 14.6674L32.779 18.0052C32.591 18.5641 32.4081 19.1179 32.2201 19.6767C32.1744 19.8088 32.1389 19.9561 32.0881 20.0831C32.0017 20.2914 31.768 20.4235 32.0931 20.2914C31.4581 20.5505 31.011 21.1348 31.2041 21.8562C31.3666 22.4557 32.1287 23.0044 32.7688 22.7453C33.978 22.2474 34.3539 21.2872 34.7451 20.1187L36.0203 16.3033L38.5707 8.67248C39.0889 7.11787 36.6351 6.45233 36.1219 7.99678V7.9917Z" fill="white"/>
<path d="M35.9949 9.18039C35.3192 12.3557 33.9323 15.2769 32.0881 17.9441C31.1736 19.2701 30.1423 20.5098 29.0449 21.6884C28.5063 22.2676 27.9475 22.8315 27.3734 23.3802C27.0737 23.6647 26.7739 23.9492 26.4691 24.2236C26.3167 24.3607 26.1643 24.4979 26.0119 24.6351C25.9356 24.7011 25.8594 24.7723 25.7832 24.8383C25.58 24.9958 25.5749 25.0161 25.7629 24.8993L26.7434 25.0263L26.6672 24.9653L27.2515 25.7223L27.2312 25.6258L26.906 26.8603L26.9619 26.7994C28.0389 25.58 26.2506 23.7765 25.1634 25.0009C24.0762 26.2253 25.4428 27.9882 26.8908 27.1855C27.7036 26.7384 28.4403 25.8696 29.1058 25.2346C30.5893 23.8171 31.9661 22.293 33.221 20.6673C35.6901 17.4666 37.6054 13.8137 38.4539 9.84085C38.7942 8.24559 36.3455 7.56481 36.0051 9.16515L35.9949 9.18039Z" fill="white"/>
<path d="M33.8408 8.38273C31.1228 14.3014 26.591 19.199 24.3302 25.3514C24.0914 25.9966 24.5944 26.7434 25.2193 26.9162C25.9255 27.1092 26.5453 26.6774 26.7841 26.0271C28.9585 20.1033 33.4141 15.3683 36.0356 9.66301C36.3201 9.03811 36.2134 8.29637 35.5783 7.92549C35.0296 7.60543 34.1304 7.75276 33.8408 8.38273Z" fill="white"/>
<path d="M33.0991 13.0569C29.9289 16.4963 27.287 20.3981 25.3108 24.6352C25.0212 25.255 25.138 26.0018 25.768 26.3727C26.3167 26.6928 27.2159 26.5404 27.5055 25.9155C29.3903 21.8664 31.8696 18.1322 34.8975 14.8503C36.0051 13.6513 34.2117 11.8477 33.0991 13.0518V13.0569Z" fill="white"/>
<path d="M30.8637 21.5565C26.2151 24.1476 23.1414 28.9791 22.613 34.2475C22.5419 34.9333 23.2481 35.5176 23.8831 35.5176C24.6249 35.5176 25.0821 34.9333 25.1533 34.2475C25.5953 29.8732 28.3285 25.8749 32.149 23.7513C33.5766 22.9536 32.2964 20.7589 30.8688 21.5565H30.8637Z" fill="white"/>
<path d="M15.282 29.4005L15.2515 29.3599L14.2608 28.0746C13.6867 27.4547 13.0059 27.0178 12.2185 26.7638C11.0246 26.2608 9.33785 25.9408 8.08298 26.4437C7.02117 26.8705 6.0254 27.221 5.21253 28.105C4.46571 28.9179 3.82557 29.8933 3.56139 30.9704C2.89077 33.7748 4.02371 36.6249 6.47756 38.144C7.46825 38.7536 8.74344 39.1296 9.91194 39.0635C10.6334 39.0229 11.3649 38.8756 12.0711 38.7486C12.6249 38.652 13.1787 38.5657 13.7375 38.4844L12.0508 38.713C15.3988 38.2659 18.7773 38.2151 22.1304 38.5707C23.6495 38.7282 25.5851 37.7477 26.6215 36.7113C27.724 35.6088 28.5521 33.8002 28.481 32.2202C28.4098 30.6402 27.8662 28.8722 26.6215 27.7291L25.3362 26.7384C24.3455 26.1643 23.2786 25.8747 22.1304 25.8696C17.4767 25.3819 12.818 25.7274 8.22523 26.586L9.91194 26.3574H9.77985C10.8467 26.652 11.9187 26.9416 12.9856 27.2312L12.8891 27.1702L15.8053 34.3438L15.8205 34.2778L11.3853 38.713L11.4513 38.6876C9.05843 37.7172 6.67062 36.7418 4.27773 35.7714L4.30821 35.8121C4.70957 36.5538 5.25318 37.1482 5.94412 37.5953C6.55885 38.1541 7.27519 38.5352 8.1033 38.7333C9.62235 39.1499 11.6494 38.9619 12.9958 38.0932C14.3421 37.2244 15.5461 35.9188 15.9119 34.2981C16.2777 32.6774 16.2828 30.7316 15.2718 29.4056L15.282 29.4005Z" fill="white"/>
<path d="M9.81033 28.4912C8.59102 28.7097 7.22439 29.5581 6.35055 30.4218C5.77138 30.9959 5.20237 31.7173 4.8569 32.4641C4.09484 34.1204 3.663 35.7613 3.72396 37.6106C3.78493 39.4599 4.17104 41.3956 5.22269 42.9654C6.84335 45.3989 9.2464 46.8621 12.2083 47.0044C13.7121 47.0755 15.3074 46.6386 16.7553 46.2321C18.2032 45.8257 19.5902 45.277 20.9314 44.6318C21.3277 44.4387 21.6935 44.2152 22.0491 43.9561C22.7248 43.4633 23.4462 42.9654 24.0102 42.3304C25.5749 40.5674 26.5707 38.4743 26.5402 36.0763C26.5148 34.0543 25.6207 32.3117 24.0356 31.0873C22.5724 29.9544 20.3319 29.233 18.4979 29.9493C16.8213 30.6047 15.2413 31.3668 14.0271 32.7537C12.4471 34.5522 11.5326 36.5336 11.3395 38.9366C11.0246 42.9298 14.2456 46.4252 18 47.2533C21.7544 48.0814 25.6054 47.2228 28.42 44.8198C30.508 43.0365 31.3057 39.9832 30.5792 37.3668C30.0813 35.5581 28.8823 34.3998 27.7646 32.9874L28.7553 34.2728C28.608 34.0594 28.4809 33.846 28.3743 33.6123L29.0144 35.1314C28.8925 34.8316 28.8061 34.5319 28.7502 34.2118L28.9788 35.8985C28.9382 35.5785 28.9331 35.2685 28.9585 34.9434L28.7299 36.6301C28.7756 36.31 28.8518 36.0103 28.9687 35.7055L28.3285 37.2245C28.8417 36.0763 29.558 35.0044 29.8019 33.7546C29.9695 32.8858 30.1219 32.0221 30.0254 31.1483C29.9492 30.4574 29.8933 29.7309 29.7003 29.0602C29.5072 28.3896 29.1871 27.7901 28.9077 27.1652L27.917 25.8799L26.6317 24.8892C25.3971 24.1678 23.9848 23.9493 22.5826 24.1373C20.0474 24.4777 18.0711 26.2457 17.304 28.6843C17.1871 29.0602 17.0703 29.4362 16.9483 29.8122C16.4657 31.3515 16.7858 33.3329 17.5885 34.7046C18.3912 36.0763 19.8696 37.2804 21.3836 37.6208C23.0093 37.9917 24.8332 37.9104 26.276 36.9807C27.7189 36.0509 28.6791 34.8164 29.1922 33.1856C29.3091 32.8096 29.4259 32.4337 29.5478 32.0577C25.6765 32.5657 21.8103 33.0687 17.939 33.5768L18.0203 33.7647L17.3802 32.2457C17.4513 32.4438 17.5021 32.6318 17.5478 32.835L17.3192 31.1483C17.3548 31.4277 17.3599 31.6868 17.3395 31.9663L17.5682 30.2796C17.5275 30.5539 17.4564 30.8079 17.3548 31.067L17.9949 29.548C17.5275 30.5691 16.9636 31.5192 16.6181 32.6064C16.3844 33.3481 16.3133 34.1864 16.2523 34.9485C16.2269 35.2736 16.2371 35.5784 16.2726 35.9036C16.4606 37.57 16.7197 38.8807 17.5783 40.3693C18.1321 41.3295 18.9348 42.1017 19.6257 42.9502L18.6351 41.6648C18.7417 41.8122 18.8281 41.9493 18.9094 42.1068L18.2693 40.5878C18.315 40.6894 18.3455 40.7961 18.3607 40.9028L18.1321 39.216C18.1473 39.3278 18.1473 39.4396 18.127 39.5514L18.3556 37.8646L18.3099 38.0221L18.95 36.5031C18.9145 36.6047 18.8586 36.6961 18.7976 36.7825L19.7883 35.4972C19.6765 35.6293 19.5648 35.7309 19.4276 35.8376L20.713 34.8469C20.5199 34.9739 20.3218 35.0755 20.1135 35.172L21.6325 34.5319C21.0584 34.7605 20.4742 34.918 19.8645 35.0145L21.5512 34.7859C21.0076 34.8519 20.4691 34.8824 19.9255 34.8215L21.6122 35.0501C21.282 34.9993 20.9721 34.9231 20.6621 34.8011L22.1812 35.4413C21.9373 35.3346 21.7138 35.2076 21.5055 35.0501L22.7909 36.0408C22.674 35.9392 22.5775 35.8376 22.4759 35.7207L23.4666 37.0061C23.3802 36.879 23.3091 36.7622 23.2481 36.6199L23.8882 38.139C23.8527 38.0425 23.8222 37.9459 23.8069 37.8443L24.0356 39.531C24.0152 39.3227 24.0152 39.15 24.0356 38.9417L23.8069 40.6284C23.8577 40.3693 23.934 40.1305 24.0356 39.8816L23.3954 41.4006C23.5326 41.1161 23.685 40.852 23.873 40.5979L22.8823 41.8833C23.1211 41.5886 23.3802 41.3295 23.6799 41.1009L22.3946 42.0916C22.6537 41.9087 22.9179 41.7563 23.2075 41.6293L21.6884 42.2694L21.8611 42.2033L13.8239 36.0814C13.829 36.1983 13.8239 36.3202 13.8137 36.437L14.0423 34.7503C14.0068 34.984 13.9458 35.1974 13.8594 35.4159L14.4996 33.8968C14.398 34.1102 14.276 34.3083 14.1338 34.5014L15.1245 33.216C14.8908 33.5056 14.6266 33.7546 14.337 33.9883L15.6224 32.9976C15.1397 33.3532 14.6266 33.6276 14.0779 33.8714L15.597 33.2313C14.1795 33.8257 12.6097 34.3236 11.0855 34.537L12.7722 34.3083C12.5334 34.3287 12.3201 34.3287 12.0864 34.3083L13.7731 34.537C13.6359 34.5166 13.5038 34.4811 13.3768 34.4354L14.8959 35.0755C14.7231 34.9993 14.5758 34.918 14.4183 34.8164L15.7036 35.8071C15.5106 35.6496 15.3429 35.4819 15.1905 35.2889L16.1812 36.5742C16.039 36.3659 15.9272 36.1576 15.8256 35.929L16.4657 37.4481C16.3641 37.1686 16.2981 36.8943 16.2472 36.5996L16.4759 38.2863C16.4098 37.7427 16.3997 37.194 16.4555 36.6453L16.2269 38.332C16.2727 38.0018 16.3438 37.6868 16.4606 37.3718L15.8205 38.8909C15.9069 38.6978 15.9983 38.52 16.1202 38.3473L15.1296 39.6326C15.2312 39.5158 15.3226 39.4243 15.4445 39.3278L14.1592 40.3185C14.2405 40.2626 14.3218 40.2169 14.4132 40.1813L12.8942 40.8215C12.9907 40.7859 13.0872 40.7605 13.1837 40.7503C14.6672 40.4862 16.2472 39.084 16.9788 37.8342C17.7765 36.4726 18.1118 34.4658 17.619 32.9417C17.1262 31.4176 16.171 29.9239 14.7028 29.1466L13.1837 28.5065C12.0559 28.2017 10.9331 28.2017 9.80525 28.5065L9.81033 28.4912Z" fill="white"/>
<path d="M6.03556 24.5945L5.49196 24.4166C4.95851 24.2439 4.33362 24.5284 4.05927 25.0009C3.2718 26.3523 3.23116 27.8713 3.31245 29.3904C3.35309 30.1626 3.41914 30.945 3.33277 31.7122C3.2464 32.4793 2.99238 33.2515 2.7282 33.978C2.18459 35.4717 1.31583 36.9501 1.37172 38.586C1.4276 40.2219 2.2608 41.6851 3.21592 42.9806C3.62235 43.5293 4.31837 43.8087 4.95343 43.4378C5.49704 43.1177 5.8171 42.2541 5.41067 41.7003C4.68925 40.7198 3.82557 39.5513 3.91194 38.2659C3.95766 37.5851 4.26757 36.9196 4.52159 36.2896C4.8061 35.5987 5.0906 34.9128 5.32938 34.2067C5.79678 32.8045 5.95428 31.387 5.87807 29.9137C5.8171 28.7096 5.61389 27.3684 6.24894 26.2812L4.81626 26.8654L5.35986 27.0432C6.91956 27.5462 7.5851 25.0923 6.03556 24.5945Z" fill="white"/>
<path d="M8.74852 23.9545C8.55038 26.0476 8.67231 28.1255 9.2464 30.1526C9.42422 30.7927 10.1507 31.25 10.8112 31.0417C11.4716 30.8334 11.8933 30.1628 11.7003 29.4769C11.5682 29.0095 11.4564 28.537 11.37 28.0595C11.3497 27.9477 11.3294 27.841 11.3141 27.7292C11.304 27.653 11.2938 27.5819 11.2837 27.5057C11.304 27.6378 11.304 27.6581 11.2938 27.5667C11.2684 27.3228 11.243 27.084 11.2227 26.8402C11.1566 25.8749 11.2024 24.9147 11.2938 23.9494C11.3548 23.2838 10.6638 22.6488 10.0237 22.6793C9.28196 22.7148 8.81964 23.2381 8.7536 23.9494L8.74852 23.9545Z" fill="white"/>
<path d="M13.2904 4.67928C13.3971 5.88842 13.4987 7.10265 13.6054 8.31179C13.6359 8.65218 13.7273 8.96209 13.9763 9.21103C14.1948 9.42949 14.5605 9.59714 14.8755 9.5819C15.1905 9.56666 15.5461 9.45997 15.7748 9.21103C15.9932 8.97733 16.1761 8.6471 16.1456 8.31179C16.039 7.10265 15.9373 5.88842 15.8307 4.67928C15.8002 4.33889 15.7087 4.02898 15.4598 3.78004C15.2413 3.56158 14.8755 3.39392 14.5605 3.40917C14.2456 3.42441 13.8899 3.5311 13.6613 3.78004C13.4428 4.01374 13.2599 4.34397 13.2904 4.67928Z" fill="white"/>
<path d="M16.0745 8.56575C16.4911 8.52003 16.9077 8.45906 17.3091 8.34221C17.7104 8.22536 18.0914 8.06279 18.4623 7.87481C18.6097 7.79352 18.7316 7.68683 18.818 7.54966C18.9297 7.42773 19.0059 7.28548 19.0466 7.11782C19.0974 6.95017 19.1075 6.78251 19.0669 6.60978C19.0567 6.44213 19.011 6.28463 18.9145 6.1373C18.7417 5.86804 18.4776 5.62925 18.1575 5.55305L17.8222 5.50732C17.5936 5.50732 17.3802 5.56829 17.182 5.68006C17.0703 5.73594 16.9534 5.79183 16.8366 5.83755L17.1414 5.71054C16.735 5.88328 16.3031 5.99505 15.8662 6.05601L16.2015 6.01029C16.1609 6.01537 16.1202 6.02045 16.0745 6.02553C15.9018 6.02045 15.7341 6.05601 15.5868 6.1373C15.4293 6.1881 15.2921 6.27447 15.1804 6.40148C15.0584 6.51833 14.967 6.65042 14.9162 6.80792C14.8349 6.96033 14.7993 7.1229 14.8044 7.29564C14.8196 7.62587 14.9263 7.96626 15.1753 8.19488L15.4344 8.39301C15.6325 8.50986 15.8459 8.56575 16.0745 8.56575Z" fill="white"/>
<path d="M9.4547 25.4023C10.0237 27.2211 10.7401 29.0907 12.4318 30.1576C12.9958 30.5132 13.8544 30.2947 14.1693 29.7003C14.4996 29.0754 14.3167 28.3438 13.7121 27.9628C13.6105 27.9018 13.514 27.8307 13.4225 27.7596L13.6816 27.9577C13.4073 27.7393 13.1634 27.4903 12.95 27.216L13.1482 27.4751C12.8129 27.028 12.5588 26.5352 12.3404 26.0221L12.4674 26.3269C12.2489 25.8036 12.0762 25.2702 11.9086 24.7266C11.7104 24.0915 11.0144 23.6241 10.3438 23.8375C9.67316 24.0509 9.2464 24.7215 9.4547 25.4023Z" fill="white"/>
<path d="M13.6003 27.3785C13.7375 27.3176 13.7477 27.3125 13.6257 27.3633C13.7019 27.3328 13.7731 27.3074 13.8493 27.2769C13.9814 27.2312 14.1135 27.1855 14.2456 27.1448C14.5301 27.0585 14.8196 26.9823 15.1143 26.9264C15.2312 26.9061 15.348 26.8857 15.4649 26.8654C15.1905 26.9061 15.6732 26.8451 15.7189 26.8451C15.9983 26.8248 16.2777 26.8146 16.5521 26.8197C16.8264 26.8248 17.1109 26.8451 17.3853 26.8756C17.1109 26.8451 17.5885 26.9111 17.6393 26.9213C17.7561 26.9416 17.873 26.967 17.9898 26.9975C18.2591 27.0636 18.5284 27.1398 18.7925 27.2312C18.8332 27.2465 19.2752 27.4141 19.0466 27.3176C19.1939 27.3785 19.3362 27.4497 19.4784 27.5208C20.0728 27.8155 20.8806 27.6986 21.2159 27.0636C21.5207 26.4895 21.3937 25.641 20.7587 25.326C18.0813 24.0001 15.033 23.9696 12.3099 25.1787C11.7003 25.448 11.5123 26.3828 11.8527 26.9162C12.2591 27.5462 12.9399 27.6631 13.5902 27.3735L13.6003 27.3785Z" fill="white"/>
<path d="M30.5944 7.73265C29.4513 8.70809 28.6232 10.1001 28.2879 11.5582C28.2117 11.8884 28.2422 12.239 28.4149 12.5387C28.5673 12.8029 28.8721 13.0519 29.1719 13.123C29.8171 13.2703 30.5741 12.9299 30.7367 12.2339C30.8129 11.8935 30.9196 11.5582 31.0567 11.2331L30.9297 11.5379C31.138 11.0553 31.4022 10.598 31.7223 10.1814L31.5241 10.4405C31.7832 10.1103 32.0728 9.80547 32.3929 9.53112C32.6266 9.32791 32.7638 8.93163 32.7638 8.63189C32.7638 8.33214 32.6266 7.94603 32.3929 7.73265C32.1592 7.51927 31.834 7.34654 31.4937 7.36178C31.1533 7.37702 30.8637 7.50403 30.5944 7.73265Z" fill="white"/>
<path d="M13.2599 26.0069C13.4022 25.9459 13.4225 25.9358 13.326 25.9764C13.4073 25.9459 13.4936 25.9104 13.5749 25.8799C13.7426 25.8189 13.9102 25.763 14.083 25.7122C14.3827 25.6259 14.6876 25.5547 14.9924 25.4988C15.0787 25.4836 15.1651 25.4684 15.2566 25.4531C15.1397 25.4684 15.16 25.4684 15.3175 25.448C15.4953 25.4328 15.6732 25.4176 15.851 25.4074C16.1609 25.3922 16.4759 25.3922 16.7858 25.4074C17.3395 25.4379 17.8628 25.5192 18.5487 25.7224C19.2345 25.9256 19.5597 26.0729 20.1998 26.4438C20.7739 26.7791 21.6173 26.5962 21.9373 25.9866C22.2574 25.3769 22.0948 24.6047 21.4801 24.2491C18.5741 22.5573 15.0381 22.4455 11.9848 23.802C11.3599 24.0814 11.2125 24.9959 11.5275 25.5395C11.9035 26.1847 12.6351 26.2762 13.265 25.9967L13.2599 26.0069Z" fill="white"/>
<path d="M34.481 5.17711C34.2625 4.31851 34.0339 3.47516 33.7646 2.63181C33.5665 2.02724 33.1346 1.53443 32.4996 1.38202C31.7782 1.20929 31.1482 1.49887 30.503 1.78846C28.5216 2.68261 26.6977 3.9324 25.1025 5.40573C21.851 8.41335 19.5394 12.5996 18.7417 16.9637C18.254 19.6513 18.3404 22.4557 19.3971 25.0061C19.6613 25.6411 20.2405 26.0933 20.9619 25.8951C21.5614 25.7326 22.1152 24.9705 21.851 24.3304C20.3522 20.7182 20.9975 16.6792 22.5927 13.2093C24.1016 9.92732 26.464 7.11784 29.5326 5.19743C29.9797 4.91801 30.4318 4.6589 30.8992 4.42012C31.1329 4.29819 31.3666 4.18642 31.6054 4.07465C31.6918 4.03401 31.7985 4.00353 31.8747 3.95272C31.9153 3.9324 31.956 3.91716 31.9966 3.90192C32.2913 3.80031 32.0728 3.62757 31.3412 3.38371C31.2955 3.7495 31.6207 4.25247 31.7274 4.59794C31.8544 5.01453 31.9306 5.44129 32.0373 5.86297C32.4386 7.44807 34.8874 6.77745 34.486 5.18727L34.481 5.17711Z" fill="#5B5B5B"/>
<path d="M1.34632 26.6369C1.53429 27.2973 1.76799 27.9527 1.895 28.6284C2.01185 29.2533 1.97629 29.9138 1.895 30.5437C1.69179 32.0374 1.16342 33.4853 0.629975 34.8875C-0.355631 37.4684 -0.203218 40.3083 1.31583 42.6606C3.64776 46.2728 8.00169 47.5378 12.0559 47.8629C14.7485 48.0763 17.497 48.0306 20.1897 47.8121C22.1253 47.6547 24.1016 47.4057 25.9407 46.7656C28.5419 45.8613 30.8332 44.0069 31.7121 41.3193C32.4539 39.0484 31.768 36.625 31.2396 34.3947C30.6757 32.012 30.2997 29.5429 31.3158 27.216C31.5902 26.5861 31.4987 25.8545 30.8586 25.4785C30.3201 25.1635 29.3954 25.3007 29.1211 25.9358C28.1101 28.2474 27.9577 30.5945 28.3692 33.0687C28.6791 34.9332 29.3751 36.8638 29.4767 38.6521C29.5224 39.4853 29.4716 40.2016 29.1617 40.9078C29.0246 41.2177 28.8417 41.5124 28.6537 41.7969C28.5876 41.8934 28.5216 41.99 28.4555 42.0865C28.2371 42.3964 28.5318 42.0154 28.3692 42.2033C28.039 42.5844 27.6986 42.9349 27.3124 43.2601C27.1702 43.3769 27.4852 43.1483 27.2261 43.321C27.1143 43.3972 27.0025 43.4734 26.8908 43.5446C26.6368 43.7071 26.3675 43.8494 26.0982 43.9815C26.0271 44.0171 25.6664 44.1796 25.7782 44.1288C25.8747 44.0882 25.4937 44.2406 25.4225 44.266C25.0872 44.3879 24.7468 44.4946 24.4014 44.5911C23.558 44.8248 22.6892 44.9925 21.8205 45.1094C19.4733 45.4294 16.9534 45.4802 14.5453 45.4447C12.442 45.4091 10.3082 45.2821 8.28112 44.6623C7.45301 44.4083 7.00593 44.2203 6.2591 43.7986C5.51228 43.3769 4.8315 42.9095 4.23709 42.2999C3.41406 41.4514 2.86029 40.3947 2.61643 39.2364C2.31668 37.824 2.70788 36.5539 3.20068 35.2431C3.75953 33.7546 4.22693 32.2457 4.41998 30.6606C4.62828 28.9942 4.24725 27.5564 3.80017 25.9713C3.35309 24.3862 0.904319 25.067 1.3514 26.647L1.34632 26.6369Z" fill="#5B5B5B"/>
<path d="M16.1507 3.86125C15.917 2.94169 15.7189 1.9764 15.3429 1.09749C15.0635 0.442111 14.464 0.020434 13.7375 0.000112258C13.0923 -0.0202095 12.4674 0.330341 11.9035 0.599604C9.82557 1.58013 7.90517 2.94677 6.27434 4.56743C2.75868 8.05261 0.736664 12.6707 0.314988 17.5835C0.0609659 20.5556 0.553769 23.3955 1.34632 26.2457C1.78324 27.8206 4.23709 27.15 3.79509 25.57C3.1956 23.4159 2.7536 21.3278 2.779 19.0822C2.8044 17.0094 3.16512 14.9569 3.84589 13.001C5.10584 9.36336 7.65114 6.18809 10.8671 4.08479C11.3345 3.77996 11.812 3.49546 12.3048 3.23127C12.5385 3.10934 12.7722 2.98741 13.0059 2.87564C13.0923 2.835 13.6461 2.65718 13.6918 2.56573C13.5648 2.82992 13.1075 1.68174 13.0212 2.12882C13.0059 2.22026 13.0771 2.393 13.1075 2.48953C13.1787 2.72831 13.2904 2.95693 13.3666 3.19571C13.5089 3.63263 13.5851 4.08987 13.6969 4.53695C14.0982 6.12204 16.547 5.45142 16.1456 3.86125H16.1507Z" fill="#5B5B5B"/>
<path d="M36.5893 9.24641C37.26 8.91618 38.0677 8.36749 38.7587 8.19984H38.083L38.0576 8.18459L37.6003 7.72735C37.5495 7.47841 37.5394 7.48349 37.5597 7.73752C37.5597 7.86453 37.5699 7.99662 37.5699 8.12363C37.5699 8.38273 37.5699 8.64183 37.5699 8.90094C37.5597 9.3531 37.5394 9.80526 37.4987 10.2523C37.4276 11.1058 37.3006 11.9492 37.1177 12.7875C36.7316 14.5758 36.1423 16.3235 35.3294 17.9644C33.6986 21.2667 31.2904 24.1727 28.2676 26.2862C27.7036 26.6774 27.4445 27.3988 27.8103 28.0237C28.1355 28.5775 28.9839 28.8721 29.5478 28.481C35.8425 24.0915 39.8815 16.7909 40.0999 9.09399C40.1304 7.98138 40.3082 6.35564 39.0584 5.83743C38.3726 5.55293 37.7477 5.83743 37.1329 6.14734L35.2989 7.05674C33.8357 7.78324 35.1211 9.97291 36.5792 9.25149L36.5893 9.24641Z" fill="#5B5B5B"/>
<path d="M18.884 7.57006C19.5089 7.26015 20.3167 6.73179 20.9162 6.58954H20.2405L20.1998 6.56922L19.7426 6.11198C19.6867 5.83763 19.6715 5.83255 19.6969 6.09673C19.6969 6.22375 19.7019 6.35584 19.707 6.48285C19.707 6.6759 19.707 6.86896 19.707 7.06202C19.7019 7.51418 19.6816 7.96126 19.6461 8.41341C19.58 9.26185 19.4479 10.1052 19.265 10.9384C18.9043 12.5946 18.3556 14.2102 17.6037 15.7292C16.0644 18.8436 13.7985 21.587 10.9433 23.5785C10.3793 23.9697 10.1202 24.6911 10.486 25.316C10.8112 25.8698 11.6596 26.1645 12.2235 25.7733C18.2286 21.5819 22.0745 14.6065 22.2422 7.26016C22.2676 6.23391 22.3946 4.89267 21.3633 4.29318C20.7079 3.91214 20.022 4.18649 19.4124 4.48623C18.8027 4.78598 18.2032 5.08573 17.5986 5.38547C16.1355 6.11198 17.4208 8.30165 18.8789 7.58022L18.884 7.57006Z" fill="#5B5B5B"/>
<path d="M12.884 8.51488C9.40898 11.5276 6.37595 15.6377 6.33531 20.4184C6.32007 22.0543 8.86029 22.0543 8.87553 20.4184C8.91109 16.3134 11.7257 12.8739 14.6825 10.3083C15.2007 9.8612 15.1448 8.97212 14.6825 8.5098C14.1693 7.99668 13.4073 8.05764 12.884 8.5098V8.51488Z" fill="#FF7FE0"/>
<path d="M31.199 10.3135C27.724 13.3262 24.6909 17.4362 24.6503 22.2169C24.6351 23.8528 27.1753 23.8528 27.1905 22.2169C27.2261 18.1119 30.0406 14.6725 32.9975 12.1069C33.5157 11.6598 33.4598 10.7707 32.9975 10.3084C32.4843 9.79526 31.7223 9.85623 31.199 10.3084V10.3135Z" fill="#FF7FE0"/>
<path d="M9.18544 33.526C9.28705 33.4447 9.26164 33.465 9.10415 33.587C9.14479 33.5565 9.18544 33.526 9.221 33.5006C9.28196 33.46 9.34293 33.4142 9.4039 33.3736C9.55631 33.272 9.71888 33.1805 9.88654 33.0992C9.91702 33.084 9.95258 33.0688 9.98815 33.0535C10.1101 32.9976 10.0796 33.0129 9.88654 33.0942C9.96274 33.0891 10.0542 33.0332 10.1304 33.0078C10.3031 32.9519 10.4809 32.9163 10.6638 32.8859L10.3285 32.9316C10.5775 32.9011 10.8264 32.896 11.0754 32.9265L10.7401 32.8808C10.8925 32.9011 11.0449 32.9316 11.1922 32.9773C11.2532 32.9976 11.3141 33.023 11.3802 33.0434C11.0195 32.9316 11.243 32.9824 11.3446 33.0434C11.4107 33.0789 11.4767 33.1196 11.5428 33.1602C11.7307 33.272 11.3243 32.957 11.492 33.1196C11.5377 33.1653 11.5885 33.2059 11.6342 33.2517C11.6647 33.2821 11.6952 33.3126 11.7206 33.3482C11.5936 33.1754 11.5631 33.1399 11.6393 33.2466C11.8374 33.5209 12.061 33.7394 12.3963 33.8308C12.7011 33.9121 13.1075 33.8765 13.3768 33.7038C13.9102 33.3583 14.2456 32.5455 13.834 31.9663C13.4784 31.4684 13.0415 31.0366 12.4826 30.7775C11.9238 30.5184 11.3395 30.366 10.7197 30.366C9.46486 30.371 8.35732 30.9553 7.4022 31.7275C7.16342 31.9206 7.03133 32.3321 7.03133 32.6268C7.03133 32.9367 7.1685 33.3126 7.4022 33.526C7.6359 33.7394 7.96105 33.9121 8.30144 33.8969C8.65707 33.8816 8.92125 33.7495 9.20068 33.526H9.18544Z" fill="#5B5B5B"/>
<path d="M20.2354 33.4955C20.2811 33.4447 20.3268 33.399 20.3776 33.3532C20.4742 33.2669 20.6012 33.2364 20.3319 33.3837C20.4488 33.3177 20.5605 33.2415 20.6825 33.1805C20.8857 33.0789 20.398 33.272 20.6266 33.2059C20.6926 33.1856 20.7536 33.1602 20.8196 33.1449C20.9517 33.1094 21.0838 33.084 21.221 33.0637L20.8857 33.1094C21.1346 33.0789 21.3836 33.084 21.6376 33.1094L21.3023 33.0637C21.4953 33.0941 21.6884 33.1348 21.8764 33.1958C21.9221 33.211 21.9678 33.2262 22.0135 33.2466C22.1406 33.2974 22.105 33.2821 21.917 33.2008C21.9932 33.2567 22.0999 33.2872 22.1812 33.3329C22.359 33.4295 22.5216 33.5361 22.6842 33.6479C22.7909 33.7292 22.7655 33.7089 22.6029 33.5869C22.6435 33.6174 22.6791 33.6479 22.7197 33.6835C22.7959 33.7495 22.8671 33.8156 22.9382 33.8816C23.4208 34.3389 24.2642 34.3947 24.7367 33.8816C25.2091 33.3685 25.2498 32.5709 24.7367 32.0831C23.8425 31.2347 22.7705 30.6809 21.5411 30.559C20.4285 30.4472 19.2142 30.8842 18.4471 31.7021C17.9898 32.1847 17.9289 33.023 18.4471 33.5006C18.9653 33.9781 19.7578 34.0188 20.2456 33.5006L20.2354 33.4955Z" fill="#5B5B5B"/>
<path d="M17.7663 36.813C15.9577 35.106 12.9551 35.1619 11.4666 37.2499C10.105 39.1551 10.7756 41.8274 12.8383 42.8994C14.9009 43.9714 17.4412 43.8189 19.4327 42.9603C21.5309 42.056 23.1516 39.6073 22.2879 37.2957C21.7138 35.7664 20.21 34.918 18.6097 35.4261C17.2989 35.8426 16.4606 36.9603 15.7646 38.0831C15.4039 38.6674 15.6376 39.4802 16.2218 39.8206C16.8061 40.161 17.5986 39.9476 17.9594 39.3634C18.0508 39.2161 18.1423 39.0636 18.2439 38.9163C18.3048 38.8249 18.3658 38.7334 18.4318 38.642C18.5588 38.4642 18.3353 38.7537 18.4725 38.581C18.7265 38.266 18.8992 38.0933 19.1228 37.9612C19.1025 37.9714 19.4632 37.8037 19.3158 37.8545C19.1939 37.9002 19.4428 37.824 19.4682 37.8189C19.6715 37.7681 19.3057 37.8189 19.514 37.8189C19.5445 37.8189 19.8086 37.8291 19.6613 37.8189C19.5038 37.8088 19.834 37.8951 19.7019 37.8291C19.5699 37.7631 19.834 37.9459 19.7528 37.8596C19.6715 37.7732 19.8747 38.0476 19.7934 37.9256C19.8137 37.9561 19.9458 38.2457 19.9001 38.1238C19.8544 37.9968 19.9865 38.5454 19.9661 38.3829C19.9458 38.2203 19.9661 38.4794 19.9661 38.515C19.9661 38.5962 19.9661 38.6775 19.9661 38.7588C19.956 38.9773 20.0474 38.4845 19.956 38.8452C19.9356 38.9265 19.9204 39.0027 19.895 39.084C19.8696 39.1653 19.8442 39.2415 19.8188 39.3177C19.8747 39.15 19.8036 39.3482 19.7731 39.4142C19.6969 39.5615 19.6105 39.7038 19.514 39.841C19.387 40.0188 19.707 39.6581 19.4428 39.9273C19.3819 39.9883 19.3311 40.0493 19.2701 40.1051C19.0567 40.3134 18.7722 40.4862 18.4064 40.664C18.254 40.7351 18.3099 40.7097 18.066 40.791C17.8882 40.8469 17.7104 40.8977 17.5275 40.9383C17.4361 40.9587 17.3446 40.9739 17.2532 40.9942C17.2379 40.9942 17.0093 41.0349 17.1719 41.0145C16.9382 41.0501 16.7045 41.0603 16.4708 41.0704C16.1304 41.0857 15.79 41.0806 15.4496 41.0552C15.3683 41.0501 15.287 41.0399 15.2058 41.0298C15.4293 41.0552 15.2261 41.0298 15.1804 41.0247C14.9822 40.9841 14.7841 40.9485 14.591 40.8926C14.5148 40.8723 14.1338 40.7351 14.337 40.8215C14.1948 40.7605 14.0576 40.6894 13.9255 40.6081C13.8594 40.5675 13.7934 40.5268 13.7324 40.4811C13.9102 40.6081 13.7528 40.4963 13.7223 40.4658C13.6715 40.415 13.6156 40.3541 13.5597 40.3033C13.3717 40.1255 13.5953 40.41 13.4784 40.1966C13.4378 40.1305 13.3971 40.0645 13.3616 39.9934C13.4581 40.1813 13.3717 40.034 13.3616 39.9781C13.3412 39.9019 13.2854 39.4955 13.3006 39.7546C13.3006 39.6784 13.2904 39.6022 13.2955 39.526C13.2955 39.526 13.3311 39.1653 13.3006 39.3482C13.2752 39.5056 13.3209 39.2669 13.3311 39.2313C13.3565 39.1399 13.3819 39.0433 13.4174 38.9519C13.3463 39.1551 13.4022 38.9824 13.4276 38.9366C13.4835 38.835 13.5394 38.7385 13.6054 38.6369C13.58 38.6826 13.4479 38.7995 13.6207 38.6216C13.7019 38.5353 13.7782 38.454 13.8696 38.3778C13.6664 38.5556 14.1693 38.2152 14.0677 38.2609C13.9407 38.3219 14.1693 38.2254 14.1998 38.2152C14.2964 38.1847 14.398 38.1593 14.4945 38.139C14.2659 38.1898 14.5148 38.139 14.5809 38.1339C14.6825 38.1288 14.7841 38.1339 14.8857 38.1339C15.1245 38.1339 14.9822 38.139 14.9162 38.1339C15.0381 38.1542 15.16 38.1847 15.2769 38.2152C15.5563 38.2965 15.7748 38.4235 15.9831 38.6216C16.4809 39.0941 17.2837 39.1145 17.7815 38.6216C18.2794 38.1288 18.2845 37.2957 17.7815 36.8232L17.7663 36.813Z" fill="#FF7FE0"/>
<path d="M18.5436 37.1279C17.7155 37.4378 17.0144 37.9611 16.5622 38.7333C16.044 39.6122 15.8002 40.8925 16.7146 41.5987C17.8171 42.4522 18.9145 41.2837 19.6562 40.5318C20.2913 39.8866 20.8654 39.1906 21.4039 38.4641C21.6681 38.1135 21.6122 37.5394 21.4039 37.1838C21.1651 36.7723 20.7638 36.5944 20.3065 36.5538C18.9704 36.442 17.6139 36.8586 16.5419 37.6512C15.4699 38.4437 14.3014 39.5614 14.4386 41.0195C14.4843 41.5377 14.718 41.9696 15.221 42.1779C15.6833 42.3709 16.2472 42.2795 16.608 41.9137C17.2379 41.2786 17.7053 40.5013 17.9594 39.6427C18.2743 38.5809 18.3455 37.0923 17.0093 36.7316C15.033 36.1982 13.2142 37.895 12.5436 39.5868C12.3607 40.0491 12.6351 40.6436 13.0008 40.923C13.3666 41.2024 13.9966 41.3091 14.4132 41.0246C15.3175 40.3997 15.9678 39.3836 15.917 38.2456C15.8713 37.3057 15.0533 36.5436 14.0881 36.8028C13.4784 36.9653 13.0059 37.514 12.6452 38.0068C12.0305 38.8552 11.619 40.1355 12.1321 41.1262C12.4268 41.6952 13.0059 42.0458 13.6461 42.0254C14.3421 42 14.906 41.5072 15.1905 40.8925C15.475 40.2778 15.3836 39.4954 14.7333 39.155C14.1744 38.8603 13.2904 38.967 12.9958 39.6122C12.9551 39.7088 12.7417 39.9729 12.9602 39.7342C13.4073 39.3938 13.7832 39.3887 14.0931 39.724C14.271 39.785 14.3827 39.9018 14.4285 40.0695C14.4437 40.2625 14.4488 40.2879 14.4386 40.1457C14.4437 40.0339 14.4386 40.0288 14.4335 40.1304C14.4081 40.3286 14.4996 39.9171 14.5097 39.8764C14.5707 39.6072 14.4285 39.9882 14.5504 39.7646C14.6215 39.6326 14.6926 39.5055 14.779 39.3785C14.6571 39.5563 14.8095 39.348 14.8603 39.2922C14.9111 39.2363 14.967 39.1855 15.0178 39.1347C15.1905 38.9924 15.1245 39.028 14.8095 39.2414H14.1338L14.2049 39.2668L13.6461 38.9416C13.4632 38.2812 13.3768 38.1135 13.3768 38.4387C13.4022 38.2761 13.4022 38.2659 13.3768 38.4132C13.3616 38.4793 13.3412 38.5504 13.3158 38.6165C13.3717 38.4945 13.3768 38.4742 13.3362 38.5555C13.3006 38.6114 13.0821 38.8959 13.2701 38.6927C13.2244 38.7435 12.8992 39.0026 13.1329 38.84L14.9975 40.2727C14.8857 40.5521 15.0381 40.2066 15.0686 40.1508C15.1296 40.0441 15.2007 39.9425 15.2667 39.8409C15.1194 40.0695 15.2972 39.8155 15.3328 39.7748C15.4039 39.6986 15.4852 39.6275 15.5563 39.5563C15.6681 39.4649 15.663 39.4649 15.5461 39.5563C15.602 39.5157 15.6579 39.4751 15.7189 39.4395C15.8053 39.3836 15.9018 39.3328 15.9932 39.282C16.2523 39.1398 15.7798 39.3226 16.1152 39.2363C16.1964 39.2109 16.2777 39.1906 16.359 39.1753C16.2472 39.1906 16.2371 39.1956 16.3336 39.1906C16.4251 39.1906 16.4149 39.1906 16.3031 39.1804C15.851 38.2202 15.6274 37.9713 15.6325 38.4387L15.6224 38.5504C15.6478 38.398 15.6478 38.398 15.6224 38.5453C15.5715 38.7841 15.5004 39.0127 15.4293 39.2464C15.3988 39.3328 15.4039 39.3176 15.4496 39.2007C15.4191 39.2668 15.3836 39.3379 15.3531 39.4039C15.3023 39.5055 15.2464 39.6021 15.1854 39.6935C15.1448 39.7545 14.9873 39.9729 15.1245 39.8002C15.033 39.9171 14.9314 40.0237 14.8247 40.1304L16.9941 41.0297C16.989 40.9484 17.0195 40.669 16.9636 40.923C16.9738 40.8671 17.0957 40.5877 16.9788 40.8061C17.0195 40.7248 17.0855 40.6436 17.1211 40.5572C17.1719 40.4454 17.0246 40.6486 17.1668 40.4911C17.3243 40.3184 17.492 40.1508 17.6698 39.9983C17.6901 39.978 17.9289 39.7799 17.8273 39.8663C17.7511 39.9272 18.0051 39.7392 18.0457 39.7138C18.2337 39.5868 18.4268 39.4801 18.6249 39.3735C18.8535 39.2464 18.4928 39.3989 18.7722 39.3023C18.8738 39.2668 18.9754 39.2312 19.0771 39.2007C19.1787 39.1702 19.2854 39.1499 19.387 39.1245C19.7528 39.0381 19.1787 39.1245 19.5597 39.0991C19.8188 39.0788 20.0728 39.0839 20.3319 39.1042L19.2345 37.1939C19.1837 37.2651 19.1329 37.3311 19.0771 37.4022C19.1431 37.3159 19.1329 37.3311 19.0364 37.448C18.9551 37.5496 18.8738 37.6461 18.7925 37.7477C18.5995 37.9763 18.4014 38.2049 18.1931 38.4234C17.9848 38.6419 17.7765 38.8552 17.558 39.0635C17.4666 39.155 17.37 39.2414 17.2735 39.3277C17.2125 39.3836 17.1465 39.4446 17.0804 39.5005C16.8975 39.6529 16.9585 39.6224 17.2583 39.409H17.934L17.8374 39.3887L18.3963 39.7138C18.6046 39.9272 18.6859 40.1558 18.63 40.4048C18.6097 40.5115 18.6147 40.5064 18.6351 40.3794C18.6554 40.2981 18.6859 40.2168 18.7062 40.1355C18.7367 39.9983 18.5995 40.3133 18.7214 40.1152C18.7722 40.0288 18.823 39.9425 18.8789 39.8561C18.7875 39.9983 18.818 39.9323 18.9094 39.8409C18.9704 39.7799 19.0313 39.724 19.0923 39.6681C18.8942 39.8561 19.1075 39.6681 19.1685 39.6326C19.2295 39.597 19.5089 39.4903 19.2345 39.5919C19.8544 39.3582 20.3472 38.7232 20.1236 38.0271C19.9255 37.4226 19.2295 36.8891 18.5588 37.1381L18.5436 37.1279Z" fill="#FF7FE0"/>
<path d="M16.801 37.4481C16.6943 37.2093 16.3387 37.1636 16.1152 37.2347C15.8916 37.3058 15.6986 37.4735 15.6122 37.697C15.4191 38.1898 15.7748 38.708 16.2422 38.8604C16.7553 39.0281 17.2786 38.7893 17.6698 38.4642C17.8679 38.2965 18.0457 38.0984 18.1372 37.8494C18.2337 37.5903 18.1981 37.2753 18.0051 37.067C17.5072 36.5183 16.8467 37.1686 16.5419 37.5903C16.4606 37.7021 16.5216 37.8748 16.6334 37.9358C16.7604 38.012 16.8975 37.9561 16.9788 37.8443C17.0754 37.7122 17.1922 37.5954 17.3192 37.4938C17.3751 37.4481 17.431 37.4125 17.492 37.3769C17.5326 37.3566 17.558 37.3617 17.5834 37.3769C17.619 37.3973 17.6494 37.4277 17.6647 37.4633C17.6901 37.5243 17.685 37.5903 17.6647 37.6564C17.6291 37.7986 17.5275 37.9104 17.4208 38.0069C17.2075 38.2101 16.928 38.4032 16.6283 38.4134C16.4911 38.4134 16.3489 38.3879 16.232 38.3016C16.1456 38.2406 16.0847 38.1339 16.0644 38.012C16.0644 38.0374 16.0644 38.0171 16.0644 38.012C16.0644 37.9866 16.0644 37.9663 16.0644 37.9409C16.0644 37.951 16.0542 37.9764 16.0644 37.9256C16.0644 37.9053 16.0745 37.8901 16.0796 37.8697C16.0694 37.8901 16.1101 37.824 16.0999 37.8342C16.1152 37.8139 16.1609 37.7732 16.1609 37.7732C16.1507 37.7834 16.2472 37.7326 16.2117 37.7427C16.2269 37.7377 16.3082 37.7173 16.2676 37.7224C16.2879 37.7224 16.3641 37.7275 16.3285 37.7224C16.3946 37.7377 16.3641 37.7478 16.3489 37.7173C16.4047 37.8443 16.5876 37.8697 16.6943 37.8088C16.8213 37.7326 16.8417 37.5852 16.7858 37.4633L16.801 37.4481Z" fill="white"/>
<path d="M17.2227 37.4329L16.7858 37.8648C16.6029 38.0476 16.7858 38.3525 17.0347 38.2915C17.3192 38.2204 17.5682 38.0273 17.7155 37.7733C17.7663 37.6819 17.7561 37.5701 17.6952 37.4888C17.6393 37.4126 17.5224 37.3618 17.4259 37.3974C17.1211 37.5091 16.8467 37.6869 16.6232 37.9257C16.4962 38.0629 16.5419 38.3017 16.735 38.3525C17.1008 38.4388 17.3954 38.0731 17.5529 37.7936C17.5936 37.7225 17.624 37.6514 17.6545 37.5752C17.7155 37.4228 17.6342 37.25 17.4716 37.2043C17.2989 37.1586 17.1516 37.2551 17.0195 37.3567C16.7807 37.5396 16.5724 37.753 16.4149 38.007C16.3438 38.1188 16.2574 38.261 16.232 38.3931C16.2066 38.5252 16.2574 38.6624 16.3793 38.7284C16.5013 38.7945 16.6232 38.7589 16.735 38.6929C17.0195 38.5303 17.2633 38.2763 17.4107 37.9816C17.4666 37.8698 17.4462 37.7631 17.37 37.6717C17.1871 37.4583 16.8874 37.5752 16.6892 37.6869C16.5114 37.7885 16.3489 37.9257 16.2117 38.0832L16.613 38.3931C16.6842 38.2763 16.7451 38.1493 16.7401 38.007C16.7401 37.8444 16.6384 37.6819 16.486 37.6209C16.3336 37.5599 16.1507 37.5955 16.039 37.7225C15.9272 37.8495 15.9069 38.0019 15.9221 38.1645C15.9323 38.2559 15.9627 38.3372 16.0491 38.383C16.1355 38.4287 16.2218 38.4236 16.3031 38.383C16.3997 38.3322 16.486 38.2661 16.5622 38.1848C16.6537 38.0883 16.6638 37.9206 16.5622 37.8241C16.4606 37.7276 16.2981 37.7225 16.2015 37.8241C16.1863 37.8393 16.171 37.8546 16.1558 37.8698C16.1558 37.8698 16.105 37.9105 16.1304 37.8902C16.1558 37.8698 16.0999 37.9054 16.0999 37.9054C16.0796 37.9156 16.0644 37.9257 16.044 37.9359L16.4251 38.1543C16.4251 38.1239 16.4251 38.0934 16.42 38.0629C16.42 38.0375 16.42 38.0375 16.42 38.0629C16.42 38.0527 16.42 38.0273 16.4301 38.0172C16.42 38.0273 16.4149 38.0527 16.4047 38.0629C16.4251 38.0375 16.4098 38.0578 16.3946 38.0629C16.3539 38.0883 16.293 38.0832 16.2574 38.0527C16.2523 38.0477 16.2218 38.007 16.232 38.0273C16.2472 38.0578 16.2218 37.9816 16.232 38.0172C16.2422 38.0527 16.232 37.9664 16.232 38.0019C16.232 38.0324 16.2472 37.9613 16.232 37.9968C16.232 38.0121 16.2218 38.0222 16.2218 38.0375C16.2422 38.007 16.2117 38.068 16.2218 38.0375C16.2015 38.068 16.1914 38.0934 16.171 38.1239C16.105 38.2305 16.1406 38.3779 16.2371 38.4541C16.3336 38.5303 16.4911 38.5303 16.5724 38.4338C16.6232 38.3779 16.674 38.322 16.7299 38.2712C16.7451 38.261 16.7553 38.2458 16.7705 38.2356C16.7705 38.2356 16.8213 38.195 16.7959 38.2153C16.7705 38.2356 16.8163 38.2001 16.8213 38.195C16.8366 38.1848 16.8569 38.1696 16.8721 38.1594C16.9331 38.1188 16.9941 38.0883 17.0601 38.0527C17.1211 38.0222 17.0144 38.0629 17.0703 38.0527C17.0804 38.0527 17.1312 38.0426 17.0906 38.0476C17.0703 38.0476 17.0703 38.0476 17.0855 38.0476C17.1058 38.0476 17.0957 38.0476 17.0601 38.0426C17.0449 38.0426 16.9839 37.9867 17.0144 38.0222L16.9738 37.7123C16.9382 37.7784 16.9026 37.8444 16.8569 37.9054C16.8569 37.9105 16.8112 37.9664 16.8467 37.9206C16.8366 37.9359 16.8264 37.946 16.8163 37.9613C16.7909 37.9918 16.7655 38.0172 16.7401 38.0426C16.7147 38.068 16.6892 38.0883 16.6638 38.1137C16.6486 38.1289 16.6334 38.1391 16.6181 38.1543C16.6537 38.1239 16.6181 38.1543 16.6029 38.1645C16.5775 38.1848 16.547 38.2051 16.5165 38.2204C16.5013 38.2305 16.4809 38.2407 16.4657 38.2509C16.42 38.2763 16.4962 38.2407 16.5114 38.2407L16.6384 38.2763L16.6638 38.2966L16.7299 38.4084C16.7299 38.4084 16.7147 38.5303 16.7299 38.4795C16.7248 38.4998 16.7147 38.515 16.7299 38.4846C16.7401 38.4592 16.7553 38.4338 16.7655 38.4084C16.7909 38.3576 16.8163 38.3118 16.8467 38.2661C16.8772 38.2204 16.9077 38.1747 16.9382 38.1289C16.9484 38.1188 16.9534 38.1086 16.9636 38.0934C16.9483 38.1086 16.9433 38.1137 16.9636 38.0934C16.9839 38.068 17.0042 38.0476 17.0246 38.0222C17.0957 37.941 17.177 37.8648 17.2633 37.7936C17.2735 37.7835 17.2837 37.7784 17.2938 37.7682C17.3243 37.7428 17.2633 37.7936 17.2938 37.7682C17.3141 37.753 17.3395 37.7377 17.3599 37.7174C17.3802 37.6971 17.4056 37.6869 17.431 37.6717C17.4412 37.6615 17.4666 37.6565 17.4361 37.6666C17.3853 37.6768 17.3497 37.692 17.2938 37.6565L17.2024 37.565L17.2125 37.5752L17.1871 37.377C17.1871 37.377 17.1617 37.438 17.177 37.4075C17.1922 37.377 17.1617 37.438 17.1617 37.438C17.1465 37.4685 17.1312 37.499 17.116 37.5244C17.1008 37.5498 17.0855 37.5802 17.0652 37.6056C17.055 37.6209 17.0449 37.6361 17.0347 37.6514C17.0296 37.6615 16.9941 37.6971 17.0296 37.6615C16.989 37.7123 16.9433 37.7631 16.8975 37.8038C16.8975 37.8038 16.8467 37.8444 16.8721 37.8241C16.8975 37.8038 16.8417 37.8394 16.8417 37.8394C16.8671 37.8394 16.862 37.8241 16.8417 37.8394C16.9179 37.8394 16.801 37.819 16.8772 37.8394L16.989 38.2661C17.0347 38.2204 17.0804 38.1747 17.1262 38.1289C17.1414 38.1188 17.1516 38.1035 17.1668 38.0934C17.177 38.0883 17.2176 38.0578 17.177 38.0883C17.2024 38.068 17.2278 38.0476 17.2583 38.0324C17.3141 37.9968 17.3649 37.9613 17.4259 37.9359C17.4564 37.9206 17.4818 37.9054 17.5123 37.8952C17.5326 37.8851 17.5326 37.8851 17.5123 37.8952C17.5326 37.8851 17.5529 37.88 17.5732 37.8698L17.2887 37.499C17.2887 37.499 17.2633 37.5447 17.2481 37.565C17.2329 37.5853 17.2329 37.5853 17.2481 37.565C17.2379 37.5752 17.2329 37.5853 17.2227 37.5955C17.2075 37.6158 17.1871 37.6361 17.1668 37.6514C17.1566 37.6615 17.0906 37.7123 17.1414 37.6768C17.1008 37.7073 17.055 37.7327 17.0093 37.7581C16.9839 37.7682 16.9839 37.7682 17.0144 37.7581C17.0042 37.7581 16.989 37.7682 16.9788 37.7733C16.9534 37.7835 16.928 37.7885 16.9026 37.7936L17.1516 38.2204L17.5885 37.7885C17.685 37.6971 17.6901 37.5193 17.5885 37.4278C17.4869 37.3364 17.3294 37.3262 17.2278 37.4278L17.2227 37.4329Z" fill="white"/>
</g>
<defs>
<clipPath id="clip0_216_611">
<rect width="40.1355" height="48" fill="white"/>
</clipPath>
</defs>
</svg>
