<svg width="41" height="48" viewBox="0 0 41 48" fill="none" xmlns="http://www.w3.org/2000/svg">
<g clip-path="url(#clip0_216_509)">
<path d="M11.9628 3.11941C10.3421 3.29723 9.23457 4.3184 8.45218 5.70028C7.62915 7.15328 7.0449 8.79935 6.49621 10.3743C5.32263 13.7629 4.60121 17.2888 4.28622 20.8603L4.65709 19.9611L4.73838 19.895L5.37851 19.7223C5.70874 19.8798 5.77987 19.895 5.59189 19.768L6.04913 20.2253L6.13042 20.5606L5.95768 21.2007L5.89672 21.2871L5.33787 21.6122L4.38275 21.0229C4.48944 21.7037 5.33787 22.0745 5.94752 21.912C6.66895 21.7138 6.93821 21.028 6.8366 20.3472C6.64354 19.1177 4.97208 18.7062 4.1084 19.4937C3.1482 20.3675 3.65116 21.8612 4.82475 22.2066C5.40392 22.3794 6.05421 22.2066 6.46065 21.7595C6.91789 21.2667 6.85692 20.5606 6.92297 19.9306C7.0449 18.8027 7.22271 17.685 7.44625 16.5724C7.90349 14.2811 8.55379 12.0254 9.39206 9.84592C9.76293 8.88063 10.1389 7.88995 10.652 6.99071C10.9264 6.50807 11.3785 5.73076 11.9729 5.66471C12.6537 5.58851 13.243 5.13635 13.243 4.3946C13.243 3.76463 12.6588 3.04829 11.9729 3.12449L11.9628 3.11941Z" fill="white"/>
<path d="M13.0449 4.41503H13.1211C13.5428 4.44551 14.0254 4.16609 14.2185 3.79014C14.4115 3.41419 14.5131 3.02807 14.3557 2.63688C14.127 2.06787 13.746 1.75796 13.1313 1.70208C12.2676 1.63095 11.4446 2.45398 10.8146 2.95187C10.1846 3.44975 9.5902 3.98319 9.03135 4.55728C7.9289 5.69022 6.95345 6.96541 6.14058 8.32189C4.48436 11.0856 3.48859 14.2152 3.20917 17.421C3.05167 19.255 3.17868 21.0992 3.52924 22.9078C3.66133 23.5835 4.46404 23.9646 5.09401 23.7969C5.79511 23.6039 6.11518 22.9078 5.98309 22.2321C5.31247 18.8181 5.76971 15.216 7.10587 12.0154C7.76124 10.4455 8.65032 8.92138 9.72737 7.60047C10.8044 6.27955 12.1152 4.82655 13.6241 4.06448L12.9839 4.23722L13.1313 4.24738L11.9069 3.31258L11.9424 3.39894L12.0695 2.41842L12.0237 2.50479L13.1211 1.87481H13.0449C11.4141 1.7732 11.4192 4.31342 13.0449 4.40995V4.41503Z" fill="white"/>
<path d="M12.4911 3.37366C7.74092 9.3381 4.50976 16.4304 3.27013 23.9647C3.15836 24.6404 3.44795 25.3313 4.15921 25.5295C4.76886 25.6971 5.60713 25.3212 5.72398 24.6404C6.8874 17.5583 9.81374 10.7911 14.2896 5.16706C14.7164 4.62853 14.8129 3.89187 14.2896 3.36858C13.8476 2.92659 12.923 2.83006 12.4911 3.36858V3.37366Z" fill="white"/>
<path d="M9.0974 5.77655C7.39545 4.15081 5.40392 6.86884 4.7587 8.26596C3.90011 10.1152 3.37174 12.1525 2.95515 14.144C2.07623 18.3456 1.94922 22.7351 3.20917 26.8756C3.68165 28.4353 6.1355 27.7698 5.65794 26.1999C4.66217 22.923 4.60121 19.448 5.16514 16.0848C5.44964 14.393 5.87132 12.7266 6.38952 11.0907C6.59274 10.4455 6.80612 9.80534 7.11603 9.20076C7.26844 8.9061 7.43609 8.61143 7.64439 8.35233C7.76124 8.21008 7.92382 8.09323 8.03051 7.9459C8.24388 7.65123 8.41154 7.96622 7.76632 7.8138L7.20747 7.48866L7.29892 7.57502C8.48266 8.70288 10.2811 6.90949 9.0974 5.77655Z" fill="white"/>
<path d="M17.0483 6.24899C11.7037 8.52502 7.746 12.9552 3.70197 16.9636C2.53855 18.1169 4.33702 19.9154 5.50044 18.7621C9.40222 14.8908 13.1719 10.6436 18.3336 8.44374C18.9636 8.17447 19.1059 7.24475 18.7909 6.70623C18.4098 6.05085 17.6884 5.97972 17.0534 6.24899H17.0483Z" fill="white"/>
<path d="M13.0754 4.80628C11.0788 10.2119 9.08724 15.6175 7.09062 21.023C6.85184 21.6683 7.35481 22.4151 7.9797 22.5878C8.69096 22.7809 9.3057 22.349 9.54448 21.6987C11.5411 16.2932 13.5326 10.8876 15.5292 5.48198C15.768 4.83677 15.2651 4.08994 14.6402 3.91721C13.9289 3.72415 13.3142 4.15599 13.0754 4.80628Z" fill="white"/>
<path d="M9.94583 9.88162C8.59443 12.7876 7.42593 15.7851 6.48605 18.8537C6.03389 20.3372 5.63254 21.8308 5.28707 23.3448C4.91111 24.9908 4.65201 26.6217 4.98224 28.2982C5.11433 28.9739 5.91704 29.3549 6.54701 29.1873C7.24812 28.9942 7.56818 28.2982 7.43609 27.6225C7.16683 26.266 7.5377 24.8689 7.84761 23.5582C8.188 22.1306 8.57411 20.708 9.00595 19.3058C9.86454 16.5268 10.9111 13.8088 12.1355 11.167C12.4251 10.5472 12.3082 9.80033 11.6783 9.42946C11.1296 9.10939 10.2303 9.26181 9.94075 9.8867L9.94583 9.88162Z" fill="white"/>
<path d="M20.1474 7.05183C19.6698 6.14751 18.5216 6.14243 17.7951 6.7216C17.155 7.22964 16.586 7.85962 16.0322 8.45403C14.9348 9.63777 13.9187 10.9028 12.9941 12.2288C11.1448 14.8808 9.70705 17.802 8.68588 20.8655C8.16767 22.4202 10.6164 23.0857 11.1347 21.5412C11.9678 19.0467 13.116 16.6793 14.5436 14.4693C15.2295 13.4125 15.9712 12.3965 16.7841 11.4312C17.2109 10.9231 17.6579 10.4252 18.1203 9.9426C18.3641 9.68858 18.608 9.43963 18.8569 9.19577C18.9534 9.09925 19.0703 9.0078 19.1617 8.90111C19.4361 8.58104 19.0398 8.82998 19.2532 8.7995H18.5775L18.6689 8.82998L17.912 8.24573L17.9577 8.3321C18.7248 9.77494 20.9145 8.49467 20.1524 7.05183H20.1474Z" fill="white"/>
<path d="M17.6173 7.83923C18.0085 9.7444 17.3938 11.9239 16.7943 13.7325C16.1948 15.5412 15.4022 17.0907 14.3963 18.6047C12.3641 21.6784 9.52923 24.1525 6.22695 25.7681C5.61221 26.0679 5.44456 26.9468 5.76971 27.5056C6.1355 28.1356 6.8874 28.2626 7.50722 27.9629C13.3345 25.1127 17.8053 19.6563 19.5428 13.4176C20.1016 11.4057 20.4877 9.24144 20.061 7.16862C19.9238 6.498 19.1262 6.1068 18.4962 6.27954C17.7951 6.47259 17.47 7.16862 17.6071 7.84431L17.6173 7.83923Z" fill="white"/>
<path d="M15.5089 9.82573C13.1109 11.7106 11.7697 14.6115 10.337 17.2229C8.6554 20.2864 6.97377 23.3448 5.29215 26.4083C4.50468 27.841 6.69943 29.1263 7.4869 27.6886C9.12788 24.7013 10.7689 21.7089 12.4098 18.7216C13.7816 16.222 15.0161 13.4227 17.3074 11.6191C17.8459 11.1924 17.7494 10.2677 17.3074 9.82065C16.7739 9.28721 16.0525 9.3939 15.5089 9.82065V9.82573Z" fill="white"/>
<path d="M16.9314 9.4854C13.1618 14.5201 11.7087 20.9977 7.4615 25.7022H9.25997L9.38698 25.88V26.5557L9.40731 26.4083C9.50891 25.7326 9.23457 25.0417 8.51823 24.8436C7.91874 24.681 7.06014 25.0468 6.95345 25.7326C6.84676 26.4185 6.94329 26.9977 7.45642 27.5006C7.9289 27.963 8.78749 28.0138 9.25489 27.5006C13.6698 22.6082 15.2092 15.9884 19.1211 10.7707C19.5326 10.2221 19.2075 9.3533 18.6639 9.03324C18.0136 8.6522 17.3379 8.93671 16.9264 9.49048L16.9314 9.4854Z" fill="white"/>
<path d="M11.9882 10.9739C9.75786 14.2152 8.1626 17.8935 7.31416 21.7292C7.16683 22.3998 7.51738 23.1009 8.20324 23.294C8.8383 23.4667 9.6156 23.0806 9.76802 22.4049C10.5758 18.7572 12.0695 15.3329 14.188 12.2542C14.5792 11.6903 14.2947 10.8469 13.7308 10.5167C13.1008 10.1509 12.3844 10.4049 11.9932 10.9739H11.9882Z" fill="white"/>
<path d="M30.9077 3.21098C24.1761 6.38117 19.8273 13.4328 20.0051 20.8655C20.061 23.1212 20.503 25.3719 21.3413 27.4701C21.5953 28.1051 22.1897 28.5522 22.906 28.3592C23.5106 28.1915 24.0491 27.4396 23.7951 26.7944C22.1287 22.6233 22.0779 17.7918 23.9729 13.6767C25.6546 10.0289 28.5656 7.11783 32.1982 5.40573C32.818 5.11106 32.9805 4.22198 32.6554 3.66822C32.2845 3.03316 31.5428 2.92139 30.9179 3.21098H30.9077Z" fill="white"/>
<path d="M29.9475 4.74531C27.0009 8.37275 24.481 12.3304 22.5453 16.5878C20.6097 20.8452 19.2329 25.5802 20.503 30.2186C20.9348 31.7936 23.3836 31.123 22.9518 29.5429C21.8341 25.4481 23.1956 21.1755 24.9281 17.4566C26.6605 13.7377 29.033 9.87656 31.7409 6.53871C32.1728 6.00526 32.2591 5.26352 31.7409 4.74023C31.2938 4.29315 30.3794 4.20679 29.9424 4.74023L29.9475 4.74531Z" fill="white"/>
<path d="M30.7045 4.94349L30.6283 4.93332L31.7257 5.5633L31.6952 5.50741L31.8679 6.14755L31.8781 6.07134L31.7054 6.71148L31.6088 6.81817L31.05 7.14332L31.1262 7.11283H30.4505L30.5369 7.13316L29.978 6.80801L30.0695 6.90454L29.7443 6.34569C29.7849 6.07134 29.7849 6.0053 29.7443 6.16279C29.7189 6.2644 29.6833 6.36601 29.6478 6.46254C29.5716 6.69116 29.4954 6.91978 29.4141 7.1484C29.2871 7.52943 29.155 7.91046 29.0229 8.2915C28.7333 9.12977 28.4336 9.96296 28.1338 10.7911C27.514 12.493 26.8688 14.1848 26.1931 15.8614C24.8722 19.1586 23.4395 22.41 21.9153 25.6158C21.6207 26.2356 21.7426 26.9875 22.3726 27.3533C22.9264 27.6785 23.8154 27.521 24.1101 26.8961C26.1931 22.5116 28.1033 18.0409 29.8256 13.4989C30.2523 12.3711 30.6689 11.2382 31.0754 10.1001C31.4818 8.96211 31.9492 7.89014 32.2185 6.76228C32.5131 5.51758 31.4158 4.03917 30.0796 4.81647C29.6275 5.08066 29.3328 5.61918 29.343 6.13739C29.3531 6.95534 29.978 7.37702 30.7197 7.46846C31.4005 7.55483 31.9899 6.82325 31.9899 6.19835C31.9899 5.44137 31.4056 5.01461 30.7197 4.92824L30.7045 4.94349Z" fill="white"/>
<path d="M29.9678 5.79171C25.8832 12.7011 22.7638 20.1744 20.7367 27.9374C20.3252 29.5224 22.7739 30.1931 23.1855 28.613C25.1617 21.0483 28.1795 13.8036 32.1626 7.07198C32.9958 5.65962 30.801 4.38443 29.9678 5.79171Z" fill="white"/>
<path d="M25.1922 8.77413C22.8197 12.7877 21.5699 17.4007 21.6054 22.0646C21.6156 23.7005 24.1558 23.7005 24.1457 22.0646C24.1152 17.8376 25.2329 13.6971 27.3819 10.0544C28.2151 8.64204 26.0203 7.36685 25.1872 8.77413H25.1922Z" fill="white"/>
<path d="M30.9331 7.06194C31.1313 7.80876 31.2938 8.56067 31.4259 9.31766C31.4564 9.49547 31.4869 9.67329 31.5123 9.85618C31.5275 9.94763 31.5377 10.034 31.5529 10.1254C31.5275 9.94255 31.5631 10.2271 31.5682 10.2575C31.619 10.6894 31.6596 11.1161 31.7206 11.548C31.9289 13.0365 32.7164 14.5759 34.2964 14.962C34.9416 15.1195 35.7037 14.7588 35.8612 14.0729C36.0186 13.3871 35.663 12.6809 34.9721 12.5082C34.906 12.4929 34.8451 12.4777 34.779 12.4574C34.9314 12.5234 34.9416 12.5285 34.8146 12.4624C34.7587 12.432 34.7028 12.3913 34.6469 12.3558C34.7739 12.4523 34.7841 12.4523 34.6774 12.3558C34.6317 12.31 34.586 12.2592 34.5402 12.2084C34.6215 12.3202 34.6368 12.3405 34.586 12.2643C34.5301 12.1627 34.464 12.0611 34.4081 11.9595C34.3523 11.8376 34.3523 11.8376 34.4081 11.9595C34.3777 11.8833 34.3523 11.802 34.3319 11.7207C34.2862 11.5632 34.2507 11.4006 34.2202 11.233C34.21 11.1822 34.1592 10.8316 34.1948 11.0755C34.1744 10.9078 34.1592 10.7402 34.1389 10.5776C33.9814 9.16016 33.7426 7.75796 33.3768 6.38116C33.2092 5.74103 32.4623 5.28379 31.812 5.49208C31.1617 5.70038 30.7452 6.36592 30.923 7.05686L30.9331 7.06194Z" fill="white"/>
<path d="M31.7866 5.63443C31.5174 6.96043 31.2735 8.28642 31.0551 9.62258C30.9992 9.96805 30.9992 10.2881 31.1821 10.6031C31.3345 10.8673 31.6393 11.1162 31.9391 11.1874C32.2642 11.2636 32.63 11.2432 32.9196 11.0603C33.1787 10.8927 33.4479 10.6234 33.5038 10.3034C33.7223 8.97228 33.9662 7.64121 34.2354 6.31521C34.3015 5.9799 34.2862 5.63952 34.1084 5.33469C33.956 5.07051 33.6512 4.82156 33.3514 4.75044C32.7214 4.60819 31.9289 4.9435 31.7866 5.63952V5.63443Z" fill="white"/>
<path d="M33.5089 10.9587C34.9213 10.5777 36.3032 10.1052 37.6495 9.54127C37.9695 9.40918 38.2236 9.27201 38.4065 8.95702C38.564 8.68268 38.6351 8.28132 38.5335 7.9765C38.4319 7.67167 38.2439 7.37192 37.9492 7.21951C37.6546 7.0671 37.2786 6.96041 36.9687 7.0925C35.6224 7.65643 34.2405 8.12891 32.8281 8.50994C32.188 8.68268 31.7308 9.42442 31.9391 10.0747C32.1474 10.725 32.8129 11.1467 33.5038 10.9638L33.5089 10.9587Z" fill="white"/>
<path d="M36.2574 7.9917L34.0271 14.6674L32.9145 18.0052C32.7265 18.5641 32.5436 19.1179 32.3556 19.6767C32.3099 19.8088 32.2744 19.9561 32.2236 20.0831C32.1372 20.2914 31.9035 20.4235 32.2286 20.2914C31.5936 20.5505 31.1465 21.1348 31.3396 21.8562C31.5021 22.4557 32.2642 23.0044 32.9043 22.7453C34.1135 22.2474 34.4894 21.2872 34.8806 20.1187L36.1558 16.3033C37.0043 13.758 37.8527 11.2178 38.7062 8.67248C39.2244 7.11787 36.7706 6.45233 36.2574 7.99678V7.9917Z" fill="white"/>
<path d="M36.1304 9.18039C35.4547 12.3557 34.0678 15.2769 32.2236 17.9441C31.3091 19.2701 30.2778 20.5098 29.1804 21.6884C28.6419 22.2676 28.083 22.8315 27.5089 23.3802C27.2092 23.6647 26.9094 23.9492 26.6046 24.2236C26.4522 24.3607 26.2998 24.4979 26.1474 24.6351C26.0712 24.7011 25.9949 24.7723 25.9187 24.8383C25.7155 24.9958 25.7104 25.0161 25.8984 24.8993L26.8789 25.0263L26.8027 24.9653L27.387 25.7223L27.3667 25.6258L27.0415 26.8603L27.0974 26.7994C28.1745 25.58 26.3861 23.7765 25.2989 25.0009C24.2117 26.2253 25.5783 27.9882 27.0263 27.1855C27.8391 26.7384 28.5758 25.8696 29.2413 25.2346C30.7248 23.8171 32.1016 22.293 33.3565 20.6673C35.8256 17.4666 37.7409 13.8137 38.5894 9.84085C38.9297 8.24559 36.481 7.56481 36.1406 9.16515L36.1304 9.18039Z" fill="white"/>
<path d="M33.9763 8.38273C31.2583 14.3014 26.7265 19.199 24.4657 25.3514C24.2269 25.9966 24.7299 26.7434 25.3548 26.9162C26.061 27.1092 26.6808 26.6774 26.9196 26.0271C29.094 20.1033 33.5496 15.3683 36.1711 9.66301C36.4556 9.03811 36.3489 8.29637 35.7138 7.92549C35.1651 7.60543 34.2659 7.75276 33.9763 8.38273Z" fill="white"/>
<path d="M33.2346 13.0569C30.0644 16.4963 27.4225 20.3981 25.4463 24.6352C25.1567 25.255 25.2735 26.0018 25.9035 26.3727C26.4522 26.6928 27.3514 26.5404 27.641 25.9155C29.5258 21.8664 32.0051 18.1322 35.033 14.8503C36.1406 13.6513 34.3472 11.8477 33.2346 13.0518V13.0569Z" fill="white"/>
<path d="M30.9992 21.5565C26.3506 24.1476 23.2769 28.9791 22.7485 34.2475C22.6774 34.9333 23.3836 35.5176 24.0187 35.5176C24.7604 35.5176 25.2176 34.9333 25.2888 34.2475C25.7308 29.8732 28.464 25.8749 32.2845 23.7513C33.7121 22.9536 32.4319 20.7589 31.0043 21.5565H30.9992Z" fill="white"/>
<path d="M15.4175 29.4005L15.387 29.3599L14.3963 28.0746C13.8222 27.4547 13.1414 27.0178 12.354 26.7638C11.1601 26.2608 9.47335 25.9408 8.21848 26.4437C7.15667 26.8705 6.1609 27.221 5.34803 28.105C4.60121 28.9179 3.96107 29.8933 3.69689 30.9704C3.02627 33.7748 4.15921 36.6249 6.61306 38.144C7.60375 38.7536 8.87894 39.1296 10.0474 39.0635C10.7689 39.0229 11.5004 38.8756 12.2066 38.7486C12.7604 38.652 13.3142 38.5657 13.873 38.4844L12.1863 38.713C15.5343 38.2659 18.9128 38.2151 22.2659 38.5707C23.785 38.7282 25.7206 37.7477 26.757 36.7113C27.8595 35.6088 28.6876 33.8002 28.6165 32.2202C28.5453 30.6402 28.0017 28.8722 26.757 27.7291L25.4717 26.7384C24.481 26.1643 23.4141 25.8747 22.2659 25.8696C17.6122 25.3819 12.9535 25.7274 8.36073 26.586L10.0474 26.3574H9.91535C10.9822 26.652 12.0542 26.9416 13.1211 27.2312L13.0246 27.1702C13.9949 29.5631 14.9704 31.9509 15.9408 34.3438L15.956 34.2778L11.5208 38.713L11.5868 38.6876L4.41323 35.7714L4.44371 35.8121C4.84507 36.5538 5.38868 37.1482 6.07962 37.5953C6.69435 38.1541 7.41069 38.5352 8.2388 38.7333C9.75786 39.1499 11.785 38.9619 13.1313 38.0932C14.4776 37.2244 15.6816 35.9188 16.0474 34.2981C16.4132 32.6774 16.4183 30.7316 15.4073 29.4056L15.4175 29.4005Z" fill="white"/>
<path d="M9.94583 28.4912C8.72652 28.7097 7.35989 29.5581 6.48605 30.4218C5.90688 30.9959 5.33787 31.7173 4.9924 32.4641C4.23034 34.1204 3.7985 35.7613 3.85946 37.6106C3.92043 39.4599 4.30654 41.3956 5.35819 42.9654C6.97885 45.3989 9.3819 46.8621 12.3438 47.0044C13.8476 47.0755 15.4429 46.6386 16.8908 46.2321C18.3387 45.8257 19.7257 45.277 21.0669 44.6318C21.4632 44.4387 21.829 44.2152 22.1846 43.9561C22.8603 43.4633 23.5817 42.9654 24.1457 42.3304C25.7104 40.5674 26.7062 38.4743 26.6757 36.0763C26.6503 34.0543 25.7562 32.3117 24.1711 31.0873C22.7079 29.9544 20.4674 29.233 18.6334 29.9493C16.9568 30.6047 15.3768 31.3668 14.1626 32.7537C12.5826 34.5522 11.6681 36.5336 11.475 38.9366C11.1601 42.9298 14.3811 46.4252 18.1355 47.2533C21.8899 48.0814 25.7409 47.2228 28.5555 44.8198C30.6435 43.0365 31.4412 39.9832 30.7147 37.3668C30.2168 35.5581 29.0178 34.3998 27.9001 32.9874L28.8908 34.2728C28.7435 34.0594 28.6164 33.846 28.5098 33.6123L29.1499 35.1314C29.028 34.8316 28.9416 34.5319 28.8857 34.2118L29.1143 35.8985C29.0737 35.5785 29.0686 35.2685 29.094 34.9434L28.8654 36.6301C28.9111 36.31 28.9873 36.0103 29.1042 35.7055L28.464 37.2245C28.9772 36.0763 29.6935 35.0044 29.9374 33.7546C30.105 32.8858 30.2574 32.0221 30.1609 31.1483C30.0847 30.4574 30.0288 29.7309 29.8358 29.0602C29.6427 28.3896 29.3226 27.7901 29.0432 27.1652L28.0525 25.8799L26.7672 24.8892C25.5326 24.1678 24.1203 23.9493 22.7181 24.1373C20.1829 24.4777 18.2066 26.2457 17.4395 28.6843C17.3226 29.0602 17.2058 29.4362 17.0838 29.8122C16.6012 31.3515 16.9213 33.3329 17.724 34.7046C18.5267 36.0763 20.0051 37.2804 21.5191 37.6208C23.1448 37.9917 24.9687 37.9104 26.4115 36.9807C27.8544 36.0509 28.8146 34.8164 29.3277 33.1856C29.4446 32.8096 29.5614 32.4337 29.6833 32.0577C25.812 32.5657 21.9458 33.0687 18.0745 33.5768L18.1558 33.7647L17.5157 32.2457C17.5868 32.4438 17.6376 32.6318 17.6833 32.835L17.4547 31.1483C17.4903 31.4277 17.4954 31.6868 17.475 31.9663L17.7037 30.2796C17.663 30.5539 17.5919 30.8079 17.4903 31.067L18.1304 29.548C17.663 30.5691 17.0991 31.5192 16.7536 32.6064C16.5199 33.3481 16.4488 34.1864 16.3878 34.9485C16.3624 35.2736 16.3726 35.5784 16.4081 35.9036C16.5961 37.57 16.8552 38.8807 17.7138 40.3693C18.2676 41.3295 19.0703 42.1017 19.7612 42.9502L18.7706 41.6648C18.8772 41.8122 18.9636 41.9493 19.0449 42.1068L18.4048 40.5878C18.4505 40.6894 18.481 40.7961 18.4962 40.9028L18.2676 39.216C18.2828 39.3278 18.2828 39.4396 18.2625 39.5514L18.4911 37.8646L18.4454 38.0221L19.0855 36.5031C19.05 36.6047 18.9941 36.6961 18.9331 36.7825L19.9238 35.4972C19.812 35.6293 19.7003 35.7309 19.5631 35.8376L20.8485 34.8469C20.6554 34.9739 20.4573 35.0755 20.249 35.172L21.768 34.5319C21.1939 34.7605 20.6097 34.918 20 35.0145L21.6867 34.7859C21.1431 34.8519 20.6046 34.8824 20.061 34.8215L21.7477 35.0501C21.4175 34.9993 21.1076 34.9231 20.7976 34.8011L22.3167 35.4413C22.0728 35.3346 21.8493 35.2076 21.641 35.0501L22.9264 36.0408C22.8095 35.9392 22.713 35.8376 22.6114 35.7207L23.6021 37.0061C23.5157 36.879 23.4446 36.7622 23.3836 36.6199L24.0237 38.139C23.9882 38.0425 23.9577 37.9459 23.9424 37.8443L24.1711 39.531C24.1507 39.3227 24.1507 39.15 24.1711 38.9417L23.9424 40.6284C23.9932 40.3693 24.0695 40.1305 24.1711 39.8816L23.5309 41.4006C23.6681 41.1161 23.8205 40.852 24.0085 40.5979L23.0178 41.8833C23.2566 41.5886 23.5157 41.3295 23.8154 41.1009L22.5301 42.0916C22.7892 41.9087 23.0534 41.7563 23.343 41.6293L21.8239 42.2694L21.9966 42.2033L13.9594 36.0814C13.9645 36.1983 13.9594 36.3202 13.9492 36.437L14.1778 34.7503C14.1423 34.984 14.0813 35.1974 13.9949 35.4159L14.6351 33.8968C14.5335 34.1102 14.4115 34.3083 14.2693 34.5014L15.26 33.216C15.0263 33.5056 14.7621 33.7546 14.4725 33.9883L15.7579 32.9976C15.2752 33.3532 14.7621 33.6276 14.2134 33.8714L15.7325 33.2313C14.315 33.8257 12.7452 34.3236 11.221 34.537L12.9077 34.3083C12.6689 34.3287 12.4556 34.3287 12.2219 34.3083L13.9086 34.537C13.7714 34.5166 13.6393 34.4811 13.5123 34.4354L15.0314 35.0755C14.8586 34.9993 14.7113 34.918 14.5538 34.8164L15.8391 35.8071C15.6461 35.6496 15.4784 35.4819 15.326 35.2889L16.3167 36.5742C16.1745 36.3659 16.0627 36.1576 15.9611 35.929L16.6012 37.4481C16.4996 37.1686 16.4336 36.8943 16.3827 36.5996L16.6114 38.2863C16.5453 37.7427 16.5352 37.194 16.591 36.6453L16.3624 38.332C16.4082 38.0018 16.4793 37.6868 16.5961 37.3718L15.956 38.8909C16.0424 38.6978 16.1338 38.52 16.2557 38.3473L15.2651 39.6326C15.3667 39.5158 15.4581 39.4243 15.58 39.3278L14.2947 40.3185C14.376 40.2626 14.4573 40.2169 14.5487 40.1813L13.0297 40.8215C13.1262 40.7859 13.2227 40.7605 13.3192 40.7503C14.8027 40.4862 16.3827 39.084 17.1143 37.8342C17.912 36.4726 18.2473 34.4658 17.7545 32.9417C17.2617 31.4176 16.3065 29.9239 14.8383 29.1466L13.3192 28.5065C12.1914 28.2017 11.0686 28.2017 9.94075 28.5065L9.94583 28.4912Z" fill="white"/>
<path d="M6.17106 24.5945L5.62746 24.4166C5.09401 24.2439 4.46912 24.5284 4.19477 25.0009C3.4073 26.3523 3.36666 27.8713 3.44795 29.3904C3.48859 30.1626 3.55464 30.945 3.46827 31.7122C3.3819 32.4793 3.12788 33.2515 2.8637 33.978C2.32009 35.4717 1.45133 36.9501 1.50722 38.586C1.5631 40.2219 2.3963 41.6851 3.35142 42.9806C3.75785 43.5293 4.45387 43.8087 5.08893 43.4378C5.63254 43.1177 5.9526 42.2541 5.54617 41.7003C4.82475 40.7198 3.96107 39.5513 4.04744 38.2659C4.09316 37.5851 4.40307 36.9196 4.65709 36.2896C4.9416 35.5987 5.2261 34.9128 5.46488 34.2067C5.93228 32.8045 6.08978 31.387 6.01357 29.9137C5.9526 28.7096 5.74939 27.3684 6.38444 26.2812L4.95176 26.8654L5.49536 27.0432C7.05506 27.5462 7.7206 25.0923 6.17106 24.5945Z" fill="white"/>
<path d="M8.88402 23.9545C8.68588 26.0476 8.80781 28.1255 9.3819 30.1526C9.55972 30.7927 10.2862 31.25 10.9467 31.0417C11.6071 30.8334 12.0288 30.1628 11.8358 29.4769C11.7037 29.0095 11.5919 28.537 11.5055 28.0595C11.4852 27.9477 11.4649 27.841 11.4496 27.7292C11.4395 27.653 11.4293 27.5819 11.4192 27.5057C11.4395 27.6378 11.4395 27.6581 11.4293 27.5667C11.4039 27.3228 11.3785 27.084 11.3582 26.8402C11.2921 25.8749 11.3379 24.9147 11.4293 23.9494C11.4903 23.2838 10.7993 22.6488 10.1592 22.6793C9.41746 22.7148 8.95514 23.2381 8.8891 23.9494L8.88402 23.9545Z" fill="white"/>
<path d="M13.4259 4.67928C13.5326 5.88842 13.6342 7.10265 13.7409 8.31179C13.7714 8.65218 13.8629 8.96209 14.1118 9.21103C14.3303 9.42949 14.696 9.59714 15.011 9.5819C15.326 9.56666 15.6816 9.45997 15.9103 9.21103C16.1287 8.97733 16.3116 8.6471 16.2811 8.31179C16.1745 7.10265 16.0728 5.88842 15.9662 4.67928C15.9357 4.33889 15.8442 4.02898 15.5953 3.78004C15.3768 3.56158 15.011 3.39392 14.696 3.40917C14.3811 3.42441 14.0254 3.5311 13.7968 3.78004C13.5783 4.01374 13.3955 4.34397 13.4259 4.67928Z" fill="white"/>
<path d="M16.21 8.56575C16.6266 8.52003 17.0432 8.45906 17.4446 8.34221C17.8459 8.22536 18.2269 8.06279 18.5978 7.87481C18.7452 7.79352 18.8671 7.68683 18.9534 7.54966C19.0652 7.42773 19.1414 7.28548 19.1821 7.11782C19.2329 6.95017 19.243 6.78251 19.2024 6.60978C19.1922 6.44213 19.1465 6.28463 19.05 6.1373C18.8772 5.86804 18.6131 5.62925 18.293 5.55305L17.9577 5.50732C17.7291 5.50732 17.5157 5.56829 17.3175 5.68006C17.2058 5.73594 17.0889 5.79183 16.9721 5.83755L17.2769 5.71054C16.8705 5.88328 16.4386 5.99505 16.0017 6.05601L16.337 6.01029C16.2964 6.01537 16.2557 6.02045 16.21 6.02553C16.0373 6.02045 15.8696 6.05601 15.7223 6.1373C15.5648 6.1881 15.4276 6.27447 15.3159 6.40148C15.1939 6.51833 15.1025 6.65042 15.0517 6.80792C14.9704 6.96033 14.9348 7.1229 14.9399 7.29564C14.9551 7.62587 15.0618 7.96626 15.3108 8.19488L15.5699 8.39301C15.768 8.50986 15.9814 8.56575 16.21 8.56575Z" fill="white"/>
<path d="M9.5902 25.4023C10.1592 27.2211 10.8755 29.0907 12.5673 30.1576C13.1313 30.5132 13.9899 30.2947 14.3048 29.7003C14.6351 29.0754 14.4522 28.3438 13.8476 27.9628C13.746 27.9018 13.6495 27.8307 13.558 27.7596L13.8171 27.9577C13.5428 27.7393 13.2989 27.4903 13.0855 27.216L13.2837 27.4751C12.9484 27.028 12.6943 26.5352 12.4759 26.0221L12.6029 26.3269C12.3844 25.8036 12.2117 25.2702 12.0441 24.7266C11.8459 24.0915 11.1499 23.6241 10.4793 23.8375C9.80866 24.0509 9.3819 24.7215 9.5902 25.4023Z" fill="white"/>
<path d="M13.7358 27.3785C13.873 27.3176 13.8832 27.3125 13.7612 27.3633C13.8374 27.3328 13.9086 27.3074 13.9848 27.2769C14.1169 27.2312 14.249 27.1855 14.3811 27.1448C14.6656 27.0585 14.9551 26.9823 15.2498 26.9264C15.3667 26.9061 15.4835 26.8857 15.6004 26.8654C15.326 26.9061 15.8087 26.8451 15.8544 26.8451C16.1338 26.8248 16.4132 26.8146 16.6876 26.8197C16.9619 26.8248 17.2464 26.8451 17.5208 26.8756C17.2464 26.8451 17.724 26.9111 17.7748 26.9213C17.8916 26.9416 18.0085 26.967 18.1253 26.9975C18.3946 27.0636 18.6639 27.1398 18.928 27.2312C18.9687 27.2465 19.4107 27.4141 19.1821 27.3176C19.3294 27.3785 19.4717 27.4497 19.6139 27.5208C20.2083 27.8155 21.0161 27.6986 21.3514 27.0636C21.6562 26.4895 21.5292 25.641 20.8942 25.326C18.2168 24.0001 15.1685 23.9696 12.4454 25.1787C11.8358 25.448 11.6478 26.3828 11.9882 26.9162C12.3946 27.5462 13.0754 27.6631 13.7257 27.3735L13.7358 27.3785Z" fill="white"/>
<path d="M30.7299 7.73265C29.5868 8.70809 28.7587 10.1001 28.4234 11.5582C28.3472 11.8884 28.3777 12.239 28.5504 12.5387C28.7028 12.8029 29.0076 13.0519 29.3074 13.123C29.9526 13.2703 30.7096 12.9299 30.8722 12.2339C30.9484 11.8935 31.0551 11.5582 31.1922 11.2331L31.0652 11.5379C31.2735 11.0553 31.5377 10.598 31.8578 10.1814L31.6596 10.4405C31.9187 10.1103 32.2083 9.80547 32.5284 9.53112C32.7621 9.32791 32.8993 8.93163 32.8993 8.63189C32.8993 8.33214 32.7621 7.94603 32.5284 7.73265C32.2947 7.51927 31.9695 7.34654 31.6291 7.36178C31.2888 7.37702 30.9992 7.50403 30.7299 7.73265Z" fill="white"/>
<path d="M13.3955 26.0069C13.5377 25.9459 13.558 25.9358 13.4615 25.9764C13.5428 25.9459 13.6292 25.9104 13.7104 25.8799C13.8781 25.8189 14.0457 25.763 14.2185 25.7122C14.5182 25.6259 14.8231 25.5547 15.1279 25.4988C15.2142 25.4836 15.3006 25.4684 15.3921 25.4531C15.2752 25.4684 15.2955 25.4684 15.453 25.448C15.6308 25.4328 15.8087 25.4176 15.9865 25.4074C16.2964 25.3922 16.6114 25.3922 16.9213 25.4074C17.475 25.4379 17.9983 25.5192 18.6842 25.7224C19.37 25.9256 19.6952 26.0729 20.3353 26.4438C20.9094 26.7791 21.7528 26.5962 22.0728 25.9866C22.3929 25.3769 22.2303 24.6047 21.6156 24.2491C18.7096 22.5573 15.1736 22.4455 12.1203 23.802C11.4954 24.0814 11.348 24.9959 11.663 25.5395C12.039 26.1847 12.7706 26.2762 13.4005 25.9967L13.3955 26.0069Z" fill="white"/>
<path d="M12.0136 31.1025C11.8815 31.0415 11.7494 30.9755 11.6071 30.9399C11.5868 30.9348 11.5614 30.9297 11.5411 30.9297C11.4141 30.9094 11.282 30.884 11.155 30.8789C11.0076 30.8739 10.8552 30.9043 10.713 30.9297C10.6673 30.9348 10.6215 30.945 10.5758 30.9653C10.398 31.0263 10.2151 31.0974 10.0576 31.2092C9.94075 31.2955 9.8239 31.3768 9.71721 31.4784C9.64608 31.5445 9.5902 31.6258 9.52923 31.702C9.46827 31.7782 9.41238 31.8493 9.36158 31.9306C9.28537 32.0576 9.22441 32.2202 9.17868 32.3472C9.16344 32.3878 9.1482 32.4285 9.13804 32.4691C9.10248 32.6164 9.08724 32.7689 9.07708 32.9213C9.07199 33.0178 9.09232 33.1092 9.10248 33.2058C9.11264 33.3023 9.1228 33.4039 9.15328 33.4954C9.25489 33.8002 9.3819 34.0085 9.5902 34.2473C9.6156 34.2778 9.641 34.3032 9.67149 34.3235C9.77818 34.4149 9.88995 34.5064 10.0119 34.5826C10.1338 34.6588 10.271 34.6994 10.398 34.7502C10.4336 34.7655 10.4742 34.7807 10.5148 34.7858C10.6571 34.8214 10.8044 34.8315 10.9467 34.8468C10.9924 34.8518 11.033 34.8569 11.0788 34.8569C11.1194 34.8569 11.155 34.8569 11.1956 34.8468C11.343 34.8315 11.4954 34.8163 11.6376 34.7807C11.6732 34.7706 11.7138 34.7604 11.7494 34.7452C11.8866 34.6943 12.0237 34.6385 12.1507 34.5724C12.1863 34.5572 12.2168 34.5369 12.2473 34.5115C12.3641 34.4302 12.481 34.3438 12.5826 34.2473C12.6842 34.1507 12.7655 34.0288 12.8518 33.912C12.8772 33.8815 12.8976 33.8459 12.9179 33.8104C13.0703 33.5106 13.1262 33.2871 13.1567 32.9568C13.1567 32.9111 13.1617 32.8654 13.1567 32.8197C13.1465 32.6672 13.1313 32.5098 13.0906 32.3573C13.0398 32.1643 12.9585 31.9712 12.8518 31.8036C12.7706 31.6816 12.6791 31.5648 12.5826 31.453C12.5521 31.4124 12.5165 31.3768 12.4759 31.3463C12.3336 31.2193 12.1711 31.0822 11.9932 31.0009C11.8561 30.9348 11.7138 30.8688 11.5716 30.8281C11.4293 30.7875 11.2617 30.7722 11.1093 30.757C10.9111 30.7316 10.6977 30.7672 10.5098 30.8129C10.3624 30.8485 10.2253 30.9196 10.0881 30.9805C10.0373 31.0059 9.98647 31.0313 9.94075 31.0618C9.81374 31.1482 9.68165 31.2447 9.56988 31.3514C9.45811 31.4581 9.36666 31.5902 9.27521 31.7172C9.24473 31.7579 9.21425 31.8036 9.19393 31.8493C9.1228 31.9865 9.05675 32.1389 9.01103 32.2862C9.00087 32.3116 8.99579 32.3421 8.99071 32.3675C8.99071 32.3777 8.99071 32.3929 8.98563 32.4031C8.97039 32.4793 8.9399 32.6723 8.9399 32.7536C8.9399 32.8044 8.97547 33.0534 8.99071 33.0991C9.01611 33.2109 9.07199 33.3175 9.12788 33.4192C9.13804 33.4344 9.14312 33.4496 9.15328 33.4649C9.21425 33.5614 9.30061 33.6681 9.37682 33.7545C9.38698 33.7646 9.39714 33.7748 9.4073 33.7849C9.49367 33.8662 9.59528 33.9424 9.69181 34.0085C9.70705 34.0186 9.72229 34.0288 9.74261 34.039C9.84422 34.0949 9.96615 34.1406 10.0728 34.1812C10.0881 34.1863 10.1033 34.1914 10.1186 34.1965C10.2557 34.2371 10.4031 34.2473 10.5453 34.2574C10.7231 34.2727 10.906 34.2371 11.0788 34.1965C11.1143 34.1863 11.1448 34.1761 11.1804 34.166C11.3125 34.1152 11.4547 34.0644 11.5767 33.9932C11.724 33.9069 11.8662 33.8002 11.9831 33.6732C12.0695 33.5766 12.1609 33.4649 12.2269 33.348C12.2371 33.3328 12.2422 33.3175 12.2473 33.3023C12.2981 33.1956 12.354 33.0788 12.3895 32.967C12.3895 32.9518 12.3997 32.9365 12.3997 32.9162C12.42 32.8044 12.4454 32.6622 12.4505 32.5504C12.4505 32.5352 12.4505 32.5148 12.4505 32.4996C12.4454 32.3777 12.4251 32.2354 12.3997 32.1135C12.3336 31.8341 12.1863 31.6054 11.9983 31.3971C11.912 31.3006 11.7951 31.2193 11.6833 31.1431C11.6579 31.1228 11.6275 31.1076 11.597 31.0923C11.3074 30.9551 11.1093 30.8993 10.7841 30.884C10.7536 30.884 10.7181 30.884 10.6876 30.884C10.5453 30.8942 10.398 30.9094 10.2608 30.945C10.2303 30.9551 10.1948 30.9653 10.1643 30.9755C10.0373 31.0263 9.90011 31.072 9.77818 31.1431C9.65624 31.2142 9.55464 31.3006 9.45303 31.387C9.42254 31.4124 9.39714 31.4327 9.37682 31.4632C9.29045 31.5597 9.19901 31.6664 9.13296 31.7833C9.10248 31.8391 9.07707 31.9103 9.05167 31.9661C9.02627 32.022 8.99071 32.0982 8.97039 32.1643C8.95006 32.2303 8.95006 32.3065 8.9399 32.3675C8.92974 32.4285 8.9145 32.5098 8.9145 32.5809C8.9145 32.5961 8.9145 32.6114 8.9145 32.6266C8.92466 32.7536 8.9399 32.8857 8.9653 33.0127C9.00595 33.1804 9.08216 33.3226 9.19393 33.4446C9.28537 33.5817 9.40222 33.6935 9.54956 33.7697C9.69689 33.8612 9.85438 33.912 10.022 33.9221C10.1897 33.9577 10.3573 33.9526 10.5301 33.9018C10.8349 33.8002 11.1347 33.6122 11.2871 33.3175L11.4141 33.0127C11.475 32.7892 11.475 32.5606 11.4141 32.337C11.4141 32.3269 11.4141 32.3167 11.409 32.3065L11.4547 32.6418C11.4547 32.6063 11.4547 32.5707 11.4547 32.5402L11.409 32.8755C11.409 32.8451 11.4192 32.8197 11.4344 32.7943L11.3074 33.0991C11.3226 33.0686 11.3379 33.0432 11.3582 33.0127L11.1601 33.2718C11.1855 33.2363 11.2159 33.2058 11.2515 33.1804L10.9924 33.3785C11.033 33.348 11.0788 33.3226 11.1245 33.3023L10.8197 33.4293C10.8756 33.4039 10.9365 33.3887 10.9975 33.3785L10.6622 33.4242C10.7181 33.4192 10.7739 33.4141 10.8298 33.4242L10.4945 33.3785C10.5402 33.3836 10.5809 33.3938 10.6215 33.4141L10.3167 33.2871C10.3472 33.3023 10.3726 33.3175 10.4031 33.3379L10.144 33.1397C10.144 33.1397 10.1846 33.1753 10.2049 33.2007L10.0068 32.9416C10.0068 32.9416 10.0373 32.9924 10.0525 33.0178L9.92551 32.713C9.94075 32.7485 9.95091 32.7841 9.95599 32.8197L9.91027 32.4844C9.91027 32.5148 9.91027 32.5453 9.91027 32.5758L9.95599 32.2405C9.95599 32.271 9.94583 32.2964 9.93567 32.3218L10.0627 32.017C10.0474 32.0525 10.0271 32.0881 10.0017 32.1186L10.1999 31.8595C10.1694 31.895 10.1389 31.9255 10.1033 31.956L10.3624 31.7579C10.3218 31.7883 10.2761 31.8137 10.2253 31.8341L10.5301 31.707C10.4691 31.7324 10.4082 31.7477 10.3472 31.7579L10.6825 31.7121C10.6317 31.7172 10.5809 31.7172 10.5301 31.7121L10.8654 31.7579C10.8247 31.7528 10.7892 31.7426 10.7536 31.7274L11.0584 31.8544C11.033 31.8442 11.0076 31.829 10.9822 31.8137L11.2413 32.0119C11.2413 32.0119 11.1956 31.9763 11.1804 31.9509L11.3785 32.21C11.3785 32.21 11.343 32.1592 11.3328 32.1287L11.4598 32.4336V32.4183C11.4547 32.6418 11.4547 32.8705 11.4547 33.094C11.4649 33.0229 11.4852 32.9518 11.5157 32.8857L11.3887 33.1905C11.4192 33.1245 11.4547 33.0635 11.4954 33.0026L11.2972 33.2617C11.348 33.1956 11.4039 33.1397 11.4649 33.094L11.2058 33.2921C11.2617 33.2464 11.3277 33.2109 11.3938 33.1855L11.0889 33.3125C11.1448 33.2921 11.2007 33.2718 11.2617 33.2617L10.9264 33.3074C10.9975 33.2972 11.0686 33.2972 11.1397 33.3074L10.8044 33.2617C10.8756 33.2718 10.9416 33.2921 11.0076 33.3175L10.7028 33.1905C10.7841 33.2261 10.8552 33.2667 10.9264 33.3226L10.6673 33.1245C10.7333 33.1804 10.7943 33.2413 10.8501 33.3074L10.652 33.0483C10.6927 33.1042 10.7282 33.1651 10.7587 33.2312L10.6317 32.9264C10.6571 32.9924 10.6774 33.0584 10.6876 33.1296L10.6419 32.7943C10.652 32.8552 10.652 32.9213 10.6419 32.9822L10.6876 32.6469C10.6774 32.7079 10.6622 32.7638 10.6419 32.8197L10.7689 32.5148C10.7485 32.5606 10.7231 32.6063 10.6876 32.6469L10.8857 32.3878C10.8501 32.4336 10.8095 32.4742 10.7638 32.5098L11.0229 32.3116C10.9619 32.3573 10.8959 32.398 10.8247 32.4234L11.1296 32.2964C11.0534 32.3269 10.9721 32.3472 10.8908 32.3624L11.2261 32.3167C11.1448 32.3269 11.0635 32.3269 10.9772 32.3167L11.3125 32.3624C11.2363 32.3523 11.1651 32.3319 11.094 32.3015L11.3988 32.4285C11.348 32.4031 11.2972 32.3777 11.2515 32.3421L11.5106 32.5402C11.47 32.5098 11.4344 32.4742 11.3988 32.4336L11.597 32.6927C11.5614 32.6469 11.536 32.6012 11.5157 32.5504L11.6427 32.8552C11.6224 32.8044 11.6122 32.7587 11.6021 32.7079L11.6478 33.0432C11.6427 32.9873 11.6478 32.9314 11.6478 32.8705L11.6021 33.2058C11.6122 33.1397 11.6325 33.0788 11.6529 33.0178L11.5258 33.3226C11.5563 33.2515 11.597 33.1804 11.6478 33.1194L11.4496 33.3785C11.4954 33.3226 11.5462 33.2718 11.6021 33.2261L11.343 33.4242C11.3988 33.3785 11.4598 33.3429 11.5258 33.3125L11.221 33.4395C11.282 33.4141 11.3379 33.3988 11.4039 33.3887L11.0686 33.4344C11.1194 33.4293 11.1702 33.4293 11.221 33.4344L10.8857 33.3887C10.9365 33.3938 10.9873 33.409 11.033 33.4293L10.7282 33.3023L10.7485 33.3125C10.8959 33.4039 11.0534 33.4547 11.221 33.4649C11.3887 33.5004 11.5563 33.4954 11.7291 33.4446C11.8967 33.4039 12.039 33.3277 12.1609 33.2159C12.2981 33.1245 12.4098 33.0076 12.4861 32.8603C12.6435 32.5656 12.7198 32.21 12.6131 31.8798L12.4861 31.575C12.3743 31.3819 12.2219 31.2346 12.0288 31.1177L12.0136 31.1025Z" fill="#5B5B5B"/>
<path d="M22.5352 30.7826C22.3929 30.7928 22.2405 30.8131 22.1033 30.8385C22.0576 30.8486 22.017 30.8588 21.9763 30.8791C21.8442 30.9299 21.7121 30.9807 21.5851 31.0468C21.5038 31.0925 21.4327 31.1535 21.3616 31.2094C21.2904 31.2652 21.2193 31.316 21.1533 31.377C21.0822 31.4431 21.0263 31.5243 20.9704 31.6006C20.8891 31.7072 20.8078 31.8088 20.7519 31.9308C20.6757 32.0984 20.5893 32.2712 20.5487 32.4541C20.5182 32.5963 20.503 32.7437 20.4877 32.8859C20.4877 32.9265 20.4827 32.9672 20.4877 33.0129C20.4928 33.1552 20.5182 33.3025 20.5436 33.4448C20.5538 33.4905 20.5639 33.5311 20.5741 33.5718C20.6351 33.7394 20.7011 33.9223 20.8078 34.0696C20.8891 34.1814 20.9704 34.2983 21.0669 34.3999C21.1634 34.5015 21.2904 34.5878 21.4073 34.6742C21.5546 34.7809 21.7324 34.8419 21.9001 34.9079C22.0271 34.9587 22.1592 34.9689 22.2964 34.9892C22.4335 35.0095 22.5606 35.0298 22.6927 35.0146C22.8755 34.9994 23.0737 34.979 23.2566 34.9232C23.3887 34.8774 23.5208 34.8215 23.6478 34.7606C23.6833 34.7453 23.7189 34.725 23.7545 34.7047C23.8713 34.6336 23.9831 34.5421 24.0898 34.4507C24.1253 34.4253 24.1558 34.3948 24.1863 34.3592C24.2777 34.2576 24.3641 34.1408 24.4454 34.029C24.4708 33.9934 24.4911 33.9579 24.5114 33.9172C24.5927 33.7496 24.6791 33.5718 24.7045 33.3838C24.7248 33.2415 24.7553 33.0942 24.7553 32.9469C24.7553 32.8503 24.7401 32.7538 24.7248 32.6573C24.7045 32.5099 24.6893 32.3779 24.6385 32.2458C24.5724 32.073 24.5064 31.8901 24.3997 31.7377C24.293 31.5853 24.1812 31.4227 24.039 31.3008C23.9323 31.2094 23.8205 31.123 23.7037 31.0417C23.6681 31.0163 23.6325 30.996 23.5919 30.9757C23.4242 30.8944 23.2464 30.808 23.0584 30.7724C22.9111 30.747 22.7587 30.7216 22.6114 30.7166C22.4488 30.7166 22.2862 30.747 22.1287 30.7724C21.9153 30.808 21.7121 30.8994 21.5241 30.9909C21.3362 31.0823 21.1685 31.2246 21.011 31.3567C20.9704 31.3923 20.9348 31.4278 20.8993 31.4685C20.8027 31.5802 20.7062 31.7022 20.63 31.8241C20.6046 31.8647 20.5843 31.9054 20.5639 31.946C20.503 32.0832 20.4369 32.2204 20.3912 32.3677C20.3607 32.4642 20.3556 32.5658 20.3404 32.6674C20.3252 32.7691 20.3048 32.8656 20.315 32.9672C20.3353 33.2923 20.3963 33.5311 20.5436 33.8207C20.6097 33.9528 20.7113 34.0646 20.8027 34.1763C20.8942 34.2881 21.0212 34.3745 21.138 34.4507C21.2142 34.5015 21.2905 34.5269 21.3768 34.5624C21.4632 34.598 21.5394 34.6387 21.6308 34.6539C21.956 34.7098 22.1846 34.7199 22.5047 34.6437C22.5402 34.6336 22.5758 34.6234 22.6114 34.6082C22.7435 34.5574 22.8857 34.5116 23.0026 34.4304C23.2617 34.2627 23.4344 34.09 23.602 33.8359C23.6783 33.7191 23.724 33.5819 23.7748 33.4549C23.8256 33.3177 23.8307 33.1653 23.8459 33.018C23.8561 32.9215 23.8358 32.8351 23.8256 32.7335C23.8154 32.6319 23.8053 32.5455 23.7697 32.4541C23.7189 32.322 23.6732 32.1848 23.5919 32.0679C23.5106 31.9511 23.4242 31.8292 23.3226 31.7276C23.0889 31.504 22.8755 31.3973 22.5809 31.2805C22.5453 31.2652 22.5047 31.2551 22.4691 31.2449C22.3472 31.2195 22.2151 31.2043 22.0932 31.1941C22.0728 31.1941 22.0474 31.1941 22.0271 31.1941C21.9001 31.1941 21.7629 31.2195 21.641 31.2449C21.6207 31.2449 21.6054 31.25 21.5851 31.2551C21.5191 31.2754 21.4479 31.311 21.387 31.3364C21.3159 31.3668 21.2447 31.3923 21.1838 31.4278C20.9094 31.5904 20.6859 31.88 20.5995 32.1848C20.5487 32.3525 20.5385 32.5201 20.5792 32.6928C20.5894 32.8605 20.6351 33.018 20.7316 33.1653C20.9043 33.4346 21.1685 33.6734 21.4886 33.7496C21.8087 33.8258 22.1643 33.7953 22.4691 33.6226C22.4844 33.6124 22.5047 33.6022 22.5199 33.5972L22.2151 33.7242C22.2507 33.7089 22.2862 33.6988 22.3269 33.6937L21.9916 33.7394C22.0322 33.7394 22.0678 33.7394 22.1084 33.7394L21.7731 33.6937C21.8239 33.7039 21.8747 33.714 21.9255 33.7343L21.6207 33.6073C21.6613 33.6276 21.702 33.648 21.7426 33.6784L21.4835 33.4803C21.5242 33.5108 21.5648 33.5514 21.5953 33.5921L21.3971 33.333C21.4225 33.3635 21.4378 33.399 21.4581 33.4346L21.3311 33.1298C21.3463 33.1653 21.3565 33.2009 21.3616 33.2415L21.3159 32.9062C21.3159 32.9469 21.3159 32.9824 21.3159 33.0231L21.3616 32.6878C21.3565 32.7233 21.3463 32.7589 21.3311 32.7945L21.4581 32.4896C21.4429 32.5252 21.4225 32.5506 21.4022 32.5811L21.6004 32.322C21.575 32.3575 21.5445 32.3829 21.5089 32.4134L21.768 32.2153C21.7274 32.2458 21.6867 32.2712 21.641 32.2915L21.9458 32.1645C21.895 32.1848 21.8391 32.2 21.7833 32.2102L22.1186 32.1645C22.0779 32.1645 22.0322 32.1645 21.9916 32.1645L22.3269 32.2102C22.2862 32.2051 22.2456 32.195 22.2049 32.1797L22.5098 32.3067C22.4742 32.2915 22.4437 32.2762 22.4132 32.2508L22.6723 32.449C22.6418 32.4236 22.6114 32.3931 22.586 32.3626L22.7841 32.6217C22.7587 32.5862 22.7384 32.5506 22.7231 32.5099L22.8501 32.8148C22.8349 32.769 22.8197 32.7233 22.8146 32.6725L22.8603 33.0078C22.8552 32.9519 22.8552 32.891 22.8603 32.8351L22.8146 33.1704C22.8247 33.0891 22.8501 33.0078 22.8806 32.9316L22.7536 33.2365C22.7892 33.1602 22.8298 33.0891 22.8806 33.0231L22.6825 33.2822C22.7333 33.2161 22.7943 33.1653 22.8603 33.1094L22.6012 33.3076C22.6825 33.2466 22.7638 33.2009 22.8552 33.1602L22.5504 33.2873C22.6317 33.2517 22.7181 33.2314 22.8044 33.2161L22.4691 33.2619C22.5504 33.2517 22.6317 33.2517 22.713 33.2619L22.3777 33.2161C22.4437 33.2263 22.5098 33.2466 22.5707 33.272L22.2659 33.145C22.3319 33.1755 22.398 33.211 22.4539 33.2568L22.1948 33.0586C22.2659 33.1145 22.3269 33.1755 22.3777 33.2466L22.1795 32.9875C22.2303 33.0586 22.2761 33.1348 22.3116 33.2161L22.1846 32.9113C22.2202 32.9926 22.2405 33.079 22.2557 33.1653L22.21 32.83C22.2202 32.9011 22.2202 32.9774 22.21 33.0485L22.2557 32.7132C22.2456 32.7894 22.2253 32.8554 22.1998 32.9265L22.3269 32.6217C22.3015 32.6776 22.271 32.7233 22.2405 32.7741L22.4386 32.515C22.398 32.5709 22.3472 32.6166 22.2913 32.6624L22.5504 32.4642C22.4894 32.5099 22.4234 32.5455 22.3573 32.576L22.6622 32.449C22.5809 32.4845 22.4945 32.5049 22.4031 32.5201L22.7384 32.4744C22.6469 32.4845 22.5606 32.4845 22.4691 32.4744L22.8044 32.5201C22.7231 32.5099 22.6418 32.4896 22.5656 32.4591L22.8705 32.5862C22.7993 32.5557 22.7384 32.5201 22.6774 32.4744L22.9365 32.6725C22.8857 32.6319 22.8451 32.5912 22.8044 32.5404L23.0026 32.7995C22.967 32.7538 22.9365 32.703 22.9162 32.6471L23.0432 32.9519C23.0178 32.8859 22.9975 32.8199 22.9873 32.7487L23.033 33.084C23.0229 33.0078 23.028 32.9316 23.033 32.8554L22.9873 33.1907C22.9975 33.1044 23.0229 33.0282 23.0534 32.9469L22.9264 33.2517C22.9619 33.1653 23.0076 33.0891 23.0635 33.018L22.8654 33.2771C22.9162 33.2161 22.967 33.1602 23.028 33.1145L22.7689 33.3127C22.8197 33.272 22.8755 33.2415 22.9314 33.2161L22.6266 33.3431C22.6876 33.3177 22.7485 33.3025 22.8095 33.2923L22.4742 33.3381C22.4742 33.3381 22.5148 33.3381 22.5301 33.333C22.7028 33.3381 22.8705 33.3025 23.0178 33.2212C23.1753 33.1704 23.3125 33.084 23.4242 32.957C23.5462 32.8402 23.6376 32.7081 23.6884 32.5506C23.7697 32.3982 23.8053 32.2356 23.8002 32.0629C23.7849 31.7326 23.6783 31.3923 23.4293 31.1636C23.1804 30.935 22.8654 30.7674 22.5301 30.7928L22.5352 30.7826Z" fill="#5B5B5B"/>
<path d="M34.6164 5.17711C34.398 4.31851 34.1694 3.47516 33.9001 2.63181C33.702 2.02724 33.2701 1.53443 32.6351 1.38202C31.9137 1.20929 31.2837 1.49887 30.6385 1.78846C28.6571 2.68261 26.8332 3.9324 25.238 5.40573C21.9865 8.41335 19.6749 12.5996 18.8772 16.9637C18.3895 19.6513 18.4759 22.4557 19.5326 25.0061C19.7968 25.6411 20.376 26.0933 21.0974 25.8951C21.6969 25.7326 22.2507 24.9705 21.9865 24.3304C20.4877 20.7182 21.133 16.6792 22.7282 13.2093C24.2371 9.92732 26.5995 7.11784 29.6681 5.19743C30.1152 4.91801 30.5673 4.6589 31.0347 4.42012C31.2684 4.29819 31.5021 4.18642 31.7409 4.07465C31.8273 4.03401 31.934 4.00353 32.0102 3.95272C32.0508 3.9324 32.0915 3.91716 32.1321 3.90192C32.4268 3.80031 32.2083 3.62757 31.4767 3.38371C31.431 3.7495 31.7562 4.25247 31.8628 4.59794C31.9899 5.01453 32.0661 5.44129 32.1728 5.86297C32.5741 7.44807 35.0229 6.77745 34.6215 5.18727L34.6164 5.17711Z" fill="#5B5B5B"/>
<path d="M1.48182 26.6369C1.66979 27.2973 1.90349 27.9527 2.0305 28.6284C2.14735 29.2533 2.11179 29.9138 2.0305 30.5437C1.82729 32.0374 1.29892 33.4853 0.765474 34.8875C-0.220132 37.4684 -0.0677186 40.3083 1.45133 42.6606C3.78326 46.2728 8.13719 47.5378 12.1914 47.8629C14.884 48.0763 17.6325 48.0306 20.3252 47.8121C22.2608 47.6547 24.2371 47.4057 26.0762 46.7656C28.6774 45.8613 30.9687 44.0069 31.8476 41.3193C32.5894 39.0484 31.9035 36.625 31.3751 34.3947C30.8112 32.012 30.4352 29.5429 31.4513 27.216C31.7257 26.5861 31.6342 25.8545 30.9941 25.4785C30.4556 25.1635 29.5309 25.3007 29.2566 25.9358C28.2456 28.2474 28.0932 30.5945 28.5047 33.0687C28.8146 34.9332 29.5106 36.8638 29.6122 38.6521C29.6579 39.4853 29.6071 40.2016 29.2972 40.9078C29.1601 41.2177 28.9772 41.5124 28.7892 41.7969C28.7231 41.8934 28.6571 41.99 28.591 42.0865C28.3726 42.3964 28.6673 42.0154 28.5047 42.2033C28.1745 42.5844 27.8341 42.9349 27.4479 43.2601C27.3057 43.3769 27.6207 43.1483 27.3616 43.321C27.2498 43.3972 27.138 43.4734 27.0263 43.5446C26.7723 43.7071 26.503 43.8494 26.2337 43.9815C26.1626 44.0171 25.8019 44.1796 25.9137 44.1288C26.0102 44.0882 25.6292 44.2406 25.558 44.266C25.2227 44.3879 24.8823 44.4946 24.5369 44.5911C23.6935 44.8248 22.8247 44.9925 21.956 45.1094C19.6088 45.4294 17.0889 45.4802 14.6808 45.4447C12.5775 45.4091 10.4437 45.2821 8.41662 44.6623C7.58851 44.4083 7.14143 44.2203 6.3946 43.7986C5.64778 43.3769 4.967 42.9095 4.37259 42.2999C3.54956 41.4514 2.99579 40.3947 2.75193 39.2364C2.45218 37.824 2.84337 36.5539 3.33618 35.2431C3.89503 33.7546 4.36243 32.2457 4.55548 30.6606C4.76378 28.9942 4.38275 27.5564 3.93567 25.9713C3.48859 24.3862 1.03982 25.067 1.4869 26.647L1.48182 26.6369Z" fill="#5B5B5B"/>
<path d="M16.2862 3.86125C16.0525 2.94169 15.8544 1.9764 15.4784 1.09749C15.199 0.442111 14.5995 0.020434 13.873 0.000112258C13.2278 -0.0202095 12.6029 0.330341 12.039 0.599604C9.96107 1.58013 8.04066 2.94677 6.40984 4.56743C2.89418 8.05261 0.872162 12.6707 0.450485 17.5835C0.196463 20.5556 0.689266 23.3955 1.48181 26.2457C1.91873 27.8206 4.37259 27.15 3.93059 25.57C3.33109 23.4159 2.8891 21.3278 2.9145 19.0822C2.9399 17.0094 3.30061 14.9569 3.98139 13.001C5.24134 9.36336 7.78664 6.18809 11.0026 4.08479C11.47 3.77996 11.9475 3.49546 12.4403 3.23127C12.674 3.10934 12.9077 2.98741 13.1414 2.87564C13.2278 2.835 13.7816 2.65718 13.8273 2.56573C13.7003 2.82992 13.243 1.68174 13.1567 2.12882C13.1414 2.22026 13.2126 2.393 13.243 2.48953C13.3142 2.72831 13.4259 2.95693 13.5021 3.19571C13.6444 3.63263 13.7206 4.08987 13.8324 4.53695C14.2337 6.12204 16.6825 5.45142 16.2811 3.86125H16.2862Z" fill="#5B5B5B"/>
<path d="M36.7248 9.24641C37.3955 8.91618 38.2032 8.36749 38.8942 8.19984H38.2185L38.1931 8.18459L37.7358 7.72735C37.685 7.47841 37.6749 7.48349 37.6952 7.73752C37.6952 7.86453 37.7054 7.99662 37.7054 8.12363C37.7054 8.38273 37.7054 8.64183 37.7054 8.90094C37.6952 9.3531 37.6749 9.80526 37.6342 10.2523C37.5631 11.1058 37.4361 11.9492 37.2532 12.7875C36.8671 14.5758 36.2778 16.3235 35.4649 17.9644C33.8341 21.2667 31.4259 24.1727 28.4031 26.2862C27.8391 26.6774 27.58 27.3988 27.9458 28.0237C28.271 28.5775 29.1194 28.8721 29.6833 28.481C35.978 24.0915 40.017 16.7909 40.2354 9.09399C40.2659 7.98138 40.4437 6.35564 39.1939 5.83743C38.5081 5.55293 37.8832 5.83743 37.2684 6.14734L35.4344 7.05674C33.9712 7.78324 35.2566 9.97291 36.7147 9.25149L36.7248 9.24641Z" fill="#5B5B5B"/>
<path d="M19.0195 7.57006C19.6444 7.26015 20.4522 6.73179 21.0517 6.58954H20.376L20.3353 6.56922L19.8781 6.11198C19.8222 5.83763 19.807 5.83255 19.8324 6.09673C19.8324 6.22375 19.8374 6.35584 19.8425 6.48285C19.8425 6.6759 19.8425 6.86896 19.8425 7.06202C19.8374 7.51418 19.8171 7.96126 19.7816 8.41341C19.7155 9.26185 19.5834 10.1052 19.4005 10.9384C19.0398 12.5946 18.4911 14.2102 17.7392 15.7292C16.1999 18.8436 13.934 21.587 11.0788 23.5785C10.5148 23.9697 10.2557 24.6911 10.6215 25.316C10.9467 25.8698 11.7951 26.1645 12.359 25.7733C18.3641 21.5819 22.21 14.6065 22.3777 7.26016C22.4031 6.23391 22.5301 4.89267 21.4987 4.29318C20.8434 3.91214 20.1575 4.18649 19.5479 4.48623C18.9382 4.78598 18.3387 5.08573 17.7341 5.38547C16.271 6.11198 17.5563 8.30165 19.0144 7.58022L19.0195 7.57006Z" fill="#5B5B5B"/>
<path d="M13.0195 8.51488C9.54448 11.5276 6.51145 15.6377 6.47081 20.4184C6.45557 22.0543 8.99579 22.0543 9.01103 20.4184C9.04659 16.3134 11.8612 12.8739 14.818 10.3083C15.3362 9.8612 15.2803 8.97212 14.818 8.5098C14.3048 7.99668 13.5428 8.05764 13.0195 8.5098V8.51488Z" fill="#FF7FE0"/>
<path d="M31.3345 10.3135C27.8595 13.3262 24.8264 17.4362 24.7858 22.2169C24.7706 23.8528 27.3108 23.8528 27.326 22.2169C27.3616 18.1119 30.1761 14.6725 33.133 12.1069C33.6512 11.6598 33.5953 10.7707 33.133 10.3084C32.6198 9.79526 31.8578 9.85623 31.3345 10.3084V10.3135Z" fill="#FF7FE0"/>
<path d="M16.2405 36.8535L15.3463 36.503L15.011 36.4573C14.8383 36.4522 14.6706 36.4877 14.5233 36.569C14.2794 36.6706 14.0457 36.8485 13.9137 37.0872C13.7257 37.4479 13.6342 37.7934 13.6088 38.1948C13.5987 38.3472 13.6241 38.4894 13.6444 38.6418C13.6647 38.7993 13.685 38.9518 13.7409 39.0991C13.8781 39.4801 14.0508 39.79 14.3252 40.0847C14.5995 40.3794 14.9399 40.5572 15.3057 40.7045C15.8087 40.9077 16.4386 40.9026 16.9518 40.7452C17.4649 40.5877 17.9729 40.2828 18.3489 39.8815C18.7909 39.4141 19.1109 38.8349 19.2735 38.21C19.4513 37.5292 19.05 36.8535 18.3844 36.6452C17.7189 36.4369 16.9822 36.5589 16.3878 36.9043C16.1338 37.0517 15.8849 37.2498 15.6918 37.4784C15.4022 37.829 15.2346 38.1338 15.0618 38.5555C14.9501 38.84 15.0415 39.2769 15.1888 39.536C15.3362 39.7951 15.6461 40.0491 15.9458 40.1203C16.271 40.1965 16.6368 40.1761 16.9264 39.9932L17.1855 39.7951C17.343 39.6376 17.4496 39.4496 17.5106 39.2363L17.5258 39.1956L17.3988 39.5004C17.4649 39.348 17.5411 39.2058 17.6427 39.0737L17.4446 39.3328C17.5309 39.221 17.6275 39.1194 17.7392 39.033L17.4801 39.2312C17.5868 39.1499 17.6986 39.0788 17.8205 39.0229L17.5157 39.1499C17.6224 39.1042 17.7341 39.0737 17.851 39.0534L17.5157 39.0991C17.6275 39.0838 17.7443 39.0838 17.8561 39.0991L17.5208 39.0534C17.5868 39.0635 17.6478 39.0788 17.7087 39.0991L16.8197 37.5343C16.7892 37.6562 16.7485 37.7782 16.7028 37.895L16.8298 37.5902C16.7435 37.7985 16.6266 37.9966 16.4894 38.1744L16.6876 37.9153C16.5707 38.0627 16.4437 38.1948 16.2964 38.3116L16.5555 38.1135C16.4234 38.2151 16.2862 38.2964 16.1389 38.3624L16.4437 38.2354C16.3116 38.2913 16.1745 38.3269 16.0322 38.3523L16.3675 38.3065C16.2354 38.3218 16.1084 38.3218 15.9763 38.3065L16.3116 38.3523C16.1948 38.3319 16.0881 38.3015 15.9763 38.2608L16.2811 38.3878C16.1846 38.3472 16.0982 38.2964 16.0119 38.2303L16.271 38.4285C16.1846 38.3624 16.1084 38.2862 16.0424 38.1999L16.2405 38.459C16.1744 38.3726 16.1236 38.2862 16.083 38.1846L16.21 38.4894C16.1643 38.3726 16.1338 38.2608 16.1135 38.1389L16.1592 38.4742C16.144 38.3523 16.144 38.2303 16.1592 38.1084L16.1135 38.4437C16.1287 38.337 16.1541 38.2405 16.1948 38.144L16.0678 38.4488C16.0779 38.4234 16.0932 38.398 16.1084 38.3726L14.6757 38.9568L15.5699 39.3074C15.8595 39.4192 16.2913 39.3277 16.5504 39.1804C16.8095 39.033 17.0635 38.7231 17.1347 38.4234C17.2109 38.0982 17.1905 37.7324 17.0076 37.4429L16.8095 37.1838C16.652 37.0263 16.464 36.9196 16.2507 36.8586L16.2405 36.8535Z" fill="#FF7FE0"/>
</g>
<defs>
<clipPath id="clip0_216_509">
<rect width="40.1355" height="48" fill="white" transform="translate(0.135498)"/>
</clipPath>
</defs>
</svg>
