<svg width="41" height="48" viewBox="0 0 41 48" fill="none" xmlns="http://www.w3.org/2000/svg">
<g clip-path="url(#clip0_216_664)">
<path d="M12.0983 3.11941C10.4776 3.29723 9.37006 4.3184 8.58767 5.70028C7.76464 7.15328 7.18039 8.79935 6.63171 10.3743C5.45812 13.7629 4.7367 17.2888 4.42171 20.8603L4.79259 19.9611L4.87387 19.895L5.51401 19.7223C5.84424 19.8798 5.91536 19.895 5.72739 19.768L6.18463 20.2253L6.26591 20.5606L6.09318 21.2007L6.03221 21.2871L5.47336 21.6122L4.51824 21.0229C4.62493 21.7037 5.47336 22.0745 6.08302 21.912C6.80444 21.7138 7.0737 21.028 6.97209 20.3472C6.77904 19.1177 5.10757 18.7062 4.2439 19.4937C3.28369 20.3675 3.78666 21.8612 4.96024 22.2066C5.53941 22.3794 6.18971 22.2066 6.59614 21.7595C7.05338 21.2667 6.99242 20.5606 7.05846 19.9306C7.18039 18.8027 7.35821 17.685 7.58175 16.5724C8.03899 14.2811 8.68928 12.0254 9.52756 9.84592C9.89843 8.88063 10.2744 7.88995 10.7875 6.99071C11.0618 6.50807 11.514 5.73076 12.1084 5.66471C12.7892 5.58851 13.3785 5.13635 13.3785 4.3946C13.3785 3.76463 12.7943 3.04829 12.1084 3.12449L12.0983 3.11941Z" fill="white"/>
<path d="M13.1804 4.41503H13.2566C13.6783 4.44551 14.1609 4.16609 14.354 3.79014C14.547 3.41419 14.6486 3.02807 14.4911 2.63688C14.2625 2.06787 13.8815 1.75796 13.2668 1.70208C12.4031 1.63095 11.5801 2.45398 10.9501 2.95187C10.3201 3.44975 9.72569 3.98319 9.16684 4.55728C8.06439 5.69022 7.08894 6.96541 6.27607 8.32189C4.61985 11.0856 3.62408 14.2152 3.34466 17.421C3.18716 19.255 3.31418 21.0992 3.66473 22.9078C3.79682 23.5835 4.59953 23.9646 5.2295 23.7969C5.9306 23.6039 6.25067 22.9078 6.11858 22.2321C5.44796 18.8181 5.9052 15.216 7.24136 12.0154C7.89673 10.4455 8.78581 8.92138 9.86286 7.60047C10.9399 6.27955 12.2507 4.82655 13.7596 4.06448L13.1194 4.23722L13.2668 4.24738L12.0424 3.31258L12.0779 3.39894L12.2049 2.41842L12.1592 2.50479L13.2566 1.87481H13.1804C11.5496 1.7732 11.5546 4.31342 13.1804 4.40995V4.41503Z" fill="white"/>
<path d="M12.6266 3.37366C7.87642 9.3381 4.64526 16.4304 3.40563 23.9647C3.29386 24.6404 3.58344 25.3313 4.29471 25.5295C4.90436 25.6971 5.74263 25.3212 5.85948 24.6404C7.0229 17.5583 9.94924 10.7911 14.4251 5.16706C14.8519 4.62853 14.9484 3.89187 14.4251 3.36858C13.9831 2.92659 13.0585 2.83006 12.6266 3.36858V3.37366Z" fill="white"/>
<path d="M9.23289 5.77655C7.53094 4.15081 5.53941 6.86884 4.89419 8.26596C4.0356 10.1152 3.50723 12.1525 3.09064 14.144C2.21172 18.3456 2.08471 22.7351 3.34466 26.8756C3.81714 28.4353 6.27099 27.7698 5.79343 26.1999C4.79766 22.923 4.7367 19.448 5.30063 16.0848C5.58513 14.393 6.00681 12.7266 6.52501 11.0907C6.72823 10.4455 6.94161 9.80534 7.25152 9.20076C7.40393 8.9061 7.57158 8.61143 7.77988 8.35233C7.89673 8.21008 8.05931 8.09323 8.166 7.9459C8.37937 7.65123 8.54703 7.96622 7.90181 7.8138L7.34296 7.48866L7.43441 7.57502C8.61816 8.70288 10.4166 6.90949 9.23289 5.77655Z" fill="white"/>
<path d="M17.1838 6.24899C11.8392 8.52502 7.8815 12.9552 3.83747 16.9636C2.67405 18.1169 4.47252 19.9154 5.63594 18.7621C9.53772 14.8908 13.3074 10.6436 18.4691 8.44374C19.0991 8.17447 19.2414 7.24475 18.9264 6.70623C18.5453 6.05085 17.8239 5.97972 17.1889 6.24899H17.1838Z" fill="white"/>
<path d="M13.2109 4.80628C11.2143 10.2119 9.22273 15.6175 7.22612 21.023C6.98734 21.6683 7.4903 22.4151 8.1152 22.5878C8.82646 22.7809 9.44119 22.349 9.67997 21.6987C11.6766 16.2932 13.6681 10.8876 15.6647 5.48198C15.9035 4.83677 15.4005 4.08994 14.7757 3.91721C14.0644 3.72415 13.4497 4.15599 13.2109 4.80628Z" fill="white"/>
<path d="M10.0813 9.88162C8.72993 12.7876 7.56142 15.7851 6.62154 18.8537C6.16938 20.3372 5.76803 21.8308 5.42256 23.3448C5.04661 24.9908 4.7875 26.6217 5.11773 28.2982C5.24982 28.9739 6.05253 29.3549 6.68251 29.1873C7.38361 28.9942 7.70368 28.2982 7.57159 27.6225C7.30232 26.266 7.67319 24.8689 7.9831 23.5582C8.32349 22.1306 8.7096 20.708 9.14144 19.3058C10 16.5268 11.0466 13.8088 12.271 11.167C12.5606 10.5472 12.4437 9.80033 11.8138 9.42946C11.2651 9.10939 10.3658 9.26181 10.0762 9.8867L10.0813 9.88162Z" fill="white"/>
<path d="M20.2828 7.05183C19.8053 6.14751 18.6571 6.14243 17.9306 6.7216C17.2905 7.22964 16.7215 7.85962 16.1677 8.45403C15.0703 9.63777 14.0542 10.9028 13.1296 12.2288C11.2803 14.8808 9.84254 17.802 8.82137 20.8655C8.30317 22.4202 10.7519 23.0857 11.2701 21.5412C12.1033 19.0467 13.2515 16.6793 14.6791 14.4693C15.365 13.4125 16.1067 12.3965 16.9196 11.4312C17.3464 10.9231 17.7934 10.4252 18.2558 9.9426C18.4996 9.68858 18.7435 9.43963 18.9924 9.19577C19.0889 9.09925 19.2058 9.0078 19.2972 8.90111C19.5716 8.58104 19.1753 8.82998 19.3887 8.7995H18.713L18.8044 8.82998L18.0475 8.24573L18.0932 8.3321C18.8603 9.77494 21.05 8.49467 20.2879 7.05183H20.2828Z" fill="white"/>
<path d="M17.7528 7.83923C18.144 9.7444 17.5292 11.9239 16.9298 13.7325C16.3303 15.5412 15.5377 17.0907 14.5318 18.6047C12.4996 21.6784 9.66473 24.1525 6.36244 25.7681C5.74771 26.0679 5.58005 26.9468 5.9052 27.5056C6.27099 28.1356 7.0229 28.2626 7.64271 27.9629C13.47 25.1127 17.9408 19.6563 19.6783 13.4176C20.2371 11.4057 20.6232 9.24144 20.1965 7.16862C20.0593 6.498 19.2617 6.1068 18.6317 6.27954C17.9306 6.47259 17.6055 7.16862 17.7426 7.84431L17.7528 7.83923Z" fill="white"/>
<path d="M15.6444 9.82573C13.2464 11.7106 11.9052 14.6115 10.4725 17.2229C8.79089 20.2864 7.10927 23.3448 5.42764 26.4083C4.64017 27.841 6.83492 29.1263 7.62239 27.6886C9.26337 24.7013 10.9044 21.7089 12.5453 18.7216C13.9171 16.222 15.1516 13.4227 17.4429 11.6191C17.9814 11.1924 17.8849 10.2677 17.4429 9.82065C16.9094 9.28721 16.188 9.3939 15.6444 9.82065V9.82573Z" fill="white"/>
<path d="M17.0669 9.4854C13.2972 14.5201 11.8442 20.9977 7.59699 25.7022H9.39546L9.52247 25.88V26.5557L9.5428 26.4083C9.6444 25.7326 9.37006 25.0417 8.65372 24.8436C8.05423 24.681 7.19563 25.0468 7.08894 25.7326C6.98225 26.4185 7.07878 26.9977 7.59191 27.5006C8.06439 27.963 8.92298 28.0138 9.39038 27.5006C13.8053 22.6082 15.3447 15.9884 19.2566 10.7707C19.6681 10.2221 19.343 9.3533 18.7994 9.03324C18.1491 8.6522 17.4734 8.93671 17.0618 9.49048L17.0669 9.4854Z" fill="white"/>
<path d="M12.1237 10.9739C9.89335 14.2152 8.29809 17.8935 7.44966 21.7292C7.30233 22.3998 7.65288 23.1009 8.33873 23.294C8.97379 23.4667 9.7511 23.0806 9.90351 22.4049C10.7113 18.7572 12.205 15.3329 14.3235 12.2542C14.7147 11.6903 14.4302 10.8469 13.8663 10.5167C13.2363 10.1509 12.5199 10.4049 12.1287 10.9739H12.1237Z" fill="white"/>
<path d="M31.0432 3.21098C24.3116 6.38117 19.9628 13.4328 20.1406 20.8655C20.1965 23.1212 20.6385 25.3719 21.4768 27.4701C21.7308 28.1051 22.3252 28.5522 23.0415 28.3592C23.6461 28.1915 24.1846 27.4396 23.9306 26.7944C22.2642 22.6233 22.2134 17.7918 24.1084 13.6767C25.79 10.0289 28.7011 7.11783 32.3337 5.40573C32.9535 5.11106 33.116 4.22198 32.7909 3.66822C32.42 3.03316 31.6783 2.92139 31.0534 3.21098H31.0432Z" fill="white"/>
<path d="M30.083 4.74531C27.1364 8.37275 24.6165 12.3304 22.6808 16.5878C20.7502 20.83 19.3684 25.5802 20.6385 30.2186C21.0703 31.7936 23.5191 31.123 23.0873 29.5429C21.9696 25.4481 23.3311 21.1755 25.0635 17.4566C26.796 13.7377 29.1685 9.87656 31.8764 6.53871C32.3083 6.00526 32.3946 5.26352 31.8764 4.74023C31.4293 4.29315 30.5149 4.20679 30.0779 4.74023L30.083 4.74531Z" fill="white"/>
<path d="M30.84 4.94349L30.7638 4.93332L31.8612 5.5633L31.8307 5.50741L32.0034 6.14755L32.0136 6.07134L31.8408 6.71148L31.7443 6.81817L31.1855 7.14332L31.2617 7.11283H30.586L30.6723 7.13316L30.1135 6.80801L30.2049 6.90454L29.8798 6.34569C29.9204 6.07134 29.9204 6.0053 29.8798 6.16279C29.8544 6.2644 29.8188 6.36601 29.7833 6.46254C29.7071 6.69116 29.6309 6.91978 29.5496 7.1484C29.4226 7.52943 29.2905 7.91046 29.1584 8.2915C28.8688 9.12977 28.569 9.96296 28.2693 10.7911C27.6495 12.493 27.0043 14.1848 26.3286 15.8614C25.0077 19.1586 23.575 22.41 22.0508 25.6158C21.7562 26.2356 21.8781 26.9875 22.5081 27.3533C23.0618 27.6785 23.9509 27.521 24.2456 26.8961C26.3286 22.5116 28.2388 18.0409 29.9611 13.4989C30.3878 12.3711 30.8044 11.2382 31.2109 10.1001C31.6173 8.96211 32.0847 7.89014 32.354 6.76228C32.6486 5.51758 31.5513 4.03917 30.2151 4.81647C29.7629 5.08066 29.4683 5.61918 29.4784 6.13739C29.4886 6.95534 30.1135 7.37702 30.8552 7.46846C31.536 7.55483 32.1253 6.82325 32.1253 6.19835C32.1253 5.44137 31.5411 5.01461 30.8552 4.92824L30.84 4.94349Z" fill="white"/>
<path d="M30.1033 5.79171C26.0187 12.7011 22.8993 20.1744 20.8722 27.9374C20.4607 29.5224 22.9094 30.1931 23.321 28.613C25.2972 21.0483 28.315 13.8036 32.2981 7.07198C33.1313 5.65962 30.9365 4.38443 30.1033 5.79171Z" fill="white"/>
<path d="M25.3277 8.77413C22.9552 12.7877 21.7054 17.4007 21.7409 22.0646C21.7511 23.7005 24.2913 23.7005 24.2812 22.0646C24.2507 17.8376 25.3684 13.6971 27.5174 10.0544C28.3506 8.64204 26.1558 7.36685 25.3227 8.77413H25.3277Z" fill="white"/>
<path d="M31.0686 7.06194C31.2668 7.80876 31.4293 8.56067 31.5614 9.31766C31.5919 9.49547 31.6224 9.67329 31.6478 9.85618C31.663 9.94763 31.6732 10.034 31.6884 10.1254C31.663 9.94255 31.6986 10.2271 31.7037 10.2575C31.7545 10.6894 31.7951 11.1161 31.8561 11.548C32.0644 13.0365 32.8519 14.5759 34.4319 14.962C35.0771 15.1195 35.8392 14.7588 35.9967 14.0729C36.1541 13.3871 35.7985 12.6809 35.1076 12.5082C35.0415 12.4929 34.9806 12.4777 34.9145 12.4574C35.0669 12.5234 35.0771 12.5285 34.9501 12.4624C34.8942 12.432 34.8383 12.3913 34.7824 12.3558C34.9094 12.4523 34.9196 12.4523 34.8129 12.3558C34.7672 12.31 34.7215 12.2592 34.6757 12.2084C34.757 12.3202 34.7723 12.3405 34.7215 12.2643C34.6656 12.1627 34.5995 12.0611 34.5436 11.9595C34.4878 11.8376 34.4878 11.8376 34.5436 11.9595C34.5132 11.8833 34.4878 11.802 34.4674 11.7207C34.4217 11.5632 34.3862 11.4006 34.3557 11.233C34.3455 11.1822 34.2947 10.8316 34.3303 11.0755C34.3099 10.9078 34.2947 10.7402 34.2744 10.5776C34.1169 9.16016 33.8781 7.75796 33.5123 6.38116C33.3447 5.74103 32.5978 5.28379 31.9475 5.49208C31.2972 5.70038 30.8806 6.36592 31.0585 7.05686L31.0686 7.06194Z" fill="white"/>
<path d="M31.9221 5.63443C31.6529 6.96043 31.409 8.28642 31.1906 9.62258C31.1347 9.96805 31.1347 10.2881 31.3176 10.6031C31.47 10.8673 31.7748 11.1162 32.0746 11.1874C32.3997 11.2636 32.7655 11.2432 33.0551 11.0603C33.3142 10.8927 33.5834 10.6234 33.6393 10.3034C33.8578 8.97228 34.1017 7.64121 34.3709 6.31521C34.437 5.9799 34.4217 5.63952 34.2439 5.33469C34.0915 5.07051 33.7867 4.82156 33.4869 4.75044C32.8569 4.60819 32.0644 4.9435 31.9221 5.63952V5.63443Z" fill="white"/>
<path d="M33.6444 10.9587C35.0568 10.5777 36.4386 10.1052 37.785 9.54127C38.105 9.40918 38.359 9.27201 38.5419 8.95702C38.6994 8.68268 38.7706 8.28132 38.669 7.9765C38.5673 7.67167 38.3794 7.37192 38.0847 7.21951C37.79 7.0671 37.4141 6.96041 37.1042 7.0925C35.7579 7.65643 34.376 8.12891 32.9636 8.50994C32.3235 8.68268 31.8662 9.42442 32.0745 10.0747C32.2828 10.725 32.9484 11.1467 33.6393 10.9638L33.6444 10.9587Z" fill="white"/>
<path d="M36.3929 7.9917L34.1626 14.6674L33.05 18.0052C32.862 18.5641 32.6791 19.1179 32.4911 19.6767C32.4454 19.8088 32.4099 19.9561 32.3591 20.0831C32.2727 20.2914 32.039 20.4235 32.3641 20.2914C31.7291 20.5505 31.282 21.1348 31.4751 21.8562C31.6376 22.4557 32.3997 23.0044 33.0398 22.7453C34.249 22.2474 34.6249 21.2872 35.0161 20.1187L36.2913 16.3033C37.1398 13.758 37.9882 11.2178 38.8417 8.67248C39.3599 7.11787 36.9061 6.45233 36.3929 7.99678V7.9917Z" fill="white"/>
<path d="M36.2659 9.18039C35.5902 12.3557 34.2032 15.2769 32.359 17.9441C31.4446 19.2701 30.4132 20.5098 29.3159 21.6884C28.7773 22.2676 28.2185 22.8315 27.6444 23.3802C27.3447 23.6647 27.0449 23.9492 26.7401 24.2236C26.5877 24.3607 26.4353 24.4979 26.2828 24.6351C26.2066 24.7011 26.1304 24.7723 26.0542 24.8383C25.851 24.9958 25.8459 25.0161 26.0339 24.8993L27.0144 25.0263L26.9382 24.9653L27.5225 25.7223L27.5021 25.6258L27.177 26.8603L27.2329 26.7994C28.3099 25.58 26.5216 23.7765 25.4344 25.0009C24.3472 26.2253 25.7138 27.9882 27.1618 27.1855C27.9746 26.7384 28.7113 25.8696 29.3768 25.2346C30.8603 23.8171 32.2371 22.293 33.492 20.6673C35.9611 17.4666 37.8764 13.8137 38.7248 9.84085C39.0652 8.24559 36.6165 7.56481 36.2761 9.16515L36.2659 9.18039Z" fill="white"/>
<path d="M34.1118 8.38273C31.3938 14.3014 26.862 19.199 24.6012 25.3514C24.3624 25.9966 24.8654 26.7434 25.4903 26.9162C26.1965 27.1092 26.8163 26.6774 27.0551 26.0271C29.2295 20.1033 33.685 15.3683 36.3066 9.66301C36.5911 9.03811 36.4844 8.29637 35.8493 7.92549C35.3006 7.60543 34.4014 7.75276 34.1118 8.38273Z" fill="white"/>
<path d="M33.3701 13.0569C30.1999 16.4963 27.558 20.3981 25.5818 24.6352C25.2922 25.255 25.409 26.0018 26.039 26.3727C26.5877 26.6928 27.4869 26.5404 27.7765 25.9155C29.6613 21.8664 32.1406 18.1322 35.1685 14.8503C36.2761 13.6513 34.4827 11.8477 33.3701 13.0518V13.0569Z" fill="white"/>
<path d="M31.1347 21.5565C26.4861 24.1476 23.4124 28.9791 22.884 34.2475C22.8129 34.9333 23.5191 35.5176 24.1541 35.5176C24.8959 35.5176 25.3531 34.9333 25.4243 34.2475C25.8663 29.8732 28.5995 25.8749 32.42 23.7513C33.8476 22.9536 32.5674 20.7589 31.1398 21.5565H31.1347Z" fill="white"/>
<path d="M15.553 29.4005L15.5225 29.3599L14.5318 28.0746C13.9577 27.4547 13.2769 27.0178 12.4895 26.7638C11.2956 26.2608 9.60884 25.9408 8.35398 26.4437C7.29216 26.8705 6.2964 27.221 5.48353 28.105C4.7367 28.9179 4.09657 29.8933 3.83238 30.9704C3.16177 33.7748 4.2947 36.6249 6.74856 38.144C7.73924 38.7536 9.01443 39.1296 10.1829 39.0635C10.9044 39.0229 11.6359 38.8756 12.3421 38.7486C12.8959 38.652 13.4497 38.5657 14.0085 38.4844L12.3218 38.713C15.6698 38.2659 19.0483 38.2151 22.4014 38.5707C23.9204 38.7282 25.8561 37.7477 26.8925 36.7113C27.995 35.6088 28.8231 33.8002 28.7519 32.2202C28.6808 30.6402 28.1372 28.8722 26.8925 27.7291L25.6072 26.7384C24.6165 26.1643 23.5496 25.8747 22.4014 25.8696C17.7477 25.3819 13.0889 25.7274 8.49623 26.586L10.1829 26.3574H10.0508C11.1177 26.652 12.1897 26.9416 13.2566 27.2312L13.1601 27.1702L16.0762 34.3438L16.0915 34.2778L11.6563 38.713L11.7223 38.6876C9.32942 37.7172 6.94161 36.7418 4.54873 35.7714L4.57921 35.8121C4.98056 36.5538 5.52417 37.1482 6.21511 37.5953C6.82984 38.1541 7.54619 38.5352 8.3743 38.7333C9.89335 39.1499 11.9204 38.9619 13.2668 38.0932C14.6131 37.2244 15.8171 35.9188 16.1829 34.2981C16.5487 32.6774 16.5538 30.7316 15.5428 29.4056L15.553 29.4005Z" fill="white"/>
<path d="M10.0813 28.4912C8.86201 28.7097 7.49538 29.5581 6.62154 30.4218C6.04237 30.9959 5.47336 31.7173 5.12789 32.4641C4.36583 34.1204 3.93399 35.7613 3.99495 37.6106C4.05592 39.4599 4.44203 41.3956 5.49368 42.9654C7.11434 45.3989 9.51739 46.8621 12.4793 47.0044C13.9831 47.0755 15.5784 46.6386 17.0263 46.2321C18.4742 45.8257 19.8612 45.277 21.2024 44.6318C21.5987 44.4387 21.9645 44.2152 22.3201 43.9561C22.9958 43.4633 23.7172 42.9654 24.2811 42.3304C25.8459 40.5674 26.8417 38.4743 26.8112 36.0763C26.7858 34.0543 25.8916 32.3117 24.3066 31.0873C22.8434 29.9544 20.6029 29.233 18.7689 29.9493C17.0923 30.6047 15.5123 31.3668 14.2981 32.7537C12.7181 34.5522 11.8036 36.5336 11.6105 38.9366C11.2955 42.9298 14.5165 46.4252 18.271 47.2533C21.8629 48.0459 25.8764 47.2228 28.691 44.8198C30.779 43.0365 31.5767 39.9832 30.8502 37.3668C30.3523 35.5581 29.1533 34.3998 28.0356 32.9874L29.0263 34.2728C28.8789 34.0594 28.7519 33.846 28.6452 33.6123L29.2854 35.1314C29.1635 34.8316 29.0771 34.5319 29.0212 34.2118L29.2498 35.8985C29.2092 35.5785 29.2041 35.2685 29.2295 34.9434L29.0009 36.6301C29.0466 36.31 29.1228 36.0103 29.2397 35.7055L28.5995 37.2245C29.1126 36.0763 29.829 35.0044 30.0729 33.7546C30.2405 32.8858 30.3929 32.0221 30.2964 31.1483C30.2202 30.4574 30.1643 29.7309 29.9712 29.0602C29.7782 28.3896 29.4581 27.7901 29.1787 27.1652L28.188 25.8799L26.9027 24.8892C25.6681 24.1678 24.2557 23.9493 22.8535 24.1373C20.3184 24.4777 18.3421 26.2457 17.575 28.6843C17.4581 29.0602 17.3413 29.4362 17.2193 29.8122C16.7367 31.3515 17.0568 33.3329 17.8595 34.7046C18.6622 36.0763 20.1406 37.2804 21.6546 37.6208C23.2803 37.9917 25.1042 37.9104 26.547 36.9807C27.9899 36.0509 28.9501 34.8164 29.4632 33.1856C29.58 32.8096 29.6969 32.4337 29.8188 32.0577C25.9475 32.5657 22.0813 33.0687 18.21 33.5768L18.2913 33.7647L17.6512 32.2457C17.7223 32.4438 17.7731 32.6318 17.8188 32.835L17.5902 31.1483C17.6258 31.4277 17.6309 31.6868 17.6105 31.9663L17.8392 30.2796C17.7985 30.5539 17.7274 30.8079 17.6258 31.067L18.2659 29.548C17.7985 30.5691 17.2346 31.5192 16.8891 32.6064C16.6554 33.3481 16.5843 34.1864 16.5233 34.9485C16.4979 35.2736 16.5081 35.5784 16.5436 35.9036C16.7316 37.57 16.9907 38.8807 17.8493 40.3693C18.4031 41.3295 19.2058 42.1017 19.8967 42.9502L18.906 41.6648C19.0127 41.8122 19.0991 41.9493 19.1804 42.1068L18.5403 40.5878C18.586 40.6894 18.6165 40.7961 18.6317 40.9028L18.4031 39.216C18.4183 39.3278 18.4183 39.4396 18.398 39.5514L18.6266 37.8646L18.5809 38.0221L19.221 36.5031C19.1855 36.6047 19.1296 36.6961 19.0686 36.7825L20.0593 35.4972C19.9475 35.6293 19.8358 35.7309 19.6986 35.8376L20.9839 34.8469C20.7909 34.9739 20.5928 35.0755 20.3845 35.172L21.9035 34.5319C21.3294 34.7605 20.7452 34.918 20.1355 35.0145L21.8222 34.7859C21.2786 34.8519 20.7401 34.8824 20.1965 34.8215L21.8832 35.0501C21.553 34.9993 21.243 34.9231 20.9331 34.8011L22.4522 35.4413C22.2083 35.3346 21.9848 35.2076 21.7765 35.0501L23.0618 36.0408C22.945 35.9392 22.8485 35.8376 22.7469 35.7207L23.7375 37.0061C23.6512 36.879 23.58 36.7622 23.5191 36.6199L24.1592 38.139C24.1237 38.0425 24.0932 37.9459 24.0779 37.8443L24.3066 39.531C24.2862 39.3227 24.2862 39.15 24.3066 38.9417L24.0779 40.6284C24.1287 40.3693 24.2049 40.1305 24.3066 39.8816L23.6664 41.4006C23.8036 41.1161 23.956 40.852 24.144 40.5979L23.1533 41.8833C23.3921 41.5886 23.6512 41.3295 23.9509 41.1009L22.6656 42.0916C22.9247 41.9087 23.1889 41.7563 23.4784 41.6293L21.9594 42.2694L22.1321 42.2033L14.0949 36.0814C14.0999 36.1983 14.0949 36.3202 14.0847 36.437L14.3133 34.7503C14.2778 34.984 14.2168 35.1974 14.1304 35.4159L14.7706 33.8968C14.669 34.1102 14.547 34.3083 14.4048 34.5014L15.3955 33.216C15.1618 33.5056 14.8976 33.7546 14.608 33.9883L15.8933 32.9976C15.4107 33.3532 14.8976 33.6276 14.3489 33.8714L15.8679 33.2313C14.4505 33.8257 12.8806 34.3236 11.3565 34.537L13.0432 34.3083C12.8044 34.3287 12.5911 34.3287 12.3574 34.3083L14.0441 34.537C13.9069 34.5166 13.7748 34.4811 13.6478 34.4354L15.1668 35.0755C14.9941 34.9993 14.8468 34.918 14.6893 34.8164L15.9746 35.8071C15.7816 35.6496 15.6139 35.4819 15.4615 35.2889L16.4522 36.5742C16.3099 36.3659 16.1982 36.1576 16.0966 35.929L16.7367 37.4481C16.6351 37.1686 16.569 36.8943 16.5182 36.5996L16.7469 38.2863C16.6808 37.7427 16.6707 37.194 16.7265 36.6453L16.4979 38.332C16.5436 38.0018 16.6148 37.6868 16.7316 37.3718L16.0915 38.8909C16.1778 38.6978 16.2693 38.52 16.3912 38.3473L15.4005 39.6326C15.5022 39.5158 15.5936 39.4243 15.7155 39.3278L14.4302 40.3185C14.5115 40.2626 14.5928 40.2169 14.6842 40.1813L13.1651 40.8215C13.2617 40.7859 13.3582 40.7605 13.4547 40.7503C14.9382 40.4862 16.5182 39.084 17.2498 37.8342C18.0474 36.4726 18.3828 34.4658 17.89 32.9417C17.3972 31.4176 16.442 29.9239 14.9738 29.1466L13.4547 28.5065C12.3269 28.2017 11.2041 28.2017 10.0762 28.5065L10.0813 28.4912Z" fill="white"/>
<path d="M6.30656 24.5945L5.76295 24.4166C5.2295 24.2439 4.60461 24.5284 4.33027 25.0009C3.5428 26.3523 3.50215 27.8713 3.58344 29.3904C3.62409 30.1626 3.69013 30.945 3.60376 31.7122C3.5174 32.4793 3.26337 33.2515 2.99919 33.978C2.45558 35.4717 1.58683 36.9501 1.64271 38.586C1.6986 40.2219 2.53179 41.6851 3.48691 42.9806C3.89335 43.5293 4.58937 43.8087 5.22442 43.4378C5.76803 43.1177 6.0881 42.2541 5.68166 41.7003C4.96024 40.7198 4.09657 39.5513 4.18293 38.2659C4.22866 37.5851 4.53856 36.9196 4.79259 36.2896C5.07709 35.5987 5.3616 34.9128 5.60038 34.2067C6.06778 32.8045 6.22527 31.387 6.14906 29.9137C6.0881 28.7096 5.88488 27.3684 6.51994 26.2812L5.08725 26.8654L5.63086 27.0432C7.19055 27.5462 7.85609 25.0923 6.30656 24.5945Z" fill="white"/>
<path d="M9.01952 23.9545C8.82138 26.0476 8.94331 28.1255 9.5174 30.1526C9.69521 30.7927 10.4217 31.25 11.0822 31.0417C11.7426 30.8334 12.1643 30.1628 11.9713 29.4769C11.8392 29.0095 11.7274 28.537 11.641 28.0595C11.6207 27.9477 11.6004 27.841 11.5851 27.7292C11.575 27.653 11.5648 27.5819 11.5547 27.5057C11.575 27.6378 11.575 27.6581 11.5648 27.5667C11.5394 27.3228 11.514 27.084 11.4937 26.8402C11.4276 25.8749 11.4734 24.9147 11.5648 23.9494C11.6258 23.2838 10.9348 22.6488 10.2947 22.6793C9.55296 22.7148 9.09064 23.2381 9.0246 23.9494L9.01952 23.9545Z" fill="white"/>
<path d="M13.5614 4.67928L13.8764 8.31179C13.9069 8.65218 13.9983 8.96209 14.2473 9.21103C14.4657 9.42949 14.8315 9.59714 15.1465 9.5819C15.4615 9.56666 15.8171 9.45997 16.0458 9.21103C16.2642 8.97733 16.4471 8.6471 16.4166 8.31179L16.1016 4.67928C16.0712 4.33889 15.9797 4.02898 15.7308 3.78004C15.5123 3.56158 15.1465 3.39392 14.8315 3.40917C14.5165 3.42441 14.1609 3.5311 13.9323 3.78004C13.7138 4.01374 13.5309 4.34397 13.5614 4.67928Z" fill="white"/>
<path d="M16.3455 8.56575C16.7621 8.52003 17.1787 8.45906 17.5801 8.34221C17.9814 8.22536 18.3624 8.06279 18.7333 7.87481C18.8806 7.79352 19.0026 7.68683 19.0889 7.54966C19.2007 7.42773 19.2769 7.28548 19.3176 7.11782C19.3684 6.95017 19.3785 6.78251 19.3379 6.60978C19.3277 6.44213 19.282 6.28463 19.1855 6.1373C19.0127 5.86804 18.7486 5.62925 18.4285 5.55305L18.0932 5.50732C17.8646 5.50732 17.6512 5.56829 17.453 5.68006C17.3413 5.73594 17.2244 5.79183 17.1076 5.83755L17.4124 5.71054C17.006 5.88328 16.5741 5.99505 16.1372 6.05601L16.4725 6.01029C16.4319 6.01537 16.3912 6.02045 16.3455 6.02553C16.1728 6.02045 16.0051 6.05601 15.8578 6.1373C15.7003 6.1881 15.5631 6.27447 15.4513 6.40148C15.3294 6.51833 15.238 6.65042 15.1872 6.80792C15.1059 6.96033 15.0703 7.1229 15.0754 7.29564C15.0906 7.62587 15.1973 7.96626 15.4463 8.19488L15.7054 8.39301C15.9035 8.50986 16.1169 8.56575 16.3455 8.56575Z" fill="white"/>
<path d="M9.7257 25.4023C10.2947 27.2211 11.011 29.0907 12.7028 30.1576C13.2668 30.5132 14.1254 30.2947 14.4403 29.7003C14.7706 29.0754 14.5877 28.3438 13.9831 27.9628C13.8815 27.9018 13.785 27.8307 13.6935 27.7596L13.9526 27.9577C13.6783 27.7393 13.4344 27.4903 13.221 27.216L13.4192 27.4751C13.0839 27.028 12.8298 26.5352 12.6114 26.0221L12.7384 26.3269C12.5199 25.8036 12.3472 25.2702 12.1795 24.7266C11.9814 24.0915 11.2854 23.6241 10.6148 23.8375C9.94416 24.0509 9.5174 24.7215 9.7257 25.4023Z" fill="white"/>
<path d="M13.8713 27.3785C14.0085 27.3176 14.0187 27.3125 13.8967 27.3633C13.9729 27.3328 14.0441 27.3074 14.1203 27.2769C14.2524 27.2312 14.3845 27.1855 14.5166 27.1448C14.8011 27.0585 15.0906 26.9823 15.3853 26.9264C15.5022 26.9061 15.619 26.8857 15.7359 26.8654C15.4615 26.9061 15.9442 26.8451 15.9899 26.8451C16.2693 26.8248 16.5487 26.8146 16.8231 26.8197C17.0974 26.8248 17.3819 26.8451 17.6563 26.8756C17.3819 26.8451 17.8595 26.9111 17.9103 26.9213C18.0271 26.9416 18.144 26.967 18.2608 26.9975C18.5301 27.0636 18.7994 27.1398 19.0635 27.2312C19.1042 27.2465 19.5462 27.4141 19.3176 27.3176C19.4649 27.3785 19.6072 27.4497 19.7494 27.5208C20.3438 27.8155 21.1516 27.6986 21.4869 27.0636C21.7917 26.4895 21.6647 25.641 21.0297 25.326C18.3523 24.0001 15.304 23.9696 12.5809 25.1787C11.9712 25.448 11.7833 26.3828 12.1237 26.9162C12.5301 27.5462 13.2109 27.6631 13.8612 27.3735L13.8713 27.3785Z" fill="white"/>
<path d="M30.8654 7.73265C29.7223 8.70809 28.8942 10.1001 28.5589 11.5582C28.4827 11.8884 28.5132 12.239 28.6859 12.5387C28.8383 12.8029 29.1431 13.0519 29.4429 13.123C30.0881 13.2703 30.8451 12.9299 31.0077 12.2339C31.0839 11.8935 31.1905 11.5582 31.3277 11.2331L31.2007 11.5379C31.409 11.0553 31.6732 10.598 31.9933 10.1814L31.7951 10.4405C32.0542 10.1103 32.3438 9.80547 32.6639 9.53112C32.8976 9.32791 33.0347 8.93163 33.0347 8.63189C33.0347 8.33214 32.8976 7.94603 32.6639 7.73265C32.4302 7.51927 32.105 7.34654 31.7646 7.36178C31.4243 7.37702 31.1347 7.50403 30.8654 7.73265Z" fill="white"/>
<path d="M13.5309 26.0069C13.6732 25.9459 13.6935 25.9358 13.597 25.9764C13.6783 25.9459 13.7646 25.9104 13.8459 25.8799C14.0136 25.8189 14.1812 25.763 14.354 25.7122C14.6537 25.6259 14.9585 25.5547 15.2634 25.4988C15.3497 25.4836 15.4361 25.4684 15.5276 25.4531C15.4107 25.4684 15.431 25.4684 15.5885 25.448C15.7663 25.4328 15.9442 25.4176 16.122 25.4074C16.4319 25.3922 16.7469 25.3922 17.0568 25.4074C17.6105 25.4379 18.1338 25.5192 18.8197 25.7224C19.5055 25.9256 19.8307 26.0729 20.4708 26.4438C21.0449 26.7791 21.8883 26.5962 22.2083 25.9866C22.5284 25.3769 22.3658 24.6047 21.7511 24.2491C18.8451 22.5573 15.3091 22.4455 12.2558 23.802C11.6309 24.0814 11.4835 24.9959 11.7985 25.5395C12.1745 26.1847 12.906 26.2762 13.536 25.9967L13.5309 26.0069Z" fill="white"/>
<path d="M12.1491 31.1025C12.017 31.0415 11.8849 30.9755 11.7426 30.9399C11.7223 30.9348 11.6969 30.9297 11.6766 30.9297C11.5496 30.9094 11.4175 30.884 11.2905 30.8789C11.1431 30.8739 10.9907 30.9043 10.8485 30.9297C10.8027 30.9348 10.757 30.945 10.7113 30.9653C10.5335 31.0263 10.3506 31.0974 10.1931 31.2092C10.0762 31.2955 9.95939 31.3768 9.85271 31.4784C9.78158 31.5445 9.72569 31.6258 9.66473 31.702C9.60376 31.7782 9.54788 31.8493 9.49707 31.9306C9.42087 32.0576 9.3599 32.2202 9.31418 32.3472C9.29894 32.3878 9.28369 32.4285 9.27353 32.4691C9.23797 32.6164 9.22273 32.7689 9.21257 32.9213C9.20749 33.0178 9.22781 33.1092 9.23797 33.2058C9.24813 33.3023 9.25829 33.4039 9.28878 33.4954C9.39038 33.8002 9.5174 34.0085 9.72569 34.2473C9.7511 34.2778 9.7765 34.3032 9.80698 34.3235C9.91367 34.4149 10.0254 34.5064 10.1474 34.5826C10.2693 34.6588 10.4065 34.6994 10.5335 34.7502C10.569 34.7655 10.6097 34.7807 10.6503 34.7858C10.7926 34.8214 10.9399 34.8315 11.0822 34.8468C11.1279 34.8518 11.1685 34.8569 11.2143 34.8569C11.2549 34.8569 11.2905 34.8569 11.3311 34.8468C11.4784 34.8315 11.6309 34.8163 11.7731 34.7807C11.8087 34.7706 11.8493 34.7604 11.8849 34.7452C12.0221 34.6943 12.1592 34.6385 12.2862 34.5724C12.3218 34.5572 12.3523 34.5369 12.3828 34.5115C12.4996 34.4302 12.6165 34.3438 12.7181 34.2473C12.8197 34.1507 12.901 34.0288 12.9873 33.912C13.0127 33.8815 13.0331 33.8459 13.0534 33.8104C13.2058 33.5106 13.2617 33.2871 13.2922 32.9568C13.2922 32.9111 13.2972 32.8654 13.2922 32.8197C13.282 32.6672 13.2668 32.5098 13.2261 32.3573C13.1753 32.1643 13.094 31.9712 12.9873 31.8036C12.906 31.6816 12.8146 31.5648 12.7181 31.453C12.6876 31.4124 12.652 31.3768 12.6114 31.3463C12.4691 31.2193 12.3066 31.0822 12.1287 31.0009C11.9916 30.9348 11.8493 30.8688 11.7071 30.8281C11.5648 30.7875 11.3972 30.7722 11.2447 30.757C11.0466 30.7316 10.8332 30.7672 10.6453 30.8129C10.4979 30.8485 10.3607 30.9196 10.2236 30.9805C10.1728 31.0059 10.122 31.0313 10.0762 31.0618C9.94923 31.1482 9.81714 31.2447 9.70537 31.3514C9.5936 31.4581 9.50215 31.5902 9.41071 31.7172C9.38022 31.7579 9.34974 31.8036 9.32942 31.8493C9.25829 31.9865 9.19225 32.1389 9.14652 32.2862C9.13636 32.3116 9.13128 32.3421 9.1262 32.3675C9.1262 32.3777 9.1262 32.3929 9.12112 32.4031C9.10588 32.4793 9.0754 32.6723 9.0754 32.7536C9.0754 32.8044 9.11096 33.0534 9.1262 33.0991C9.1516 33.2109 9.20749 33.3175 9.26337 33.4192C9.27353 33.4344 9.27861 33.4496 9.28878 33.4649C9.34974 33.5614 9.43611 33.6681 9.51232 33.7545C9.52248 33.7646 9.53264 33.7748 9.5428 33.7849C9.62917 33.8662 9.73077 33.9424 9.8273 34.0085C9.84254 34.0186 9.85779 34.0288 9.87811 34.039C9.97972 34.0949 10.1016 34.1406 10.2083 34.1812C10.2236 34.1863 10.2388 34.1914 10.2541 34.1965C10.3912 34.2371 10.5386 34.2473 10.6808 34.2574C10.8586 34.2727 11.0415 34.2371 11.2143 34.1965C11.2498 34.1863 11.2803 34.1761 11.3159 34.166C11.448 34.1152 11.5902 34.0644 11.7121 33.9932C11.8595 33.9069 12.0017 33.8002 12.1186 33.6732C12.2049 33.5766 12.2964 33.4649 12.3624 33.348C12.3726 33.3328 12.3777 33.3175 12.3828 33.3023C12.4336 33.1956 12.4895 33.0788 12.525 32.967C12.525 32.9518 12.5352 32.9365 12.5352 32.9162C12.5555 32.8044 12.5809 32.6622 12.586 32.5504C12.586 32.5352 12.586 32.5148 12.586 32.4996C12.5809 32.3777 12.5606 32.2354 12.5352 32.1135C12.4691 31.8341 12.3218 31.6054 12.1338 31.3971C12.0475 31.3006 11.9306 31.2193 11.8188 31.1431C11.7934 31.1228 11.763 31.1076 11.7325 31.0923C11.4429 30.9551 11.2447 30.8993 10.9196 30.884C10.8891 30.884 10.8536 30.884 10.8231 30.884C10.6808 30.8942 10.5335 30.9094 10.3963 30.945C10.3658 30.9551 10.3303 30.9653 10.2998 30.9755C10.1728 31.0263 10.0356 31.072 9.91367 31.1431C9.79174 31.2142 9.69013 31.3006 9.58852 31.387C9.55804 31.4124 9.53264 31.4327 9.51232 31.4632C9.42595 31.5597 9.3345 31.6664 9.26845 31.7833C9.23797 31.8391 9.21257 31.9103 9.18717 31.9661C9.16176 32.022 9.1262 32.0982 9.10588 32.1643C9.08556 32.2303 9.08556 32.3065 9.0754 32.3675C9.06524 32.4285 9.05 32.5098 9.05 32.5809C9.05 32.5961 9.05 32.6114 9.05 32.6266C9.06016 32.7536 9.0754 32.8857 9.1008 33.0127C9.14144 33.1804 9.21765 33.3226 9.32942 33.4446C9.42087 33.5817 9.53772 33.6935 9.68505 33.7697C9.83238 33.8612 9.98988 33.912 10.1575 33.9221C10.3252 33.9577 10.4928 33.9526 10.6656 33.9018C10.9704 33.8002 11.2701 33.6122 11.4226 33.3175L11.5496 33.0127C11.6105 32.7892 11.6105 32.5606 11.5496 32.337C11.5496 32.3269 11.5496 32.3167 11.5445 32.3065L11.5902 32.6418C11.5902 32.6063 11.5902 32.5707 11.5902 32.5402L11.5445 32.8755C11.5445 32.8451 11.5547 32.8197 11.5699 32.7943L11.4429 33.0991C11.4581 33.0686 11.4734 33.0432 11.4937 33.0127L11.2956 33.2718C11.321 33.2363 11.3514 33.2058 11.387 33.1804L11.1279 33.3785C11.1685 33.348 11.2143 33.3226 11.26 33.3023L10.9552 33.4293C11.011 33.4039 11.072 33.3887 11.133 33.3785L10.7977 33.4242C10.8536 33.4192 10.9094 33.4141 10.9653 33.4242L10.63 33.3785C10.6757 33.3836 10.7164 33.3938 10.757 33.4141L10.4522 33.2871C10.4827 33.3023 10.5081 33.3175 10.5386 33.3379L10.2795 33.1397C10.2795 33.1397 10.3201 33.1753 10.3404 33.2007L10.1423 32.9416C10.1423 32.9416 10.1728 32.9924 10.188 33.0178L10.061 32.713C10.0762 32.7485 10.0864 32.7841 10.0915 32.8197L10.0458 32.4844C10.0458 32.5148 10.0458 32.5453 10.0458 32.5758L10.0915 32.2405C10.0915 32.271 10.0813 32.2964 10.0712 32.3218L10.1982 32.017C10.1829 32.0525 10.1626 32.0881 10.1372 32.1186L10.3353 31.8595C10.3049 31.895 10.2744 31.9255 10.2388 31.956L10.4979 31.7579C10.4573 31.7883 10.4116 31.8137 10.3607 31.8341L10.6656 31.707C10.6046 31.7324 10.5436 31.7477 10.4827 31.7579L10.818 31.7121C10.7672 31.7172 10.7164 31.7172 10.6656 31.7121L11.0009 31.7579C10.9602 31.7528 10.9247 31.7426 10.8891 31.7274L11.1939 31.8544C11.1685 31.8442 11.1431 31.829 11.1177 31.8137L11.3768 32.0119C11.3768 32.0119 11.3311 31.9763 11.3159 31.9509L11.514 32.21C11.514 32.21 11.4784 32.1592 11.4683 32.1287L11.5953 32.4336V32.4183C11.5902 32.6418 11.5902 32.8705 11.5902 33.094C11.6004 33.0229 11.6207 32.9518 11.6512 32.8857L11.5242 33.1905C11.5547 33.1245 11.5902 33.0635 11.6309 33.0026L11.4327 33.2617C11.4835 33.1956 11.5394 33.1397 11.6004 33.094L11.3413 33.2921C11.3972 33.2464 11.4632 33.2109 11.5293 33.1855L11.2244 33.3125C11.2803 33.2921 11.3362 33.2718 11.3972 33.2617L11.0618 33.3074C11.133 33.2972 11.2041 33.2972 11.2752 33.3074L10.9399 33.2617C11.011 33.2718 11.0771 33.2921 11.1431 33.3175L10.8383 33.1905C10.9196 33.2261 10.9907 33.2667 11.0618 33.3226L10.8027 33.1245C10.8688 33.1804 10.9298 33.2413 10.9856 33.3074L10.7875 33.0483C10.8281 33.1042 10.8637 33.1651 10.8942 33.2312L10.7672 32.9264C10.7926 32.9924 10.8129 33.0584 10.8231 33.1296L10.7773 32.7943C10.7875 32.8552 10.7875 32.9213 10.7773 32.9822L10.8231 32.6469C10.8129 32.7079 10.7977 32.7638 10.7773 32.8197L10.9044 32.5148C10.884 32.5606 10.8586 32.6063 10.8231 32.6469L11.0212 32.3878C10.9856 32.4336 10.945 32.4742 10.8993 32.5098L11.1584 32.3116C11.0974 32.3573 11.0314 32.398 10.9602 32.4234L11.2651 32.2964C11.1889 32.3269 11.1076 32.3472 11.0263 32.3624L11.3616 32.3167C11.2803 32.3269 11.199 32.3269 11.1127 32.3167L11.448 32.3624C11.3718 32.3523 11.3006 32.3319 11.2295 32.3015L11.5343 32.4285C11.4835 32.4031 11.4327 32.3777 11.387 32.3421L11.6461 32.5402C11.6055 32.5098 11.5699 32.4742 11.5343 32.4336L11.7325 32.6927C11.6969 32.6469 11.6715 32.6012 11.6512 32.5504L11.7782 32.8552C11.7579 32.8044 11.7477 32.7587 11.7375 32.7079L11.7833 33.0432C11.7782 32.9873 11.7833 32.9314 11.7833 32.8705L11.7375 33.2058C11.7477 33.1397 11.768 33.0788 11.7884 33.0178L11.6613 33.3226C11.6918 33.2515 11.7325 33.1804 11.7833 33.1194L11.5851 33.3785C11.6309 33.3226 11.6817 33.2718 11.7375 33.2261L11.4784 33.4242C11.5343 33.3785 11.5953 33.3429 11.6613 33.3125L11.3565 33.4395C11.4175 33.4141 11.4734 33.3988 11.5394 33.3887L11.2041 33.4344C11.2549 33.4293 11.3057 33.4293 11.3565 33.4344L11.0212 33.3887C11.072 33.3938 11.1228 33.409 11.1685 33.4293L10.8637 33.3023L10.884 33.3125C11.0314 33.4039 11.1889 33.4547 11.3565 33.4649C11.5242 33.5004 11.6918 33.4954 11.8646 33.4446C12.0322 33.4039 12.1745 33.3277 12.2964 33.2159C12.4336 33.1245 12.5453 33.0076 12.6215 32.8603C12.779 32.5656 12.8552 32.21 12.7486 31.8798L12.6215 31.575C12.5098 31.3819 12.3574 31.2346 12.1643 31.1177L12.1491 31.1025Z" fill="#5B5B5B"/>
<path d="M22.6707 30.7826C22.5284 30.7928 22.376 30.8131 22.2388 30.8385C22.1931 30.8486 22.1525 30.8588 22.1118 30.8791C21.9797 30.9299 21.8476 30.9807 21.7206 31.0468C21.6393 31.0925 21.5682 31.1535 21.4971 31.2094C21.4259 31.2652 21.3548 31.316 21.2888 31.377C21.2176 31.4431 21.1618 31.5243 21.1059 31.6006C21.0246 31.7072 20.9433 31.8088 20.8874 31.9308C20.8112 32.0984 20.7248 32.2712 20.6842 32.4541C20.6537 32.5963 20.6385 32.7437 20.6232 32.8859C20.6232 32.9265 20.6182 32.9672 20.6232 33.0129C20.6283 33.1552 20.6537 33.3025 20.6791 33.4448C20.6893 33.4905 20.6994 33.5311 20.7096 33.5718C20.7706 33.7394 20.8366 33.9223 20.9433 34.0696C21.0246 34.1814 21.1059 34.2983 21.2024 34.3999C21.2989 34.5015 21.4259 34.5878 21.5428 34.6742C21.6901 34.7809 21.8679 34.8419 22.0356 34.9079C22.1626 34.9587 22.2947 34.9689 22.4319 34.9892C22.569 35.0095 22.6961 35.0298 22.8282 35.0146C23.011 34.9994 23.2092 34.979 23.3921 34.9232C23.5242 34.8774 23.6563 34.8215 23.7833 34.7606C23.8188 34.7453 23.8544 34.725 23.89 34.7047C24.0068 34.6336 24.1186 34.5421 24.2253 34.4507C24.2608 34.4253 24.2913 34.3948 24.3218 34.3592C24.4132 34.2576 24.4996 34.1408 24.5809 34.029C24.6063 33.9934 24.6266 33.9579 24.6469 33.9172C24.7282 33.7496 24.8146 33.5718 24.84 33.3838C24.8603 33.2415 24.8908 33.0942 24.8908 32.9469C24.8908 32.8503 24.8756 32.7538 24.8603 32.6573C24.84 32.5099 24.8248 32.3779 24.774 32.2458C24.7079 32.073 24.6419 31.8901 24.5352 31.7377C24.4285 31.5853 24.3167 31.4227 24.1745 31.3008C24.0678 31.2094 23.956 31.123 23.8392 31.0417C23.8036 31.0163 23.768 30.996 23.7274 30.9757C23.5597 30.8944 23.3819 30.808 23.1939 30.7724C23.0466 30.747 22.8942 30.7216 22.7469 30.7166C22.5843 30.7166 22.4217 30.747 22.2642 30.7724C22.0508 30.808 21.8476 30.8994 21.6596 30.9909C21.4717 31.0823 21.304 31.2246 21.1465 31.3567C21.1059 31.3923 21.0703 31.4278 21.0348 31.4685C20.9382 31.5802 20.8417 31.7022 20.7655 31.8241C20.7401 31.8647 20.7198 31.9054 20.6994 31.946C20.6385 32.0832 20.5724 32.2204 20.5267 32.3677C20.4962 32.4642 20.4911 32.5658 20.4759 32.6674C20.4607 32.7691 20.4403 32.8656 20.4505 32.9672C20.4708 33.2923 20.5318 33.5311 20.6791 33.8207C20.7452 33.9528 20.8468 34.0646 20.9382 34.1763C21.0297 34.2881 21.1567 34.3745 21.2735 34.4507C21.3497 34.5015 21.4259 34.5269 21.5123 34.5624C21.5987 34.598 21.6749 34.6387 21.7663 34.6539C22.0915 34.7098 22.3201 34.7199 22.6402 34.6437C22.6757 34.6336 22.7113 34.6234 22.7469 34.6082C22.879 34.5574 23.0212 34.5116 23.1381 34.4304C23.3972 34.2627 23.5699 34.09 23.7375 33.8359C23.8138 33.7191 23.8595 33.5819 23.9103 33.4549C23.9611 33.3177 23.9662 33.1653 23.9814 33.018C23.9916 32.9215 23.9712 32.8351 23.9611 32.7335C23.9509 32.6319 23.9408 32.5455 23.9052 32.4541C23.8544 32.322 23.8087 32.1848 23.7274 32.0679C23.6461 31.9511 23.5597 31.8292 23.4581 31.7276C23.2244 31.504 23.011 31.3973 22.7164 31.2805C22.6808 31.2652 22.6402 31.2551 22.6046 31.2449C22.4827 31.2195 22.3506 31.2043 22.2287 31.1941C22.2083 31.1941 22.1829 31.1941 22.1626 31.1941C22.0356 31.1941 21.8984 31.2195 21.7765 31.2449C21.7562 31.2449 21.7409 31.25 21.7206 31.2551C21.6546 31.2754 21.5834 31.311 21.5225 31.3364C21.4514 31.3668 21.3802 31.3923 21.3193 31.4278C21.0449 31.5904 20.8214 31.88 20.735 32.1848C20.6842 32.3525 20.674 32.5201 20.7147 32.6928C20.7248 32.8605 20.7706 33.018 20.8671 33.1653C21.0398 33.4346 21.304 33.6734 21.6241 33.7496C21.9442 33.8258 22.2998 33.7953 22.6046 33.6226C22.6199 33.6124 22.6402 33.6022 22.6554 33.5972L22.3506 33.7242C22.3862 33.7089 22.4217 33.6988 22.4624 33.6937L22.127 33.7394C22.1677 33.7394 22.2033 33.7394 22.2439 33.7394L21.9086 33.6937C21.9594 33.7039 22.0102 33.714 22.061 33.7343L21.7562 33.6073C21.7968 33.6276 21.8375 33.648 21.8781 33.6784L21.619 33.4803C21.6596 33.5108 21.7003 33.5514 21.7308 33.5921L21.5326 33.333C21.558 33.3635 21.5733 33.399 21.5936 33.4346L21.4666 33.1298C21.4818 33.1653 21.492 33.2009 21.4971 33.2415L21.4513 32.9062C21.4513 32.9469 21.4513 32.9824 21.4513 33.0231L21.4971 32.6878C21.492 32.7233 21.4818 32.7589 21.4666 32.7945L21.5936 32.4896C21.5784 32.5252 21.558 32.5506 21.5377 32.5811L21.7359 32.322C21.7105 32.3575 21.68 32.3829 21.6444 32.4134L21.9035 32.2153C21.8629 32.2458 21.8222 32.2712 21.7765 32.2915L22.0813 32.1645C22.0305 32.1848 21.9746 32.2 21.9188 32.2102L22.2541 32.1645C22.2134 32.1645 22.1677 32.1645 22.127 32.1645L22.4624 32.2102C22.4217 32.2051 22.3811 32.195 22.3404 32.1797L22.6453 32.3067C22.6097 32.2915 22.5792 32.2762 22.5487 32.2508L22.8078 32.449C22.7773 32.4236 22.7469 32.3931 22.7215 32.3626L22.9196 32.6217C22.8942 32.5862 22.8739 32.5506 22.8586 32.5099L22.9856 32.8148C22.9704 32.769 22.9552 32.7233 22.9501 32.6725L22.9958 33.0078C22.9907 32.9519 22.9907 32.891 22.9958 32.8351L22.9501 33.1704C22.9602 33.0891 22.9856 33.0078 23.0161 32.9316L22.8891 33.2365C22.9247 33.1602 22.9653 33.0891 23.0161 33.0231L22.818 33.2822C22.8688 33.2161 22.9298 33.1653 22.9958 33.1094L22.7367 33.3076C22.818 33.2466 22.8993 33.2009 22.9907 33.1602L22.6859 33.2873C22.7672 33.2517 22.8536 33.2314 22.9399 33.2161L22.6046 33.2619C22.6859 33.2517 22.7672 33.2517 22.8485 33.2619L22.5132 33.2161C22.5792 33.2263 22.6453 33.2466 22.7062 33.272L22.4014 33.145C22.4674 33.1755 22.5335 33.211 22.5894 33.2568L22.3303 33.0586C22.4014 33.1145 22.4624 33.1755 22.5132 33.2466L22.315 32.9875C22.3658 33.0586 22.4116 33.1348 22.4471 33.2161L22.3201 32.9113C22.3557 32.9926 22.376 33.079 22.3912 33.1653L22.3455 32.83C22.3557 32.9011 22.3557 32.9774 22.3455 33.0485L22.3912 32.7132C22.3811 32.7894 22.3607 32.8554 22.3353 32.9265L22.4624 32.6217C22.437 32.6776 22.4065 32.7233 22.376 32.7741L22.5741 32.515C22.5335 32.5709 22.4827 32.6166 22.4268 32.6624L22.6859 32.4642C22.6249 32.5099 22.5589 32.5455 22.4928 32.576L22.7977 32.449C22.7164 32.4845 22.63 32.5049 22.5386 32.5201L22.8739 32.4744C22.7824 32.4845 22.6961 32.4845 22.6046 32.4744L22.9399 32.5201C22.8586 32.5099 22.7773 32.4896 22.7011 32.4591L23.006 32.5862C22.9348 32.5557 22.8739 32.5201 22.8129 32.4744L23.072 32.6725C23.0212 32.6319 22.9806 32.5912 22.9399 32.5404L23.1381 32.7995C23.1025 32.7538 23.072 32.703 23.0517 32.6471L23.1787 32.9519C23.1533 32.8859 23.133 32.8199 23.1228 32.7487L23.1685 33.084C23.1584 33.0078 23.1635 32.9316 23.1685 32.8554L23.1228 33.1907C23.133 33.1044 23.1584 33.0282 23.1889 32.9469L23.0619 33.2517C23.0974 33.1653 23.1431 33.0891 23.199 33.018L23.0009 33.2771C23.0517 33.2161 23.1025 33.1602 23.1635 33.1145L22.9044 33.3127C22.9552 33.272 23.011 33.2415 23.0669 33.2161L22.7621 33.3431C22.8231 33.3177 22.884 33.3025 22.945 33.2923L22.6097 33.3381C22.6097 33.3381 22.6503 33.3381 22.6656 33.333C22.8383 33.3381 23.006 33.3025 23.1533 33.2212C23.3108 33.1704 23.448 33.084 23.5597 32.957C23.6817 32.8402 23.7731 32.7081 23.8239 32.5506C23.9052 32.3982 23.9408 32.2356 23.9357 32.0629C23.9204 31.7326 23.8138 31.3923 23.5648 31.1636C23.3159 30.935 23.0009 30.7674 22.6656 30.7928L22.6707 30.7826Z" fill="#5B5B5B"/>
<path d="M34.7519 5.17711C34.5335 4.31851 34.3049 3.47516 34.0356 2.63181C33.8375 2.02724 33.4056 1.53443 32.7706 1.38202C32.0492 1.20929 31.4192 1.49887 30.774 1.78846C28.7926 2.68261 26.9687 3.9324 25.3735 5.40573C22.122 8.41335 19.8104 12.5996 19.0127 16.9637C18.525 19.6513 18.6114 22.4557 19.6681 25.0061C19.9323 25.6411 20.5115 26.0933 21.2329 25.8951C21.8324 25.7326 22.3862 24.9705 22.122 24.3304C20.6232 20.7182 21.2685 16.6792 22.8637 13.2093C24.3726 9.92732 26.735 7.11784 29.8036 5.19743C30.2507 4.91801 30.7028 4.6589 31.1702 4.42012C31.4039 4.29819 31.6376 4.18642 31.8764 4.07465C31.9628 4.03401 32.0695 4.00353 32.1457 3.95272C32.1863 3.9324 32.227 3.91716 32.2676 3.90192C32.5623 3.80031 32.3438 3.62757 31.6122 3.38371C31.5665 3.7495 31.8917 4.25247 31.9983 4.59794C32.1254 5.01453 32.2016 5.44129 32.3083 5.86297C32.7096 7.44807 35.1584 6.77745 34.757 5.18727L34.7519 5.17711Z" fill="#5B5B5B"/>
<path d="M1.61731 26.6369C1.80529 27.2973 2.03899 27.9527 2.166 28.6284C2.28285 29.2533 2.24728 29.9138 2.166 30.5437C1.96278 32.0374 1.43441 33.4853 0.900968 34.8875C-0.0846375 37.4684 0.0677757 40.3083 1.58683 42.6606C3.91875 46.2728 8.27269 47.5378 12.3269 47.8629C15.0195 48.0763 17.768 48.0306 20.4607 47.8121C22.3963 47.6547 24.3726 47.4057 26.2117 46.7656C28.8129 45.8613 31.1042 44.0069 31.9831 41.3193C32.7248 39.0484 32.039 36.625 31.5106 34.3947C30.9467 32.012 30.5707 29.5429 31.5868 27.216C31.8612 26.5861 31.7697 25.8545 31.1296 25.4785C30.5911 25.1635 29.6664 25.3007 29.3921 25.9358C28.3811 28.2474 28.2287 30.5945 28.6402 33.0687C28.9501 34.9332 29.6461 36.8638 29.7477 38.6521C29.7934 39.4853 29.7426 40.2016 29.4327 40.9078C29.2956 41.2177 29.1127 41.5124 28.9247 41.7969C28.8586 41.8934 28.7926 41.99 28.7265 42.0865C28.5081 42.3964 28.8027 42.0154 28.6402 42.2033C28.3099 42.5844 27.9696 42.9349 27.5834 43.2601C27.4412 43.3769 27.7562 43.1483 27.4971 43.321C27.3853 43.3972 27.2735 43.4734 27.1618 43.5446C26.9077 43.7071 26.6385 43.8494 26.3692 43.9815C26.2981 44.0171 25.9374 44.1796 26.0492 44.1288C26.1457 44.0882 25.7646 44.2406 25.6935 44.266C25.3582 44.3879 25.0178 44.4946 24.6724 44.5911C23.829 44.8248 22.9602 44.9925 22.0915 45.1094C19.7443 45.4294 17.2244 45.4802 14.8163 45.4447C12.713 45.4091 10.5792 45.2821 8.55211 44.6623C7.724 44.4083 7.27692 44.2203 6.5301 43.7986C5.78327 43.3769 5.10249 42.9095 4.50808 42.2999C3.68505 41.4514 3.13128 40.3947 2.88742 39.2364C2.58767 37.824 2.97887 36.5539 3.47167 35.2431C4.03052 33.7546 4.49792 32.2457 4.69098 30.6606C4.89927 28.9942 4.51824 27.5564 4.07116 25.9713C3.62408 24.3862 1.17531 25.067 1.62239 26.647L1.61731 26.6369Z" fill="#5B5B5B"/>
<path d="M16.4217 3.86125C16.188 2.94169 15.9899 1.9764 15.6139 1.09749C15.3345 0.442111 14.735 0.020434 14.0085 0.000112258C13.3633 -0.0202095 12.7384 0.330341 12.1745 0.599604C10.0966 1.58013 8.17616 2.94677 6.54534 4.56743C3.02967 8.05261 1.00766 12.6707 0.585979 17.5835C0.331957 20.5556 0.82476 23.3955 1.61731 26.2457C2.05423 27.8206 4.50808 27.15 4.06608 25.57C3.46659 23.4159 3.02459 21.3278 3.04999 19.0822C3.0754 17.0094 3.43611 14.9569 4.11689 13.001C5.37683 9.36336 7.92214 6.18809 11.1381 4.08479C11.6055 3.77996 12.083 3.49546 12.5758 3.23127C12.8095 3.10934 13.0432 2.98741 13.2769 2.87564C13.3633 2.835 13.9171 2.65718 13.9628 2.56573C13.8358 2.82992 13.3785 1.68174 13.2922 2.12882C13.2769 2.22026 13.348 2.393 13.3785 2.48953C13.4497 2.72831 13.5614 2.95693 13.6376 3.19571C13.7799 3.63263 13.8561 4.08987 13.9679 4.53695C14.3692 6.12204 16.818 5.45142 16.4166 3.86125H16.4217Z" fill="#5B5B5B"/>
<path d="M36.8603 9.24641C37.531 8.91618 38.3387 8.36749 39.0297 8.19984H38.354L38.3286 8.18459L37.8713 7.72735C37.8205 7.47841 37.8104 7.48349 37.8307 7.73752C37.8307 7.86453 37.8409 7.99662 37.8409 8.12363C37.8409 8.38273 37.8409 8.64183 37.8409 8.90094C37.8307 9.3531 37.8104 9.80526 37.7697 10.2523C37.6986 11.1058 37.5716 11.9492 37.3887 12.7875C37.0026 14.5758 36.4133 16.3235 35.6004 17.9644C33.9696 21.2667 31.5614 24.1727 28.5386 26.2862C27.9746 26.6774 27.7155 27.3988 28.0813 28.0237C28.4065 28.5775 29.2549 28.8721 29.8188 28.481C36.1135 24.0915 40.1525 16.7909 40.3709 9.09399C40.4014 7.98138 40.5792 6.35564 39.3294 5.83743C38.6436 5.55293 38.0187 5.83743 37.4039 6.14734L35.5699 7.05674C34.1067 7.78324 35.3921 9.97291 36.8502 9.25149L36.8603 9.24641Z" fill="#5B5B5B"/>
<path d="M19.155 7.57006C19.7799 7.26015 20.5877 6.73179 21.1872 6.58954H20.5115L20.4708 6.56922L20.0136 6.11198C19.9577 5.83763 19.9425 5.83255 19.9679 6.09673C19.9679 6.22375 19.9729 6.35584 19.978 6.48285C19.978 6.6759 19.978 6.86896 19.978 7.06202C19.9729 7.51418 19.9526 7.96126 19.9171 8.41341C19.851 9.26185 19.7189 10.1052 19.536 10.9384C19.1753 12.5946 18.6266 14.2102 17.8747 15.7292C16.3353 18.8436 14.0695 21.587 11.2143 23.5785C10.6503 23.9697 10.3912 24.6911 10.757 25.316C11.0822 25.8698 11.9306 26.1645 12.4945 25.7733C18.4996 21.5819 22.3455 14.6065 22.5132 7.26016C22.5386 6.23391 22.6656 4.89267 21.6342 4.29318C20.9789 3.91214 20.293 4.18649 19.6834 4.48623C19.0737 4.78598 18.4742 5.08573 17.8696 5.38547C16.4065 6.11198 17.6918 8.30165 19.1499 7.58022L19.155 7.57006Z" fill="#5B5B5B"/>
<path d="M13.155 8.51488C9.67997 11.5276 6.64694 15.6377 6.6063 20.4184C6.59106 22.0543 9.13128 22.0543 9.14652 20.4184C9.18208 16.3134 11.9966 12.8739 14.9535 10.3083C15.4717 9.8612 15.4158 8.97212 14.9535 8.5098C14.4403 7.99668 13.6783 8.05764 13.155 8.5098V8.51488Z" fill="#FF7FE0"/>
<path d="M31.47 10.3135C27.995 13.3262 24.9619 17.4362 24.9213 22.2169C24.906 23.8528 27.4463 23.8528 27.4615 22.2169C27.4971 18.1119 30.3116 14.6725 33.2684 12.1069C33.7867 11.6598 33.7308 10.7707 33.2684 10.3084C32.7553 9.79526 31.9933 9.85623 31.47 10.3084V10.3135Z" fill="#FF7FE0"/>
</g>
<defs>
<clipPath id="clip0_216_664">
<rect width="40.1355" height="48" fill="white" transform="translate(0.270996)"/>
</clipPath>
</defs>
</svg>
