<svg width="41" height="48" viewBox="0 0 41 48" fill="none" xmlns="http://www.w3.org/2000/svg">
<g clip-path="url(#clip0_216_459)">
<path d="M12.2338 3.11941C10.6131 3.29723 9.50556 4.3184 8.72317 5.70028C7.90014 7.15328 7.31589 8.79935 6.7672 10.3743C5.59362 13.7629 4.8722 17.2888 4.55721 20.8603L4.92808 19.9611L5.00937 19.895L5.64951 19.7223C5.97973 19.8798 6.05086 19.895 5.86288 19.768L6.32012 20.2253L6.40141 20.5606L6.22868 21.2007L6.16771 21.2871L5.60886 21.6122L4.65374 21.0229C4.76043 21.7037 5.60886 22.0745 6.21852 21.912C6.93994 21.7138 7.2092 21.028 7.10759 20.3472C6.91454 19.1177 5.24307 18.7062 4.3794 19.4937C3.41919 20.3675 3.92216 21.8612 5.09574 22.2066C5.67491 22.3794 6.3252 22.2066 6.73164 21.7595C7.18888 21.2667 7.12791 20.5606 7.19396 19.9306C7.31589 18.8027 7.49371 17.685 7.71725 16.5724C8.17449 14.2811 8.82478 12.0254 9.66305 9.84592C10.0339 8.88063 10.4099 7.88995 10.923 6.99071C11.1973 6.50807 11.6495 5.73076 12.2439 5.66471C12.9247 5.58851 13.514 5.13635 13.514 4.3946C13.514 3.76463 12.9298 3.04829 12.2439 3.12449L12.2338 3.11941Z" fill="white"/>
<path d="M13.3159 4.41503H13.3921C13.8138 4.44551 14.2964 4.16609 14.4895 3.79014C14.6825 3.41419 14.7841 3.02807 14.6266 2.63688C14.398 2.06787 14.017 1.75796 13.4022 1.70208C12.5386 1.63095 11.7155 2.45398 11.0856 2.95187C10.4556 3.44975 9.86118 3.98319 9.30233 4.55728C8.19988 5.69022 7.22443 6.96541 6.41156 8.32189C4.75534 11.0856 3.75957 14.2152 3.48015 17.421C3.32265 19.255 3.44967 21.0992 3.80022 22.9078C3.93231 23.5835 4.73502 23.9646 5.36499 23.7969C6.06609 23.6039 6.38616 22.9078 6.25407 22.2321C5.58345 18.8181 6.04069 15.216 7.37685 12.0154C8.03222 10.4455 8.9213 8.92138 9.99835 7.60047C11.0754 6.27955 12.3862 4.82655 13.8951 4.06448L13.2549 4.23722L13.4022 4.24738L12.1779 3.31258L12.2134 3.39894L12.3404 2.41842L12.2947 2.50479L13.3921 1.87481H13.3159C11.6851 1.7732 11.6901 4.31342 13.3159 4.40995V4.41503Z" fill="white"/>
<path d="M12.7621 3.37366C8.0119 9.3381 4.78074 16.4304 3.54111 23.9647C3.42934 24.6404 3.71893 25.3313 4.43019 25.5295C5.03984 25.6971 5.87811 25.3212 5.99496 24.6404C7.15839 17.5583 10.0847 10.7911 14.5606 5.16706C14.9873 4.62853 15.0839 3.89187 14.5606 3.36858C14.1186 2.92659 13.1939 2.83006 12.7621 3.36858V3.37366Z" fill="white"/>
<path d="M9.36838 5.77655C7.66643 4.15081 5.6749 6.86884 5.02968 8.26596C4.17109 10.1152 3.64272 12.1525 3.22613 14.144C2.34721 18.3456 2.2202 22.7351 3.48015 26.8756C3.95263 28.4353 6.40648 27.7698 5.92892 26.1999C4.93315 22.923 4.87219 19.448 5.43612 16.0848C5.72062 14.393 6.1423 12.7266 6.6605 11.0907C6.86372 10.4455 7.0771 9.80534 7.38701 9.20076C7.53942 8.9061 7.70707 8.61143 7.91537 8.35233C8.03222 8.21008 8.1948 8.09323 8.30149 7.9459C8.51486 7.65123 8.68252 7.96622 8.0373 7.8138L7.47845 7.48866L7.5699 7.57502C8.75365 8.70288 10.5521 6.90949 9.36838 5.77655Z" fill="white"/>
<path d="M17.3193 6.24899C11.9746 8.52502 8.01698 12.9552 3.97295 16.9636C2.80953 18.1169 4.608 19.9154 5.77143 18.7621C9.6732 14.8908 13.4429 10.6436 18.6046 8.44374C19.2346 8.17447 19.3768 7.24475 19.0619 6.70623C18.6808 6.05085 17.9594 5.97972 17.3243 6.24899H17.3193Z" fill="white"/>
<path d="M13.3464 4.80628C11.3498 10.2119 9.35822 15.6175 7.36161 21.023C7.12283 21.6683 7.62579 22.4151 8.25069 22.5878C8.96195 22.7809 9.57668 22.349 9.81546 21.6987C11.8121 16.2932 13.8036 10.8876 15.8002 5.48198C16.039 4.83677 15.536 4.08994 14.9111 3.91721C14.1999 3.72415 13.5851 4.15599 13.3464 4.80628Z" fill="white"/>
<path d="M10.2168 9.88162C8.86542 12.7876 7.69692 15.7851 6.75703 18.8537C6.30487 20.3372 5.90352 21.8308 5.55805 23.3448C5.1821 24.9908 4.92299 26.6217 5.25322 28.2982C5.38532 28.9739 6.18802 29.3549 6.818 29.1873C7.5191 28.9942 7.83917 28.2982 7.70708 27.6225C7.43781 26.266 7.80869 24.8689 8.11859 23.5582C8.45898 22.1306 8.84509 20.708 9.27693 19.3058C10.1355 16.5268 11.1821 13.8088 12.4065 11.167C12.6961 10.5472 12.5792 9.80033 11.9492 9.42946C11.4006 9.10939 10.5013 9.26181 10.2117 9.8867L10.2168 9.88162Z" fill="white"/>
<path d="M20.4183 7.05183C19.9408 6.14751 18.7926 6.14243 18.0661 6.7216C17.426 7.22964 16.857 7.85962 16.3032 8.45403C15.2058 9.63777 14.1897 10.9028 13.2651 12.2288C11.4158 14.8808 9.97804 17.802 8.95687 20.8655C8.43867 22.4202 10.8874 23.0857 11.4056 21.5412C12.2388 19.0467 13.387 16.6793 14.8146 14.4693C15.5005 13.4125 16.2422 12.3965 17.0551 11.4312C17.4819 10.9231 17.9289 10.4252 18.3912 9.9426C18.6351 9.68858 18.879 9.43963 19.1279 9.19577C19.2244 9.09925 19.3413 9.0078 19.4327 8.90111C19.7071 8.58104 19.3108 8.82998 19.5242 8.7995H18.8485L18.9399 8.82998L18.183 8.24573L18.2287 8.3321C18.9958 9.77494 21.1855 8.49467 20.4234 7.05183H20.4183Z" fill="white"/>
<path d="M17.8883 7.83923C18.2795 9.7444 17.6647 11.9239 17.0652 13.7325C16.4658 15.5412 15.6732 17.0907 14.6673 18.6047C12.6351 21.6784 9.80022 24.1525 6.49793 25.7681C5.8832 26.0679 5.71554 26.9468 6.04069 27.5056C6.40648 28.1356 7.15839 28.2626 7.7782 27.9629C13.6055 25.1127 18.0763 19.6563 19.8138 13.4176C20.3726 11.4057 20.7587 9.24144 20.332 7.16862C20.1948 6.498 19.3972 6.1068 18.7672 6.27954C18.0661 6.47259 17.7409 7.16862 17.8781 7.84431L17.8883 7.83923Z" fill="white"/>
<path d="M15.7799 9.82573C13.3819 11.7106 12.0407 14.6115 10.608 17.2229C8.92638 20.2864 7.24476 23.3448 5.56313 26.4083C4.77566 27.841 6.97041 29.1263 7.75788 27.6886C9.39886 24.7013 11.0398 21.7089 12.6808 18.7216C14.0525 16.222 15.2871 13.4227 17.5784 11.6191C18.1169 11.1924 18.0204 10.2677 17.5784 9.82065C17.0449 9.28721 16.3235 9.3939 15.7799 9.82065V9.82573Z" fill="white"/>
<path d="M17.2024 9.4854C13.4327 14.5201 11.9797 20.9977 7.73248 25.7022H9.53095L9.65796 25.88V26.5557L9.67829 26.4083C9.7799 25.7326 9.50555 25.0417 8.78921 24.8436C8.18972 24.681 7.33112 25.0468 7.22443 25.7326C7.11774 26.4185 7.21427 26.9977 7.7274 27.5006C8.19988 27.963 9.05847 28.0138 9.52587 27.5006C13.9408 22.6082 15.4801 15.9884 19.3921 10.7707C19.8036 10.2221 19.4785 9.3533 18.9349 9.03324C18.2846 8.6522 17.6089 8.93671 17.1973 9.49048L17.2024 9.4854Z" fill="white"/>
<path d="M12.2591 10.9739C10.0288 14.2152 8.43357 17.8935 7.58514 21.7292C7.43781 22.3998 7.78836 23.1009 8.47422 23.294C9.10927 23.4667 9.88658 23.0806 10.039 22.4049C10.8468 18.7572 12.3404 15.3329 14.459 12.2542C14.8502 11.6903 14.5657 10.8469 14.0017 10.5167C13.3718 10.1509 12.6554 10.4049 12.2642 10.9739H12.2591Z" fill="white"/>
<path d="M31.1787 3.21098C24.4471 6.38117 20.0983 13.4328 20.2761 20.8655C20.332 23.1212 20.774 25.3719 21.6122 27.4701C21.8663 28.1051 22.4607 28.5522 23.177 28.3592C23.7816 28.1915 24.3201 27.4396 24.0661 26.7944C22.3997 22.6233 22.3489 17.7918 24.2439 13.6767C25.9255 10.0289 28.8366 7.11783 32.4691 5.40573C33.089 5.11106 33.2515 4.22198 32.9264 3.66822C32.5555 3.03316 31.8138 2.92139 31.1889 3.21098H31.1787Z" fill="white"/>
<path d="M30.2185 4.74531C27.2719 8.37275 24.752 12.3304 22.8163 16.5878C20.8857 20.83 19.5039 25.5802 20.774 30.2186C21.2058 31.7936 23.6546 31.123 23.2227 29.5429C22.1051 25.4481 23.4666 21.1755 25.199 17.4566C26.9315 13.7377 29.304 9.87656 32.0119 6.53871C32.4437 6.00526 32.5301 5.26352 32.0119 4.74023C31.5648 4.29315 30.6504 4.20679 30.2134 4.74023L30.2185 4.74531Z" fill="white"/>
<path d="M30.9755 4.94349L30.8993 4.93332L31.9967 5.5633L31.9662 5.50741L32.1389 6.14755L32.1491 6.07134L31.9763 6.71148L31.8798 6.81817L31.321 7.14332L31.3972 7.11283H30.7215L30.8078 7.13316L30.249 6.80801L30.3404 6.90454L30.0153 6.34569C30.0559 6.07134 30.0559 6.0053 30.0153 6.16279C29.9899 6.2644 29.9543 6.36601 29.9188 6.46254C29.8426 6.69116 29.7664 6.91978 29.6851 7.1484C29.5581 7.52943 29.426 7.91046 29.2939 8.2915C29.0043 9.12977 28.7045 9.96296 28.4048 10.7911C27.785 12.493 27.1398 14.1848 26.4641 15.8614C25.1432 19.1586 23.7105 22.41 22.1863 25.6158C21.8917 26.2356 22.0136 26.9875 22.6436 27.3533C23.1973 27.6785 24.0864 27.521 24.3811 26.8961C26.4641 22.5116 28.3743 18.0409 30.0966 13.4989C30.5233 12.3711 30.9399 11.2382 31.3464 10.1001C31.7528 8.96211 32.2202 7.89014 32.4895 6.76228C32.7841 5.51758 31.6868 4.03917 30.3506 4.81647C29.8984 5.08066 29.6038 5.61918 29.6139 6.13739C29.6241 6.95534 30.249 7.37702 30.9907 7.46846C31.6715 7.55483 32.2608 6.82325 32.2608 6.19835C32.2608 5.44137 31.6766 5.01461 30.9907 4.92824L30.9755 4.94349Z" fill="white"/>
<path d="M30.2388 5.79171C26.1541 12.7011 23.0348 20.1744 21.0077 27.9374C20.5961 29.5224 23.0449 30.1931 23.4564 28.613C25.4327 21.0483 28.4505 13.8036 32.4336 7.07198C33.2668 5.65962 31.072 4.38443 30.2388 5.79171Z" fill="white"/>
<path d="M25.4632 8.77413C23.0907 12.7877 21.8409 17.4007 21.8764 22.0646C21.8866 23.7005 24.4268 23.7005 24.4166 22.0646C24.3862 17.8376 25.5039 13.6971 27.6529 10.0544C28.4861 8.64204 26.2913 7.36685 25.4581 8.77413H25.4632Z" fill="white"/>
<path d="M31.2041 7.06194C31.4022 7.80876 31.5648 8.56067 31.6969 9.31766C31.7274 9.49547 31.7579 9.67329 31.7833 9.85618C31.7985 9.94763 31.8087 10.034 31.8239 10.1254C31.7985 9.94255 31.8341 10.2271 31.8392 10.2575C31.89 10.6894 31.9306 11.1161 31.9916 11.548C32.1999 13.0365 32.9873 14.5759 34.5674 14.962C35.2126 15.1195 35.9746 14.7588 36.1321 14.0729C36.2896 13.3871 35.934 12.6809 35.2431 12.5082C35.177 12.4929 35.116 12.4777 35.05 12.4574C35.2024 12.5234 35.2126 12.5285 35.0856 12.4624C35.0297 12.432 34.9738 12.3913 34.9179 12.3558C35.0449 12.4523 35.0551 12.4523 34.9484 12.3558C34.9027 12.31 34.8569 12.2592 34.8112 12.2084C34.8925 12.3202 34.9077 12.3405 34.8569 12.2643C34.8011 12.1627 34.735 12.0611 34.6791 11.9595C34.6232 11.8376 34.6232 11.8376 34.6791 11.9595C34.6486 11.8833 34.6232 11.802 34.6029 11.7207C34.5572 11.5632 34.5216 11.4006 34.4912 11.233C34.481 11.1822 34.4302 10.8316 34.4658 11.0755C34.4454 10.9078 34.4302 10.7402 34.4099 10.5776C34.2524 9.16016 34.0136 7.75796 33.6478 6.38116C33.4801 5.74103 32.7333 5.28379 32.083 5.49208C31.4327 5.70038 31.0161 6.36592 31.1939 7.05686L31.2041 7.06194Z" fill="white"/>
<path d="M32.0576 5.63443C31.7884 6.96043 31.5445 8.28642 31.326 9.62258C31.2702 9.96805 31.2702 10.2881 31.4531 10.6031C31.6055 10.8673 31.9103 11.1162 32.21 11.1874C32.5352 11.2636 32.901 11.2432 33.1906 11.0603C33.4497 10.8927 33.7189 10.6234 33.7748 10.3034C33.9933 8.97228 34.2371 7.64121 34.5064 6.31521C34.5724 5.9799 34.5572 5.63952 34.3794 5.33469C34.227 5.07051 33.9221 4.82156 33.6224 4.75044C32.9924 4.60819 32.1999 4.9435 32.0576 5.63952V5.63443Z" fill="white"/>
<path d="M33.7799 10.9587C35.1923 10.5777 36.5741 10.1052 37.9205 9.54127C38.2405 9.40918 38.4945 9.27201 38.6774 8.95702C38.8349 8.68268 38.9061 8.28132 38.8045 7.9765C38.7028 7.67167 38.5149 7.37192 38.2202 7.21951C37.9255 7.0671 37.5496 6.96041 37.2397 7.0925C35.8934 7.65643 34.5115 8.12891 33.0991 8.50994C32.459 8.68268 32.0017 9.42442 32.21 10.0747C32.4183 10.725 33.0839 11.1467 33.7748 10.9638L33.7799 10.9587Z" fill="white"/>
<path d="M36.5284 7.9917L34.2981 14.6674L33.1855 18.0052C32.9975 18.5641 32.8146 19.1179 32.6266 19.6767C32.5809 19.8088 32.5453 19.9561 32.4945 20.0831C32.4082 20.2914 32.1745 20.4235 32.4996 20.2914C31.8646 20.5505 31.4175 21.1348 31.6105 21.8562C31.7731 22.4557 32.5352 23.0044 33.1753 22.7453C34.3845 22.2474 34.7604 21.2872 35.1516 20.1187L36.4268 16.3033C37.2752 13.758 38.1237 11.2178 38.9772 8.67248C39.4954 7.11787 37.0415 6.45233 36.5284 7.99678V7.9917Z" fill="white"/>
<path d="M36.4014 9.18039C35.7257 12.3557 34.3387 15.2769 32.4945 17.9441C31.5801 19.2701 30.5487 20.5098 29.4514 21.6884C28.9128 22.2676 28.354 22.8315 27.7799 23.3802C27.4802 23.6647 27.1804 23.9492 26.8756 24.2236C26.7232 24.3607 26.5708 24.4979 26.4183 24.6351C26.3421 24.7011 26.2659 24.7723 26.1897 24.8383C25.9865 24.9958 25.9814 25.0161 26.1694 24.8993L27.1499 25.0263L27.0737 24.9653L27.658 25.7223L27.6376 25.6258L27.3125 26.8603L27.3684 26.7994C28.4454 25.58 26.6571 23.7765 25.5699 25.0009C24.4827 26.2253 25.8493 27.9882 27.2973 27.1855C28.1101 26.7384 28.8468 25.8696 29.5123 25.2346C30.9958 23.8171 32.3726 22.293 33.6275 20.6673C36.0966 17.4666 38.0119 13.8137 38.8603 9.84085C39.2007 8.24559 36.752 7.56481 36.4116 9.16515L36.4014 9.18039Z" fill="white"/>
<path d="M34.2473 8.38273C31.5293 14.3014 26.9975 19.199 24.7367 25.3514C24.4979 25.9966 25.0009 26.7434 25.6258 26.9162C26.332 27.1092 26.9518 26.6774 27.1906 26.0271C29.365 20.1033 33.8205 15.3683 36.4421 9.66301C36.7266 9.03811 36.6199 8.29637 35.9848 7.92549C35.4361 7.60543 34.5369 7.75276 34.2473 8.38273Z" fill="white"/>
<path d="M33.5056 13.0569C30.3354 16.4963 27.6935 20.3981 25.7172 24.6352C25.4276 25.255 25.5445 26.0018 26.1745 26.3727C26.7232 26.6928 27.6224 26.5404 27.912 25.9155C29.7968 21.8664 32.2761 18.1322 35.304 14.8503C36.4116 13.6513 34.6182 11.8477 33.5056 13.0518V13.0569Z" fill="white"/>
<path d="M31.2702 21.5565C26.6216 24.1476 23.5479 28.9791 23.0195 34.2475C22.9484 34.9333 23.6546 35.5176 24.2896 35.5176C25.0314 35.5176 25.4886 34.9333 25.5597 34.2475C26.0017 29.8732 28.735 25.8749 32.5555 23.7513C33.9831 22.9536 32.7028 20.7589 31.2752 21.5565H31.2702Z" fill="white"/>
<path d="M15.6885 29.4005L15.658 29.3599L14.6673 28.0746C14.0932 27.4547 13.4124 27.0178 12.6249 26.7638C11.431 26.2608 9.74434 25.9408 8.48947 26.4437C7.42765 26.8705 6.43189 27.221 5.61902 28.105C4.87219 28.9179 4.23206 29.8933 3.96787 30.9704C3.29726 33.7748 4.43019 36.6249 6.88405 38.144C7.87473 38.7536 9.14992 39.1296 10.3184 39.0635C11.0398 39.0229 11.7714 38.8756 12.4776 38.7486C13.0314 38.652 13.5851 38.5657 14.144 38.4844L12.4573 38.713C15.8053 38.2659 19.1838 38.2151 22.5369 38.5707C24.0559 38.7282 25.9916 37.7477 27.028 36.7113C28.1305 35.6088 28.9586 33.8002 28.8874 32.2202C28.8163 30.6402 28.2727 28.8722 27.028 27.7291L25.7426 26.7384C24.752 26.1643 23.6851 25.8747 22.5369 25.8696C17.8832 25.3819 13.2244 25.7274 8.63172 26.586L10.3184 26.3574H10.1863C11.2532 26.652 12.3252 26.9416 13.3921 27.2312L13.2956 27.1702C14.2659 29.5631 15.2414 31.9509 16.2117 34.3438L16.227 34.2778C14.7486 35.7562 13.2702 37.2346 11.7918 38.713L11.8578 38.6876L4.68422 35.7714L4.7147 35.8121C5.11605 36.5538 5.65966 37.1482 6.3506 37.5953C6.96533 38.1541 7.68168 38.5352 8.50979 38.7333C10.0288 39.1499 12.0559 38.9619 13.4023 38.0932C14.7486 37.2244 15.9526 35.9188 16.3184 34.2981C16.6842 32.6774 16.6893 30.7316 15.6783 29.4056L15.6885 29.4005Z" fill="white"/>
<path d="M10.2168 28.4912C8.99751 28.7097 7.63087 29.5581 6.75704 30.4218C6.17787 30.9959 5.60886 31.7173 5.26339 32.4641C4.50132 34.1204 4.06949 35.7613 4.13045 37.6106C4.19142 39.4599 4.57753 41.3956 5.62918 42.9654C7.24984 45.3989 9.65289 46.8621 12.6148 47.0044C14.1186 47.0755 15.7139 46.6386 17.1618 46.2321C18.6097 45.8257 19.9967 45.277 21.3379 44.6318C21.7342 44.4387 22.1 44.2152 22.4556 43.9561C23.1313 43.4633 23.8527 42.9654 24.4166 42.3304C25.9814 40.5674 26.9772 38.4743 26.9467 36.0763C26.9213 34.0543 26.0271 32.3117 24.4421 31.0873C22.9789 29.9544 20.7384 29.233 18.9044 29.9493C17.2278 30.6047 15.6478 31.3668 14.4336 32.7537C12.8536 34.5522 11.9391 36.5336 11.746 38.9366C11.431 42.9298 14.652 46.4252 18.4065 47.2533C21.9984 48.0459 26.0119 47.2228 28.8265 44.8198C30.9145 43.0365 31.7122 39.9832 30.9857 37.3668C30.4878 35.5581 29.2888 34.3998 28.1711 32.9874L29.1618 34.2728C29.0144 34.0594 28.8874 33.846 28.7807 33.6123L29.4209 35.1314C29.299 34.8316 29.2126 34.5319 29.1567 34.2118L29.3853 35.8985C29.3447 35.5785 29.3396 35.2685 29.365 34.9434L29.1364 36.6301C29.1821 36.31 29.2583 36.0103 29.3752 35.7055L28.735 37.2245C29.2481 36.0763 29.9645 35.0044 30.2083 33.7546C30.376 32.8858 30.5284 32.0221 30.4319 31.1483C30.3557 30.4574 30.2998 29.7309 30.1067 29.0602C29.9137 28.3896 29.5936 27.7901 29.3142 27.1652L28.3235 25.8799L27.0382 24.8892C25.8036 24.1678 24.3912 23.9493 22.989 24.1373C20.4539 24.4777 18.4776 26.2457 17.7105 28.6843C17.5936 29.0602 17.4768 29.4362 17.3548 29.8122C16.8722 31.3515 17.1923 33.3329 17.995 34.7046C18.7977 36.0763 20.2761 37.2804 21.7901 37.6208C23.4158 37.9917 25.2397 37.9104 26.6825 36.9807C28.1254 36.0509 29.0856 34.8164 29.5987 33.1856C29.7155 32.8096 29.8324 32.4337 29.9543 32.0577C26.083 32.5657 22.2168 33.0687 18.3455 33.5768L18.4268 33.7647L17.7867 32.2457C17.8578 32.4438 17.9086 32.6318 17.9543 32.835L17.7257 31.1483C17.7613 31.4277 17.7664 31.6868 17.746 31.9663L17.9747 30.2796C17.934 30.5539 17.8629 30.8079 17.7613 31.067L18.4014 29.548C17.934 30.5691 17.3701 31.5192 17.0246 32.6064C16.7909 33.3481 16.7198 34.1864 16.6588 34.9485C16.6334 35.2736 16.6436 35.5784 16.6791 35.9036C16.8671 37.57 17.1262 38.8807 17.9848 40.3693C18.5386 41.3295 19.3413 42.1017 20.0322 42.9502L19.0415 41.6648C19.1482 41.8122 19.2346 41.9493 19.3159 42.1068L18.6758 40.5878C18.7215 40.6894 18.752 40.7961 18.7672 40.9028L18.5386 39.216C18.5538 39.3278 18.5538 39.4396 18.5335 39.5514L18.7621 37.8646L18.7164 38.0221L19.3565 36.5031C19.321 36.6047 19.2651 36.6961 19.2041 36.7825L20.1948 35.4972C20.083 35.6293 19.9713 35.7309 19.8341 35.8376L21.1194 34.8469C20.9264 34.9739 20.7282 35.0755 20.52 35.172L22.039 34.5319C21.4649 34.7605 20.8807 34.918 20.271 35.0145L21.9577 34.7859C21.4141 34.8519 20.8756 34.8824 20.332 34.8215L22.0187 35.0501C21.6885 34.9993 21.3785 34.9231 21.0686 34.8011L22.5877 35.4413C22.3438 35.3346 22.1203 35.2076 21.912 35.0501L23.1973 36.0408C23.0805 35.9392 22.984 35.8376 22.8824 35.7207L23.873 37.0061C23.7867 36.879 23.7155 36.7622 23.6546 36.6199L24.2947 38.139C24.2592 38.0425 24.2287 37.9459 24.2134 37.8443L24.4421 39.531C24.4217 39.3227 24.4217 39.15 24.4421 38.9417L24.2134 40.6284C24.2642 40.3693 24.3404 40.1305 24.4421 39.8816L23.8019 41.4006C23.9391 41.1161 24.0915 40.852 24.2795 40.5979L23.2888 41.8833C23.5276 41.5886 23.7867 41.3295 24.0864 41.1009L22.8011 42.0916C23.0602 41.9087 23.3244 41.7563 23.6139 41.6293L22.0949 42.2694L22.2676 42.2033L14.2304 36.0814C14.2354 36.1983 14.2304 36.3202 14.2202 36.437L14.4488 34.7503C14.4133 34.984 14.3523 35.1974 14.2659 35.4159L14.9061 33.8968C14.8045 34.1102 14.6825 34.3083 14.5403 34.5014L15.531 33.216C15.2973 33.5056 15.0331 33.7546 14.7435 33.9883L16.0288 32.9976C15.5462 33.3532 15.0331 33.6276 14.4844 33.8714L16.0034 33.2313C14.586 33.8257 13.0161 34.3236 11.492 34.537L13.1787 34.3083C12.9399 34.3287 12.7266 34.3287 12.4929 34.3083L14.1796 34.537C14.0424 34.5166 13.9103 34.4811 13.7833 34.4354L15.3023 35.0755C15.1296 34.9993 14.9823 34.918 14.8248 34.8164L16.1101 35.8071C15.9171 35.6496 15.7494 35.4819 15.597 35.2889L16.5877 36.5742C16.4454 36.3659 16.3337 36.1576 16.2321 35.929L16.8722 37.4481C16.7706 37.1686 16.7045 36.8943 16.6537 36.5996L16.8824 38.2863C16.8163 37.7427 16.8061 37.194 16.862 36.6453L16.6334 38.332C16.6791 38.0018 16.7503 37.6868 16.8671 37.3718L16.227 38.8909C16.3133 38.6978 16.4048 38.52 16.5267 38.3473L15.536 39.6326C15.6376 39.5158 15.7291 39.4243 15.851 39.3278L14.5657 40.3185C14.647 40.2626 14.7283 40.2169 14.8197 40.1813L13.3006 40.8215C13.3972 40.7859 13.4937 40.7605 13.5902 40.7503C15.0737 40.4862 16.6537 39.084 17.3853 37.8342C18.1829 36.4726 18.5183 34.4658 18.0255 32.9417C17.5327 31.4176 16.5775 29.9239 15.1093 29.1466L13.5902 28.5065C12.4624 28.2017 11.3396 28.2017 10.2117 28.5065L10.2168 28.4912Z" fill="white"/>
<path d="M6.44205 24.5945L5.89844 24.4166C5.365 24.2439 4.7401 24.5284 4.46576 25.0009C3.67829 26.3523 3.63764 27.8713 3.71893 29.3904C3.75958 30.1626 3.82562 30.945 3.73925 31.7122C3.65289 32.4793 3.39886 33.2515 3.13468 33.978C2.59107 35.4717 1.72232 36.9501 1.7782 38.586C1.83409 40.2219 2.66728 41.6851 3.6224 42.9806C4.02884 43.5293 4.72486 43.8087 5.35991 43.4378C5.90352 43.1177 6.22359 42.2541 5.81715 41.7003C5.09573 40.7198 4.23206 39.5513 4.31842 38.2659C4.36415 37.5851 4.67405 36.9196 4.92808 36.2896C5.21258 35.5987 5.49709 34.9128 5.73587 34.2067C6.20327 32.8045 6.36076 31.387 6.28455 29.9137C6.22359 28.7096 6.02037 27.3684 6.65543 26.2812L5.22274 26.8654L5.76635 27.0432C7.32604 27.5462 7.99158 25.0923 6.44205 24.5945Z" fill="white"/>
<path d="M9.155 23.9545C8.95686 26.0476 9.07879 28.1255 9.65288 30.1526C9.8307 30.7927 10.5572 31.25 11.2177 31.0417C11.8781 30.8334 12.2998 30.1628 12.1067 29.4769C11.9746 29.0095 11.8629 28.537 11.7765 28.0595C11.7562 27.9477 11.7359 27.841 11.7206 27.7292C11.7105 27.653 11.7003 27.5819 11.6901 27.5057C11.7105 27.6378 11.7105 27.6581 11.7003 27.5667C11.6749 27.3228 11.6495 27.084 11.6292 26.8402C11.5631 25.8749 11.6089 24.9147 11.7003 23.9494C11.7613 23.2838 11.0703 22.6488 10.4302 22.6793C9.68844 22.7148 9.22612 23.2381 9.16008 23.9494L9.155 23.9545Z" fill="white"/>
<path d="M13.6969 4.67928C13.8036 5.88842 13.9052 7.10265 14.0119 8.31179C14.0424 8.65218 14.1338 8.96209 14.3828 9.21103C14.6012 9.42949 14.967 9.59714 15.282 9.5819C15.597 9.56666 15.9526 9.45997 16.1813 9.21103C16.3997 8.97733 16.5826 8.6471 16.5521 8.31179C16.4454 7.10265 16.3438 5.88842 16.2371 4.67928C16.2067 4.33889 16.1152 4.02898 15.8663 3.78004C15.6478 3.56158 15.282 3.39392 14.967 3.40917C14.652 3.42441 14.2964 3.5311 14.0678 3.78004C13.8493 4.01374 13.6664 4.34397 13.6969 4.67928Z" fill="white"/>
<path d="M16.481 8.56575C16.8976 8.52003 17.3142 8.45906 17.7156 8.34221C18.1169 8.22536 18.4979 8.06279 18.8688 7.87481C19.0161 7.79352 19.1381 7.68683 19.2244 7.54966C19.3362 7.42773 19.4124 7.28548 19.4531 7.11782C19.5039 6.95017 19.514 6.78251 19.4734 6.60978C19.4632 6.44213 19.4175 6.28463 19.321 6.1373C19.1482 5.86804 18.8841 5.62925 18.564 5.55305L18.2287 5.50732C18.0001 5.50732 17.7867 5.56829 17.5885 5.68006C17.4768 5.73594 17.3599 5.79183 17.2431 5.83755L17.5479 5.71054C17.1415 5.88328 16.7096 5.99505 16.2727 6.05601L16.608 6.01029C16.5674 6.01537 16.5267 6.02045 16.481 6.02553C16.3083 6.02045 16.1406 6.05601 15.9933 6.1373C15.8358 6.1881 15.6986 6.27447 15.5868 6.40148C15.4649 6.51833 15.3735 6.65042 15.3227 6.80792C15.2414 6.96033 15.2058 7.1229 15.2109 7.29564C15.2261 7.62587 15.3328 7.96626 15.5818 8.19488L15.8409 8.39301C16.039 8.50986 16.2524 8.56575 16.481 8.56575Z" fill="white"/>
<path d="M9.86119 25.4023C10.4302 27.2211 11.1465 29.0907 12.8383 30.1576C13.4023 30.5132 14.2608 30.2947 14.5758 29.7003C14.9061 29.0754 14.7232 28.3438 14.1186 27.9628C14.017 27.9018 13.9205 27.8307 13.829 27.7596L14.0881 27.9577C13.8138 27.7393 13.5699 27.4903 13.3565 27.216L13.5547 27.4751C13.2194 27.028 12.9653 26.5352 12.7469 26.0221L12.8739 26.3269C12.6554 25.8036 12.4827 25.2702 12.315 24.7266C12.1169 24.0915 11.4209 23.6241 10.7503 23.8375C10.0796 24.0509 9.65289 24.7215 9.86119 25.4023Z" fill="white"/>
<path d="M14.0068 27.3785C14.144 27.3176 14.1542 27.3125 14.0322 27.3633C14.1084 27.3328 14.1796 27.3074 14.2558 27.2769C14.3879 27.2312 14.5199 27.1855 14.652 27.1448C14.9365 27.0585 15.2261 26.9823 15.5208 26.9264C15.6376 26.9061 15.7545 26.8857 15.8713 26.8654C15.597 26.9061 16.0796 26.8451 16.1254 26.8451C16.4048 26.8248 16.6842 26.8146 16.9586 26.8197C17.2329 26.8248 17.5174 26.8451 17.7917 26.8756C17.5174 26.8451 17.995 26.9111 18.0458 26.9213C18.1626 26.9416 18.2795 26.967 18.3963 26.9975C18.6656 27.0636 18.9348 27.1398 19.199 27.2312C19.2397 27.2465 19.6817 27.4141 19.4531 27.3176C19.6004 27.3785 19.7426 27.4497 19.8849 27.5208C20.4793 27.8155 21.2871 27.6986 21.6224 27.0636C21.9272 26.4895 21.8002 25.641 21.1652 25.326C18.4878 24.0001 15.4395 23.9696 12.7164 25.1787C12.1067 25.448 11.9188 26.3828 12.2591 26.9162C12.6656 27.5462 13.3464 27.6631 13.9967 27.3735L14.0068 27.3785Z" fill="white"/>
<path d="M31.0009 7.73265C29.8578 8.70809 29.0297 10.1001 28.6944 11.5582C28.6182 11.8884 28.6487 12.239 28.8214 12.5387C28.9738 12.8029 29.2786 13.0519 29.5784 13.123C30.2236 13.2703 30.9806 12.9299 31.1432 12.2339C31.2194 11.8935 31.326 11.5582 31.4632 11.2331L31.3362 11.5379C31.5445 11.0553 31.8087 10.598 32.1288 10.1814L31.9306 10.4405C32.1897 10.1103 32.4793 9.80547 32.7994 9.53112C33.0331 9.32791 33.1702 8.93163 33.1702 8.63189C33.1702 8.33214 33.0331 7.94603 32.7994 7.73265C32.5657 7.51927 32.2405 7.34654 31.9001 7.36178C31.5597 7.37702 31.2702 7.50403 31.0009 7.73265Z" fill="white"/>
<path d="M13.6664 26.0069C13.8087 25.9459 13.829 25.9358 13.7325 25.9764C13.8138 25.9459 13.9001 25.9104 13.9814 25.8799C14.1491 25.8189 14.3167 25.763 14.4895 25.7122C14.7892 25.6259 15.094 25.5547 15.3989 25.4988C15.4852 25.4836 15.5716 25.4684 15.6631 25.4531C15.5462 25.4684 15.5665 25.4684 15.724 25.448C15.9018 25.4328 16.0796 25.4176 16.2575 25.4074C16.5674 25.3922 16.8824 25.3922 17.1923 25.4074C17.746 25.4379 18.2693 25.5192 18.9552 25.7224C19.641 25.9256 19.9662 26.0729 20.6063 26.4438C21.1804 26.7791 22.0238 26.5962 22.3438 25.9866C22.6639 25.3769 22.5013 24.6047 21.8866 24.2491C18.9806 22.5573 15.4446 22.4455 12.3912 23.802C11.7664 24.0814 11.619 24.9959 11.934 25.5395C12.31 26.1847 13.0415 26.2762 13.6715 25.9967L13.6664 26.0069Z" fill="white"/>
<path d="M10.6741 31.3109C10.2829 31.4582 9.90691 31.6462 9.62241 31.9663C9.36838 32.2559 9.14993 32.5861 9.05848 32.9671C8.97211 33.3278 8.95687 33.7343 9.0788 34.0899C9.23629 34.5421 9.53604 34.9587 9.97296 35.1771C10.3286 35.3549 10.6995 35.4565 11.1008 35.4515C11.4006 35.4515 11.7206 35.4007 12.0051 35.294C12.4217 35.1416 12.7266 34.9688 13.0619 34.6843C13.3514 34.4354 13.5547 34.095 13.6766 33.7394C13.8443 33.2516 13.7528 32.7182 13.5242 32.266C13.4988 32.2152 13.4683 32.1746 13.4378 32.1289C13.3514 32.012 13.2702 31.8901 13.1635 31.7885C13.0568 31.6869 12.9349 31.6005 12.818 31.5141C12.7621 31.4735 12.7012 31.4379 12.6402 31.4074C12.2439 31.2144 11.807 31.0823 11.3599 31.1179C10.8874 31.1534 10.4404 31.2753 10.0288 31.5192C9.61733 31.7631 9.30742 32.073 9.05848 32.454C8.85018 32.7842 8.71301 33.2415 8.74349 33.6327C8.76889 33.9375 8.8197 34.2169 8.98735 34.4811C9.14484 34.73 9.34806 34.9485 9.60717 35.0908C10.0593 35.3448 10.6233 35.4057 11.1211 35.2482C11.619 35.0908 12.0915 34.7707 12.3658 34.3084C12.7367 33.6886 12.6503 32.8858 12.1525 32.3626C11.7968 31.9917 11.2837 31.819 10.7807 31.8139C10.5674 31.8139 10.3438 31.8393 10.1406 31.9053C9.8053 32.0171 9.597 32.1441 9.32774 32.3727C9.09404 32.5759 8.95687 32.9722 8.95687 33.272C8.95687 33.5717 9.09404 33.9578 9.32774 34.1712C9.56144 34.3846 9.88659 34.5573 10.227 34.5421L10.5623 34.4963C10.7757 34.4354 10.9636 34.3287 11.1211 34.1712C11.1364 34.161 11.1465 34.1509 11.1618 34.1356L10.9027 34.3338C10.9535 34.2982 11.0043 34.2677 11.0653 34.2423L10.7604 34.3693C10.8265 34.3439 10.8976 34.3236 10.9687 34.3134L10.6334 34.3592C10.7198 34.349 10.8061 34.349 10.8976 34.3592L10.5623 34.3134C10.6283 34.3236 10.6893 34.3389 10.7503 34.3643L10.4454 34.2372C10.4861 34.2576 10.5267 34.2779 10.5623 34.3033L10.3032 34.1051C10.3286 34.1255 10.354 34.1509 10.3743 34.1763L10.1762 33.9172C10.1762 33.9172 10.2067 33.9629 10.2168 33.9883L10.0898 33.6835C10.0898 33.6835 10.1 33.7241 10.105 33.7444L10.0593 33.4091C10.0593 33.4396 10.0593 33.4701 10.0593 33.4955L10.105 33.1602C10.1 33.2008 10.0898 33.2364 10.0746 33.272L10.2016 32.9671C10.1813 33.0027 10.1609 33.0383 10.1355 33.0738L10.3337 32.8147C10.2879 32.8706 10.2371 32.9214 10.1762 32.9671L10.4353 32.769C10.3642 32.8198 10.2879 32.8655 10.2067 32.896L10.5115 32.769C10.4404 32.7995 10.3642 32.8198 10.2879 32.83L10.6233 32.7842C10.5572 32.7893 10.4962 32.7944 10.4302 32.7842L10.7655 32.83C10.7198 32.8198 10.6741 32.8096 10.6334 32.7893L10.9382 32.9163C10.8976 32.896 10.857 32.8757 10.8214 32.8503L11.0805 33.0484C11.0551 33.0281 11.0297 33.0027 11.0094 32.9773L11.2075 33.2364C11.1821 33.2059 11.1618 33.1704 11.1465 33.1348L11.2735 33.4396C11.2532 33.3939 11.2431 33.3482 11.238 33.2974L11.2837 33.6327C11.2786 33.5717 11.2837 33.5107 11.2837 33.4498L11.238 33.7851C11.2481 33.7089 11.2735 33.6428 11.299 33.5717L11.1719 33.8765C11.2075 33.7952 11.2532 33.719 11.3091 33.6479L11.111 33.907C11.1923 33.8054 11.2837 33.719 11.3802 33.6378L11.1211 33.8359C11.2481 33.7394 11.3853 33.6581 11.5327 33.5971L11.2278 33.7241C11.3548 33.6733 11.4818 33.6377 11.6139 33.6174L11.2786 33.6632C11.3904 33.653 11.5072 33.653 11.619 33.6632L11.2837 33.6174C11.3904 33.6327 11.492 33.6632 11.5936 33.6987L11.2888 33.5717C11.3701 33.6073 11.4514 33.653 11.5225 33.7038L11.2634 33.5057C11.3244 33.5514 11.3752 33.6022 11.426 33.6632L11.2278 33.4041C11.2685 33.4549 11.299 33.5057 11.3244 33.5615L11.1973 33.2567C11.2227 33.3126 11.238 33.3736 11.2481 33.4345L11.2024 33.0992C11.2075 33.1551 11.2024 33.2059 11.2024 33.2618L11.2481 32.9265C11.238 32.9773 11.2227 33.0281 11.2075 33.0789L11.3345 32.7741C11.304 32.8401 11.2685 32.9011 11.2278 32.957L11.426 32.6979C11.365 32.7792 11.2939 32.8503 11.2126 32.9112L11.4717 32.7131C11.3548 32.8046 11.2278 32.8757 11.0957 32.9316L11.4006 32.8046C11.2532 32.8655 11.1008 32.9062 10.9433 32.9316L11.2786 32.8858C11.1567 32.9011 11.0297 32.9062 10.9078 32.8858L11.2431 32.9316C11.1516 32.9214 11.0653 32.896 10.9789 32.8604L11.2837 32.9875C11.2227 32.9621 11.1719 32.9316 11.1161 32.8909L11.3752 33.0891C11.3396 33.0586 11.3091 33.0281 11.2786 32.9925L11.4768 33.2516C11.4463 33.211 11.4209 33.1653 11.3955 33.1195L11.5225 33.4244C11.4971 33.3685 11.4818 33.3126 11.4768 33.2567L11.5225 33.592C11.5123 33.526 11.5123 33.4549 11.5225 33.3888L11.4768 33.7241C11.4869 33.6428 11.5072 33.5666 11.5377 33.4955L11.4107 33.8003C11.4463 33.714 11.492 33.6327 11.553 33.5565L11.3548 33.8156C11.4158 33.7343 11.4869 33.6682 11.5631 33.6022L11.304 33.8003C11.3904 33.7343 11.4818 33.6835 11.5784 33.6428L11.2735 33.7698C11.2735 33.7698 11.3091 33.7546 11.3294 33.7495C11.4971 33.7089 11.6393 33.6327 11.7613 33.5209C11.8984 33.4295 12.0102 33.3126 12.0864 33.1653C12.2439 32.8909 12.315 32.4896 12.2134 32.1847C12.1118 31.8799 11.9238 31.5802 11.6292 31.4278C11.3345 31.2753 10.9687 31.1788 10.6487 31.3007L10.6741 31.3109Z" fill="#5B5B5B"/>
<path d="M22.7249 31.0163C22.293 30.8943 21.8002 30.8842 21.3684 31.0163C20.9873 31.128 20.5911 31.3414 20.332 31.6462C20.0068 32.0273 19.768 32.5099 19.8087 33.0281C19.8392 33.3736 19.8951 33.5768 20.0475 33.8867C20.1288 34.0544 20.2608 34.2068 20.3828 34.344C20.5758 34.5573 20.8299 34.7453 21.094 34.8672C21.3582 34.9892 21.6376 35.1111 21.9323 35.1517C22.3489 35.2127 22.7147 35.2381 23.1262 35.1263C23.4717 35.0349 23.8375 34.8368 24.0712 34.5675C24.2846 34.3236 24.3963 34.1357 24.4979 33.8258C24.5589 33.6479 24.5792 33.4498 24.5843 33.2618C24.5843 33.1704 24.5691 33.0738 24.5538 32.9875C24.5386 32.9011 24.5335 32.7995 24.5081 32.7081C24.4624 32.5201 24.376 32.3372 24.2846 32.1644C24.0864 31.7987 23.7918 31.5243 23.4615 31.2906C23.3802 31.2296 23.2888 31.1839 23.1973 31.1382C22.9789 31.0417 22.7604 30.9401 22.5216 30.9045C22.0441 30.8232 21.5716 30.8029 21.0991 30.9451C20.586 31.0976 20.1592 31.4075 19.8646 31.8545C19.514 32.388 19.5191 33.084 19.8188 33.6327C19.89 33.7597 19.9865 33.8766 20.078 33.9832C20.1084 34.0188 20.1389 34.0493 20.1745 34.0798C20.4387 34.3033 20.6165 34.3998 20.9416 34.5218C21.3227 34.664 21.8104 34.6742 22.1965 34.5624C22.4708 34.4811 22.7452 34.3389 22.9484 34.1357C23.1516 33.9324 23.3193 33.6632 23.3701 33.3888C23.426 33.0942 23.4209 32.9214 23.3701 32.6319C23.3447 32.4794 23.2685 32.3372 23.2024 32.2C23.111 32.0171 22.9738 31.8393 22.8163 31.7021C22.4099 31.3414 21.8713 31.0671 21.3125 31.1077C20.9721 31.1331 20.6622 31.2347 20.4133 31.4786C20.1948 31.697 20.0271 32.0628 20.0424 32.3778C20.0576 32.6928 20.1643 33.0484 20.4133 33.2771C20.6622 33.5057 20.9772 33.6733 21.3125 33.6479C21.3582 33.6479 21.4039 33.6479 21.4497 33.6479L21.1144 33.6022C21.1906 33.6124 21.2566 33.6327 21.3277 33.6581L21.0229 33.5311C21.0991 33.5667 21.1702 33.6073 21.2363 33.6581L20.9772 33.46C21.0331 33.5057 21.0839 33.5565 21.1296 33.6124L20.9315 33.3533C20.967 33.399 20.9924 33.4447 21.0178 33.5006L20.8908 33.1958C20.9061 33.2313 20.9162 33.2669 20.9213 33.3025L20.8756 32.9672C20.8756 32.9976 20.8756 33.023 20.8756 33.0535L20.9213 32.7182C20.9213 32.7487 20.9111 32.7741 20.901 32.7995L21.028 32.4947C21.028 32.4947 21.0026 32.5404 20.9873 32.5607L21.1855 32.3016C21.1855 32.3016 21.1448 32.3473 21.1194 32.3677L21.3785 32.1695C21.3481 32.1949 21.3125 32.2102 21.2769 32.2254L21.5818 32.0984C21.5259 32.1187 21.47 32.134 21.4141 32.139L21.7494 32.0933C21.6681 32.1035 21.5919 32.1035 21.5157 32.0933L21.851 32.139C21.7596 32.1289 21.6783 32.1035 21.5919 32.073L21.8967 32.2C21.8307 32.1695 21.7697 32.139 21.7139 32.0933L21.973 32.2915C21.9374 32.261 21.9069 32.2305 21.8764 32.1949L22.0746 32.454C22.0441 32.4185 22.0238 32.3778 22.0034 32.3321L22.1304 32.6369C22.1152 32.5963 22.1 32.5506 22.0949 32.5099L22.1406 32.8452C22.1406 32.8097 22.1406 32.7792 22.1406 32.7436L22.0949 33.0789C22.1 33.0383 22.1101 32.9976 22.1254 32.957L21.9984 33.2618C22.0187 33.211 22.0441 33.1704 22.0746 33.1247L21.8764 33.3838C21.9171 33.3329 21.9628 33.2872 22.0136 33.2466L21.7545 33.4447C21.8205 33.3939 21.8866 33.3584 21.9628 33.3228L21.658 33.4498C21.7697 33.4041 21.8815 33.3787 21.9984 33.3584L21.663 33.4041C21.8155 33.3838 21.9628 33.3838 22.1152 33.4041L21.7799 33.3584C21.9323 33.3787 22.0796 33.4193 22.227 33.4752L21.9222 33.3482C22.0238 33.3939 22.1203 33.4498 22.2067 33.5158L21.9476 33.3177C22.039 33.3888 22.1152 33.465 22.1863 33.5565L21.9882 33.2974C22.0492 33.3736 22.0949 33.46 22.1355 33.5514L22.0085 33.2466C22.0441 33.333 22.0695 33.4193 22.0796 33.5108L22.0339 33.1755C22.039 33.2415 22.0441 33.3025 22.0339 33.3685L22.0796 33.0332C22.0695 33.0942 22.0542 33.1551 22.0288 33.211L22.1559 32.9062C22.1355 32.9519 22.1101 32.9926 22.0847 33.0332L22.2829 32.7741C22.2473 32.8198 22.2067 32.8605 22.1609 32.896L22.42 32.6979C22.3743 32.7335 22.3235 32.7589 22.2727 32.7843L22.5775 32.6573C22.4962 32.6928 22.4099 32.7131 22.3184 32.7284L22.6537 32.6827C22.5267 32.6979 22.3946 32.6979 22.2676 32.6827L22.6029 32.7284C22.4404 32.7081 22.2879 32.6623 22.1355 32.6014L22.4404 32.7284C22.3083 32.6725 22.1863 32.6014 22.0746 32.515L22.3337 32.7131C22.2625 32.6573 22.1914 32.5912 22.1355 32.5201L22.3337 32.7792C22.2879 32.7182 22.2524 32.6573 22.2219 32.5912L22.3489 32.896C22.3235 32.8351 22.3083 32.7792 22.2981 32.7182L22.3438 33.0535C22.3438 33.0027 22.3438 32.957 22.3438 32.9062L22.2981 33.2415C22.3083 33.1856 22.3235 33.1297 22.3438 33.0789L22.2168 33.3838C22.2422 33.3279 22.2727 33.2821 22.3032 33.2364L22.105 33.4955C22.1508 33.4396 22.1965 33.3939 22.2524 33.3482L21.9933 33.5463C22.0644 33.4904 22.1457 33.4447 22.2321 33.4092L21.9272 33.5362C22.0187 33.5006 22.1101 33.4752 22.2117 33.46L21.8764 33.5057C21.9831 33.4955 22.0847 33.4955 22.1863 33.5057L21.851 33.46C21.9171 33.4701 21.9831 33.4854 22.0441 33.5006C22.3591 33.5921 22.7401 33.5362 23.0246 33.3736C23.2888 33.2212 23.5377 32.9164 23.6089 32.6166C23.6851 32.2915 23.6647 31.9257 23.4818 31.6361C23.2989 31.3465 23.05 31.1433 22.7249 31.0518V31.0163Z" fill="#5B5B5B"/>
<path d="M34.8874 5.17711C34.669 4.31851 34.4404 3.47516 34.1711 2.63181C33.973 2.02724 33.5411 1.53443 32.9061 1.38202C32.1847 1.20929 31.5547 1.49887 30.9095 1.78846C28.9281 2.68261 27.1042 3.9324 25.509 5.40573C22.2575 8.41335 19.9459 12.5996 19.1482 16.9637C18.6605 19.6513 18.7469 22.4557 19.8036 25.0061C20.0678 25.6411 20.647 26.0933 21.3684 25.8951C21.9679 25.7326 22.5217 24.9705 22.2575 24.3304C20.7587 20.7182 21.404 16.6792 22.9992 13.2093C24.5081 9.92732 26.8705 7.11784 29.9391 5.19743C30.3862 4.91801 30.8383 4.6589 31.3057 4.42012C31.5394 4.29819 31.7731 4.18642 32.0119 4.07465C32.0983 4.03401 32.205 4.00353 32.2812 3.95272C32.3218 3.9324 32.3625 3.91716 32.4031 3.90192C32.6978 3.80031 32.4793 3.62757 31.7477 3.38371C31.702 3.7495 32.0272 4.25247 32.1338 4.59794C32.2609 5.01453 32.3371 5.44129 32.4438 5.86297C32.8451 7.44807 35.2939 6.77745 34.8925 5.18727L34.8874 5.17711Z" fill="#5B5B5B"/>
<path d="M16.5572 3.86125C16.3235 2.94169 16.1254 1.9764 15.7494 1.09749C15.47 0.442111 14.8705 0.020434 14.144 0.000112258C13.4988 -0.0202095 12.8739 0.330341 12.31 0.599604C10.2321 1.58013 8.31166 2.94677 6.68084 4.56743C3.16518 8.05261 1.14316 12.6707 0.721485 17.5835C0.467463 20.5556 0.960266 23.3955 1.75281 26.2457C2.18973 27.8206 4.64359 27.15 4.20159 25.57C3.60209 23.4159 3.1601 21.3278 3.1855 19.0822C3.2109 17.0094 3.57161 14.9569 4.25239 13.001C5.51234 9.36336 8.05764 6.18809 11.2736 4.08479C11.741 3.77996 12.2185 3.49546 12.7113 3.23127C12.945 3.10934 13.1787 2.98741 13.4124 2.87564C13.4988 2.835 14.0526 2.65718 14.0983 2.56573C13.9713 2.82992 13.514 1.68174 13.4277 2.12882C13.4124 2.22026 13.4836 2.393 13.514 2.48953C13.5852 2.72831 13.6969 2.95693 13.7731 3.19571C13.9154 3.63263 13.9916 4.08987 14.1034 4.53695C14.5047 6.12204 16.9535 5.45142 16.5521 3.86125H16.5572Z" fill="#5B5B5B"/>
<path d="M36.9958 9.24641C37.6664 8.91618 38.4742 8.36749 39.1652 8.19984H38.4895L38.4641 8.18459L38.0068 7.72735C37.956 7.47841 37.9459 7.48349 37.9662 7.73752C37.9662 7.86453 37.9764 7.99662 37.9764 8.12363C37.9764 8.38273 37.9764 8.64183 37.9764 8.90094C37.9662 9.3531 37.9459 9.80526 37.9052 10.2523C37.8341 11.1058 37.7071 11.9492 37.5242 12.7875C37.1381 14.5758 36.5488 16.3235 35.7359 17.9644C34.1051 21.2667 31.6969 24.1727 28.6741 26.2862C28.1101 26.6774 27.851 27.3988 28.2168 28.0237C28.542 28.5775 29.3904 28.8721 29.9543 28.481C36.249 24.0915 40.288 16.7909 40.5064 9.09399C40.5369 7.98138 40.7147 6.35564 39.4649 5.83743C38.7791 5.55293 38.1542 5.83743 37.5394 6.14734L35.7054 7.05674C34.2422 7.78324 35.5276 9.97291 36.9857 9.25149L36.9958 9.24641Z" fill="#5B5B5B"/>
<path d="M19.2905 7.57006C19.9154 7.26015 20.7232 6.73179 21.3227 6.58954H20.647L20.6063 6.56922L20.1491 6.11198C20.0932 5.83763 20.078 5.83255 20.1034 6.09673C20.1034 6.22375 20.1084 6.35584 20.1135 6.48285C20.1135 6.6759 20.1135 6.86896 20.1135 7.06202C20.1084 7.51418 20.0881 7.96126 20.0526 8.41341C19.9865 9.26185 19.8544 10.1052 19.6715 10.9384C19.3108 12.5946 18.7621 14.2102 18.0102 15.7292C16.4708 18.8436 14.205 21.587 11.3498 23.5785C10.7858 23.9697 10.5267 24.6911 10.8925 25.316C11.2177 25.8698 12.0661 26.1645 12.63 25.7733C18.6351 21.5819 22.481 14.6065 22.6487 7.26016C22.6741 6.23391 22.8011 4.89267 21.7697 4.29318C21.1144 3.91214 20.4285 4.18649 19.8189 4.48623C19.2092 4.78598 18.6097 5.08573 18.0051 5.38547C16.542 6.11198 17.8273 8.30165 19.2854 7.58022L19.2905 7.57006Z" fill="#5B5B5B"/>
<path d="M13.2905 8.51488C9.81546 11.5276 6.78244 15.6377 6.7418 20.4184C6.72656 22.0543 9.26678 22.0543 9.28202 20.4184C9.31758 16.3134 12.1321 12.8739 15.089 10.3083C15.6072 9.8612 15.5513 8.97212 15.089 8.5098C14.5758 7.99668 13.8138 8.05764 13.2905 8.5098V8.51488Z" fill="#FF7FE0"/>
<path d="M31.6055 10.3135C28.1305 13.3262 25.0974 17.4362 25.0568 22.2169C25.0415 23.8528 27.5818 23.8528 27.597 22.2169C27.6326 18.1119 30.4471 14.6725 33.4039 12.1069C33.9222 11.6598 33.8663 10.7707 33.4039 10.3084C32.8908 9.79526 32.1288 9.85623 31.6055 10.3084V10.3135Z" fill="#FF7FE0"/>
<path d="M11.9391 44.0627C11.5733 43.9002 11.5581 43.5039 11.7409 43.0822C12.0305 42.4167 12.6656 42.1677 13.3413 42.0712C14.3167 41.9289 15.2719 41.9137 16.2219 41.5987C17.0703 41.3193 17.934 40.8621 18.8434 40.8062C19.9865 40.735 22.0136 41.5073 21.8713 42.9603C21.7951 43.7528 20.774 43.9611 20.1542 44.1796C19.2041 44.5098 18.2236 44.7638 17.2329 44.9366C16.2981 45.0941 15.2922 45.216 14.3421 45.1093C14.0678 45.0788 13.7528 45.0179 13.4937 44.9162C13.3514 44.8604 13.1736 44.7588 13.0771 44.6775C13.0669 44.6724 12.9653 44.5708 12.9603 44.5708C12.8586 44.5047 12.9044 44.3117 12.9044 44.5657L12.7316 45.2058C12.9349 44.84 13.8036 44.5911 14.1846 44.4793C14.8603 44.2812 15.5411 44.205 16.2371 44.1847C16.9332 44.1643 17.6851 44.1897 18.4065 44.2304C18.8993 44.2609 19.6461 44.2151 20.0475 44.5657C21.2871 45.6478 22.8976 44.017 21.8459 42.7672C21.0737 41.8527 20.1694 40.9687 18.9399 40.7554C17.6038 40.5217 16.2473 41.0399 15.0331 41.5479C13.9306 42.0052 12.2541 42.5945 11.6139 43.6766C10.8773 44.9162 11.7155 46.3184 12.8637 46.923C15.2312 48.1728 17.8019 47.0704 19.7528 45.5767C20.7791 44.7943 21.8002 43.9002 21.7494 42.4929C21.6986 41.0856 20.4133 40.2067 19.0619 40.3337C17.8019 40.4505 16.542 40.923 15.4497 41.553C14.3574 42.183 13.0822 43.0162 13.1127 44.3676C13.1432 45.851 14.4996 46.6639 15.8256 46.8112C17.0246 46.9484 18.3049 46.6487 19.3159 45.9882C20.3828 45.2922 21.3836 44.144 20.9213 42.7875C20.459 41.4311 18.9247 41.0297 17.7105 41.4412C16.5877 41.8273 15.2414 42.7317 15.3176 44.0577C15.3989 45.4954 16.9636 46.1356 18.2033 46.2118C19.4429 46.288 21.0788 45.7494 21.8053 44.6419C22.7503 43.1991 21.3328 41.8273 19.9408 41.5378C18.5487 41.2482 17.299 41.68 16.0085 42.0712C15.47 42.2338 14.8553 42.437 14.2913 42.3201C13.6918 42.1982 13.2448 41.6292 12.6961 41.3803C12.122 41.1161 11.4615 41.1669 11.0551 41.7054C10.6842 42.2033 10.6944 42.9196 11.1567 43.3718C12.4573 44.6521 14.5047 44.4539 16.1863 44.4082C17.1364 44.3828 18.0813 44.2964 19.0314 44.2253C19.7223 44.1694 20.3828 44.1085 20.967 44.5352C21.5513 44.962 22.3845 44.6267 22.7045 44.078C23.0805 43.4328 22.8061 42.7469 22.2473 42.3405C20.8451 41.3142 19.0161 41.7156 17.4158 41.8121C16.5166 41.868 15.6122 41.8934 14.7079 41.8832C14.1796 41.8832 13.3616 41.9797 12.9552 41.5784L11.4158 43.575C12.1982 43.9306 12.752 44.5555 13.6156 44.7689C14.4793 44.9823 15.409 44.8604 16.2625 44.6368C17.0043 44.4438 17.7257 44.1237 18.4878 44.0068C18.8078 43.956 19.6055 43.8849 19.7579 44.2151L19.5851 43.575L19.702 43.2194L19.6715 43.2549C19.6715 43.2549 19.3514 43.4582 19.3565 43.4531C19.2041 43.5344 19.0568 43.5852 18.884 43.6258C18.7113 43.6665 18.564 43.6817 18.3912 43.6766C18.1982 43.6715 17.9797 43.5598 17.8019 43.5699C17.5174 43.5852 17.6089 42.9958 17.6597 43.9205C17.7105 44.9112 17.5835 44.2914 17.8019 44.2507C17.9797 44.2151 18.1626 44.0119 18.3303 43.9306C18.4217 43.8849 18.5945 43.8341 18.6148 43.7985C18.5843 43.8494 18.503 43.2753 18.5487 43.3007C18.6503 43.3616 17.6597 44.0119 17.6089 44.0322C17.2024 44.2202 16.7706 44.3066 16.3286 44.3015C16.2575 44.3015 15.6681 44.1694 15.6376 44.1847C15.5919 44.2151 15.5919 44.4895 15.6681 44.4844C15.7088 44.4844 15.8053 44.3625 15.8459 44.332C16.0796 44.1593 16.3133 43.9916 16.5623 43.8443C16.9687 43.5953 17.3904 43.382 17.8375 43.2194C18.0661 43.1381 18.2947 43.067 18.5284 43.0009C18.7215 42.9501 19.0923 42.945 19.26 42.8485C19.2295 42.8637 19.3921 42.8434 19.3972 42.8333C19.3921 42.8434 19.26 42.5894 19.2244 42.5843C19.2549 42.5843 19.2244 42.6859 19.1635 42.7469C18.8078 43.0873 18.4624 43.4023 18.0661 43.6919C17.2837 44.2558 16.4099 44.8197 15.4293 44.9112C15.0382 44.9467 14.6165 44.9213 14.2507 44.7689C14.1999 44.7486 13.9052 44.5352 13.8849 44.5403L13.8747 44.5301C13.7934 44.4742 13.763 44.5657 13.7884 44.7994C13.6614 45.2414 13.8087 45.0077 14.0627 44.8553C15.1093 44.2355 16.227 43.7274 17.4006 43.387C17.9188 43.2397 18.4268 43.1178 18.9145 43.4074C19.4023 43.6969 19.7325 44.1542 20.0729 44.5606L21.8713 42.7621C20.5403 41.5987 18.6351 41.6394 16.9586 41.6292C15.282 41.619 13.6563 41.8121 12.1829 42.564C11.4006 42.9654 10.4404 43.5902 10.3946 44.5555C10.3489 45.5208 11.0703 46.3642 11.8172 46.8621C13.1228 47.7308 14.8299 47.741 16.3286 47.5936C19.3514 47.2939 25.5648 46.227 24.2795 41.8223C23.7867 40.1406 22.2422 38.901 20.5911 38.4539C19.7122 38.2202 18.7977 38.205 17.9035 38.3777C16.9484 38.5657 16.0746 39.0179 15.1398 39.2719C14.205 39.5259 13.3108 39.4649 12.4065 39.6631C11.3752 39.8917 10.4861 40.4658 9.86627 41.3193C8.7943 42.7926 8.78921 45.3989 10.6791 46.2473C11.304 46.5267 12.0458 46.4302 12.4166 45.7901C12.7367 45.2465 12.5894 44.3371 11.9594 44.0526L11.9391 44.0627Z" fill="#FF7FE0"/>
<path d="M1.75281 26.6369C1.94078 27.2973 2.17448 27.9527 2.3015 28.6284C2.41835 29.2533 2.38278 29.9138 2.3015 30.5437C2.09828 32.0374 1.56991 33.4853 1.03647 34.8875C0.0508605 37.4684 0.203274 40.3083 1.72233 42.6606C4.05425 46.2728 8.40819 47.5378 12.4624 47.8629C15.155 48.0763 17.9035 48.0306 20.5962 47.8121C22.5318 47.6547 24.5081 47.4057 26.3472 46.7656C28.9484 45.8613 31.2397 44.0069 32.1186 41.3193C32.8603 39.0484 32.1745 36.625 31.6461 34.3947C31.0822 32.012 30.7062 29.5429 31.7223 27.216C31.9967 26.5861 31.9052 25.8545 31.2651 25.4785C30.7266 25.1635 29.8019 25.3007 29.5276 25.9358C28.5166 28.2474 28.3642 30.5945 28.7757 33.0687C29.0856 34.9332 29.7816 36.8638 29.8832 38.6521C29.9289 39.4853 29.8781 40.2016 29.5682 40.9078C29.4311 41.2177 29.2482 41.5124 29.0602 41.7969C28.9941 41.8934 28.9281 41.99 28.862 42.0865C28.6436 42.3964 28.9382 42.0154 28.7757 42.2033C28.4454 42.5844 28.1051 42.9349 27.7189 43.2601C27.5767 43.3769 27.8917 43.1483 27.6326 43.321C27.5208 43.3972 27.409 43.4734 27.2973 43.5446C27.0432 43.7071 26.774 43.8494 26.5047 43.9815C26.4336 44.0171 26.0729 44.1796 26.1846 44.1288C26.2812 44.0882 25.9001 44.2406 25.829 44.266C25.4937 44.3879 25.1533 44.4946 24.8078 44.5911C23.9645 44.8248 23.0957 44.9925 22.227 45.1094C19.8798 45.4294 17.3599 45.4802 14.9518 45.4447C12.8485 45.4091 10.7147 45.2821 8.68761 44.6623C7.8595 44.4083 7.41242 44.2203 6.66559 43.7986C5.91877 43.3769 5.23799 42.9095 4.64358 42.2999C3.82055 41.4514 3.26678 40.3947 3.02292 39.2364C2.72317 37.824 3.11437 36.5539 3.60717 35.2431C4.16602 33.7546 4.63342 32.2457 4.82647 30.6606C5.03477 28.9942 4.65374 27.5564 4.20666 25.9713C3.75958 24.3862 1.31081 25.067 1.75789 26.647L1.75281 26.6369Z" fill="#5B5B5B"/>
</g>
<defs>
<clipPath id="clip0_216_459">
<rect width="40.1355" height="48" fill="white" transform="translate(0.406494)"/>
</clipPath>
</defs>
</svg>
