<svg width="12" height="13" viewBox="0 0 12 13" fill="none" xmlns="http://www.w3.org/2000/svg">
<g clip-path="url(#clip0_94_1116)">
<path d="M6.42847 0.561035H2.14275C1.91542 0.561035 1.69741 0.651341 1.53666 0.812086C1.37592 0.972832 1.28561 1.19085 1.28561 1.41818V9.13246L0.428467 11.7039L3.85704 10.8467H10.7142C10.9415 10.8467 11.1595 10.7564 11.3203 10.5957C11.481 10.435 11.5713 10.2169 11.5713 9.98961V5.70389" stroke="#5B5B5B" stroke-linecap="round" stroke-linejoin="round"/>
<path d="M7.16811 7.10703L4.59668 7.56989L5.02525 4.96418L9.07954 0.927034C9.15922 0.846695 9.25402 0.782929 9.35847 0.739413C9.46292 0.695897 9.57496 0.673492 9.68811 0.673492C9.80126 0.673492 9.91329 0.695897 10.0177 0.739413C10.1222 0.782929 10.217 0.846695 10.2967 0.927034L11.2053 1.83561C11.2856 1.91529 11.3494 2.01009 11.3929 2.11454C11.4364 2.21899 11.4588 2.33102 11.4588 2.44418C11.4588 2.55733 11.4364 2.66936 11.3929 2.77381C11.3494 2.87826 11.2856 2.97307 11.2053 3.05275L7.16811 7.10703Z" stroke="#5B5B5B" stroke-linecap="round" stroke-linejoin="round"/>
</g>
<defs>
<clipPath id="clip0_94_1116">
<rect width="12" height="12" fill="white" transform="translate(0 0.132462)"/>
</clipPath>
</defs>
</svg>
