<svg width="103" height="100" viewBox="0 0 103 100" fill="none" xmlns="http://www.w3.org/2000/svg">
<path d="M43.7853 69.28C30.797 90.9024 46.9604 110.359 51.3275 88.5948C53.3415 105.541 73.5433 97.6321 59.5994 68.3753" fill="white"/>
<path d="M42.1208 68.3247C37.9386 75.3594 35.4417 84.2441 37.7434 92.3258C38.4627 94.8368 39.7163 97.3883 41.8947 98.9538C43.7751 100.306 46.2618 100.367 48.1628 99.025C51.2763 96.8191 52.458 92.6308 53.1875 89.1135L49.4061 88.6052C49.7863 91.6447 50.6289 94.7554 52.8176 97.0325C54.472 98.7709 56.8662 99.6655 59.2501 99.1673C65.3949 97.8865 66.6793 89.8861 66.3505 84.8134C65.96 78.7344 63.8638 72.8993 61.2641 67.42C60.8223 66.4847 59.4659 66.2509 58.6233 66.7389C57.6574 67.298 57.493 68.406 57.9348 69.3514C59.9694 73.6413 61.6957 78.3481 62.3122 82.9734C62.5383 84.6711 62.6102 86.4094 62.4869 88.1274C62.415 89.0118 62.4252 89.0423 62.23 89.9471C62.0964 90.5773 61.932 91.1974 61.7162 91.7972C61.6649 91.9395 61.6135 92.0819 61.5621 92.214C61.3874 92.6816 61.7368 91.8481 61.5313 92.2953C61.408 92.5495 61.2949 92.7935 61.1614 93.0374C61.038 93.2611 60.8942 93.4847 60.7503 93.7084C60.6784 93.81 60.6065 93.9117 60.5345 94.0133C60.3393 94.2878 60.8223 93.7185 60.4523 94.0947C60.1646 94.3996 59.8769 94.6843 59.5481 94.9587C60.031 94.5623 59.4659 94.9994 59.3323 95.0807C59.1679 95.1824 58.4383 95.467 59.0651 95.2535C58.726 95.3755 58.3767 95.4365 58.0376 95.5382C58.6541 95.3654 58.1198 95.5179 57.8835 95.5179C57.791 95.5179 57.6882 95.5077 57.5957 95.5179C57.1231 95.5382 57.8937 95.6297 57.6368 95.528C57.4724 95.467 57.2464 95.4365 57.0717 95.3959C56.9792 95.3755 56.8867 95.3247 56.7942 95.3044C56.4346 95.1926 57.2155 95.5179 56.8867 95.345C56.7326 95.2637 56.5785 95.1926 56.4346 95.1011C56.3421 95.0502 56.2599 94.9892 56.1674 94.9283C55.7256 94.6741 56.3627 95.1214 56.1263 94.8978C55.9311 94.7148 55.7256 94.5521 55.5406 94.359C55.4584 94.2776 55.3865 94.176 55.3043 94.0947C54.9344 93.7084 55.4071 94.2675 55.2221 94.0032C54.883 93.5254 54.585 93.0273 54.3281 92.4987C54.2665 92.3665 54.2048 92.2344 54.1432 92.1022C54.3487 92.5596 54.0815 91.9395 54.0507 91.8582C53.9171 91.5024 53.8041 91.1466 53.7013 90.7807C53.5883 90.3944 53.4958 89.9979 53.4239 89.6014C53.393 89.4185 53.3622 89.2456 53.3211 89.0627C53.3006 88.9407 53.28 88.8187 53.2595 88.6967C53.28 88.8898 53.28 88.8695 53.2595 88.6357C53.1464 87.6903 52.6121 86.8872 51.5845 86.7652C50.6906 86.6636 49.663 87.1922 49.4678 88.1274C49.139 89.7234 48.7074 91.4313 48.0909 92.8748C47.8545 93.4237 47.5771 93.9625 47.2585 94.4708C47.1969 94.5724 46.7345 95.2231 46.9297 94.9791C46.7653 95.1926 46.5803 95.3959 46.3851 95.5788C46.2618 95.6907 45.8713 96.0058 46.2207 95.7618C46.0563 95.8838 45.8713 95.9753 45.7069 96.0871C45.3781 96.3209 46.0049 96.0566 45.5322 96.1685C45.3267 96.2193 44.7719 96.2396 45.3473 96.2396C45.1726 96.2396 44.9979 96.2396 44.8232 96.2396C44.5766 96.2396 45.2959 96.3819 44.9363 96.2396C44.8849 96.2193 44.7616 96.1888 44.7102 96.1786C44.6383 96.1786 44.5458 96.1176 44.4841 96.1075C44.9157 96.2396 44.7205 96.2193 44.6074 96.1583C44.4019 96.0465 44.2067 95.9245 44.0012 95.8025C43.7854 95.6703 44.2684 96.0261 44.0731 95.8635C43.9806 95.7923 43.8984 95.711 43.806 95.6398C43.6621 95.5077 43.5285 95.3755 43.3949 95.2332C43.323 95.1621 43.2613 95.0807 43.1997 95.0096C42.8709 94.6436 43.3436 95.2231 43.1586 94.9689C42.9736 94.7148 42.8092 94.4708 42.6551 94.2167C42.0283 93.1696 41.8022 92.58 41.4529 91.3499C40.6514 88.5544 40.5794 85.6165 40.9493 82.6685C41.5042 78.2769 43.1791 74.0886 45.4398 70.2968C46.7037 68.1824 43.3744 66.2611 42.1105 68.3755L42.1208 68.3247Z" fill="#5B5B5B"/>
<path d="M42.655 29.2982C38.627 21.796 35.3183 11.3355 40.3533 3.75194C45.2547 -1.44272 49.4574 5.57159 51.4201 9.67852C52.499 8.60096 53.023 6.35435 53.8759 4.96165C55.9516 1.56632 60.7092 0.79373 62.9081 4.5042C66.073 12.2606 61.9628 22.4263 58.9931 29.7354" fill="white"/>
<path d="M44.3198 28.3429C41.1961 22.4672 38.4217 15.1276 40.3021 8.44874C40.8775 6.40544 42.5113 2.55265 45.2138 4.28081C47.382 5.67351 48.6869 8.41824 49.7659 10.6547C50.2899 11.7322 52.006 11.9051 52.7869 11.041C54.6673 8.96719 54.7803 5.17539 57.7294 4.15883C58.6851 3.83352 59.7229 3.93518 60.5141 4.57562C61.6239 5.48036 61.8602 7.31018 62.0246 8.64188C62.8878 15.6969 59.7537 22.8535 57.1643 29.2477C56.7738 30.2134 57.5958 31.3316 58.5104 31.5959C59.6099 31.9009 60.4936 31.2198 60.884 30.2642C63.9667 22.6705 67.6762 13.7654 65.3025 5.48036C64.2544 1.81056 60.9046 -0.60887 57.0101 0.407696C55.2222 0.875317 53.6911 2.02404 52.6122 3.48789C51.5333 4.95175 51.3072 7.00521 50.0844 8.35724L53.1054 8.74354C51.0503 4.4638 46.6524 -2.41836 40.9597 0.854985C38.0415 2.53232 36.7057 6.16146 36.2022 9.30265C35.6576 12.6777 35.9453 16.1035 36.7365 19.4175C37.6407 23.2093 39.1923 26.8384 41.0111 30.2744C42.162 32.4499 45.4913 30.5184 44.3404 28.3531L44.3198 28.3429Z" fill="#5B5B5B"/>
<path d="M32.7289 42.9006C26.2964 36.6385 7.52298 33.6092 3.58745 43.3479C4.12178 46.8042 8.74578 48.329 11.7257 46.977C-5.18787 43.4495 -1.32426 66.9932 32.1021 54.7029" fill="white"/>
<path d="M34.0957 41.5482C29.5642 37.2177 22.5151 35.3167 16.3601 35.1845C13.1747 35.1134 9.87622 35.6013 7.01962 37.055C4.54321 38.3156 0.885119 41.5076 1.91267 44.5776C3.3718 48.9285 8.76646 50.2602 12.702 48.6134C14.2228 47.9729 13.7707 45.4417 12.2396 45.1266C9.29052 44.5268 5.99207 44.3845 3.26905 45.889C1.29614 46.997 -0.0499562 49.0302 0.00142149 51.3073C0.155555 57.7828 8.4993 59.9481 13.6782 60.1616C20.1312 60.4259 26.6151 58.7181 32.616 56.5324C34.928 55.6887 33.921 52.0087 31.5885 52.8525C26.7076 54.6315 21.5801 56.0851 16.3601 56.3291C14.6133 56.4104 12.6917 56.3596 11.1196 56.0953C10.3694 55.9632 9.62961 55.8005 8.90005 55.5769C8.12938 55.3431 7.82111 55.2312 7.31761 54.9873C6.78328 54.7331 6.27978 54.4383 5.79683 54.113C5.34471 53.808 5.88931 54.235 5.48856 53.8894C5.28305 53.7064 5.07754 53.5336 4.89258 53.3302C4.78983 53.2184 4.28632 52.578 4.61514 53.0456C4.50211 52.883 4.38908 52.7203 4.28632 52.5475C4.18357 52.3747 4.10137 52.212 4.01916 52.0494C3.8342 51.6936 4.16302 52.4763 4.04999 52.1002C4.01916 51.9986 3.97806 51.8969 3.94723 51.7952C3.90613 51.6021 3.84448 50.9312 3.8753 51.5919C3.8753 51.4293 3.85475 51.2565 3.85475 51.0938C3.85475 50.8905 3.98833 50.4025 3.8342 51.0125C3.88558 50.8295 3.92668 50.6364 3.97806 50.4432C4.08081 50.0061 3.73145 50.7482 4.03971 50.311C4.14247 50.1586 4.23495 49.9959 4.3377 49.8434C3.92668 50.4635 5.21112 49.142 4.63569 49.5486C4.83093 49.4165 5.02616 49.2843 5.2214 49.1725C5.32415 49.1115 5.43719 49.0607 5.55022 48.9997C6.03317 48.7557 5.35498 49.0505 5.6838 48.9488C6.2284 48.7659 6.77301 48.6236 7.33816 48.5422C6.87576 48.6134 7.79029 48.5117 7.94442 48.5117C8.29379 48.5016 8.64316 48.5016 8.99253 48.5117C9.99953 48.5524 10.2359 48.5931 11.2223 48.7964L10.7599 45.3095C8.71509 46.1635 5.87903 45.0249 5.44746 42.819V43.8355C7.31761 39.4033 13.2672 38.7527 17.5212 39.0272C22.3096 39.3321 27.8893 40.8977 31.3727 44.2218C33.1606 45.9297 35.8836 43.2357 34.0957 41.5279V41.5482Z" fill="#5B5B5B"/>
<path d="M69.6491 42.87C76.1125 36.5775 94.9887 33.5278 98.9447 43.3275C98.4104 46.8041 93.7556 48.329 90.7654 46.9668C106.374 43.1343 106.281 66.4544 69.5053 55.201" fill="white"/>
<path d="M71.0053 44.2218C74.5092 40.8773 80.13 39.3017 84.9389 38.9967C89.2136 38.7222 95.2042 39.383 97.0846 43.8355V42.819C96.6633 45.0351 93.7862 46.1838 91.7311 45.3197L91.2687 48.8066C91.6283 48.7252 91.9777 48.6541 92.3373 48.5829C92.3887 48.5728 92.9744 48.4914 92.512 48.5524C92.6764 48.5321 92.8408 48.5118 93.0052 48.5016C93.6218 48.4508 94.2383 48.4508 94.8548 48.4813C94.9987 48.4813 95.1425 48.5016 95.2761 48.5219C94.7418 48.4609 95.2042 48.5117 95.3069 48.5321C95.5227 48.5727 95.7385 48.6134 95.9543 48.6744C96.2009 48.7354 96.4373 48.8167 96.6736 48.898C96.7969 48.9387 97.1668 49.1217 96.653 48.8879C96.7763 48.9489 96.8997 48.9997 97.0127 49.0607C97.1874 49.1624 97.3621 49.264 97.5367 49.3657C98.0608 49.6706 97.4237 49.203 97.732 49.5182C97.8656 49.6503 97.9889 49.7825 98.1327 49.9044C98.5129 50.2501 98.0197 49.5893 98.2766 50.0976C98.3588 50.2602 98.4615 50.4331 98.554 50.5957C98.6054 50.6872 98.4718 50.2094 98.554 50.6567C98.5849 50.8295 98.6362 51.0227 98.6773 51.1955C98.5129 50.5347 98.6465 51.2057 98.6568 51.4293C98.6568 51.6326 98.5026 52.1206 98.667 51.4903C98.6157 51.6834 98.5746 51.8664 98.5335 52.0596C98.5129 52.1612 98.4615 52.2527 98.4307 52.3442C98.3177 52.7102 98.6465 51.9274 98.4615 52.2629C98.3588 52.456 98.256 52.639 98.143 52.822C98.0813 52.9135 98.0197 53.005 97.9478 53.0965C97.7114 53.4319 98.2458 52.761 97.958 53.0761C97.8245 53.2286 97.6909 53.3811 97.547 53.5234C97.3621 53.7064 97.1668 53.8691 96.9613 54.0317C97.3621 53.7064 96.5811 54.2859 96.4373 54.3773C95.2042 55.1398 94.5979 55.3431 93.1388 55.7294C91.3714 56.1868 89.902 56.3393 88.0421 56.3901C81.9076 56.5528 75.8142 55.1398 69.9777 53.3709C67.6041 52.6492 66.5868 56.3291 68.9502 57.0509C74.8894 58.8502 81.1267 60.2531 87.3742 60.2124C91.0734 60.1819 95.1014 59.6635 98.3177 57.7117C100.496 56.3901 102.284 54.3163 102.49 51.7139C102.664 49.4165 101.4 47.363 99.5199 46.1025C96.8277 44.3032 93.2518 44.415 90.2206 45.1469C88.7409 45.5027 88.1963 47.973 89.7581 48.6337C93.2416 50.0976 97.7011 49.2945 99.8898 46.0313C100.383 45.2892 100.845 44.2523 100.845 43.3374C100.845 42.4937 100.239 41.5381 99.7768 40.8468C98.9239 39.566 97.8347 38.5189 96.5606 37.665C91.1453 34.0562 83.3154 34.7373 77.3967 36.5671C74.0777 37.5938 70.7792 39.1288 68.2514 41.5381C66.4635 43.2459 69.1865 45.9398 70.9745 44.232L71.0053 44.2218Z" fill="#5B5B5B"/>
<path d="M32.76 58.6874C25.4952 56.4001 3.29998 67.7653 11.6951 76.2842C14.0585 77.3719 23.2448 74.5865 22.433 71.6995C17.2233 75.4099 14.0276 85.1385 23.4606 85.1486C30.9001 83.8678 37.1065 73.4174 43.5082 69.8798" fill="white"/>
<path d="M33.2735 56.8474C30.0881 55.902 26.3889 56.8169 23.3576 57.8639C19.5762 59.1753 15.9798 61.0865 12.8971 63.638C10.359 65.7423 7.88263 68.7412 7.90318 72.1975C7.91346 73.9562 8.6122 75.5624 9.71168 76.9144C11.0475 78.5612 12.969 78.5409 14.9317 78.2664C18.2918 77.7988 25.2997 75.7758 24.2824 71.1911C24.0358 70.0729 22.4328 69.341 21.4566 70.0526C17.4183 73.0006 12.9588 80.0556 17.0176 84.681C19.1652 87.1309 23.0802 87.5375 25.9881 86.4091C29.5949 85.0164 32.5131 82.3632 35.2259 79.7099C38.1338 76.8636 40.8877 73.5597 44.4739 71.5266C46.6214 70.3067 44.6896 67.013 42.5318 68.2329C36.9008 71.4249 33.3043 77.1177 28.1255 80.879C26.0395 82.4038 23.3884 83.9795 20.7682 82.8003C20.1003 82.4953 19.6892 81.9972 19.5351 81.5499C19.2782 80.8383 19.309 80.0352 19.5043 79.2118C20.0386 76.9551 21.5286 74.7186 23.409 73.3462L20.5832 72.2077C20.5627 72.1365 20.5524 71.9129 20.614 71.8621C20.3469 72.0959 20.6551 71.9536 20.2749 72.2687C19.8947 72.5838 19.2577 72.9701 18.672 73.2548C17.295 73.9257 15.692 74.3933 14.1713 74.5763C13.8219 74.617 12.8971 74.6373 12.7327 74.617C12.9999 74.6576 12.4861 74.5763 12.4861 74.556L12.4141 74.5356C12.147 74.4441 12.3114 74.5356 12.8971 74.7694C12.8457 74.7999 12.4244 74.1798 12.3628 74.0883C11.9826 73.4886 11.9826 73.4479 11.8182 72.8176C11.7257 72.4415 11.7462 72.7973 11.7565 72.3093C11.7565 72.1365 11.8284 71.4148 11.7771 71.7096C12.1881 69.4223 14.1199 67.4908 16.1133 65.9558C18.5384 64.0853 21.3642 62.6215 24.2516 61.6049C25.721 61.0865 27.437 60.6087 28.8653 60.4155C29.3585 60.3444 30.1703 60.2935 30.7868 60.3139C31.5986 60.3342 31.465 60.3139 32.246 60.5375C34.6299 61.2491 35.6472 57.5691 33.2735 56.8575V56.8474Z" fill="#5B5B5B"/>
<path d="M61.9013 31.0066C62.6514 23.8398 69.0633 14.3349 76.4514 12.129C79.1745 10.8278 83.7779 10.6753 84.6 14.2231C85.0521 16.7645 79.9554 24.8157 77.3557 23.3011C82.3188 19.2755 92.6457 18.7367 90.2207 27.7536C87.1688 34.3003 76.5336 37.1569 71.6733 42.2803" fill="white"/>
<path d="M63.823 31.0064C64.5217 24.9782 68.7655 18.584 73.9238 15.3818C75.1466 14.6194 76.4619 14.0908 77.8183 13.6232C78.8972 13.2572 80.12 13.0234 81.2503 13.308C82.0826 13.5215 82.6889 14.0704 82.6889 14.7515C82.6889 14.965 82.6889 14.721 82.6991 14.6804C82.6786 14.8024 82.6478 14.9447 82.6169 15.0667C82.5553 15.2802 82.5039 15.4835 82.432 15.6868C82.2573 16.2154 82.021 16.7033 81.7641 17.1913C81.1373 18.3705 80.4077 19.5091 79.4726 20.4748C79.0924 20.8713 78.7225 21.1966 78.3629 21.4202C78.2498 21.4914 78.0032 21.5015 77.9724 21.5829C77.9724 21.5524 78.2601 21.6134 78.3218 21.6439L78.7122 24.6326C80.2433 23.4228 82.4936 22.5791 84.3946 22.4368C85.4735 22.3555 86.2031 22.3656 87.169 22.7417C87.5903 22.9044 88.176 23.3212 88.4329 23.9413C88.5048 24.1039 88.6281 24.6224 88.6487 24.9477C88.6795 25.5475 88.6384 26.1574 88.4843 26.7369C88.1657 27.9466 87.1793 28.9936 86.2956 29.8475C84.0966 31.9722 81.353 33.4869 78.7225 35.0117C75.7734 36.7297 72.701 38.4477 70.3171 40.9078C68.6011 42.6766 71.3241 45.3807 73.0401 43.6017C77.9621 38.529 85.6071 36.8415 90.1592 31.3114C92.2759 28.7395 93.3754 25.151 91.7622 22.0098C90.5188 19.5701 87.7136 18.584 85.0933 18.5942C81.7846 18.6043 78.5478 19.9055 75.9789 21.9285C75.0233 22.6808 75.3521 24.3988 76.3694 24.9172C79.5548 26.5437 82.4217 23.1992 84.0144 20.8713C85.6996 18.401 87.5595 14.904 85.751 12.0373C83.552 8.55048 78.9999 9.1096 75.7015 10.3396C71.6426 11.8543 68.3956 14.3856 65.7342 17.7707C62.7235 21.6032 60.5245 26.1167 59.9696 30.9658C59.8463 31.9925 60.9355 32.8769 61.9014 32.8769C63.042 32.8769 63.7099 32.0027 63.8332 30.9658L63.823 31.0064Z" fill="#5B5B5B"/>
<path d="M69.5669 58.6871C76.7803 56.41 98.77 67.887 90.4057 76.2839C88.0423 77.3716 78.856 74.5862 79.6677 71.6992C84.8774 75.4096 88.0731 85.1382 78.6402 85.1483C71.0671 84.1928 66.2582 73.6713 60.3497 69.8795" fill="white"/>
<path d="M70.0807 60.5273C70.317 60.4561 70.5533 60.4053 70.7897 60.3544C70.6664 60.3748 70.9438 60.3341 71.2418 60.3138C71.8378 60.2833 72.4338 60.3138 73.0297 60.3646C74.047 60.4663 75.6706 60.8627 76.8934 61.249C79.8835 62.1944 82.7401 63.6278 85.2885 65.4373C86.4496 66.2505 87.5285 67.1959 88.4636 68.2532C89.1418 69.0257 89.8611 70.0931 90.118 70.9166C90.416 71.8925 90.4673 72.5837 90.118 73.4275C90.005 73.6918 89.4809 74.3017 89.3781 74.5864C89.2343 74.9625 89.5014 74.6779 89.7686 74.4949C89.6864 74.5457 89.4809 74.5965 89.3884 74.5965C89.5528 74.5965 89.0288 74.6169 88.7411 74.6067C87.1689 74.5762 85.4426 74.0984 83.9527 73.4783C83.2847 73.1937 82.473 72.787 81.9797 72.3906C82.0928 72.4821 81.7948 72.2178 81.7742 72.1974C81.5687 71.9941 81.6304 72.0246 81.5893 72.0145C81.4557 71.9535 81.5379 71.679 81.4968 71.8721C81.4043 72.3194 81.6098 71.8315 81.5276 72.2076L78.7018 73.3462C80.3254 74.5254 81.7023 76.4263 82.3497 78.3172C82.6785 79.2931 82.8634 80.208 82.7196 81.0314C82.6168 81.6515 82.3188 82.1801 81.8051 82.5257C76.9756 85.8296 71.2213 78.4188 68.5702 75.3285C66.3609 72.7667 64.1825 70.1236 61.3259 68.243C59.2502 66.8808 57.3184 70.1846 59.3838 71.5367C62.2096 73.397 64.3264 76.2739 66.5151 78.7949C68.827 81.4583 71.3548 84.2742 74.5916 85.8601C77.8284 87.4459 81.6201 87.6086 84.4151 85.3315C86.6243 83.5423 86.9531 80.5841 86.2646 77.9817C85.4221 74.7897 83.295 71.9941 80.6439 70.0626C79.6575 69.3511 78.0648 70.083 77.8182 71.2012C76.8934 75.3691 82.7504 77.3921 85.8845 78.063C87.4977 78.4087 89.5939 78.7848 91.1558 78.0325C92.7177 77.2803 93.7658 75.1658 94.0638 73.58C94.7317 70.1135 92.7074 66.9418 90.2927 64.6139C87.4155 61.8488 83.8396 59.8462 80.1404 58.3721C76.8214 57.0404 72.629 55.7901 69.0634 56.8574C66.7 57.569 67.707 61.249 70.0909 60.5374L70.0807 60.5273Z" fill="#5B5B5B"/>
<path d="M41.3196 31.1691C40.8469 24.1243 34.5685 14.9346 27.5812 12.383C24.9198 10.97 20.3369 10.604 19.3402 14.1112C18.775 16.6322 23.4915 24.9071 26.1631 23.5042C21.385 19.2652 11.0992 18.2588 13.1029 27.3774C15.754 34.1782 26.42 37.0652 31.1673 42.1989" fill="white"/>
<path d="M43.2512 31.1689C42.9121 26.9501 41.1858 22.9042 38.7814 19.4377C36.3769 15.9712 33.1504 12.708 29.1737 10.9799C25.9472 9.58717 21.652 8.31647 18.816 11.2543C16.319 13.8364 17.6857 17.3334 19.1653 20.0476C20.645 22.7619 23.5633 26.7875 27.1392 25.1508C28.2284 24.6527 28.4031 22.9144 27.5296 22.1621C23.8202 18.9497 16.0416 16.2355 12.3218 20.9016C10.2975 23.4328 10.5955 27.2653 12.2293 29.9083C14.12 32.9784 17.2233 35.103 20.2443 36.9836C23.5119 39.0066 27.1494 40.7449 29.8211 43.5608C31.5165 45.3601 34.2396 42.6561 32.5441 40.8669C28.3825 36.4652 22.2788 34.5744 17.809 30.5589C15.9388 28.8816 14.3667 26.8078 14.8804 24.2664C15.0346 23.4938 15.4353 23.0363 16.0107 22.7212C16.6376 22.3756 17.3979 22.2739 18.333 22.2943C20.5628 22.3451 23.0803 23.3616 24.8169 24.8662L25.2074 21.8775C25.2793 21.847 25.4334 21.8165 25.4848 21.786C25.7417 21.6233 25.3204 21.9385 25.5362 21.786C25.5773 21.7555 25.5465 21.786 25.5156 21.7656C25.1149 21.481 24.9505 21.42 24.5497 21.0134C23.7482 20.2103 23.1214 19.2547 22.5768 18.2687C22.0322 17.2826 21.6006 16.3473 21.3438 15.3003C21.2307 14.8225 21.1691 14.9343 21.2513 14.426C21.1896 14.8835 21.3335 14.304 21.4465 14.1414C21.539 13.9991 21.6417 13.8771 21.7753 13.7653C23.5427 12.3319 26.8309 14.0194 28.4544 14.8835C31.2905 16.3982 33.6539 18.7769 35.4623 21.3895C37.4661 24.2664 39.1307 27.6617 39.4082 31.1994C39.6034 33.629 43.4567 33.6493 43.2615 31.1994L43.2512 31.1689Z" fill="#5B5B5B"/>
<path d="M34.0134 37.1774C21.9293 54.3573 40.5383 78.5719 61.7574 67.0949C90.0254 48.0648 56.2497 11.4074 34.0134 37.1774Z" fill="#FFF100"/>
<path d="M32.3487 36.2114C26.4197 44.7709 27.2315 56.0751 33.8489 64.0044C36.8802 67.6437 41.1651 70.3579 45.8302 71.4151C51.3585 72.6757 57.0511 71.6184 62.0553 69.0872C64.3673 67.9181 66.5046 65.9867 68.2618 64.106C69.8647 62.388 71.293 60.4464 72.3103 58.3319C74.1599 54.5198 74.8176 50.3417 74.1907 46.1535C73.0296 38.3666 67.4089 31.4132 60.1543 28.2822C55.8489 26.4219 51.0913 25.9035 46.4981 26.9505C41.0007 28.2111 36.274 31.6572 32.6364 35.8251C31.0232 37.6753 33.7359 40.3794 35.3595 38.519C38.1852 35.2762 41.6275 32.4501 45.7994 31.0981C49.1595 30.0104 52.6738 29.9291 56.0236 30.844C62.415 32.5925 67.7891 37.7973 69.762 44.0288C72.0226 51.1956 69.2688 58.3319 63.5453 63.3233C56.6298 69.3617 45.9433 69.8699 38.9148 63.7299C35.4417 60.6904 33.1297 56.5631 32.3384 52.0394C31.4856 47.1395 32.8419 42.199 35.6574 38.1429C37.0652 36.1098 33.7256 34.2088 32.3282 36.2216L32.3487 36.2114Z" fill="#5B5B5B"/>
<path d="M57.7808 47.4648L58.1301 47.6376C58.4281 47.8206 58.7467 47.9222 59.0857 47.9426C59.4248 48.0137 59.7639 48.0036 60.1133 47.9019C60.4524 47.8206 60.7401 47.6681 60.9867 47.4444C61.2642 47.2615 61.4902 47.0277 61.6444 46.7328L61.9012 46.1229C62.0246 45.6756 62.0246 45.2182 61.9012 44.7709L61.6444 44.1609C61.4183 43.7746 61.11 43.4798 60.7196 43.246L60.3702 43.0732C60.0722 42.8902 59.7537 42.7886 59.4146 42.7682C59.0755 42.6971 58.7364 42.7072 58.387 42.8089C58.0479 42.8902 57.7602 43.0427 57.5136 43.2664C57.2362 43.4493 57.0101 43.6831 56.856 43.978L56.5991 44.5879C56.4758 45.0352 56.4758 45.4926 56.5991 45.9399L56.856 46.5499C57.082 46.9362 57.3903 47.231 57.7808 47.4648Z" fill="#5B5B5B"/>
<path d="M44.9775 43.256L44.6281 43.0832C44.3301 42.9002 44.0116 42.7985 43.6725 42.7782C43.3334 42.707 42.9943 42.7172 42.6449 42.8189C42.3058 42.9002 42.0181 43.0527 41.7715 43.2763C41.494 43.4593 41.268 43.6931 41.1138 43.9879L40.857 44.5979C40.7337 45.0451 40.7337 45.5026 40.857 45.9499L41.1138 46.5598C41.3399 46.9461 41.6482 47.2409 42.0386 47.4747L42.388 47.6476C42.686 47.8305 43.0045 47.9322 43.3436 47.9525C43.6827 48.0237 44.0218 48.0135 44.3712 47.9119C44.7103 47.8305 44.998 47.6781 45.2446 47.4544C45.5221 47.2714 45.7481 47.0376 45.9022 46.7428L46.1591 46.1329C46.2824 45.6856 46.2824 45.2281 46.1591 44.7808L45.9022 44.1709C45.6762 43.7846 45.3679 43.4898 44.9775 43.256Z" fill="#5B5B5B"/>
<path d="M51.3279 61.422C50.9374 61.422 50.5572 61.3101 50.2181 61.0967L46.149 58.4943C45.1934 57.8843 44.9159 56.6238 45.5325 55.6885C46.149 54.7431 47.4232 54.4788 48.3685 55.0786L51.2354 56.9084L56.7739 52.7913C57.6782 52.1204 58.9729 52.2932 59.6511 53.1979C60.3293 54.1027 60.1443 55.3734 59.24 56.0443L52.5609 61.0052C52.2013 61.2796 51.7594 61.4118 51.3279 61.4118V61.422Z" fill="#5B5B5B"/>
</svg>
