<svg width="43" height="37" viewBox="0 0 43 37" fill="none" xmlns="http://www.w3.org/2000/svg">
<g clip-path="url(#clip0_222_298)">
<path d="M40.9774 17.2181C39.9978 12.5825 37.7365 7.76117 34.0764 5.10218C30.5186 2.52347 25.6937 2.31276 22.2383 4.86137C18.3736 1.73581 12.2084 2.92984 8.48985 6.34137C4.94672 9.59235 1.69114 15.1913 1.68139 20.4239C1.20378 23.0528 1.5498 25.8272 2.92904 28.3507C6.37957 34.6621 14.7183 36.0668 21.0979 36.3076C27.8235 36.5585 35.3045 34.9781 39.4276 28.9979C41.8303 25.5111 42.2787 21.0762 40.9823 17.2131L40.9774 17.2181Z" fill="#B1FFA6"/>
<path d="M22.2871 4.30943C20.8835 2.42807 18.6172 1.26414 16.3169 1.23906C12.5155 1.1939 9.25014 4.0335 6.96928 7.15906C4.23518 10.9117 2.35396 15.3166 1.52057 19.9272C0.628692 24.8538 1.5693 29.2788 5.92632 31.9879C11.0729 35.1888 17.2624 36.0517 23.179 35.6603C28.6374 35.2991 34.169 34.6871 38.4821 30.7387C40.724 28.6868 42.3372 25.3856 41.5574 19.6914C41.0018 15.6277 38.9451 10.3097 36.4791 7.08882C34.7295 4.80611 32.5851 2.66387 29.8753 1.84611C27.1656 1.02834 23.8077 1.91133 22.4723 4.47499" fill="#C0FFAB"/>
<path d="M23.1448 3.42151C21.8095 1.68063 19.7869 0.456498 17.6571 0.115345C15.5274 -0.225807 13.2173 0.275888 11.2581 1.41474C7.36404 3.67236 4.5812 7.90667 2.73897 11.9905C0.896739 16.0743 -0.467877 20.725 0.151074 25.1951C0.419123 27.1366 1.16966 28.9427 2.3637 30.4729C3.70395 32.1987 5.59979 33.3627 7.52487 34.2757C11.799 36.3076 16.5265 37.0752 21.21 36.9949C23.4324 36.9598 25.6645 36.7692 27.8674 36.4682C30.0703 36.1671 32.2098 35.7056 34.2567 34.8477C37.7706 33.3727 40.9336 30.8993 42.2592 27.1316C43.6677 23.113 42.8879 18.4824 41.5769 14.5541C40.1733 10.3349 38.0143 6.24104 34.7002 3.28606C33.1017 1.86124 31.2009 0.702328 29.0809 0.396295C27.1412 0.115345 25.0261 0.466532 23.3934 1.6405C22.5844 2.22246 21.9069 2.94992 21.4244 3.84294C20.6593 5.2527 22.7598 6.51697 23.5299 5.10721C24.2512 3.78273 25.5963 3.04524 27.0291 2.84958C28.73 2.6188 30.3529 3.18572 31.7712 4.12389C34.9146 6.20592 37.0737 9.75792 38.5016 13.2347C39.915 16.6813 41.0262 20.7601 40.4072 24.5228C40.1635 26.0078 39.7103 27.2621 38.8672 28.4812C38.6137 28.8474 38.1605 29.3591 37.7267 29.7705C37.0006 30.4528 36.1964 31.0348 35.3484 31.5415C31.971 33.5483 28.0087 34.06 24.1829 34.341C20.0403 34.647 15.888 34.5065 11.8819 33.2924C8.52884 32.279 4.66405 30.5682 3.1776 27.0614C1.76912 23.7452 2.61713 19.7818 3.65034 16.4856C4.88336 12.5524 6.94003 8.64416 9.81547 5.72429C12.3644 3.13555 16.0635 1.3746 19.4653 3.39141C20.2499 3.85799 20.8981 4.47006 21.4537 5.19751C21.8631 5.72931 22.7501 5.63901 23.179 5.19751C23.6907 4.67073 23.5883 3.95833 23.179 3.42151H23.1448Z" fill="#5B5B5B"/>
<path d="M22.3261 5.39811C21.673 3.03513 19.1241 2.38794 17.0187 2.32272C15.1911 2.26753 13.305 2.76923 11.7211 3.7074C10.8292 4.23418 9.93245 4.94157 9.42559 5.87974C8.76765 7.09886 8.73841 8.56381 9.43046 9.77791C10.7805 12.1359 13.7046 11.4034 15.7759 10.7261C17.6523 10.114 19.4653 9.23106 21.0833 8.07716C21.6145 7.70089 22.0288 7.23431 22.2042 6.57709C22.3651 5.97506 22.292 5.17736 21.9606 4.64557C21.288 3.57194 19.7479 2.94984 18.627 3.74753C18.0958 4.1238 17.545 4.47499 16.9797 4.79106C16.7165 4.93655 16.4534 5.07703 16.1853 5.20747C16.0488 5.27269 15.9173 5.33791 15.7808 5.40313C15.6882 5.44326 15.6005 5.48842 15.5079 5.52855C15.8393 5.38808 15.9173 5.35296 15.7467 5.42319C14.5721 5.88475 13.3684 6.28611 12.1207 6.47675L12.7689 6.38645C12.5837 6.40652 12.4082 6.41153 12.2231 6.39648L12.8712 6.48679C12.6227 6.4316 12.6909 6.47675 13.0759 6.62225C13.2465 6.7276 13.3878 6.86306 13.4902 7.03364C13.6267 7.19418 13.7193 7.37981 13.7631 7.59052C13.7387 7.51526 13.7193 7.44001 13.7095 7.36475L13.7972 8.03201C13.7875 7.9116 13.7875 7.80123 13.7972 7.67581L13.7095 8.34306C13.7193 8.26781 13.7534 8.18252 13.7582 8.11228C13.5877 8.48855 13.5487 8.58889 13.6413 8.4133C13.6608 8.37316 13.6851 8.33303 13.7095 8.29791C13.8167 8.07716 13.3878 8.63404 13.5828 8.48353C13.6656 8.41831 13.7339 8.28787 13.8313 8.24774C13.768 8.27282 13.383 8.56882 13.6608 8.38821C13.7582 8.32299 13.8508 8.25275 13.9532 8.19255C14.1286 8.07716 14.309 7.97181 14.499 7.87147C14.5819 7.82631 14.6647 7.78618 14.7476 7.74604C15.0498 7.59052 14.6111 7.78116 14.5478 7.82631C14.6989 7.71594 14.962 7.66577 15.1375 7.61059C15.5615 7.47513 15.9904 7.37981 16.429 7.3196L15.7808 7.40991C16.4777 7.3196 17.1649 7.32462 17.8618 7.41994L17.2136 7.32964C17.5938 7.38984 17.9544 7.50021 18.3297 7.59052C18.5783 7.65072 17.8472 7.33465 18.0714 7.47011C18.1348 7.51025 18.2079 7.55038 18.2712 7.5855C18.3736 7.65574 18.3346 7.62564 18.1591 7.49519C18.0373 7.42496 17.9447 7.32964 17.8765 7.20421C17.7497 7.01858 17.7205 6.97343 17.7839 7.08381C17.8813 7.25438 17.8326 7.13899 17.6376 6.74265C17.9885 8.00191 19.3775 8.91499 20.6349 8.49357C21.8923 8.07214 22.7111 6.7577 22.3358 5.40814L22.3261 5.39811Z" fill="#FFFF03"/>
<path d="M27.2582 7.52537L27.3167 7.44008L26.9365 7.94679C27.0584 7.78625 27.1948 7.64578 27.3459 7.51534L26.8537 7.90666C27.0389 7.76117 27.2338 7.65079 27.4483 7.55046L26.8683 7.8013C27.1851 7.67086 27.5067 7.58557 27.8479 7.53039L27.1997 7.62069C27.7602 7.54544 28.3206 7.57052 28.8811 7.64076L28.2329 7.55046C28.9542 7.65581 29.6463 7.85147 30.3188 8.14245L29.7389 7.89161C30.0118 8.01703 30.275 8.14747 30.5186 8.32307L30.0264 7.93174C30.1385 8.02205 30.236 8.11235 30.3237 8.22273L29.9436 7.71601C30.0069 7.80632 30.0556 7.88659 30.0995 7.98693L29.8558 7.38991C29.8899 7.48523 29.9143 7.57554 29.9289 7.67588L29.8412 7.00862C29.8461 7.10896 29.8461 7.19927 29.8412 7.29961L29.9289 6.63235C29.9094 6.73269 29.8899 6.823 29.8558 6.91832L30.0995 6.3213C30.0362 6.48185 29.9533 6.62232 29.851 6.75778L30.2311 6.25107C30.1434 6.35642 30.0508 6.44673 29.9436 6.53703L30.4358 6.14571C30.3188 6.231 30.2019 6.29622 30.0703 6.3514L30.6502 6.10056C30.4602 6.17079 30.2701 6.22096 30.0703 6.24605L30.7185 6.15574C30.4309 6.18083 30.1531 6.17079 29.8656 6.13568L30.5138 6.22598C29.7584 6.11561 29.0224 5.88483 28.3158 5.58883L28.8957 5.83968C28.1208 5.49852 27.3946 5.06707 26.7221 4.5453L27.2143 4.93662C27.0584 4.8112 26.9024 4.68076 26.7513 4.5453C26.2542 4.10381 25.7035 3.81283 25.0261 3.81283C24.4266 3.81283 23.7151 4.08374 23.3008 4.5453C22.4625 5.48347 22.2676 7.1792 23.3008 8.09229C24.5826 9.22612 25.9715 10.074 27.5701 10.6409C29.1686 11.2078 31.352 11.569 32.8823 10.4753C33.9351 9.72279 34.6515 8.599 34.7051 7.25446C34.7587 5.90991 34.0179 4.751 32.9652 3.99845C32.317 3.5369 31.5177 3.23086 30.7623 3.00008C29.9094 2.73418 28.9932 2.59873 28.1062 2.56862C27.3264 2.54354 26.4833 2.62883 25.7474 2.89974C24.6021 3.32117 23.7492 3.97337 23.0425 4.99683C22.6965 5.49852 22.6429 6.35642 22.7988 6.92835C22.9548 7.50029 23.3934 8.14245 23.9198 8.42842C24.4851 8.73445 25.1723 8.88998 25.7961 8.67927C26.4199 8.46856 26.8683 8.08727 27.2533 7.52537H27.2582Z" fill="#FFFF03"/>
<path d="M21.5414 7.54553C21.6681 7.4753 21.7997 7.41007 21.9362 7.34987L21.6438 7.47529C21.9654 7.33984 22.3017 7.24953 22.6477 7.19936L22.3261 7.24452C22.6916 7.19435 23.0571 7.19435 23.4226 7.24452L23.101 7.19936C23.3739 7.2395 23.6419 7.30472 23.9003 7.40004C24.1878 7.5054 24.5874 7.42513 24.8409 7.27462C25.0943 7.12411 25.3331 6.82309 25.4013 6.52709C25.5573 5.82472 25.1966 5.21767 24.5484 4.98187C23.1643 4.48018 21.5902 4.66079 20.3133 5.37821C19.7528 5.69428 19.5286 6.53713 19.8746 7.09401C20.2207 7.65089 20.942 7.88167 21.5414 7.54553Z" fill="#FFFF03"/>
<path d="M21.7382 26.3016C21.1338 26.8886 21.0607 27.7565 21.0315 28.5593C21.0169 29.0208 20.9974 29.4874 20.9828 29.949C20.9681 30.4105 20.9243 30.8921 21.2508 31.2383C21.9526 31.9858 23.0151 31.0125 23.4147 30.3804C23.8874 29.6329 23.9654 28.6496 23.7217 27.8017C23.4781 26.9538 22.7763 26.1612 21.8649 26.417C21.4555 26.5324 21.09 26.8535 20.9048 27.2448C20.7001 27.6763 20.6562 28.1378 20.627 28.6094C20.5977 29.081 20.5441 29.5325 20.6416 29.9841C20.7488 30.4707 21.0949 30.9022 21.5725 31.0276C22.5959 31.3035 23.0735 30.0844 23.3318 29.3018C23.4878 28.8252 23.5463 28.3034 23.4196 27.8067C23.2831 27.2599 22.8396 26.5876 22.206 26.7431C21.6699 26.8736 21.4604 27.5007 21.3824 28.0024C21.2947 28.5442 21.319 29.0911 21.4847 29.6128C21.5627 29.8687 21.7967 30.0844 22.0745 30.0744C22.3522 30.0643 22.6008 29.8887 22.6642 29.6128C22.7665 29.1563 22.8591 28.6947 22.9371 28.2332C22.9858 27.9572 23.0346 27.6763 22.8932 27.4154C22.7519 27.1545 22.401 26.9438 22.0988 27.0692C21.7967 27.1946 21.5773 27.4856 21.6748 27.8418C21.7528 28.1378 22.1183 28.4138 22.4254 28.2783L22.4595 28.2633H22.1378L22.1671 28.2733L21.899 28.1127C21.8259 28.0425 21.7918 27.9572 21.7967 27.8619C21.7967 27.7565 21.7918 27.7515 21.7772 27.8619C21.7625 27.9121 21.7577 27.9673 21.7479 28.0224C21.7236 28.1679 21.6943 28.3134 21.6651 28.4589C21.6115 28.7348 21.553 29.0108 21.4945 29.2867H22.669C22.5764 28.9907 22.5472 28.8302 22.5569 28.5342C22.5569 28.3686 22.5667 28.3385 22.5959 28.2031C22.6106 28.1328 22.63 28.0626 22.6495 27.9923C22.6642 27.9472 22.6788 27.902 22.6934 27.8569C22.669 27.9071 22.6739 27.897 22.708 27.8368L22.6788 27.8719C22.4107 28.0475 22.2255 28.0475 22.1281 27.8719C22.1476 27.9221 22.1963 27.9823 22.2207 28.0325C22.1719 27.9271 22.245 28.1077 22.245 28.1127C22.245 28.1178 22.284 28.3184 22.2694 28.193C22.3084 28.489 22.2694 28.6245 22.1865 28.9004C22.1086 29.1563 22.0208 29.3519 21.899 29.6078C21.8746 29.658 21.8405 29.7081 21.8162 29.7633C21.7382 29.9289 21.8746 29.673 21.7772 29.8185C21.7187 29.9038 21.7772 29.8336 21.8259 29.8085C21.7577 29.8285 21.7577 29.8285 21.8259 29.8085C21.86 29.8085 21.8893 29.8085 21.9136 29.8285L21.8649 29.7984C21.9087 29.8336 21.9088 29.8285 21.8551 29.7784C21.9039 29.8938 21.8162 29.678 21.8551 29.7834C21.8551 29.7884 21.8015 29.5727 21.821 29.678C21.8113 29.6329 21.8162 29.5827 21.8113 29.5376C21.8015 29.2064 21.8356 28.8703 21.8551 28.5392C21.8551 28.4689 21.8649 28.3987 21.8698 28.3285C21.8698 28.3385 21.8941 28.1127 21.8795 28.2181C21.8893 28.1479 21.9039 28.0826 21.9234 28.0124C21.9234 28.0275 21.9867 27.8117 21.9526 27.902C21.9721 27.8468 22.0062 27.7967 22.0355 27.7465C21.9721 27.8468 22.0745 27.7014 22.0842 27.6913C22.1914 27.5609 22.0062 27.7465 22.1378 27.6462C22.2012 27.6111 22.2012 27.6111 22.1427 27.6361C22.2109 27.6211 22.2109 27.6161 22.1427 27.6211C22.1524 27.6211 22.3084 27.6361 22.2255 27.6211C22.1232 27.596 22.3474 27.6813 22.2012 27.6111C22.2158 27.6211 22.3571 27.7164 22.2548 27.6361C22.2986 27.6713 22.3376 27.7164 22.3717 27.7565C22.2889 27.6662 22.4059 27.8067 22.4107 27.8167C22.44 27.8669 22.4692 27.9221 22.4936 27.9723C22.5716 28.1278 22.4741 27.8769 22.518 28.0425C22.5423 28.1328 22.5716 28.2181 22.5911 28.3034C22.6447 28.5342 22.6642 28.78 22.6203 29.061C22.6349 28.9606 22.5911 29.1914 22.5959 29.1763C22.5813 29.2466 22.5618 29.3168 22.5374 29.382C22.5228 29.4222 22.5082 29.4673 22.4936 29.5075C22.5374 29.4071 22.4351 29.6128 22.4254 29.6329C22.3961 29.6881 22.362 29.7382 22.3279 29.7884C22.2304 29.9389 22.3961 29.7232 22.2743 29.8536C22.1914 29.9439 22.1134 30.0342 22.016 30.1095C22.1086 30.0393 21.9477 30.1496 21.9429 30.1546C21.8941 30.1847 21.8405 30.2148 21.7869 30.245L21.7333 30.27C21.8015 30.2299 21.8698 30.2299 21.9526 30.26C22.0403 30.2901 22.1134 30.3403 22.1671 30.4155C22.1963 30.4958 22.2012 30.5008 22.1817 30.4306V30.4958C22.1817 30.4607 22.1817 30.4306 22.1817 30.3955C22.1817 30.3001 22.1865 30.1998 22.1914 30.1045C22.1963 29.9389 22.2012 29.7784 22.206 29.6128C22.2207 29.2315 22.2304 28.8502 22.245 28.4689C22.2499 28.3285 22.2548 28.183 22.2694 28.0425C22.2694 28.0325 22.2938 27.8318 22.2743 27.9622C22.284 27.882 22.2986 27.8017 22.3181 27.7214C22.3328 27.6612 22.3474 27.606 22.362 27.5458C22.3717 27.5057 22.3864 27.4706 22.401 27.4355C22.3766 27.4957 22.3815 27.4906 22.4107 27.4254C22.44 27.3753 22.4643 27.3251 22.4985 27.2749C22.4351 27.3702 22.5716 27.1997 22.5911 27.1796C22.8299 26.9488 22.8201 26.5274 22.5911 26.2916C22.362 26.0558 21.9672 26.0558 21.7284 26.2916L21.7382 26.3016Z" fill="#FF6510"/>
<path d="M9.9958 18.382C11.1508 18.974 12.5301 19.0041 13.7875 18.8285C15.1082 18.6379 16.3315 18.1061 17.4768 17.4238C18.1542 17.0174 17.5402 15.9338 16.8627 16.3401C15.8685 16.9321 14.8256 17.4037 13.6803 17.5843C12.7104 17.7399 11.5115 17.7599 10.6148 17.2984C9.91295 16.9422 9.29887 18.0208 10.0007 18.382H9.9958Z" fill="#5B5B5B"/>
<path d="M27.0194 17.5744C29.115 18.4975 31.776 19.5209 33.8766 18.0108C34.1446 17.8152 34.2713 17.464 34.0959 17.1529C33.9399 16.877 33.5354 16.7315 33.2625 16.9272C31.5567 18.1563 29.3392 17.2432 27.6383 16.4907C27.3362 16.3552 26.9853 16.4004 26.8049 16.7165C26.6539 16.9824 26.7172 17.4389 27.0242 17.5744H27.0194Z" fill="#5B5B5B"/>
<path d="M17.7515 26.5926C19.082 26.0558 20.6269 25.9254 21.9672 26.5074C23.1027 26.999 24.1652 28.3436 23.6291 29.668C23.4293 30.1597 23.0053 30.5811 22.474 30.6213C21.7917 30.6764 21.1387 30.265 20.9437 29.5878C20.5977 28.3737 21.4896 27.0341 22.4984 26.4773C23.6388 25.8451 25.0473 25.8451 26.2998 26.0057C26.6312 26.0458 26.9042 25.6896 26.909 25.3785C26.909 25.0073 26.6264 24.7916 26.2998 24.7514C24.7598 24.5558 23.0345 24.6561 21.6845 25.514C20.237 26.4321 19.2087 28.464 19.8618 30.1848C20.549 31.9959 23.0248 32.4675 24.2578 30.9724C25.4908 29.4774 25.0278 27.3402 23.673 26.1411C21.9916 24.6511 19.4183 24.5808 17.4298 25.3886C16.7085 25.6796 17.0205 26.8937 17.7515 26.5977V26.5926Z" fill="#5B5B5B"/>
<path d="M22.0939 28.1279C22.1231 28.2483 22.1524 28.3737 22.1719 28.4992C22.1719 28.5293 22.1816 28.5594 22.1865 28.5844C22.1914 28.6196 22.1914 28.6246 22.1865 28.5844C22.1865 28.5995 22.1865 28.6145 22.1914 28.6296C22.1962 28.6948 22.206 28.755 22.2109 28.8202C22.2303 29.0711 22.2255 29.327 22.1962 29.5778C22.1816 29.7434 22.3473 29.8989 22.4984 29.8889C22.6787 29.8788 22.7859 29.7484 22.8006 29.5778C22.8542 29.036 22.8103 28.4841 22.6738 27.9573C22.6349 27.7968 22.4545 27.6864 22.2986 27.7366C22.1426 27.7868 22.0403 27.9523 22.0841 28.1229L22.0939 28.1279Z" fill="white"/>
</g>
<defs>
<clipPath id="clip0_222_298">
<rect width="43" height="37" fill="white"/>
</clipPath>
</defs>
</svg>
