<svg width="30" height="30" viewBox="0 0 30 30" fill="none" xmlns="http://www.w3.org/2000/svg">
<g clip-path="url(#clip0_209_410)">
<path fill-rule="evenodd" clip-rule="evenodd" d="M21.1714 17.9743C20.7846 18.3626 20.288 18.6229 19.7486 18.72L13.32 19.8771C12.8978 19.9535 12.4635 19.9274 12.0535 19.8009C11.6435 19.6745 11.2699 19.4514 10.9641 19.1504C10.6584 18.8495 10.4293 18.4795 10.2964 18.0716C10.1634 17.6637 10.1303 17.2298 10.2 16.8064L11.2714 10.2921C11.3624 9.73745 11.6255 9.22543 12.0236 8.82857L20.8929 1.04921e-06H5.35716C4.50467 1.04921e-06 3.68711 0.338648 3.08431 0.941443C2.48152 1.54424 2.14287 2.36181 2.14287 3.21429V22.3264L0.0557272 28.59C-0.00478005 28.772 -0.0153285 28.9669 0.0251828 29.1543C0.0656942 29.3418 0.15578 29.515 0.286038 29.6557C0.416295 29.7965 0.581949 29.8997 0.765709 29.9546C0.949469 30.0095 1.1446 30.0141 1.33073 29.9679L9.77358 27.8571H26.7857C27.6382 27.8571 28.4558 27.5185 29.0586 26.9157C29.6614 26.3129 30 25.4953 30 24.6429V9.10714L21.1714 17.9743ZM26.3979 0.165001C26.0044 0.000978432 25.571 -0.0419815 25.153 0.0416138C24.7351 0.125209 24.3515 0.331561 24.0514 0.634287L13.9157 10.7271L12.8443 17.2414L19.2729 16.0843L29.3657 5.94857C29.5666 5.74937 29.726 5.51236 29.8348 5.25124C29.9436 4.99011 29.9996 4.71003 29.9996 4.42714C29.9996 4.14426 29.9436 3.86418 29.8348 3.60305C29.726 3.34192 29.5666 3.10492 29.3657 2.90571L27.0943 0.634287C26.8956 0.432686 26.6589 0.272458 26.3979 0.162858V0.165001Z" fill="white"/>
</g>
<defs>
<clipPath id="clip0_209_410">
<rect width="30" height="30" fill="white"/>
</clipPath>
</defs>
</svg>
