<svg width="32" height="38" viewBox="0 0 32 38" fill="none" xmlns="http://www.w3.org/2000/svg">
<path d="M27.5 13.25L25.89 29.3462C25.6466 31.7861 25.5258 33.0051 24.97 33.927C24.4825 34.7385 23.7655 35.3875 22.9096 35.7919C21.9378 36.25 20.715 36.25 18.2617 36.25H13.7383C11.2869 36.25 10.0622 36.25 9.09042 35.79C8.23376 35.3859 7.51609 34.7369 7.02808 33.9251C6.47608 33.0051 6.35342 31.7861 6.10808 29.3462L4.5 13.25M18.875 25.7083V16.125M13.125 25.7083V16.125M1.625 8.45833H10.4704M10.4704 8.45833L11.2102 3.337C11.4249 2.4055 12.1992 1.75 13.0886 1.75H18.9114C19.8007 1.75 20.5732 2.4055 20.7897 3.337L21.5296 8.45833M10.4704 8.45833H21.5296M21.5296 8.45833H30.375" stroke="#5B5B5B" stroke-width="3.125" stroke-linecap="round" stroke-linejoin="round"/>
</svg>
