<svg width="40" height="40" viewBox="0 0 40 40" fill="none" xmlns="http://www.w3.org/2000/svg">
<path d="M35 31.6666V33.3333H5V31.6666L8.33333 28.3333V18.3333C8.33333 13.1666 11.7167 8.61659 16.6667 7.14992V6.66659C16.6667 5.78253 17.0179 4.93468 17.643 4.30956C18.2681 3.68444 19.1159 3.33325 20 3.33325C20.8841 3.33325 21.7319 3.68444 22.357 4.30956C22.9821 4.93468 23.3333 5.78253 23.3333 6.66659V7.14992C28.2833 8.61659 31.6667 13.1666 31.6667 18.3333V28.3333L35 31.6666ZM23.3333 34.9999C23.3333 35.884 22.9821 36.7318 22.357 37.3569C21.7319 37.9821 20.8841 38.3333 20 38.3333C19.1159 38.3333 18.2681 37.9821 17.643 37.3569C17.0179 36.7318 16.6667 35.884 16.6667 34.9999" fill="white"/>
</svg>
