<svg width="30" height="30" viewBox="0 0 30 30" fill="none" xmlns="http://www.w3.org/2000/svg">
<path d="M12.9679 3.11731C18.2716 3.11731 22.5682 7.41601 22.5682 12.7173C22.5708 14.4638 22.0948 16.1775 21.1918 17.6724L25.8463 22.3269L25.8301 22.3431C26.3269 22.8186 26.632 23.4936 26.632 24.2565C26.6323 25.7304 25.4581 26.883 23.9857 26.8827C23.2336 26.8824 22.561 26.5815 22.081 26.0919L22.0693 26.1036L17.2669 21.3009C15.9327 21.9703 14.4605 22.3184 12.9679 22.3173C7.66386 22.3173 3.36816 18.0192 3.36816 12.7173C3.36816 7.41601 7.66416 3.11731 12.9679 3.11731ZM12.9097 18.5424C16.2247 18.5424 18.91 15.8562 18.91 12.5424C18.91 9.22921 16.2247 6.54241 12.9097 6.54241C9.59466 6.54241 6.90996 9.22891 6.90996 12.5424C6.90966 15.8562 9.59466 18.5424 12.9097 18.5424Z" fill="white"/>
</svg>
