<svg width="40" height="40" viewBox="0 0 40 40" fill="none" xmlns="http://www.w3.org/2000/svg">
<path d="M30.8049 27.9451C28.5269 28.4921 26.1487 28.4656 23.8834 27.868C21.6181 27.2703 19.5364 26.1202 17.8247 24.5206C16.113 22.921 14.8246 20.9219 14.0751 18.7022C13.3256 16.4825 13.1383 14.1116 13.5299 11.8018C13.4713 11.8603 13.4083 11.9143 13.3416 11.9634C12.8749 12.3184 12.2916 12.4501 11.1249 12.7134L10.0666 12.9534C5.96661 13.8818 3.91661 14.3451 3.42828 15.9134C2.94161 17.4801 4.33828 19.1151 7.13328 22.3834L7.85661 23.2284C8.64994 24.1568 9.04828 24.6218 9.22661 25.1951C9.40494 25.7701 9.34494 26.3901 9.22494 27.6284L9.11494 28.7568C8.69328 33.1184 8.48161 35.2984 9.75828 36.2668C11.0349 37.2351 12.9549 36.3534 16.7916 34.5851L17.7866 34.1284C18.8766 33.6251 19.4216 33.3751 19.9999 33.3751C20.5783 33.3751 21.1233 33.6251 22.2149 34.1284L23.2066 34.5851C27.0449 36.3518 28.9649 37.2351 30.2399 36.2684C31.5183 35.2984 31.3066 33.1184 30.8849 28.7568L30.8049 27.9451Z" fill="white"/>
<path opacity="0.5" d="M15.255 9.01325L14.7083 9.99325C14.1083 11.0699 13.8083 11.6083 13.3417 11.9633C13.4083 11.9133 13.4711 11.8594 13.53 11.8016C13.1382 14.1116 13.3256 16.4827 14.0751 18.7026C14.8247 20.9224 16.1132 22.9217 17.8252 24.5213C19.5371 26.121 21.6191 27.271 23.8846 27.8685C26.1501 28.466 28.5285 28.4923 30.8067 27.9449L30.7733 27.6283C30.655 26.3899 30.595 25.7699 30.7733 25.1949C30.9517 24.6216 31.3483 24.1566 32.1433 23.2283L32.8667 22.3833C35.6617 19.1166 37.0583 17.4816 36.57 15.9133C36.0833 14.3449 34.0333 13.8799 29.9333 12.9533L28.8733 12.7133C27.7083 12.4499 27.125 12.3183 26.6567 11.9633C26.19 11.6083 25.89 11.0699 25.29 9.99325L24.745 9.01325C22.6333 5.22659 21.5783 3.33325 20 3.33325C18.4217 3.33325 17.3667 5.22659 15.255 9.01325Z" fill="white"/>
</svg>
