<svg width="25" height="30" viewBox="0 0 25 30" fill="none" xmlns="http://www.w3.org/2000/svg">
<path d="M12.1875 17.0063L14.4074 18.3757C14.7266 18.5818 15.0388 18.5671 15.3441 18.3315C15.6493 18.0959 15.7579 17.7867 15.6696 17.4039L15.1038 14.8419L17.019 13.1633C17.3091 12.8983 17.4037 12.5891 17.3028 12.2357C17.2018 11.8823 16.9476 11.6762 16.5402 11.6173L14.0156 11.3965L12.971 8.96698C12.8259 8.6136 12.5647 8.43691 12.1875 8.43691C11.8103 8.43691 11.5491 8.6136 11.404 8.96698L10.3594 11.3965L7.83482 11.6173C7.42857 11.6762 7.17495 11.8823 7.07397 12.2357C6.97299 12.5891 7.06701 12.8983 7.35603 13.1633L9.2712 14.8419L8.70536 17.4039C8.6183 17.7867 8.72741 18.0959 9.03268 18.3315C9.33794 18.5671 9.6496 18.5818 9.96763 18.3757L12.1875 17.0063ZM12.1875 26.5034L4.875 29.6838C3.71429 30.1844 2.61161 30.089 1.56696 29.3975C0.522321 28.7061 0 27.7267 0 26.4592V3.53378C0 2.56199 0.34125 1.73038 1.02375 1.03893C1.70625 0.347489 2.52571 0.00117793 3.48214 0H20.8929C21.8504 0 22.6705 0.346311 23.353 1.03893C24.0355 1.73155 24.3762 2.56317 24.375 3.53378V26.4592C24.375 27.7255 23.8527 28.7049 22.808 29.3975C21.7634 30.0902 20.6607 30.1856 19.5 29.6838L12.1875 26.5034Z" fill="white"/>
</svg>
