<svg width="59" height="59" viewBox="0 0 59 59" fill="none" xmlns="http://www.w3.org/2000/svg">
<path d="M11 41.9984C11 41.9984 14.1683 20.1268 18.8734 20.1268C23.5786 20.1268 25.6395 35.555 29.4231 35.555C33.2067 35.555 32.9234 29.5272 35.6926 29.5272C38.4617 29.5272 48 42 48 42L11 41.9984ZM42.9689 26.3429C42.3688 26.3429 41.7746 26.2221 41.2202 25.9873C40.6658 25.7525 40.162 25.4084 39.7377 24.9747C39.3134 24.5409 38.9768 24.0259 38.7471 23.4591C38.5175 22.8924 38.3993 22.2849 38.3993 21.6714C38.3993 21.058 38.5175 20.4505 38.7471 19.8838C38.9768 19.317 39.3134 18.802 39.7377 18.3682C40.162 17.9345 40.6658 17.5904 41.2202 17.3556C41.7746 17.1208 42.3688 17 42.9689 17C44.1808 17 45.3431 17.4922 46.2001 18.3682C47.057 19.2443 47.5385 20.4325 47.5385 21.6714C47.5385 22.9104 47.057 24.0986 46.2001 24.9747C45.3431 25.8507 44.1808 26.3429 42.9689 26.3429Z" fill="#5B5B5B"/>
<circle cx="29.5" cy="29.5" r="28.75" stroke="#808080" stroke-width="1.5"/>
</svg>
