<svg width="47" height="48" viewBox="0 0 47 48" fill="none" xmlns="http://www.w3.org/2000/svg">
<g clip-path="url(#clip0_216_559)">
<path d="M12.2649 2.36057C10.7036 2.54174 9.62726 3.49556 8.86527 4.83303C8.06065 6.25044 7.49582 7.85968 6.97361 9.39431C5.84928 12.6821 5.16722 16.0977 4.86349 19.5559L5.25248 18.6128L5.16722 18.7034L5.75337 18.3623L6.51003 18.5542L6.85106 19.1403L6.86171 19.2629L6.68054 19.9343L6.60594 20.0408L6.0198 20.3819L4.95408 19.7371C5.06065 20.4512 5.95585 20.8401 6.59528 20.6696C7.35727 20.4618 7.63436 19.7424 7.52779 19.0284C7.35727 17.9094 5.91322 17.4085 4.99671 17.9467C3.88836 18.5915 4.00026 20.206 5.09262 20.7975C5.61482 21.0799 6.27024 21.0906 6.78711 20.7922C7.44786 20.4032 7.50647 19.7478 7.57575 19.0657C7.68232 17.9627 7.84218 16.8703 8.04466 15.778C8.47095 13.5293 9.07841 11.3179 9.87237 9.17584C10.2294 8.21669 10.5917 7.24156 11.0766 6.34103C11.3111 5.90941 11.764 5.08348 12.2702 5.02486C12.9843 4.94494 13.6024 4.47069 13.6024 3.69271C13.6024 3.0373 12.9896 2.27531 12.2702 2.36057H12.2649Z" fill="white"/>
<path d="M13.8795 5.27531H13.9541C14.4177 5.30195 14.8759 5.00888 15.1051 4.61989C15.4035 4.10834 15.3555 3.63943 15.1157 3.12255C14.9132 2.68561 14.407 2.49378 13.9647 2.46181C12.9843 2.38721 11.9026 3.36234 11.1566 3.92717C10.3306 4.55062 9.55266 5.22202 8.8333 5.96802C7.52247 7.33215 6.3928 8.90408 5.55621 10.6039C3.85639 14.0515 3.2809 17.9361 4.12282 21.7034C4.49582 23.3765 7.06421 22.6678 6.6912 20.9947C6.0198 17.9947 6.47806 14.7922 7.81554 12.032C8.51891 10.5826 9.41945 9.23978 10.5171 8.06216C11.6148 6.88454 12.9896 5.59502 14.4816 4.93428L13.8102 5.11545L13.9647 5.12611L12.8138 4.46536L12.8511 4.54529V3.20248L12.8084 3.27708L13.9594 2.61634H13.8848C12.169 2.52042 12.1743 5.18472 13.8848 5.27531H13.8795Z" fill="white"/>
<path d="M13.0216 2.85076C8.32707 8.60031 5.1086 15.4742 3.86703 22.8064C3.7498 23.5151 4.05353 24.2397 4.79954 24.4476C5.43897 24.6234 6.31819 24.2291 6.44075 23.5151C7.59705 16.6518 10.5065 10.1349 14.9079 4.73708C15.3608 4.17758 15.4514 3.3996 14.9079 2.85076C14.439 2.38184 13.4798 2.29126 13.0216 2.85076Z" fill="white"/>
<path d="M9.49404 5.19012C7.68231 3.6395 5.84395 6.17059 5.16189 7.68391C4.34128 9.50096 3.84572 11.4992 3.45141 13.4494C2.62547 17.5471 2.51357 21.81 3.70185 25.8544C4.18675 27.4956 6.75514 26.7976 6.27023 25.1457C5.33773 21.9752 5.27379 18.6182 5.80132 15.3677C6.06775 13.7159 6.46739 12.08 6.96295 10.4814C7.15478 9.8633 7.34661 9.23986 7.63436 8.65904C7.78889 8.35531 7.95407 8.04625 8.16722 7.77982C8.25247 7.66792 8.36437 7.57734 8.45496 7.47076C8.64146 7.25229 8.71073 7.39083 8.43897 7.36419L7.49581 6.9752L7.60771 7.07112C8.15123 7.54004 8.95585 7.60931 9.49404 7.07112C9.97361 6.59155 10.0429 5.65904 9.49404 5.1848V5.19012Z" fill="white"/>
<path d="M18.3182 4.22029C12.7125 6.6075 8.56153 11.254 4.31997 15.4583C3.09972 16.6679 4.98604 18.5542 6.20629 17.3446C10.2987 13.2842 14.2525 8.82952 19.6663 6.52224C20.3271 6.23983 20.4763 5.26469 20.1459 4.69986C19.7463 4.01247 18.9896 3.93787 18.3235 4.22029H18.3182Z" fill="white"/>
<path d="M14.1512 2.70696C12.0571 8.37658 9.96829 14.0462 7.87415 19.7158C7.6237 20.3926 8.15124 21.1759 8.80665 21.357C9.55266 21.5595 10.1974 21.1066 10.4479 20.4245C12.542 14.7549 14.6308 9.08528 16.7249 3.41566C16.9754 2.73893 16.4479 1.95562 15.7924 1.77445C15.0464 1.57196 14.4017 2.02489 14.1512 2.70696Z" fill="white"/>
<path d="M10.8688 8.0303C9.45141 11.0783 8.22584 14.2221 7.24005 17.4406C6.7658 18.9966 6.34484 20.5632 5.9825 22.1511C5.58818 23.8775 5.31642 25.588 5.66278 27.3465C5.80133 28.0552 6.64324 28.4548 7.30399 28.279C8.03934 28.0765 8.37504 27.3465 8.23649 26.6378C7.95408 25.215 8.34307 23.7497 8.66811 22.3749C9.02513 20.8775 9.4301 19.3855 9.88303 17.9148C10.7836 15.0001 11.8813 12.1493 13.1654 9.37844C13.4692 8.72835 13.3466 7.94504 12.6859 7.55606C12.1104 7.22035 11.1672 7.38021 10.8635 8.03563L10.8688 8.0303Z" fill="white"/>
<path d="M21.5686 5.06227C21.0678 4.11378 19.8635 4.10845 19.1015 4.71591C18.4301 5.24877 17.8333 5.90952 17.2525 6.53296C16.1015 7.77453 15.0358 9.10135 14.066 10.4921C12.1264 13.2736 10.6184 16.3376 9.54733 19.5507C9.00381 21.1813 11.5722 21.8793 12.1157 20.2594C12.9896 17.6431 14.1939 15.16 15.6912 12.842C16.4106 11.7337 17.1885 10.668 18.0411 9.65552C18.4887 9.12266 18.9576 8.60046 19.4425 8.09424C19.6983 7.82781 19.9541 7.56671 20.2152 7.31094C20.3164 7.20969 20.439 7.11378 20.5349 7.00188C20.8226 6.66618 20.407 6.92728 20.6308 6.89531H19.9221L20.018 6.92728L19.2241 6.31449L19.272 6.40508C20.0766 7.9184 22.3733 6.57559 21.574 5.06227H21.5686Z" fill="white"/>
<path d="M18.915 5.88811C19.3253 7.88634 18.6805 10.1723 18.0518 12.0693C17.423 13.9663 16.5917 15.5915 15.5367 17.1794C13.4052 20.4032 10.4319 22.9982 6.96829 24.6927C6.32353 25.0071 6.14768 25.929 6.48871 26.5151C6.87237 27.1759 7.661 27.3091 8.31109 26.9947C14.423 24.0053 19.1122 18.2824 20.9345 11.7389C21.5207 9.62879 21.9257 7.3588 21.4781 5.18474C21.3342 4.48136 20.4976 4.07106 19.8368 4.25223C19.1015 4.45472 18.7605 5.18474 18.9043 5.89344L18.915 5.88811Z" fill="white"/>
<path d="M16.7036 7.97155C14.1885 9.94846 12.7818 12.9911 11.2791 15.73C9.51535 18.9431 7.75159 22.1509 5.98782 25.3641C5.16189 26.8668 7.46384 28.2149 8.28977 26.7069C10.0109 23.5737 11.732 20.4351 13.4532 17.3019C14.8919 14.6803 16.1868 11.7442 18.59 9.85255C19.1548 9.40495 19.0535 8.43514 18.59 7.96623C18.0304 7.40672 17.2738 7.51862 16.7036 7.96623V7.97155Z" fill="white"/>
<path d="M18.1956 7.61463C14.2418 12.8953 12.7178 19.6892 8.26314 24.6235H10.1495L10.2827 24.81V25.5187L10.304 25.3642C10.4106 24.6555 10.1228 23.9308 9.37149 23.723C8.74271 23.5525 7.84218 23.9361 7.73028 24.6555C7.61838 25.3748 7.71962 25.9823 8.25781 26.5098C8.75337 26.9947 9.6539 27.048 10.1441 26.5098C14.7747 21.3784 16.3892 14.4352 20.4923 8.96277C20.9239 8.38728 20.5829 7.47609 20.0127 7.14039C19.3306 6.74074 18.6219 7.03914 18.1903 7.61996L18.1956 7.61463Z" fill="white"/>
<path d="M13.0056 9.17599C10.6663 12.5756 8.99315 16.4335 8.10327 20.4566C7.94875 21.16 8.31642 21.8954 9.03578 22.0978C9.70185 22.279 10.5171 21.874 10.677 21.1653C11.5242 17.3394 13.0908 13.7479 15.3129 10.5188C15.7232 9.92732 15.4248 9.04277 14.8333 8.69642C14.1725 8.31276 13.4212 8.57919 13.0109 9.17599H13.0056Z" fill="white"/>
<path d="M32.0979 3.95397C25.0375 7.27901 20.4763 14.6751 20.6628 22.4708C20.7214 24.8367 21.185 27.1973 22.0642 29.398C22.3306 30.0641 22.9541 30.533 23.7054 30.3305C24.3395 30.1547 24.9043 29.366 24.6379 28.6893C22.8901 24.3145 22.8368 19.247 24.8244 14.9309C26.5882 11.1049 29.6415 8.05166 33.4514 6.25592C34.1015 5.94686 34.272 5.01436 33.931 4.43354C33.542 3.76747 32.764 3.65024 32.1086 3.95397H32.0979Z" fill="white"/>
<path d="M31.9274 5.07825C28.8368 8.88287 26.1939 13.0338 24.1637 17.4992C22.1335 21.9646 20.6894 26.9308 22.0216 31.7958C22.4745 33.4477 25.0429 32.7443 24.59 31.0871C23.4177 26.7923 24.8457 22.3109 26.6628 18.4104C28.4798 14.5099 30.9683 10.4601 33.8084 6.95925C34.2614 6.39975 34.3519 5.62177 33.8084 5.07293C33.3395 4.60401 32.3804 4.51342 31.9221 5.07293L31.9274 5.07825Z" fill="white"/>
<path d="M32.9718 4.2095L32.8919 4.19884L34.0429 4.85959L34.0109 4.80098L34.1921 5.47238L34.2027 5.39245L34.0216 6.06385L33.9203 6.17575L33.3342 6.51678L33.4141 6.48481H32.7054L32.796 6.50613L32.2098 6.1651L32.3058 6.26634L31.9647 5.68019C32.0073 5.39245 32.0073 5.32318 31.9647 5.48837C31.9381 5.59494 31.9008 5.70151 31.8635 5.80275C31.7835 6.04254 31.7036 6.28233 31.6184 6.52211C31.4851 6.92176 31.3466 7.3214 31.2081 7.72105C30.9043 8.60027 30.5899 9.47416 30.2756 10.3427C29.6255 12.1278 28.9487 13.9022 28.24 15.6607C26.8546 19.1189 25.3519 22.5292 23.7534 25.8916C23.4443 26.5417 23.5722 27.3303 24.2329 27.7139C24.8137 28.055 25.7462 27.8898 26.0553 27.2344C28.24 22.6358 30.2436 17.9466 32.05 13.1829C32.4976 11.9999 32.9345 10.8116 33.3608 9.61803C33.7871 8.42442 34.2773 7.30009 34.5597 6.11714C34.8688 4.81163 33.7178 3.26101 32.3164 4.07629C31.8422 4.35337 31.5331 4.91821 31.5438 5.46172C31.5544 6.31963 32.2098 6.7619 32.9878 6.85781C33.7018 6.9484 34.32 6.18108 34.32 5.52567C34.32 4.7317 33.7072 4.2841 32.9878 4.19352L32.9718 4.2095Z" fill="white"/>
<path d="M31.8688 4.80106C27.5846 12.048 24.3129 19.8863 22.1867 28.0284C21.7551 29.6909 24.3235 30.3943 24.7551 28.7371C26.828 20.8028 29.9931 13.2043 34.1708 6.14387C35.0447 4.66252 32.7427 3.32504 31.8688 4.80106Z" fill="white"/>
<path d="M27.2383 6.85795C24.7498 11.0675 23.439 15.9059 23.4763 20.7976C23.4869 22.5134 26.1512 22.5134 26.1406 20.7976C26.1086 16.3642 27.2809 12.0214 29.5349 8.20075C30.4088 6.7194 28.1068 5.38193 27.2329 6.85795H27.2383Z" fill="white"/>
<path d="M32.8813 6.10131C33.0891 6.88462 33.2596 7.67325 33.3981 8.46721C33.4301 8.65371 33.4621 8.84021 33.4887 9.03204C33.5047 9.12796 33.5154 9.21854 33.5313 9.31446C33.5047 9.12263 33.542 9.42103 33.5473 9.453C33.6006 9.90593 33.6432 10.3535 33.7072 10.8065C33.9257 12.3677 34.7516 13.9823 36.4088 14.3873C37.0855 14.5525 37.8848 14.1741 38.05 13.4548C38.2152 12.7354 37.8422 11.9947 37.1175 11.8136C37.0482 11.7976 36.9843 11.7816 36.915 11.7603C37.0749 11.8296 37.0855 11.8349 36.9523 11.7656C36.8937 11.7336 36.8351 11.691 36.7765 11.6537C36.9097 11.755 36.9203 11.755 36.8084 11.6537C36.7605 11.6058 36.7125 11.5525 36.6646 11.4992C36.7498 11.6164 36.7658 11.6377 36.7125 11.5578C36.6539 11.4512 36.5846 11.3447 36.526 11.2381C36.4674 11.1102 36.4674 11.1102 36.526 11.2381C36.494 11.1582 36.4674 11.0729 36.4461 10.9876C36.3981 10.8225 36.3608 10.6519 36.3289 10.4761C36.3182 10.4228 36.2649 10.0551 36.3022 10.3109C36.2809 10.1351 36.2649 9.95922 36.2436 9.7887C36.0784 8.30202 35.828 6.83133 35.4443 5.38728C35.2685 4.71588 34.4852 4.2363 33.8031 4.45478C33.121 4.67325 32.6841 5.3713 32.8706 6.09598L32.8813 6.10131Z" fill="white"/>
<path d="M33.2756 9.07991C32.1619 9.9538 31.0642 10.8543 29.9825 11.7655C29.7374 11.9733 29.5935 12.3943 29.5935 12.7087C29.5935 13.0231 29.7374 13.428 29.9825 13.6518C30.2276 13.8756 30.5686 14.0568 30.9257 14.0408C31.2827 14.0248 31.5864 13.8916 31.8688 13.6518C32.9505 12.7353 34.0482 11.8401 35.1619 10.9662C35.4123 10.7691 35.5509 10.3268 35.5509 10.0231C35.5509 9.69803 35.407 9.30371 35.1619 9.07991C34.9168 8.85611 34.5757 8.67494 34.2187 8.69092L33.867 8.73888C33.6432 8.80282 33.4461 8.91473 33.2809 9.07991H33.2756Z" fill="white"/>
<path d="M38.3964 15.5062C39.8777 15.1065 41.3271 14.611 42.7392 14.0195C43.0749 13.881 43.3413 13.7371 43.5331 13.4067C43.6983 13.119 43.7729 12.698 43.6663 12.3783C43.5598 12.0586 43.3626 11.7442 43.0536 11.5843C42.7445 11.4245 42.3502 11.3126 42.0251 11.4511C40.6131 12.0426 39.1637 12.5382 37.6823 12.9378C37.0109 13.119 36.5313 13.897 36.7498 14.579C36.9683 15.2611 37.6663 15.7034 38.391 15.5115L38.3964 15.5062Z" fill="white"/>
<path d="M39.6379 10.3376C37.9008 12.1067 36.1583 13.8758 34.4212 15.6449L31.8848 18.224C31.4372 18.6769 30.9896 19.1351 30.542 19.5881C30.3821 19.7533 30.2223 19.9184 30.0464 20.0676C30.1264 20.0037 29.8493 20.1636 29.9505 20.1263C30.0145 20.1049 30.185 20.1263 29.8813 20.1049C29.1619 20.0517 28.5491 20.755 28.5491 21.4371C28.5491 22.1991 29.1619 22.716 29.8813 22.7692C31.24 22.8652 32.1672 21.7355 33.0305 20.8616C33.9736 19.9025 34.9168 18.9433 35.8653 17.9788C37.7516 16.0605 39.6432 14.1369 41.5296 12.2186C42.7338 10.993 40.8528 9.11205 39.6432 10.3323L39.6379 10.3376Z" fill="white"/>
<path d="M38.2098 8.40859C37.5011 11.739 36.0464 14.8029 34.1121 17.6004C33.153 18.9912 32.0713 20.2914 30.9203 21.5276C30.3555 22.1351 29.7693 22.7265 29.1672 23.302C28.8528 23.6004 28.5384 23.8988 28.2187 24.1866C28.0589 24.3304 27.899 24.4743 27.7391 24.6182C27.6592 24.6875 27.5793 24.7621 27.4994 24.8313C27.2862 24.9965 27.2809 25.0178 27.478 24.8953L28.5065 25.0285L28.4265 24.9645L29.0393 25.7585L29.018 25.6573L28.677 26.9521L28.7356 26.8882C29.8653 25.6093 27.9896 23.7176 26.8493 25.0018C25.7089 26.286 27.1423 28.1351 28.661 27.2931C29.5136 26.8242 30.2862 25.913 30.9843 25.247C32.5402 23.7603 33.9843 22.1617 35.3004 20.4565C37.8901 17.0995 39.899 13.2683 40.7889 9.10131C41.1459 7.42813 38.5775 6.71409 38.2205 8.3926L38.2098 8.40859Z" fill="white"/>
<path d="M36.0677 6.45823C33.2169 12.666 28.4638 17.8028 26.0926 24.2557C25.8422 24.9325 26.3697 25.7158 27.0251 25.897C27.7658 26.0994 28.4159 25.6465 28.6663 24.9644C30.947 18.7513 35.6201 13.7851 38.3697 7.80104C38.6681 7.14562 38.5562 6.36765 37.8901 5.97866C37.3146 5.64296 36.3715 5.79749 36.0677 6.45823Z" fill="white"/>
<path d="M35.2951 11.3658C31.97 14.9733 29.1992 19.0657 27.1264 23.5097C26.8226 24.1598 26.9452 24.9431 27.6059 25.3321C28.1814 25.6678 29.1246 25.5079 29.4283 24.8525C31.4052 20.6056 34.0056 16.6891 37.1814 13.2468C38.343 11.9893 36.4621 10.0976 35.2951 11.3605V11.3658Z" fill="white"/>
<path d="M32.9505 20.2807C28.0749 22.9983 24.8511 28.0658 24.2969 33.5916C24.2223 34.3109 24.963 34.9237 25.629 34.9237C26.407 34.9237 26.8866 34.3109 26.9612 33.5916C27.4248 29.0037 30.2916 24.81 34.2987 22.5827C35.796 21.7461 34.4532 19.4441 32.9559 20.2807H32.9505Z" fill="white"/>
<path d="M16.6077 28.5026L16.5757 28.46L15.5367 27.1118C14.9345 26.4618 14.2205 26.0035 13.3946 25.7371C12.1424 25.2095 10.3733 24.8738 9.0571 25.4014C7.94342 25.849 6.89901 26.2166 6.04644 27.1438C5.26314 27.9964 4.59173 29.0195 4.31465 30.1491C3.61127 33.0905 4.79955 36.0799 7.37326 37.6731C8.41234 38.3125 9.74981 38.7069 10.9754 38.6376C11.7321 38.595 12.4994 38.4404 13.24 38.3072C13.8209 38.206 14.4017 38.1154 14.9878 38.0301L13.2187 38.2699C16.7303 37.801 20.2738 37.7477 23.7907 38.1207C25.3839 38.2859 27.4141 37.2575 28.5011 36.1705C29.6574 35.0141 30.526 33.1172 30.4514 31.46C30.3768 29.8028 29.8067 27.9484 28.5011 26.7495L27.153 25.7104C26.1139 25.1083 24.9949 24.8046 23.7907 24.7992C18.9097 24.2877 14.0233 24.65 9.2063 25.5506L10.9754 25.3108H10.8368C11.9559 25.6198 13.0802 25.9236 14.1992 26.2273L14.0979 26.1633C15.1157 28.6731 16.1388 31.1776 17.1566 33.6873L17.1725 33.6181C15.6219 35.1687 14.0713 36.7193 12.5207 38.2699L12.59 38.2433L5.06598 35.1847L5.09795 35.2273C5.51891 36.0053 6.08907 36.6287 6.81376 37.0976C7.45852 37.6838 8.20985 38.0834 9.07841 38.2912C10.6717 38.7282 12.7978 38.531 14.2098 37.6198C15.6219 36.7086 16.8848 35.3392 17.2685 33.6394C17.6521 31.9395 17.6574 29.8987 16.5971 28.5079L16.6077 28.5026Z" fill="white"/>
<path d="M10.8688 27.5488C9.58996 27.778 8.15656 28.6678 7.24005 29.5737C6.63259 30.1758 6.03578 30.9325 5.67344 31.7158C4.87415 33.4529 4.42122 35.1741 4.48516 37.1137C4.5491 39.0533 4.95408 41.0835 6.0571 42.73C7.75692 45.2824 10.2773 46.817 13.3839 46.9662C14.9612 47.0408 16.6344 46.5826 18.153 46.1563C19.6717 45.73 21.1264 45.1545 22.5331 44.4778C22.9487 44.2753 23.3324 44.0408 23.7054 43.7691C24.4141 43.2522 25.1708 42.73 25.7622 42.0639C27.4035 40.2149 28.4479 38.0195 28.4159 35.5044C28.3892 33.3836 27.4514 31.5559 25.7889 30.2717C24.2543 29.0835 21.9043 28.3268 19.9807 29.0781C18.2223 29.7655 16.5651 30.5648 15.2916 32.0195C13.6344 33.9058 12.6752 35.984 12.4727 38.5044C12.1424 42.6927 15.5207 46.3588 19.4585 47.2273C23.3964 48.0959 27.4354 47.1954 30.3875 44.6749C32.5775 42.8046 33.4141 39.6021 32.6521 36.8579C32.1299 34.9609 30.8724 33.746 29.7001 32.2646L30.7392 33.6128C30.5846 33.389 30.4514 33.1652 30.3395 32.9201L31.0109 34.5133C30.883 34.1989 30.7924 33.8845 30.7338 33.5488L30.9736 35.3179C30.931 34.9822 30.9257 34.6572 30.9523 34.3162L30.7125 36.0852C30.7605 35.7495 30.8404 35.4352 30.963 35.1154L30.2916 36.7087C30.8297 35.5044 31.5811 34.3801 31.8368 33.0693C32.0127 32.1581 32.1725 31.2522 32.0713 30.3357C31.9914 29.611 31.9328 28.849 31.7303 28.1456C31.5278 27.4423 31.1921 26.8135 30.899 26.1581L29.8599 24.8099L28.5118 23.7709C27.217 23.0142 25.7356 22.7851 24.2649 22.9822C21.6059 23.3392 19.5331 25.1936 18.7285 27.7513C18.6059 28.1456 18.4834 28.54 18.3555 28.9343C17.8493 30.5488 18.185 32.627 19.0269 34.0657C19.8688 35.5044 21.4194 36.7673 23.0074 37.1243C24.7125 37.5133 26.6255 37.4281 28.1388 36.4529C29.6521 35.4778 30.6592 34.1829 31.1974 32.4725C31.32 32.0781 31.4425 31.6838 31.5704 31.2895C27.51 31.8224 23.455 32.3499 19.3946 32.8828L19.4798 33.0799L18.8084 31.4867C18.883 31.6945 18.9363 31.8916 18.9843 32.1048L18.7445 30.3357C18.7818 30.6288 18.7871 30.9005 18.7658 31.1936L19.0056 29.4245C18.963 29.7122 18.8884 29.9787 18.7818 30.2504L19.4532 28.6572C18.963 29.7282 18.3715 30.7247 18.0091 31.865C17.764 32.643 17.6894 33.5222 17.6255 34.3215C17.5988 34.6625 17.6095 34.9822 17.6468 35.3233C17.844 37.071 18.1157 38.4458 19.0162 40.0071C19.5971 41.0142 20.439 41.8241 21.1637 42.714L20.1246 41.3659C20.2365 41.5204 20.3271 41.6643 20.4123 41.8295L19.7409 40.2362C19.7889 40.3428 19.8209 40.4547 19.8368 40.5666L19.5971 38.7975C19.613 38.9147 19.613 39.032 19.5917 39.1492L19.8315 37.3801L19.7836 37.5453L20.455 35.952C20.4177 36.0586 20.3591 36.1545 20.2951 36.2451L21.3342 34.897C21.217 35.0355 21.0997 35.1421 20.9559 35.254L22.304 34.2149C22.1015 34.3481 21.8937 34.4547 21.6752 34.5559L23.2685 33.8845C22.6663 34.1243 22.0535 34.2895 21.4141 34.3908L23.1832 34.151C22.613 34.2202 22.0482 34.2522 21.4781 34.1883L23.2472 34.4281C22.9008 34.3748 22.5757 34.2948 22.2507 34.167L23.844 34.8384C23.5882 34.7265 23.3537 34.5932 23.1353 34.4281L24.4834 35.4671C24.3608 35.3606 24.2596 35.254 24.153 35.1314L25.1921 36.4796C25.1015 36.3463 25.0269 36.2238 24.963 36.0746L25.6344 37.6678C25.5971 37.5666 25.5651 37.4654 25.5491 37.3588L25.7889 39.1279C25.7676 38.9094 25.7676 38.7282 25.7889 38.5098L25.5491 40.2788C25.6024 40.0071 25.6823 39.7566 25.7889 39.4955L25.1175 41.0888C25.2614 40.7904 25.4212 40.5133 25.6184 40.2469L24.5793 41.595C24.8297 41.286 25.1015 41.0142 25.4159 40.7744L24.0678 41.8135C24.3395 41.6217 24.6166 41.4618 24.9203 41.3286L23.3271 42L23.5083 41.9307L15.0784 35.5098C15.0837 35.6323 15.0784 35.7602 15.0678 35.8828L15.3075 34.1137C15.2702 34.3588 15.2063 34.5826 15.1157 34.8117L15.7871 33.2185C15.6805 33.4423 15.5527 33.6501 15.4035 33.8526L16.4425 32.5044C16.1974 32.8082 15.9203 33.0693 15.6166 33.3144L16.9647 32.2753C16.4585 32.6483 15.9203 32.936 15.3448 33.1918L16.9381 32.5204C15.4514 33.1439 13.8049 33.6661 12.2063 33.8899L13.9754 33.6501C13.7249 33.6714 13.5011 33.6714 13.256 33.6501L15.0251 33.8899C14.8813 33.8685 14.7427 33.8312 14.6095 33.7833L16.2027 34.4547C16.0216 34.3748 15.867 34.2895 15.7019 34.1829L17.05 35.222C16.8475 35.0568 16.6717 34.881 16.5118 34.6785L17.5509 36.0266C17.4017 35.8082 17.2845 35.5897 17.1779 35.3499L17.8493 36.9431C17.7427 36.6501 17.6734 36.3623 17.6202 36.0533L17.8599 37.8224C17.7907 37.2522 17.78 36.6767 17.8386 36.1012L17.5988 37.8703C17.6468 37.524 17.7214 37.1936 17.844 36.8632L17.1725 38.4565C17.2631 38.254 17.3591 38.0675 17.4869 37.8863L16.4479 39.2344C16.5544 39.1119 16.6503 39.016 16.7782 38.9147L15.4301 39.9538C15.5154 39.8952 15.6006 39.8472 15.6965 39.8099L14.1033 40.4813C14.2045 40.444 14.3058 40.4174 14.407 40.4067C15.963 40.1297 17.6202 38.659 18.3875 37.3481C19.2241 35.9201 19.5757 33.8153 19.0589 32.2167C18.542 30.6181 17.5402 29.0515 16.0003 28.2362L14.407 27.5648C13.2241 27.2451 12.0464 27.2451 10.8635 27.5648L10.8688 27.5488Z" fill="white"/>
<path d="M6.90434 23.4672L6.33418 23.2807C5.77468 23.0995 5.11926 23.3979 4.83152 23.8935C4.00558 25.3109 3.96296 26.9042 4.04821 28.4974C4.09084 29.3074 4.16011 30.128 4.06953 30.9326C3.97894 31.7372 3.71251 32.5471 3.43542 33.3091C2.86526 34.8757 1.95407 36.4264 2.01269 38.1422C2.0713 39.858 2.94519 41.3926 3.94697 42.7514C4.37326 43.3269 5.10328 43.62 5.76935 43.231C6.33951 42.8953 6.67521 41.9894 6.24892 41.4086C5.49226 40.3802 4.5864 39.1546 4.67699 37.8065C4.72494 37.0924 5.04999 36.3944 5.31642 35.7336C5.61482 35.009 5.91322 34.2896 6.16367 33.5489C6.6539 32.0782 6.81908 30.5915 6.73915 29.0463C6.67521 27.7834 6.46207 26.3766 7.12814 25.2363L5.62548 25.8491L6.19564 26.0356C7.83152 26.5631 8.52956 23.9894 6.90434 23.4672Z" fill="white"/>
<path d="M9.75514 22.7959C9.54733 24.9912 9.67521 27.1706 10.2773 29.2967C10.4638 29.9681 11.2258 30.4477 11.9186 30.2293C12.6113 30.0108 13.0535 29.3074 12.8511 28.588C12.7125 28.0978 12.5953 27.6023 12.5047 27.1014C12.4834 26.9841 12.4621 26.8722 12.4461 26.755C12.4354 26.6751 12.4248 26.6005 12.4141 26.5205C12.4354 26.6591 12.4354 26.6804 12.4248 26.5845C12.3981 26.3287 12.3715 26.0783 12.3502 25.8225C12.2809 24.8101 12.3289 23.803 12.4248 22.7905C12.4887 22.0925 11.764 21.4264 11.0926 21.4584C10.3146 21.4957 9.82974 22.0445 9.76047 22.7905L9.75514 22.7959Z" fill="white"/>
<path d="M15.2969 5.39256C17.7214 7.04442 20.1459 8.69629 22.5704 10.3535C23.1459 10.7478 24.0731 10.4814 24.3928 9.87391C24.7498 9.19718 24.5313 8.47249 23.9132 8.05153C21.4887 6.39966 19.0642 4.7478 16.6397 3.0906C16.0642 2.69629 15.137 2.96272 14.8173 3.57018C14.4603 4.24691 14.6788 4.9716 15.2969 5.39256Z" fill="white"/>
<path d="M17.4336 6.6502C17.8706 6.60224 18.3075 6.5383 18.7285 6.41574C19.1495 6.29318 19.5491 6.12267 19.9381 5.92551C20.0926 5.84025 20.2205 5.72835 20.3111 5.58448C20.4283 5.45659 20.5082 5.30739 20.5509 5.13155C20.6042 4.9557 20.6148 4.77986 20.5722 4.59869C20.5615 4.42284 20.5136 4.25766 20.4123 4.10313C20.2312 3.82071 19.9541 3.57027 19.6184 3.49034L19.2667 3.44238C19.0269 3.44238 18.8031 3.50633 18.5953 3.62356C18.4781 3.68217 18.3555 3.74078 18.2329 3.78874L18.5526 3.65553C18.1264 3.8367 17.6734 3.95393 17.2152 4.01787L17.5669 3.96991C17.5242 3.97524 17.4816 3.98057 17.4336 3.9859C17.2525 3.98057 17.0766 4.01787 16.9221 4.10313C16.7569 4.15641 16.613 4.247 16.4958 4.38022C16.3679 4.50277 16.272 4.64132 16.2187 4.8065C16.1335 4.96636 16.0962 5.13688 16.1015 5.31805C16.1175 5.66441 16.2294 6.02142 16.4905 6.26121L16.7622 6.46903C16.9701 6.59158 17.1939 6.6502 17.4336 6.6502Z" fill="white"/>
<path d="M10.4905 24.3091C11.0873 26.2168 11.8386 28.1777 13.613 29.2967C14.2045 29.6697 15.1051 29.4406 15.4354 28.8171C15.7818 28.1617 15.59 27.3944 14.9559 26.9947C14.8493 26.9308 14.748 26.8562 14.6521 26.7816L14.9239 26.9894C14.6361 26.7603 14.3804 26.4992 14.1566 26.2114L14.3644 26.4832C14.0127 26.0143 13.7463 25.4974 13.5171 24.9592L13.6503 25.2789C13.4212 24.7301 13.24 24.1706 13.0642 23.6004C12.8564 22.9344 12.1264 22.4441 11.423 22.6679C10.7196 22.8917 10.272 23.5951 10.4905 24.3091Z" fill="white"/>
<path d="M14.8439 26.3819C14.9878 26.318 14.9985 26.3127 14.8706 26.3659C14.9505 26.334 15.0251 26.3073 15.105 26.2754C15.2436 26.2274 15.3821 26.1794 15.5207 26.1368C15.8191 26.0462 16.1228 25.9663 16.4319 25.9077C16.5544 25.8864 16.677 25.865 16.7995 25.8437C16.5118 25.8864 17.018 25.8224 17.066 25.8224C17.359 25.8011 17.6521 25.7904 17.9399 25.7958C18.2276 25.8011 18.526 25.8224 18.8138 25.8544C18.526 25.8224 19.0269 25.8917 19.0802 25.9023C19.2027 25.9237 19.3253 25.9503 19.4479 25.9823C19.7303 26.0515 20.0127 26.1315 20.2898 26.2274C20.3324 26.2434 20.796 26.4192 20.5562 26.318C20.7107 26.3819 20.8599 26.4565 21.0091 26.5311C21.6326 26.8402 22.4798 26.7176 22.8315 26.0515C23.1512 25.4494 23.018 24.5595 22.3519 24.2292C19.5438 22.8384 16.3466 22.8064 13.4905 24.0746C12.8511 24.3571 12.6539 25.3375 13.0109 25.897C13.4372 26.5578 14.1512 26.6803 14.8333 26.3766L14.8439 26.3819Z" fill="white"/>
<path d="M32.6681 5.78157C31.4692 6.80466 30.6006 8.2647 30.2489 9.794C30.169 10.1404 30.201 10.508 30.3821 10.8224C30.542 11.0995 30.8617 11.3606 31.1761 11.4352C31.8528 11.5897 32.6468 11.2327 32.8173 10.5027C32.8972 10.1457 33.0091 9.79401 33.153 9.45297L33.0198 9.77269C33.2383 9.26647 33.5154 8.7869 33.8511 8.34996L33.6432 8.62171C33.915 8.27536 34.2187 7.95564 34.5544 7.6679C34.7995 7.45475 34.9434 7.03912 34.9434 6.72473C34.9434 6.41035 34.7995 6.00537 34.5544 5.78157C34.3093 5.55777 33.9683 5.3766 33.6113 5.39258C33.2543 5.40857 32.9505 5.54179 32.6681 5.78157Z" fill="white"/>
<path d="M37.1015 8.3605C36.2383 11.6109 35.3484 14.8774 33.9843 17.9573C32.6894 20.888 31.0695 23.6642 29.1779 26.2486C28.7516 26.8294 29.082 27.7353 29.6574 28.071C30.3342 28.4653 31.0535 28.1775 31.4798 27.5914C33.4194 24.9431 35.0713 22.0976 36.3821 19.087C37.7942 15.8472 38.764 12.4742 39.6752 9.0692C40.1175 7.41201 37.5491 6.7033 37.1068 8.3605H37.1015Z" fill="white"/>
<path d="M14.4869 24.9432C14.6361 24.8792 14.6575 24.8686 14.5562 24.9112C14.6415 24.8792 14.7321 24.8419 14.8173 24.81C14.9932 24.746 15.169 24.6874 15.3502 24.6341C15.6646 24.5435 15.9843 24.4689 16.304 24.4103C16.3946 24.3943 16.4852 24.3783 16.5811 24.3624C16.4585 24.3783 16.4798 24.3783 16.645 24.357C16.8315 24.341 17.018 24.3251 17.2045 24.3144C17.5296 24.2984 17.8599 24.2984 18.185 24.3144C18.7658 24.3464 19.3146 24.4316 20.034 24.6448C20.7534 24.8579 21.0944 25.0124 21.7658 25.4014C22.3679 25.7531 23.2525 25.5613 23.5882 24.9219C23.9239 24.2824 23.7534 23.4725 23.1086 23.0995C20.0606 21.3251 16.3519 21.2078 13.1495 22.6306C12.494 22.9236 12.3395 23.8828 12.6699 24.4529C13.0642 25.1297 13.8315 25.2256 14.4923 24.9325L14.4869 24.9432Z" fill="white"/>
<path d="M33.0731 27.7993C34.3733 25.7105 35.6734 23.627 36.9683 21.5382C37.5971 20.5311 38.2205 19.524 38.8493 18.5222C39.2702 17.8508 39.7072 16.7851 40.5118 16.492C41.3164 16.1989 42.2542 16.3748 43.0802 16.3268C44.1512 16.2682 45.5953 16.0817 45.9843 14.8934C46.3253 13.849 45.5846 12.81 45.0464 11.968C44.5082 11.1261 43.9168 10.3481 43.272 9.60747C40.7995 6.76733 37.4212 4.6572 33.7764 3.70338C31.4425 3.09059 29.1672 3.23447 27.1423 4.64122C25.5598 5.73891 24.3395 7.25223 23.4283 8.94139C22.3679 10.913 21.6539 13.0711 21.0145 15.2078C20.2418 17.7869 19.6823 20.4885 19.9114 23.1901C19.9701 23.9094 20.4816 24.5222 21.2436 24.5222C21.915 24.5222 22.6397 23.9094 22.5757 23.1901C22.3306 20.3073 23.05 17.5364 23.9239 14.8188C24.6059 12.6821 25.3733 10.492 26.732 8.68029C27.3608 7.8437 28.1441 7.10303 29.05 6.58083C30.1956 5.92541 31.3679 5.87212 32.6361 6.15987C34.8635 6.67141 36.947 7.67319 38.78 9.03731C39.7605 9.76733 40.6557 10.6306 41.4496 11.5577C41.8333 12.0053 42.1903 12.4743 42.5207 12.9645C42.7072 13.2416 42.8883 13.524 43.0535 13.8171C43.1228 13.9343 43.1868 14.0515 43.256 14.1634L43.3519 14.3393C43.4745 14.627 43.4958 14.5684 43.4105 14.1741L43.7516 13.5879C43.986 13.492 44.018 13.476 43.8528 13.5293C43.7516 13.5613 43.6557 13.5826 43.5491 13.6039C43.4585 13.6199 43.3733 13.6306 43.2827 13.6412C42.899 13.6785 42.5047 13.6679 42.1157 13.6679C41.3537 13.6679 40.5544 13.6785 39.8191 13.9076C38.1832 14.4139 37.3892 15.7993 36.5367 17.1687C34.613 20.2593 32.6841 23.3552 30.7605 26.4458C29.8493 27.9059 32.1566 29.2433 33.0624 27.7886L33.0731 27.7993Z" fill="#5B5B5B"/>
<path d="M25.0802 9.07461C23.9612 6.36768 21.9789 4.43873 19.4585 2.98935C18.2916 2.31795 17.0713 1.70516 15.8404 1.15631C15.1051 0.831267 14.3377 0.618123 13.5757 0.362351C12.8138 0.106578 12.0518 -0.0799228 11.2045 0.0479635C8.51358 0.468923 6.64324 3.32505 5.46562 5.53642C4.03223 8.23269 3.22761 11.1954 2.81198 14.206C2.32708 17.7496 2.32708 21.3197 2.34307 24.8952C2.35372 26.611 5.01802 26.611 5.00737 24.8952C4.98072 19.4814 4.91145 13.8863 6.89902 8.76022C7.38925 7.49734 8.03934 6.28775 8.80133 5.16875C9.33419 4.38011 9.96829 3.55418 10.7782 3.03731C11.8067 2.38189 12.5313 2.82416 13.629 3.17052C14.8067 3.53819 15.9097 4.11901 17.0074 4.68384C19.2667 5.85613 21.4994 7.33748 22.5118 9.78331C22.7889 10.4494 23.3964 10.9236 24.153 10.7158C24.7818 10.5453 25.3626 9.74601 25.0855 9.07461H25.0802Z" fill="#5B5B5B"/>
<path d="M35.8919 11.1794C35.3111 11.8029 34.4798 11.9095 33.6592 11.8935C32.439 11.8668 31.24 11.6004 30.0145 11.6857C28.7889 11.7709 28.272 13.0817 29.0713 13.961C29.455 14.3819 29.8813 14.7922 30.2276 15.2505C30.3448 15.405 30.4621 15.5809 30.542 15.762C30.5207 15.7141 30.5953 15.9698 30.5633 15.8739C30.5207 16.0391 30.51 16.0764 30.5313 15.9912C30.574 15.9112 30.6432 15.8686 30.7392 15.8473C30.7178 15.9166 30.3608 15.8739 30.2809 15.8739C29.78 15.8739 29.2898 15.8846 28.8209 16.0817C27.6432 16.5773 27.2596 17.9254 27.2436 19.1084C27.2276 20.2913 27.6539 21.4476 28.3253 22.4015L29.828 20.4459C28.6823 20.1155 27.5313 19.945 26.7054 21.016C26.0447 21.8686 26.0393 22.9929 26.0447 24.0214C26.05 25.7372 28.7143 25.7372 28.709 24.0214C28.709 23.7869 28.709 23.5471 28.709 23.3127C28.7143 23.0942 28.8102 22.8437 28.7995 22.6626C28.7836 22.492 28.8901 22.6732 28.7409 22.6785C28.693 22.6785 28.3573 22.897 28.3519 22.7904C28.3519 22.8171 29.05 22.9929 29.1193 23.0089C30.1743 23.3127 31.304 22.0285 30.6219 21.0533C30.3342 20.6377 30.0997 20.2274 29.9718 19.7372C29.9186 19.524 29.9026 19.3215 29.9026 19.1031C29.9026 19.0231 30.0091 18.4423 30.0091 18.4423C30.0091 18.4423 29.7907 18.5595 29.78 18.5329C29.7853 18.5542 30.3821 18.5329 30.4408 18.5329C31.0642 18.5329 31.6663 18.4103 32.1779 18.032C33.0944 17.35 33.4194 16.0658 33.0731 14.9894C32.6947 13.8224 31.7516 12.9539 30.947 12.0746L30.0038 14.35C31.4052 14.2594 32.7853 14.6324 34.1868 14.5471C35.5882 14.4619 36.8351 14.0622 37.7622 13.0658C38.9292 11.8135 37.0482 9.92189 35.8759 11.1794H35.8919Z" fill="#FF7FE0"/>
<path d="M2.72139 24.1331C1.71428 24.9643 0.84572 26.2059 1.52245 27.5274C1.70362 27.8791 1.97538 28.1721 2.26846 28.4386C2.39101 28.5505 2.50824 28.6624 2.6308 28.7743C2.67343 28.8116 2.71606 28.8808 2.75869 28.9128C2.64679 28.7636 2.6308 28.7423 2.7054 28.8649C2.63613 28.673 2.62547 28.6464 2.66277 28.7849C2.60416 28.8116 2.69474 28.1295 2.62547 28.8489C2.59883 29.0887 2.59883 29.3338 2.56686 29.5789C2.52956 29.9039 2.46561 30.2236 2.39634 30.5434C2.21517 31.38 1.96473 32.1952 1.68231 33.0052C1.14412 34.5718 0.520676 36.0371 0.54199 37.737C0.605933 43.0762 5.32707 46.5185 10.1494 47.4617C13.0482 48.0265 16.0482 48.0425 18.9896 47.9572C21.494 47.8826 24.0464 47.7014 26.4816 47.094C29.5562 46.3267 32.2471 44.5895 33.6006 41.6428C34.1814 40.38 34.4425 39.0425 34.3786 37.6517C34.32 36.4102 34.0429 35.1366 33.9256 33.9697C33.7711 32.467 33.8937 31.0922 34.2347 29.6268C34.4532 28.689 34.1654 28.1402 33.3715 27.6819C33.1583 27.5594 32.9345 27.4421 32.7161 27.3196C32.6468 27.2823 32.5775 27.245 32.5082 27.2077C32.1033 26.9732 32.4336 26.9998 32.6681 27.4741L32.8013 28.5025C32.8812 28.2681 32.9612 28.0283 33.0624 27.8045C33.3502 27.1437 33.2542 26.3764 32.5828 25.9821C32.018 25.6517 31.0482 25.7956 30.7605 26.4617C30.3022 27.5114 29.78 28.6251 30.9576 29.3977C31.1761 29.5416 31.4159 29.6588 31.645 29.7867C31.7676 29.856 31.8955 29.9199 32.018 29.9945C32.4177 30.2236 32.1086 30.213 31.8582 29.7281L31.7249 28.6997C31.0269 31.1135 31.1494 33.4528 31.5118 35.9039C31.7782 37.7263 31.8901 39.4315 30.8404 41.1579C30.7125 41.3711 30.574 41.5736 30.4354 41.776C30.3821 41.856 30.153 42.1331 30.3981 41.8347C30.3129 41.9412 30.2276 42.0478 30.1317 42.1544C29.9665 42.3462 29.7907 42.5274 29.6042 42.6979C29.5189 42.7778 29.4336 42.8524 29.3431 42.927C29.2898 42.975 29.2312 43.0229 29.1725 43.0656C29.0447 43.1668 29.3963 42.911 29.1885 43.0496C28.677 43.3959 28.1548 43.6997 27.5899 43.9554C27.3875 44.046 27.8883 43.8435 27.5473 43.9714C27.478 43.9981 27.4034 44.03 27.3342 44.0567C27.185 44.1153 27.0358 44.1633 26.8866 44.2165C26.4763 44.3551 26.0553 44.4723 25.6344 44.5736C23.5988 45.0691 21.5473 45.2183 19.4372 45.2929C16.8741 45.3835 14.2365 45.4261 11.6947 45.0478C8.09794 44.5149 3.98959 42.7245 3.27556 38.6215C3.01979 37.1615 3.46739 35.8666 3.96828 34.5185C4.56508 32.9146 5.05531 31.2894 5.23648 29.5842C5.36437 28.38 5.20451 27.5274 4.29865 26.6961C4.17609 26.5842 4.05353 26.4776 3.93631 26.3604C3.80309 26.2325 3.81375 26.2911 3.85638 26.2805C3.88835 26.2805 3.87769 26.2698 3.92565 26.4244C3.85638 26.1952 3.92565 26.5256 3.92565 26.6002C3.92565 26.8133 3.79776 26.808 3.96295 26.6215C4.09616 26.467 4.38391 26.2006 4.60238 26.0194C5.15655 25.5611 5.07663 24.6126 4.60238 24.1331C4.05353 23.5842 3.27556 23.6748 2.71606 24.1331H2.72139Z" fill="#5B5B5B"/>
<path d="M16.9328 40.9876C16.8901 41.1315 16.8901 41.286 16.9328 41.4352C16.9754 41.5844 17.05 41.707 17.1459 41.8189C17.3164 42.016 17.5988 42.1279 17.8546 42.1119C18.137 42.096 18.3875 41.9841 18.5953 41.7976C18.7338 41.6697 18.8457 41.5045 18.9257 41.334C18.963 41.2754 18.9843 41.2061 18.9896 41.1368C19.0056 41.0675 19.0003 40.9929 18.9789 40.9237C18.947 40.8011 18.8511 40.6679 18.7338 40.6039C18.6113 40.54 18.4621 40.508 18.3235 40.5507C18.201 40.5933 18.0624 40.6732 18.0038 40.7958C17.9612 40.8864 17.9132 40.9663 17.8546 41.0462L17.9399 40.9396C17.8972 40.9876 17.8546 41.0356 17.8066 41.0782L17.9132 40.9929C17.8706 41.0249 17.8226 41.0515 17.7747 41.0782L17.9026 41.0249C17.8546 41.0409 17.812 41.0569 17.764 41.0622L17.9079 41.0409C17.8653 41.0462 17.8226 41.0462 17.78 41.0409L17.9239 41.0622C17.8866 41.0622 17.8493 41.0462 17.8173 41.0356L17.9452 41.0888C17.9132 41.0782 17.8866 41.0569 17.8599 41.0409L17.9665 41.1261C17.9665 41.1261 17.9185 41.0835 17.8972 41.0569L17.9825 41.1634C17.9825 41.1634 17.9452 41.1102 17.9345 41.0782L17.9878 41.2061C17.9878 41.2061 17.9718 41.1528 17.9665 41.1261L17.9878 41.27C17.9878 41.2434 17.9878 41.2167 17.9878 41.1901L17.9665 41.334C17.9665 41.334 17.9718 41.2967 17.9772 41.2807C18.0145 41.1528 17.9931 40.9876 17.9239 40.8704C17.8599 40.7585 17.732 40.6519 17.6042 40.6253C17.4656 40.5933 17.3164 40.5986 17.1939 40.6785C17.0713 40.7585 16.9914 40.8597 16.9487 40.9983L16.9328 40.9876Z" fill="white"/>
<path d="M16.5864 23.1207C19.0429 19.4386 20.4816 15.0212 21.4621 10.737L19.8209 11.6695C20.3271 11.8081 20.8333 11.9413 21.3555 12.0159C21.6379 12.0585 21.9363 12.1065 21.5793 12.0478C21.7072 12.0692 21.8351 12.0851 21.9576 12.1065C22.3466 12.1704 22.7303 12.2557 23.1193 12.3409C23.8226 12.4954 24.558 12.1278 24.7605 11.4084C24.9416 10.7423 24.5367 9.92706 23.828 9.7672C23.1193 9.60734 22.4692 9.5061 21.7818 9.40485C22.272 9.47946 21.6379 9.37288 21.5207 9.34624C21.1903 9.27697 20.8599 9.18105 20.5349 9.09047C19.8635 8.90397 19.0589 9.3196 18.8937 10.023C17.9612 14.1047 16.629 18.261 14.2898 21.7725C13.8901 22.3693 14.1725 23.2485 14.7693 23.5949C15.4248 23.9786 16.1921 23.7175 16.5917 23.1153L16.5864 23.1207Z" fill="#5B5B5B"/>
<path d="M7.75159 21.4954C8.57219 21.4368 9.32885 21.229 10.0162 20.776C10.7622 20.2911 10.8741 19.3426 10.288 18.6819C10.0855 18.4528 9.93631 18.2236 9.75514 17.9785C9.7285 17.9466 9.68587 17.7441 9.70185 17.8133C9.6912 17.7654 9.5793 17.9945 9.70185 17.792C9.77113 17.6801 10.1814 17.5149 10.3786 17.4137C10.7516 17.2219 11.1193 17.0247 11.4816 16.8116C12.169 16.4119 13.1335 15.9696 13.5278 15.245C14.0873 14.2165 13.3733 13.2467 12.526 12.6979C12.0038 12.3622 11.3058 12.165 10.9061 11.7494C10.8795 11.7174 10.8635 11.6322 10.8582 11.6375C10.8741 11.6268 10.7622 11.9572 10.7622 11.9572C10.7622 12.0478 10.8955 11.8879 10.7995 11.9252C10.9381 11.872 11.0873 11.8347 11.2312 11.792C12.883 11.3338 14.5882 11.0727 16.2987 10.9661C17.3644 10.8968 17.8812 9.90037 17.4496 8.96254C17.2258 8.47764 16.8635 8.13128 16.4212 7.85419C14.9665 6.93767 13.629 9.23963 15.0784 10.1561C15.1317 10.1881 14.6415 9.197 15.153 10.3107L16.304 8.30712C15.0251 8.38705 13.7463 8.54691 12.4887 8.78137C11.3804 8.98918 10.0376 9.16503 9.12637 9.87373C8.0713 10.6997 7.97006 12.1597 8.71606 13.2361C9.05709 13.7263 9.51535 14.11 10.0376 14.3924C10.2667 14.5203 10.5065 14.6268 10.7356 14.7441C10.8635 14.808 10.9914 14.8773 11.1139 14.9519C11.5615 15.2236 11.0127 15.0425 11.0553 14.5682L11.2365 13.8968C11.5349 13.641 11.5562 13.6037 11.3004 13.7902L11.1246 13.9075C10.9487 14.0194 10.7729 14.1313 10.5917 14.2432C10.2347 14.4617 9.87237 14.6695 9.5047 14.872C8.88658 15.2077 8.20985 15.4847 7.72494 16.0176C6.38747 17.499 7.29333 19.3053 8.41766 20.5629L8.68942 18.4688C8.39635 18.6606 8.11926 18.7991 7.76757 18.8258C7.04821 18.8791 6.43542 19.4013 6.43542 20.1579C6.43542 20.84 7.04821 21.5434 7.76757 21.4901L7.75159 21.4954Z" fill="#FF7FE0"/>
<path d="M10.3093 31.8755C10.4852 31.8542 10.6557 31.8595 10.8315 31.8755L10.4798 31.8275C10.6983 31.8595 10.9061 31.9234 11.1139 32.0034L10.7942 31.8702C11.0766 31.9927 11.3324 32.1579 11.5775 32.3444L11.3058 32.1366C11.9505 32.6428 12.5207 33.2556 13.0216 33.9004L12.8138 33.6286C12.8564 33.6819 12.899 33.7405 12.9416 33.7938C13.1601 34.0815 13.3786 34.3053 13.7356 34.4066C14.0553 34.4918 14.4816 34.4545 14.764 34.2734C15.0464 34.0922 15.2969 33.8151 15.3768 33.4794C15.4567 33.1437 15.4514 32.7334 15.2436 32.451C14.6734 31.6943 14.0553 30.959 13.32 30.3568C12.8457 29.9679 12.3875 29.6694 11.8173 29.4403C11.3484 29.2485 10.8102 29.1526 10.3093 29.2112C9.94696 29.2538 9.63791 29.3337 9.36615 29.6002C9.13702 29.8293 8.96117 30.213 8.97716 30.5433C8.99315 30.8737 9.10505 31.2467 9.36615 31.4865C9.61126 31.7103 9.96295 31.9128 10.3093 31.8755Z" fill="#5B5B5B"/>
<path d="M24.201 29.5469C22.5065 29.9945 20.8173 30.8684 19.9434 32.4563C19.6077 33.0638 19.7729 33.9377 20.423 34.2787C21.0731 34.6197 21.883 34.4545 22.2454 33.7991C22.336 33.6339 22.4372 33.4794 22.5544 33.3302L22.3466 33.602C22.5704 33.3196 22.8262 33.0744 23.1086 32.856L22.8368 33.0638C23.2098 32.7867 23.6148 32.5629 24.0411 32.3817L23.7214 32.5149C24.1104 32.3551 24.51 32.2272 24.915 32.1153C25.5864 31.9341 26.066 31.1561 25.8475 30.4741C25.629 29.792 24.931 29.3497 24.2063 29.5416L24.201 29.5469Z" fill="#5B5B5B"/>
<path d="M16.6663 39.6979C16.5278 39.8577 16.3839 40.0123 16.2294 40.1615C16.1867 40.2041 16.1388 40.2414 16.0962 40.284C15.9896 40.3853 16.0002 40.284 16.1548 40.2467C16.0642 40.268 15.931 40.3853 15.8564 40.4332C15.7285 40.5185 15.7711 40.3906 15.9363 40.4066C15.9043 40.4066 15.8457 40.4386 15.8137 40.4439C15.7605 40.4599 15.5686 40.4918 15.7764 40.4599C15.9843 40.4279 15.8191 40.4599 15.7764 40.4492C15.5473 40.4172 15.8724 40.4705 15.8883 40.4759C15.8351 40.4652 15.7285 40.4119 15.8937 40.4918L15.9789 40.5291C15.8883 40.4705 15.8883 40.4759 15.9843 40.5451C16.0748 40.5931 16.1388 40.673 16.1654 40.7796C16.272 40.9927 16.2986 41.0247 16.2507 40.8702C16.2613 40.9021 16.2507 41.1153 16.2827 40.9927C16.2933 40.9448 16.3146 40.7263 16.2773 40.9501C16.24 41.1739 16.2986 40.8702 16.3146 40.8062C16.3306 40.7423 16.4425 40.4705 16.3519 40.657C16.2613 40.8435 16.3466 40.6783 16.3679 40.6304C16.3999 40.5718 16.4319 40.5078 16.4638 40.4492C16.4905 40.4013 16.6823 40.1455 16.5438 40.316C16.4052 40.4865 16.6184 40.2307 16.6503 40.1988C16.7143 40.1295 16.7836 40.0656 16.8582 40.0016C16.8901 39.975 16.9274 39.9537 16.9541 39.9217C16.7516 40.1402 16.8209 40.0229 16.9168 39.959C16.9967 39.9057 17.0766 39.8577 17.1619 39.8098C17.1619 39.8098 17.3058 39.7512 17.3111 39.7352C17.3058 39.7565 16.9967 39.8471 17.2205 39.7778C17.3111 39.7458 17.4017 39.7192 17.4923 39.6926C17.5296 39.6819 17.5722 39.6766 17.6095 39.6659C17.8759 39.602 17.3804 39.6766 17.5455 39.6712C17.6468 39.6712 17.7427 39.6606 17.8439 39.6606C17.9079 39.6606 18.2223 39.6926 18.0038 39.6606C17.7747 39.6286 18.105 39.6872 18.1637 39.6979C18.2915 39.7299 18.4088 39.7725 18.5313 39.8098C18.6699 39.8524 18.4141 39.7565 18.4088 39.7565C18.4461 39.7885 18.5153 39.8098 18.5633 39.8311C18.6539 39.8791 18.7391 39.927 18.8244 39.9803C18.8724 40.0123 18.9203 40.0442 18.9683 40.0762C19.0908 40.1455 18.8724 40.0016 18.8724 39.9963C18.9416 40.0815 19.0482 40.1455 19.1281 40.2254C19.1974 40.2947 19.2827 40.4279 19.3626 40.4759C19.3626 40.4759 19.2081 40.2574 19.2827 40.3746C19.3146 40.4226 19.3466 40.4705 19.3786 40.5185C19.4159 40.5771 19.5491 40.737 19.5384 40.8009C19.5384 40.7956 19.4372 40.4918 19.5171 40.7529C19.5384 40.8169 19.5544 40.8755 19.5704 40.9394C19.6557 41.2112 19.5544 40.8595 19.5704 40.8702C19.6077 40.8968 19.5331 41.2112 19.5864 40.9767C19.629 40.7902 19.5864 40.9501 19.5757 40.9874C19.4958 41.2805 19.6557 40.8169 19.5917 40.9501C19.5331 41.0727 19.677 40.8329 19.677 40.8329C19.7729 40.7263 19.8955 40.6677 20.0393 40.6624C20.1352 40.6037 20.2365 40.5931 20.3377 40.6197L20.423 40.6304C20.3058 40.5931 20.3004 40.5931 20.4017 40.6304C20.5615 40.7423 20.3111 40.5824 20.2844 40.5718C20.0393 40.4492 19.7995 40.3107 19.5704 40.1615C19.5118 40.1242 19.4585 40.0869 19.3999 40.0442C19.3679 40.0229 19.1494 39.8364 19.288 39.9643C19.4052 40.0762 19.288 39.9643 19.2613 39.943C19.1814 39.8791 19.1068 39.8098 19.0269 39.7405C18.5047 39.2823 17.6521 39.1863 17.1406 39.7405C16.677 40.2467 16.5811 41.1313 17.1406 41.6268C17.7374 42.1544 18.3981 42.6233 19.1228 42.959C19.6503 43.2041 20.1992 43.364 20.78 43.1828C21.4194 42.991 21.8457 42.4688 22.0802 41.8666C22.7089 40.2414 21.4674 38.4776 20.1299 37.6517C18.7924 36.8258 17.1033 36.7618 15.7391 37.5345C14.375 38.3071 13.3839 39.9004 13.6716 41.467C13.9061 42.7512 15.2223 43.268 16.3892 43.0176C17.2631 42.8311 17.9772 42.2077 18.5526 41.5576C19.0162 41.0354 19.1068 40.1828 18.5526 39.6712C18.0464 39.2077 17.1619 39.1117 16.6663 39.6712V39.6979Z" fill="#FF7FE0"/>
<path d="M21.1104 39.9964C20.1832 39.1066 19.1335 38.2806 17.78 38.2593C16.4265 38.238 15.2223 39.1918 14.8333 40.476C14.6681 41.0195 14.9345 41.7122 15.4461 41.9787C15.9843 42.2611 16.613 42.1865 17.0606 41.7709C17.2098 41.6323 17.3644 41.4991 17.5242 41.3765L17.2525 41.5844C17.6681 41.27 18.1157 41.0035 18.5953 40.7957L18.2756 40.9289C18.4035 40.8756 18.526 40.8277 18.6539 40.7797C18.9843 40.6625 19.2667 40.4813 19.4479 40.1669C19.613 39.8792 19.6876 39.4582 19.5811 39.1385C19.3733 38.4938 18.6432 37.9556 17.9399 38.206C16.9008 38.579 15.9736 39.1279 15.1637 39.8845L17.391 41.1794C17.407 41.1261 17.4283 41.0728 17.4443 41.0195L17.3111 41.3392C17.3697 41.1954 17.4443 41.0675 17.5402 40.9449L17.3324 41.2167C17.4283 41.0941 17.5349 40.9875 17.6575 40.8916L17.3857 41.0994C17.5083 41.0089 17.6361 40.9289 17.78 40.8703L17.4603 41.0035C17.5882 40.9556 17.7107 40.9183 17.844 40.897L17.4923 40.9449C17.6575 40.9236 17.8173 40.9236 17.9772 40.9449L17.6255 40.897C17.8386 40.9236 18.0358 40.9822 18.2329 41.0621L17.9132 40.9289C18.1956 41.0515 18.4514 41.2113 18.6965 41.3979L18.4248 41.19C18.7019 41.4085 18.9576 41.6483 19.2134 41.8934C19.7196 42.373 20.6042 42.4316 21.0997 41.8934C21.5953 41.3552 21.6379 40.524 21.0997 40.0071L21.1104 39.9964Z" fill="#FF7FE0"/>
</g>
<defs>
<clipPath id="clip0_216_559">
<rect width="45.5275" height="48" fill="white" transform="translate(0.541992)"/>
</clipPath>
</defs>
</svg>
