<svg width="10" height="11" viewBox="0 0 10 11" fill="none" xmlns="http://www.w3.org/2000/svg">
<path d="M0 5.44237C0 4.88385 1.23559e-07 4.60489 0.173537 4.43135C0.347074 4.25781 0.626036 4.25781 1.18455 4.25781H8.29187C8.85039 4.25781 9.12935 4.25781 9.30289 4.43135C9.47643 4.60489 9.47643 4.88385 9.47643 5.44237V9.01853C9.47643 9.2436 9.47643 9.35672 9.45925 9.45682C9.42603 9.64936 9.3457 9.8307 9.22542 9.98468C9.10513 10.1387 8.94862 10.2605 8.76984 10.3393C8.67745 10.3808 8.56787 10.408 8.34932 10.4625C7.61609 10.6461 7.24947 10.7373 6.88285 10.8048C5.46494 11.0654 4.01149 11.0654 2.59299 10.8048C2.22696 10.7373 1.86034 10.6455 1.12769 10.4625C0.908552 10.408 0.798981 10.3802 0.707178 10.3399C0.528137 10.261 0.371415 10.1391 0.251011 9.98486C0.130607 9.83066 0.0502704 9.64904 0.0171759 9.45622C-1.14733e-07 9.35731 0 9.24478 0 9.01794V5.44237Z" fill="#5B5B5B" fill-opacity="0.25"/>
<path d="M7.40346 4.25752V3.66524C7.40346 2.95838 7.12266 2.28046 6.62283 1.78063C6.12299 1.2808 5.44508 1 4.73821 1C4.03135 1 3.35343 1.2808 2.8536 1.78063C2.35377 2.28046 2.07297 2.95838 2.07297 3.66524V4.25752" stroke="#5B5B5B" stroke-width="0.416667"/>
<path d="M4.73821 8.40353C5.39243 8.40353 5.92277 7.87319 5.92277 7.21898C5.92277 6.56477 5.39243 6.03442 4.73821 6.03442C4.084 6.03442 3.55366 6.56477 3.55366 7.21898C3.55366 7.87319 4.084 8.40353 4.73821 8.40353Z" fill="#5B5B5B"/>
<path d="M4.73821 7.81128V9.29197" stroke="#5B5B5B" stroke-width="0.416667" stroke-linecap="round"/>
</svg>
