<svg width="19" height="19" viewBox="0 0 19 19" fill="none" xmlns="http://www.w3.org/2000/svg">
<path fill-rule="evenodd" clip-rule="evenodd" d="M9.16667 0C4.10417 0 0 4.10417 0 9.16667C0 14.2292 4.10417 18.3333 9.16667 18.3333C14.2292 18.3333 18.3333 14.2292 18.3333 9.16667C18.3333 4.10417 14.2292 0 9.16667 0ZM10 12.5C10 12.721 9.9122 12.933 9.75592 13.0893C9.59964 13.2455 9.38768 13.3333 9.16667 13.3333C8.94565 13.3333 8.73369 13.2455 8.57741 13.0893C8.42113 12.933 8.33333 12.721 8.33333 12.5V10H5.83333C5.61232 10 5.40036 9.9122 5.24408 9.75592C5.0878 9.59964 5 9.38768 5 9.16667C5 8.94565 5.0878 8.73369 5.24408 8.57741C5.40036 8.42113 5.61232 8.33333 5.83333 8.33333H8.33333V5.83333C8.33333 5.61232 8.42113 5.40036 8.57741 5.24408C8.73369 5.0878 8.94565 5 9.16667 5C9.38768 5 9.59964 5.0878 9.75592 5.24408C9.9122 5.40036 10 5.61232 10 5.83333V8.33333H12.5C12.721 8.33333 12.933 8.42113 13.0893 8.57741C13.2455 8.73369 13.3333 8.94565 13.3333 9.16667C13.3333 9.38768 13.2455 9.59964 13.0893 9.75592C12.933 9.9122 12.721 10 12.5 10H10V12.5Z" fill="#5B5B5B"/>
</svg>
