<svg width="43" height="37" viewBox="0 0 43 37" fill="none" xmlns="http://www.w3.org/2000/svg">
<g clip-path="url(#clip0_222_347)">
<path d="M40.9774 17.2181C39.9978 12.5825 37.7365 7.76117 34.0764 5.10218C30.5186 2.52347 25.6938 2.31276 22.2384 4.86137C18.3736 1.73581 12.2084 2.92984 8.48986 6.34137C4.94673 9.59235 1.69115 15.1913 1.6814 20.4239C1.20379 23.0528 1.54981 25.8272 2.92905 28.3507C6.37958 34.6621 14.7183 36.0668 21.0979 36.3076C27.8235 36.5585 35.3045 34.9781 39.4276 28.9979C41.8303 25.5111 42.2787 21.0762 40.9823 17.2131L40.9774 17.2181Z" fill="#D1FFA9"/>
<path d="M22.2871 4.30943C20.8835 2.42807 18.6172 1.26414 16.3169 1.23906C12.5155 1.1939 9.25014 4.0335 6.96928 7.15906C4.23518 10.9117 2.35396 15.3166 1.52057 19.9272C0.628698 24.8538 1.56931 29.2788 5.92633 31.9879C11.0729 35.1888 17.2624 36.0517 23.179 35.6603C28.6374 35.2991 34.169 34.6871 38.4821 30.7387C40.724 28.6868 42.3372 25.3856 41.5574 19.6914C41.0018 15.6277 38.9451 10.3097 36.4791 7.08882C34.7295 4.80611 32.5851 2.66387 29.8753 1.84611C27.1656 1.02834 23.8077 1.91133 22.4723 4.47499L22.292 4.30943H22.2871Z" fill="#C0FFAB"/>
<path d="M23.1448 3.42151C21.8095 1.68063 19.7869 0.456498 17.6571 0.115345C15.5274 -0.225807 13.2173 0.275888 11.2581 1.41474C7.36405 3.67236 4.58121 7.90667 2.73898 11.9905C0.921115 16.009 -0.467868 20.725 0.151082 25.1951C0.419131 27.1366 1.16967 28.9427 2.36371 30.4729C3.70396 32.1987 5.5998 33.3627 7.52488 34.2757C11.799 36.3076 16.5265 37.0752 21.21 36.9949C23.4324 36.9598 25.6645 36.7692 27.8674 36.4682C30.0703 36.1671 32.2098 35.7056 34.2567 34.8477C37.7706 33.3727 40.9336 30.8993 42.2592 27.1316C43.6677 23.113 42.8879 18.4824 41.5769 14.5541C40.1733 10.3349 38.0143 6.24104 34.7002 3.28606C33.1017 1.86124 31.201 0.702328 29.0809 0.396295C27.1412 0.115345 25.0261 0.466532 23.3934 1.6405C22.5844 2.22246 21.9069 2.94992 21.4245 3.84294L23.3398 3.58707L23.1595 3.42151C21.9898 2.3529 20.2597 4.11887 21.4342 5.19751L21.6145 5.36307C22.1847 5.88484 23.1254 5.84972 23.5299 5.10721C24.2512 3.78273 25.5963 3.04524 27.0291 2.84958C28.73 2.6188 30.3529 3.18572 31.7712 4.12389C34.9147 6.20592 37.0737 9.75792 38.5016 13.2347C39.915 16.6813 41.0262 20.7601 40.4072 24.5228C40.1636 26.0078 39.7103 27.2621 38.8672 28.4812C38.6137 28.8474 38.1605 29.3591 37.7267 29.7705C37.0006 30.4528 36.1964 31.0348 35.3484 31.5415C31.971 33.5483 28.0087 34.06 24.1829 34.341C20.0403 34.647 15.888 34.5065 11.8819 33.2924C8.52884 32.279 4.66406 30.5682 3.1776 27.0614C1.76913 23.7452 2.61714 19.7818 3.65035 16.4856C4.88337 12.5524 6.94004 8.64416 9.81548 5.72429C12.3644 3.13555 16.0635 1.3746 19.4653 3.39141C20.2499 3.85799 20.8981 4.47006 21.4537 5.19751C21.8631 5.72931 22.7501 5.63901 23.179 5.19751C23.6907 4.67073 23.5883 3.95833 23.179 3.42151H23.1448Z" fill="#5B5B5B"/>
<path d="M34.2957 17.4237C34.0082 16.3651 33.2674 15.4921 32.3609 15.1309C31.2594 14.6944 29.9192 15.0707 29.1881 16.1243C28.4571 17.1778 28.4571 18.8585 29.2564 19.8418C30.0556 20.8251 31.5616 20.8603 32.3755 19.887C33.6573 18.3518 32.5997 16.0641 31.4739 15.146" fill="white"/>
<path d="M34.8854 17.2582C34.4468 15.6929 33.1407 14.3835 31.5031 14.3283C29.8656 14.2731 28.501 15.4421 28.1452 17.0274C27.7894 18.6128 28.345 20.4088 29.8802 21.041C31.4154 21.6731 33.0042 20.6898 33.4428 19.1446C33.8814 17.5993 33.0968 15.7029 31.8979 14.7096C31.6396 14.4989 31.2887 14.4537 31.0352 14.7096C30.8208 14.9303 30.7769 15.3819 31.0352 15.5976C31.815 16.2448 32.3609 17.2732 32.3463 18.2816C32.3365 18.7532 32.1757 19.2399 31.7955 19.6061C31.6591 19.7416 31.4934 19.8419 31.3228 19.8971C31.2594 19.9172 31.1961 19.9372 31.1327 19.9523C31.1327 19.9523 30.928 19.9824 31.0352 19.9724C30.9719 19.9774 30.9037 19.9824 30.8403 19.9824C30.8159 19.9824 30.5917 19.9673 30.6746 19.9824C30.1824 19.9122 29.8217 19.6613 29.578 19.2499C29.31 18.7934 29.2223 18.2867 29.2661 17.7248C29.3392 16.6812 30.08 15.7682 31.1376 15.6076C31.3569 15.5775 31.6786 15.5926 31.9271 15.6628C32.2 15.7381 32.4291 15.8534 32.6777 16.0391C33.165 16.4053 33.5305 16.9873 33.706 17.6044C33.9253 18.377 35.0999 18.0509 34.8805 17.2732L34.8854 17.2582Z" fill="#5B5B5B"/>
<path d="M10.1323 17.1629C10.4198 16.1043 11.1606 15.2314 12.0671 14.8702C13.1685 14.4337 14.5088 14.81 15.2398 15.8635C15.9709 16.9171 15.9709 18.5978 15.1716 19.5811C14.3723 20.5644 12.8664 20.5995 12.0525 19.6262C10.7707 18.091 11.8283 15.8033 12.9541 14.8852" fill="white"/>
<path d="M10.722 17.3334C10.8877 16.7515 11.1898 16.2498 11.6431 15.8534C12.0135 15.5273 12.5106 15.3317 12.9638 15.3216C13.9922 15.3016 14.8694 16.029 15.1082 17.0976C15.2203 17.6044 15.1911 18.1612 15.001 18.6679C14.8451 19.0793 14.5039 19.4656 14.1335 19.6061C13.6949 19.7717 13.266 19.7466 12.8907 19.5309C12.4814 19.29 12.2133 18.8385 12.111 18.3418C12.0086 17.8452 12.1451 17.203 12.3546 16.7364C12.6129 16.1545 12.9151 15.733 13.3927 15.3317C13.651 15.121 13.6072 14.6644 13.3927 14.4437C13.1393 14.1828 12.7884 14.2279 12.5301 14.4437C11.4871 15.3116 10.7366 16.8669 10.8779 18.2616C10.9608 19.0693 11.3019 19.8469 11.9258 20.3637C12.5496 20.8804 13.305 21.051 14.075 20.9206C15.659 20.6446 16.507 18.9589 16.3803 17.4137C16.2487 15.7882 15.1667 14.3634 13.5487 14.1176C11.6772 13.8316 10.0592 15.1962 9.55231 17.0023C9.33299 17.7799 10.5075 18.1111 10.7268 17.3334H10.722Z" fill="#5B5B5B"/>
<path d="M23.564 19.1696C24.1586 20.1329 24.7629 21.0209 25.8302 21.5176C26.9755 22.0494 28.2524 22.235 29.4952 22.3604C31.2448 22.536 33.8912 22.3002 35.5434 21.6781C38.7697 20.459 40.3049 16.1745 40.6119 13.5657C40.8654 11.4235 39.6128 9.50197 37.8096 8.5337C35.1145 7.08882 31.6834 8.12732 29.0761 9.32638C26.5905 10.4652 24.3681 12.4971 23.1985 15.0407C22.6039 16.3451 22.5746 17.5441 23.3398 18.7934C23.4178 18.9188 23.4958 19.0442 23.5689 19.1696H23.564Z" fill="#FFFF03"/>
<path d="M21.0979 18.7934C21.8631 17.5442 21.8338 16.3451 21.2393 15.0407C20.0745 12.4921 17.8472 10.4653 15.3617 9.32641C12.7543 8.13238 9.32325 7.08885 6.62813 8.53373C4.82001 9.50201 3.57237 11.4235 3.8258 13.5657C4.13283 16.1745 5.66315 20.459 8.89437 21.6781C10.5465 22.3002 13.188 22.536 14.9425 22.3604C16.1853 22.235 17.4622 22.0494 18.6075 21.5176C19.6748 21.0209 20.2792 20.1329 20.8737 19.1697C20.9517 19.0442 21.0248 18.9188 21.1028 18.7934H21.0979Z" fill="#FFFF03"/>
<path d="M21.1613 16.586C21.2246 16.5458 21.288 16.5107 21.3562 16.4756L21.0638 16.601C21.2782 16.5107 21.5073 16.4656 21.7412 16.4304L21.4196 16.4756C22.0726 16.3953 22.7598 16.3903 23.4129 16.4756L23.0912 16.4304C23.2959 16.4605 23.5006 16.5057 23.6907 16.586L23.3983 16.4605C23.4616 16.4906 23.525 16.5258 23.5786 16.5659L23.33 16.3702L23.3593 16.3953C23.6225 16.6111 23.871 16.7616 24.2219 16.7616C24.5192 16.7616 24.8799 16.6261 25.0845 16.3953C25.2892 16.1645 25.4549 15.8435 25.4403 15.5073C25.4257 15.1963 25.3282 14.825 25.0845 14.6193C24.7044 14.3083 24.295 14.1026 23.8174 14.0223C23.3642 13.9471 22.9158 13.9119 22.4577 13.9069C21.9995 13.9019 21.5512 13.942 21.093 14.0073C20.6934 14.0624 20.2743 14.1778 19.9331 14.4136C19.67 14.5942 19.4604 14.8401 19.3727 15.1612C19.2947 15.4622 19.3288 15.8635 19.4945 16.1294C19.8357 16.6763 20.5911 16.9673 21.1613 16.5809V16.586Z" fill="#FFFF03"/>
<path d="M3.46515 15.6628C3.88428 15.7129 4.23031 15.4069 4.45449 15.0758C4.6933 14.7196 4.83464 14.2781 4.90287 13.8567H4.31316C4.34727 14.0624 4.30341 14.2731 4.33753 14.4788C4.37164 14.6845 4.45937 14.8701 4.59095 15.0306C4.85413 15.3517 5.24889 15.5022 5.62416 15.6277V15.0206C4.93211 15.2514 4.37652 15.8685 4.2498 16.616H4.83951C4.72742 15.8936 4.1767 15.2915 3.50414 15.0908C3.12399 14.9805 2.96316 15.5875 3.34331 15.6979C3.83554 15.8434 4.1767 16.2698 4.25467 16.7816C4.30341 17.0826 4.79077 17.0776 4.84438 16.7816C4.93698 16.2498 5.28788 15.7932 5.79474 15.6226C6.08716 15.5273 6.08228 15.1159 5.79474 15.0156C5.52669 14.9203 5.2099 14.8249 5.02958 14.5791C4.96135 14.4838 4.93698 14.3734 4.93211 14.258C4.93211 14.0624 4.93211 13.8767 4.90774 13.6811C4.859 13.3801 4.37164 13.3801 4.31803 13.6811C4.26442 14.0172 4.16695 14.3433 4.00125 14.6393C3.88428 14.85 3.7137 15.0557 3.47002 15.0306C3.30432 15.0106 3.16786 15.1862 3.16786 15.3417C3.16786 15.5273 3.30919 15.6377 3.47002 15.6527L3.46515 15.6628Z" fill="white"/>
<path d="M4.1572 15.2163C4.16695 15.2765 4.1767 15.3367 4.18645 15.3969L4.1767 15.3116C4.20107 15.4872 4.21081 15.6628 4.20594 15.8434C4.20594 15.9236 4.24006 16.0089 4.29367 16.0641C4.34728 16.1193 4.435 16.1594 4.5081 16.1544C4.58121 16.1494 4.66893 16.1243 4.72254 16.0641C4.77615 16.0039 4.8054 15.9287 4.81027 15.8434C4.82489 15.6678 4.83464 15.4922 4.84926 15.3166C4.85413 15.2213 4.80052 15.126 4.72742 15.0708C4.64457 15.0055 4.56171 14.9955 4.46424 15.0156C4.35215 15.0356 4.25468 15.1209 4.19132 15.2163C4.12309 15.3166 4.10847 15.442 4.13284 15.5624C4.16208 15.733 4.31803 15.8785 4.48374 15.9086C4.66893 15.9437 4.84438 15.8935 4.98085 15.7581C5.09294 15.6427 5.14655 15.4972 5.20016 15.3467L5.20991 15.2614C5.20991 15.2163 5.20503 15.1761 5.18554 15.141C5.16117 15.0808 5.11731 15.0206 5.05882 14.9905C5.01009 14.9654 4.96135 14.9504 4.90287 14.9453C4.82002 14.9453 4.74691 14.9855 4.68843 15.0356H4.67868C4.67868 15.0356 4.71767 15.0106 4.74204 14.9955C4.73229 15.0055 4.72254 15.0106 4.70792 15.0156L4.78103 14.9855C4.78103 14.9855 4.74204 14.9955 4.72254 15.0005L4.8054 14.9905C4.75179 14.9955 4.69818 14.9905 4.64457 14.9855C4.56171 14.9805 4.47886 14.9955 4.40576 15.0306C4.31316 15.0708 4.23031 15.136 4.1767 15.2263C4.10359 15.3467 4.10359 15.5022 4.16695 15.6276C4.28879 15.8634 4.6202 15.9036 4.80052 15.718C4.88337 15.6327 4.93211 15.5072 4.92236 15.3919C4.90774 15.2263 4.82489 15.0507 4.64944 15.0156C4.56171 14.9955 4.46912 14.9855 4.37652 15.0005C4.32291 15.0055 4.26442 15.0156 4.21081 15.0306C4.15233 15.0457 4.09872 15.0708 4.04511 15.1009C3.98175 15.131 3.92327 15.2163 3.90378 15.2865C3.88428 15.3617 3.89403 15.4621 3.93302 15.5273C3.97201 15.5925 4.03536 15.6527 4.11334 15.6728C4.19619 15.6929 4.2693 15.6778 4.34727 15.6427C4.35702 15.6377 4.37164 15.6327 4.38139 15.6276L4.30829 15.6577C4.35215 15.6377 4.40088 15.6276 4.44962 15.6176L4.36677 15.6276C4.42038 15.6226 4.47399 15.6226 4.5276 15.6276L4.44475 15.6176C4.44475 15.6176 4.47886 15.6226 4.49348 15.6276L4.35702 15.5474V15.5574C4.35702 15.5574 4.33265 15.5173 4.31316 15.4922C4.31803 15.5022 4.32291 15.5072 4.32778 15.5173L4.29854 15.442C4.29854 15.442 4.30829 15.4671 4.30829 15.4822L4.29854 15.3969C4.29854 15.3969 4.29854 15.422 4.29854 15.437L4.30829 15.3517C4.30829 15.3517 4.30829 15.3718 4.30341 15.3818L4.33265 15.3066C4.33265 15.3066 4.32291 15.3216 4.31803 15.3316L4.36677 15.2664C4.36677 15.2664 4.35702 15.2815 4.34727 15.2865L4.41063 15.2363C4.41063 15.2363 4.39601 15.2464 4.39114 15.2464L4.46424 15.2163C4.46424 15.2163 4.44962 15.2163 4.43987 15.2213L4.52273 15.2112C4.52273 15.2112 4.50323 15.2112 4.48861 15.2112L4.57146 15.2213C4.57146 15.2213 4.55684 15.2213 4.54709 15.2163L4.6202 15.2464C4.6202 15.2464 4.60558 15.2413 4.6007 15.2363L4.66406 15.2865C4.66406 15.2865 4.65431 15.2815 4.65431 15.2765L4.70305 15.3417C4.70305 15.3417 4.6933 15.3266 4.68843 15.3216L4.71767 15.3969C4.71767 15.3969 4.71767 15.3818 4.7128 15.3718L4.72254 15.4571C4.72254 15.4571 4.72254 15.447 4.72254 15.442L4.7128 15.5273C4.7128 15.5273 4.7128 15.5123 4.71767 15.5022L4.68843 15.5775C4.68843 15.5775 4.69818 15.5574 4.70305 15.5474L4.65431 15.6126C4.65431 15.6126 4.67381 15.5925 4.68355 15.5825L4.6202 15.6327C4.6202 15.6327 4.64944 15.6126 4.66893 15.6026L4.59583 15.6327C4.59583 15.6327 4.62995 15.6226 4.64944 15.6176L4.56659 15.6276C4.62995 15.6176 4.6933 15.6377 4.75179 15.6377C4.88825 15.6377 5.00521 15.5925 5.10756 15.5022L4.6007 15.1962C4.58608 15.2363 4.57634 15.2765 4.55684 15.3116L4.58608 15.2363C4.56659 15.2815 4.54709 15.3216 4.51785 15.3617L4.56659 15.2965C4.56659 15.2965 4.5276 15.3417 4.5081 15.3567L4.57146 15.3066C4.57146 15.3066 4.54222 15.3266 4.5276 15.3316L4.6007 15.3015C4.6007 15.3015 4.56171 15.3166 4.54222 15.3166L4.62507 15.3066C4.62507 15.3066 4.58121 15.3066 4.55684 15.3066L4.63969 15.3166C4.63969 15.3166 4.60558 15.3116 4.59096 15.3015L4.66406 15.3316C4.66406 15.3316 4.63482 15.3166 4.62507 15.3066L4.68843 15.3567C4.68843 15.3567 4.67381 15.3417 4.66406 15.3367L4.7128 15.4019C4.7128 15.4019 4.69818 15.3818 4.6933 15.3668L4.72254 15.442C4.72254 15.442 4.71767 15.422 4.7128 15.4069L4.72254 15.4922C4.72254 15.4922 4.72254 15.4721 4.72254 15.4621L4.7128 15.5474C4.7128 15.5474 4.71767 15.5173 4.72254 15.5022L4.6933 15.5775C4.6933 15.5775 4.70305 15.5574 4.7128 15.5474L4.66406 15.6126C4.66406 15.6126 4.67868 15.5925 4.68843 15.5875L4.62507 15.6377C4.62507 15.6377 4.64457 15.6226 4.65431 15.6176L4.58121 15.6477C4.58121 15.6477 4.60558 15.6377 4.61532 15.6377L4.23031 15.3367C4.21569 15.5123 4.20594 15.6879 4.19132 15.8634H4.80052C4.8054 15.5975 4.78103 15.3316 4.73229 15.0708C4.71767 14.9955 4.65431 14.9203 4.59096 14.8851C4.5276 14.845 4.43013 14.83 4.35702 14.855C4.28392 14.8801 4.21081 14.9253 4.1767 15.0005C4.13771 15.0808 4.12796 15.1561 4.14746 15.2413L4.1572 15.2163Z" fill="white"/>
<path d="M5.40485 18.8889C5.61929 18.8337 5.78987 18.6782 5.90683 18.4925C6.01405 18.322 6.06279 18.1163 6.10178 17.9206C6.13589 17.7651 6.06766 17.6146 5.92633 17.5493C5.78499 17.4841 5.62416 17.5443 5.54619 17.6798C5.3951 17.9356 5.38536 18.2818 5.54131 18.5427C5.69727 18.8036 5.97019 18.9541 6.25773 18.9441C6.37958 18.9441 6.4868 18.8688 6.53553 18.7534C6.58427 18.638 6.5599 18.4975 6.47217 18.4123C6.21875 18.1614 5.81424 18.1614 5.55106 18.3972C5.44384 18.4925 5.36099 18.638 5.33175 18.7835C5.29276 18.9742 5.322 19.1397 5.3951 19.3153C5.42434 19.3805 5.51207 19.4458 5.57543 19.4608C5.64366 19.4759 5.70702 19.4708 5.77525 19.4457C5.90683 19.3906 5.99943 19.225 5.9507 19.0745C5.94582 19.0594 5.94095 19.0143 5.9312 18.9992C5.93608 19.0494 5.93608 19.0594 5.9312 19.0344C5.9312 19.0243 5.9312 19.0143 5.9312 19.0043C5.9312 18.9591 5.9312 18.914 5.92145 18.8688C5.91171 18.7384 5.89221 18.6129 5.81911 18.5026C5.66803 18.2768 5.40972 18.2216 5.16117 18.2467C5.00521 18.2618 4.84926 18.3822 4.859 18.5578C4.86388 18.7183 4.99547 18.8839 5.16117 18.8688C5.19528 18.8688 5.23427 18.8638 5.26839 18.8638C5.28788 18.8638 5.30738 18.8638 5.322 18.8638C5.37561 18.8638 5.26839 18.8487 5.3025 18.8638C5.31713 18.8638 5.33662 18.8738 5.35124 18.8788C5.38536 18.8889 5.28788 18.8487 5.33175 18.8738C5.38048 18.8989 5.28301 18.8287 5.322 18.8738C5.29763 18.8387 5.28788 18.8287 5.3025 18.8487C5.3025 18.8588 5.31225 18.8638 5.31713 18.8738L5.29763 18.8337C5.29763 18.8337 5.3025 18.8588 5.30738 18.8688C5.30738 18.8788 5.322 18.934 5.30738 18.8839C5.29276 18.8337 5.30738 18.8839 5.30738 18.8989C5.30738 18.919 5.30738 18.939 5.30738 18.9591C5.31225 19.0544 5.31712 19.1598 5.35124 19.2501L5.90683 19.0093C5.91658 19.0293 5.94095 19.0946 5.90683 19.0093C5.88734 18.934 5.90683 19.0695 5.90683 19.0093C5.90683 18.9892 5.90683 18.9742 5.90683 18.9541C5.90683 18.8939 5.88734 19.0243 5.90683 18.9641C5.90683 18.9441 5.91658 18.929 5.92145 18.9089C5.88734 18.9742 5.93608 18.8537 5.92145 18.9089C5.92145 18.8989 5.9312 18.8939 5.93608 18.8839C5.95557 18.8588 5.9507 18.8638 5.92145 18.9039C5.92633 18.9039 5.96044 18.8688 5.96044 18.8638C5.92145 18.8939 5.91658 18.8989 5.9312 18.8839C5.93608 18.8788 5.94582 18.8738 5.95557 18.8688C6.00918 18.8337 5.96532 18.8738 5.94582 18.8688C5.95557 18.8688 5.99456 18.8538 6.00431 18.8538C6.02867 18.8538 6.01405 18.8538 5.96532 18.8588C5.97506 18.8588 5.98969 18.8588 5.99943 18.8588C6.03355 18.8588 6.06279 18.8788 5.98969 18.8588C6.00431 18.8638 6.0238 18.8688 6.03842 18.8738C6.09203 18.8889 5.98481 18.8387 6.02867 18.8738C6.09691 18.924 5.99456 18.8387 6.03355 18.8738L6.24799 18.337C6.24799 18.337 6.209 18.337 6.1895 18.337C6.12615 18.337 6.25286 18.3521 6.19438 18.337C6.17488 18.332 6.16026 18.327 6.14077 18.322C6.08228 18.3069 6.19438 18.3521 6.14077 18.322C6.12615 18.3119 6.10665 18.3019 6.09203 18.2919C6.03842 18.2618 6.13102 18.337 6.09203 18.2919C6.07741 18.2768 6.06766 18.2618 6.05304 18.2517C6.00918 18.2116 6.08716 18.3119 6.05304 18.2467C6.04817 18.2367 6.0433 18.2316 6.03842 18.2216C6.02867 18.1965 6.02867 18.1965 6.03842 18.2216C6.04817 18.2467 6.04817 18.2467 6.03842 18.2216C6.03842 18.2116 6.03355 18.2015 6.02867 18.1915C6.02867 18.1815 6.00918 18.1112 6.01893 18.1664C6.03355 18.2166 6.01893 18.1514 6.01893 18.1363C6.01893 18.1263 6.0238 18.051 6.01893 18.1062C6.01405 18.1614 6.01893 18.0912 6.02867 18.0811C6.02867 18.0711 6.03355 18.0611 6.03842 18.051C6.04817 18.026 6.04817 18.026 6.03842 18.051C6.02867 18.0761 6.02867 18.0761 6.03842 18.051C6.0433 18.041 6.05304 18.026 6.05792 18.0159L5.50232 17.7751C5.4877 17.8504 5.47308 17.9256 5.44871 17.9959C5.43897 18.031 5.42434 18.0661 5.4146 18.1062C5.39023 18.1765 5.44384 18.046 5.4146 18.1163C5.40485 18.1313 5.39998 18.1514 5.39023 18.1664C5.38048 18.1815 5.37561 18.1965 5.36586 18.2116C5.36099 18.2216 5.32687 18.2718 5.35611 18.2266C5.38536 18.1815 5.34637 18.2367 5.34149 18.2417C5.33175 18.2517 5.31713 18.2668 5.30738 18.2768C5.30738 18.2768 5.29763 18.2868 5.29276 18.2919C5.27326 18.3069 5.28301 18.3019 5.31713 18.2718L5.27814 18.2969C5.21965 18.327 5.28301 18.2868 5.29276 18.2969L5.23915 18.3119C5.08319 18.3521 4.97597 18.5377 5.02471 18.6982C5.07344 18.8588 5.23427 18.9591 5.39998 18.919L5.40485 18.8889Z" fill="white"/>
<path d="M37.4684 16.6662C38.1556 16.606 38.565 16.0542 38.8136 15.4371C39.1303 14.6444 39.2619 13.7614 39.3058 12.9085H38.6966C38.7892 13.8216 38.9013 14.7949 39.4959 15.5274C40.0515 16.2147 40.9287 16.4956 41.7767 16.3652C42.1422 16.31 42.0058 15.7832 41.6939 15.7481C40.8702 15.6578 40.0758 15.8434 39.5544 16.5458C39.0329 17.2482 38.95 18.1563 38.8915 19.0192L39.491 18.9339C39.3009 17.6495 38.6917 16.0993 37.2053 16.0893C36.8154 16.0893 36.8105 16.7114 37.2053 16.7164C38.3944 16.7264 38.7599 18.1262 38.9062 19.0994C38.9598 19.4657 39.4812 19.3453 39.5056 19.0142C39.5495 18.3218 39.5933 17.5893 39.9832 16.9973C40.3731 16.4053 41.0311 16.295 41.6987 16.3702L41.6159 15.7531C40.9531 15.8535 40.2513 15.5525 39.8663 14.9855C39.4569 14.3885 39.3838 13.6109 39.3107 12.9035C39.2717 12.5072 38.721 12.4921 38.7015 12.9035C38.6674 13.5908 38.5553 14.2631 38.3506 14.9203C38.219 15.3417 37.9802 15.9889 37.4733 16.0341C37.0834 16.0692 37.0834 16.6963 37.4733 16.6612L37.4684 16.6662Z" fill="white"/>
<path d="M39.5154 14.825C39.2181 14.7498 38.911 14.8702 38.721 15.111C38.5163 15.3668 38.4529 15.703 38.4285 16.0241C38.4139 16.2247 38.526 16.4204 38.721 16.4756C38.9159 16.5308 39.106 16.4003 39.2083 16.2398C39.3838 15.9588 39.4033 15.5826 39.3448 15.2615C39.3058 15.0357 38.9793 14.9555 38.8379 15.121C38.409 15.6177 38.3213 16.3201 38.5942 16.9171C38.6381 17.0124 38.7551 17.0726 38.8574 17.0726C38.9744 17.0726 39.0524 17.0074 39.1206 16.9171C39.3643 16.5809 39.4861 16.1445 39.4471 15.7281C39.4325 15.5776 39.3204 15.3919 39.145 15.417C38.8379 15.4571 38.6332 15.6378 38.5211 15.9287C38.4334 16.1545 38.3944 16.4656 38.4919 16.6963C38.643 17.0626 39.067 17.0425 39.3107 16.7866C39.5202 16.5659 39.6031 16.2147 39.6421 15.9137C39.6616 15.7582 39.6177 15.6077 39.4666 15.5424C39.3253 15.4822 39.1693 15.5374 39.0865 15.6729C38.8769 16.019 38.7599 16.4104 38.7307 16.8218C38.721 16.9572 38.8331 17.0877 38.9549 17.1228C39.0914 17.1629 39.2229 17.0927 39.3009 16.9773C39.5641 16.586 39.798 16.1746 40.0125 15.7531C40.0904 15.6026 40.0515 15.412 39.9052 15.3217C39.759 15.2314 39.5836 15.2916 39.4861 15.4321C39.1596 15.9237 38.9159 16.4856 38.7794 17.0626C38.7405 17.2281 38.8282 17.4037 38.9939 17.4489C39.1596 17.494 39.3204 17.3937 39.3691 17.2281C39.4569 16.9371 39.5738 16.6813 39.7395 16.4204L39.184 16.1796C39.1303 16.5057 39.0524 16.8268 38.9403 17.1378H39.53C39.4812 16.907 39.4325 16.6712 39.3789 16.4405C39.3302 16.2197 39.2424 15.999 39.067 15.8585C38.8915 15.718 38.6381 15.6879 38.4285 15.8033C38.219 15.9187 38.0971 16.1595 38.1702 16.3903L38.3847 16.004C38.4237 15.994 38.4773 16.004 38.5016 16.0441L38.2385 16.5157C38.8477 16.5358 39.4569 16.4756 40.0466 16.3301C40.1782 16.3 40.2708 16.1595 40.2708 16.0291C40.2708 15.8886 40.1733 15.7682 40.0466 15.7281C39.4959 15.5424 38.8818 15.5575 38.3457 15.7732C38.2287 15.8184 38.141 15.8986 38.1264 16.0341C38.1118 16.1595 38.1654 16.2799 38.2726 16.3451C38.9354 16.7666 39.7444 16.5759 40.4413 16.3602C40.763 16.2599 40.7143 15.7381 40.3585 15.7431H40.1733C40.0076 15.7481 39.8711 15.8886 39.8711 16.0592C39.8711 16.2298 40.0125 16.3752 40.1733 16.3702H40.3585C40.3293 16.1595 40.3049 15.9588 40.2756 15.7531C40.1197 15.8033 39.9589 15.8485 39.8029 15.8886C39.6469 15.9287 39.5154 15.9538 39.3789 15.9639C39.067 15.9889 38.8233 15.9639 38.5747 15.8033L38.5016 16.3752C38.9598 16.1896 39.4179 16.1746 39.8809 16.3301V15.723C39.3399 15.8535 38.7892 15.9087 38.2336 15.8886C37.9997 15.8786 37.8583 16.1595 37.9704 16.3602C38.0923 16.5709 38.3164 16.6562 38.5406 16.606C38.6966 16.5709 38.8038 16.3752 38.7551 16.2197C38.7356 16.1595 38.7551 16.2599 38.7551 16.2799C38.7551 16.2799 38.7161 16.3803 38.6966 16.3652C38.682 16.3552 38.8038 16.3301 38.7063 16.3552C38.7697 16.3401 38.6479 16.3602 38.721 16.3552H38.6868C38.721 16.3552 38.7161 16.3552 38.682 16.3451L38.7063 16.3602C38.7063 16.3602 38.6868 16.3451 38.7015 16.3602C38.7161 16.3752 38.7161 16.3752 38.7015 16.3552C38.7112 16.3652 38.7161 16.3803 38.7258 16.3953C38.7356 16.4104 38.7405 16.4204 38.7453 16.4354C38.7356 16.4104 38.7356 16.4104 38.7453 16.4354C38.7941 16.5609 38.8136 16.6963 38.8428 16.8268C38.8769 16.9923 38.9159 17.1529 38.95 17.3184C38.9793 17.4539 39.1157 17.5492 39.2424 17.5492C39.3838 17.5492 39.491 17.4489 39.5349 17.3184C39.6469 17.0074 39.7249 16.6863 39.7785 16.3602C39.8029 16.2047 39.7542 16.0542 39.6031 15.9889C39.452 15.9237 39.3058 15.9839 39.2229 16.1194C39.0377 16.4154 38.8915 16.7365 38.7941 17.0776L39.3838 17.2432C39.5105 16.7013 39.7249 16.2197 40.032 15.7632L39.5056 15.4471C39.2912 15.8685 39.0524 16.2749 38.7941 16.6712L39.3594 16.8318C39.3789 16.5458 39.4764 16.2548 39.6323 15.999L39.0767 15.7582C39.0524 15.9287 39.0182 16.1093 38.95 16.2649C38.9451 16.2749 38.8915 16.3652 38.9208 16.3301C38.9062 16.3451 38.8964 16.3602 38.8818 16.3752L38.8964 16.3652C38.8623 16.3853 38.8672 16.3853 38.8964 16.3702C38.8428 16.3853 38.8672 16.3853 38.9646 16.3752C39.0182 16.3903 39.0524 16.4204 39.0719 16.4756C39.067 16.4405 39.0621 16.4355 39.067 16.4555C39.067 16.4756 39.067 16.3953 39.067 16.3803C39.067 16.3702 39.0719 16.2749 39.067 16.31C39.0621 16.3451 39.0767 16.2498 39.0816 16.2398C39.0914 16.2097 39.1011 16.1746 39.1108 16.1445C39.1206 16.1244 39.1157 16.1294 39.1108 16.1545C39.1206 16.1395 39.1255 16.1244 39.1352 16.1093C39.1596 16.0542 39.1108 16.1395 39.1547 16.0792C39.1645 16.0692 39.1742 16.0592 39.1791 16.0542C39.1498 16.0792 39.1498 16.0792 39.1791 16.0592C39.2083 16.0441 39.2083 16.0441 39.1742 16.0592C39.2083 16.0491 39.2083 16.0491 39.1693 16.0592L38.8672 15.7481C38.8964 16.0843 38.8282 16.3502 38.6235 16.6211H39.1498C39.1108 16.5308 39.1596 16.6712 39.1303 16.5759C39.1255 16.5559 39.1157 16.5358 39.1108 16.5157C39.1011 16.4856 39.0962 16.4555 39.0865 16.4204C39.0865 16.4154 39.0719 16.3351 39.0767 16.3652C39.0816 16.3953 39.0767 16.3201 39.0767 16.31C39.0767 16.2849 39.0767 16.2548 39.0767 16.2298C39.0767 16.2047 39.0767 16.1746 39.0767 16.1495C39.0767 16.1495 39.0865 16.0491 39.0767 16.1043C39.0816 16.0491 39.0962 15.999 39.1108 15.9488C39.1157 15.9237 39.1255 15.8986 39.1352 15.8736C39.1352 15.8585 39.1596 15.8033 39.145 15.8435C39.1693 15.7883 39.1937 15.7381 39.2278 15.6879C39.2424 15.6628 39.2571 15.6428 39.2717 15.6227C39.2424 15.6628 39.3009 15.5876 39.3009 15.5876L38.7941 15.4471C38.8087 15.5173 38.8087 15.6578 38.7941 15.7281C38.7794 15.7832 38.7697 15.8384 38.7502 15.8886C38.7502 15.8986 38.7307 15.9137 38.7307 15.9237L38.7405 15.9087C38.7989 15.8635 38.872 15.8635 38.95 15.8986L39.0572 16.009C39.0572 16.009 39.0572 16.1244 39.0719 16.0542C39.0719 16.0241 39.0767 15.999 39.0816 15.9689C39.0914 15.9087 39.0767 16.004 39.0816 15.9438C39.0816 15.9187 39.0914 15.8936 39.0914 15.8736C39.1011 15.8184 39.1108 15.7682 39.1255 15.713C39.1401 15.6578 39.145 15.6478 39.1645 15.6026C39.2034 15.5324 39.2278 15.4973 39.2765 15.4672C39.296 15.4571 39.3107 15.4471 39.3302 15.4371C39.3009 15.4521 39.3302 15.4371 39.3399 15.4371C39.4325 15.4321 39.3058 15.4371 39.3594 15.4371C39.4081 15.4371 39.2912 15.417 39.3789 15.4371C39.5397 15.4772 39.7103 15.3819 39.7542 15.2163C39.798 15.0508 39.7006 14.8702 39.5397 14.83L39.5154 14.825Z" fill="white"/>
<path d="M27.4775 26.4845C27.5116 26.5246 27.5457 26.5648 27.5798 26.6049C27.497 26.5046 27.5896 26.625 27.6091 26.6501C27.6724 26.7454 27.7163 26.8507 27.7748 26.9511C27.7943 26.9912 27.7894 26.9812 27.765 26.921C27.7748 26.9461 27.7845 26.9711 27.7943 26.9962C27.8138 27.0464 27.8284 27.0966 27.843 27.1467C27.8723 27.2571 27.8966 27.3725 27.9113 27.4829L28.6618 26.7103C28.6618 26.7103 28.5838 26.6952 28.5789 26.6852C28.5789 26.6952 28.691 26.7454 28.6082 26.6952C28.5789 26.6751 28.5448 26.6601 28.5156 26.64C28.4961 26.63 28.4327 26.5698 28.4912 26.625C28.5546 26.6852 28.4815 26.6149 28.4717 26.6049C28.4522 26.5848 28.4327 26.5648 28.4132 26.5397C28.3986 26.5246 28.3548 26.4494 28.3937 26.5196C28.4425 26.6049 28.3742 26.4795 28.3694 26.4745C28.3548 26.4494 28.3401 26.4243 28.3255 26.3992C28.2816 26.3189 28.3206 26.4193 28.3353 26.4293C28.306 26.4092 28.2963 26.2939 28.2865 26.2587C28.2573 26.1584 28.2865 26.2939 28.2865 26.2939C28.2768 26.2888 28.2865 26.1985 28.2865 26.1835C28.2865 26.1684 28.2865 26.1534 28.2865 26.1383C28.2865 26.1032 28.2865 26.1082 28.2816 26.1584C28.2719 26.2035 28.2719 26.2136 28.2816 26.1785C28.2816 26.1584 28.2914 26.1333 28.2963 26.1132L27.1851 26.2638C27.4385 26.64 27.6627 27.0313 27.8625 27.4377C27.9113 27.533 27.9551 27.6334 27.999 27.7337C28.0185 27.7789 28.038 27.824 28.0575 27.8692C28.1159 28.0046 28.038 27.814 28.0867 27.9394C28.1744 28.1602 28.2524 28.3809 28.3255 28.6117L29.2223 27.9043C29.1394 27.8591 29.0614 27.809 28.9883 27.7538C29.1053 27.8391 28.9932 27.7538 28.9688 27.7337C28.9347 27.7036 28.9006 27.6685 28.8665 27.6334C28.8324 27.5983 28.8031 27.5631 28.7739 27.528C28.6813 27.4277 28.8226 27.6133 28.7544 27.5029C28.7008 27.4177 28.6423 27.3273 28.5984 27.237C28.5887 27.222 28.5302 27.0765 28.5594 27.1618C28.5887 27.2471 28.54 27.0966 28.5351 27.0815C28.5058 26.9912 28.4815 26.8959 28.4668 26.8056C28.4668 26.7805 28.4571 26.7604 28.4571 26.7353C28.4668 26.8156 28.4717 26.8307 28.4668 26.7855C28.4668 26.7404 28.462 26.6902 28.4571 26.64C28.4571 26.5347 28.462 26.4343 28.4766 26.329L27.341 26.645C27.4629 26.8357 27.5798 27.0313 27.7017 27.222V26.5899C27.7602 26.5146 27.765 26.5046 27.7261 26.5547C27.6773 26.5999 27.6919 26.5899 27.765 26.5297C27.7456 26.5447 27.7261 26.5547 27.7017 26.5698C27.7943 26.5347 27.8089 26.5246 27.7456 26.5497C27.7212 26.5598 27.6968 26.5648 27.6773 26.5698C27.614 26.5798 27.6286 26.5798 27.7309 26.5648C27.7261 26.5648 27.5847 26.5598 27.5798 26.5648C27.6773 26.5798 27.6919 26.5798 27.6286 26.5648C27.6042 26.5598 27.5798 26.5547 27.5506 26.5447C27.5262 26.5347 27.5019 26.5297 27.4775 26.5196C27.5604 26.5598 27.575 26.5648 27.5116 26.5347C27.497 26.5246 27.3703 26.4644 27.3752 26.4494C27.4434 26.5096 27.4531 26.5146 27.4044 26.4694C27.3849 26.4494 27.3654 26.4343 27.3459 26.4143C27.3021 26.3641 27.3118 26.3741 27.3654 26.4494C27.3459 26.4193 27.3264 26.3942 27.3118 26.3641C27.2972 26.339 27.2095 26.1383 27.2631 26.2838C27.2143 26.1534 27.1851 26.0179 27.1607 25.8825C27.19 26.038 27.1558 25.8172 27.151 25.7871C27.1461 25.7169 27.1412 25.6467 27.1412 25.5714C27.1412 25.4309 27.1412 25.2854 27.1412 25.145L26.3712 25.752C26.5271 25.8172 26.2591 25.6968 26.4102 25.7671C26.4492 25.7871 26.4882 25.8022 26.5223 25.8223C26.6051 25.8624 26.688 25.9075 26.766 25.9577C26.8439 26.0079 26.9268 26.053 26.9999 26.1082C27.034 26.1333 27.0681 26.1584 27.1022 26.1835C27.1169 26.1935 27.2484 26.2989 27.1412 26.2086C27.2874 26.324 27.4239 26.4544 27.5555 26.5899C27.6188 26.6601 27.6822 26.7253 27.7407 26.8006C27.7699 26.8357 27.7943 26.8658 27.8235 26.9009C27.9307 27.0313 27.7553 26.8006 27.8528 26.936C27.9015 27.0063 27.9502 27.0765 27.9941 27.1518C28.0233 27.1969 28.0477 27.237 28.0721 27.2822C28.0965 27.3273 28.1159 27.4277 28.0916 27.3123C28.1111 27.4176 28.0965 27.2922 28.1013 27.2471C28.1208 27.0966 28.2427 26.9812 28.3791 26.936C28.423 26.921 28.4717 26.916 28.5156 26.931C28.5741 26.941 28.5741 26.941 28.5253 26.931C28.6423 26.9711 28.5497 26.9711 28.5253 26.916C28.5497 26.9661 28.6082 26.9711 28.5351 26.9109C28.4815 26.8658 28.5887 27.0113 28.54 26.916C28.5156 26.8658 28.4863 26.8106 28.462 26.7604C28.4132 26.6601 28.462 26.7855 28.4474 26.7203C28.423 26.6149 28.3889 26.5146 28.3645 26.4092C28.3255 26.2337 28.3645 26.5246 28.3548 26.344C28.3548 26.2838 28.3499 26.2286 28.345 26.1684C28.345 25.8423 28.0672 25.5263 27.7358 25.5413C27.4044 25.5564 27.1217 25.8172 27.1266 26.1684C27.1363 26.8357 27.3605 27.6484 27.9502 28.0197C28.2865 28.2354 28.7349 28.2454 29.0371 27.9595C29.3733 27.6434 29.3685 27.1819 29.193 26.7855C28.9737 26.2989 28.5887 25.8473 28.2037 25.4911C27.7504 25.0798 27.2533 24.7787 26.6977 24.548C26.3176 24.3924 25.9326 24.7838 25.9277 25.155C25.9131 25.9377 25.9569 26.8909 26.6051 27.4227C26.9122 27.6735 27.2777 27.8391 27.6724 27.8341C28.1257 27.8341 28.4912 27.6133 28.7544 27.2471C28.8762 27.0765 28.8616 26.7855 28.7544 26.6149C28.6326 26.4243 28.5156 26.2286 28.3937 26.038C28.2524 25.8122 27.9697 25.6617 27.7066 25.752C27.4288 25.8473 27.2972 26.0681 27.2582 26.3591C27.1266 27.4177 27.7114 28.5214 28.6131 29.0281C28.8324 29.1485 29.0907 29.1385 29.2905 28.9779C29.4757 28.8324 29.5829 28.5565 29.5098 28.3207C29.2125 27.3825 28.7934 26.4845 28.2475 25.6768C28.1062 25.4661 27.8966 25.3406 27.6383 25.3758C27.4093 25.4059 27.1851 25.5814 27.1315 25.8273C26.9268 26.7454 27.4629 27.7187 28.3548 27.9745C28.5643 28.0347 28.7934 27.9745 28.9493 27.814C29.1199 27.6384 29.1394 27.4327 29.1053 27.2019C29.0273 26.62 28.7495 26.0781 28.3596 25.6517C28.1403 25.4109 27.7163 25.4109 27.497 25.6517C27.2679 25.9075 27.2631 26.2838 27.497 26.5397L27.4775 26.4845Z" fill="#FF6510"/>
<path d="M11.2532 27.6334C13.9727 30.5131 17.9008 31.8928 21.7461 31.9881C25.9228 32.0884 29.9289 30.774 33.3307 28.2856C34.2811 27.5882 33.3697 25.9577 32.4096 26.6601C29.3051 28.9328 25.762 30.1569 21.9459 30.1067C18.5052 30.0616 14.9815 28.8776 12.5496 26.2989C11.7308 25.4309 10.4344 26.7604 11.2581 27.6283L11.2532 27.6334Z" fill="#5B5B5B"/>
<path d="M30.4017 27.9142C29.9241 27.8038 29.4464 27.6984 28.9688 27.5831C28.7739 27.5379 28.5838 27.4877 28.3937 27.4325C28.2914 27.4024 28.1939 27.3723 28.0965 27.3372C28.0428 27.3172 27.9892 27.2971 27.9356 27.277C27.7699 27.2168 28.0331 27.3272 27.9307 27.277C27.7553 27.1917 27.5847 27.1014 27.419 26.9911C27.4093 26.986 27.2436 26.8405 27.3459 26.9409C27.4483 27.0412 27.2874 26.8807 27.2826 26.8757C27.2533 26.8456 27.2241 26.8155 27.1948 26.7854L27.1558 26.7402C27.0925 26.6649 27.1071 26.68 27.19 26.7954C27.1997 26.7803 27.0779 26.6248 27.0632 26.5947C27.0437 26.5596 27.0291 26.5245 27.0096 26.4894C26.9122 26.3138 27.0584 26.6449 27.0194 26.5195C26.995 26.4342 26.9609 26.3489 26.9414 26.2636C26.9414 26.2435 26.9268 26.1532 26.917 26.1482C26.9317 26.2937 26.9365 26.3288 26.9317 26.2536C26.9317 26.2235 26.9268 26.1934 26.9268 26.1683C26.9268 26.093 26.9268 26.0178 26.9268 25.9375C26.9268 25.7468 26.8732 26.098 26.9219 25.9927C26.9365 25.9576 26.9463 25.8974 26.956 25.8572C26.9804 25.7519 27.0145 25.8522 26.9219 25.9275C26.9365 25.9124 26.9658 25.8422 26.9706 25.8321C26.9706 25.8271 27.0291 25.7569 27.0291 25.7418C26.9365 25.8572 26.9268 25.8773 26.9901 25.802L27.0291 25.7619C27.1461 25.6264 26.9073 25.8271 27.0096 25.7769C27.0437 25.7619 27.0827 25.7368 27.1169 25.7167C27.2143 25.6565 26.9122 25.7619 27.0974 25.7318C27.1217 25.7318 27.1997 25.7117 27.2192 25.7017C27.1217 25.7669 27.0535 25.7117 27.1607 25.7117C27.1997 25.7117 27.2436 25.7117 27.2874 25.7117C27.4872 25.6967 27.1412 25.6716 27.2631 25.7017C27.3264 25.7167 27.3898 25.7268 27.4483 25.7468C27.4872 25.7569 27.614 25.7769 27.4921 25.7519C27.3703 25.7268 27.5214 25.7669 27.5555 25.787C27.6286 25.8271 27.7163 25.8723 27.7797 25.9325C27.6091 25.7669 27.8381 26.0027 27.8723 26.0428C27.9113 26.083 27.9502 26.1281 27.9844 26.1733C28.0965 26.3037 27.9307 26.083 27.9844 26.1783C28.0867 26.3539 28.1939 26.5195 28.2816 26.7051C28.306 26.7603 28.3304 26.8155 28.3548 26.8656C28.2865 26.67 28.4132 26.9961 28.3548 26.8656C28.3889 26.966 28.423 27.0663 28.4522 27.1666C28.4815 27.267 28.5058 27.3723 28.5302 27.4777C28.54 27.5178 28.5448 27.563 28.5546 27.6031C28.5448 27.8239 28.5692 27.6984 28.5546 27.6031C28.54 27.8088 28.5741 28.0245 28.5643 28.2353C28.5546 28.4108 28.5643 28.1751 28.5741 28.17C28.5546 28.1801 28.5448 28.3155 28.54 28.3506C28.5302 28.4008 28.5156 28.446 28.501 28.4961C28.4522 28.6667 28.4766 28.4861 28.5205 28.466C28.4961 28.4761 28.3791 28.7169 28.3694 28.747C28.3255 28.8523 28.4863 28.6115 28.4084 28.6968C28.3596 28.747 28.3158 28.7972 28.267 28.8473C27.9161 29.1835 27.9113 29.8457 28.267 30.1768C28.6423 30.533 29.1833 30.533 29.5585 30.1768C30.4212 29.354 30.5284 28.0647 30.2847 26.9459C30.041 25.8271 29.3928 24.5929 28.3548 24.1013C27.7748 23.8254 27.1022 23.72 26.4882 23.9508C25.8741 24.1816 25.3916 24.6883 25.1869 25.3505C24.8262 26.5295 25.416 27.7787 26.3225 28.4861C27.3362 29.2738 28.7057 29.4494 29.9094 29.7303C30.3724 29.8357 30.9183 29.5848 31.0352 29.0731C31.1425 28.5965 30.8939 28.0296 30.3968 27.9142H30.4017Z" fill="#5B5B5B"/>
</g>
<defs>
<clipPath id="clip0_222_347">
<rect width="43" height="37" fill="white"/>
</clipPath>
</defs>
</svg>
