<svg width="43" height="37" viewBox="0 0 43 37" fill="none" xmlns="http://www.w3.org/2000/svg">
<g clip-path="url(#clip0_222_313)">
<path d="M40.9774 17.2181C39.9978 12.5825 37.7365 7.76117 34.0764 5.10218C30.5186 2.52347 25.6938 2.31276 22.2384 4.86137C18.3736 1.73581 12.2084 2.92984 8.48986 6.34137C4.94674 9.59235 1.69115 15.1913 1.68141 20.4239C1.20379 23.0528 1.54982 25.8272 2.92905 28.3507C6.37958 34.6621 14.7184 36.0668 21.0979 36.3076C27.8235 36.5585 35.3045 34.9781 39.4276 28.9979C41.8303 25.5111 42.2787 21.0762 40.9823 17.2131L40.9774 17.2181Z" fill="#B1FFA6"/>
<path d="M22.2871 4.30943C20.8835 2.42807 18.6173 1.26414 16.3169 1.23906C12.5155 1.1939 9.25014 4.0335 6.96929 7.15906C4.23518 10.9117 2.35396 15.3166 1.52057 19.9272C0.628699 24.8538 1.56931 29.2788 5.92633 31.9879C11.0729 35.1888 17.2624 36.0517 23.179 35.6603C28.6374 35.2991 34.169 34.6871 38.4821 30.7387C40.724 28.6868 42.3372 25.3856 41.5574 19.6914C41.0018 15.6277 38.9451 10.3097 36.4791 7.08882C34.7295 4.80611 32.5851 2.66387 29.8753 1.84611C27.1656 1.02834 23.8077 1.91133 22.4723 4.47499" fill="#C0FFAB"/>
<path d="M23.1449 3.42151C21.8095 1.68063 19.7869 0.456498 17.6571 0.115345C15.5274 -0.225807 13.2173 0.275888 11.2581 1.41474C7.36405 3.67236 4.58121 7.90667 2.73898 11.9905C0.921119 16.009 -0.467865 20.725 0.151086 25.1951C0.419135 27.1366 1.16967 28.9427 2.36371 30.4729C3.70396 32.1987 5.5998 33.3627 7.52488 34.2757C11.7991 36.3076 16.5265 37.0752 21.21 36.9949C23.4324 36.9598 25.6645 36.7692 27.8674 36.4682C30.0703 36.1671 32.2098 35.7056 34.2567 34.8477C37.7706 33.3727 40.9336 30.8993 42.2592 27.1316C43.6677 23.113 42.8879 18.4824 41.5769 14.5541C40.1733 10.3349 38.0143 6.24104 34.7002 3.28606C33.1017 1.86124 31.201 0.702328 29.0809 0.396295C27.1412 0.115345 25.0261 0.466532 23.3934 1.6405C22.5844 2.22246 21.9069 2.94992 21.4245 3.84294C20.6593 5.2527 22.7598 6.51697 23.5299 5.10721C24.2512 3.78273 25.5963 3.04524 27.0291 2.84958C28.73 2.6188 30.3529 3.18572 31.7712 4.12389C34.9147 6.20592 37.0737 9.75792 38.5016 13.2347C39.9296 16.7114 41.0262 20.7601 40.4072 24.5228C40.1636 26.0078 39.7103 27.2621 38.8672 28.4812C38.6137 28.8474 38.1605 29.3591 37.7267 29.7705C37.0006 30.4528 36.1964 31.0348 35.3484 31.5415C31.971 33.5483 28.0087 34.06 24.1829 34.341C20.0404 34.647 15.888 34.5065 11.8819 33.2924C8.52885 32.279 4.66406 30.5682 3.17761 27.0614C1.76913 23.7452 2.61714 19.7818 3.65035 16.4856C4.88338 12.5524 6.94005 8.64416 9.81549 5.72429C12.3644 3.13555 16.0635 1.3746 19.4653 3.39141C20.2499 3.85799 20.8981 4.47006 21.4537 5.19751C21.8631 5.72931 22.7501 5.63901 23.179 5.19751C23.6907 4.67073 23.5884 3.95833 23.179 3.42151H23.1449Z" fill="#5B5B5B"/>
<path d="M22.3261 5.39811C21.673 3.03513 19.1241 2.38794 17.0187 2.32272C15.1911 2.26753 13.305 2.76923 11.7211 3.7074C10.8292 4.23418 9.93245 4.94157 9.4256 5.87974C8.76766 7.09886 8.73842 8.56381 9.43047 9.77791C10.7805 12.1359 13.7046 11.4034 15.7759 10.7261C17.6523 10.114 19.4653 9.23106 21.0833 8.07716C21.6145 7.70089 22.0288 7.23431 22.2042 6.57709C22.3651 5.97506 22.292 5.17736 21.9606 4.64557C21.288 3.57194 19.7479 2.94984 18.627 3.74753C18.0958 4.1238 17.5451 4.47499 16.9797 4.79106C16.7165 4.93655 16.4534 5.07703 16.1853 5.20747C16.0489 5.27269 15.9173 5.33791 15.7808 5.40313C15.6882 5.44326 15.6005 5.48842 15.5079 5.52855C15.8393 5.38808 15.9173 5.35296 15.7467 5.42319C14.5721 5.88475 13.3684 6.28611 12.1207 6.47675L12.7689 6.38645C12.5837 6.40652 12.4083 6.41153 12.2231 6.39648L12.8713 6.48679C12.6227 6.4316 12.6909 6.47675 13.0759 6.62225C13.2465 6.7276 13.3879 6.86306 13.4902 7.03364C13.6267 7.19418 13.7193 7.37981 13.7631 7.59052C13.7388 7.51526 13.7193 7.44001 13.7095 7.36475L13.7972 8.03201C13.7875 7.9116 13.7875 7.80123 13.7972 7.67581L13.7095 8.34306C13.7193 8.26781 13.7534 8.18252 13.7583 8.11228C13.5877 8.48855 13.5487 8.58889 13.6413 8.4133C13.6608 8.37316 13.6851 8.33303 13.7095 8.29791C13.8167 8.07716 13.3879 8.63404 13.5828 8.48353C13.6657 8.41831 13.7339 8.28787 13.8314 8.24774C13.768 8.27282 13.383 8.56882 13.6608 8.38821C13.7583 8.32299 13.8508 8.25275 13.9532 8.19255C14.1286 8.07716 14.309 7.97181 14.499 7.87147C14.5819 7.82631 14.6647 7.78618 14.7476 7.74604C15.0498 7.59052 14.6111 7.78116 14.5478 7.82631C14.6989 7.71594 14.962 7.66577 15.1375 7.61059C15.5615 7.47513 15.9904 7.37981 16.429 7.3196L15.7808 7.40991C16.4777 7.3196 17.1649 7.32462 17.8618 7.41994L17.2137 7.32964C17.5938 7.38984 17.9544 7.50021 18.3297 7.59052C18.5783 7.65072 17.8472 7.33465 18.0714 7.47011C18.1348 7.51025 18.2079 7.55038 18.2712 7.5855C18.3736 7.65574 18.3346 7.62564 18.1591 7.49519C18.0373 7.42496 17.9447 7.32964 17.8765 7.20421C17.7497 7.01858 17.7205 6.97343 17.7839 7.08381C17.8813 7.25438 17.8326 7.13899 17.6377 6.74265C17.9886 8.00191 19.3775 8.91499 20.6349 8.49357C21.8923 8.07214 22.7111 6.7577 22.3358 5.40814L22.3261 5.39811Z" fill="#FFFF03"/>
<path d="M27.2582 7.52537L27.3167 7.44008L26.9365 7.94679C27.0584 7.78625 27.1948 7.64578 27.3459 7.51534L26.8537 7.90666C27.0389 7.76117 27.2338 7.65079 27.4483 7.55046L26.8683 7.8013C27.1851 7.67086 27.5067 7.58557 27.8479 7.53039L27.1997 7.62069C27.7602 7.54544 28.3206 7.57052 28.8811 7.64076L28.2329 7.55046C28.9542 7.65581 29.6463 7.85147 30.3188 8.14245L29.7389 7.89161C30.0118 8.01703 30.275 8.14747 30.5186 8.32307L30.0264 7.93174C30.1385 8.02205 30.236 8.11235 30.3237 8.22273L29.9436 7.71601C30.0069 7.80632 30.0556 7.88659 30.0995 7.98693L29.8558 7.38991C29.8899 7.48523 29.9143 7.57554 29.9289 7.67588L29.8412 7.00862C29.8461 7.10896 29.8461 7.19927 29.8412 7.29961L29.9289 6.63235C29.9094 6.73269 29.8899 6.823 29.8558 6.91832L30.0995 6.3213C30.0362 6.48185 29.9533 6.62232 29.851 6.75778L30.2311 6.25107C30.1434 6.35642 30.0508 6.44673 29.9436 6.53703L30.4358 6.14571C30.3188 6.231 30.2019 6.29622 30.0703 6.3514L30.6502 6.10056C30.4602 6.17079 30.2701 6.22096 30.0703 6.24605L30.7185 6.15574C30.4309 6.18083 30.1531 6.17079 29.8656 6.13568L30.5138 6.22598C29.7584 6.11561 29.0224 5.88483 28.3158 5.58883L28.8957 5.83968C28.1208 5.49852 27.3946 5.06707 26.7221 4.5453L27.2143 4.93662C27.0584 4.8112 26.9024 4.68076 26.7513 4.5453C26.2542 4.10381 25.7035 3.81283 25.0261 3.81283C24.4266 3.81283 23.7151 4.08374 23.3008 4.5453C22.4625 5.48347 22.2676 7.1792 23.3008 8.09229C24.5826 9.22612 25.9715 10.074 27.5701 10.6409C29.1686 11.2078 31.352 11.569 32.8823 10.4753C33.9351 9.72279 34.6515 8.599 34.7051 7.25446C34.7587 5.90991 34.0179 4.751 32.9652 3.99845C32.317 3.5369 31.5177 3.23086 30.7623 3.00008C29.9094 2.73418 28.9932 2.59873 28.1062 2.56862C27.3264 2.54354 26.4833 2.62883 25.7474 2.89974C24.6021 3.32117 23.7492 3.97337 23.0425 4.99683C22.6965 5.49852 22.6429 6.35642 22.7988 6.92835C22.9548 7.50029 23.3934 8.14245 23.9198 8.42842C24.4851 8.73445 25.1723 8.88998 25.7961 8.67927C26.4199 8.46856 26.8683 8.08727 27.2533 7.52537H27.2582Z" fill="#FFFF03"/>
<path d="M21.5414 7.54553C21.6681 7.4753 21.7997 7.41007 21.9362 7.34987L21.6438 7.47529C21.9654 7.33984 22.3017 7.24953 22.6477 7.19936L22.3261 7.24452C22.6916 7.19435 23.0571 7.19435 23.4227 7.24452L23.101 7.19936C23.3739 7.2395 23.642 7.30472 23.9003 7.40004C24.1878 7.5054 24.5874 7.42513 24.8409 7.27462C25.0943 7.12411 25.3331 6.82309 25.4013 6.52709C25.5573 5.82472 25.1966 5.21767 24.5485 4.98187C23.1643 4.48018 21.5902 4.66079 20.3133 5.37821C19.7528 5.69428 19.5286 6.53713 19.8747 7.09401C20.2207 7.65089 20.942 7.88167 21.5414 7.54553Z" fill="#FFFF03"/>
<path d="M34.2957 17.0972C34.0082 16.0387 33.2674 15.1657 32.3609 14.8045C31.2594 14.368 29.9192 14.7443 29.1882 15.7978C28.4571 16.8514 28.4571 18.5321 29.2564 19.5154C30.0557 20.4987 31.5616 20.5339 32.3755 19.5606C33.6573 18.0254 32.5997 15.7376 31.4739 14.8195" fill="white"/>
<path d="M34.8854 16.9318C34.4468 15.3665 33.1407 14.0571 31.5031 14.0019C29.8656 13.9467 28.501 15.1156 28.1452 16.701C27.7894 18.2863 28.345 20.0824 29.8802 20.7146C31.4154 21.3467 33.0042 20.3634 33.4428 18.8181C33.8815 17.2729 33.0968 15.3765 31.8979 14.3832C31.6396 14.1725 31.2887 14.1273 31.0353 14.3832C30.8208 14.6039 30.777 15.0554 31.0353 15.2712C31.815 15.9184 32.3609 16.9468 32.3463 17.9552C32.3365 18.4268 32.1757 18.9135 31.7955 19.2797C31.6591 19.4152 31.4934 19.5155 31.3228 19.5707C31.2594 19.5908 31.1961 19.6108 31.1327 19.6259C31.1327 19.6259 30.928 19.656 31.0353 19.6459C30.9719 19.651 30.9037 19.656 30.8403 19.656C30.8159 19.656 30.5918 19.6409 30.6746 19.656C30.1824 19.5857 29.8217 19.3349 29.578 18.9235C29.31 18.467 29.2223 17.9602 29.2661 17.3984C29.3392 16.3548 30.08 15.4417 31.1376 15.2812C31.3569 15.2511 31.6786 15.2661 31.9271 15.3364C32.2001 15.4116 32.4291 15.527 32.6777 15.7127C33.165 16.0789 33.5306 16.6609 33.706 17.2779C33.9253 18.0506 35.0999 17.7245 34.8805 16.9468L34.8854 16.9318Z" fill="#5B5B5B"/>
<path d="M10.1322 17.0833C10.4198 16.0247 11.1606 15.1518 12.0671 14.7906C13.1685 14.3541 14.5088 14.7304 15.2398 15.7839C15.9709 16.8375 15.9709 18.5182 15.1716 19.5015C14.3723 20.4848 12.8664 20.5199 12.0525 19.5466C10.7707 18.0115 11.8283 15.7237 12.9541 14.8056" fill="white"/>
<path d="M10.722 17.2538C10.8877 16.6719 11.1898 16.1702 11.6431 15.7738C12.0135 15.4477 12.5106 15.2521 12.9638 15.2421C13.9922 15.222 14.8694 15.9494 15.1082 17.0181C15.2203 17.5248 15.1911 18.0816 15.001 18.5884C14.845 18.9997 14.5039 19.3861 14.1335 19.5265C13.6949 19.6921 13.266 19.667 12.8907 19.4513C12.4813 19.2105 12.2133 18.7589 12.1109 18.2623C12.0086 17.7656 12.1451 17.1234 12.3546 16.6568C12.6129 16.0749 12.9151 15.6534 13.3927 15.2521C13.651 15.0414 13.6071 14.5848 13.3927 14.3641C13.1393 14.1032 12.7884 14.1484 12.5301 14.3641C11.4871 15.232 10.7366 16.7873 10.8779 18.182C10.9608 18.9897 11.3019 19.7673 11.9257 20.2841C12.5496 20.8008 13.305 20.9714 14.075 20.841C15.6589 20.565 16.507 18.8793 16.3802 17.3341C16.2486 15.7086 15.1667 14.2838 13.5487 14.038C11.6772 13.752 10.0591 15.1166 9.55229 16.9227C9.33297 17.7004 10.5075 18.0315 10.7268 17.2538H10.722Z" fill="#5B5B5B"/>
<path d="M18.2682 29.052C20.8659 30.0503 23.7462 29.8848 26.2659 28.7359C26.7191 28.5302 26.8215 27.8529 26.5924 27.4465C26.3195 26.9699 25.7931 26.9047 25.3399 27.1104C23.2588 28.0586 20.861 28.0536 18.7507 27.2358C18.2877 27.0602 17.7468 27.4315 17.6249 27.893C17.4836 28.4198 17.8004 28.8713 18.2634 29.052H18.2682Z" fill="#5B5B5B"/>
</g>
<defs>
<clipPath id="clip0_222_313">
<rect width="43" height="37" fill="white"/>
</clipPath>
</defs>
</svg>
