<svg width="43" height="37" viewBox="0 0 43 37" fill="none" xmlns="http://www.w3.org/2000/svg">
<path d="M40.9698 17.2125C39.9903 12.5757 37.7293 7.75317 34.0697 5.09351C30.5125 2.51414 25.6883 2.30338 22.2334 4.85264C18.3692 1.72628 12.205 2.92062 8.48698 6.33301C4.94438 9.58482 1.68928 15.1852 1.67953 20.4192C1.20199 23.0487 1.54796 25.8238 2.92699 28.348C6.37701 34.6609 14.7146 36.066 21.0932 36.3069C27.8178 36.5578 35.2977 34.977 39.4202 28.9953C41.8225 25.5077 42.2708 21.0715 40.9746 17.2075L40.9698 17.2125Z" fill="#B1FFA6"/>
<path d="M22.2821 4.3007C20.8787 2.41887 18.6128 1.25464 16.3128 1.22955C12.512 1.18438 9.24712 4.0247 6.9666 7.15105C4.2329 10.9047 2.35196 15.3107 1.51869 19.9224C0.626947 24.8503 1.56742 29.2764 5.9238 31.9862C11.0696 35.1879 17.2582 36.051 23.1739 35.6596C28.6315 35.2983 34.1623 34.6861 38.4748 30.7367C40.7163 28.6843 42.3293 25.3823 41.5496 19.6866C40.9941 15.6218 38.9377 10.3025 36.472 7.0808C34.7227 4.79751 32.5786 2.65472 29.8693 1.83675C27.1599 1.01878 23.8025 1.90199 22.4673 4.4663" fill="#C0FFAB"/>
<path d="M23.1398 3.41237C21.8046 1.67105 19.7824 0.446602 17.6529 0.105362C15.5235 -0.235877 13.2137 0.265946 11.2548 1.40508C7.36135 3.66329 4.57893 7.89867 2.73697 11.9835C0.919373 16.0031 -0.469405 20.7202 0.149454 25.1915C0.417464 27.1335 1.16789 28.9401 2.36175 30.4707C3.7018 32.1969 5.59736 33.3611 7.52216 34.2745C11.7957 36.3069 16.5224 37.0746 21.2053 36.9943C23.4273 36.9592 25.6591 36.7685 27.8617 36.4674C30.0642 36.1663 32.2034 35.7047 34.25 34.8465C37.7634 33.3712 40.9259 30.8972 42.2514 27.1285C43.6596 23.1089 42.88 18.4771 41.5692 14.5478C40.1658 10.3275 38.0071 6.23262 34.6935 3.27688C33.0952 1.85171 31.1947 0.692495 29.075 0.386383C27.1356 0.105363 25.0208 0.456638 23.3883 1.6309C22.5794 2.21302 21.9021 2.94066 21.4197 3.8339C20.6546 5.24403 22.7549 6.50862 23.5248 5.0985C24.246 3.77369 25.5909 3.03601 27.0235 2.8403C28.7242 2.60946 30.3469 3.17652 31.7649 4.11493C34.9079 6.19749 37.0666 9.75039 38.4944 13.228C39.9221 16.7057 41.0185 20.7554 40.3997 24.519C40.156 26.0044 39.7028 27.259 38.8598 28.4784C38.6064 28.8447 38.1532 29.3566 37.7196 29.7681C36.9935 30.4506 36.1895 31.0327 35.3416 31.5395C31.9647 33.5468 28.003 34.0587 24.1778 34.3397C20.0358 34.6458 15.8841 34.5053 11.8785 33.2909C8.52598 32.2772 4.66177 30.566 3.17553 27.0583C1.76726 23.7412 2.61514 19.7768 3.6482 16.4798C4.88105 12.5455 6.93741 8.63635 9.81243 5.71574C12.361 3.12633 16.0595 1.36494 19.4608 3.38226C20.2453 3.84896 20.8934 4.46118 21.4489 5.18883C21.8583 5.72076 22.7451 5.63043 23.1739 5.18883C23.6856 4.66191 23.5833 3.94932 23.1739 3.41237H23.1398Z" fill="#5B5B5B"/>
<path d="M22.3212 5.38983C21.6682 3.02625 19.1197 2.37889 17.0146 2.31366C15.1872 2.25846 13.3014 2.76028 11.7177 3.69869C10.826 4.2256 9.92938 4.93317 9.4226 5.87158C8.76476 7.09101 8.73552 8.55633 9.42747 9.77074C10.7773 12.1293 13.701 11.3966 15.772 10.7192C17.6481 10.107 19.4608 9.22375 21.0786 8.06956C21.6097 7.69319 22.0239 7.2265 22.1994 6.56911C22.3602 5.96693 22.2871 5.16903 21.9557 4.6371C21.2833 3.5632 19.7434 2.94094 18.6226 3.73883C18.0915 4.1152 17.5409 4.46648 16.9756 4.78262C16.7125 4.92815 16.4493 5.06866 16.1813 5.19914C16.0449 5.26437 15.9133 5.32961 15.7769 5.39485C15.6843 5.43499 15.5966 5.48016 15.504 5.5203C15.8353 5.37979 15.9133 5.34467 15.7428 5.41492C14.5684 5.8766 13.3648 6.27806 12.1173 6.46875L12.7654 6.37842C12.5802 6.39849 12.4048 6.40351 12.2196 6.38846L12.8677 6.47878C12.6192 6.42358 12.6874 6.46875 13.0724 6.61428C13.243 6.71966 13.3843 6.85515 13.4866 7.02577C13.623 7.18635 13.7156 7.37203 13.7595 7.58279C13.7351 7.50752 13.7156 7.43225 13.7059 7.35697L13.7936 8.0244C13.7839 7.90396 13.7839 7.79356 13.7936 7.6681L13.7059 8.33553C13.7156 8.26025 13.7497 8.17494 13.7546 8.10469C13.5841 8.48106 13.5451 8.58142 13.6377 8.40578C13.6572 8.36564 13.6815 8.32549 13.7059 8.29036C13.8131 8.06956 13.3843 8.62659 13.5792 8.47604C13.662 8.4108 13.7302 8.28033 13.8277 8.24018C13.7644 8.26527 13.3794 8.56135 13.6572 8.38069C13.7546 8.31545 13.8472 8.2452 13.9495 8.18498C14.125 8.06956 14.3053 7.96418 14.4953 7.86381C14.5781 7.81865 14.661 7.7785 14.7438 7.73836C15.0459 7.58279 14.6074 7.77349 14.544 7.81865C14.6951 7.70825 14.9582 7.65807 15.1336 7.60287C15.5576 7.46737 15.9864 7.37203 16.425 7.31181L15.7769 7.40214C16.4737 7.31181 17.1608 7.31683 17.8576 7.41217L17.2095 7.32185C17.5896 7.38206 17.9502 7.49247 18.3254 7.58279C18.5739 7.64301 17.843 7.32686 18.0671 7.46236C18.1305 7.5025 18.2036 7.54265 18.2669 7.57778C18.3693 7.64803 18.3303 7.61792 18.1548 7.48745C18.033 7.41719 17.9404 7.32185 17.8722 7.19639C17.7455 7.01072 17.7163 6.96555 17.7796 7.07595C17.8771 7.24657 17.8284 7.13115 17.6334 6.73471C17.9843 7.99429 19.3731 8.90761 20.6303 8.48608C21.8875 8.06454 22.7061 6.74977 22.3309 5.39987L22.3212 5.38983Z" fill="#FFFF03"/>
<path d="M27.2526 7.51747L27.311 7.43216L26.9309 7.939C27.0528 7.77842 27.1892 7.63791 27.3403 7.50744L26.8481 7.89886C27.0333 7.75333 27.2282 7.64293 27.4426 7.54256L26.8627 7.79348C27.1795 7.663 27.5011 7.57769 27.8422 7.52249L27.1941 7.61282C27.7545 7.53755 28.3148 7.56264 28.8752 7.63289L28.2271 7.54256C28.9483 7.64795 29.6403 7.84366 30.3127 8.13471L29.7329 7.8838C30.0057 8.00926 30.2689 8.13973 30.5125 8.31537L30.0204 7.92395C30.1324 8.01428 30.2299 8.1046 30.3176 8.21501L29.9375 7.70817C30.0009 7.79849 30.0496 7.87878 30.0935 7.97915L29.8498 7.38198C29.8839 7.47733 29.9083 7.56765 29.9229 7.66802L29.8352 7.0006C29.8401 7.10096 29.8401 7.19129 29.8352 7.29165L29.9229 6.62423C29.9034 6.72459 29.8839 6.81492 29.8498 6.91027L30.0935 6.3131C30.0301 6.47368 29.9473 6.61419 29.8449 6.74968L30.225 6.24284C30.1373 6.34823 30.0447 6.43855 29.9375 6.52888L30.4297 6.13746C30.3127 6.22277 30.1958 6.28801 30.0642 6.34321L30.6441 6.0923C30.4541 6.16255 30.264 6.21273 30.0642 6.23783L30.7123 6.1475C30.4248 6.17259 30.1471 6.16255 29.8596 6.12742L30.5077 6.21775C29.7524 6.10735 29.0165 5.87651 28.31 5.58044L28.8899 5.83135C28.1151 5.49011 27.389 5.05854 26.7165 4.53665L27.2087 4.92807C27.0528 4.80261 26.8968 4.67214 26.7458 4.53665C26.2487 4.09504 25.6981 3.80399 25.0208 3.80399C24.4214 3.80399 23.71 4.07497 23.2958 4.53665C22.4576 5.47505 22.2627 7.17121 23.2958 8.08453C24.5773 9.21865 25.9661 10.0667 27.5644 10.6338C29.1627 11.2009 31.3458 11.5622 32.8759 10.4682C33.9284 9.71545 34.6448 8.59137 34.6984 7.24649C34.752 5.9016 34.0113 4.74239 32.9587 3.98966C32.3106 3.52798 31.5115 3.22187 30.7562 2.99103C29.9034 2.72507 28.9873 2.58958 28.1004 2.55947C27.3208 2.53437 26.4778 2.61968 25.742 2.89067C24.5968 3.3122 23.7441 3.96457 23.0375 4.98829C22.6915 5.49011 22.6379 6.34823 22.7938 6.9203C22.9498 7.49238 23.3883 8.13471 23.9146 8.42075C24.4799 8.72686 25.167 8.88243 25.7907 8.67166C26.4144 8.4609 26.8627 8.07951 27.2477 7.51747H27.2526Z" fill="#FFFF03"/>
<path d="M21.5366 7.53762C21.6632 7.46736 21.7948 7.40213 21.9313 7.34191L21.6389 7.46736C21.9605 7.33187 22.2967 7.24154 22.6427 7.19136L22.3211 7.23652C22.6866 7.18634 23.052 7.18634 23.4175 7.23652L23.0959 7.19136C23.3688 7.23151 23.6368 7.29674 23.895 7.39209C24.1825 7.49747 24.5821 7.41718 24.8355 7.26663C25.0889 7.11609 25.3277 6.81499 25.3959 6.51892C25.5518 5.81637 25.1912 5.20916 24.5431 4.9733C23.1592 4.47148 21.5853 4.65214 20.3086 5.36974C19.7482 5.68589 19.524 6.52895 19.87 7.08598C20.216 7.643 20.9372 7.87384 21.5366 7.53762Z" fill="#FFFF03"/>
<path d="M13.3306 18.0153C13.3549 17.5686 13.8227 17.2073 14.232 17.4131C14.7924 17.6891 14.6657 18.3314 14.3636 18.763C13.7009 19.7215 12.2536 19.7767 11.5568 18.8232C10.9769 18.0253 11.1426 16.8009 11.7566 16.0732C12.4632 15.2402 13.6424 14.9441 14.6755 15.1047C17.0973 15.476 17.2094 18.4669 15.8888 20.1079C15.2164 20.9459 14.271 21.528 13.2331 21.7137C12.1952 21.8994 10.9039 21.6133 10.2314 20.69C9.49558 19.6713 9.39325 18.1909 9.65639 16.9915C9.93414 15.7219 10.6066 14.6229 11.6007 13.82C11.8589 13.6093 11.8102 13.1526 11.6007 12.9318C11.3473 12.6658 10.9964 12.7261 10.7382 12.9318C9.53456 13.9053 8.70617 15.3656 8.42841 16.9113C8.15066 18.4569 8.36507 20.409 9.45173 21.6836C10.5384 22.9582 12.4339 23.2643 13.9738 22.8227C15.4259 22.4062 16.7318 21.3524 17.4238 19.9674C18.1158 18.5823 18.1937 16.9062 17.4335 15.5563C16.5905 14.0559 14.8217 13.6243 13.2526 13.8953C11.6835 14.1663 10.3288 15.3205 10.0462 16.9514C9.76359 18.5823 10.5871 20.2634 12.2195 20.6799C13.1259 20.9108 14.0664 20.69 14.7924 20.0928C15.5185 19.4956 16.0399 18.497 15.7914 17.5536C15.5575 16.6804 14.7193 16.028 13.8325 16.1033C12.8628 16.1836 12.1611 17.0467 12.1075 18.0153C12.0587 18.8232 13.277 18.8182 13.3257 18.0153H13.3306Z" fill="#5B5B5B"/>
<path d="M32.0376 17.1523C31.8719 17.5588 31.5454 17.9753 31.063 17.8749C30.6245 17.7846 30.5124 17.3781 30.6829 16.9967C31.0728 16.1336 32.1789 16.1687 32.8416 16.6505C33.6213 17.2125 33.7529 18.3266 33.3338 19.1646C32.8758 20.088 31.7988 20.5346 30.8243 20.3941C29.8497 20.2536 28.9336 19.4707 28.495 18.5323C28.0272 17.5236 28.2319 16.3945 28.8848 15.5264C30.1567 13.8302 32.8173 13.5542 34.401 14.9443C35.2391 15.6769 35.7654 16.791 35.7897 17.9251C35.8044 18.5975 35.6289 19.2449 35.3512 19.8521C35.2001 20.1883 35.0247 20.5145 34.8395 20.8307C34.7226 21.0364 34.5764 21.3325 34.3474 21.4278C34.0404 21.5533 33.8308 21.8443 33.9234 22.2006C34.0014 22.5017 34.3669 22.7627 34.6739 22.6372C35.4389 22.3211 35.8239 21.6286 36.1942 20.9109C36.5938 20.1381 36.9056 19.3202 36.9836 18.447C37.1249 16.9315 36.5304 15.3558 35.4876 14.2819C33.2558 11.9835 29.1675 12.4552 27.574 15.3006C26.7505 16.7709 26.8723 18.5122 27.8567 19.8672C28.841 21.2221 30.298 21.8795 31.8573 21.6185C33.4166 21.3576 34.5861 20.108 34.7567 18.5122C34.9175 16.9967 34.0014 15.5665 32.5639 15.1701C31.1264 14.7737 29.1967 15.7823 29.3819 17.5538C29.4745 18.452 30.2103 19.0843 31.063 19.1496C31.9158 19.2148 32.7442 18.6126 33.0755 17.7997C33.2022 17.4835 33.1632 17.1322 32.8563 16.9415C32.6029 16.786 32.1497 16.8562 32.023 17.1674L32.0376 17.1523Z" fill="#5B5B5B"/>
<path d="M31.9842 27.7256C30.3518 27.1536 28.656 26.5715 26.9066 26.6216C25.1573 26.6718 23.7344 27.545 22.0825 27.6454C20.5524 27.7407 19.0954 27.0331 17.5994 26.8173C16.9464 26.727 16.2691 26.712 15.6259 26.8976C15.2653 27.003 14.9339 27.1686 14.6074 27.3543C14.2663 27.545 13.9009 27.836 13.4964 27.7206C12.7411 27.5048 12.4146 28.7193 13.1748 28.93C13.935 29.1408 14.51 28.8447 15.1386 28.4884C15.8208 28.097 16.4689 27.9464 17.2485 28.0267C18.7494 28.1823 20.1528 28.8648 21.6731 28.9049C23.3348 28.9451 24.821 28.0769 26.4486 27.9013C28.2369 27.7056 29.9912 28.3429 31.6577 28.93C32.4033 29.191 32.72 27.9816 31.9793 27.7206L31.9842 27.7256Z" fill="#5B5B5B"/>
</svg>
