<svg width="42" height="36" viewBox="0 0 42 36" fill="none" xmlns="http://www.w3.org/2000/svg">
<path fill-rule="evenodd" clip-rule="evenodd" d="M16.7562 6.99382C14.7409 5.78487 12.4733 5.0584 10.1307 4.87119C7.78802 4.68398 5.43381 5.0411 3.25208 5.91465C2.93699 6.04007 2.66687 6.25731 2.47677 6.53816C2.28668 6.81901 2.18538 7.15051 2.18604 7.48965V24.4938C2.18604 25.6313 3.33666 26.4101 4.39395 25.9872C6.18065 25.2728 8.10832 24.9811 10.0264 25.1349C11.9445 25.2887 13.801 25.8838 15.451 26.8738L17.1062 27.8655C17.2331 27.9428 17.3687 27.9749 17.4985 27.9734C17.6372 27.9761 17.7738 27.9392 17.8923 27.8669L19.546 26.8738C21.1961 25.8838 23.0526 25.2887 24.9707 25.1349C26.8888 24.9811 28.8164 25.2728 30.6031 25.9872C30.8474 26.0849 31.1119 26.1212 31.3735 26.093C31.6351 26.0648 31.8858 25.973 32.1036 25.8255C32.3215 25.678 32.4999 25.4794 32.6232 25.2469C32.7465 25.0145 32.811 24.7555 32.811 24.4924V7.48965C32.811 6.79548 32.3881 6.17278 31.745 5.91465C29.5632 5.04177 27.2092 4.68526 24.8668 4.87297C22.5244 5.06069 20.2572 5.78754 18.2423 6.99673L17.4985 7.44298L16.7562 6.99382ZM18.5937 10.4792C18.5937 10.1892 18.4785 9.91095 18.2734 9.70584C18.0683 9.50072 17.7901 9.38548 17.5 9.38548C17.2099 9.38548 16.9317 9.50072 16.7266 9.70584C16.5215 9.91095 16.4062 10.1892 16.4062 10.4792V24.3334C16.4062 24.6235 16.5215 24.9017 16.7266 25.1068C16.9317 25.3119 17.2099 25.4272 17.5 25.4272C17.7901 25.4272 18.0683 25.3119 18.2734 25.1068C18.4785 24.9017 18.5937 24.6235 18.5937 24.3334V10.4792Z" fill="white"/>
<path d="M3.97397 28.7696C5.42362 27.9241 7.07177 27.4785 8.75001 27.4785C10.4282 27.4785 12.0764 27.9241 13.526 28.7696L15.1113 29.6942C15.8363 30.1173 16.6606 30.3402 17.5 30.3402C18.3394 30.3402 19.1638 30.1173 19.8888 29.6942L21.474 28.7696C22.9236 27.9241 24.5718 27.4785 26.25 27.4785C27.9282 27.4785 29.5764 27.9241 31.026 28.7696L31.1763 28.8571C31.3004 28.9295 31.409 29.0257 31.4959 29.14C31.5829 29.2544 31.6465 29.3848 31.683 29.5237C31.7196 29.6627 31.7284 29.8074 31.709 29.9498C31.6896 30.0922 31.6424 30.2293 31.57 30.3534C31.4976 30.4775 31.4015 30.5861 31.2871 30.6731C31.1727 30.76 31.0424 30.8236 30.9034 30.8602C30.7645 30.8967 30.6197 30.9056 30.4774 30.8862C30.335 30.8668 30.1979 30.8195 30.0738 30.7471L29.9235 30.6596C28.8085 30.0093 27.5408 29.6667 26.25 29.6667C24.9592 29.6667 23.6915 30.0093 22.5765 30.6596L20.9898 31.5842C19.9305 32.202 18.7263 32.5275 17.5 32.5275C16.2738 32.5275 15.0695 32.202 14.0102 31.5842L12.4235 30.6596C11.3085 30.0093 10.0408 29.6667 8.75001 29.6667C7.45919 29.6667 6.1915 30.0093 5.07647 30.6596L4.92626 30.7471C4.67563 30.8933 4.37719 30.934 4.09658 30.8602C3.81598 30.7863 3.57621 30.604 3.43001 30.3534C3.28381 30.1028 3.24316 29.8043 3.317 29.5237C3.39084 29.2431 3.57313 29.0033 3.82376 28.8571L3.97397 28.7696Z" fill="white"/>
<g clip-path="url(#clip0_478_232)">
<path d="M40.6367 11.5966C40.6368 11.5966 40.6368 11.5966 40.6368 11.5966L40.6367 11.5966ZM40.6367 11.5966L40.9008 11.861L41.1648 12.1254L41.3427 12.3035L40.9008 11.8616L40.9005 11.8613L40.9002 11.861L40.6362 11.5971L40.6367 11.5966ZM41.3924 6.45907L41.2144 6.6371L41.2144 6.63705L40.6853 7.16618L40.5073 7.34425L30.5167 17.3361L30.5151 17.3377C30.227 17.6271 29.8618 17.8276 29.4629 17.9153L29.4606 17.9158L25.1186 18.8813L26.0905 14.5093L26.0907 14.5083C26.1746 14.1289 26.3664 13.7796 26.6414 13.5046L38.3741 1.77194C38.8866 1.27318 39.5748 0.995881 40.2901 1.00005C41.0071 1.00422 41.6937 1.29094 42.2007 1.79801C42.7078 2.30507 42.9945 2.99161 42.9987 3.7087C43.0029 4.42398 42.7256 5.11214 42.2268 5.62467L41.3924 6.45907Z" fill="white" stroke="#9FC1CB" stroke-width="2"/>
</g>
<defs>
<clipPath id="clip0_478_232">
<rect width="20" height="20" fill="white" transform="translate(22)"/>
</clipPath>
</defs>
</svg>
