<svg width="26" height="28" viewBox="0 0 26 28" fill="none" xmlns="http://www.w3.org/2000/svg">
<path fill-rule="evenodd" clip-rule="evenodd" d="M11.75 0.5C10.0924 0.5 8.50268 1.15848 7.33058 2.33058C6.15848 3.50269 5.5 5.0924 5.5 6.75C5.5 8.4076 6.15848 9.99732 7.33058 11.1694C8.50268 12.3415 10.0924 13 11.75 13C13.4076 13 14.9973 12.3415 16.1694 11.1694C17.3415 9.99732 18 8.4076 18 6.75C18 5.0924 17.3415 3.50269 16.1694 2.33058C14.9973 1.15848 13.4076 0.5 11.75 0.5ZM11.75 14.25C8.75625 14.25 6.03125 15.1175 4.0275 16.34C3.0275 16.95 2.1725 17.67 1.555 18.4525C0.9475 19.22 0.5 20.1413 0.5 21.125C0.5 22.1812 1.01375 23.0138 1.75375 23.6075C2.45375 24.17 3.3775 24.5425 4.35875 24.8025C6.33125 25.3237 8.96375 25.5 11.75 25.5C12.0383 25.5 12.3238 25.4979 12.6063 25.4938C12.8156 25.4909 13.0209 25.4355 13.2032 25.3326C13.3856 25.2297 13.5392 25.0827 13.6499 24.905C13.7607 24.7273 13.825 24.5247 13.837 24.3157C13.849 24.1067 13.8084 23.898 13.7188 23.7087C13.2448 22.7055 12.9993 21.6096 13 20.5C13 18.935 13.4787 17.485 14.2962 16.2837C14.4178 16.1052 14.491 15.8983 14.5087 15.6831C14.5264 15.4679 14.4881 15.2517 14.3975 15.0557C14.3069 14.8597 14.167 14.6905 13.9915 14.5647C13.816 14.4388 13.611 14.3605 13.3963 14.3375C12.8579 14.2792 12.3092 14.25 11.75 14.25ZM21.58 15.4963C21.47 15.3074 21.3123 15.1507 21.1228 15.0418C20.9333 14.9329 20.7186 14.8756 20.5 14.8756C20.2814 14.8756 20.0667 14.9329 19.8772 15.0418C19.6877 15.1507 19.53 15.3074 19.42 15.4963L18.2825 17.4487L16.075 17.9263C15.8613 17.9725 15.6634 18.074 15.5011 18.2206C15.3389 18.3672 15.218 18.5539 15.1504 18.7618C15.0829 18.9698 15.071 19.1919 15.1162 19.4059C15.1613 19.6198 15.2617 19.8182 15.4075 19.9812L16.9125 21.6663L16.685 23.9138C16.663 24.1312 16.6983 24.3507 16.7876 24.5503C16.8769 24.7498 17.0169 24.9225 17.1938 25.051C17.3706 25.1795 17.578 25.2594 17.7954 25.2827C18.0128 25.306 18.2324 25.2719 18.4325 25.1838L20.5 24.2712L22.5675 25.1838C22.7676 25.2719 22.9872 25.306 23.2046 25.2827C23.422 25.2594 23.6294 25.1795 23.8062 25.051C23.9831 24.9225 24.1231 24.7498 24.2124 24.5503C24.3017 24.3507 24.337 24.1312 24.315 23.9138L24.0875 21.665L25.5925 19.9812C25.7383 19.8182 25.8387 19.6198 25.8838 19.4059C25.929 19.1919 25.9171 18.9698 25.8496 18.7618C25.782 18.5539 25.6611 18.3672 25.4989 18.2206C25.3366 18.074 25.1387 17.9725 24.925 17.9263L22.7175 17.4487L21.58 15.4963Z" fill="white"/>
</svg>
