<svg width="72" height="72" viewBox="0 0 72 72" fill="none" xmlns="http://www.w3.org/2000/svg">
<path d="M63 6H9C8.20435 6 7.44129 6.31607 6.87868 6.87868C6.31607 7.44129 6 8.20435 6 9V63C6 63.7956 6.31607 64.5587 6.87868 65.1213C7.44129 65.6839 8.20435 66 9 66H63C63.7956 66 64.5587 65.6839 65.1213 65.1213C65.6839 64.5587 66 63.7956 66 63V9C66 8.20435 65.6839 7.44129 65.1213 6.87868C64.5587 6.31607 63.7956 6 63 6Z" fill="url(#paint0_linear_213_440)"/>
<path d="M6 36H25.5H6ZM46.5 36H66H46.5Z" fill="url(#paint1_linear_213_440)"/>
<path d="M6 36H25.5M46.5 36H66M63 6H9C8.20435 6 7.44129 6.31607 6.87868 6.87868C6.31607 7.44129 6 8.20435 6 9V63C6 63.7956 6.31607 64.5587 6.87868 65.1213C7.44129 65.6839 8.20435 66 9 66H63C63.7956 66 64.5587 65.6839 65.1213 65.1213C65.6839 64.5587 66 63.7956 66 63V9C66 8.20435 65.6839 7.44129 65.1213 6.87868C64.5587 6.31607 63.7956 6 63 6Z" stroke="#5B5B5B" stroke-width="2" stroke-linecap="round" stroke-linejoin="round"/>
<path d="M36 46.5C37.3789 46.5 38.7443 46.2284 40.0182 45.7007C41.2921 45.1731 42.4496 44.3996 43.4246 43.4246C44.3996 42.4496 45.1731 41.2921 45.7007 40.0182C46.2284 38.7443 46.5 37.3789 46.5 36C46.5 34.6211 46.2284 33.2557 45.7007 31.9818C45.1731 30.7079 44.3996 29.5504 43.4246 28.5754C42.4496 27.6004 41.2921 26.8269 40.0182 26.2993C38.7443 25.7716 37.3789 25.5 36 25.5C33.2152 25.5 30.5445 26.6062 28.5754 28.5754C26.6062 30.5445 25.5 33.2152 25.5 36C25.5 38.7848 26.6062 41.4555 28.5754 43.4246C30.5445 45.3938 33.2152 46.5 36 46.5Z" fill="url(#paint2_linear_213_440)" stroke="#CACACA" stroke-width="2" stroke-linejoin="round"/>
<path d="M33.5231 41.9305C29.215 49.1024 34.5762 55.5561 36.0247 48.337C36.6928 53.9578 43.3935 51.3345 38.7684 41.6304" fill="white"/>
<path d="M32.9711 41.6135C31.5839 43.9468 30.7557 46.8938 31.5191 49.5744C31.7577 50.4072 32.1735 51.2535 32.8961 51.7728C33.5198 52.2213 34.3446 52.2415 34.9751 51.7964C36.0079 51.0647 36.3998 49.6755 36.6418 48.5089L35.3876 48.3403C35.5137 49.3485 35.7931 50.3802 36.5191 51.1355C37.0678 51.7121 37.862 52.0088 38.6527 51.8436C40.6908 51.4188 41.1169 48.7651 41.0078 47.0826C40.8783 45.0662 40.183 43.1308 39.3207 41.3134C39.1742 41.0032 38.7243 40.9256 38.4448 41.0875C38.1244 41.2729 38.0699 41.6404 38.2164 41.954C38.8913 43.3769 39.4639 44.9381 39.6684 46.4723C39.7433 47.0354 39.7672 47.612 39.7263 48.1818C39.7024 48.4752 39.7058 48.4853 39.6411 48.7854C39.5968 48.9944 39.5423 49.2001 39.4707 49.399C39.4536 49.4462 39.4366 49.4934 39.4196 49.5373C39.3616 49.6924 39.4775 49.4159 39.4093 49.5643C39.3684 49.6486 39.3309 49.7295 39.2866 49.8104C39.2457 49.8846 39.198 49.9588 39.1503 50.0329C39.1264 50.0667 39.1026 50.1004 39.0787 50.1341C39.014 50.2251 39.1742 50.0363 39.0515 50.1611C38.956 50.2622 38.8606 50.3566 38.7515 50.4477C38.9117 50.3162 38.7243 50.4612 38.68 50.4881C38.6254 50.5219 38.3834 50.6163 38.5913 50.5455C38.4789 50.5859 38.363 50.6062 38.2505 50.6399C38.455 50.5826 38.2778 50.6331 38.1994 50.6331C38.1687 50.6331 38.1346 50.6298 38.104 50.6331C37.9472 50.6399 38.2028 50.6702 38.1176 50.6365C38.0631 50.6163 37.9881 50.6062 37.9301 50.5927C37.8995 50.5859 37.8688 50.5691 37.8381 50.5623C37.7188 50.5252 37.9778 50.6331 37.8688 50.5758C37.8177 50.5488 37.7665 50.5252 37.7188 50.4949C37.6881 50.478 37.6609 50.4578 37.6302 50.4376C37.4836 50.3533 37.695 50.5016 37.6166 50.4274C37.5518 50.3668 37.4836 50.3128 37.4223 50.2487C37.395 50.2218 37.3712 50.188 37.3439 50.1611C37.2212 50.0329 37.378 50.2184 37.3166 50.1307C37.2042 49.9722 37.1053 49.807 37.0201 49.6317C36.9997 49.5879 36.9792 49.544 36.9588 49.5002C37.0269 49.6519 36.9383 49.4462 36.9281 49.4193C36.8838 49.3013 36.8463 49.1832 36.8122 49.0619C36.7747 48.9337 36.744 48.8022 36.7202 48.6707C36.71 48.61 36.6997 48.5527 36.6861 48.492C36.6793 48.4515 36.6725 48.4111 36.6657 48.3706C36.6725 48.4347 36.6725 48.4279 36.6657 48.3504C36.6282 48.0368 36.4509 47.7704 36.1101 47.73C35.8136 47.6963 35.4728 47.8716 35.408 48.1818C35.2989 48.7112 35.1558 49.2776 34.9513 49.7564C34.8729 49.9385 34.7809 50.1172 34.6752 50.2858C34.6548 50.3195 34.5014 50.5353 34.5662 50.4544C34.5116 50.5252 34.4503 50.5927 34.3855 50.6534C34.3446 50.6904 34.2151 50.795 34.331 50.7141C34.2764 50.7545 34.2151 50.7849 34.1606 50.822C34.0515 50.8995 34.2594 50.8118 34.1026 50.8489C34.0345 50.8658 33.8504 50.8725 34.0413 50.8725C33.9833 50.8725 33.9254 50.8725 33.8675 50.8725C33.7857 50.8725 34.0242 50.9197 33.9049 50.8725C33.8879 50.8658 33.847 50.8557 33.83 50.8523C33.8061 50.8523 33.7754 50.8321 33.755 50.8287C33.8981 50.8725 33.8334 50.8658 33.7959 50.8456C33.7277 50.8085 33.663 50.768 33.5948 50.7275C33.5232 50.6837 33.6834 50.8017 33.6186 50.7478C33.588 50.7242 33.5607 50.6972 33.53 50.6736C33.4823 50.6298 33.438 50.5859 33.3937 50.5387C33.3698 50.5151 33.3494 50.4881 33.3289 50.4645C33.2199 50.3432 33.3767 50.5353 33.3153 50.451C33.254 50.3668 33.1994 50.2858 33.1483 50.2015C32.9404 49.8542 32.8654 49.6587 32.7495 49.2507C32.4837 48.3234 32.4598 47.349 32.5825 46.3711C32.7666 44.9145 33.3221 43.5253 34.072 42.2676C34.4912 41.5663 33.3869 40.929 32.9677 41.6303L32.9711 41.6135Z" fill="#5B5B5B"/>
<path d="M33.1484 28.6692C31.8124 26.1808 30.7149 22.7112 32.385 20.1958C34.0107 18.4728 35.4047 20.7994 36.0557 22.1616C36.4136 21.8042 36.5874 21.059 36.8703 20.5971C37.5587 19.4709 39.1368 19.2146 39.8661 20.4453C40.9159 23.018 39.5526 26.3899 38.5676 28.8142" fill="white"/>
<path d="M33.7005 28.3522C32.6644 26.4033 31.7441 23.9688 32.3678 21.7535C32.5587 21.0758 33.1006 19.7979 33.997 20.3711C34.7161 20.833 35.149 21.7434 35.5069 22.4852C35.6807 22.8426 36.2499 22.8999 36.5089 22.6133C37.1326 21.9255 37.1701 20.6678 38.1483 20.3306C38.4653 20.2227 38.8095 20.2564 39.0719 20.4689C39.44 20.7689 39.5184 21.3759 39.573 21.8176C39.8593 24.1576 38.8197 26.5314 37.9608 28.6523C37.8313 28.9726 38.104 29.3435 38.4073 29.4312C38.772 29.5324 39.0651 29.3064 39.1946 28.9895C40.2171 26.4707 41.4475 23.517 40.6602 20.7689C40.3126 19.5517 39.2015 18.7492 37.9097 19.0864C37.3167 19.2415 36.8088 19.6225 36.451 20.1081C36.0931 20.5936 36.0181 21.2747 35.6125 21.7232L36.6146 21.8513C35.9329 20.4318 34.4742 18.149 32.586 19.2348C31.618 19.7911 31.1749 20.9949 31.0079 22.0368C30.8273 23.1562 30.9227 24.2925 31.1852 25.3917C31.4851 26.6494 31.9997 27.8532 32.603 28.9929C32.9847 29.7144 34.089 29.0738 33.7073 28.3556L33.7005 28.3522Z" fill="#5B5B5B"/>
<path d="M29.8558 33.1808C27.7222 31.1037 21.4953 30.0989 20.1899 33.3291C20.3671 34.4755 21.9009 34.9813 22.8893 34.5329C17.2792 33.3628 18.5607 41.172 29.6479 37.0955" fill="white"/>
<path d="M30.3092 32.7321C28.8061 31.2957 26.468 30.6652 24.4265 30.6214C23.3699 30.5978 22.2758 30.7596 21.3283 31.2418C20.5069 31.6599 19.2936 32.7186 19.6344 33.7369C20.1184 35.1801 21.9077 35.6218 23.2131 35.0756C23.7175 34.8631 23.5676 34.0235 23.0597 33.919C22.0816 33.7201 20.9875 33.6729 20.0843 34.1719C19.4299 34.5394 18.9834 35.2138 19.0005 35.9691C19.0516 38.117 21.8191 38.8352 23.5369 38.906C25.6773 38.9936 27.8279 38.4272 29.8184 37.7022C30.5852 37.4224 30.2512 36.2018 29.4775 36.4816C27.8586 37.0717 26.1579 37.5539 24.4265 37.6348C23.8471 37.6618 23.2097 37.6449 22.6882 37.5572C22.4394 37.5134 22.194 37.4594 21.952 37.3853C21.6964 37.3077 21.5942 37.2706 21.4272 37.1897C21.2499 37.1054 21.0829 37.0076 20.9227 36.8997C20.7728 36.7986 20.9534 36.9402 20.8205 36.8255C20.7523 36.7648 20.6842 36.7075 20.6228 36.6401C20.5887 36.603 20.4217 36.3906 20.5308 36.5457C20.4933 36.4917 20.4558 36.4378 20.4217 36.3805C20.3876 36.3231 20.3604 36.2692 20.3331 36.2152C20.2718 36.0972 20.3808 36.3569 20.3433 36.2321C20.3331 36.1984 20.3195 36.1647 20.3093 36.1309C20.2956 36.0669 20.2752 35.8443 20.2854 36.0635C20.2854 36.0096 20.2786 35.9522 20.2786 35.8983C20.2786 35.8308 20.3229 35.669 20.2718 35.8713C20.2888 35.8106 20.3024 35.7466 20.3195 35.6825C20.3536 35.5375 20.2377 35.7836 20.3399 35.6387C20.374 35.5881 20.4047 35.5341 20.4388 35.4835C20.3024 35.6892 20.7285 35.2509 20.5376 35.3858C20.6024 35.3419 20.6671 35.2981 20.7319 35.261C20.766 35.2408 20.8035 35.2239 20.8409 35.2037C21.0011 35.1228 20.7762 35.2205 20.8853 35.1868C21.0659 35.1261 21.2465 35.0789 21.434 35.052C21.2806 35.0756 21.584 35.0418 21.6351 35.0418C21.751 35.0385 21.8668 35.0385 21.9827 35.0418C22.3167 35.0553 22.3951 35.0688 22.7223 35.1363L22.5689 33.9797C21.8907 34.2629 20.95 33.8853 20.8069 33.1536V33.4908C21.4272 32.0207 23.4006 31.8049 24.8116 31.8959C26.3999 31.9971 28.2506 32.5163 29.406 33.6189C29.999 34.1854 30.9022 33.2919 30.3092 32.7254V32.7321Z" fill="#5B5B5B"/>
<path d="M42.1019 33.1707C44.2457 31.0835 50.5067 30.072 51.8189 33.3224C51.6417 34.4756 50.0978 34.9814 49.1059 34.5296C54.2831 33.2584 54.2525 40.9934 42.0542 37.2607" fill="white"/>
<path d="M42.5517 33.6191C43.7139 32.5098 45.5782 31.9871 47.1733 31.886C48.5912 31.7949 50.5782 32.0141 51.2019 33.491V33.1538C51.0622 33.8889 50.1078 34.2699 49.4262 33.9833L49.2728 35.1398C49.3921 35.1128 49.508 35.0892 49.6273 35.0656C49.6443 35.0623 49.8386 35.0353 49.6852 35.0555C49.7397 35.0488 49.7943 35.042 49.8488 35.0387C50.0533 35.0218 50.2578 35.0218 50.4623 35.0319C50.51 35.0319 50.5577 35.0387 50.602 35.0454C50.4248 35.0252 50.5782 35.042 50.6123 35.0488C50.6838 35.0623 50.7554 35.0757 50.827 35.096C50.9088 35.1162 50.9872 35.1432 51.0656 35.1702C51.1065 35.1836 51.2292 35.2443 51.0588 35.1668C51.0996 35.187 51.1406 35.2039 51.178 35.2241C51.236 35.2578 51.2939 35.2915 51.3519 35.3253C51.5257 35.4264 51.3144 35.2713 51.4166 35.3758C51.4609 35.4197 51.5018 35.4635 51.5495 35.504C51.6757 35.6186 51.5121 35.3994 51.5973 35.568C51.6245 35.622 51.6586 35.6793 51.6893 35.7332C51.7063 35.7636 51.662 35.6051 51.6893 35.7535C51.6995 35.8108 51.7165 35.8749 51.7302 35.9322C51.6757 35.713 51.72 35.9356 51.7234 36.0097C51.7234 36.0772 51.6722 36.239 51.7268 36.03C51.7097 36.094 51.6961 36.1547 51.6825 36.2188C51.6757 36.2525 51.6586 36.2829 51.6484 36.3132C51.6109 36.4346 51.72 36.175 51.6586 36.2862C51.6245 36.3503 51.5904 36.411 51.553 36.4717C51.5325 36.502 51.5121 36.5324 51.4882 36.5627C51.4098 36.674 51.587 36.4515 51.4916 36.556C51.4473 36.6066 51.403 36.6571 51.3553 36.7043C51.2939 36.765 51.2292 36.819 51.161 36.8729C51.2939 36.765 51.0349 36.9572 50.9872 36.9876C50.5782 37.2405 50.3771 37.3079 49.8931 37.436C49.3069 37.5878 48.8195 37.6383 48.2026 37.6552C46.1679 37.7091 44.1467 37.2405 42.2108 36.6538C41.4235 36.4144 41.0861 37.635 41.87 37.8744C43.84 38.4712 45.9088 38.9365 47.9811 38.923C49.2081 38.9129 50.5441 38.7409 51.6109 38.0935C52.3335 37.6552 52.9265 36.9673 52.9947 36.1042C53.0526 35.3421 52.6334 34.661 52.0097 34.2429C51.1167 33.6461 49.9306 33.6832 48.9252 33.9259C48.4344 34.044 48.2537 34.8633 48.7718 35.0825C49.9272 35.568 51.4064 35.3017 52.1324 34.2193C52.296 33.9731 52.4493 33.6292 52.4493 33.3258C52.4493 33.0459 52.2482 32.7289 52.0949 32.4997C51.812 32.0748 51.4507 31.7275 51.0281 31.4443C49.2319 30.2473 46.6348 30.4732 44.6716 31.0801C43.5707 31.4207 42.4767 31.9298 41.6382 32.7289C41.0452 33.2954 41.9484 34.1889 42.5414 33.6225L42.5517 33.6191Z" fill="#5B5B5B"/>
<path d="M29.866 38.4172C27.4563 37.6585 20.0945 41.4282 22.879 44.2538C23.6629 44.6146 26.7099 43.6907 26.4407 42.7331C24.7127 43.9639 23.6527 47.1907 26.7815 47.1941C29.2491 46.7692 31.3077 43.303 33.4311 42.1296" fill="white"/>
<path d="M30.0364 37.8069C28.9799 37.4933 27.7529 37.7968 26.7474 38.1441C25.4932 38.5791 24.3003 39.213 23.2778 40.0593C22.436 40.7573 21.6146 41.752 21.6214 42.8984C21.6248 43.4817 21.8566 44.0145 22.2212 44.4629C22.6643 45.0092 23.3017 45.0024 23.9526 44.9114C25.0672 44.7563 27.3916 44.0853 27.0542 42.5646C26.9724 42.1937 26.4407 41.9509 26.1169 42.1869C24.7775 43.1648 23.2983 45.5048 24.6445 47.039C25.3569 47.8516 26.6554 47.9865 27.62 47.6122C28.8163 47.1503 29.7842 46.2702 30.684 45.3902C31.6486 44.4461 32.562 43.3502 33.7515 42.6759C34.4638 42.2712 33.823 41.1788 33.1073 41.5834C31.2396 42.6421 30.0467 44.5304 28.3289 45.7779C27.637 46.2837 26.7577 46.8064 25.8886 46.4152C25.667 46.3141 25.5307 46.1488 25.4796 46.0005C25.3944 45.7645 25.4046 45.4981 25.4693 45.225C25.6466 44.4764 26.1408 43.7346 26.7645 43.2794L25.8272 42.9018C25.8204 42.8782 25.817 42.804 25.8374 42.7871C25.7488 42.8647 25.8511 42.8175 25.725 42.922C25.5988 43.0265 25.3875 43.1547 25.1933 43.2491C24.7366 43.4716 24.2049 43.6267 23.7004 43.6874C23.5846 43.7009 23.2778 43.7076 23.2233 43.7009C23.3119 43.7144 23.1415 43.6874 23.1415 43.6807L23.1176 43.6739C23.029 43.6436 23.0835 43.6739 23.2778 43.7515C23.2608 43.7616 23.121 43.5559 23.1006 43.5256C22.9745 43.3266 22.9745 43.3131 22.9199 43.1041C22.8893 42.9793 22.8961 43.0973 22.8995 42.9355C22.8995 42.8782 22.9233 42.6388 22.9063 42.7365C23.0426 41.9779 23.6834 41.3372 24.3446 40.8281C25.149 40.2077 26.0862 39.7221 27.044 39.3849C27.5313 39.213 28.1005 39.0545 28.5743 38.9904C28.7379 38.9668 29.0071 38.95 29.2116 38.9567C29.4809 38.9635 29.4366 38.9567 29.6956 39.0309C30.4863 39.2669 30.8238 38.0463 30.0364 37.8103V37.8069Z" fill="#5B5B5B"/>
<path d="M39.5317 29.2356C39.7805 26.8584 41.9073 23.7057 44.3579 22.9741C45.2611 22.5425 46.788 22.4919 47.0606 23.6687C47.2106 24.5116 45.5201 27.1821 44.6578 26.6797C46.304 25.3445 49.7293 25.1657 48.925 28.1566C47.9127 30.328 44.3851 31.2755 42.773 32.9749" fill="white"/>
<path d="M40.1692 29.2356C40.401 27.2361 41.8086 25.1152 43.5196 24.053C43.9252 23.8002 44.3614 23.6248 44.8113 23.4697C45.1692 23.3483 45.5748 23.2708 45.9497 23.3652C46.2258 23.436 46.4268 23.6181 46.4268 23.844C46.4268 23.9148 46.4268 23.8339 46.4302 23.8204C46.4234 23.8608 46.4132 23.9081 46.403 23.9485C46.3825 24.0193 46.3655 24.0868 46.3416 24.1542C46.2837 24.3295 46.2053 24.4914 46.1201 24.6532C45.9122 25.0444 45.6702 25.422 45.36 25.7423C45.2339 25.8738 45.1112 25.9817 44.992 26.0559C44.9545 26.0795 44.8727 26.0829 44.8624 26.1099C44.8624 26.0997 44.9579 26.12 44.9783 26.1301L45.1078 27.1214C45.6157 26.7202 46.3621 26.4403 46.9926 26.3931C47.3505 26.3661 47.5925 26.3695 47.9129 26.4943C48.0526 26.5482 48.2469 26.6864 48.3321 26.8921C48.3559 26.9461 48.3968 27.118 48.4036 27.2259C48.4139 27.4249 48.4002 27.6272 48.3491 27.8194C48.2435 28.2206 47.9163 28.5679 47.6231 28.8512C46.8938 29.5559 45.9838 30.0583 45.1112 30.5641C44.1331 31.1339 43.114 31.7037 42.3233 32.5197C41.7541 33.1064 42.6573 34.0033 43.2265 33.4133C44.859 31.7307 47.3948 31.171 48.9047 29.3367C49.6068 28.4836 49.9715 27.2934 49.4364 26.2515C49.024 25.4422 48.0935 25.1152 47.2244 25.1185C46.1269 25.1219 45.0533 25.5535 44.2012 26.2245C43.8843 26.474 43.9933 27.0439 44.3307 27.2158C45.3873 27.7553 46.3382 26.646 46.8665 25.8738C47.4255 25.0545 48.0424 23.8946 47.4425 22.9437C46.7131 21.7872 45.2033 21.9726 44.1092 22.3806C42.7629 22.883 41.6859 23.7226 40.8032 24.8454C39.8045 26.1166 39.0752 27.6137 38.8911 29.2221C38.8502 29.5626 39.2115 29.856 39.5319 29.856C39.9102 29.856 40.1317 29.566 40.1726 29.2221L40.1692 29.2356Z" fill="#5B5B5B"/>
<path d="M42.0746 38.417C44.4672 37.6618 51.7609 41.4686 48.9866 44.2537C48.2027 44.6145 45.1557 43.6906 45.4249 42.733C47.1529 43.9637 48.2129 47.1906 45.0841 47.1939C42.5722 46.877 40.9771 43.3871 39.0173 42.1294" fill="white"/>
<path d="M42.2449 39.0273C42.3233 39.0037 42.4017 38.9868 42.4801 38.97C42.4392 38.9767 42.5312 38.9632 42.6301 38.9565C42.8278 38.9464 43.0254 38.9565 43.2231 38.9734C43.5605 39.0071 44.0991 39.1386 44.5046 39.2667C45.4965 39.5803 46.444 40.0557 47.2892 40.6559C47.6743 40.9256 48.0322 41.2392 48.3424 41.5899C48.5673 41.8462 48.8059 42.2002 48.8911 42.4733C48.9899 42.797 49.007 43.0263 48.8911 43.3062C48.8536 43.3938 48.6798 43.5961 48.6457 43.6906C48.598 43.8153 48.6866 43.7209 48.7752 43.6602C48.748 43.6771 48.6798 43.6939 48.6491 43.6939C48.7036 43.6939 48.5298 43.7007 48.4344 43.6973C47.9129 43.6872 47.3403 43.5287 46.8461 43.323C46.6246 43.2286 46.3553 43.0937 46.1917 42.9622C46.2292 42.9926 46.1304 42.9049 46.1236 42.8982C46.0554 42.8307 46.0759 42.8408 46.0622 42.8375C46.0179 42.8172 46.0452 42.7262 46.0316 42.7903C46.0009 42.9386 46.069 42.7768 46.0418 42.9015L45.1045 43.2792C45.643 43.6703 46.0997 44.3009 46.3144 44.928C46.4235 45.2517 46.4849 45.5552 46.4371 45.8283C46.4031 46.034 46.3042 46.2093 46.1338 46.324C44.5319 47.4198 42.6233 44.9617 41.7439 43.9367C41.0111 43.087 40.2886 42.2103 39.3411 41.5865C38.6526 41.1347 38.0119 42.2305 38.6969 42.679C39.6342 43.296 40.3363 44.2503 41.0623 45.0865C41.8291 45.9699 42.6676 46.9039 43.7412 47.4299C44.8148 47.9559 46.0725 48.0099 46.9995 47.2546C47.7323 46.6611 47.8413 45.6799 47.613 44.8167C47.3335 43.758 46.628 42.8307 45.7487 42.1901C45.4215 41.9541 44.8932 42.1968 44.8114 42.5677C44.5046 43.9502 46.4474 44.6212 47.4869 44.8437C48.022 44.9584 48.7173 45.0831 49.2353 44.8336C49.7534 44.5841 50.101 43.8827 50.1999 43.3567C50.4214 42.2069 49.75 41.1549 48.949 40.3828C47.9947 39.4656 46.8086 38.8014 45.5817 38.3125C44.4808 37.8708 43.0902 37.456 41.9075 37.8101C41.1236 38.0461 41.4576 39.2667 42.2484 39.0307L42.2449 39.0273Z" fill="#5B5B5B"/>
<path d="M32.7052 29.2895C32.5484 26.9529 30.4659 23.9047 28.1483 23.0584C27.2656 22.5897 25.7455 22.4683 25.4149 23.6316C25.2274 24.4678 26.7918 27.2125 27.678 26.7472C26.0931 25.3411 22.6814 25.0073 23.346 28.0318C24.2254 30.2876 27.7632 31.2452 29.3378 32.948" fill="white"/>
<path d="M33.3458 29.2895C33.2334 27.8902 32.6608 26.5482 31.8632 25.3984C31.0657 24.2486 29.9955 23.1662 28.6765 22.593C27.6063 22.1311 26.1816 21.7096 25.2409 22.6841C24.4127 23.5405 24.866 24.7004 25.3568 25.6007C25.8476 26.501 26.8156 27.8362 28.0017 27.2934C28.3629 27.1282 28.4209 26.5516 28.1312 26.3021C26.9008 25.2366 24.3207 24.3363 23.0869 25.884C22.4155 26.7235 22.5143 27.9947 23.0562 28.8714C23.6834 29.8897 24.7127 30.5944 25.7147 31.2182C26.7985 31.8892 28.0051 32.4658 28.8912 33.3998C29.4536 33.9966 30.3568 33.0997 29.7944 32.5062C28.4141 31.0462 26.3895 30.4191 24.9069 29.0872C24.2866 28.5308 23.7652 27.843 23.9356 27C23.9867 26.7438 24.1196 26.592 24.3105 26.4875C24.5184 26.3729 24.7706 26.3391 25.0808 26.3459C25.8204 26.3628 26.6554 26.6999 27.2314 27.199L27.3609 26.2076C27.3848 26.1975 27.4359 26.1874 27.4529 26.1773C27.5381 26.1234 27.3984 26.2279 27.47 26.1773C27.4836 26.1672 27.4734 26.1773 27.4632 26.1706C27.3302 26.0761 27.2757 26.0559 27.1428 25.921C26.8769 25.6547 26.669 25.3377 26.4884 25.0106C26.3077 24.6836 26.1646 24.3734 26.0794 24.0261C26.0419 23.8676 26.0214 23.9047 26.0487 23.7361C26.0283 23.8878 26.076 23.6956 26.1135 23.6417C26.1441 23.5945 26.1782 23.554 26.2225 23.5169C26.8088 23.0415 27.8994 23.6012 28.4379 23.8878C29.3786 24.3902 30.1625 25.1792 30.7624 26.0458C31.427 27 31.9791 28.1262 32.0712 29.2996C32.1359 30.1055 33.414 30.1122 33.3493 29.2996L33.3458 29.2895Z" fill="#5B5B5B"/>
<path d="M30.282 31.2824C26.2739 36.9808 32.4463 45.0125 39.4844 41.2057C48.8606 34.8936 37.6575 22.7348 30.282 31.2824Z" fill="#FFE600"/>
<path d="M29.7298 30.962C27.7632 33.8011 28.0324 37.5505 30.2274 40.1806C31.2328 41.3877 32.6541 42.288 34.2014 42.6386C36.0351 43.0568 37.9233 42.7061 39.5831 41.8665C40.35 41.4787 41.0589 40.8381 41.6417 40.2143C42.1734 39.6445 42.6472 39.0004 42.9846 38.2991C43.5981 37.0347 43.8162 35.6488 43.6083 34.2596C43.2232 31.6768 41.3588 29.3705 38.9526 28.3319C37.5245 27.7149 35.9465 27.5429 34.423 27.8902C32.5995 28.3083 31.0317 29.4514 29.8252 30.8338C29.2901 31.4475 30.1899 32.3444 30.7284 31.7274C31.6657 30.6518 32.8074 29.7144 34.1912 29.2659C35.3057 28.9052 36.4714 28.8782 37.5825 29.1816C39.7024 29.7616 41.4849 31.488 42.1393 33.5549C42.8892 35.9321 41.9757 38.2991 40.0773 39.9547C37.7835 41.9575 34.2389 42.1261 31.9077 40.0895C30.7557 39.0814 29.9888 37.7124 29.7264 36.2119C29.4435 34.5867 29.8934 32.948 30.8272 31.6026C31.2942 30.9283 30.1865 30.2977 29.723 30.9653L29.7298 30.962Z" fill="#5B5B5B"/>
<path d="M38.1653 34.6946L38.2812 34.7519C38.38 34.8126 38.4857 34.8463 38.5982 34.8531C38.7106 34.8767 38.8231 34.8733 38.939 34.8396C39.0515 34.8126 39.1469 34.762 39.2287 34.6878C39.3207 34.6272 39.3957 34.5496 39.4468 34.4518L39.532 34.2495C39.5729 34.1011 39.5729 33.9494 39.532 33.8011L39.4468 33.5987C39.3718 33.4706 39.2696 33.3728 39.1401 33.2953L39.0242 33.238C38.9254 33.1773 38.8197 33.1435 38.7072 33.1368C38.5947 33.1132 38.4823 33.1166 38.3664 33.1503C38.2539 33.1773 38.1585 33.2278 38.0767 33.302C37.9847 33.3627 37.9097 33.4403 37.8586 33.538L37.7734 33.7404C37.7325 33.8887 37.7325 34.0405 37.7734 34.1888L37.8586 34.3911C37.9335 34.5193 38.0358 34.617 38.1653 34.6946Z" fill="#5B5B5B"/>
<path d="M33.9186 33.2987L33.8028 33.2414C33.7039 33.1807 33.5983 33.147 33.4858 33.1402C33.3733 33.1166 33.2608 33.12 33.145 33.1537C33.0325 33.1807 32.9371 33.2313 32.8553 33.3054C32.7632 33.3661 32.6882 33.4437 32.6371 33.5415L32.5519 33.7438C32.511 33.8921 32.511 34.0439 32.5519 34.1922L32.6371 34.3945C32.7121 34.5227 32.8144 34.6205 32.9439 34.698L33.0597 34.7553C33.1586 34.816 33.2642 34.8497 33.3767 34.8565C33.4892 34.8801 33.6017 34.8767 33.7175 34.843C33.83 34.816 33.9255 34.7654 34.0073 34.6913C34.0993 34.6306 34.1743 34.553 34.2254 34.4552L34.3106 34.2529C34.3515 34.1046 34.3515 33.9528 34.3106 33.8045L34.2254 33.6022C34.1504 33.474 34.0482 33.3762 33.9186 33.2987Z" fill="#5B5B5B"/>
<path d="M34.3894 38.0341C34.9024 37.1051 36.2361 35.8044 37.4673 38.0341" stroke="#5B5B5B" stroke-width="1.5" stroke-linecap="round"/>
<path d="M39.9296 36.1872C39.9296 36.5272 39.654 36.8028 39.3141 36.8028C38.9741 36.8028 38.6985 36.5272 38.6985 36.1872C38.6985 35.5716 39.3141 34.9561 39.3141 34.9561C39.3141 34.9561 39.9296 35.5716 39.9296 36.1872Z" fill="#C8E2FF"/>
<defs>
<linearGradient id="paint0_linear_213_440" x1="36" y1="6" x2="36" y2="66" gradientUnits="userSpaceOnUse">
<stop stop-color="white"/>
<stop offset="1" stop-color="#EBF3F5"/>
</linearGradient>
<linearGradient id="paint1_linear_213_440" x1="36" y1="6" x2="36" y2="66" gradientUnits="userSpaceOnUse">
<stop stop-color="white"/>
<stop offset="1" stop-color="#EBF3F5"/>
</linearGradient>
<linearGradient id="paint2_linear_213_440" x1="36" y1="25.5" x2="36" y2="46.5" gradientUnits="userSpaceOnUse">
<stop stop-color="white"/>
<stop offset="1" stop-color="#EBF3F5"/>
</linearGradient>
</defs>
</svg>
