<svg width="25" height="25" viewBox="0 0 25 25" fill="none" xmlns="http://www.w3.org/2000/svg">
<path d="M3.125 21.8749L7.64276 8.99162L16.1458 17.7283L3.125 21.8749Z" fill="#9FC1CB" stroke="black" stroke-width="2.5" stroke-linejoin="round"/>
<path d="M11.9791 9.89584L14.5833 7.29167C15.9722 5.90276 16.1458 4.6875 15.1041 3.64584" stroke="black" stroke-width="2.5" stroke-linecap="round" stroke-linejoin="round"/>
<path d="M15.1041 13.0208L17.7083 10.4167C19.4444 8.68057 21.1805 8.68057 22.9166 10.4167" stroke="black" stroke-width="2.5" stroke-linecap="round" stroke-linejoin="round"/>
<path d="M10.4167 3.64583C10.992 3.64583 11.4583 3.17946 11.4583 2.60417C11.4583 2.02887 10.992 1.5625 10.4167 1.5625C9.84135 1.5625 9.375 2.02887 9.375 2.60417C9.375 3.17946 9.84135 3.64583 10.4167 3.64583Z" fill="black"/>
<path d="M21.875 3.125C22.4504 3.125 22.9167 2.65863 22.9167 2.08333C22.9167 1.50804 22.4504 1.04167 21.875 1.04167C21.2997 1.04167 20.8334 1.50804 20.8334 2.08333C20.8334 2.65863 21.2997 3.125 21.875 3.125Z" fill="black"/>
<path d="M21.875 15.1042C22.4504 15.1042 22.9167 14.6378 22.9167 14.0625C22.9167 13.4872 22.4504 13.0208 21.875 13.0208C21.2997 13.0208 20.8334 13.4872 20.8334 14.0625C20.8334 14.6378 21.2997 15.1042 21.875 15.1042Z" fill="black"/>
<path d="M20.3125 19.7917C20.8879 19.7917 21.3542 19.3253 21.3542 18.75C21.3542 18.1747 20.8879 17.7083 20.3125 17.7083C19.7372 17.7083 19.2709 18.1747 19.2709 18.75C19.2709 19.3253 19.7372 19.7917 20.3125 19.7917Z" fill="black"/>
</svg>
