<svg width="83" height="127" viewBox="0 0 83 127" fill="none" xmlns="http://www.w3.org/2000/svg">
<path d="M35.2877 5.25105C32.5561 5.55038 30.6894 7.26937 29.3707 9.59556C27.9835 12.0415 26.9988 14.8124 26.074 17.4636C24.096 23.1679 22.88 29.1031 22.3492 35.1153L22.9742 33.6016L23.1112 33.4904L24.1902 33.1996C24.7468 33.4647 24.8666 33.4904 24.5498 33.2766L25.3205 34.0463L25.4575 34.6107L25.1663 35.6883L25.0636 35.8337L24.1217 36.381L22.5118 35.389C22.6917 36.535 24.1217 37.1593 25.1492 36.8856C26.3651 36.5521 26.819 35.3975 26.6477 34.2515C26.3223 32.1819 23.5051 31.4892 22.0494 32.8148C20.4311 34.2857 21.2788 36.8001 23.2568 37.3816C24.233 37.6724 25.329 37.3816 26.0141 36.629C26.7847 35.7995 26.682 34.6107 26.7933 33.5502C26.9988 31.6517 27.2985 29.7702 27.6753 27.8972C28.4459 24.0402 29.542 20.243 30.9548 16.5741C31.5799 14.9492 32.2136 13.2816 33.0784 11.7678C33.5408 10.9554 34.3029 9.64688 35.3048 9.5357C36.4522 9.40742 37.4455 8.64627 37.4455 7.39765C37.4455 6.33718 36.4608 5.13132 35.3048 5.25961L35.2877 5.25105Z" fill="white"/>
<path d="M37.1116 7.43186H37.2401C37.9508 7.48317 38.7642 7.0128 39.0896 6.37994C39.415 5.74708 39.5863 5.09711 39.3208 4.43859C38.9355 3.48075 38.2933 2.95906 37.2572 2.86499C35.8015 2.74526 34.4143 4.13071 33.3525 4.96883C32.2907 5.80694 31.2889 6.70492 30.3469 7.67132C28.4888 9.57846 26.8447 11.7251 25.4747 14.0085C22.6832 18.6609 21.0048 23.929 20.5339 29.3255C20.2684 32.4128 20.4825 35.5172 21.0733 38.5618C21.296 39.6993 22.6489 40.3407 23.7107 40.0585C24.8924 39.7335 25.4318 38.5618 25.2092 37.4244C24.0789 31.6773 24.8496 25.6138 27.1016 20.2259C28.2062 17.5833 29.7047 15.0176 31.5201 12.7941C33.3354 10.5705 35.5446 8.12459 38.0878 6.84176L37.0089 7.13253L37.2572 7.14964L35.1935 5.57603L35.2535 5.72142L35.4675 4.07085L35.3905 4.21624L37.2401 3.15576H37.1116C34.3629 2.98472 34.3715 7.26081 37.1116 7.42331V7.43186Z" fill="white"/>
<path d="M36.1868 5.67866C28.1805 15.7189 22.7346 27.6578 20.6452 40.3407C20.4568 41.4781 20.9449 42.6412 22.1437 42.9748C23.1713 43.257 24.5841 42.6241 24.7811 41.4781C26.742 29.5564 31.6742 18.1649 39.2181 8.69758C39.9374 7.79105 40.1001 6.55098 39.2181 5.67011C38.4731 4.92607 36.9147 4.76358 36.1868 5.67011V5.67866Z" fill="white"/>
<path d="M30.4666 9.72385C27.598 6.98715 24.2414 11.5626 23.1539 13.9144C21.7068 17.0274 20.8162 20.4568 20.1141 23.8093C18.6327 30.882 18.4186 38.2711 20.5422 45.2411C21.3386 47.8666 25.4744 46.7463 24.6695 44.1037C22.9912 38.5875 22.8885 32.7378 23.8389 27.0762C24.3185 24.2284 25.0292 21.4232 25.9026 18.6694C26.2451 17.5833 26.6047 16.5057 27.1271 15.488C27.384 14.992 27.6665 14.496 28.0176 14.0598C28.2146 13.8204 28.4886 13.6237 28.6684 13.3756C29.028 12.8796 29.3106 13.4098 28.2231 13.1533L27.2812 12.6059L27.4353 12.7513C29.4305 14.6499 32.4618 11.631 30.4666 9.72385Z" fill="white"/>
<path d="M43.8675 10.5192C34.8594 14.3506 28.1889 21.8081 21.3729 28.5558C19.412 30.4971 22.4432 33.5246 24.4041 31.5832C30.9804 25.0665 37.3341 17.9168 46.0339 14.2137C47.0957 13.7605 47.3355 12.1954 46.8046 11.2889C46.1624 10.1857 44.9465 10.0659 43.8761 10.5192H43.8675Z" fill="white"/>
<path d="M37.1715 8.09038C33.8063 17.1899 30.4497 26.2894 27.0845 35.389C26.682 36.4751 27.5297 37.7323 28.583 38.023C29.7818 38.348 30.8179 37.6211 31.2203 36.5264C34.5855 27.4269 37.9422 18.3274 41.3074 9.22782C41.7099 8.1417 40.8621 6.88453 39.8089 6.59375C38.6101 6.26877 37.574 6.9957 37.1715 8.09038Z" fill="white"/>
<path d="M31.8966 16.634C29.6189 21.5259 27.6494 26.5717 26.0653 31.7372C25.3032 34.2344 24.6267 36.7488 24.0444 39.2973C23.4108 42.0682 22.9741 44.8135 23.5307 47.6357C23.7533 48.7732 25.1062 49.4146 26.168 49.1323C27.3497 48.8074 27.8892 47.6357 27.6665 46.4983C27.2127 44.2148 27.8378 41.863 28.3601 39.6565C28.9339 37.2533 29.5846 34.8587 30.3125 32.4983C31.7596 27.8203 33.5236 23.2449 35.5872 18.7977C36.0753 17.7544 35.8783 16.4972 34.8166 15.8729C33.8918 15.3341 32.3761 15.5907 31.888 16.6426L31.8966 16.634Z" fill="white"/>
<path d="M49.0911 11.8705C48.2861 10.3482 46.3509 10.3396 45.1264 11.3146C44.0475 12.1698 43.0885 13.2302 42.1551 14.2309C40.3055 16.2235 38.593 18.353 37.0345 20.5851C33.9176 25.0494 31.4943 29.9669 29.7732 35.1239C28.8998 37.7408 33.0271 38.8612 33.9005 36.2613C35.3048 32.0622 37.24 28.0768 39.6462 24.3566C40.8022 22.5778 42.0524 20.8674 43.4224 19.2424C44.1417 18.3872 44.8952 17.5491 45.6745 16.7366C46.0855 16.309 46.4965 15.89 46.9161 15.4795C47.0788 15.317 47.2757 15.163 47.4299 14.9834C47.8923 14.4447 47.2243 14.8637 47.584 14.8124H46.4451L46.5993 14.8637L45.3234 13.8802L45.4005 14.0256C46.6934 16.4544 50.384 14.2993 49.0996 11.8705H49.0911Z" fill="white"/>
<path d="M44.8266 13.196C45.486 16.4031 44.4499 20.072 43.4395 23.1166C42.429 26.1611 41.0932 28.7696 39.3978 31.3181C35.9726 36.4922 31.1945 40.6571 25.6287 43.3767C24.5926 43.8813 24.31 45.3608 24.858 46.3015C25.4745 47.362 26.7418 47.5758 27.7865 47.0712C37.6081 42.2735 45.1435 33.0884 48.072 22.5863C49.0139 19.1997 49.6647 15.5564 48.9454 12.0671C48.7142 10.9382 47.3698 10.2797 46.308 10.5705C45.1263 10.8955 44.5783 12.0671 44.8095 13.2046L44.8266 13.196Z" fill="white"/>
<path d="M41.273 16.5399C37.2313 19.7128 34.9707 24.5961 32.5559 28.9919C29.7216 34.1489 26.8873 39.2973 24.053 44.4543C22.7258 46.866 26.4249 49.0297 27.7522 46.6094C30.518 41.5807 33.2838 36.5435 36.0496 31.5148C38.3616 27.3071 40.4424 22.5949 44.3042 19.5589C45.2119 18.8405 45.0492 17.284 44.3042 16.5314C43.4051 15.6334 42.1892 15.813 41.273 16.5314V16.5399Z" fill="white"/>
<path d="M43.6707 15.9669C37.317 24.4422 34.8681 35.3462 27.7095 43.2655H30.7408L30.9548 43.5649V44.7023L30.9891 44.4543C31.1603 43.3168 30.6979 42.1537 29.4906 41.8202C28.4801 41.5465 27.033 42.1623 26.8532 43.3168C26.6734 44.4714 26.8361 45.4463 27.7009 46.293C28.4973 47.0713 29.9444 47.1568 30.7322 46.293C38.1733 38.0573 40.7679 26.9137 47.3613 18.1306C48.0549 17.207 47.5069 15.7446 46.5906 15.2058C45.4946 14.5644 44.3557 15.0433 43.6621 15.9755L43.6707 15.9669Z" fill="white"/>
<path d="M35.3304 18.4727C31.5713 23.929 28.8825 30.1208 27.4525 36.5777C27.2042 37.7066 27.795 38.8868 28.951 39.2118C30.0214 39.5026 31.3315 38.8526 31.5884 37.7152C32.9499 31.5747 35.4674 25.8105 39.0381 20.6279C39.6974 19.6786 39.2179 18.2589 38.2674 17.703C37.2056 17.0873 35.9983 17.5149 35.3389 18.4727H35.3304Z" fill="white"/>
<path d="M67.2271 5.40499C55.8813 10.7416 48.5514 22.612 48.8511 35.1238C48.9453 38.921 49.6903 42.7096 51.1032 46.2417C51.5313 47.3107 52.5332 48.0633 53.7405 47.7383C54.7595 47.4561 55.6672 46.1904 55.2391 45.1042C52.4304 38.0829 52.3448 29.9498 55.5388 23.0225C58.3731 16.882 63.2796 11.9816 69.4021 9.09953C70.4467 8.6035 70.7207 7.10687 70.1727 6.17468C69.5476 5.10566 68.2974 4.91751 67.2442 5.40499H67.2271Z" fill="white"/>
<path d="M65.6001 7.98775C60.6336 14.094 56.3865 20.7562 53.124 27.9229C49.8701 35.064 47.541 43.0603 49.6817 50.8684C50.4096 53.5196 54.5369 52.3907 53.809 49.731C51.9252 42.8379 54.2201 35.6455 57.14 29.3853C60.0599 23.1251 64.0588 16.6255 68.6228 11.0067C69.3507 10.1087 69.4962 8.86008 68.6228 7.9792C67.8693 7.22661 66.328 7.08122 65.5916 7.9792L65.6001 7.98775Z" fill="white"/>
<path d="M66.8848 8.32129L66.7563 8.30418L68.6059 9.36465L68.5545 9.27058L68.8457 10.3482L68.8628 10.2199L68.5717 11.2974L68.409 11.477L67.467 12.0244L67.5955 11.9731H66.4566L66.6022 12.0073L65.6603 11.4599L65.8144 11.6224L65.2664 10.6817C65.3349 10.2199 65.3349 10.1087 65.2664 10.3738C65.2236 10.5449 65.1636 10.7159 65.1037 10.8784C64.9752 11.2632 64.8468 11.6481 64.7098 12.0329C64.4957 12.6743 64.2731 13.3158 64.0505 13.9572C63.5624 15.3683 63.0572 16.7708 62.5519 18.1649C61.5073 21.0298 60.4198 23.8777 59.2809 26.6999C57.0546 32.2503 54.6398 37.7237 52.071 43.1201C51.5743 44.1635 51.7798 45.4292 52.8416 46.045C53.775 46.5923 55.2735 46.3272 55.7701 45.2753C59.2809 37.8948 62.5006 30.3688 65.4034 22.7232C66.1227 20.8246 66.8248 18.9174 67.5099 17.0018C68.1949 15.0861 68.9827 13.2816 69.4365 11.383C69.9331 9.28768 68.0836 6.799 65.8315 8.10748C65.0694 8.55219 64.5728 9.45873 64.5899 10.3311C64.607 11.708 65.6603 12.4178 66.9105 12.5717C68.0579 12.7171 69.0512 11.4856 69.0512 10.4337C69.0512 9.1594 68.0664 8.44102 66.9105 8.29563L66.8848 8.32129Z" fill="white"/>
<path d="M65.6431 9.7495C58.7585 21.3805 53.5009 33.9607 50.0843 47.0285C49.3907 49.6968 53.5181 50.8257 54.2117 48.1659C57.5426 35.4317 62.629 23.2363 69.3423 11.9046C70.7466 9.52714 67.0474 7.38054 65.6431 9.7495Z" fill="white"/>
<path d="M57.594 14.7696C53.5951 21.5259 51.4887 29.2913 51.5486 37.1422C51.5657 39.896 55.8472 39.896 55.83 37.1422C55.7787 30.0267 57.6625 23.0567 61.2846 16.9248C62.6889 14.5473 58.9897 12.4007 57.5854 14.7696H57.594Z" fill="white"/>
<path d="M67.2699 11.8876C67.6039 13.1447 67.8779 14.4105 68.1005 15.6847C68.1519 15.9841 68.2033 16.2834 68.2461 16.5913C68.2718 16.7452 68.2889 16.8906 68.3146 17.0445C68.2718 16.7366 68.3317 17.2156 68.3403 17.2669C68.4259 17.9938 68.4944 18.7122 68.5971 19.4391C68.9482 21.9449 70.2755 24.5362 72.9385 25.1862C74.026 25.4513 75.3104 24.8441 75.5759 23.6896C75.8413 22.535 75.2419 21.3463 74.0774 21.0555C73.9661 21.0298 73.8633 21.0042 73.752 20.97C74.0089 21.0812 74.026 21.0897 73.8119 20.9785C73.7177 20.9272 73.6236 20.8588 73.5294 20.7989C73.7434 20.9614 73.7606 20.9614 73.5807 20.7989C73.5037 20.722 73.4266 20.6364 73.3496 20.5509C73.4866 20.7391 73.5122 20.7733 73.4266 20.645C73.3324 20.474 73.2211 20.3029 73.1269 20.1319C73.0327 19.9266 73.0327 19.9266 73.1269 20.1319C73.0755 20.0036 73.0327 19.8667 72.9985 19.7299C72.9214 19.4648 72.8615 19.1911 72.8101 18.9089C72.793 18.8234 72.7073 18.2333 72.7673 18.6438C72.733 18.3616 72.7073 18.0793 72.6731 17.8057C72.4076 15.4196 72.0052 13.0592 71.3886 10.7416C71.1061 9.66399 69.8473 8.89429 68.7513 9.24493C67.6552 9.59557 66.9531 10.7159 67.2528 11.879L67.2699 11.8876Z" fill="white"/>
<path d="M68.7086 9.48438C68.2548 11.7165 67.8437 13.9486 67.4755 16.1979C67.3813 16.7794 67.3813 17.3182 67.6896 17.8484C67.9465 18.2931 68.4603 18.7122 68.9655 18.8319C69.5135 18.9602 70.13 18.926 70.6181 18.6181C71.0548 18.3359 71.5087 17.8826 71.6028 17.3438C71.971 15.1032 72.3821 12.8625 72.8359 10.6304C72.9472 10.0659 72.9215 9.49294 72.6218 8.9798C72.3649 8.53509 71.8512 8.11603 71.346 7.9963C70.2842 7.75684 68.9483 8.32129 68.7086 9.49294V9.48438Z" fill="white"/>
<path d="M71.6114 18.4471C73.9919 17.8057 76.321 17.0103 78.5901 16.061C79.1296 15.8387 79.5577 15.6078 79.866 15.0775C80.1315 14.6157 80.2513 13.9401 80.0801 13.4269C79.9088 12.9138 79.592 12.4092 79.0954 12.1527C78.5987 11.8961 77.9651 11.7165 77.4427 11.9389C75.1736 12.8882 72.8445 13.6835 70.464 14.3249C69.385 14.6157 68.6144 15.8643 68.9655 16.959C69.3165 18.0537 70.4383 18.7635 71.6028 18.4556L71.6114 18.4471Z" fill="white"/>
<path d="M79.8317 12.4862L79.6861 12.3408C79.4892 12.1356 79.2665 11.9816 79.0011 11.8961C78.7442 11.7593 78.4702 11.6994 78.179 11.708C77.8879 11.6994 77.6053 11.7593 77.357 11.8961C77.0915 11.9816 76.8604 12.127 76.672 12.3408L76.338 12.777C76.1411 13.1105 76.0469 13.4697 76.0469 13.8546L76.1239 14.419C76.2267 14.7782 76.4065 15.0946 76.672 15.3597L76.8175 15.5051C77.0145 15.7104 77.2371 15.8643 77.5026 15.9498C77.7595 16.0867 78.0335 16.1465 78.3246 16.138C78.6157 16.1465 78.8983 16.0867 79.1466 15.9498C79.4121 15.8643 79.6433 15.7189 79.8317 15.5051L80.1656 15.069C80.3626 14.7354 80.4568 14.3762 80.4568 13.9914L80.3797 13.4269C80.2769 13.0678 80.0971 12.7513 79.8317 12.4862Z" fill="white"/>
<path d="M76.2354 13.4526L72.4763 24.6902L70.6011 30.309C70.2842 31.2497 69.976 32.1819 69.6591 33.1226C69.5821 33.345 69.5221 33.593 69.4365 33.8068C69.2909 34.1574 68.897 34.3798 69.4451 34.1574C68.3747 34.5936 67.6212 35.5771 67.9466 36.7915C68.2206 37.8007 69.505 38.7243 70.5839 38.2882C72.6219 37.45 73.2556 35.8337 73.9149 33.8667L76.0642 27.444L80.3627 14.5986C81.2362 11.9816 77.1003 10.8613 76.2354 13.4612V13.4526Z" fill="white"/>
<path d="M76.0298 15.4538C74.8909 20.7989 72.5532 25.7164 69.4449 30.2063C67.9036 32.4385 66.1653 34.5252 64.3157 36.5093C63.4081 37.4843 62.4662 38.4335 61.4986 39.3572C60.9933 39.8361 60.4881 40.315 59.9744 40.7768C59.7175 41.0078 59.4606 41.2387 59.2037 41.4696C59.0753 41.5808 58.9468 41.7005 58.8184 41.8117C58.4759 42.0768 58.4673 42.111 58.7841 41.9143L60.4368 42.1281L60.3083 42.0255L61.293 43.2997L61.2588 43.1372L60.7108 45.2154L60.805 45.1128C62.6203 43.0603 59.6062 40.0243 57.7737 42.0853C55.9412 44.1464 58.2447 47.114 60.6851 45.7628C62.0551 45.0102 63.2968 43.5478 64.4185 42.4787C66.9189 40.0927 69.2394 37.527 71.3544 34.7903C75.516 29.4024 78.7442 23.2534 80.1742 16.5656C80.7479 13.8802 76.6206 12.7342 76.0469 15.4282L76.0298 15.4538Z" fill="white"/>
<path d="M72.3905 14.1111C67.8094 24.0744 60.1713 32.3187 56.3608 42.6754C55.9584 43.7616 56.8061 45.0187 57.8593 45.3095C59.0496 45.6345 60.0942 44.9076 60.4967 43.8129C64.1616 33.841 71.6713 25.8704 76.0897 16.2663C76.5692 15.2144 76.3894 13.9657 75.319 13.3414C74.3943 12.8026 72.8786 13.0507 72.3905 14.1111Z" fill="white"/>
<path d="M71.1489 21.9791C65.8057 27.769 61.353 34.337 58.022 41.4696C57.5339 42.5129 57.7309 43.7701 58.7927 44.3944C59.7175 44.9332 61.2331 44.6766 61.7212 43.6247C64.898 36.8086 69.0767 30.5228 74.1802 24.998C76.0469 22.9797 73.0242 19.9437 71.1489 21.9706V21.9791Z" fill="white"/>
<path d="M67.3813 36.2869C59.5462 40.6486 54.3657 48.7817 53.4752 57.6503C53.3553 58.8049 54.5455 59.7884 55.6159 59.7884C56.8661 59.7884 57.6367 58.8049 57.7566 57.6503C58.5016 50.2869 63.1084 43.5563 69.5477 39.9815C71.9539 38.6388 69.796 34.9442 67.3898 36.2869H67.3813Z" fill="white"/>
<path d="M41.1189 49.4915L41.0675 49.4231L39.3978 47.2594C38.4302 46.216 37.2827 45.4806 35.9555 45.0529C33.9432 44.2063 31.1003 43.6675 28.9853 44.5142C27.1957 45.2325 25.5173 45.8226 24.1473 47.3107C22.8885 48.6791 21.8096 50.3211 21.3643 52.1342C20.234 56.855 22.1436 61.6527 26.2794 64.2098C27.9492 65.2361 30.0985 65.869 32.0679 65.7578C33.2839 65.6894 34.5169 65.4414 35.7072 65.2276C36.6405 65.0651 37.5739 64.9197 38.5158 64.7828L35.6729 65.1677C41.3159 64.4151 47.0102 64.3296 52.6617 64.9282C55.222 65.1933 58.4844 63.5428 60.2313 61.7981C62.0894 59.9423 63.4852 56.8977 63.3653 54.238C63.2454 51.5783 62.3292 48.6021 60.2313 46.6779L58.0648 45.0102C56.3951 44.0438 54.5969 43.5563 52.6617 43.5478C44.8181 42.7267 36.9659 43.3083 29.2251 44.7536L32.0679 44.3688H31.8453C33.6435 44.8648 35.4503 45.3523 37.2485 45.8397L37.0858 45.7371C38.7213 49.7652 40.3654 53.7847 42.0009 57.8128L42.0266 57.7016L34.5512 65.1677L34.6625 65.1249C30.6294 63.4915 26.6048 61.8494 22.5717 60.216L22.6231 60.2844C23.2996 61.533 24.2158 62.5336 25.3803 63.2862C26.4164 64.2269 27.6238 64.8684 29.0196 65.2019C31.5799 65.9032 34.9964 65.5867 37.2656 64.1243C39.5348 62.6619 41.5642 60.464 42.1807 57.7358C42.7972 55.0077 42.8058 51.7322 41.1018 49.5001L41.1189 49.4915Z" fill="white"/>
<path d="M31.8968 47.9607C29.8417 48.3284 27.5383 49.7566 26.0655 51.2105C25.0893 52.1769 24.1303 53.3913 23.548 54.6485C22.2636 57.4365 21.5358 60.1989 21.6385 63.3119C21.7413 66.4249 22.392 69.6832 24.1646 72.3259C26.8961 76.4224 30.9464 78.8854 35.9385 79.1249C38.4731 79.2446 41.1619 78.5091 43.6023 77.8249C46.0427 77.1407 48.3804 76.2171 50.641 75.131C51.3089 74.806 51.9254 74.4297 52.5248 73.9935C53.6637 73.164 54.8796 72.3259 55.8301 71.2568C58.4675 68.2892 60.1458 64.7657 60.0944 60.7291C60.0516 57.3253 58.5445 54.3919 55.8729 52.3308C53.4068 50.4237 49.6306 49.2093 46.5394 50.4152C43.7136 51.5184 41.0506 52.8012 39.004 55.136C36.341 58.1634 34.7997 61.4988 34.4743 65.544C33.9434 72.266 39.3722 78.1499 45.7002 79.5439C52.0282 80.9379 58.5188 79.4926 63.2627 75.4474C66.782 72.4456 68.1264 67.3057 66.9019 62.9014C66.0627 59.8568 64.0419 57.9069 62.1581 55.5294L63.8278 57.6931C63.5795 57.3339 63.3654 56.9747 63.1856 56.5813L64.2645 59.1384C64.059 58.6338 63.9134 58.1292 63.8193 57.5904L64.2046 60.4298C64.1361 59.891 64.1275 59.3693 64.1703 58.822L63.785 61.6613C63.8621 61.1225 63.9905 60.6179 64.1875 60.1048L63.1085 62.6619C63.9734 60.7291 65.1808 58.9246 65.5918 56.8207C65.8743 55.3583 66.1312 53.9045 65.9685 52.4335C65.8401 51.2704 65.7459 50.0474 65.4205 48.9185C65.0951 47.7896 64.5557 46.7805 64.0847 45.7286L62.4149 43.5649L60.2485 41.8972C58.1678 40.6828 55.7873 40.315 53.4239 40.6315C49.151 41.2044 45.8201 44.1806 44.5271 48.2857C44.3301 48.9185 44.1332 49.5514 43.9277 50.1842C43.1142 52.7756 43.6537 56.1109 45.0066 58.42C46.3595 60.7291 48.8513 62.756 51.4031 63.329C54.1432 63.9533 57.2173 63.8164 59.6491 62.2514C62.081 60.6863 63.6994 58.6082 64.5642 55.8629C64.7612 55.23 64.9581 54.5972 65.1636 53.9643C58.6387 54.8195 52.1224 55.6662 45.5974 56.5214L45.7345 56.8378L44.6555 54.2807C44.7754 54.6143 44.861 54.9307 44.9381 55.2728L44.5528 52.4335C44.6127 52.9038 44.6213 53.34 44.587 53.8104L44.9724 50.971C44.9039 51.4329 44.784 51.8605 44.6127 52.2966L45.6916 49.7395C44.9039 51.4585 43.9534 53.0578 43.3711 54.888C42.9772 56.1366 42.8573 57.5477 42.7546 58.8305C42.7118 59.3778 42.7289 59.891 42.7888 60.4383C43.1056 63.2434 43.5424 65.4499 44.9895 67.9557C45.9228 69.5721 47.2758 70.872 48.4403 72.3002L46.7706 70.1365C46.9504 70.3845 47.096 70.6154 47.233 70.8805L46.154 68.3234C46.2311 68.4945 46.2825 68.6741 46.3082 68.8537L45.9228 66.0143C45.9485 66.2025 45.9485 66.3906 45.9143 66.5788L46.2996 63.7395L46.2225 64.0046L47.3015 61.4475C47.2415 61.6185 47.1473 61.7725 47.0446 61.9179L48.7143 59.7541C48.526 59.9765 48.3376 60.1475 48.1064 60.3271L50.2728 58.6595C49.9474 58.8733 49.6134 59.0443 49.2624 59.2068L51.8227 58.1292C50.8551 58.5141 49.8703 58.7792 48.8428 58.9417L51.6857 58.5568C50.7694 58.668 49.8618 58.7193 48.9455 58.6167L51.7884 59.0016C51.2318 58.916 50.7095 58.7877 50.1872 58.5825L52.7474 59.6601C52.3364 59.4805 51.9597 59.2667 51.6086 59.0016L53.775 60.6692C53.5781 60.4982 53.4154 60.3271 53.2441 60.1304L54.9139 62.2941C54.7683 62.0803 54.6484 61.8836 54.5457 61.6442L55.6246 64.2013C55.5646 64.0388 55.5133 63.8763 55.4876 63.7053L55.8729 66.5446C55.8387 66.1939 55.8387 65.9032 55.8729 65.5525L55.4876 68.3919C55.5732 67.9557 55.7016 67.5537 55.8729 67.1347L54.794 69.6918C55.0252 69.2129 55.2821 68.7682 55.5989 68.3405L53.9291 70.5042C54.3316 70.0082 54.7683 69.5721 55.2735 69.1872L53.1071 70.8549C53.5438 70.547 53.9891 70.2904 54.4772 70.0766L51.9169 71.1542L52.208 71.043L38.6615 60.7376C38.6701 60.9343 38.6615 61.1396 38.6444 61.3363L39.0297 58.497C38.9698 58.8904 38.867 59.2496 38.7215 59.6173L39.8004 57.0602C39.6291 57.4194 39.4236 57.7529 39.1838 58.0779L40.8536 55.9142C40.4597 56.4017 40.0144 56.8207 39.5264 57.2141L41.6928 55.5465C40.8793 56.1451 40.0145 56.6069 39.0897 57.0174L41.65 55.9399C39.2609 56.9405 36.615 57.7786 34.0461 58.1378L36.889 57.7529C36.4865 57.7871 36.1269 57.7871 35.733 57.7529L38.5759 58.1378C38.3447 58.1036 38.1221 58.0437 37.908 57.9667L40.4683 59.0443C40.1771 58.916 39.9288 58.7792 39.6634 58.6082L41.8298 60.2758C41.5044 60.0107 41.2218 59.7285 40.9649 59.4035L42.6347 61.5672C42.3949 61.2166 42.2065 60.8659 42.0353 60.4811L43.1142 63.0382C42.943 62.5678 42.8316 62.106 42.746 61.61L43.1313 64.4493C43.02 63.5342 43.0029 62.6106 43.0971 61.6869L42.7118 64.5263C42.7888 63.9704 42.9087 63.4401 43.1056 62.9099L42.0267 65.467C42.1723 65.142 42.3264 64.8427 42.5319 64.5519L40.8622 66.7156C41.0334 66.5189 41.1876 66.365 41.3931 66.2025L39.2267 67.8702C39.3637 67.7761 39.5007 67.6991 39.6548 67.6393L37.0945 68.7168C37.2572 68.657 37.4199 68.6142 37.5826 68.5971C40.083 68.1524 42.746 65.792 43.9791 63.6882C45.3234 61.3962 45.8886 58.018 45.058 55.4524C44.2274 52.8867 42.6176 50.3724 40.1429 49.0639L37.5826 47.9863C35.6816 47.4732 33.7892 47.4732 31.8883 47.9863L31.8968 47.9607Z" fill="white"/>
<path d="M26.1253 73.814C25.2605 74.6521 24.5155 75.6869 23.8476 76.6704C23.6507 76.9612 23.488 77.2519 23.3424 77.5684C22.8458 78.6374 22.3149 79.7492 21.9895 80.8866C21.6384 82.101 21.5528 83.401 21.4158 84.641C21.2787 85.8811 21.45 87.1383 21.6213 88.4296C21.7925 89.721 22.0066 91.0808 22.3577 92.3979C23.0256 94.8694 23.8305 97.1956 24.8752 99.5475C25.0207 99.8639 25.1663 100.18 25.3547 100.48C25.9541 101.429 26.6905 102.404 27.4526 103.216C27.5639 103.336 27.6838 103.447 27.8122 103.558C28.463 104.149 29.4563 104.952 30.2098 105.406C31.2288 106.013 32.3506 106.458 33.4894 106.8C34.9109 107.244 36.3323 107.313 37.7537 106.988C39.1752 106.919 40.5024 106.5 41.7355 105.722C42.9857 105.047 43.9875 104.131 44.741 102.968C45.683 101.934 46.3252 100.728 46.6591 99.3337C47.2842 96.597 47.1472 93.5267 45.5802 91.0979C44.0132 88.6691 41.9324 87.01 39.1837 86.189C39.0553 86.1548 38.9268 86.112 38.807 86.0607L41.3673 87.1383C41.1874 87.0442 41.0333 86.9501 40.8621 86.8389L43.0285 88.5066C42.823 88.3356 42.6431 88.156 42.4633 87.9507L44.1331 90.1144C43.7906 89.6697 43.5337 89.1822 43.3196 88.6691L44.3985 91.2262C43.4994 89.0112 42.7887 86.5396 42.4548 84.1792L42.8401 87.0185C42.7459 86.2232 42.7202 85.4449 42.823 84.6496L42.4376 87.4889C42.5233 86.9416 42.6603 86.4284 42.8572 85.9153L41.7783 88.4724C41.9667 88.0448 42.1893 87.6599 42.4719 87.2836L40.8021 89.4474C40.9477 89.2678 41.1018 89.1053 41.2731 88.9428C43.2254 87.0442 44.4071 84.0937 44.4071 81.3826C44.4585 79.9117 44.1588 78.5348 43.4823 77.2605C43.0542 75.9349 42.3092 74.7889 41.2731 73.8225C39.2351 71.9496 36.5549 70.5641 33.7035 70.6924C30.852 70.8207 28.2147 71.7956 26.1339 73.8225L26.1253 73.814Z" fill="white"/>
<path d="M24.6782 98.2732C24.2244 98.6239 23.8562 99.0087 23.4965 99.4449C22.6488 100.488 21.724 101.532 21.1588 102.763C20.1912 104.431 19.7032 106.227 19.6946 108.16C19.6432 109.631 19.9429 111.007 20.6194 112.282C21.8781 115.258 24.3271 117.67 27.5553 118.473C38.5843 121.21 45.0835 110.537 48.5943 101.908C50.7693 96.5713 51.6941 90.4651 51.1632 84.7265C50.8977 81.8359 50.1528 79.2874 48.0292 77.1664C46.171 75.3106 43.1226 73.9166 40.4596 74.0363C34.4827 74.3014 29.9786 78.7315 29.756 84.7265C29.3878 94.8694 32.0166 105.192 36.9916 114.035C37.4797 114.899 37.9849 115.754 38.5415 116.575C40.9305 120.15 44.3471 122.732 48.8169 122.801C55.0079 122.895 59.7432 118.157 60.7365 112.29C61.6527 106.894 61.7811 101.643 61.3102 96.2036C60.8392 90.7644 60.1199 85.6929 60.1542 80.3991C53.5094 82.1951 46.856 83.9996 40.2113 85.7956C40.7336 86.7962 41.2131 87.8139 41.6584 88.8487L40.5795 86.2916C42.4719 90.8072 43.585 95.5707 44.2444 100.411L43.859 97.5719C44.1245 99.633 44.3214 101.703 44.4499 103.781C44.5698 105.722 44.8181 107.775 44.5869 109.716L44.9722 106.877C44.9123 107.193 44.8352 107.475 44.7239 107.775L45.8028 105.218C45.7172 105.406 45.6144 105.585 45.486 105.756C43.996 107.98 43.7135 111.486 44.4071 113.992C45.1007 116.498 47.0102 119.158 49.3222 120.381C51.8054 121.689 54.8195 122.348 57.5682 121.458C60.3169 120.569 62.3463 118.952 63.9647 116.549C66.4137 112.897 66.1225 108.331 65.8742 104.166C65.6601 100.505 65.2149 96.8621 64.6583 93.2445C63.6735 86.8731 61.6613 80.7412 58.6814 75.0113L57.0116 72.8476C56.044 71.8042 54.8966 71.0687 53.5693 70.6411C51.4458 69.7431 48.8598 69.3754 46.5992 70.1023C42.078 71.5647 38.7727 75.55 38.7384 80.4077C38.6699 89.7125 41.0504 98.9659 39.8773 108.271L40.2626 105.431C40.1171 106.475 40.0143 107.578 39.629 108.561L40.7079 106.004C40.6394 106.158 40.5538 106.304 40.4425 106.432L42.1122 104.268L41.941 104.431L44.1074 102.763L43.9104 102.874L46.4707 101.797L46.2395 101.848L49.0824 101.463L48.8084 101.446L51.6513 101.831L51.4029 101.728L53.9632 102.806L53.732 102.643L55.8984 104.311C55.7529 104.183 55.6159 104.037 55.5046 103.875L57.1743 106.039C55.5645 103.73 54.2715 101.172 53.1755 98.5811L54.2544 101.138C52.7302 97.4608 51.6855 93.6294 51.1375 89.6868L51.5228 92.5261C51.1803 89.9434 51.0604 87.3435 51.1546 84.7351H29.7474C29.9529 86.9416 29.9101 89.148 29.6361 91.3459L30.0214 88.5066C29.6618 91.1663 28.9596 93.7491 27.9406 96.2378L29.0196 93.6807C28.0177 96.0411 26.7418 98.2561 25.1834 100.309L26.8532 98.1449C26.348 98.7949 25.8427 99.4107 25.2262 99.9494L27.3926 98.2818C27.11 98.4956 26.8532 98.6666 26.5363 98.8291L29.0966 97.7515C28.8997 97.8456 28.7027 97.9055 28.4887 97.9482L31.3315 97.5634C31.126 97.5976 30.912 97.6061 30.7065 97.5719L33.5493 97.9568L33.2325 97.8798C35.3647 103.114 37.4968 108.348 39.629 113.582C39.8174 113.171 40.0314 112.795 40.2969 112.427L38.6271 114.591C38.9782 114.146 39.3635 113.77 39.8088 113.419C41.8125 111.846 42.9428 108.271 42.9428 105.859C42.9428 103.233 41.7783 100.103 39.8088 98.2989C37.8393 96.4944 35.0907 95.0405 32.2392 95.1688L29.3963 95.5536C27.581 96.0582 26.0054 96.9818 24.6696 98.2989L24.6782 98.2732Z" fill="white"/>
<path d="M58.5359 85.4449C59.6062 86.7791 60.6851 88.1132 61.7555 89.4474C61.9525 89.6526 62.1751 89.8066 62.4405 89.8921C62.6974 90.0289 62.9714 90.0888 63.2626 90.0802C63.7421 90.0546 64.1788 89.9177 64.5556 89.6184C64.9066 89.3447 65.2235 88.9513 65.3262 88.5066C65.4547 87.9593 65.4204 87.3435 65.1122 86.856C64.8296 86.4199 64.5556 85.9837 64.273 85.5561C63.9733 85.0943 63.5366 84.7266 62.9971 84.5726C62.4834 84.4358 61.7983 84.4956 61.3445 84.7864C60.8907 85.0772 60.4882 85.5219 60.3598 86.0607C60.2313 86.5995 60.2656 87.2238 60.5738 87.7113C60.8564 88.1474 61.1304 88.5836 61.413 89.0112L64.7782 86.4199C63.7078 85.0857 62.6289 83.7516 61.5586 82.4175C61.2332 82.0155 60.531 81.7932 60.0429 81.7932C59.5206 81.7932 58.8869 82.0241 58.5273 82.4175C58.1677 82.8109 57.8765 83.3582 57.9022 83.9312L57.9793 84.4956C58.082 84.8548 58.2619 85.1713 58.5273 85.4364L58.5359 85.4449Z" fill="white"/>
<path d="M61.1733 80.1426L61.3188 79.9972C61.5243 79.8005 61.6785 79.5781 61.7641 79.313C61.9011 79.0564 61.961 78.7828 61.9525 78.492C61.961 78.2012 61.9011 77.919 61.7641 77.671C61.6785 77.4059 61.5329 77.1749 61.3188 76.9868L60.8821 76.6533C60.5482 76.4566 60.1885 76.3625 59.8032 76.3625L59.2381 76.4395C58.8784 76.5421 58.5616 76.7217 58.2961 76.9868L58.1506 77.1322C57.9451 77.3289 57.7909 77.5512 57.7053 77.8164C57.5683 78.0729 57.5084 78.3466 57.5169 78.6374C57.5084 78.9281 57.5683 79.2104 57.7053 79.4584C57.7909 79.7235 57.9365 79.9544 58.1506 80.1426L58.5873 80.4761C58.9212 80.6728 59.2809 80.7669 59.6662 80.7669L60.2313 80.6899C60.591 80.5873 60.9078 80.4077 61.1733 80.1426Z" fill="white"/>
<path d="M58.8699 80.2195C58.5616 79.8176 58.5103 79.7834 58.7072 80.0913C58.7928 80.2537 58.8785 80.4162 58.9555 80.5873C59.1011 80.8781 59.2381 81.1688 59.3751 81.4596C59.7005 82.1438 60.0173 82.828 60.3342 83.5121C60.8822 84.718 61.4045 85.941 61.8926 87.1725C62.4149 88.4724 62.9116 89.7809 63.3825 91.1065C63.7679 92.1926 64.4015 93.8517 64.1618 94.8438L64.7098 93.903L64.5813 94.0313L66.6621 93.484L66.5508 93.4583L67.8267 94.4418L67.7667 94.3392V96.4944L67.8181 96.4174C69.2909 94.0826 65.5832 91.936 64.1189 94.2622L64.0676 94.3392C63.6651 94.9806 63.6908 95.8529 64.0676 96.4944C64.8211 97.7857 66.5851 98.0765 67.664 96.9904C68.5203 96.1266 68.5031 94.7754 68.3833 93.6379C68.1521 91.517 67.3643 89.5243 66.6022 87.5488C65.8401 85.5732 65.0609 83.7003 64.2131 81.8017C63.7936 80.861 63.3654 79.9373 62.9202 79.0137C62.4492 78.0302 62.0039 77.098 61.0192 76.5335C58.6301 75.1566 56.4723 78.8512 58.8613 80.2281L58.8699 80.2195Z" fill="white"/>
<path d="M22.3319 95.3997C20.8077 95.6648 20.3624 97.2298 20.1741 98.5298C20.0028 99.7356 19.9 100.941 19.9343 102.156C19.9942 104.422 20.3967 106.697 21.1674 108.827C21.5441 109.879 22.6402 110.691 23.8047 110.323C24.8408 109.99 25.7057 108.818 25.3032 107.689C25.0121 106.877 24.7723 106.056 24.5839 105.218C24.4812 104.764 24.4041 104.311 24.3356 103.858C24.4041 104.328 24.3185 103.678 24.3185 103.644C24.2928 103.413 24.2757 103.182 24.2586 102.951C24.1986 102.096 24.1986 101.232 24.2586 100.377C24.2757 100.146 24.2928 99.9152 24.3185 99.6843C24.3271 99.5902 24.4041 99.0087 24.3442 99.4705C24.3699 99.2738 24.4041 99.0771 24.4384 98.8804C24.4555 98.7692 24.4812 98.6666 24.5069 98.5554C24.3442 99.0172 24.0017 99.3337 23.4793 99.5218C24.5839 99.3251 25.3032 97.914 24.9778 96.8878C24.5925 95.699 23.5307 95.1859 22.3405 95.3911L22.3319 95.3997Z" fill="white"/>
<path d="M21.8439 117.541C22.4433 118.884 23.0171 120.235 23.6507 121.561C24.4471 123.246 25.9113 123.75 27.6667 123.844C29.0967 123.921 30.5353 123.964 31.9653 123.964C33.4809 123.964 35.0822 124.032 36.5721 123.699C37.9593 123.391 39.1238 122.519 39.9973 121.424C40.9392 120.252 42.0095 118.918 41.8297 117.327C41.6328 115.54 40.0914 114.488 38.396 114.3C36.9061 114.138 35.4846 114.685 34.2002 115.386C33.6008 115.711 33.0099 116.113 32.3849 116.31C31.7255 116.515 31.1689 116.549 30.4753 116.566C28.797 116.609 27.1101 116.601 25.4318 116.618C24.3786 116.626 23.4538 117.422 23.3253 118.473C23.2054 119.448 23.7963 120.629 24.8581 120.817C28.8398 121.544 32.8729 121.809 36.9061 121.527C38.396 121.424 39.7404 119.748 38.7556 118.311C38.1734 117.464 37.4541 116.874 36.4522 116.592C35.339 116.276 34.1231 116.977 33.8149 118.089C33.5066 119.2 34.1916 120.398 35.3134 120.723C35.202 120.688 35.1164 120.56 35.0565 120.475L36.9061 117.259C33.2583 117.516 29.5934 117.362 25.9969 116.703L25.4318 120.902C26.9731 120.885 28.5144 120.885 30.0557 120.86C31.4515 120.842 32.8558 120.731 34.1574 120.201C35.2449 119.756 36.5293 118.721 37.5825 118.559C37.6853 118.542 38.1391 118.508 38.0792 118.576C37.8737 118.816 37.5055 117.456 37.574 117.524C37.5311 117.49 37.4198 117.729 37.3171 117.875C37.1373 118.14 36.9574 118.414 36.7605 118.662C36.6492 118.798 36.1696 119.286 35.9984 119.38C35.6302 119.585 35.1764 119.637 34.6797 119.662C33.1555 119.731 31.6142 119.722 30.09 119.679C29.3707 119.662 28.66 119.637 27.9407 119.602C27.7866 119.602 27.1272 119.594 27.1016 119.551C27.23 119.534 27.3413 119.594 27.4355 119.731C27.5468 119.808 27.5211 119.748 27.367 119.534C27.2728 118.918 26.7676 118.208 26.5107 117.627L25.5089 115.395C25.0379 114.343 23.4966 114.086 22.5804 114.625C21.4929 115.258 21.3387 116.489 21.8097 117.55L21.8439 117.541Z" fill="white"/>
<path d="M47.6352 122.048C50.1099 125.999 55.1106 124.52 58.8612 123.861C59.6918 123.716 60.548 123.63 61.3358 123.323C62.6031 122.835 63.3567 121.946 63.8619 120.714C64.6154 118.867 65.0521 116.78 63.9989 114.959C63.4423 113.992 62.038 113.573 61.0704 114.189C60.1028 114.805 59.7089 116.079 60.2997 117.114C60.3853 117.259 60.4196 117.353 60.334 117.148C60.4967 117.541 60.3853 117.062 60.3597 117.259C60.3425 117.387 60.3597 117.533 60.3511 117.661C60.3511 117.875 60.4196 117.447 60.3083 117.815C60.2312 118.089 60.1627 118.362 60.0771 118.627C60.0257 118.79 59.9658 118.952 59.9058 119.115C59.8887 119.158 59.7346 119.508 59.8288 119.312C59.9401 119.098 59.7174 119.619 59.8716 119.286C59.7859 119.474 59.6661 119.38 59.8459 119.32C60.06 119.252 59.9658 119.286 59.8116 119.329C59.6575 119.371 59.4862 119.414 59.3236 119.448C58.63 119.585 57.9364 119.696 57.2428 119.816C56.5492 119.936 55.8984 120.056 55.2219 120.175C54.5026 120.304 53.9032 120.423 53.3552 120.449C53.1925 120.458 53.0298 120.466 52.8671 120.466C52.8072 120.466 52.2164 120.423 52.4476 120.458C52.6359 120.483 52.2763 120.415 52.242 120.406C52.1222 120.381 52.0023 120.321 51.8738 120.304C51.6598 120.261 52.0965 120.449 51.7711 120.261C51.6598 120.192 51.557 120.133 51.4457 120.064C51.694 120.227 51.5228 120.081 51.3772 119.979C51.1631 119.825 51.5827 120.312 51.3173 119.893C50.7264 118.944 49.382 118.491 48.3888 119.123C47.3955 119.756 46.9844 121.031 47.6181 122.048H47.6352Z" fill="white"/>
<path d="M25.5259 41.4012L24.6097 41.1018C23.7106 40.8111 22.6574 41.29 22.195 42.0853C20.8677 44.3602 20.7992 46.9173 20.9362 49.4744C21.0047 50.7744 21.1161 52.0914 20.9705 53.3828C20.8249 54.6742 20.3968 55.9741 19.9515 57.1971C19.0353 59.7114 17.571 62.2001 17.6652 64.9539C17.7594 67.7077 19.1637 70.1707 20.7735 72.3515C21.4586 73.2752 22.6317 73.7455 23.702 73.1212C24.6183 72.5824 25.1577 71.1286 24.4727 70.1964C23.2568 68.5458 21.8011 66.5788 21.9467 64.4151C22.0237 63.2691 22.5461 62.1488 22.9742 61.0883C23.4537 59.9252 23.9332 58.7707 24.3357 57.5819C25.1235 55.2215 25.3889 52.8354 25.2605 50.3553C25.1577 48.3284 24.8152 46.0707 25.8856 44.2405L23.4709 45.224L24.3871 45.5233C27.0159 46.37 28.1376 42.2393 25.5259 41.4012Z" fill="white"/>
<path d="M30.107 40.3236C29.7731 43.8471 29.9786 47.3449 30.9462 50.7572C31.2459 51.8348 32.4704 52.6045 33.5835 52.2539C34.6967 51.9032 35.4074 50.7744 35.0821 49.6198C34.8594 48.833 34.671 48.0377 34.5255 47.2337C34.4912 47.0456 34.457 46.866 34.4313 46.6779C34.4141 46.5496 34.397 46.4298 34.3799 46.3016C34.4141 46.5239 34.4141 46.5581 34.397 46.4042C34.3542 45.9937 34.3114 45.5917 34.2771 45.1812C34.1658 43.5563 34.2429 41.9399 34.397 40.315C34.4998 39.1947 33.3352 38.1257 32.2563 38.177C31.0061 38.2368 30.2269 39.1177 30.1156 40.315L30.107 40.3236Z" fill="white"/>
<path d="M59.4864 78.0387C62.7917 78.8255 62.9372 83.2299 63.2113 85.9153C63.4168 87.8908 63.725 89.8493 64.2816 91.765C64.5727 92.7485 64.941 93.6978 65.2835 94.6642C65.5746 95.4766 65.9257 96.3575 65.7287 97.2298C65.3948 98.7094 66.7392 100.428 68.3661 99.8639C75.1736 97.4864 70.2157 87.8481 67.9722 83.7772C66.6364 81.3655 62.9372 83.5207 64.273 85.9324C65.2835 87.754 66.1398 89.6355 66.7991 91.611C66.996 92.2011 68.289 95.3654 67.2272 95.7332L69.8646 98.3673C70.4554 95.7674 69.3423 93.5951 68.5802 91.1749C67.8695 88.9342 67.5869 86.6764 67.3386 84.3502C66.8933 80.057 65.4205 75.054 60.6253 73.908C57.9451 73.2751 56.8062 77.3973 59.4864 78.0302V78.0387Z" fill="white"/>
<path d="M37.7622 7.87657L38.2931 13.9914C38.3445 14.5644 38.4986 15.0861 38.9182 15.5051C39.2864 15.8729 39.9029 16.1551 40.4338 16.1294C40.9647 16.1038 41.5641 15.9242 41.9495 15.5051C42.3177 15.1117 42.6259 14.5558 42.5746 13.9914L42.0437 7.87657C41.9923 7.30358 41.8381 6.78189 41.4186 6.36284C41.0504 5.99509 40.4338 5.71287 39.9029 5.73853C39.372 5.76418 38.7726 5.94378 38.3873 6.36284C38.0191 6.75624 37.7108 7.31213 37.7622 7.87657Z" fill="white"/>
<path d="M42.4462 14.419C43.1484 14.342 43.8505 14.2394 44.527 14.0427C45.2035 13.846 45.8457 13.5723 46.4708 13.2559C46.7191 13.1191 46.9246 12.9395 47.0702 12.7086C47.2585 12.5033 47.387 12.2639 47.4555 11.9816C47.5411 11.6994 47.5582 11.4172 47.4897 11.1264C47.4726 10.8442 47.3956 10.5791 47.2329 10.3311C46.9417 9.87779 46.4964 9.47584 45.957 9.34755L45.3918 9.27058C45.0065 9.27058 44.6469 9.37321 44.3129 9.56136C44.1245 9.65543 43.9276 9.74951 43.7306 9.82648L44.2444 9.61267C43.5594 9.90345 42.8315 10.0916 42.0951 10.1942L42.6603 10.1173C42.5918 10.1258 42.5233 10.1344 42.4462 10.1429C42.1551 10.1344 41.8725 10.1942 41.6242 10.3311C41.3587 10.4166 41.1275 10.562 40.9391 10.7758C40.7336 10.9725 40.5795 11.1948 40.4939 11.4599C40.3569 11.7165 40.2969 11.9902 40.3055 12.281C40.3312 12.8368 40.511 13.4098 40.9306 13.7947L41.3673 14.1282C41.7012 14.3249 42.0609 14.419 42.4462 14.419Z" fill="white"/>
<path d="M31.2887 42.761C32.2478 45.8226 33.4551 48.9698 36.3066 50.7658C37.2571 51.3645 38.7042 50.9967 39.2351 49.9961C39.7917 48.9442 39.4834 47.7127 38.4644 47.0713C38.2932 46.9686 38.1305 46.8489 37.9763 46.7292L38.4131 47.0627C37.9507 46.695 37.5396 46.2759 37.18 45.8141L37.514 46.2503C36.9488 45.4977 36.5207 44.6681 36.1525 43.8043L36.3665 44.3175C35.9983 43.4366 35.7072 42.5386 35.4246 41.6235C35.0907 40.5545 33.9175 39.7677 32.7872 40.1269C31.6569 40.4861 30.9377 41.615 31.2887 42.761Z" fill="white"/>
<path d="M38.2846 46.0878C38.5158 45.9851 38.5329 45.9766 38.3274 46.0621C38.4558 46.0108 38.5757 45.968 38.7042 45.9167C38.9268 45.8397 39.1494 45.7628 39.3721 45.6944C39.8516 45.549 40.3397 45.4207 40.8363 45.3266C41.0333 45.2924 41.2302 45.2582 41.4272 45.224C40.9648 45.2924 41.7782 45.1898 41.8553 45.1898C42.3263 45.1556 42.7972 45.1385 43.2596 45.147C43.722 45.1556 44.2015 45.1898 44.6639 45.2411C44.2015 45.1898 45.0064 45.301 45.0921 45.3181C45.289 45.3523 45.486 45.395 45.6829 45.4463C46.1367 45.5575 46.5906 45.6858 47.0358 45.8397C47.1043 45.8654 47.8493 46.1476 47.464 45.9851C47.7123 46.0878 47.9521 46.2075 48.1918 46.3272C49.1937 46.8232 50.5552 46.6265 51.1203 45.5575C51.6341 44.5911 51.42 43.1629 50.3497 42.6327C45.837 40.4006 40.6993 40.3492 36.1096 42.3847C35.0821 42.8379 34.7652 44.4115 35.3389 45.3095C36.024 46.37 37.1714 46.5667 38.2675 46.0792L38.2846 46.0878Z" fill="white"/>
<path d="M66.9275 13.0164C65.0008 14.6585 63.6051 17.0018 63.0399 19.4562C62.9115 20.0121 62.9629 20.6022 63.254 21.1068C63.5109 21.5515 64.0247 21.9706 64.5299 22.0903C65.6174 22.3383 66.8932 21.7653 67.1672 20.5937C67.2957 20.0207 67.4755 19.4562 67.7067 18.9089L67.4926 19.422C67.8437 18.6096 68.289 17.8399 68.8284 17.1386L68.4945 17.5748C68.9312 17.0189 69.4193 16.5057 69.9587 16.0439C70.3526 15.7018 70.5838 15.0348 70.5838 14.5302C70.5838 14.0256 70.3526 13.3756 69.9587 13.0164C69.5648 12.6572 69.0168 12.3665 68.4431 12.3921C67.8694 12.4178 67.3813 12.6316 66.9275 13.0164Z" fill="white"/>
<path d="M37.7024 43.7787C37.9422 43.676 37.9764 43.6589 37.8137 43.7273C37.9507 43.676 38.0963 43.6162 38.2333 43.5648C38.5159 43.4622 38.7985 43.3681 39.0896 43.2826C39.5948 43.1372 40.1086 43.0175 40.6224 42.9234C40.7679 42.8978 40.9135 42.8721 41.0676 42.8465C40.8707 42.8721 40.9049 42.8721 41.1704 42.8379C41.4701 42.8123 41.7698 42.7866 42.0695 42.7695C42.5918 42.7438 43.1227 42.7438 43.6451 42.7695C44.5784 42.8208 45.4604 42.9576 46.6164 43.2997C47.7724 43.6418 48.3204 43.8898 49.3993 44.5141C50.3669 45.0786 51.7884 44.7707 52.3278 43.7444C52.8673 42.7182 52.5933 41.4182 51.5572 40.8196C46.6592 37.9717 40.6994 37.7836 35.5531 40.067C34.4999 40.5374 34.2516 42.0768 34.7825 42.9919C35.4161 44.078 36.6492 44.2319 37.711 43.7615L37.7024 43.7787Z" fill="white"/>
<path d="M8.28902 69.5037C6.17399 68.9734 4.68405 71.043 5.39477 72.9673C5.75441 73.9251 6.20824 74.8317 6.79908 75.6612C7.97219 77.3033 9.41076 78.6716 10.9007 80.0314C12.3906 81.3912 13.8977 83.3154 15.9528 83.9398C18.3761 84.6752 21.2361 83.0161 21.2532 80.3649C21.2532 78.6973 19.4465 77.7651 18.0336 78.5177C17.7767 78.6545 17.5112 78.7999 17.2544 78.9367C16.2696 79.467 15.8757 80.9123 16.4837 81.8616C17.1345 82.8622 18.359 83.1957 19.4122 82.6313C19.6691 82.4944 19.9345 82.349 20.1914 82.2122L16.9718 80.3649C16.9718 80.5531 16.9718 80.5531 16.9889 80.3649C16.9889 80.2195 17.0317 80.0827 17.1173 79.9544C16.9461 80.3051 17.4342 79.6551 17.1173 79.9544C17.2886 79.8005 17.3999 79.7577 17.1345 79.9031C16.9204 80.0143 17.4684 79.6466 17.1602 79.8689C16.9718 79.9117 16.9632 79.9117 17.1602 79.8775C17.3485 79.8518 17.34 79.8518 17.1516 79.8604C16.9547 79.8518 16.9547 79.8518 17.1516 79.8604C17.3485 79.886 17.34 79.8775 17.1173 79.8261C16.792 79.5952 17.2458 79.9459 17.0403 79.7919C16.9204 79.6979 16.7748 79.638 16.6464 79.5525C16.1669 79.2446 16.9204 79.8176 16.4923 79.4242C16.3553 79.2959 16.2182 79.1676 16.0812 79.0393C15.8586 78.8255 15.636 78.6032 15.4133 78.3894C14.9081 77.9019 14.3944 77.423 13.872 76.9526C12.8787 76.0461 11.8854 75.1481 11.012 74.1304C10.9178 74.0192 10.8151 73.8995 10.7209 73.7883C10.3441 73.335 10.9606 74.1304 10.6181 73.66C10.4297 73.3949 10.2414 73.1298 10.0701 72.8476C9.89884 72.5653 9.75327 72.2831 9.6077 71.9923C9.35082 71.4792 9.73615 72.3857 9.5392 71.847L9.47926 71.6759C9.40219 71.4364 9.41076 71.4707 9.49639 71.77L9.20525 72.8476L9.02543 73.0956L8.08351 73.6429L8.19483 73.6087H7.05597L7.16728 73.6344C8.25477 73.908 9.5392 73.2837 9.80465 72.1377C10.0701 70.9917 9.4707 69.803 8.30615 69.5037H8.28902Z" fill="white"/>
<path d="M8.14329 68.4175L8.59712 68.828L8.88826 69.9056V69.7859C8.53718 70.4016 8.18611 71.0174 7.83503 71.6331L7.92922 71.5647L5.00071 70.795C7.31269 73.8738 9.85587 76.7645 12.6987 79.3643C15.5416 81.9642 18.5129 84.7522 22.2464 85.4364C23.3852 85.6416 24.5583 85.1285 24.8837 83.9397C25.1663 82.9049 24.5326 81.5195 23.3852 81.3057C20.3197 80.7498 17.7594 78.2183 15.5159 76.1401C13.0327 73.8396 10.7293 71.3338 8.69988 68.6228C8.0491 67.759 6.80748 67.1347 5.77137 67.8531C4.10161 69.0076 4.40131 71.0345 5.98544 72.0864C6.94449 72.7278 8.35736 72.2746 8.91395 71.3167C9.53048 70.2733 9.1109 69.0333 8.14329 68.3919V68.4175Z" fill="white"/>
<path d="M7.32988 69.3839C11.5771 74.9514 16.7405 79.6979 22.7259 83.3668C23.7107 83.974 25.0807 83.5806 25.6544 82.5971C26.2282 81.6136 25.8771 80.2794 24.8838 79.6722C19.6005 76.4395 14.7368 72.1035 11.0205 67.2288C10.3183 66.3137 9.17946 65.8262 8.09198 66.4591C7.18431 66.9893 6.61916 68.4603 7.32132 69.3839H7.32988Z" fill="white"/>
<path d="M10.0014 69.6063L10.1812 69.7345C10.0785 69.649 10.0785 69.6576 10.1898 69.7516C10.3354 69.8714 10.4724 69.9997 10.618 70.1194C10.8663 70.3503 11.106 70.5898 11.3458 70.8292C11.8253 71.3253 12.2877 71.8469 12.7672 72.3515C13.8205 73.4719 14.908 74.558 16.0297 75.6185C18.3074 77.7822 20.7222 79.7834 23.2225 81.6905C24.1131 82.3747 25.6544 81.8616 26.151 80.9208C26.7504 79.7919 26.3394 78.7229 25.3804 77.996C24.4213 77.269 23.1797 76.2684 22.1265 75.3619C20.9534 74.3613 19.8145 73.3265 18.7013 72.266C17.5881 71.2055 16.5692 70.1622 15.5416 69.0675C14.5141 67.9728 13.4351 66.8268 12.1593 65.9117C11.243 65.2532 9.73598 65.7236 9.23077 66.6814C8.64849 67.7846 9.02526 68.905 10.0014 69.6063Z" fill="white"/>
<path d="M10.8407 63.1152C8.76851 62.3968 6.25102 63.0981 4.88952 64.817C4.27299 65.6038 3.78491 66.4676 3.57084 67.4511C3.3482 68.4859 3.33964 69.4951 3.57084 70.5299C3.68215 71.0345 4.1103 71.5476 4.55557 71.8042C5.00084 72.0607 5.69443 72.189 6.2082 72.018C7.35563 71.6502 7.96359 70.5556 7.70671 69.3839C7.68102 69.2556 7.65533 69.1273 7.63821 68.9991L7.71527 69.5635C7.66389 69.1701 7.66389 68.7853 7.71527 68.3919L7.63821 68.9563C7.69815 68.5458 7.8009 68.1438 7.96359 67.7675L7.74952 68.2807C7.88653 67.9642 8.05779 67.6649 8.2633 67.3913L7.92934 67.8274C8.12629 67.5708 8.34892 67.3485 8.59725 67.1518L8.16054 67.4853C8.39174 67.3143 8.6315 67.1774 8.89695 67.0577L8.38318 67.2715C8.66575 67.1603 8.94833 67.0834 9.24803 67.0406L8.68288 67.1176C8.98258 67.0834 9.27372 67.0834 9.57342 67.1176L9.00827 67.0406C9.24803 67.0748 9.48779 67.1347 9.71899 67.2117C10.2242 67.3827 10.9178 67.263 11.3716 66.9978C11.8255 66.7327 12.2365 66.2282 12.3564 65.7236C12.4848 65.1762 12.4505 64.5605 12.1423 64.073C11.834 63.5855 11.4144 63.2776 10.8664 63.0895L10.8407 63.1152Z" fill="white"/>
<path d="M5.71153 68.6484C3.91333 68.1695 2.6974 69.6234 2.52614 71.2568C2.36345 72.7962 3.03992 74.1646 3.99896 75.3277C5.67728 77.3888 8.16908 79.0137 10.3954 80.4333C14.9594 83.3411 20.1143 85.3765 25.4318 86.3857C26.5621 86.5995 27.7438 86.0692 28.0692 84.889C28.3604 83.8457 27.7181 82.4773 26.5707 82.2549C22.589 81.4938 18.7528 80.1853 15.1821 78.2696C13.401 77.3118 11.6884 76.2257 10.07 75.0112C9.31651 74.4468 8.57154 73.8567 7.88651 73.2067C7.58681 72.9245 7.29567 72.6337 7.06447 72.3002C7.11585 72.3772 6.79902 71.7529 6.79046 71.7529C6.57639 71.5391 6.86752 71.6502 6.73908 71.8384L5.96842 72.6081L6.10543 72.5226L4.45279 72.7364L4.58123 72.7706C7.24429 73.4804 8.38315 69.3582 5.7201 68.6484H5.71153Z" fill="white"/>
<path d="M11.1146 82.5372C13.7776 83.9996 16.4407 85.4706 19.1038 86.933C21.5956 88.3013 24.1302 90.0032 26.9302 90.6361C28.0605 90.8927 29.2508 90.294 29.5676 89.1395C29.8673 88.0619 29.208 86.762 28.0691 86.5054C25.5773 85.9409 23.2653 84.3331 20.9962 83.0845L13.2724 78.8341C12.262 78.2782 10.9348 78.5861 10.3439 79.6038C9.75309 80.6215 10.0956 81.9727 11.1146 82.5286V82.5372Z" fill="white"/>
<path d="M35.3818 52.3565C35.1592 52.2539 34.9365 52.1427 34.6968 52.0828C34.6625 52.0743 34.6197 52.0657 34.5855 52.0657C34.3714 52.0315 34.1487 51.9887 33.9347 51.9802C33.6864 51.9716 33.4295 52.023 33.1897 52.0657C33.1126 52.0743 33.0356 52.0914 32.9585 52.1256C32.6588 52.2282 32.3505 52.3479 32.0851 52.5361C31.8881 52.6815 31.6912 52.8183 31.5114 52.9893C31.3915 53.1005 31.2973 53.2374 31.1946 53.3656C31.0918 53.4939 30.9976 53.6137 30.912 53.7505C30.7835 53.9643 30.6808 54.238 30.6037 54.4518C30.578 54.5202 30.5523 54.5886 30.5352 54.657C30.4753 54.905 30.4496 55.1616 30.4325 55.4182C30.4239 55.5807 30.4581 55.7346 30.4753 55.8971C30.4924 56.0596 30.5095 56.2306 30.5609 56.3846C30.7322 56.8977 30.9462 57.2483 31.2973 57.6503C31.3401 57.7016 31.3829 57.7444 31.4343 57.7786C31.6141 57.9325 31.8025 58.0865 32.008 58.2147C32.2135 58.343 32.4447 58.4114 32.6588 58.497C32.7187 58.5226 32.7872 58.5483 32.8558 58.5568C33.0955 58.6167 33.3438 58.6338 33.5836 58.6594C33.6607 58.668 33.7292 58.6766 33.8062 58.6766C33.8747 58.6766 33.9347 58.6766 34.0032 58.6594C34.2515 58.6338 34.5084 58.6081 34.7482 58.5483C34.8081 58.5312 34.8766 58.5141 34.9365 58.4884C35.1677 58.4029 35.3989 58.3088 35.613 58.1976C35.6729 58.172 35.7243 58.1378 35.7757 58.095C35.9726 57.9582 36.1696 57.8128 36.3408 57.6503C36.5121 57.4878 36.6491 57.2825 36.7947 57.0858C36.8375 57.0345 36.8717 56.9747 36.906 56.9148C37.1629 56.4102 37.2571 56.0339 37.3085 55.478C37.3085 55.4011 37.317 55.3241 37.3085 55.2471C37.2913 54.9906 37.2656 54.7254 37.1971 54.4689C37.1115 54.1439 36.9745 53.8189 36.7947 53.5367C36.6577 53.3314 36.5035 53.1347 36.3408 52.9466C36.2895 52.8782 36.2295 52.8183 36.161 52.767C35.9213 52.5532 35.6473 52.3223 35.3476 52.1854C35.1164 52.0743 34.8766 51.9631 34.6368 51.8947C34.3971 51.8263 34.1145 51.8006 33.8576 51.7749C33.5237 51.7322 33.164 51.792 32.8472 51.869C32.5989 51.9289 32.3677 52.0486 32.1365 52.1512C32.0508 52.194 31.9652 52.2368 31.8881 52.2881C31.6741 52.4335 31.4514 52.5959 31.2631 52.7755C31.0747 52.9551 30.9205 53.1775 30.7664 53.3913C30.715 53.4597 30.6637 53.5367 30.6294 53.6137C30.5095 53.8446 30.3982 54.1011 30.3211 54.3491C30.304 54.3919 30.2955 54.4432 30.2869 54.486C30.2869 54.5031 30.2869 54.5287 30.2783 54.5458C30.2526 54.6741 30.2013 54.9991 30.2013 55.136C30.2013 55.2215 30.2612 55.6405 30.2869 55.7175C30.3297 55.9056 30.4239 56.0852 30.5181 56.2563C30.5352 56.2819 30.5438 56.3076 30.5609 56.3333C30.6637 56.4957 30.8092 56.6753 30.9377 56.8207C30.9548 56.8378 30.9719 56.8549 30.989 56.872C31.1346 57.0089 31.3059 57.1372 31.4686 57.2483C31.4943 57.2654 31.5199 57.2825 31.5542 57.2997C31.7255 57.3937 31.931 57.4707 32.1108 57.5391C32.1365 57.5477 32.1622 57.5562 32.1878 57.5648C32.419 57.6332 32.6674 57.6503 32.9071 57.6674C33.2068 57.6931 33.5151 57.6332 33.8062 57.5648C33.8662 57.5477 33.9176 57.5306 33.9775 57.5135C34.2001 57.4279 34.4399 57.3424 34.6454 57.2227C34.8937 57.0773 35.1335 56.8977 35.3304 56.6839C35.476 56.5214 35.6301 56.3333 35.7414 56.1366C35.7586 56.1109 35.7671 56.0852 35.7757 56.0596C35.8613 55.88 35.9555 55.6833 36.0155 55.4951C36.0155 55.4695 36.0326 55.4438 36.0326 55.4096C36.0668 55.2215 36.1096 54.982 36.1182 54.7939C36.1182 54.7682 36.1182 54.734 36.1182 54.7083C36.1096 54.5031 36.0754 54.2636 36.0326 54.0584C35.9213 53.588 35.6729 53.2032 35.3561 52.8525C35.2105 52.69 35.0136 52.5532 34.8252 52.4249C34.7824 52.3907 34.731 52.365 34.6796 52.3394C34.1916 52.1085 33.8576 52.0144 33.3096 51.9887C33.2582 51.9887 33.1983 51.9887 33.1469 51.9887C32.9071 52.0058 32.6588 52.0315 32.4276 52.0914C32.3762 52.1085 32.3163 52.1256 32.2649 52.1427C32.0508 52.2282 31.8196 52.3052 31.6141 52.4249C31.4086 52.5446 31.2374 52.69 31.0661 52.8354C31.0147 52.8782 30.9719 52.9124 30.9377 52.9637C30.7921 53.1262 30.638 53.3058 30.5267 53.5025C30.4753 53.5966 30.4325 53.7163 30.3896 53.8104C30.3468 53.9044 30.2869 54.0327 30.2526 54.1439C30.2184 54.2551 30.2184 54.3834 30.2013 54.486C30.1841 54.5886 30.1584 54.7254 30.1584 54.8452C30.1584 54.8708 30.1584 54.8965 30.1584 54.9221C30.1756 55.136 30.2013 55.3583 30.2441 55.5721C30.3126 55.8543 30.441 56.0938 30.6294 56.299C30.7835 56.53 30.9805 56.7181 31.2288 56.8464C31.4771 57.0003 31.7426 57.0858 32.0252 57.103C32.3077 57.1628 32.5903 57.1543 32.8814 57.0687C33.3952 56.8977 33.9004 56.5813 34.1573 56.0852L34.3714 55.5721C34.4741 55.1958 34.4741 54.811 34.3714 54.4347C34.3714 54.4176 34.3714 54.4005 34.3628 54.3834L34.4399 54.9478C34.4399 54.8879 34.4399 54.8281 34.4399 54.7768L34.3628 55.3412C34.3628 55.2899 34.3799 55.2471 34.4056 55.2044L34.1916 55.7175C34.2173 55.6662 34.2429 55.6234 34.2772 55.5721L33.9432 56.0083C33.9861 55.9484 34.0374 55.8971 34.0974 55.8543L33.6607 56.1879C33.7292 56.1366 33.8062 56.0938 33.8833 56.0596L33.3695 56.2734C33.4637 56.2306 33.5665 56.205 33.6692 56.1879L33.1041 56.2648C33.1983 56.2563 33.2925 56.2477 33.3867 56.2648L32.8215 56.1879C32.8986 56.1964 32.9671 56.2135 33.0356 56.2477L32.5218 56.0339C32.5732 56.0596 32.616 56.0852 32.6674 56.1195L32.2307 55.7859C32.2307 55.7859 32.2992 55.8458 32.3334 55.8885L31.9995 55.4524C31.9995 55.4524 32.0508 55.5379 32.0765 55.5807L31.8625 55.0675C31.8881 55.1274 31.9053 55.1873 31.9138 55.2471L31.8368 54.6827C31.8368 54.734 31.8368 54.7853 31.8368 54.8366L31.9138 54.2722C31.9138 54.3235 31.8967 54.3663 31.8796 54.409L32.0937 53.8959C32.068 53.9557 32.0337 54.0156 31.9909 54.0669L32.3249 53.6308C32.2735 53.6906 32.2221 53.7419 32.1622 53.7933L32.5989 53.4597C32.5304 53.511 32.4533 53.5538 32.3677 53.588L32.8814 53.3742C32.7787 53.417 32.6759 53.4426 32.5732 53.4597L33.1383 53.3827C33.0527 53.3913 32.9671 53.3913 32.8814 53.3827L33.4466 53.4597C33.3781 53.4512 33.3181 53.4341 33.2582 53.4084L33.772 53.6222C33.7292 53.6051 33.6864 53.5795 33.6435 53.5538L34.0802 53.8873C34.0802 53.8873 34.0032 53.8275 33.9775 53.7847L34.3114 54.2209C34.3114 54.2209 34.2515 54.1353 34.2344 54.084L34.4484 54.5972V54.5715C34.4399 54.9478 34.4399 55.3326 34.4399 55.7089C34.457 55.5892 34.4913 55.4695 34.5426 55.3583L34.3286 55.8714C34.3799 55.7603 34.4399 55.6576 34.5084 55.555L34.1744 55.9912C34.2601 55.88 34.3543 55.7859 34.457 55.7089L34.0203 56.0425C34.1145 55.9655 34.2258 55.9056 34.3371 55.8629L33.8234 56.0767C33.9176 56.0425 34.0117 56.0083 34.1145 55.9912L33.5493 56.0681C33.6692 56.051 33.7891 56.051 33.909 56.0681L33.3438 55.9912C33.4637 56.0083 33.575 56.0425 33.6864 56.0852L33.1726 55.8714C33.3096 55.9313 33.4295 55.9997 33.5493 56.0938L33.1126 55.7603C33.224 55.8543 33.3267 55.957 33.4209 56.0681L33.087 55.632C33.1555 55.7261 33.2154 55.8287 33.2668 55.9399L33.0527 55.4267C33.0955 55.5379 33.1298 55.6491 33.1469 55.7688L33.0698 55.2044C33.087 55.307 33.087 55.4182 33.0698 55.5208L33.1469 54.9564C33.1298 55.059 33.1041 55.1531 33.0698 55.2471L33.2839 54.734C33.2496 54.811 33.2068 54.8879 33.1469 54.9564L33.4808 54.5202C33.4209 54.5972 33.3524 54.6656 33.2753 54.7254L33.712 54.3919C33.6093 54.4689 33.498 54.5373 33.3781 54.5801L33.8919 54.3663C33.7634 54.4176 33.6264 54.4518 33.4894 54.4774L34.0546 54.4005C33.9176 54.4176 33.7805 54.4176 33.635 54.4005L34.2001 54.4774C34.0717 54.4603 33.9518 54.4261 33.8319 54.3748L34.3457 54.5886C34.2601 54.5458 34.1744 54.5031 34.0974 54.4432L34.5341 54.7768C34.4656 54.7254 34.4056 54.6656 34.3457 54.5972L34.6796 55.0333C34.6197 54.9564 34.5769 54.8794 34.5426 54.7939L34.7567 55.307C34.7225 55.2215 34.7053 55.1445 34.6882 55.059L34.7653 55.6234C34.7567 55.5294 34.7653 55.4353 34.7653 55.3326L34.6882 55.8971C34.7053 55.7859 34.7396 55.6833 34.7738 55.5807L34.5598 56.0938C34.6111 55.9741 34.6796 55.8543 34.7653 55.7517L34.4313 56.1879C34.5084 56.0938 34.594 56.0083 34.6882 55.9313L34.2515 56.2648C34.3457 56.1879 34.4485 56.128 34.5598 56.0767L34.046 56.2905C34.1487 56.2477 34.2429 56.2221 34.3543 56.205L33.7891 56.2819C33.8747 56.2734 33.9604 56.2734 34.046 56.2819L33.4808 56.205C33.5665 56.2135 33.6521 56.2392 33.7292 56.2734L33.2154 56.0596L33.2496 56.0767C33.498 56.2306 33.7634 56.3162 34.046 56.3333C34.3286 56.3931 34.6111 56.3846 34.9023 56.299C35.1849 56.2306 35.4246 56.1023 35.6301 55.9142C35.8613 55.7603 36.0497 55.5636 36.1782 55.3155C36.4436 54.8195 36.572 54.2209 36.3922 53.665L36.1782 53.1518C35.9898 52.8269 35.7329 52.5788 35.4075 52.3821L35.3818 52.3565Z" fill="#5B5B5B"/>
<path d="M53.1157 51.8177C52.876 51.8348 52.6191 51.869 52.3879 51.9118C52.3108 51.9289 52.2423 51.946 52.1738 51.9802C51.9512 52.0657 51.7285 52.1513 51.5145 52.2624C51.3775 52.3394 51.2576 52.442 51.1377 52.5361C51.0178 52.6302 50.8979 52.7157 50.7866 52.8183C50.6667 52.9295 50.5726 53.0663 50.4784 53.1946C50.3414 53.3742 50.2044 53.5453 50.1102 53.7505C49.9817 54.0327 49.8361 54.3235 49.7676 54.6314C49.7163 54.8709 49.6906 55.1189 49.6649 55.3583C49.6649 55.4267 49.6563 55.4952 49.6649 55.5721C49.6735 55.8116 49.7163 56.0596 49.7591 56.2991C49.7762 56.376 49.7933 56.4445 49.8105 56.5129C49.9132 56.7951 50.0245 57.103 50.2044 57.351C50.3414 57.5391 50.4784 57.7358 50.6411 57.9069C50.8038 58.0779 51.0178 58.2233 51.2148 58.3687C51.4631 58.5483 51.7628 58.6509 52.0454 58.7621C52.2594 58.8476 52.4821 58.8647 52.7133 58.8989C52.9445 58.9331 53.1585 58.9674 53.3812 58.9417C53.6894 58.916 54.0234 58.8818 54.3317 58.7878C54.5543 58.7108 54.7769 58.6167 54.991 58.5141C55.0509 58.4884 55.1109 58.4542 55.1708 58.42C55.3678 58.3003 55.5561 58.1463 55.736 57.9924C55.7959 57.9496 55.8473 57.8983 55.8987 57.8385C56.0528 57.6674 56.1984 57.4707 56.3354 57.2826C56.3782 57.2227 56.4124 57.1628 56.4467 57.0944C56.5837 56.8122 56.7293 56.5129 56.7721 56.1964C56.8063 55.957 56.8577 55.709 56.8577 55.461C56.8577 55.2985 56.832 55.136 56.8063 54.9735C56.7721 54.7255 56.7464 54.5031 56.6608 54.2808C56.5494 53.99 56.4381 53.6821 56.2583 53.4255C56.0785 53.169 55.8901 52.8953 55.6503 52.69C55.4705 52.5361 55.2821 52.3907 55.0852 52.2539C55.0253 52.2111 54.9653 52.1769 54.8968 52.1427C54.6142 52.0059 54.3145 51.8605 53.9977 51.8006C53.7494 51.7579 53.4925 51.7151 53.2442 51.7065C52.9702 51.7065 52.6961 51.7579 52.4307 51.8006C52.0711 51.8605 51.7285 52.0144 51.4117 52.1684C51.0949 52.3223 50.8123 52.5618 50.5469 52.7841C50.4784 52.844 50.4184 52.9038 50.3585 52.9723C50.1958 53.1604 50.0331 53.3657 49.9046 53.5709C49.8618 53.6393 49.8276 53.7078 49.7933 53.7762C49.6906 54.0071 49.5793 54.238 49.5022 54.486C49.4508 54.6485 49.4423 54.8195 49.4166 54.9906C49.3909 55.1616 49.3566 55.3241 49.3738 55.4952C49.408 56.0425 49.5108 56.4445 49.7591 56.9319C49.8704 57.1543 50.0417 57.3424 50.1958 57.5306C50.3499 57.7187 50.564 57.8641 50.7609 57.9924C50.8894 58.0779 51.0178 58.1207 51.1634 58.1805C51.309 58.2404 51.4374 58.3088 51.5915 58.3345C52.1396 58.4286 52.5249 58.4457 53.0644 58.3174C53.1243 58.3003 53.1842 58.2832 53.2442 58.2575C53.4668 58.172 53.7066 58.095 53.9035 57.9582C54.3402 57.676 54.6314 57.3852 54.9139 56.9576C55.0424 56.7609 55.1194 56.53 55.2051 56.3162C55.2907 56.0853 55.2993 55.8287 55.325 55.5807C55.3421 55.4182 55.3078 55.2728 55.2907 55.1018C55.2736 54.9307 55.2564 54.7853 55.1965 54.6314C55.1109 54.409 55.0338 54.1781 54.8968 53.9814C54.7598 53.7847 54.6142 53.5795 54.443 53.4084C54.0491 53.0321 53.6894 52.8525 53.1928 52.6558C53.1329 52.6302 53.0644 52.6131 53.0044 52.596C52.7989 52.5532 52.5763 52.5276 52.3708 52.5105C52.3365 52.5105 52.2937 52.5105 52.2594 52.5105C52.0454 52.5105 51.8142 52.5532 51.6087 52.596C51.5744 52.596 51.5487 52.6045 51.5145 52.6131C51.4032 52.6473 51.2833 52.7071 51.1805 52.7499C51.0606 52.8012 50.9408 52.844 50.838 52.9039C50.3756 53.1775 49.9988 53.665 49.8533 54.1781C49.7676 54.4603 49.7505 54.7426 49.819 55.0333C49.8361 55.3156 49.9132 55.5807 50.0759 55.8287C50.367 56.282 50.8123 56.6839 51.3518 56.8122C51.8912 56.9405 52.4906 56.8892 53.0044 56.5984C53.0301 56.5813 53.0644 56.5642 53.09 56.5556L52.5763 56.7694C52.6362 56.7438 52.6961 56.7267 52.7647 56.7181L52.1995 56.7951C52.268 56.7951 52.3279 56.7951 52.3964 56.7951L51.8313 56.7181C51.9169 56.7352 52.0026 56.7523 52.0882 56.7865L51.5744 56.5727C51.6429 56.6069 51.7114 56.6412 51.7799 56.6925L51.3432 56.3589C51.4117 56.4102 51.4802 56.4787 51.5316 56.5471L51.1976 56.1109C51.2405 56.1622 51.2661 56.2221 51.3004 56.282L51.0863 55.7688C51.112 55.8287 51.1291 55.8886 51.1377 55.957L51.0606 55.3925C51.0606 55.461 51.0606 55.5208 51.0606 55.5892L51.1377 55.0248C51.1291 55.0847 51.112 55.1445 51.0863 55.2044L51.3004 54.6913C51.2747 54.7511 51.2405 54.7939 51.2062 54.8452L51.5402 54.409C51.4973 54.4689 51.446 54.5117 51.386 54.563L51.8227 54.2294C51.7542 54.2808 51.6857 54.3235 51.6087 54.3577L52.1224 54.1439C52.0368 54.1781 51.9426 54.2038 51.8484 54.2209L52.4136 54.1439C52.3451 54.1439 52.268 54.1439 52.1995 54.1439L52.7647 54.2209C52.6961 54.2123 52.6276 54.1952 52.5591 54.1696L53.0729 54.3834C53.013 54.3577 52.9616 54.3321 52.9102 54.2893L53.3469 54.6228C53.2955 54.5801 53.2442 54.5288 53.2014 54.4775L53.5353 54.9136C53.4925 54.8537 53.4582 54.7939 53.4326 54.7255L53.6466 55.2386C53.6209 55.1616 53.5953 55.0847 53.5867 54.9991L53.6638 55.5636C53.6552 55.4695 53.6552 55.3669 53.6638 55.2728L53.5867 55.8373C53.6038 55.7004 53.6466 55.5636 53.698 55.4353L53.4839 55.9484C53.5439 55.8201 53.6124 55.7004 53.698 55.5892L53.3641 56.0254C53.4497 55.9142 53.5524 55.8287 53.6638 55.7346L53.227 56.0682C53.3641 55.9655 53.5011 55.8886 53.6552 55.8201L53.1414 56.0339C53.2784 55.9741 53.424 55.9399 53.5696 55.9142L53.0044 55.9912C53.1414 55.9741 53.2784 55.9741 53.4154 55.9912L52.8503 55.9142C52.9616 55.9313 53.0729 55.9655 53.1757 56.0083L52.6619 55.7945C52.7732 55.8458 52.8845 55.9057 52.9787 55.9826L52.542 55.6491C52.6619 55.7432 52.7647 55.8458 52.8503 55.9655L52.5163 55.5294C52.602 55.6491 52.679 55.7774 52.739 55.9142L52.5249 55.4011C52.5848 55.5379 52.6191 55.6833 52.6448 55.8287L52.5677 55.2643C52.5848 55.384 52.5848 55.5123 52.5677 55.632L52.6448 55.0676C52.6276 55.1958 52.5934 55.307 52.5506 55.4267L52.7647 54.9136C52.7218 55.0077 52.6705 55.0847 52.6191 55.1702L52.953 54.734C52.8845 54.8281 52.7989 54.9051 52.7047 54.982L53.1414 54.6485C53.0387 54.7255 52.9273 54.7853 52.816 54.8366L53.3298 54.6228C53.1928 54.6827 53.0472 54.7169 52.8931 54.7426L53.4582 54.6656C53.3041 54.6827 53.1585 54.6827 53.0044 54.6656L53.5696 54.7426C53.4326 54.7255 53.2956 54.6913 53.1671 54.6399L53.6809 54.8537C53.561 54.8024 53.4582 54.7426 53.3555 54.6656L53.7922 54.9991C53.7066 54.9307 53.6381 54.8623 53.5696 54.7768L53.9035 55.2129C53.8436 55.136 53.7922 55.0505 53.7579 54.9564L53.972 55.4695C53.9292 55.3583 53.8949 55.2471 53.8778 55.1274L53.9549 55.6919C53.9378 55.5636 53.9463 55.4353 53.9549 55.307L53.8778 55.8715C53.8949 55.7261 53.9378 55.5978 53.9891 55.461L53.7751 55.9741C53.835 55.8287 53.9121 55.7004 54.0063 55.5807L53.6723 56.0168C53.7579 55.9142 53.8436 55.8201 53.9463 55.7432L53.5096 56.0767C53.5953 56.0083 53.6894 55.957 53.7836 55.9142L53.2699 56.128C53.3726 56.0853 53.4754 56.0596 53.5781 56.0425L53.013 56.1195C53.013 56.1195 53.0815 56.1195 53.1072 56.1109C53.3983 56.1195 53.6809 56.0596 53.9292 55.9228C54.1947 55.8373 54.4258 55.6919 54.6142 55.4781C54.8197 55.2814 54.9739 55.059 55.0595 54.7939C55.1965 54.5373 55.2564 54.2636 55.2479 53.9729C55.2222 53.417 55.0424 52.844 54.6228 52.4591C54.2032 52.0743 53.6723 51.7921 53.1072 51.8348L53.1157 51.8177Z" fill="#5B5B5B"/>
<path d="M73.4696 8.71467C73.1014 7.26936 72.7161 5.84969 72.2622 4.43003C71.9283 3.41232 71.2005 2.58276 70.1301 2.32619C68.9142 2.03542 67.8524 2.52289 66.7649 3.01037C63.4254 4.51555 60.3513 6.61939 57.6625 9.09952C52.1823 14.1624 48.2862 21.2094 46.9418 28.5558C46.1198 33.0799 46.2653 37.8007 48.0464 42.0939C48.4917 43.1629 49.4679 43.924 50.6838 43.5905C51.6942 43.3168 52.6276 42.034 52.1823 40.9564C49.6562 34.8758 50.7437 28.0768 53.4325 22.2357C55.9757 16.711 59.9574 11.9816 65.1294 8.74888C65.8829 8.27851 66.645 7.84235 67.4328 7.4404C67.8267 7.23515 68.2206 7.047 68.623 6.85885C68.7686 6.79043 68.9484 6.73912 69.0769 6.6536C69.1454 6.61939 69.2139 6.59373 69.2824 6.56808C69.779 6.39703 69.4108 6.10626 68.1778 5.69575C68.1007 6.31151 68.6487 7.15818 68.8285 7.73973C69.0426 8.44101 69.171 9.15939 69.3509 9.86922C70.0273 12.5375 74.1546 11.4086 73.4782 8.73178L73.4696 8.71467Z" fill="#5B5B5B"/>
<path d="M17.631 44.8391C17.9478 45.9509 18.3417 47.0541 18.5558 48.1916C18.7528 49.2435 18.6928 50.3553 18.5558 51.4158C18.2133 53.9301 17.3228 56.3675 16.4237 58.7279C14.7625 63.0724 15.0193 67.8531 17.5796 71.8127C21.51 77.8933 28.8484 80.0228 35.6816 80.5702C40.2199 80.9294 44.8524 80.8524 49.3907 80.4846C52.6532 80.2195 55.9842 79.8005 59.0839 78.7229C63.4681 77.2006 67.33 74.0791 68.8114 69.555C70.0615 65.7321 68.9055 61.6527 68.015 57.8983C67.0645 53.8873 66.4309 49.731 68.1435 45.8141C68.6058 44.7536 68.4517 43.5221 67.3728 42.8892C66.4651 42.359 64.9067 42.5899 64.4443 43.6589C62.7403 47.5502 62.4834 51.5013 63.177 55.6662C63.6993 58.8048 64.8724 62.0547 65.0437 65.0651C65.1208 66.4676 65.0351 67.6735 64.5128 68.8622C64.2816 69.3839 63.9733 69.8799 63.6565 70.3589C63.5452 70.5213 63.4339 70.6838 63.3225 70.8463C62.9543 71.368 63.451 70.7266 63.177 71.043C62.6204 71.6844 62.0467 72.2745 61.3959 72.8219C61.1561 73.0186 61.687 72.6337 61.2503 72.9245C61.0619 73.0528 60.8736 73.1811 60.6852 73.3008C60.257 73.5745 59.8032 73.8139 59.3494 74.0363C59.2295 74.0962 58.6215 74.3698 58.8099 74.2843C58.9726 74.2159 58.3304 74.4725 58.2105 74.5152C57.6454 74.7205 57.0716 74.9001 56.4894 75.0626C55.0679 75.456 53.6037 75.7382 52.1394 75.9349C48.1834 76.4737 43.9362 76.5592 39.8774 76.4993C36.3323 76.4395 32.7359 76.2257 29.3194 75.1823C27.9236 74.7547 27.1701 74.4383 25.9113 73.7284C24.6526 73.0186 23.5052 72.2318 22.5033 71.2055C21.1161 69.7773 20.1828 67.9985 19.7717 66.0486C19.2665 63.671 19.9259 61.533 20.7565 59.3265C21.6984 56.8207 22.4862 54.2807 22.8116 51.6125C23.1626 48.8073 22.5204 46.3871 21.7669 43.7188C21.0134 41.0505 16.886 42.1965 17.6396 44.8562L17.631 44.8391Z" fill="#5B5B5B"/>
<path d="M42.5833 6.49967C42.1894 4.95172 41.8554 3.3268 41.2218 1.84728C40.7508 0.744043 39.7318 0.0342116 38.5159 2.83029e-06C37.4284 -0.0342059 36.3752 0.555895 35.4247 1.00916C31.9225 2.65973 28.6857 4.96027 25.937 7.68842C20.0201 13.5638 16.6035 21.3292 15.8928 29.6077C15.4646 34.6107 16.2952 39.3914 17.631 44.1892C18.3675 46.8403 22.5033 45.7115 21.7584 43.0517C20.7479 39.4256 20.003 35.9106 20.0458 32.1306C20.0886 28.6413 20.6966 25.1862 21.844 21.8936C23.9676 15.7702 28.2576 10.4251 33.6779 6.88451C34.4657 6.37138 35.2706 5.89246 36.1012 5.44775C36.4951 5.24249 36.889 5.03724 37.2829 4.84909C37.4284 4.78068 38.3618 4.48135 38.4388 4.32741C38.2248 4.77212 37.4541 2.83933 37.3085 3.59192C37.2829 3.74586 37.4027 4.03664 37.4541 4.19913C37.574 4.60108 37.7624 4.98593 37.8908 5.38788C38.1306 6.12337 38.259 6.89307 38.4474 7.64566C39.1239 10.3139 43.2512 9.18505 42.5747 6.50822L42.5833 6.49967Z" fill="#5B5B5B"/>
<path d="M20.9536 86.5824C18.1877 94.9036 16.6036 104.114 17.6397 112.872C17.8966 115.053 18.2819 117.216 18.9498 119.303C19.5749 121.279 20.3713 123.562 21.7413 125.153C23.2484 126.906 25.5775 127.068 27.7354 126.974C30.5183 126.855 33.3184 126.786 36.0927 126.495C37.4885 126.35 38.8842 126.136 40.0573 125.298C41.025 124.605 41.7785 123.707 42.4036 122.698C43.551 120.825 44.2532 118.602 44.6214 116.447C44.8183 115.309 44.3217 114.146 43.1229 113.813C42.0953 113.53 40.6824 114.163 40.4855 115.309C40.22 116.849 39.8176 118.414 39.0983 119.816C38.3362 121.304 37.7454 122.023 36.0842 122.228C33.5924 122.536 31.0492 122.57 28.5403 122.673C27.2387 122.724 25.4148 123.169 24.687 121.946C22.923 118.961 22.1267 115.343 21.8098 111.922C21.4416 108.04 21.6129 104.097 22.1267 100.232C22.7004 95.9812 23.7108 91.7821 25.0637 87.7198C25.9372 85.1028 21.8013 83.9825 20.9364 86.5824H20.9536Z" fill="#5B5B5B"/>
<path d="M60.2143 87.7198C62.5263 95.7589 64.2645 104.029 63.5795 112.436C63.4168 114.403 63.1513 116.387 62.6547 118.294C62.3721 119.397 62.0382 120.697 61.0963 121.433C60.0002 122.296 58.4418 122.433 57.0974 122.39C55.068 122.331 53.0129 122.262 50.9835 122.134C49.9902 122.074 48.8685 122.159 47.9094 121.877C47.31 121.698 47.2073 121.569 46.9333 120.971C46.1712 119.286 45.4776 117.011 44.8696 115.112C44.0304 112.504 39.8946 113.616 40.7423 116.25C41.4016 118.311 42.1038 120.389 42.9173 122.39C43.7307 124.392 45.1693 125.751 47.3357 126.128C49.6648 126.538 52.1224 126.461 54.4857 126.53C56.6007 126.59 58.6473 126.838 60.7281 126.265C62.6204 125.743 64.3673 124.614 65.4119 122.938C66.4566 121.261 66.8505 119.312 67.193 117.473C68.075 112.692 68.212 107.817 67.7239 102.985C67.1588 97.418 65.8829 91.9617 64.3416 86.5909C63.5795 83.9483 59.4522 85.0772 60.2143 87.7284V87.7198Z" fill="#5B5B5B"/>
<path d="M62.1752 76.7473C64.9239 80.8267 67.8096 85.0173 69.3253 89.7381C69.9503 91.688 70.7381 94.3221 70.2158 96.3746C69.7363 98.239 67.3815 99.1626 65.8145 99.9238C64.7784 100.428 64.4958 101.908 65.0438 102.849C65.6689 103.909 66.9276 104.123 67.9723 103.618C70.2244 102.524 72.6905 101.19 73.8379 98.8377C75.148 96.1608 74.5657 92.7998 73.855 90.0203C72.3993 84.3674 69.0855 79.39 65.8658 74.6008C64.3331 72.3344 60.6254 74.4639 62.1667 76.7559L62.1752 76.7473Z" fill="#5B5B5B"/>
<path d="M77.0316 15.565C78.1619 15.0091 79.5234 14.0855 80.688 13.8032H79.5491L79.5063 13.7776L78.7356 13.0079C78.65 12.5888 78.6329 12.5974 78.6671 13.025C78.6671 13.2388 78.6843 13.4611 78.6843 13.675C78.6843 14.1111 78.6843 14.5473 78.6843 14.9834C78.6671 15.7446 78.6329 16.5057 78.5644 17.2583C78.4445 18.6951 78.2304 20.1147 77.9222 21.5259C77.2714 24.5362 76.2781 27.4782 74.908 30.2405C72.1593 35.7995 68.1005 40.6913 63.0056 44.249C62.0551 44.9075 61.6184 46.1219 62.235 47.1739C62.783 48.1061 64.213 48.6021 65.1635 47.9436C75.7729 40.5545 82.5804 28.265 82.9486 15.3084C83 13.4355 83.2997 10.6988 81.1932 9.82647C80.0372 9.34754 78.984 9.82647 77.9479 10.3482L74.8567 11.879C72.3905 13.102 74.557 16.7879 77.0145 15.5735L77.0316 15.565Z" fill="#5B5B5B"/>
<path d="M47.1816 12.7428C48.2349 12.2211 49.5964 11.3317 50.6068 11.0922H49.4679L49.3994 11.058L48.6288 10.2883C48.5346 9.82647 48.5089 9.81791 48.5517 10.2626C48.5517 10.4764 48.5603 10.6988 48.5688 10.9126C48.5688 11.2376 48.5688 11.5626 48.5688 11.8875C48.5603 12.6487 48.526 13.4013 48.4661 14.1624C48.3548 15.5906 48.1321 17.0103 47.8239 18.4129C47.2159 21.2009 46.2911 23.9205 45.0238 26.4776C42.4293 31.7201 38.6102 36.3382 33.7979 39.6907C32.8474 40.3492 32.4107 41.5636 33.0272 42.6156C33.5752 43.5477 35.0052 44.0438 35.9557 43.3853C46.077 36.3297 52.5591 24.5875 52.8417 12.2211C52.8845 10.4935 53.0986 8.23576 51.3603 7.2266C50.2557 6.58519 49.0997 7.04701 48.0722 7.55158C47.0446 8.05616 46.0342 8.56074 45.0152 9.06532C42.5491 10.2883 44.7155 13.9743 47.1731 12.7599L47.1816 12.7428Z" fill="#5B5B5B"/>
<path d="M37.0775 14.3335C31.2205 19.4049 26.1084 26.3236 26.0399 34.3712C26.0142 37.125 30.2957 37.125 30.3214 34.3712C30.3813 27.4611 35.1251 21.6712 40.1087 17.3524C40.9821 16.5998 40.8879 15.1032 40.1087 14.3249C39.2439 13.4611 37.9594 13.5638 37.0775 14.3249V14.3335Z" fill="#FF7FE0"/>
<path d="M67.9466 17.3609C62.0896 22.4324 56.9776 29.3511 56.9091 37.3987C56.8834 40.1525 61.1648 40.1525 61.1905 37.3987C61.2504 30.4886 65.9943 24.6987 70.9779 20.3799C71.8513 19.6273 71.7571 18.1306 70.9779 17.3524C70.113 16.4886 68.8286 16.5913 67.9466 17.3524V17.3609Z" fill="#FF7FE0"/>
<path d="M42.5061 62.0376L40.9991 61.4475L40.4339 61.3705C40.1428 61.362 39.8602 61.4218 39.6119 61.5587C39.2008 61.7297 38.807 62.029 38.5843 62.431C38.2675 63.0382 38.1134 63.6197 38.0705 64.2954C38.0534 64.5519 38.0962 64.7914 38.1305 65.048C38.1647 65.3131 38.199 65.5696 38.2932 65.8177C38.5244 66.4591 38.8155 66.9808 39.2779 67.4768C39.7403 67.9728 40.314 68.2721 40.9306 68.5201C41.7783 68.8622 42.8401 68.8537 43.7049 68.5886C44.5698 68.3234 45.4261 67.8103 46.0597 67.1347C46.8047 66.3479 47.3442 65.3729 47.6182 64.321C47.9179 63.175 47.2414 62.0376 46.1197 61.6869C44.9979 61.3363 43.7563 61.5416 42.7544 62.1231C42.3263 62.3711 41.9067 62.7047 41.5813 63.0895C41.0932 63.6796 40.8107 64.1927 40.5195 64.9026C40.3312 65.3815 40.4853 66.117 40.7336 66.5531C40.9819 66.9893 41.5043 67.4169 42.0095 67.5366C42.5575 67.6649 43.174 67.6307 43.6621 67.3228L44.0988 66.9893C44.3643 66.7242 44.5441 66.4078 44.6468 66.0486L44.6725 65.9801L44.4585 66.4933C44.5698 66.2367 44.6982 65.9973 44.8695 65.7749L44.5355 66.2111C44.6811 66.0229 44.8438 65.8519 45.0322 65.7065L44.5955 66.04C44.7753 65.9032 44.9637 65.7834 45.1692 65.6894L44.6554 65.9032C44.8352 65.8262 45.0236 65.7749 45.2206 65.7407L44.6554 65.8177C44.8438 65.792 45.0407 65.792 45.2291 65.8177L44.664 65.7407C44.7753 65.7578 44.878 65.7834 44.9808 65.8177L43.4823 63.1836C43.4309 63.3888 43.3624 63.5941 43.2853 63.7908L43.4994 63.2777C43.3538 63.6283 43.1569 63.9618 42.9257 64.2612L43.2597 63.825C43.0627 64.073 42.8486 64.2954 42.6003 64.4921L43.037 64.1585C42.8144 64.3296 42.5832 64.4664 42.3349 64.5776L42.8486 64.3638C42.626 64.4579 42.3948 64.5177 42.155 64.5605L42.7202 64.4835C42.4976 64.5092 42.2835 64.5092 42.0609 64.4835L42.626 64.5605C42.4291 64.5263 42.2492 64.475 42.0609 64.4065L42.5746 64.6203C42.4119 64.5519 42.2664 64.4664 42.1208 64.3552L42.5575 64.6888C42.4119 64.5776 42.2835 64.4493 42.1722 64.3039L42.5061 64.7401C42.3948 64.5947 42.3092 64.4493 42.2407 64.2783L42.4547 64.7914C42.3777 64.5947 42.3263 64.4065 42.292 64.2013L42.3691 64.7657C42.3434 64.5605 42.3434 64.3552 42.3691 64.15L42.292 64.7144C42.3177 64.5348 42.3606 64.3723 42.4291 64.2098L42.215 64.723C42.2321 64.6802 42.2578 64.6375 42.2835 64.5947L39.8688 65.5782L41.3758 66.1683C41.8639 66.3564 42.5918 66.2025 43.0285 65.9545C43.4652 65.7065 43.8933 65.1848 44.0132 64.6802C44.1416 64.1329 44.1074 63.5171 43.7991 63.0296L43.4652 62.5935C43.1997 62.3284 42.8829 62.1488 42.5232 62.0461L42.5061 62.0376Z" fill="#FF7FE0"/>
<path d="M22.7688 86.9843C18.9326 86.3686 15.516 84.5042 12.5533 82.0412C9.41924 79.4413 6.17391 76.3283 4.8381 72.3857C4.54696 71.5305 4.21301 70.5727 4.2387 69.6576C4.26439 68.8366 4.71822 68.2721 5.29193 67.7248C6.4308 66.6216 8.18619 65.0223 9.87307 65.0394C11.3716 65.0565 12.5361 66.8781 13.4524 67.8873C14.557 69.1103 15.653 70.3418 16.8004 71.5305C19.4978 74.3442 22.5461 77.3289 26.3224 78.6117C28.934 79.5012 30.0558 75.3705 27.4612 74.4896C24.2673 73.4035 21.3302 70.1365 18.9754 67.6051C16.1411 64.569 13.3582 60.062 8.58864 60.9002C6.24241 61.3107 4.09313 63.004 2.39768 64.5861C0.43678 66.4163 -0.299628 68.6826 0.154205 71.3167C1.02762 76.3711 4.42708 80.4505 8.10912 83.8115C11.7912 87.1725 16.4665 90.2769 21.6556 91.115C22.7945 91.2946 23.959 90.8243 24.293 89.6184C24.5755 88.6007 23.9419 87.1725 22.7945 86.9843H22.7688Z" fill="#5B5B5B"/>
</svg>
