<svg width="82" height="82" viewBox="0 0 82 82" fill="none" xmlns="http://www.w3.org/2000/svg">
<path d="M46.0376 58.6313H41.0001V53.5938C40.9981 51.5903 40.2013 49.6695 38.7847 48.2529C37.368 46.8363 35.4472 46.0395 33.4438 46.0375H23.3688C21.3654 46.0395 19.4446 46.8363 18.0279 48.2529C16.6113 49.6695 15.8146 51.5903 15.8126 53.5938V58.6313H10.775V53.5938C10.779 50.2549 12.1072 47.054 14.4681 44.6931C16.829 42.3321 20.03 41.004 23.3688 41H33.4438C36.7826 41.004 39.9836 42.3321 42.3445 44.6931C44.7054 47.054 46.0336 50.2549 46.0376 53.5938V58.6313ZM28.4063 15.8125C29.9008 15.8125 31.3617 16.2557 32.6043 17.086C33.847 17.9163 34.8155 19.0964 35.3874 20.4771C35.9593 21.8578 36.1089 23.3772 35.8174 24.8429C35.5258 26.3087 34.8061 27.6551 33.7494 28.7119C32.6926 29.7686 31.3462 30.4883 29.8805 30.7798C28.4147 31.0714 26.8954 30.9218 25.5147 30.3498C24.1339 29.7779 22.9538 28.8094 22.1235 27.5668C21.2932 26.3242 20.8501 24.8633 20.8501 23.3688C20.8501 21.3647 21.6462 19.4428 23.0632 18.0257C24.4803 16.6086 26.4023 15.8125 28.4063 15.8125ZM28.4063 10.775C25.9155 10.775 23.4806 11.5136 21.4096 12.8975C19.3386 14.2813 17.7244 16.2481 16.7712 18.5494C15.818 20.8506 15.5686 23.3827 16.0545 25.8257C16.5405 28.2686 17.7399 30.5126 19.5012 32.2739C21.2624 34.0352 23.5064 35.2346 25.9494 35.7205C28.3923 36.2065 30.9245 35.9571 33.2257 35.0039C35.5269 34.0507 37.4938 32.4365 38.8776 30.3655C40.2614 28.2945 41.0001 25.8596 41.0001 23.3688C41.0001 20.0287 39.6732 16.8254 37.3114 14.4636C34.9496 12.1019 31.7464 10.775 28.4063 10.775ZM5.73755 66.1875H76.2626V71.225H5.73755V66.1875ZM69.4695 20.85C68.5734 20.8498 67.6864 21.0294 66.8609 21.3781C66.0354 21.7268 65.2883 22.2376 64.6637 22.8801L63.6688 23.8977L62.6739 22.8776C62.0495 22.2348 61.3024 21.7237 60.4769 21.3748C59.6514 21.0258 58.7643 20.846 57.8681 20.846C56.9719 20.846 56.0848 21.0258 55.2593 21.3748C54.4339 21.7237 53.6868 22.2348 53.0623 22.8776C51.7882 24.1932 51.0758 25.9527 51.0758 27.7841C51.0758 29.6156 51.7882 31.3751 53.0623 32.6907L63.6688 43.5188L74.2727 32.6932C75.5469 31.3777 76.2593 29.6181 76.2593 27.7867C76.2593 25.9553 75.5469 24.1957 74.2727 22.8801C73.6488 22.2382 72.9025 21.7278 72.0779 21.3791C71.2533 21.0304 70.3673 20.8505 69.472 20.85" fill="#5B5B5B"/>
</svg>
