<svg width="388" height="222" viewBox="0 0 388 222" fill="none" xmlns="http://www.w3.org/2000/svg">
<g filter="url(#filter0_d_94_1113)">
<rect x="4" y="3.48389" width="380" height="213" rx="10" fill="#FFFFFD"/>
</g>
<path d="M23.3416 19.1099C23.8363 18.8952 24.3356 18.7879 24.8396 18.7879C25.0916 18.7879 25.465 18.8439 25.9596 18.9559C26.4636 19.0586 26.9163 19.4786 27.3176 20.2159C27.523 20.6639 27.6256 21.1072 27.6256 21.5459C27.6256 21.8072 27.5556 22.1759 27.4156 22.6519C27.2756 23.1279 26.8463 23.5619 26.1276 23.9539C26.0903 23.9912 26.025 24.0099 25.9316 24.0099H26.0156L26.0296 23.9959C26.0016 24.0239 25.9643 24.0379 25.9176 24.0379C25.5816 24.1592 25.2176 24.2199 24.8256 24.2199C24.443 24.2199 23.953 24.1219 23.3556 23.9259C22.7676 23.7206 22.287 23.2866 21.9136 22.6239C21.7456 22.2506 21.6616 21.8819 21.6616 21.5179C21.6616 21.2192 21.7596 20.8272 21.9556 20.3419C22.161 19.8566 22.623 19.4459 23.3416 19.1099ZM25.4136 22.9599C25.8336 22.7266 26.109 22.3906 26.2396 21.9519C26.2863 21.7932 26.3096 21.6392 26.3096 21.4899C26.3096 21.1819 26.2163 20.8739 26.0296 20.5659C25.7403 20.1832 25.395 19.9686 24.9936 19.9219C24.919 19.9126 24.849 19.9079 24.7836 19.9079C24.4383 19.9079 24.107 20.0152 23.7896 20.2299C23.3883 20.5099 23.1363 20.8646 23.0336 21.2939C23.0056 21.3872 22.9916 21.4806 22.9916 21.5739C22.9916 21.9006 23.141 22.2086 23.4396 22.4979C23.8596 22.8712 24.3123 23.0579 24.7976 23.0579C25.003 23.0579 25.2083 23.0252 25.4136 22.9599ZM28.5496 24.9339C28.8483 24.9619 29.0443 25.0786 29.1376 25.2839C29.175 25.3586 29.1936 25.4379 29.1936 25.5219C29.1936 25.5966 29.161 25.7086 29.0956 25.8579C29.0303 25.9979 28.8436 26.0726 28.5356 26.0819H28.2276C27.2943 26.0819 26.4263 26.1146 25.6236 26.1799C25.633 26.2266 25.6376 26.3106 25.6376 26.4319C25.6376 26.7492 25.5583 27.1226 25.3996 27.5519C25.2876 27.7946 25.1056 27.9299 24.8536 27.9579C24.807 27.9672 24.7556 27.9719 24.6996 27.9719C24.513 27.9719 24.345 27.9112 24.1956 27.7899C24.1023 27.7059 24.0556 27.6032 24.0556 27.4819C24.0556 27.4259 24.065 27.3652 24.0836 27.2999C24.2236 26.9452 24.2936 26.6466 24.2936 26.4039C24.2936 26.3106 24.2936 26.2639 24.2936 26.2639C23.6403 26.3199 22.9216 26.3479 22.1376 26.3479C21.7456 26.3479 21.3536 26.3386 20.9616 26.3199C20.6536 26.2919 20.4623 26.1846 20.3876 25.9979C20.3503 25.8952 20.3316 25.8019 20.3316 25.7179C20.3316 25.6432 20.3596 25.5359 20.4156 25.3959C20.481 25.2466 20.6676 25.1719 20.9756 25.1719C21.3583 25.1812 21.7363 25.1859 22.1096 25.1859C23.0803 25.1859 24.051 25.1439 25.0216 25.0599C26.0856 24.9759 27.1496 24.9339 28.2136 24.9339H28.5496ZM27.6396 29.6799C27.7143 29.6612 27.789 29.6519 27.8636 29.6519C28.069 29.6519 28.2323 29.7172 28.3536 29.8479C28.447 29.9599 28.4936 30.0812 28.4936 30.2119C28.4936 30.2492 28.4843 30.3239 28.4656 30.4359C28.4563 30.5572 28.321 30.6692 28.0596 30.7719C27.313 31.0052 26.5243 31.1779 25.6936 31.2899C25.2923 31.3366 24.9096 31.3599 24.5456 31.3599C24.0976 31.3599 23.6636 31.3272 23.2436 31.2619C22.441 31.0846 21.9696 30.6926 21.8296 30.0859C21.7456 29.6846 21.7036 29.2739 21.7036 28.8539C21.7036 28.6392 21.713 28.4199 21.7316 28.1959C21.7503 28.0186 21.7596 27.8412 21.7596 27.6639C21.7783 27.4306 21.8903 27.2719 22.0956 27.1879C22.2076 27.1319 22.3243 27.1039 22.4456 27.1039C22.5576 27.1039 22.693 27.1412 22.8516 27.2159C23.0196 27.2812 23.1036 27.4306 23.1036 27.6639C23.1036 27.8599 23.0896 28.0652 23.0616 28.2799C23.0243 28.5039 23.0056 28.7232 23.0056 28.9379C23.0056 29.2646 23.0476 29.5726 23.1316 29.8619C23.2156 30.0392 23.3743 30.1419 23.6076 30.1699C23.7663 30.1886 23.9203 30.1979 24.0696 30.1979C24.1723 30.1979 24.275 30.1932 24.3776 30.1839C24.4336 30.1746 24.4896 30.1699 24.5456 30.1699C25.591 30.1326 26.6223 29.9692 27.6396 29.6799ZM38.592 22.8339C38.6947 22.7966 38.802 22.7779 38.914 22.7779C39.0727 22.7779 39.222 22.8292 39.362 22.9319C39.5113 23.0346 39.5953 23.1746 39.614 23.3519V23.3799C39.614 23.5479 39.502 23.6879 39.278 23.7999C38.606 24.0892 37.85 24.2432 37.01 24.2619H36.828C36.0813 24.2619 35.3953 24.2106 34.77 24.1079C34.434 24.0519 34.1307 23.9586 33.86 23.8279C33.5987 23.6879 33.3793 23.4639 33.202 23.1559C33.09 22.8479 33.034 22.5352 33.034 22.2179C33.034 22.0779 33.0433 21.9332 33.062 21.7839C33.0807 21.6439 33.09 21.5039 33.09 21.3639C33.09 21.0372 33.0293 20.7246 32.908 20.4259C32.8707 20.3512 32.852 20.2766 32.852 20.2019C32.852 20.0899 32.894 19.9826 32.978 19.8799C33.1367 19.7026 33.3373 19.6139 33.58 19.6139H38.592C38.9 19.6139 39.1007 19.7259 39.194 19.9499C39.2313 20.0246 39.25 20.1039 39.25 20.1879C39.25 20.2719 39.2173 20.3886 39.152 20.5379C39.0867 20.6872 38.9 20.7619 38.592 20.7619H34.378C34.3967 20.9112 34.406 21.0932 34.406 21.3079C34.406 21.4199 34.4013 21.5319 34.392 21.6439V22.0499C34.392 22.4232 34.462 22.6752 34.602 22.8059C34.7513 22.9272 35.0127 22.9972 35.386 23.0159C35.4607 23.0252 35.54 23.0299 35.624 23.0299C36.0347 23.0672 36.464 23.0859 36.912 23.0859C37.0053 23.0859 37.206 23.0859 37.514 23.0859C37.822 23.0859 38.1813 23.0019 38.592 22.8339ZM40.51 26.1659C39.1007 26.1752 37.7007 26.2079 36.31 26.2639C34.882 26.3199 33.4493 26.3572 32.012 26.3759C31.704 26.3666 31.4987 26.2499 31.396 26.0259C31.368 25.9512 31.354 25.8766 31.354 25.8019C31.354 25.7179 31.3867 25.6059 31.452 25.4659C31.5173 25.3166 31.6993 25.2372 31.998 25.2279C33.2487 25.2092 34.4387 25.1812 35.568 25.1439V24.1499C35.568 23.9166 35.68 23.7532 35.904 23.6599C36.016 23.6132 36.1327 23.5899 36.254 23.5899C36.3753 23.5899 36.5153 23.6272 36.674 23.7019C36.842 23.7672 36.926 23.9166 36.926 24.1499V25.0879C38.0367 25.0506 39.2313 25.0226 40.51 25.0039C40.8087 25.0319 41 25.1346 41.084 25.3119C41.1307 25.4146 41.154 25.5032 41.154 25.5779C41.154 25.6619 41.1213 25.7739 41.056 25.9139C40.9907 26.0539 40.8087 26.1379 40.51 26.1659ZM35.708 27.3979C36.2027 27.1832 36.6973 27.0759 37.192 27.0759C37.4347 27.0759 37.8033 27.1319 38.298 27.2439C38.802 27.3466 39.25 27.7666 39.642 28.5039C39.8473 28.9519 39.95 29.3859 39.95 29.8059C39.95 30.0579 39.88 30.4219 39.74 30.8979C39.6 31.3739 39.166 31.8079 38.438 32.1999C38.382 32.2279 38.326 32.2419 38.27 32.2419C38.3353 32.2419 38.3633 32.2466 38.354 32.2559C38.4007 32.2559 38.424 32.2606 38.424 32.2699C38.3587 32.2699 38.3307 32.2652 38.34 32.2559C37.948 32.3959 37.5607 32.4659 37.178 32.4659C36.8047 32.4659 36.324 32.3632 35.736 32.1579C35.148 31.9619 34.6673 31.5326 34.294 30.8699C34.126 30.4966 34.042 30.1326 34.042 29.7779C34.042 29.4792 34.14 29.0919 34.336 28.6159C34.532 28.1399 34.9893 27.7339 35.708 27.3979ZM37.752 31.2059C38.1533 30.9819 38.424 30.6506 38.564 30.2119C38.6107 30.0626 38.634 29.9132 38.634 29.7639C38.634 29.4559 38.5407 29.1526 38.354 28.8539C38.0647 28.4712 37.724 28.2566 37.332 28.2099C37.2667 28.2006 37.2013 28.1959 37.136 28.1959C36.8 28.1959 36.4733 28.3032 36.156 28.5179C35.764 28.7886 35.512 29.1339 35.4 29.5539C35.3813 29.6472 35.372 29.7359 35.372 29.8199C35.372 30.1559 35.5167 30.4639 35.806 30.7439C36.226 31.1172 36.674 31.3039 37.15 31.3039C37.3553 31.3039 37.556 31.2712 37.752 31.2059Z" fill="#5B5B5B"/>
<path d="M51.4983 20.7565C51.477 20.6691 51.4157 20.5921 51.3277 20.5422C51.2396 20.4923 51.1317 20.4734 51.0272 20.4895C50.9227 20.5056 50.8299 20.5555 50.7687 20.6285C50.7075 20.7014 50.6827 20.7916 50.6998 20.8797C50.7074 20.9149 50.7157 20.9497 50.7247 20.9843C49.4027 21.3285 48.6523 21.8896 48.2484 22.5308C47.8722 23.1274 47.8234 23.754 47.818 24.2269L47.2588 24.8271C47.1558 24.9376 47.0811 25.0647 47.0391 25.2006C46.9971 25.3364 46.9888 25.478 47.0148 25.6166C47.0407 25.7552 47.1003 25.8878 47.1899 26.0062C47.2795 26.1247 47.3971 26.2264 47.5354 26.305L53.8279 29.8791C54.5219 30.2732 55.3404 30.4839 56.1781 30.4839H58.0003C58.266 30.4839 58.529 30.4395 58.7739 30.3532C59.0189 30.2669 59.2409 30.1405 59.4271 29.9813C59.6132 29.8221 59.7597 29.6334 59.858 29.4261C59.9563 29.2189 60.0045 28.9972 59.9997 28.7741C59.9791 27.8465 59.0631 27.1903 58.1904 26.8939C57.8428 26.7756 57.5456 26.6087 57.3604 26.3791L55.3059 23.4343L55.3292 23.4307C55.4321 23.4128 55.5228 23.3621 55.5821 23.2892C55.6414 23.2163 55.6647 23.1269 55.6472 23.0399C55.6297 22.9528 55.5726 22.8749 55.4881 22.8224C55.4035 22.77 55.298 22.7471 55.1938 22.7586C55.0029 22.7856 54.8143 22.7995 54.6281 22.8005C53.2643 22.8095 52.0673 22.1543 51.6288 21.1575C51.5718 21.0272 51.5278 20.8931 51.4983 20.7565ZM50.0112 21.9765L51.2293 23.7481C51.2826 23.8257 51.3172 23.9113 51.331 24.0002C51.3449 24.089 51.3378 24.1792 51.3102 24.2658C51.2825 24.3523 51.2349 24.4334 51.1699 24.5044C51.1049 24.5755 51.0239 24.6351 50.9315 24.6798L49.8986 25.1809L48.6296 24.4625V24.3451C48.6296 23.8695 48.6588 23.3375 48.9658 22.85C49.1585 22.5444 49.4741 22.2366 50.0112 21.9765ZM50.807 25.6961L52.9357 24.6639C53.0281 24.6191 53.1301 24.5901 53.2358 24.5784C53.3416 24.5668 53.449 24.5727 53.552 24.596C53.6551 24.6192 53.7516 24.6592 53.8362 24.7138C53.9208 24.7684 53.9917 24.8364 54.045 24.914L54.4781 25.5447C54.5858 25.7013 54.6151 25.8874 54.5595 26.0622C54.5038 26.2369 54.3679 26.3859 54.1814 26.4764L53.1057 26.998L50.807 25.6961ZM56.1867 29.1211H59.1264C59.0476 29.3195 58.8964 29.492 58.6943 29.6142C58.4922 29.7364 58.2494 29.802 58.0003 29.8018H56.1781C55.5027 29.8018 54.8428 29.632 54.2832 29.3143L47.9902 25.7402C47.944 25.714 47.9048 25.6801 47.8749 25.6406C47.8451 25.6011 47.8252 25.5568 47.8166 25.5106C47.8079 25.4643 47.8107 25.4171 47.8247 25.3718C47.8388 25.3265 47.8638 25.2841 47.8982 25.2473L48.1282 25.0009L54.7488 28.7523C55.1737 28.9928 55.6744 29.1212 56.1867 29.1211Z" fill="#5B5B5B"/>
<path d="M33.266 127.522H33.758V132.958H33.266V127.522ZM32.096 129.502H33.41V129.91H32.096V129.502ZM30.674 128.302H31.076V129.112C31.076 130.282 30.404 131.44 29.546 131.884L29.252 131.488C30.032 131.104 30.674 130.078 30.674 129.112V128.302ZM30.776 128.302H31.172V129.112C31.172 130.018 31.802 131.008 32.588 131.38L32.294 131.77C31.436 131.344 30.776 130.228 30.776 129.112V128.302ZM29.45 128.08H32.402V128.494H29.45V128.08ZM37.3755 129.058H38.9355V129.466H37.3755V129.058ZM38.7795 127.534H39.2775V131.548H38.7795V127.534ZM35.7915 132.424H39.4095V132.832H35.7915V132.424ZM35.7915 131.158H36.2895V132.634H35.7915V131.158ZM35.0835 127.888H35.5755V128.848H37.0455V127.888H37.5315V130.624H35.0835V127.888ZM35.5755 129.238V130.216H37.0455V129.238H35.5755ZM40.5791 129.652H40.9991C42.0911 129.652 42.7331 129.616 43.4771 129.466L43.5371 129.868C42.7691 130.024 42.1091 130.06 40.9991 130.06H40.5791V129.652ZM40.5791 127.84H42.9731V128.242H41.0711V129.892H40.5791V127.84ZM44.0471 127.528H44.5451V130.258H44.0471V127.528ZM44.4071 128.668H45.3491V129.082H44.4071V128.668ZM41.1011 130.534H44.5451V131.872H41.6051V132.712H41.1131V131.488H44.0591V130.93H41.1011V130.534ZM41.1131 132.478H44.7431V132.88H41.1131V132.478ZM51.0892 127.528H51.5872V132.952H51.0892V127.528ZM51.4672 129.754H52.4752V130.174H51.4672V129.754ZM47.3872 128.392H50.5852V128.8H47.3872V128.392ZM49.0072 129.25C49.7752 129.25 50.3272 129.766 50.3272 130.498C50.3272 131.23 49.7752 131.746 49.0072 131.746C48.2452 131.746 47.6872 131.23 47.6872 130.498C47.6872 129.766 48.2452 129.25 49.0072 129.25ZM49.0072 129.664C48.5152 129.664 48.1612 130.006 48.1612 130.498C48.1612 130.984 48.5152 131.332 49.0072 131.332C49.4992 131.332 49.8532 130.984 49.8532 130.498C49.8532 130.006 49.4992 129.664 49.0072 129.664ZM48.7492 127.594H49.2472V128.578H48.7492V127.594ZM53.5187 127.744H57.2507V129.16H54.0347V130.096H53.5307V128.776H56.7527V128.146H53.5187V127.744ZM53.5307 129.85H57.3767V130.258H53.5307V129.85ZM52.9307 130.816H57.8507V131.23H52.9307V130.816ZM55.1327 130.972H55.6247V132.958H55.1327V130.972ZM63.0868 128.494H64.2508V128.902H63.0868V128.494ZM63.0868 129.466H64.2508V129.874H63.0868V129.466ZM60.1708 127.936H63.0268V128.344H60.1708V127.936ZM60.0808 130.552L60.0268 130.132C60.9148 130.132 62.1808 130.12 63.1948 130L63.2248 130.372C62.1808 130.54 60.9628 130.552 60.0808 130.552ZM60.7108 128.254H61.1908V130.27H60.7108V128.254ZM62.0068 128.254H62.4868V130.27H62.0068V128.254ZM63.9748 127.528H64.4728V130.876H63.9748V127.528ZM62.6908 130.984C63.8128 130.984 64.4968 131.338 64.4968 131.962C64.4968 132.586 63.8128 132.94 62.6908 132.94C61.5628 132.94 60.8788 132.586 60.8788 131.962C60.8788 131.338 61.5628 130.984 62.6908 130.984ZM62.6908 131.374C61.8688 131.374 61.3768 131.59 61.3768 131.962C61.3768 132.334 61.8688 132.556 62.6908 132.556C63.5128 132.556 64.0048 132.334 64.0048 131.962C64.0048 131.59 63.5128 131.374 62.6908 131.374ZM66.1464 127.816H69.6084V128.224H66.1464V127.816ZM65.5344 129.856H70.4484V130.264H65.5344V129.856ZM67.1664 130.114H67.6524V131.572H67.1664V130.114ZM69.3264 127.816H69.8124V128.23C69.8124 128.71 69.8124 129.268 69.6504 130.036L69.1644 129.982C69.3264 129.226 69.3264 128.698 69.3264 128.23V127.816ZM66.1224 132.424H69.9624V132.832H66.1224V132.424ZM66.1224 131.128H66.6204V132.526H66.1224V131.128ZM68.6004 130.114H69.0864V131.572H68.6004V130.114ZM76.5725 127.528H77.0705V130.306H76.5725V127.528ZM75.3965 128.83H76.6505V129.232H75.3965V128.83ZM74.8325 127.792H75.3545C75.3545 129.142 74.4185 130.024 72.8645 130.42L72.6905 130.018C74.0645 129.682 74.8325 128.968 74.8325 128.014V127.792ZM72.9785 127.792H75.2345V128.194H72.9785V127.792ZM73.5785 130.54H77.0705V131.878H74.0885V132.736H73.5965V131.494H76.5785V130.942H73.5785V130.54ZM73.5965 132.502H77.2505V132.898H73.5965V132.502ZM80.58 127.648C81.75 127.648 82.488 128.032 82.488 128.674C82.488 129.316 81.75 129.694 80.58 129.694C79.404 129.694 78.672 129.316 78.672 128.674C78.672 128.032 79.404 127.648 80.58 127.648ZM80.58 128.044C79.716 128.044 79.182 128.272 79.182 128.674C79.182 129.07 79.716 129.304 80.58 129.304C81.438 129.304 81.978 129.07 81.978 128.674C81.978 128.272 81.438 128.044 80.58 128.044ZM78.726 131.092H82.428V132.88H78.726V131.092ZM81.942 131.494H79.218V132.478H81.942V131.494ZM78.126 130.162H83.028V130.564H78.126V130.162ZM87.4002 127.72H87.8382V128.02C87.8382 129.058 86.7822 129.802 85.6542 129.994L85.4562 129.592C86.4462 129.442 87.4002 128.794 87.4002 128.02V127.72ZM87.4902 127.72H87.9222V128.02C87.9222 128.776 88.8882 129.442 89.8662 129.592L89.6682 129.994C88.5522 129.802 87.4902 129.046 87.4902 128.02V127.72ZM87.4002 130.888H87.8922V132.952H87.4002V130.888ZM85.2102 130.582H90.1122V130.996H85.2102V130.582Z" fill="#BBBBBB"/>
<path d="M31.958 139.202C31.958 139.394 31.922 139.56 31.85 139.7C31.778 139.84 31.674 139.954 31.538 140.042C31.406 140.13 31.25 140.192 31.07 140.228V140.252C31.414 140.292 31.67 140.4 31.838 140.576C32.006 140.752 32.09 140.982 32.09 141.266C32.09 141.514 32.032 141.736 31.916 141.932C31.8 142.124 31.62 142.274 31.376 142.382C31.136 142.49 30.826 142.544 30.446 142.544C30.222 142.544 30.014 142.526 29.822 142.49C29.63 142.458 29.446 142.398 29.27 142.31V141.818C29.45 141.906 29.644 141.976 29.852 142.028C30.06 142.076 30.26 142.1 30.452 142.1C30.836 142.1 31.112 142.026 31.28 141.878C31.452 141.726 31.538 141.518 31.538 141.254C31.538 141.074 31.49 140.93 31.394 140.822C31.302 140.71 31.166 140.628 30.986 140.576C30.806 140.524 30.59 140.498 30.338 140.498H29.924V140.048H30.344C30.58 140.048 30.776 140.014 30.932 139.946C31.092 139.878 31.212 139.784 31.292 139.664C31.376 139.54 31.418 139.398 31.418 139.238C31.418 139.03 31.348 138.87 31.208 138.758C31.068 138.642 30.878 138.584 30.638 138.584C30.486 138.584 30.348 138.6 30.224 138.632C30.1 138.66 29.984 138.702 29.876 138.758C29.772 138.81 29.666 138.872 29.558 138.944L29.294 138.584C29.398 138.504 29.516 138.43 29.648 138.362C29.784 138.294 29.934 138.24 30.098 138.2C30.262 138.16 30.44 138.14 30.632 138.14C31.08 138.14 31.412 138.24 31.628 138.44C31.848 138.64 31.958 138.894 31.958 139.202ZM33.5856 141.854C33.5496 141.994 33.5036 142.146 33.4476 142.31C33.3916 142.474 33.3296 142.636 33.2616 142.796C33.1976 142.96 33.1336 143.114 33.0696 143.258H32.6796C32.7196 143.106 32.7576 142.942 32.7936 142.766C32.8336 142.594 32.8696 142.424 32.9016 142.256C32.9336 142.084 32.9596 141.928 32.9796 141.788H33.5436L33.5856 141.854ZM35.6891 139.856C35.9811 139.856 36.2351 139.906 36.4511 140.006C36.6671 140.106 36.8331 140.25 36.9491 140.438C37.0691 140.622 37.1291 140.848 37.1291 141.116C37.1291 141.412 37.0651 141.668 36.9371 141.884C36.8091 142.096 36.6251 142.26 36.3851 142.376C36.1491 142.488 35.8631 142.544 35.5271 142.544C35.3071 142.544 35.0991 142.524 34.9031 142.484C34.7111 142.444 34.5491 142.386 34.4171 142.31V141.812C34.5611 141.9 34.7351 141.97 34.9391 142.022C35.1471 142.07 35.3451 142.094 35.5331 142.094C35.7451 142.094 35.9291 142.062 36.0851 141.998C36.2451 141.93 36.3691 141.828 36.4571 141.692C36.5451 141.552 36.5891 141.378 36.5891 141.17C36.5891 140.89 36.5031 140.676 36.3311 140.528C36.1591 140.376 35.8871 140.3 35.5151 140.3C35.4031 140.3 35.2751 140.31 35.1311 140.33C34.9871 140.35 34.8711 140.37 34.7831 140.39L34.5191 140.222L34.6811 138.2H36.8291V138.68H35.1311L35.0291 139.922C35.0971 139.91 35.1891 139.896 35.3051 139.88C35.4211 139.864 35.5491 139.856 35.6891 139.856ZM39.1227 139.856C39.4147 139.856 39.6687 139.906 39.8847 140.006C40.1007 140.106 40.2667 140.25 40.3827 140.438C40.5027 140.622 40.5627 140.848 40.5627 141.116C40.5627 141.412 40.4987 141.668 40.3707 141.884C40.2427 142.096 40.0587 142.26 39.8187 142.376C39.5827 142.488 39.2967 142.544 38.9607 142.544C38.7407 142.544 38.5327 142.524 38.3367 142.484C38.1447 142.444 37.9827 142.386 37.8507 142.31V141.812C37.9947 141.9 38.1687 141.97 38.3727 142.022C38.5807 142.07 38.7787 142.094 38.9667 142.094C39.1787 142.094 39.3627 142.062 39.5187 141.998C39.6787 141.93 39.8027 141.828 39.8907 141.692C39.9787 141.552 40.0227 141.378 40.0227 141.17C40.0227 140.89 39.9367 140.676 39.7647 140.528C39.5927 140.376 39.3207 140.3 38.9487 140.3C38.8367 140.3 38.7087 140.31 38.5647 140.33C38.4207 140.35 38.3047 140.37 38.2167 140.39L37.9527 140.222L38.1147 138.2H40.2627V138.68H38.5647L38.4627 139.922C38.5307 139.91 38.6227 139.896 38.7387 139.88C38.8547 139.864 38.9827 139.856 39.1227 139.856ZM44.0443 140.336C44.0443 140.684 44.0183 140.994 43.9663 141.266C43.9143 141.538 43.8303 141.77 43.7143 141.962C43.6023 142.15 43.4543 142.294 43.2703 142.394C43.0903 142.494 42.8723 142.544 42.6163 142.544C42.2963 142.544 42.0303 142.456 41.8183 142.28C41.6103 142.104 41.4543 141.852 41.3503 141.524C41.2503 141.192 41.2003 140.796 41.2003 140.336C41.2003 139.872 41.2463 139.476 41.3383 139.148C41.4343 138.82 41.5863 138.57 41.7943 138.398C42.0023 138.222 42.2763 138.134 42.6163 138.134C42.9363 138.134 43.2023 138.222 43.4143 138.398C43.6263 138.57 43.7843 138.82 43.8883 139.148C43.9923 139.476 44.0443 139.872 44.0443 140.336ZM41.7283 140.336C41.7283 140.728 41.7563 141.054 41.8123 141.314C41.8723 141.574 41.9663 141.77 42.0943 141.902C42.2263 142.03 42.4003 142.094 42.6163 142.094C42.8323 142.094 43.0043 142.03 43.1323 141.902C43.2643 141.774 43.3603 141.58 43.4203 141.32C43.4803 141.056 43.5103 140.728 43.5103 140.336C43.5103 139.944 43.4803 139.62 43.4203 139.364C43.3603 139.104 43.2643 138.91 43.1323 138.782C43.0043 138.65 42.8323 138.584 42.6163 138.584C42.4003 138.584 42.2263 138.65 42.0943 138.782C41.9663 138.91 41.8723 139.104 41.8123 139.364C41.7563 139.62 41.7283 139.944 41.7283 140.336ZM44.6398 141.848H49.5538V142.262H44.6398V141.848ZM46.8358 140.552H47.3338V141.968H46.8358V140.552ZM45.2158 137.912H45.7078V138.878H48.4738V137.912H48.9658V140.684H45.2158V137.912ZM45.7078 139.28V140.276H48.4738V139.28H45.7078Z" fill="#7E7E7E"/>
<rect x="22.25" y="119.734" width="75.5" height="29.5" rx="5.75" stroke="#DDDDDD" stroke-width="0.5"/>
<path d="M31.496 166.322H31.988V167.054H31.496V166.322ZM31.748 164.594C32.942 164.594 33.656 164.924 33.656 165.53C33.656 166.136 32.942 166.472 31.748 166.472C30.548 166.472 29.84 166.136 29.84 165.53C29.84 164.924 30.548 164.594 31.748 164.594ZM31.748 164.972C30.86 164.972 30.35 165.176 30.35 165.53C30.35 165.89 30.86 166.094 31.748 166.094C32.63 166.094 33.14 165.89 33.14 165.53C33.14 165.176 32.63 164.972 31.748 164.972ZM29.294 166.874H34.196V167.282H29.294V166.874ZM29.888 167.726H33.572V168.956H30.392V169.616H29.9V168.59H33.08V168.116H29.888V167.726ZM29.9 169.502H33.734V169.892H29.9V169.502ZM34.8075 165.452H37.4955V165.86H34.8075V165.452ZM36.1515 166.22C36.8295 166.22 37.3215 166.73 37.3215 167.462C37.3215 168.188 36.8295 168.698 36.1515 168.698C35.4795 168.698 34.9875 168.188 34.9875 167.462C34.9875 166.73 35.4795 166.22 36.1515 166.22ZM36.1515 166.646C35.7375 166.646 35.4375 166.982 35.4375 167.462C35.4375 167.942 35.7375 168.278 36.1515 168.278C36.5715 168.278 36.8775 167.942 36.8775 167.462C36.8775 166.982 36.5715 166.646 36.1515 166.646ZM38.9295 164.528H39.4095V169.952H38.9295V164.528ZM38.0655 166.808H39.0915V167.222H38.0655V166.808ZM37.7715 164.648H38.2395V169.688H37.7715V164.648ZM35.9115 164.684H36.4035V165.704H35.9115V164.684ZM45.5697 164.528H46.0677V169.952H45.5697V164.528ZM45.9477 166.754H46.9557V167.174H45.9477V166.754ZM41.8677 165.392H45.0657V165.8H41.8677V165.392ZM43.4877 166.25C44.2557 166.25 44.8077 166.766 44.8077 167.498C44.8077 168.23 44.2557 168.746 43.4877 168.746C42.7257 168.746 42.1677 168.23 42.1677 167.498C42.1677 166.766 42.7257 166.25 43.4877 166.25ZM43.4877 166.664C42.9957 166.664 42.6417 167.006 42.6417 167.498C42.6417 167.984 42.9957 168.332 43.4877 168.332C43.9797 168.332 44.3337 167.984 44.3337 167.498C44.3337 167.006 43.9797 166.664 43.4877 166.664ZM43.2297 164.594H43.7277V165.578H43.2297V164.594ZM47.9992 164.744H51.7312V166.16H48.5152V167.096H48.0112V165.776H51.2332V165.146H47.9992V164.744ZM48.0112 166.85H51.8572V167.258H48.0112V166.85ZM47.4112 167.816H52.3312V168.23H47.4112V167.816ZM49.6132 167.972H50.1052V169.958H49.6132V167.972ZM57.5673 165.494H58.7313V165.902H57.5673V165.494ZM57.5673 166.466H58.7313V166.874H57.5673V166.466ZM54.6513 164.936H57.5073V165.344H54.6513V164.936ZM54.5613 167.552L54.5073 167.132C55.3953 167.132 56.6613 167.12 57.6753 167L57.7053 167.372C56.6613 167.54 55.4433 167.552 54.5613 167.552ZM55.1913 165.254H55.6713V167.27H55.1913V165.254ZM56.4873 165.254H56.9673V167.27H56.4873V165.254ZM58.4553 164.528H58.9533V167.876H58.4553V164.528ZM57.1713 167.984C58.2933 167.984 58.9773 168.338 58.9773 168.962C58.9773 169.586 58.2933 169.94 57.1713 169.94C56.0433 169.94 55.3593 169.586 55.3593 168.962C55.3593 168.338 56.0433 167.984 57.1713 167.984ZM57.1713 168.374C56.3493 168.374 55.8573 168.59 55.8573 168.962C55.8573 169.334 56.3493 169.556 57.1713 169.556C57.9933 169.556 58.4853 169.334 58.4853 168.962C58.4853 168.59 57.9933 168.374 57.1713 168.374ZM60.6268 164.816H64.0888V165.224H60.6268V164.816ZM60.0148 166.856H64.9288V167.264H60.0148V166.856ZM61.6468 167.114H62.1328V168.572H61.6468V167.114ZM63.8068 164.816H64.2928V165.23C64.2928 165.71 64.2928 166.268 64.1308 167.036L63.6448 166.982C63.8068 166.226 63.8068 165.698 63.8068 165.23V164.816ZM60.6028 169.424H64.4428V169.832H60.6028V169.424ZM60.6028 168.128H61.1008V169.526H60.6028V168.128ZM63.0808 167.114H63.5668V168.572H63.0808V167.114ZM71.053 164.528H71.551V167.306H71.053V164.528ZM69.877 165.83H71.131V166.232H69.877V165.83ZM69.313 164.792H69.835C69.835 166.142 68.899 167.024 67.345 167.42L67.171 167.018C68.545 166.682 69.313 165.968 69.313 165.014V164.792ZM67.459 164.792H69.715V165.194H67.459V164.792ZM68.059 167.54H71.551V168.878H68.569V169.736H68.077V168.494H71.059V167.942H68.059V167.54ZM68.077 169.502H71.731V169.898H68.077V169.502ZM75.0605 164.648C76.2305 164.648 76.9685 165.032 76.9685 165.674C76.9685 166.316 76.2305 166.694 75.0605 166.694C73.8845 166.694 73.1525 166.316 73.1525 165.674C73.1525 165.032 73.8845 164.648 75.0605 164.648ZM75.0605 165.044C74.1965 165.044 73.6625 165.272 73.6625 165.674C73.6625 166.07 74.1965 166.304 75.0605 166.304C75.9185 166.304 76.4585 166.07 76.4585 165.674C76.4585 165.272 75.9185 165.044 75.0605 165.044ZM73.2065 168.092H76.9085V169.88H73.2065V168.092ZM76.4225 168.494H73.6985V169.478H76.4225V168.494ZM72.6065 167.162H77.5085V167.564H72.6065V167.162ZM81.8806 164.72H82.3186V165.02C82.3186 166.058 81.2626 166.802 80.1346 166.994L79.9366 166.592C80.9266 166.442 81.8806 165.794 81.8806 165.02V164.72ZM81.9706 164.72H82.4026V165.02C82.4026 165.776 83.3686 166.442 84.3466 166.592L84.1486 166.994C83.0326 166.802 81.9706 166.046 81.9706 165.02V164.72ZM81.8806 167.888H82.3726V169.952H81.8806V167.888ZM79.6906 167.582H84.5926V167.996H79.6906V167.582Z" fill="#BBBBBB"/>
<path d="M32.312 178.512H31.688V179.484H31.178V178.512H29.126V178.062L31.142 175.176H31.688V178.038H32.312V178.512ZM31.178 176.688C31.178 176.584 31.178 176.49 31.178 176.406C31.182 176.318 31.186 176.236 31.19 176.16C31.194 176.084 31.196 176.012 31.196 175.944C31.2 175.872 31.204 175.804 31.208 175.74H31.184C31.152 175.816 31.112 175.898 31.064 175.986C31.016 176.074 30.97 176.148 30.926 176.208L29.642 178.038H31.178V176.688ZM33.5856 178.854C33.5496 178.994 33.5036 179.146 33.4476 179.31C33.3916 179.474 33.3296 179.636 33.2616 179.796C33.1976 179.96 33.1336 180.114 33.0696 180.258H32.6796C32.7196 180.106 32.7576 179.942 32.7936 179.766C32.8336 179.594 32.8696 179.424 32.9016 179.256C32.9336 179.084 32.9596 178.928 32.9796 178.788H33.5436L33.5856 178.854ZM37.1591 179.484H34.3271V179.046L35.4491 177.912C35.6651 177.696 35.8471 177.504 35.9951 177.336C36.1431 177.168 36.2551 177.004 36.3311 176.844C36.4071 176.68 36.4451 176.502 36.4451 176.31C36.4451 176.074 36.3751 175.896 36.2351 175.776C36.0951 175.652 35.9131 175.59 35.6891 175.59C35.4811 175.59 35.2971 175.626 35.1371 175.698C34.9811 175.77 34.8211 175.87 34.6571 175.998L34.3751 175.644C34.4871 175.548 34.6091 175.462 34.7411 175.386C34.8771 175.31 35.0231 175.25 35.1791 175.206C35.3391 175.162 35.5091 175.14 35.6891 175.14C35.9571 175.14 36.1871 175.186 36.3791 175.278C36.5711 175.37 36.7191 175.502 36.8231 175.674C36.9311 175.842 36.9851 176.044 36.9851 176.28C36.9851 176.448 36.9591 176.608 36.9071 176.76C36.8551 176.908 36.7811 177.054 36.6851 177.198C36.5891 177.342 36.4731 177.488 36.3371 177.636C36.2011 177.784 36.0511 177.938 35.8871 178.098L34.9931 178.98V179.004H37.1591V179.484ZM39.1227 176.856C39.4147 176.856 39.6687 176.906 39.8847 177.006C40.1007 177.106 40.2667 177.25 40.3827 177.438C40.5027 177.622 40.5627 177.848 40.5627 178.116C40.5627 178.412 40.4987 178.668 40.3707 178.884C40.2427 179.096 40.0587 179.26 39.8187 179.376C39.5827 179.488 39.2967 179.544 38.9607 179.544C38.7407 179.544 38.5327 179.524 38.3367 179.484C38.1447 179.444 37.9827 179.386 37.8507 179.31V178.812C37.9947 178.9 38.1687 178.97 38.3727 179.022C38.5807 179.07 38.7787 179.094 38.9667 179.094C39.1787 179.094 39.3627 179.062 39.5187 178.998C39.6787 178.93 39.8027 178.828 39.8907 178.692C39.9787 178.552 40.0227 178.378 40.0227 178.17C40.0227 177.89 39.9367 177.676 39.7647 177.528C39.5927 177.376 39.3207 177.3 38.9487 177.3C38.8367 177.3 38.7087 177.31 38.5647 177.33C38.4207 177.35 38.3047 177.37 38.2167 177.39L37.9527 177.222L38.1147 175.2H40.2627V175.68H38.5647L38.4627 176.922C38.5307 176.91 38.6227 176.896 38.7387 176.88C38.8547 176.864 38.9827 176.856 39.1227 176.856ZM44.0443 177.336C44.0443 177.684 44.0183 177.994 43.9663 178.266C43.9143 178.538 43.8303 178.77 43.7143 178.962C43.6023 179.15 43.4543 179.294 43.2703 179.394C43.0903 179.494 42.8723 179.544 42.6163 179.544C42.2963 179.544 42.0303 179.456 41.8183 179.28C41.6103 179.104 41.4543 178.852 41.3503 178.524C41.2503 178.192 41.2003 177.796 41.2003 177.336C41.2003 176.872 41.2463 176.476 41.3383 176.148C41.4343 175.82 41.5863 175.57 41.7943 175.398C42.0023 175.222 42.2763 175.134 42.6163 175.134C42.9363 175.134 43.2023 175.222 43.4143 175.398C43.6263 175.57 43.7843 175.82 43.8883 176.148C43.9923 176.476 44.0443 176.872 44.0443 177.336ZM41.7283 177.336C41.7283 177.728 41.7563 178.054 41.8123 178.314C41.8723 178.574 41.9663 178.77 42.0943 178.902C42.2263 179.03 42.4003 179.094 42.6163 179.094C42.8323 179.094 43.0043 179.03 43.1323 178.902C43.2643 178.774 43.3603 178.58 43.4203 178.32C43.4803 178.056 43.5103 177.728 43.5103 177.336C43.5103 176.944 43.4803 176.62 43.4203 176.364C43.3603 176.104 43.2643 175.91 43.1323 175.782C43.0043 175.65 42.8323 175.584 42.6163 175.584C42.4003 175.584 42.2263 175.65 42.0943 175.782C41.9663 175.91 41.8723 176.104 41.8123 176.364C41.7563 176.62 41.7283 176.944 41.7283 177.336ZM44.6398 178.848H49.5538V179.262H44.6398V178.848ZM46.8358 177.552H47.3338V178.968H46.8358V177.552ZM45.2158 174.912H45.7078V175.878H48.4738V174.912H48.9658V177.684H45.2158V174.912ZM45.7078 176.28V177.276H48.4738V176.28H45.7078Z" fill="#7E7E7E"/>
<rect x="22.25" y="156.734" width="75.5" height="29.5" rx="5.75" stroke="#DDDDDD" stroke-width="0.5"/>
<path d="M334 186.484L334 35.311L149 35.311L149 186.484L334 186.484Z" stroke="#DDDDDD" stroke-width="0.5"/>
<path d="M175.429 35.311L175.429 186.484" stroke="#DDDDDD" stroke-width="0.5" stroke-dasharray="1 1"/>
<path d="M201.857 35.311L201.857 186.484" stroke="#DDDDDD" stroke-width="0.5" stroke-dasharray="1 1"/>
<path d="M228.286 35.311L228.286 186.484" stroke="#DDDDDD" stroke-width="0.5" stroke-dasharray="1 1"/>
<path d="M254.714 35.311L254.714 186.484" stroke="#DDDDDD" stroke-width="0.5" stroke-dasharray="1 1"/>
<path d="M281.143 35.311L281.143 186.484" stroke="#DDDDDD" stroke-width="0.5" stroke-dasharray="1 1"/>
<path d="M307.571 35.311L307.571 186.484" stroke="#DDDDDD" stroke-width="0.5" stroke-dasharray="1 1"/>
<path d="M152.715 189.519C153.39 189.519 153.885 189.929 153.885 190.524C153.885 191.114 153.39 191.524 152.715 191.524C152.045 191.524 151.55 191.114 151.55 190.524C151.55 189.929 152.045 189.519 152.715 189.519ZM152.715 189.859C152.28 189.859 151.95 190.134 151.95 190.524C151.95 190.914 152.28 191.184 152.715 191.184C153.155 191.184 153.48 190.914 153.48 190.524C153.48 190.134 153.155 189.859 152.715 189.859ZM154.735 189.354H155.155V191.669H154.735V189.354ZM152.23 191.889H155.155V192.989H152.645V193.669H152.24V192.679H154.745V192.224H152.23V191.889ZM152.24 193.484H155.305V193.814H152.24V193.484Z" fill="#7E7E7E"/>
<path d="M178.66 191.224H179.075V192.029H178.66V191.224ZM180.735 189.354H181.15V192.014H180.735V189.354ZM177.485 191.364L177.435 191.054C178.305 191.054 179.41 191.049 180.375 190.939L180.4 191.209C179.41 191.354 178.33 191.364 177.485 191.364ZM178.12 192.179H181.15V193.119H178.535V193.629H178.13V192.844H180.74V192.479H178.12V192.179ZM178.13 193.524H181.3V193.824H178.13V193.524ZM179.835 191.504H180.865V191.774H179.835V191.504ZM178.895 189.439C179.565 189.439 180.005 189.699 180.005 190.119C180.005 190.539 179.565 190.799 178.895 190.799C178.22 190.799 177.78 190.539 177.78 190.119C177.78 189.699 178.22 189.439 178.895 189.439ZM178.895 189.729C178.45 189.729 178.165 189.879 178.165 190.119C178.165 190.359 178.45 190.509 178.895 190.509C179.33 190.509 179.615 190.359 179.615 190.119C179.615 189.879 179.33 189.729 178.895 189.729Z" fill="#7E7E7E"/>
<path d="M205.62 192.049H206.035V192.784H205.62V192.049ZM207.52 189.354H207.935V193.874H207.52V189.354ZM207.8 191.274H208.635V191.624H207.8V191.274ZM204.455 193.014L204.395 192.669C205.205 192.669 206.31 192.659 207.245 192.524L207.28 192.834C206.305 193.009 205.245 193.014 204.455 193.014ZM204.47 189.899H207.175V190.234H204.47V189.899ZM205.825 190.499C206.455 190.499 206.89 190.829 206.89 191.334C206.89 191.844 206.455 192.169 205.825 192.169C205.195 192.169 204.765 191.844 204.765 191.334C204.765 190.829 205.195 190.499 205.825 190.499ZM205.825 190.819C205.42 190.819 205.155 191.024 205.155 191.334C205.155 191.644 205.42 191.849 205.825 191.849C206.23 191.849 206.5 191.644 206.5 191.334C206.5 191.024 206.23 190.819 205.825 190.819ZM205.62 189.359H206.035V190.124H205.62V189.359Z" fill="#7E7E7E"/>
<path d="M232.275 189.514H232.64V189.764C232.64 190.629 231.76 191.249 230.82 191.409L230.655 191.074C231.48 190.949 232.275 190.409 232.275 189.764V189.514ZM232.35 189.514H232.71V189.764C232.71 190.394 233.515 190.949 234.33 191.074L234.165 191.409C233.235 191.249 232.35 190.619 232.35 189.764V189.514ZM232.275 192.154H232.685V193.874H232.275V192.154ZM230.45 191.899H234.535V192.244H230.45V191.899Z" fill="#7E7E7E"/>
<path d="M257.97 189.539H261.01V191.079H257.97V189.539ZM260.6 189.874H258.375V190.744H260.6V189.874ZM257.445 191.644H261.53V191.979H257.445V191.644ZM259.285 190.989H259.695V191.769H259.285V190.989ZM257.9 192.444H261.025V193.874H260.61V192.784H257.9V192.444Z" fill="#7E7E7E"/>
<path d="M283.97 189.589H286.88V189.929H283.97V189.589ZM283.45 191.254H287.545V191.594H283.45V191.254ZM286.61 189.589H287.015V189.924C287.015 190.309 287.015 190.749 286.865 191.374L286.46 191.354C286.61 190.734 286.61 190.299 286.61 189.924V189.589ZM283.95 192.209H287.03V193.814H283.95V192.209ZM286.625 192.539H284.355V193.479H286.625V192.539Z" fill="#7E7E7E"/>
<path d="M310.975 191.699H314.08V192.034H310.975V191.699ZM310.45 192.969H314.545V193.314H310.45V192.969ZM312.285 191.874H312.695V193.129H312.285V191.874ZM310.975 189.719H314.03V190.059H311.395V191.824H310.975V189.719ZM311.26 190.689H313.935V191.024H311.26V190.689Z" fill="#7E7E7E"/>
<rect x="151" y="178.484" width="16" height="8" fill="#FFF255" fill-opacity="0.6"/>
<rect x="178" y="118.484" width="16" height="68" fill="#FFF255" fill-opacity="0.6"/>
<rect x="204" y="105.484" width="16" height="81" fill="#FFF255" fill-opacity="0.6"/>
<rect x="231" y="134.484" width="16" height="52" fill="#FFF255"/>
<path d="M337.685 38.3605H337.41V35.7055C337.41 35.6088 337.41 35.5255 337.41 35.4555C337.41 35.3855 337.412 35.3205 337.415 35.2605C337.418 35.2005 337.42 35.1438 337.42 35.0905C337.373 35.1338 337.33 35.1738 337.29 35.2105C337.25 35.2438 337.197 35.2855 337.13 35.3355L336.63 35.7205L336.48 35.5205L337.45 34.7905H337.685V38.3605ZM341.431 36.5655C341.431 36.8655 341.408 37.1305 341.361 37.3605C341.318 37.5871 341.25 37.7788 341.156 37.9355C341.063 38.0921 340.943 38.2105 340.796 38.2905C340.653 38.3705 340.481 38.4105 340.281 38.4105C340.031 38.4105 339.821 38.3405 339.651 38.2005C339.481 38.0605 339.353 37.8538 339.266 37.5805C339.18 37.3071 339.136 36.9688 339.136 36.5655C339.136 36.1988 339.173 35.8788 339.246 35.6055C339.323 35.3321 339.445 35.1188 339.611 34.9655C339.781 34.8121 340.006 34.7355 340.286 34.7355C340.56 34.7355 340.78 34.8105 340.946 34.9605C341.116 35.1105 341.24 35.3238 341.316 35.6005C341.393 35.8738 341.431 36.1955 341.431 36.5655ZM339.421 36.5655C339.421 36.9255 339.451 37.2238 339.511 37.4605C339.571 37.6938 339.665 37.8688 339.791 37.9855C339.918 38.1021 340.081 38.1605 340.281 38.1605C340.488 38.1605 340.653 38.1038 340.776 37.9905C340.903 37.8738 340.995 37.6971 341.051 37.4605C341.111 37.2238 341.141 36.9255 341.141 36.5655C341.141 36.2321 341.115 35.9488 341.061 35.7155C341.011 35.4788 340.923 35.2988 340.796 35.1755C340.673 35.0488 340.503 34.9855 340.286 34.9855C340.07 34.9855 339.898 35.0488 339.771 35.1755C339.645 35.3021 339.555 35.4838 339.501 35.7205C339.448 35.9538 339.421 36.2355 339.421 36.5655ZM342.503 37.8405C342.476 37.9605 342.443 38.0888 342.403 38.2255C342.363 38.3621 342.32 38.4971 342.273 38.6305C342.226 38.7638 342.178 38.8888 342.128 39.0055H341.908C341.951 38.8588 341.99 38.7155 342.023 38.5755C342.056 38.4355 342.086 38.2988 342.113 38.1655C342.14 38.0321 342.161 37.9038 342.178 37.7805H342.478L342.503 37.8405ZM345.411 36.5655C345.411 36.8655 345.388 37.1305 345.341 37.3605C345.298 37.5871 345.229 37.7788 345.136 37.9355C345.043 38.0921 344.923 38.2105 344.776 38.2905C344.633 38.3705 344.461 38.4105 344.261 38.4105C344.011 38.4105 343.801 38.3405 343.631 38.2005C343.461 38.0605 343.333 37.8538 343.246 37.5805C343.159 37.3071 343.116 36.9688 343.116 36.5655C343.116 36.1988 343.153 35.8788 343.226 35.6055C343.303 35.3321 343.424 35.1188 343.591 34.9655C343.761 34.8121 343.986 34.7355 344.266 34.7355C344.539 34.7355 344.759 34.8105 344.926 34.9605C345.096 35.1105 345.219 35.3238 345.296 35.6005C345.373 35.8738 345.411 36.1955 345.411 36.5655ZM343.401 36.5655C343.401 36.9255 343.431 37.2238 343.491 37.4605C343.551 37.6938 343.644 37.8688 343.771 37.9855C343.898 38.1021 344.061 38.1605 344.261 38.1605C344.468 38.1605 344.633 38.1038 344.756 37.9905C344.883 37.8738 344.974 37.6971 345.031 37.4605C345.091 37.2238 345.121 36.9255 345.121 36.5655C345.121 36.2321 345.094 35.9488 345.041 35.7155C344.991 35.4788 344.903 35.2988 344.776 35.1755C344.653 35.0488 344.483 34.9855 344.266 34.9855C344.049 34.9855 343.878 35.0488 343.751 35.1755C343.624 35.3021 343.534 35.4838 343.481 35.7205C343.428 35.9538 343.401 36.2355 343.401 36.5655ZM348.267 36.5655C348.267 36.8655 348.244 37.1305 348.197 37.3605C348.154 37.5871 348.086 37.7788 347.992 37.9355C347.899 38.0921 347.779 38.2105 347.632 38.2905C347.489 38.3705 347.317 38.4105 347.117 38.4105C346.867 38.4105 346.657 38.3405 346.487 38.2005C346.317 38.0605 346.189 37.8538 346.102 37.5805C346.016 37.3071 345.972 36.9688 345.972 36.5655C345.972 36.1988 346.009 35.8788 346.082 35.6055C346.159 35.3321 346.281 35.1188 346.447 34.9655C346.617 34.8121 346.842 34.7355 347.122 34.7355C347.396 34.7355 347.616 34.8105 347.782 34.9605C347.952 35.1105 348.076 35.3238 348.152 35.6005C348.229 35.8738 348.267 36.1955 348.267 36.5655ZM346.257 36.5655C346.257 36.9255 346.287 37.2238 346.347 37.4605C346.407 37.6938 346.501 37.8688 346.627 37.9855C346.754 38.1021 346.917 38.1605 347.117 38.1605C347.324 38.1605 347.489 38.1038 347.612 37.9905C347.739 37.8738 347.831 37.6971 347.887 37.4605C347.947 37.2238 347.977 36.9255 347.977 36.5655C347.977 36.2321 347.951 35.9488 347.897 35.7155C347.847 35.4788 347.759 35.2988 347.632 35.1755C347.509 35.0488 347.339 34.9855 347.122 34.9855C346.906 34.9855 346.734 35.0488 346.607 35.1755C346.481 35.3021 346.391 35.4838 346.337 35.7205C346.284 35.9538 346.257 36.2355 346.257 36.5655ZM351.124 36.5655C351.124 36.8655 351.1 37.1305 351.054 37.3605C351.01 37.5871 350.942 37.7788 350.849 37.9355C350.755 38.0921 350.635 38.2105 350.489 38.2905C350.345 38.3705 350.174 38.4105 349.974 38.4105C349.724 38.4105 349.514 38.3405 349.344 38.2005C349.174 38.0605 349.045 37.8538 348.959 37.5805C348.872 37.3071 348.829 36.9688 348.829 36.5655C348.829 36.1988 348.865 35.8788 348.939 35.6055C349.015 35.3321 349.137 35.1188 349.304 34.9655C349.474 34.8121 349.699 34.7355 349.979 34.7355C350.252 34.7355 350.472 34.8105 350.639 34.9605C350.809 35.1105 350.932 35.3238 351.009 35.6005C351.085 35.8738 351.124 36.1955 351.124 36.5655ZM349.114 36.5655C349.114 36.9255 349.144 37.2238 349.204 37.4605C349.264 37.6938 349.357 37.8688 349.484 37.9855C349.61 38.1021 349.774 38.1605 349.974 38.1605C350.18 38.1605 350.345 38.1038 350.469 37.9905C350.595 37.8738 350.687 37.6971 350.744 37.4605C350.804 37.2238 350.834 36.9255 350.834 36.5655C350.834 36.2321 350.807 35.9488 350.754 35.7155C350.704 35.4788 350.615 35.2988 350.489 35.1755C350.365 35.0488 350.195 34.9855 349.979 34.9855C349.762 34.9855 349.59 35.0488 349.464 35.1755C349.337 35.3021 349.247 35.4838 349.194 35.7205C349.14 35.9538 349.114 36.2355 349.114 36.5655Z" fill="#7E7E7E"/>
<path d="M337.37 110.324C337.613 110.324 337.822 110.366 337.995 110.449C338.172 110.532 338.308 110.652 338.405 110.809C338.502 110.962 338.55 111.151 338.55 111.374C338.55 111.614 338.497 111.821 338.39 111.994C338.283 112.167 338.133 112.301 337.94 112.394C337.747 112.487 337.518 112.534 337.255 112.534C337.068 112.534 336.897 112.516 336.74 112.479C336.583 112.442 336.452 112.392 336.345 112.329V112.049C336.462 112.119 336.6 112.176 336.76 112.219C336.92 112.262 337.085 112.284 337.255 112.284C337.458 112.284 337.635 112.251 337.785 112.184C337.935 112.117 338.052 112.017 338.135 111.884C338.218 111.751 338.26 111.587 338.26 111.394C338.26 111.134 338.18 110.932 338.02 110.789C337.863 110.642 337.623 110.569 337.3 110.569C337.177 110.569 337.053 110.579 336.93 110.599C336.81 110.616 336.7 110.637 336.6 110.664L336.445 110.559L336.59 108.914H338.315V109.174H336.83L336.725 110.404C336.795 110.387 336.883 110.371 336.99 110.354C337.1 110.334 337.227 110.324 337.37 110.324ZM339.646 111.964C339.62 112.084 339.586 112.212 339.546 112.349C339.506 112.486 339.463 112.621 339.416 112.754C339.37 112.887 339.321 113.012 339.271 113.129H339.051C339.095 112.982 339.133 112.839 339.166 112.699C339.2 112.559 339.23 112.422 339.256 112.289C339.283 112.156 339.305 112.027 339.321 111.904H339.621L339.646 111.964ZM342.554 110.689C342.554 110.989 342.531 111.254 342.484 111.484C342.441 111.711 342.373 111.902 342.279 112.059C342.186 112.216 342.066 112.334 341.919 112.414C341.776 112.494 341.604 112.534 341.404 112.534C341.154 112.534 340.944 112.464 340.774 112.324C340.604 112.184 340.476 111.977 340.389 111.704C340.303 111.431 340.259 111.092 340.259 110.689C340.259 110.322 340.296 110.002 340.369 109.729C340.446 109.456 340.568 109.242 340.734 109.089C340.904 108.936 341.129 108.859 341.409 108.859C341.683 108.859 341.903 108.934 342.069 109.084C342.239 109.234 342.363 109.447 342.439 109.724C342.516 109.997 342.554 110.319 342.554 110.689ZM340.544 110.689C340.544 111.049 340.574 111.347 340.634 111.584C340.694 111.817 340.788 111.992 340.914 112.109C341.041 112.226 341.204 112.284 341.404 112.284C341.611 112.284 341.776 112.227 341.899 112.114C342.026 111.997 342.118 111.821 342.174 111.584C342.234 111.347 342.264 111.049 342.264 110.689C342.264 110.356 342.238 110.072 342.184 109.839C342.134 109.602 342.046 109.422 341.919 109.299C341.796 109.172 341.626 109.109 341.409 109.109C341.193 109.109 341.021 109.172 340.894 109.299C340.768 109.426 340.678 109.607 340.624 109.844C340.571 110.077 340.544 110.359 340.544 110.689ZM345.411 110.689C345.411 110.989 345.388 111.254 345.341 111.484C345.298 111.711 345.229 111.902 345.136 112.059C345.043 112.216 344.923 112.334 344.776 112.414C344.633 112.494 344.461 112.534 344.261 112.534C344.011 112.534 343.801 112.464 343.631 112.324C343.461 112.184 343.333 111.977 343.246 111.704C343.159 111.431 343.116 111.092 343.116 110.689C343.116 110.322 343.153 110.002 343.226 109.729C343.303 109.456 343.424 109.242 343.591 109.089C343.761 108.936 343.986 108.859 344.266 108.859C344.539 108.859 344.759 108.934 344.926 109.084C345.096 109.234 345.219 109.447 345.296 109.724C345.373 109.997 345.411 110.319 345.411 110.689ZM343.401 110.689C343.401 111.049 343.431 111.347 343.491 111.584C343.551 111.817 343.644 111.992 343.771 112.109C343.898 112.226 344.061 112.284 344.261 112.284C344.468 112.284 344.633 112.227 344.756 112.114C344.883 111.997 344.974 111.821 345.031 111.584C345.091 111.347 345.121 111.049 345.121 110.689C345.121 110.356 345.094 110.072 345.041 109.839C344.991 109.602 344.903 109.422 344.776 109.299C344.653 109.172 344.483 109.109 344.266 109.109C344.049 109.109 343.878 109.172 343.751 109.299C343.624 109.426 343.534 109.607 343.481 109.844C343.428 110.077 343.401 110.359 343.401 110.689ZM348.267 110.689C348.267 110.989 348.244 111.254 348.197 111.484C348.154 111.711 348.086 111.902 347.992 112.059C347.899 112.216 347.779 112.334 347.632 112.414C347.489 112.494 347.317 112.534 347.117 112.534C346.867 112.534 346.657 112.464 346.487 112.324C346.317 112.184 346.189 111.977 346.102 111.704C346.016 111.431 345.972 111.092 345.972 110.689C345.972 110.322 346.009 110.002 346.082 109.729C346.159 109.456 346.281 109.242 346.447 109.089C346.617 108.936 346.842 108.859 347.122 108.859C347.396 108.859 347.616 108.934 347.782 109.084C347.952 109.234 348.076 109.447 348.152 109.724C348.229 109.997 348.267 110.319 348.267 110.689ZM346.257 110.689C346.257 111.049 346.287 111.347 346.347 111.584C346.407 111.817 346.501 111.992 346.627 112.109C346.754 112.226 346.917 112.284 347.117 112.284C347.324 112.284 347.489 112.227 347.612 112.114C347.739 111.997 347.831 111.821 347.887 111.584C347.947 111.347 347.977 111.049 347.977 110.689C347.977 110.356 347.951 110.072 347.897 109.839C347.847 109.602 347.759 109.422 347.632 109.299C347.509 109.172 347.339 109.109 347.122 109.109C346.906 109.109 346.734 109.172 346.607 109.299C346.481 109.426 346.391 109.607 346.337 109.844C346.284 110.077 346.257 110.359 346.257 110.689Z" fill="#7E7E7E"/>
<path d="M148.749 109.484H334.234" stroke="#DDDDDD" stroke-width="0.5"/>
<rect x="351" y="13.4839" width="18" height="10" rx="5" fill="#5B5B5B"/>
<path d="M357.45 17.4439H358.33V17.7889H357.45V17.4439ZM357.45 18.8189H358.33V19.1639H357.45V18.8189ZM359.09 16.3539H359.49V20.8739H359.09V16.3539ZM358.205 16.4489H358.595V20.6489H358.205V16.4489ZM356.665 16.7289C357.25 16.7289 357.63 17.3339 357.63 18.3039C357.63 19.2739 357.25 19.8789 356.665 19.8789C356.08 19.8789 355.705 19.2739 355.705 18.3039C355.705 17.3339 356.08 16.7289 356.665 16.7289ZM356.665 17.1139C356.31 17.1139 356.08 17.5739 356.08 18.3039C356.08 19.0339 356.31 19.4939 356.665 19.4939C357.025 19.4939 357.25 19.0339 357.25 18.3039C357.25 17.5739 357.025 17.1139 356.665 17.1139ZM361.44 16.7439H361.78V17.5539C361.78 18.5939 361.22 19.5589 360.48 19.9339L360.225 19.5939C360.895 19.2739 361.44 18.4089 361.44 17.5539V16.7439ZM361.51 16.7439H361.85V17.5539C361.85 18.3789 362.39 19.2089 363.06 19.5189L362.81 19.8489C362.075 19.4889 361.51 18.5589 361.51 17.5539V16.7439ZM363.53 16.3489H363.945V20.8789H363.53V16.3489Z" fill="white"/>
<path d="M59.9999 68.5917C59.9999 68.5917 82.392 68.551 96 68.5917" stroke="#F6F6F6" stroke-width="6"/>
<path d="M30.328 66.9639H30.992V68.7639H30.328V66.9639ZM30.664 63.3479C32.192 63.3479 33.288 64.0919 33.288 65.2439C33.288 66.3959 32.192 67.1399 30.664 67.1399C29.136 67.1399 28.032 66.3959 28.032 65.2439C28.032 64.0919 29.136 63.3479 30.664 63.3479ZM30.664 63.8759C29.512 63.8759 28.672 64.4199 28.672 65.2439C28.672 66.0679 29.512 66.6119 30.664 66.6119C31.808 66.6119 32.648 66.0679 32.648 65.2439C32.648 64.4199 31.808 63.8759 30.664 63.8759ZM27.4 68.6359H33.952V69.1879H27.4V68.6359ZM35.6394 64.5959H40.5434V65.1399H35.6394V64.5959ZM34.7514 65.8359H41.3114V66.3799H34.7514V65.8359ZM35.6394 62.9799H36.2874V64.8439H35.6394V62.9799ZM35.5674 67.0279H40.4794V68.7239H36.2394V69.6599H35.5834V68.2279H39.8154V67.5399H35.5674V67.0279ZM35.5834 69.4919H40.7194V70.0119H35.5834V69.4919ZM49.0929 62.8759H49.7569V70.1079H49.0929V62.8759ZM49.5969 65.8439H50.9409V66.4039H49.5969V65.8439ZM44.1569 64.0279H48.4209V64.5719H44.1569V64.0279ZM46.3169 65.1719C47.3409 65.1719 48.0769 65.8599 48.0769 66.8359C48.0769 67.8119 47.3409 68.4999 46.3169 68.4999C45.3009 68.4999 44.5569 67.8119 44.5569 66.8359C44.5569 65.8599 45.3009 65.1719 46.3169 65.1719ZM46.3169 65.7239C45.6609 65.7239 45.1889 66.1799 45.1889 66.8359C45.1889 67.4839 45.6609 67.9479 46.3169 67.9479C46.9729 67.9479 47.4449 67.4839 47.4449 66.8359C47.4449 66.1799 46.9729 65.7239 46.3169 65.7239ZM45.9729 62.9639H46.6369V64.2759H45.9729V62.9639ZM52.3322 63.1639H57.3083V65.0519H53.0203V66.2999H52.3483V64.5399H56.6443V63.6999H52.3322V63.1639ZM52.3483 65.9719H57.4763V66.5159H52.3483V65.9719ZM51.5483 67.2599H58.1083V67.8119H51.5483V67.2599ZM54.4843 67.4679H55.1403V70.1159H54.4843V67.4679ZM65.5738 63.9939C65.5738 64.3139 65.5104 64.5939 65.3838 64.8339C65.2638 65.0672 65.0904 65.2572 64.8638 65.4039C64.6371 65.5506 64.3771 65.6572 64.0838 65.7239V65.7639C64.6571 65.8306 65.0838 66.0106 65.3638 66.3039C65.6504 66.5906 65.7938 66.9706 65.7938 67.4439C65.7938 67.8572 65.6938 68.2272 65.4938 68.5539C65.3004 68.8739 64.9971 69.1272 64.5838 69.3139C64.1771 69.4939 63.6538 69.5839 63.0138 69.5839C62.6338 69.5839 62.2804 69.5539 61.9538 69.4939C61.6271 69.4339 61.3171 69.3339 61.0238 69.1939V68.2339C61.3238 68.3872 61.6438 68.5039 61.9838 68.5839C62.3304 68.6639 62.6604 68.7039 62.9738 68.7039C63.5804 68.7039 64.0171 68.5906 64.2838 68.3639C64.5504 68.1306 64.6838 67.8072 64.6838 67.3939C64.6838 67.1272 64.6138 66.9106 64.4738 66.7439C64.3338 66.5706 64.1204 66.4439 63.8338 66.3639C63.5471 66.2772 63.1904 66.2339 62.7638 66.2339H62.1138V65.3639H62.7738C63.1804 65.3639 63.5104 65.3139 63.7638 65.2139C64.0171 65.1072 64.2038 64.9606 64.3238 64.7739C64.4438 64.5872 64.5038 64.3739 64.5038 64.1339C64.5038 63.8139 64.3971 63.5672 64.1838 63.3939C63.9771 63.2139 63.6771 63.1239 63.2838 63.1239C63.0438 63.1239 62.8204 63.1506 62.6138 63.2039C62.4138 63.2572 62.2304 63.3272 62.0637 63.4139C61.8971 63.5006 61.7338 63.5972 61.5738 63.7039L61.0538 62.9739C61.2338 62.8406 61.4338 62.7172 61.6538 62.6039C61.8804 62.4906 62.1304 62.4039 62.4038 62.3439C62.6838 62.2772 62.9871 62.2439 63.3138 62.2439C64.0538 62.2439 64.6138 62.4072 64.9938 62.7339C65.3804 63.0539 65.5738 63.4739 65.5738 63.9939ZM68.3264 68.4339C68.2664 68.6672 68.1897 68.9206 68.0964 69.1939C68.0031 69.4672 67.9031 69.7372 67.7964 70.0039C67.6897 70.2772 67.5797 70.5339 67.4664 70.7739H66.6964C66.7631 70.5139 66.8264 70.2372 66.8864 69.9439C66.9531 69.6572 67.0131 69.3739 67.0664 69.0939C67.1197 68.8139 67.1631 68.5572 67.1964 68.3239H68.2564L68.3264 68.4339ZM71.8708 65.0539C72.3441 65.0539 72.7574 65.1372 73.1108 65.3039C73.4641 65.4706 73.7374 65.7106 73.9308 66.0239C74.1308 66.3372 74.2308 66.7206 74.2308 67.1739C74.2308 67.6739 74.1241 68.1039 73.9108 68.4639C73.6974 68.8239 73.3874 69.1006 72.9808 69.2939C72.5808 69.4872 72.0908 69.5839 71.5108 69.5839C71.1441 69.5839 70.7974 69.5506 70.4708 69.4839C70.1441 69.4172 69.8674 69.3206 69.6408 69.1939V68.2239C69.8808 68.3639 70.1708 68.4772 70.5108 68.5639C70.8574 68.6506 71.1874 68.6939 71.5008 68.6939C71.8408 68.6939 72.1308 68.6439 72.3708 68.5439C72.6174 68.4372 72.8074 68.2806 72.9408 68.0739C73.0808 67.8606 73.1508 67.5939 73.1508 67.2739C73.1508 66.8406 73.0141 66.5106 72.7408 66.2839C72.4741 66.0506 72.0508 65.9339 71.4708 65.9339C71.2841 65.9339 71.0741 65.9506 70.8408 65.9839C70.6141 66.0172 70.4308 66.0506 70.2908 66.0839L69.8008 65.7939L70.0708 62.3439H73.7408V63.2839H70.9908L70.8308 65.1539C70.9441 65.1339 71.0874 65.1139 71.2608 65.0939C71.4341 65.0672 71.6374 65.0539 71.8708 65.0539ZM77.5934 65.0539C78.0668 65.0539 78.4801 65.1372 78.8334 65.3039C79.1868 65.4706 79.4601 65.7106 79.6534 66.0239C79.8534 66.3372 79.9534 66.7206 79.9534 67.1739C79.9534 67.6739 79.8468 68.1039 79.6334 68.4639C79.4201 68.8239 79.1101 69.1006 78.7034 69.2939C78.3034 69.4872 77.8134 69.5839 77.2334 69.5839C76.8668 69.5839 76.5201 69.5506 76.1934 69.4839C75.8668 69.4172 75.5901 69.3206 75.3634 69.1939V68.2239C75.6034 68.3639 75.8934 68.4772 76.2334 68.5639C76.5801 68.6506 76.9101 68.6939 77.2234 68.6939C77.5634 68.6939 77.8534 68.6439 78.0934 68.5439C78.3401 68.4372 78.5301 68.2806 78.6634 68.0739C78.8034 67.8606 78.8734 67.5939 78.8734 67.2739C78.8734 66.8406 78.7368 66.5106 78.4634 66.2839C78.1968 66.0506 77.7734 65.9339 77.1934 65.9339C77.0068 65.9339 76.7968 65.9506 76.5634 65.9839C76.3368 66.0172 76.1534 66.0506 76.0134 66.0839L75.5234 65.7939L75.7934 62.3439H79.4634V63.2839H76.7134L76.5534 65.1539C76.6668 65.1339 76.8101 65.1139 76.9834 65.0939C77.1568 65.0672 77.3601 65.0539 77.5934 65.0539ZM85.7661 65.9039C85.7661 66.4839 85.7194 67.0006 85.6261 67.4539C85.5394 67.9072 85.3994 68.2939 85.2061 68.6139C85.0194 68.9272 84.7694 69.1672 84.4561 69.3339C84.1494 69.5006 83.7794 69.5839 83.3461 69.5839C82.7994 69.5839 82.3494 69.4372 81.9961 69.1439C81.6428 68.8506 81.3794 68.4306 81.2061 67.8839C81.0328 67.3306 80.9461 66.6706 80.9461 65.9039C80.9461 65.1306 81.0228 64.4706 81.1761 63.9239C81.3361 63.3772 81.5928 62.9606 81.9461 62.6739C82.2994 62.3806 82.7661 62.2339 83.3461 62.2339C83.8928 62.2339 84.3428 62.3806 84.6961 62.6739C85.0561 62.9606 85.3228 63.3772 85.4961 63.9239C85.6761 64.4706 85.7661 65.1306 85.7661 65.9039ZM82.0061 65.9039C82.0061 66.5239 82.0494 67.0406 82.1361 67.4539C82.2228 67.8672 82.3628 68.1772 82.5561 68.3839C82.7561 68.5906 83.0194 68.6939 83.3461 68.6939C83.6728 68.6939 83.9328 68.5939 84.1261 68.3939C84.3261 68.1872 84.4694 67.8772 84.5561 67.4639C84.6494 67.0439 84.6961 66.5239 84.6961 65.9039C84.6961 65.2839 84.6494 64.7706 84.5561 64.3639C84.4694 63.9506 84.3261 63.6406 84.1261 63.4339C83.9328 63.2272 83.6728 63.1239 83.3461 63.1239C83.0194 63.1239 82.7561 63.2272 82.5561 63.4339C82.3628 63.6406 82.2228 63.9506 82.1361 64.3639C82.0494 64.7706 82.0061 65.2839 82.0061 65.9039ZM86.7188 68.4239H94.9088V69.1139H86.7188V68.4239ZM90.3788 66.2639H91.2088V68.6239H90.3788V66.2639ZM87.6788 61.8639H88.4988V63.4739H93.1088V61.8639H93.9288V66.4839H87.6788V61.8639ZM88.4988 64.1439V65.8039H93.1088V64.1439H88.4988ZM103.176 62.8759H103.84V66.5799H103.176V62.8759ZM101.608 64.6119H103.28V65.1479H101.608V64.6119ZM100.856 63.2279H101.552C101.552 65.0279 100.304 66.2039 98.2321 66.7319L98.0001 66.1959C99.8321 65.7479 100.856 64.7959 100.856 63.5239V63.2279ZM98.3841 63.2279H101.392V63.7639H98.3841V63.2279ZM99.1841 66.8919H103.84V68.6759H99.8641V69.8199H99.2081V68.1639H103.184V67.4279H99.1841V66.8919ZM99.2081 69.5079H104.08V70.0359H99.2081V69.5079ZM107.095 67.2839H107.615V67.6999C107.615 68.6599 107.023 69.6199 105.983 70.0199L105.647 69.5239C106.559 69.1879 107.095 68.4039 107.095 67.6999V67.2839ZM107.247 67.2839H107.743V67.6999C107.743 68.4359 108.167 69.2279 109.039 69.5799L108.759 70.0839C107.711 69.6759 107.247 68.6679 107.247 67.6999V67.2839ZM109.775 67.2839H110.263V67.6999C110.263 68.5559 109.791 69.6439 108.759 70.0839L108.471 69.5799C109.335 69.1799 109.775 68.3319 109.775 67.6999V67.2839ZM109.903 67.2839H110.423V67.6999C110.423 68.4599 110.951 69.2119 111.879 69.5239L111.535 70.0199C110.487 69.6359 109.903 68.7079 109.903 67.6999V67.2839ZM108.807 64.6839H110.719V65.2359H108.807V64.6839ZM107.223 63.2839C108.287 63.2839 109.079 63.9799 109.079 64.9799C109.079 65.9719 108.287 66.6679 107.223 66.6679C106.159 66.6679 105.375 65.9719 105.375 64.9799C105.375 63.9799 106.159 63.2839 107.223 63.2839ZM107.223 63.8359C106.519 63.8359 106.007 64.3159 106.007 64.9799C106.007 65.6439 106.519 66.1159 107.223 66.1159C107.919 66.1159 108.439 65.6439 108.439 64.9799C108.439 64.3159 107.919 63.8359 107.223 63.8359ZM110.535 62.8759H111.199V66.9959H110.535V62.8759ZM114.543 63.4279C115.591 63.4279 116.343 64.4119 116.343 65.9479C116.343 67.4919 115.591 68.4759 114.543 68.4759C113.487 68.4759 112.743 67.4919 112.743 65.9479C112.743 64.4119 113.487 63.4279 114.543 63.4279ZM114.543 64.0279C113.847 64.0279 113.375 64.7799 113.375 65.9479C113.375 67.1239 113.847 67.8919 114.543 67.8919C115.239 67.8919 115.711 67.1239 115.711 65.9479C115.711 64.7799 115.239 64.0279 114.543 64.0279ZM117.911 62.8679H118.567V70.1159H117.911V62.8679ZM116.127 65.6279H118.199V66.1719H116.127V65.6279ZM121.574 66.5959H122.23V68.7639H121.574V66.5959ZM124.246 66.5959H124.91V68.7639H124.246V66.5959ZM119.974 68.6359H126.526V69.1879H119.974V68.6359ZM123.238 63.3319C124.766 63.3319 125.862 64.0599 125.862 65.1959C125.862 66.3239 124.766 67.0519 123.238 67.0519C121.702 67.0519 120.606 66.3239 120.606 65.1959C120.606 64.0599 121.702 63.3319 123.238 63.3319ZM123.238 63.8599C122.078 63.8599 121.246 64.3879 121.246 65.1959C121.246 65.9959 122.078 66.5239 123.238 66.5239C124.398 66.5239 125.222 65.9959 125.222 65.1959C125.222 64.3879 124.398 63.8599 123.238 63.8599ZM127.478 69.0119C127.478 68.8039 127.531 68.6572 127.638 68.5719C127.744 68.4866 127.872 68.4439 128.022 68.4439C128.176 68.4439 128.307 68.4866 128.414 68.5719C128.52 68.6572 128.574 68.8039 128.574 69.0119C128.574 69.2199 128.52 69.3692 128.414 69.4599C128.307 69.5506 128.176 69.5959 128.022 69.5959C127.872 69.5959 127.744 69.5506 127.638 69.4599C127.531 69.3692 127.478 69.2199 127.478 69.0119Z" fill="#5B5B5B"/>
<path d="M62.9999 91.4838C62.9999 91.4838 85.392 91.4431 99 91.4838" stroke="#F6F6F6" stroke-width="6"/>
<path d="M28.648 84.8679H29.312V92.1159H28.648V84.8679ZM25.496 85.4279C26.568 85.4279 27.336 86.4119 27.336 87.9479C27.336 89.4919 26.568 90.4759 25.496 90.4759C24.432 90.4759 23.664 89.4919 23.664 87.9479C23.664 86.4119 24.432 85.4279 25.496 85.4279ZM25.496 86.0279C24.792 86.0279 24.296 86.7799 24.296 87.9479C24.296 89.1239 24.792 89.8919 25.496 89.8919C26.208 89.8919 26.696 89.1239 26.696 87.9479C26.696 86.7799 26.208 86.0279 25.496 86.0279ZM34.1674 86.9159H36.2474V87.4599H34.1674V86.9159ZM36.0394 84.8839H36.7034V90.2359H36.0394V84.8839ZM32.0554 91.4039H36.8794V91.9479H32.0554V91.4039ZM32.0554 89.7159H32.7194V91.6839H32.0554V89.7159ZM31.1114 85.3559H31.7674V86.6359H33.7274V85.3559H34.3754V89.0039H31.1114V85.3559ZM31.7674 87.1559V88.4599H33.7274V87.1559H31.7674ZM41.0148 85.5879H41.5908V85.8919C41.5908 87.1879 40.2148 88.1399 38.7588 88.3879L38.5028 87.8599C39.7747 87.6759 41.0148 86.8439 41.0148 85.8919V85.5879ZM41.1828 85.5879H41.7508V85.8919C41.7508 86.8439 42.9988 87.6759 44.2628 87.8599L44.0148 88.3879C42.5508 88.1399 41.1828 87.1879 41.1828 85.8919V85.5879ZM41.0388 89.3479H41.6948V92.1079H41.0388V89.3479ZM38.1188 88.9959H44.6548V89.5399H38.1188V88.9959ZM38.7268 85.3239H44.0228V85.8599H38.7268V85.3239ZM51.6523 86.1639H53.2043V86.7079H51.6523V86.1639ZM51.6523 87.4599H53.2043V88.0039H51.6523V87.4599ZM47.7643 85.4199H51.5723V85.9639H47.7643V85.4199ZM47.6443 88.9079L47.5723 88.3479C48.7563 88.3479 50.4443 88.3319 51.7963 88.1719L51.8363 88.6679C50.4443 88.8919 48.8203 88.9079 47.6443 88.9079ZM48.4843 85.8439H49.1243V88.5319H48.4843V85.8439ZM50.2123 85.8439H50.8523V88.5319H50.2123V85.8439ZM52.8363 84.8759H53.5003V89.3399H52.8363V84.8759ZM51.1243 89.4839C52.6203 89.4839 53.5323 89.9559 53.5323 90.7879C53.5323 91.6199 52.6203 92.0919 51.1243 92.0919C49.6203 92.0919 48.7083 91.6199 48.7083 90.7879C48.7083 89.9559 49.6203 89.4839 51.1243 89.4839ZM51.1243 90.0039C50.0283 90.0039 49.3723 90.2919 49.3723 90.7879C49.3723 91.2839 50.0283 91.5799 51.1243 91.5799C52.2203 91.5799 52.8763 91.2839 52.8763 90.7879C52.8763 90.2919 52.2203 90.0039 51.1243 90.0039ZM55.7316 85.2599H60.3476V85.8039H55.7316V85.2599ZM54.9156 87.9799H61.4676V88.5239H54.9156V87.9799ZM57.0916 88.3239H57.7396V90.2679H57.0916V88.3239ZM59.9716 85.2599H60.6196V85.8119C60.6196 86.4519 60.6196 87.1959 60.4036 88.2199L59.7556 88.1479C59.9716 87.1399 59.9716 86.4359 59.9716 85.8119V85.2599ZM55.6996 91.4039H60.8196V91.9479H55.6996V91.4039ZM55.6996 89.6759H56.3636V91.5399H55.6996V89.6759ZM59.0036 88.3239H59.6516V90.2679H59.0036V88.3239ZM68.9331 85.9939C68.9331 86.3139 68.8698 86.5939 68.7431 86.8339C68.6231 87.0672 68.4498 87.2572 68.2231 87.4039C67.9965 87.5506 67.7365 87.6572 67.4431 87.7239V87.7639C68.0165 87.8306 68.4431 88.0106 68.7231 88.3039C69.0098 88.5906 69.1531 88.9706 69.1531 89.4439C69.1531 89.8572 69.0531 90.2272 68.8531 90.5539C68.6598 90.8739 68.3565 91.1272 67.9431 91.3139C67.5365 91.4939 67.0131 91.5839 66.3731 91.5839C65.9931 91.5839 65.6398 91.5539 65.3131 91.4939C64.9865 91.4339 64.6765 91.3339 64.3831 91.1939V90.2339C64.6831 90.3872 65.0031 90.5039 65.3431 90.5839C65.6898 90.6639 66.0198 90.7039 66.3331 90.7039C66.9398 90.7039 67.3765 90.5906 67.6431 90.3639C67.9098 90.1306 68.0431 89.8072 68.0431 89.3939C68.0431 89.1272 67.9731 88.9106 67.8331 88.7439C67.6931 88.5706 67.4798 88.4439 67.1931 88.3639C66.9065 88.2772 66.5498 88.2339 66.1231 88.2339H65.4731V87.3639H66.1331C66.5398 87.3639 66.8698 87.3139 67.1231 87.2139C67.3765 87.1072 67.5631 86.9606 67.6831 86.7739C67.8031 86.5872 67.8631 86.3739 67.8631 86.1339C67.8631 85.8139 67.7565 85.5672 67.5431 85.3939C67.3365 85.2139 67.0365 85.1239 66.6431 85.1239C66.4031 85.1239 66.1798 85.1506 65.9731 85.2039C65.7731 85.2572 65.5898 85.3272 65.4231 85.4139C65.2565 85.5006 65.0931 85.5972 64.9331 85.7039L64.4131 84.9739C64.5931 84.8406 64.7931 84.7172 65.0131 84.6039C65.2398 84.4906 65.4898 84.4039 65.7631 84.3439C66.0431 84.2772 66.3465 84.2439 66.6731 84.2439C67.4131 84.2439 67.9731 84.4072 68.3531 84.7339C68.7398 85.0539 68.9331 85.4739 68.9331 85.9939ZM71.6858 90.4339C71.6258 90.6672 71.5491 90.9206 71.4558 91.1939C71.3624 91.4672 71.2624 91.7372 71.1558 92.0039C71.0491 92.2772 70.9391 92.5339 70.8258 92.7739H70.0558C70.1224 92.5139 70.1858 92.2372 70.2458 91.9439C70.3124 91.6572 70.3724 91.3739 70.4258 91.0939C70.4791 90.8139 70.5224 90.5572 70.5558 90.3239H71.6158L71.6858 90.4339ZM77.9402 89.9039H76.9502V91.4839H75.9202V89.9039H72.6102V89.0639L75.9002 84.3139H76.9502V89.0039H77.9402V89.9039ZM75.9202 87.0639C75.9202 86.9039 75.9202 86.7506 75.9202 86.6039C75.9268 86.4572 75.9335 86.3172 75.9402 86.1839C75.9468 86.0439 75.9502 85.9172 75.9502 85.8039C75.9568 85.6839 75.9635 85.5772 75.9702 85.4839H75.9302C75.8768 85.6172 75.8102 85.7539 75.7302 85.8939C75.6568 86.0339 75.5802 86.1572 75.5002 86.2639L73.6102 89.0039H75.9202V87.0639ZM79.4228 91.4839L82.2728 85.2839H78.5228V84.3439H83.4128V85.1039L80.5728 91.4839H79.4228ZM86.6755 87.0539C87.1488 87.0539 87.5621 87.1372 87.9155 87.3039C88.2688 87.4706 88.5421 87.7106 88.7355 88.0239C88.9355 88.3372 89.0355 88.7206 89.0355 89.1739C89.0355 89.6739 88.9288 90.1039 88.7155 90.4639C88.5021 90.8239 88.1921 91.1006 87.7855 91.2939C87.3855 91.4872 86.8955 91.5839 86.3155 91.5839C85.9488 91.5839 85.6021 91.5506 85.2755 91.4839C84.9488 91.4172 84.6721 91.3206 84.4455 91.1939V90.2239C84.6855 90.3639 84.9755 90.4772 85.3155 90.5639C85.6621 90.6506 85.9921 90.6939 86.3055 90.6939C86.6455 90.6939 86.9355 90.6439 87.1755 90.5439C87.4221 90.4372 87.6121 90.2806 87.7455 90.0739C87.8855 89.8606 87.9555 89.5939 87.9555 89.2739C87.9555 88.8406 87.8188 88.5106 87.5455 88.2839C87.2788 88.0506 86.8555 87.9339 86.2755 87.9339C86.0888 87.9339 85.8788 87.9506 85.6455 87.9839C85.4188 88.0172 85.2355 88.0506 85.0955 88.0839L84.6055 87.7939L84.8755 84.3439H88.5455V85.2839H85.7955L85.6355 87.1539C85.7488 87.1339 85.8921 87.1139 86.0655 87.0939C86.2388 87.0672 86.4421 87.0539 86.6755 87.0539ZM90.0781 90.4239H98.2681V91.1139H90.0781V90.4239ZM93.7381 88.2639H94.5681V90.6239H93.7381V88.2639ZM91.0381 83.8639H91.8581V85.4739H96.4681V83.8639H97.2881V88.4839H91.0381V83.8639ZM91.8581 86.1439V87.8039H96.4681V86.1439H91.8581ZM106.535 84.8759H107.199V88.5799H106.535V84.8759ZM104.967 86.6119H106.639V87.1479H104.967V86.6119ZM104.215 85.2279H104.911C104.911 87.0279 103.663 88.2039 101.591 88.7319L101.359 88.1959C103.191 87.7479 104.215 86.7959 104.215 85.5239V85.2279ZM101.743 85.2279H104.751V85.7639H101.743V85.2279ZM102.543 88.8919H107.199V90.6759H103.223V91.8199H102.567V90.1639H106.543V89.4279H102.543V88.8919ZM102.567 91.5079H107.439V92.0359H102.567V91.5079ZM110.455 89.2839H110.975V89.6999C110.975 90.6599 110.383 91.6199 109.343 92.0199L109.007 91.5239C109.919 91.1879 110.455 90.4039 110.455 89.6999V89.2839ZM110.607 89.2839H111.103V89.6999C111.103 90.4359 111.527 91.2279 112.399 91.5799L112.119 92.0839C111.071 91.6759 110.607 90.6679 110.607 89.6999V89.2839ZM113.135 89.2839H113.623V89.6999C113.623 90.5559 113.151 91.6439 112.119 92.0839L111.831 91.5799C112.695 91.1799 113.135 90.3319 113.135 89.6999V89.2839ZM113.263 89.2839H113.783V89.6999C113.783 90.4599 114.311 91.2119 115.239 91.5239L114.895 92.0199C113.847 91.6359 113.263 90.7079 113.263 89.6999V89.2839ZM112.167 86.6839H114.079V87.2359H112.167V86.6839ZM110.583 85.2839C111.647 85.2839 112.439 85.9799 112.439 86.9799C112.439 87.9719 111.647 88.6679 110.583 88.6679C109.519 88.6679 108.735 87.9719 108.735 86.9799C108.735 85.9799 109.519 85.2839 110.583 85.2839ZM110.583 85.8359C109.879 85.8359 109.367 86.3159 109.367 86.9799C109.367 87.6439 109.879 88.1159 110.583 88.1159C111.279 88.1159 111.799 87.6439 111.799 86.9799C111.799 86.3159 111.279 85.8359 110.583 85.8359ZM113.895 84.8759H114.559V88.9959H113.895V84.8759ZM117.902 85.4279C118.95 85.4279 119.702 86.4119 119.702 87.9479C119.702 89.4919 118.95 90.4759 117.902 90.4759C116.846 90.4759 116.102 89.4919 116.102 87.9479C116.102 86.4119 116.846 85.4279 117.902 85.4279ZM117.902 86.0279C117.206 86.0279 116.734 86.7799 116.734 87.9479C116.734 89.1239 117.206 89.8919 117.902 89.8919C118.598 89.8919 119.07 89.1239 119.07 87.9479C119.07 86.7799 118.598 86.0279 117.902 86.0279ZM121.27 84.8679H121.926V92.1159H121.27V84.8679ZM119.486 87.6279H121.558V88.1719H119.486V87.6279ZM124.934 88.5959H125.59V90.7639H124.934V88.5959ZM127.606 88.5959H128.27V90.7639H127.606V88.5959ZM123.334 90.6359H129.886V91.1879H123.334V90.6359ZM126.598 85.3319C128.126 85.3319 129.222 86.0599 129.222 87.1959C129.222 88.3239 128.126 89.0519 126.598 89.0519C125.062 89.0519 123.966 88.3239 123.966 87.1959C123.966 86.0599 125.062 85.3319 126.598 85.3319ZM126.598 85.8599C125.438 85.8599 124.606 86.3879 124.606 87.1959C124.606 87.9959 125.438 88.5239 126.598 88.5239C127.758 88.5239 128.582 87.9959 128.582 87.1959C128.582 86.3879 127.758 85.8599 126.598 85.8599ZM130.837 91.0119C130.837 90.8039 130.89 90.6572 130.997 90.5719C131.104 90.4866 131.232 90.4439 131.381 90.4439C131.536 90.4439 131.666 90.4866 131.773 90.5719C131.88 90.6572 131.933 90.8039 131.933 91.0119C131.933 91.2199 131.88 91.3692 131.773 91.4599C131.666 91.5506 131.536 91.5959 131.381 91.5959C131.232 91.5959 131.104 91.5506 130.997 91.4599C130.89 91.3692 130.837 91.2199 130.837 91.0119Z" fill="#5B5B5B"/>
<path d="M268.63 32.4839H266.23V32.0739L267.15 31.1389C267.33 30.9556 267.48 30.7972 267.6 30.6639C267.72 30.5272 267.81 30.3972 267.87 30.2739C267.93 30.1472 267.96 30.0106 267.96 29.8639C267.96 29.6806 267.907 29.5439 267.8 29.4539C267.693 29.3606 267.555 29.3139 267.385 29.3139C267.222 29.3139 267.075 29.3456 266.945 29.4089C266.815 29.4689 266.68 29.5539 266.54 29.6639L266.255 29.3089C266.352 29.2256 266.455 29.1506 266.565 29.0839C266.678 29.0172 266.803 28.9639 266.94 28.9239C267.08 28.8839 267.233 28.8639 267.4 28.8639C267.627 28.8639 267.822 28.9039 267.985 28.9839C268.148 29.0606 268.273 29.1706 268.36 29.3139C268.45 29.4572 268.495 29.6256 268.495 29.8189C268.495 29.9622 268.473 30.0972 268.43 30.2239C268.387 30.3472 268.323 30.4689 268.24 30.5889C268.16 30.7089 268.062 30.8306 267.945 30.9539C267.828 31.0772 267.7 31.2072 267.56 31.3439L266.895 31.9889V32.0139H268.63V32.4839ZM271.496 30.6939C271.496 30.9839 271.473 31.2422 271.426 31.4689C271.383 31.6956 271.313 31.8889 271.216 32.0489C271.123 32.2056 270.998 32.3256 270.841 32.4089C270.688 32.4922 270.503 32.5339 270.286 32.5339C270.013 32.5339 269.788 32.4606 269.611 32.3139C269.435 32.1672 269.303 31.9572 269.216 31.6839C269.13 31.4072 269.086 31.0772 269.086 30.6939C269.086 30.3072 269.125 29.9772 269.201 29.7039C269.281 29.4306 269.41 29.2222 269.586 29.0789C269.763 28.9322 269.996 28.8589 270.286 28.8589C270.56 28.8589 270.785 28.9322 270.961 29.0789C271.141 29.2222 271.275 29.4306 271.361 29.7039C271.451 29.9772 271.496 30.3072 271.496 30.6939ZM269.616 30.6939C269.616 31.0039 269.638 31.2622 269.681 31.4689C269.725 31.6756 269.795 31.8306 269.891 31.9339C269.991 32.0372 270.123 32.0889 270.286 32.0889C270.45 32.0889 270.58 32.0389 270.676 31.9389C270.776 31.8356 270.848 31.6806 270.891 31.4739C270.938 31.2639 270.961 31.0039 270.961 30.6939C270.961 30.3839 270.938 30.1272 270.891 29.9239C270.848 29.7172 270.776 29.5622 270.676 29.4589C270.58 29.3556 270.45 29.3039 270.286 29.3039C270.123 29.3039 269.991 29.3556 269.891 29.4589C269.795 29.5622 269.725 29.7172 269.681 29.9239C269.638 30.1272 269.616 30.3839 269.616 30.6939ZM274.353 32.4839H271.953V32.0739L272.873 31.1389C273.053 30.9556 273.203 30.7972 273.323 30.6639C273.443 30.5272 273.533 30.3972 273.593 30.2739C273.653 30.1472 273.683 30.0106 273.683 29.8639C273.683 29.6806 273.629 29.5439 273.523 29.4539C273.416 29.3606 273.278 29.3139 273.108 29.3139C272.944 29.3139 272.798 29.3456 272.668 29.4089C272.538 29.4689 272.403 29.5539 272.263 29.6639L271.978 29.3089C272.074 29.2256 272.178 29.1506 272.288 29.0839C272.401 29.0172 272.526 28.9639 272.663 28.9239C272.803 28.8839 272.956 28.8639 273.123 28.8639C273.349 28.8639 273.544 28.9039 273.708 28.9839C273.871 29.0606 273.996 29.1706 274.083 29.3139C274.173 29.4572 274.218 29.6256 274.218 29.8189C274.218 29.9622 274.196 30.0972 274.153 30.2239C274.109 30.3472 274.046 30.4689 273.963 30.5889C273.883 30.7089 273.784 30.8306 273.668 30.9539C273.551 31.0772 273.423 31.2072 273.283 31.3439L272.618 31.9889V32.0139H274.353V32.4839ZM277.349 31.6939H276.854V32.4839H276.339V31.6939H274.684V31.2739L276.329 28.8989H276.854V31.2439H277.349V31.6939ZM276.339 30.2739C276.339 30.1939 276.339 30.1172 276.339 30.0439C276.342 29.9706 276.346 29.9006 276.349 29.8339C276.352 29.7639 276.354 29.7006 276.354 29.6439C276.357 29.5839 276.361 29.5306 276.364 29.4839H276.344C276.317 29.5506 276.284 29.6189 276.244 29.6889C276.207 29.7589 276.169 29.8206 276.129 29.8739L275.184 31.2439H276.339V30.2739ZM280.995 28.3539H281.41V31.7039H280.995V28.3539ZM279.72 28.9439H281.15V29.2789H279.72V28.9439ZM278.52 32.4339H281.53V32.7739H278.52V32.4339ZM278.52 31.4139H278.935V32.5889H278.52V31.4139ZM277.955 28.6839H278.37V30.8139H277.955V28.6839ZM277.955 30.6839H278.295C278.94 30.6839 279.545 30.6489 280.25 30.5239L280.29 30.8689C279.565 30.9989 278.96 31.0289 278.295 31.0289H277.955V30.6839ZM279.72 29.8039H281.15V30.1439H279.72V29.8039ZM285.204 32.4839H284.679V30.1139C284.679 30.0306 284.679 29.9539 284.679 29.8839C284.682 29.8106 284.685 29.7406 284.689 29.6739C284.692 29.6039 284.695 29.5372 284.699 29.4739C284.655 29.5172 284.61 29.5589 284.564 29.5989C284.517 29.6389 284.464 29.6856 284.404 29.7389L284.014 30.0539L283.744 29.7139L284.764 28.9139H285.204V32.4839ZM288.84 30.6939C288.84 30.9839 288.817 31.2422 288.77 31.4689C288.727 31.6956 288.657 31.8889 288.56 32.0489C288.467 32.2056 288.342 32.3256 288.185 32.4089C288.032 32.4922 287.847 32.5339 287.63 32.5339C287.357 32.5339 287.132 32.4606 286.955 32.3139C286.778 32.1672 286.647 31.9572 286.56 31.6839C286.473 31.4072 286.43 31.0772 286.43 30.6939C286.43 30.3072 286.468 29.9772 286.545 29.7039C286.625 29.4306 286.753 29.2222 286.93 29.0789C287.107 28.9322 287.34 28.8589 287.63 28.8589C287.903 28.8589 288.128 28.9322 288.305 29.0789C288.485 29.2222 288.618 29.4306 288.705 29.7039C288.795 29.9772 288.84 30.3072 288.84 30.6939ZM286.96 30.6939C286.96 31.0039 286.982 31.2622 287.025 31.4689C287.068 31.6756 287.138 31.8306 287.235 31.9339C287.335 32.0372 287.467 32.0889 287.63 32.0889C287.793 32.0889 287.923 32.0389 288.02 31.9389C288.12 31.8356 288.192 31.6806 288.235 31.4739C288.282 31.2639 288.305 31.0039 288.305 30.6939C288.305 30.3839 288.282 30.1272 288.235 29.9239C288.192 29.7172 288.12 29.5622 288.02 29.4589C287.923 29.3556 287.793 29.3039 287.63 29.3039C287.467 29.3039 287.335 29.3556 287.235 29.4589C287.138 29.5622 287.068 29.7172 287.025 29.9239C286.982 30.1272 286.96 30.3839 286.96 30.6939ZM290.526 30.2239H290.941V31.0289H290.526V30.2239ZM292.601 28.3539H293.016V31.0139H292.601V28.3539ZM289.351 30.3639L289.301 30.0539C290.171 30.0539 291.276 30.0489 292.241 29.9389L292.266 30.2089C291.276 30.3539 290.196 30.3639 289.351 30.3639ZM289.986 31.1789H293.016V32.1189H290.401V32.6289H289.996V31.8439H292.606V31.4789H289.986V31.1789ZM289.996 32.5239H293.166V32.8239H289.996V32.5239ZM291.701 30.5039H292.731V30.7739H291.701V30.5039ZM290.761 28.4389C291.431 28.4389 291.871 28.6989 291.871 29.1189C291.871 29.5389 291.431 29.7989 290.761 29.7989C290.086 29.7989 289.646 29.5389 289.646 29.1189C289.646 28.6989 290.086 28.4389 290.761 28.4389ZM290.761 28.7289C290.316 28.7289 290.031 28.8789 290.031 29.1189C290.031 29.3589 290.316 29.5089 290.761 29.5089C291.196 29.5089 291.481 29.3589 291.481 29.1189C291.481 28.8789 291.196 28.7289 290.761 28.7289ZM296.825 32.4839H296.3V30.1139C296.3 30.0306 296.3 29.9539 296.3 29.8839C296.303 29.8106 296.307 29.7406 296.31 29.6739C296.313 29.6039 296.317 29.5372 296.32 29.4739C296.277 29.5172 296.232 29.5589 296.185 29.5989C296.138 29.6389 296.085 29.6856 296.025 29.7389L295.635 30.0539L295.365 29.7139L296.385 28.9139H296.825V32.4839ZM300.316 29.7389C300.316 29.8989 300.285 30.0389 300.221 30.1589C300.161 30.2756 300.075 30.3706 299.961 30.4439C299.848 30.5172 299.718 30.5706 299.571 30.6039V30.6239C299.858 30.6572 300.071 30.7472 300.211 30.8939C300.355 31.0372 300.426 31.2272 300.426 31.4639C300.426 31.6706 300.376 31.8556 300.276 32.0189C300.18 32.1789 300.028 32.3056 299.821 32.3989C299.618 32.4889 299.356 32.5339 299.036 32.5339C298.846 32.5339 298.67 32.5189 298.506 32.4889C298.343 32.4589 298.188 32.4089 298.041 32.3389V31.8589C298.191 31.9356 298.351 31.9939 298.521 32.0339C298.695 32.0739 298.86 32.0939 299.016 32.0939C299.32 32.0939 299.538 32.0372 299.671 31.9239C299.805 31.8072 299.871 31.6456 299.871 31.4389C299.871 31.3056 299.836 31.1972 299.766 31.1139C299.696 31.0272 299.59 30.9639 299.446 30.9239C299.303 30.8806 299.125 30.8589 298.911 30.8589H298.586V30.4239H298.916C299.12 30.4239 299.285 30.3989 299.411 30.3489C299.538 30.2956 299.631 30.2222 299.691 30.1289C299.751 30.0356 299.781 29.9289 299.781 29.8089C299.781 29.6489 299.728 29.5256 299.621 29.4389C299.518 29.3489 299.368 29.3039 299.171 29.3039C299.051 29.3039 298.94 29.3172 298.836 29.3439C298.736 29.3706 298.645 29.4056 298.561 29.4489C298.478 29.4922 298.396 29.5406 298.316 29.5939L298.056 29.2289C298.146 29.1622 298.246 29.1006 298.356 29.0439C298.47 28.9872 298.595 28.9439 298.731 28.9139C298.871 28.8806 299.023 28.8639 299.186 28.8639C299.556 28.8639 299.836 28.9456 300.026 29.1089C300.22 29.2689 300.316 29.4789 300.316 29.7389ZM302.203 28.5189C302.878 28.5189 303.373 28.9289 303.373 29.5239C303.373 30.1139 302.878 30.5239 302.203 30.5239C301.533 30.5239 301.038 30.1139 301.038 29.5239C301.038 28.9289 301.533 28.5189 302.203 28.5189ZM302.203 28.8589C301.768 28.8589 301.438 29.1339 301.438 29.5239C301.438 29.9139 301.768 30.1839 302.203 30.1839C302.643 30.1839 302.968 29.9139 302.968 29.5239C302.968 29.1339 302.643 28.8589 302.203 28.8589ZM304.223 28.3539H304.643V30.6689H304.223V28.3539ZM301.718 30.8889H304.643V31.9889H302.133V32.6689H301.728V31.6789H304.233V31.2239H301.718V30.8889ZM301.728 32.4839H304.793V32.8139H301.728V32.4839ZM307.931 30.9139C307.808 30.8606 307.706 30.8256 307.626 30.8089C307.546 30.7889 307.469 30.7789 307.396 30.7789C307.303 30.7789 307.204 30.8072 307.101 30.8639C306.998 30.9206 306.906 30.9906 306.826 31.0739V30.6339C306.906 30.5472 306.996 30.4822 307.096 30.4389C307.199 30.3922 307.311 30.3689 307.431 30.3689C307.528 30.3689 307.624 30.3789 307.721 30.3989C307.818 30.4189 307.943 30.4622 308.096 30.5289C308.219 30.5822 308.321 30.6189 308.401 30.6389C308.481 30.6556 308.556 30.6639 308.626 30.6639C308.723 30.6639 308.823 30.6356 308.926 30.5789C309.029 30.5222 309.121 30.4522 309.201 30.3689V30.8039C309.121 30.8906 309.029 30.9572 308.926 31.0039C308.826 31.0506 308.716 31.0739 308.596 31.0739C308.499 31.0739 308.401 31.0639 308.301 31.0439C308.204 31.0206 308.081 30.9772 307.931 30.9139ZM312.606 32.4839H312.081V30.1139C312.081 30.0306 312.081 29.9539 312.081 29.8839C312.084 29.8106 312.088 29.7406 312.091 29.6739C312.094 29.6039 312.098 29.5372 312.101 29.4739C312.058 29.5172 312.013 29.5589 311.966 29.5989C311.919 29.6389 311.866 29.6856 311.806 29.7389L311.416 30.0539L311.146 29.7139L312.166 28.9139H312.606V32.4839ZM316.242 30.6939C316.242 30.9839 316.219 31.2422 316.172 31.4689C316.129 31.6956 316.059 31.8889 315.962 32.0489C315.869 32.2056 315.744 32.3256 315.587 32.4089C315.434 32.4922 315.249 32.5339 315.032 32.5339C314.759 32.5339 314.534 32.4606 314.357 32.3139C314.181 32.1672 314.049 31.9572 313.962 31.6839C313.876 31.4072 313.832 31.0772 313.832 30.6939C313.832 30.3072 313.871 29.9772 313.947 29.7039C314.027 29.4306 314.156 29.2222 314.332 29.0789C314.509 28.9322 314.742 28.8589 315.032 28.8589C315.306 28.8589 315.531 28.9322 315.707 29.0789C315.887 29.2222 316.021 29.4306 316.107 29.7039C316.197 29.9772 316.242 30.3072 316.242 30.6939ZM314.362 30.6939C314.362 31.0039 314.384 31.2622 314.427 31.4689C314.471 31.6756 314.541 31.8306 314.637 31.9339C314.737 32.0372 314.869 32.0889 315.032 32.0889C315.196 32.0889 315.326 32.0389 315.422 31.9389C315.522 31.8356 315.594 31.6806 315.637 31.4739C315.684 31.2639 315.707 31.0039 315.707 30.6939C315.707 30.3839 315.684 30.1272 315.637 29.9239C315.594 29.7172 315.522 29.5622 315.422 29.4589C315.326 29.3556 315.196 29.3039 315.032 29.3039C314.869 29.3039 314.737 29.3556 314.637 29.4589C314.541 29.5622 314.471 29.7172 314.427 29.9239C314.384 30.1272 314.362 30.3839 314.362 30.6939ZM317.929 30.2239H318.344V31.0289H317.929V30.2239ZM320.004 28.3539H320.419V31.0139H320.004V28.3539ZM316.754 30.3639L316.704 30.0539C317.574 30.0539 318.679 30.0489 319.644 29.9389L319.669 30.2089C318.679 30.3539 317.599 30.3639 316.754 30.3639ZM317.389 31.1789H320.419V32.1189H317.804V32.6289H317.399V31.8439H320.009V31.4789H317.389V31.1789ZM317.399 32.5239H320.569V32.8239H317.399V32.5239ZM319.104 30.5039H320.134V30.7739H319.104V30.5039ZM318.164 28.4389C318.834 28.4389 319.274 28.6989 319.274 29.1189C319.274 29.5389 318.834 29.7989 318.164 29.7989C317.489 29.7989 317.049 29.5389 317.049 29.1189C317.049 28.6989 317.489 28.4389 318.164 28.4389ZM318.164 28.7289C317.719 28.7289 317.434 28.8789 317.434 29.1189C317.434 29.3589 317.719 29.5089 318.164 29.5089C318.599 29.5089 318.884 29.3589 318.884 29.1189C318.884 28.8789 318.599 28.7289 318.164 28.7289ZM324.227 32.4839H323.702V30.1139C323.702 30.0306 323.702 29.9539 323.702 29.8839C323.706 29.8106 323.709 29.7406 323.712 29.6739C323.716 29.6039 323.719 29.5372 323.722 29.4739C323.679 29.5172 323.634 29.5589 323.587 29.5989C323.541 29.6389 323.487 29.6856 323.427 29.7389L323.037 30.0539L322.767 29.7139L323.787 28.9139H324.227V32.4839ZM327.854 30.4389C327.854 30.6422 327.839 30.8456 327.809 31.0489C327.779 31.2489 327.729 31.4389 327.659 31.6189C327.589 31.7956 327.489 31.9539 327.359 32.0939C327.232 32.2306 327.07 32.3389 326.874 32.4189C326.68 32.4956 326.445 32.5339 326.169 32.5339C326.102 32.5339 326.024 32.5306 325.934 32.5239C325.844 32.5172 325.769 32.5056 325.709 32.4889V32.0439C325.772 32.0639 325.842 32.0789 325.919 32.0889C325.999 32.0989 326.075 32.1039 326.149 32.1039C326.379 32.1039 326.567 32.0706 326.714 32.0039C326.864 31.9339 326.982 31.8372 327.069 31.7139C327.159 31.5906 327.224 31.4472 327.264 31.2839C327.304 31.1206 327.327 30.9472 327.334 30.7639H327.304C327.254 30.8406 327.192 30.9106 327.119 30.9739C327.045 31.0372 326.955 31.0872 326.849 31.1239C326.745 31.1606 326.62 31.1789 326.474 31.1789C326.27 31.1789 326.09 31.1356 325.934 31.0489C325.78 30.9622 325.662 30.8389 325.579 30.6789C325.495 30.5156 325.454 30.3172 325.454 30.0839C325.454 29.8306 325.5 29.6139 325.594 29.4339C325.69 29.2506 325.825 29.1106 325.999 29.0139C326.175 28.9172 326.38 28.8689 326.614 28.8689C326.787 28.8689 326.949 28.9006 327.099 28.9639C327.249 29.0272 327.38 29.1239 327.494 29.2539C327.607 29.3839 327.695 29.5472 327.759 29.7439C327.822 29.9406 327.854 30.1722 327.854 30.4389ZM326.619 29.3039C326.429 29.3039 326.274 29.3672 326.154 29.4939C326.034 29.6206 325.974 29.8139 325.974 30.0739C325.974 30.2872 326.024 30.4556 326.124 30.5789C326.227 30.7022 326.385 30.7639 326.599 30.7639C326.745 30.7639 326.872 30.7339 326.979 30.6739C327.085 30.6106 327.169 30.5339 327.229 30.4439C327.289 30.3506 327.319 30.2539 327.319 30.1539C327.319 30.0539 327.304 29.9539 327.274 29.8539C327.244 29.7539 327.2 29.6622 327.144 29.5789C327.087 29.4956 327.014 29.4289 326.924 29.3789C326.837 29.3289 326.735 29.3039 326.619 29.3039ZM329.605 28.5189C330.28 28.5189 330.775 28.9289 330.775 29.5239C330.775 30.1139 330.28 30.5239 329.605 30.5239C328.935 30.5239 328.44 30.1139 328.44 29.5239C328.44 28.9289 328.935 28.5189 329.605 28.5189ZM329.605 28.8589C329.17 28.8589 328.84 29.1339 328.84 29.5239C328.84 29.9139 329.17 30.1839 329.605 30.1839C330.045 30.1839 330.37 29.9139 330.37 29.5239C330.37 29.1339 330.045 28.8589 329.605 28.8589ZM331.625 28.3539H332.045V30.6689H331.625V28.3539ZM329.12 30.8889H332.045V31.9889H329.535V32.6689H329.13V31.6789H331.635V31.2239H329.12V30.8889ZM329.13 32.4839H332.195V32.8139H329.13V32.4839Z" fill="#7E7E7E"/>
<defs>
<filter id="filter0_d_94_1113" x="0" y="0.483887" width="388" height="221" filterUnits="userSpaceOnUse" color-interpolation-filters="sRGB">
<feFlood flood-opacity="0" result="BackgroundImageFix"/>
<feColorMatrix in="SourceAlpha" type="matrix" values="0 0 0 0 0 0 0 0 0 0 0 0 0 0 0 0 0 0 127 0" result="hardAlpha"/>
<feOffset dy="1"/>
<feGaussianBlur stdDeviation="2"/>
<feComposite in2="hardAlpha" operator="out"/>
<feColorMatrix type="matrix" values="0 0 0 0 0 0 0 0 0 0 0 0 0 0 0 0 0 0 0.25 0"/>
<feBlend mode="normal" in2="BackgroundImageFix" result="effect1_dropShadow_94_1113"/>
<feBlend mode="normal" in="SourceGraphic" in2="effect1_dropShadow_94_1113" result="shape"/>
</filter>
</defs>
</svg>
