<svg width="73" height="61" viewBox="0 0 73 61" fill="none" xmlns="http://www.w3.org/2000/svg">
<g clip-path="url(#clip0_79_119)">
<path d="M35.2699 6.57C31.1599 2.71 24.8899 2.93 20.1299 5.7C15.3699 8.47 11.8699 13.33 8.85994 18.33C5.80994 23.39 3.08994 28.87 2.14994 34.89C1.20994 40.91 2.30994 47.6 6.08994 51.99C8.46994 54.76 11.7199 56.43 15.0399 57.35C20.6099 58.89 26.4299 58.5 32.1499 58.09C35.5499 57.85 38.9499 57.61 42.3499 57.37C45.9099 57.12 49.4699 56.86 53.0099 56.38C56.7599 55.87 60.6099 55.04 63.7499 52.67C69.9699 47.98 71.8199 38.14 69.7999 30.02C67.7699 21.91 64.1599 15.45 58.7199 9.66C55.7099 6.46 52.6799 3.04 48.6299 2.06C44.5799 1.09 37.8699 3.11 36.4799 7.5L35.2499 6.56L35.2699 6.57Z" fill="#C0FFAB"/>
<path d="M36.6 5.25C31.31 0.459997 23.49 1.01 17.87 4.93C11.81 9.15 7.65003 16.03 4.40003 22.52C0.990026 29.34 -1.04997 36.95 0.560026 44.55C1.27003 47.89 2.75003 51.1 5.06003 53.63C7.56003 56.38 11.01 58.17 14.56 59.16C22.73 61.43 31.63 60 39.94 59.41C44.23 59.11 48.52 58.84 52.78 58.28C56.49 57.79 60.25 57.07 63.5 55.1C69.25 51.62 71.91 44.98 72.39 38.51C72.91 31.6 70.65 24.58 67.44 18.53C65.78 15.4 63.72 12.49 61.4 9.82C59.08 7.15 56.47 4.24 53.45 2.21C48.48 -1.13 41.35 -0.680003 36.93 3.49C35.89 4.47 35.16 5.67 34.69 7.01L37.44 5.89L36.21 4.95C35.4 4.33 34.12 4.83 33.64 5.62C33.07 6.58 33.51 7.57 34.31 8.19L35.54 9.13C36.57 9.92 37.95 9.02 38.29 8.01C38.98 5.99 41.15 4.81 43.08 4.23C45.33 3.55 47.69 3.46 49.86 4.48C52.76 5.85 54.96 8.4 57.11 10.69C59.26 12.98 61.04 15.2 62.64 17.74C65.84 22.83 68.34 28.98 68.66 35.04C68.94 40.29 67.74 46.17 63.92 50.03C59.15 54.84 51.07 54.85 44.77 55.32C40.97 55.6 37.16 55.86 33.36 56.13C29.56 56.4 26.04 56.69 22.37 56.55C15.79 56.29 8.84003 54.22 5.65003 47.96C2.80003 42.36 3.39003 35.59 5.33003 29.82C6.58003 26.1 8.45003 22.63 10.46 19.27C12.29 16.23 14.28 13.24 16.78 10.7C19.28 8.16 21.99 6.36 25.37 5.7C28.39 5.11 31.61 5.8 33.91 7.89C35.69 9.51 38.35 6.86 36.56 5.24L36.6 5.25Z" fill="#5B5B5B"/>
<path d="M20.7699 41.63C19.6899 41.73 18.8099 42.27 18.5399 43.39C18.2699 44.51 18.9099 45.29 19.6299 46.02C20.9499 47.35 22.4899 48.52 24.1199 49.45C27.7099 51.49 31.8399 52.46 35.9599 52.41C43.7099 52.31 52.9299 49.24 56.9899 42.16C58.1899 40.06 54.9499 38.17 53.7499 40.27C50.7599 45.5 44.2099 47.84 38.5199 48.5C35.3599 48.87 32.1499 48.64 29.1299 47.62C27.7899 47.17 26.5299 46.56 25.3299 45.81C24.6799 45.4 24.0499 44.96 23.4599 44.46C23.1499 44.2 22.8499 43.93 22.5599 43.65C22.3099 43.41 21.9699 42.67 22.1399 43.39V44.39L21.8799 44.85L20.5499 45.4L20.7499 45.38C21.7599 45.28 22.6299 44.59 22.6299 43.5C22.6299 42.56 21.7699 41.53 20.7499 41.62L20.7699 41.63Z" fill="#5B5B5B"/>
<path d="M16.9399 27.99C17.4099 26.3 18.6299 24.91 20.1099 24.34C21.9199 23.64 24.1099 24.24 25.3099 25.92C26.5099 27.6 26.5099 30.27 25.1999 31.84C23.8899 33.41 21.3799 33.5 20.0899 31.91C18.5599 30.04 19.2599 26.74 21.0999 25.28" fill="white"/>
<path d="M18.14 28.32C18.18 28.2 18.21 28.08 18.25 27.95C18.25 27.95 18.41 27.57 18.31 27.78C18.41 27.55 18.53 27.33 18.66 27.12C18.92 26.7 19.05 26.54 19.48 26.15C19.48 26.15 19.79 25.89 19.6 26.04C19.68 25.98 19.76 25.92 19.84 25.87C20.02 25.75 20.21 25.65 20.4 25.55C20.72 25.39 20.19 25.6 20.53 25.5C20.64 25.47 20.75 25.43 20.86 25.4C20.97 25.37 21.08 25.35 21.2 25.33C21.46 25.27 21.03 25.33 21.32 25.32C21.55 25.32 21.78 25.32 22.01 25.32C22.37 25.33 21.79 25.26 22.13 25.34C22.24 25.37 22.36 25.39 22.47 25.42C22.54 25.44 22.62 25.46 22.69 25.49C22.71 25.49 23.07 25.63 22.82 25.53C23.07 25.64 23.3 25.78 23.53 25.93C23.83 26.12 23.39 25.78 23.65 26.02C23.71 26.07 23.77 26.12 23.83 26.18C23.92 26.26 24 26.35 24.08 26.44C24.08 26.44 24.32 26.76 24.19 26.57C24.32 26.76 24.44 26.96 24.55 27.16C24.58 27.23 24.62 27.3 24.65 27.37C24.56 27.14 24.71 27.58 24.73 27.62C24.8 27.85 24.85 28.08 24.89 28.31C24.84 28.04 24.89 28.43 24.9 28.45C24.9 28.53 24.91 28.61 24.91 28.69C24.91 28.93 24.91 29.17 24.89 29.4C24.86 29.77 24.96 29.18 24.87 29.54C24.83 29.69 24.8 29.85 24.76 30C24.73 30.09 24.7 30.19 24.67 30.28C24.65 30.34 24.54 30.56 24.64 30.36C24.54 30.57 24.42 30.76 24.3 30.96C24.12 31.24 24.45 30.83 24.22 31.06C24.14 31.14 24.07 31.22 23.98 31.3C23.93 31.35 23.87 31.4 23.81 31.44C24.02 31.28 23.65 31.53 23.61 31.55C23.52 31.6 23.42 31.65 23.32 31.7C23.58 31.59 23.26 31.71 23.22 31.72C23.12 31.75 23.01 31.77 22.91 31.8C22.86 31.82 22.67 31.83 22.93 31.8C22.72 31.82 22.51 31.82 22.3 31.81C21.97 31.81 22.53 31.88 22.21 31.8C22.07 31.76 21.94 31.73 21.8 31.69C21.58 31.6 21.75 31.68 21.8 31.69C21.7 31.65 21.61 31.6 21.52 31.54C21.43 31.48 21.34 31.43 21.25 31.36C21.47 31.53 21.19 31.3 21.17 31.27C21.09 31.19 21.01 31.11 20.94 31.02C20.97 31.06 21.09 31.2 20.94 31.02C20.89 30.93 20.83 30.84 20.78 30.75C20.75 30.69 20.71 30.63 20.68 30.56C20.73 30.7 20.74 30.7 20.68 30.56C20.6 30.32 20.54 30.09 20.49 29.84C20.48 29.78 20.47 29.6 20.49 29.85C20.49 29.7 20.47 29.56 20.46 29.42C20.46 29.31 20.46 29.2 20.46 29.09C20.46 29.04 20.52 28.57 20.47 28.87C20.5 28.65 20.55 28.43 20.61 28.22C20.64 28.11 20.67 28.01 20.71 27.9C20.73 27.85 20.9 27.43 20.79 27.68C20.88 27.48 20.98 27.28 21.1 27.1C21.16 27.01 21.22 26.92 21.28 26.83C21.36 26.71 21.36 26.71 21.28 26.83C21.32 26.77 21.37 26.72 21.42 26.67C21.58 26.49 21.76 26.32 21.95 26.16C22.47 25.73 22.39 24.83 21.95 24.39C21.43 23.87 20.71 23.96 20.18 24.39C18.37 25.86 17.58 28.59 18.15 30.83C18.8 33.35 21.42 34.9 23.93 34.09C26.44 33.28 27.68 30.48 27.34 27.91C26.97 25.19 24.9 23.14 22.18 22.83C19.13 22.48 16.52 24.86 15.71 27.65C15.53 28.28 15.93 29.04 16.58 29.19C17.23 29.34 17.92 28.99 18.12 28.32H18.14Z" fill="#5B5B5B"/>
<path d="M46.4099 25.21C46.8799 23.52 48.0899 22.13 49.5699 21.56C51.3699 20.86 53.5499 21.46 54.7499 23.14C55.9499 24.82 55.9499 27.49 54.6399 29.06C53.3299 30.63 50.8399 30.72 49.5499 29.13C48.0299 27.26 48.7199 23.96 50.5599 22.5" fill="white"/>
<path d="M47.6099 25.54C47.6499 25.42 47.6799 25.3 47.7199 25.17C47.7199 25.17 47.8799 24.79 47.7799 25C47.8799 24.77 47.9999 24.55 48.1299 24.34C48.1999 24.23 48.2699 24.13 48.3399 24.03C48.3599 24.01 48.4799 23.84 48.3699 23.99C48.5499 23.77 48.7399 23.56 48.9499 23.37C48.9499 23.37 49.2599 23.11 49.0699 23.26C49.1599 23.19 49.2599 23.12 49.3599 23.06C49.5299 22.95 49.6999 22.86 49.8699 22.77C50.1799 22.61 49.6599 22.82 49.9999 22.72C50.1099 22.69 50.2199 22.65 50.3299 22.62C50.4399 22.59 50.5499 22.57 50.6699 22.55C50.8199 22.52 50.8199 22.53 50.6699 22.55C50.7299 22.55 50.7799 22.54 50.8399 22.54C51.0499 22.53 51.2599 22.54 51.4699 22.54C51.8299 22.56 51.2399 22.48 51.5899 22.56C51.6999 22.59 51.8099 22.61 51.9299 22.64C52.0499 22.67 52.1499 22.71 52.2599 22.74C52.5999 22.84 52.1399 22.68 52.3399 22.77C52.5699 22.88 52.7799 23.01 52.9999 23.14C53.2999 23.33 52.8599 22.99 53.1199 23.23C53.2099 23.31 53.2999 23.39 53.3799 23.47C53.4599 23.55 53.5499 23.65 53.6199 23.74C53.6399 23.76 53.7499 23.93 53.6499 23.78C53.7799 23.97 53.8899 24.17 53.9999 24.37C54.1799 24.68 53.9399 24.16 54.0599 24.5C54.1099 24.65 54.1599 24.8 54.2099 24.95C54.2599 25.14 54.2999 25.33 54.3399 25.53C54.2999 25.26 54.3399 25.65 54.3499 25.67C54.3499 25.79 54.3599 25.91 54.3599 26.03C54.3599 26.27 54.3599 26.51 54.3199 26.74C54.3199 26.68 54.3599 26.52 54.3099 26.76C54.2799 26.91 54.2399 27.07 54.1999 27.22C54.1699 27.33 54.1299 27.44 54.0899 27.55C53.9699 27.88 54.2099 27.37 54.0299 27.67C53.9399 27.84 53.8399 28 53.7399 28.16C53.5599 28.45 53.8899 28.03 53.6599 28.26C53.5799 28.34 53.5099 28.42 53.4299 28.5C53.3999 28.53 53.1199 28.73 53.3399 28.58C53.2199 28.66 53.0999 28.74 52.9699 28.81C52.9699 28.81 52.6499 28.95 52.8299 28.88C53.0099 28.81 52.6799 28.93 52.6799 28.93C52.5799 28.96 52.4699 28.98 52.3699 29.01C52.0499 29.1 52.6099 29.01 52.2799 29.03C52.0699 29.03 51.8599 29.03 51.6499 29.03C51.8999 29.05 51.7299 29.04 51.6699 29.03C51.5299 28.99 51.3999 28.96 51.2599 28.92C50.9499 28.84 51.4499 29.04 51.1699 28.88C51.0799 28.83 50.9799 28.78 50.8899 28.72C50.8499 28.7 50.5999 28.48 50.7999 28.66C50.7299 28.6 50.6599 28.54 50.5999 28.47C50.5399 28.4 50.4699 28.33 50.4099 28.26C50.5899 28.48 50.3899 28.21 50.3599 28.17C50.2999 28.08 50.2499 27.99 50.2099 27.9C50.1799 27.84 50.1499 27.78 50.1199 27.71C50.1799 27.85 50.1799 27.85 50.1299 27.71C50.0699 27.51 50.0199 27.31 49.9699 27.1C49.8899 26.77 49.9699 27.35 49.9599 27.01C49.9599 26.87 49.9399 26.72 49.9399 26.58C49.9399 26.47 49.9399 26.36 49.9399 26.26C49.9399 26.2 50.0099 25.75 49.9599 26.05C49.9999 25.83 50.0399 25.62 50.0999 25.41C50.1299 25.3 50.1599 25.2 50.1999 25.1C50.2199 25.05 50.3999 24.64 50.2799 24.89C50.3699 24.69 50.4699 24.5 50.5799 24.32C50.6399 24.23 50.6999 24.14 50.7599 24.05C50.8399 23.94 50.8399 23.94 50.7599 24.05C50.7999 24 50.8499 23.94 50.8999 23.89C51.0599 23.71 51.2399 23.55 51.4199 23.39C51.9399 22.96 51.8599 22.07 51.4199 21.62C50.8999 21.1 50.1799 21.19 49.6499 21.62C47.8499 23.09 47.0699 25.8 47.6199 28.03C48.2399 30.53 50.7799 32.08 53.2799 31.35C55.7799 30.62 57.1199 27.84 56.7999 25.31C56.6299 23.97 56.1199 22.72 55.1799 21.74C54.2399 20.76 52.9699 20.21 51.6299 20.05C48.5799 19.7 45.9899 22.08 45.1799 24.87C44.9999 25.5 45.3999 26.26 46.0499 26.41C46.6999 26.56 47.3899 26.21 47.5899 25.54H47.6099Z" fill="#5B5B5B"/>
<path d="M23.1701 13.79V13.65C23.0001 14.09 22.8101 14.53 22.6301 14.98C22.8201 14.75 22.8601 14.7 22.7501 14.83H20.8601L20.9701 14.88L20.0401 13.26L20.1301 12.74L22.7801 15.39L23.0301 15.08C23.3801 14.76 23.3701 14.68 22.9901 14.86C22.9301 14.61 22.5901 15.01 22.7401 14.93C22.8201 14.89 22.9201 14.87 23.0001 14.84C23.3701 14.7 23.7501 14.58 24.1301 14.44L28.0001 13.08C29.9201 12.41 31.8501 11.73 33.7701 11.06C35.2501 10.54 35.6801 8.49 34.2201 7.63C31.1401 5.83 27.5701 5.05 24.0201 5.51C20.7801 5.93 17.1701 7.35 15.9901 10.68C14.9101 13.74 16.5001 17.22 19.1001 18.94C21.9801 20.85 25.9401 20.62 29.0401 19.39C32.8201 17.89 35.8101 14.4 35.4701 10.15C35.3201 8.29 33.0401 7.61 31.9801 9.2L31.2301 10.32L33.3501 9.46C30.9601 9.1 28.6201 9.05 26.2301 9.43C24.3701 9.73 21.5001 10.23 21.5801 12.71C21.6601 15.19 24.6701 15.8 26.5401 15.21C28.5601 14.57 29.7401 12.71 30.5501 10.88C30.9301 10.01 30.8701 8.79 29.8801 8.31C28.3101 7.55 26.5601 7.29 24.8701 7.84C23.3901 8.32 21.7401 9.4 21.5601 11.08C21.3801 12.76 22.8101 14.23 24.5001 14.29C26.2801 14.35 27.4301 12.92 28.1801 11.49C28.6101 10.66 28.4701 9.36 27.5101 8.92C25.0301 7.79 22.4401 8.53 20.1001 9.71C17.7601 10.89 16.5201 13.87 18.5501 15.85C20.2701 17.53 23.2701 16.82 25.3101 16.24C27.9001 15.51 30.2001 14.22 32.3001 12.55C33.3601 11.71 32.7901 9.64 31.4701 9.42C29.2101 9.04 27.2601 9.72 25.4401 11.08C23.8901 12.24 21.6401 13.9 21.9001 16.08C22.1801 18.51 24.7801 18.85 26.6201 18.01C28.7201 17.06 30.7001 15.73 32.5901 14.41C33.8501 13.53 33.8001 11.41 32.1401 10.98L32.5901 11.3L32.8501 12.25L32.8201 11.94L30.0001 13.56L32.1601 14.81C32.9801 15.28 34.2901 15.06 34.7301 14.14C35.0701 13.41 35.5501 12.04 36.4201 11.82C36.8501 11.71 37.5201 12.01 37.9601 12.04C38.7601 12.1 39.4101 11.92 40.1301 11.56C42.0501 10.58 40.7101 7.6 38.6901 8.13L37.7601 8.38C36.5601 8.7 36.0701 10.09 36.6401 11.13C39.8601 17.02 48.3301 20.46 54.3601 16.59C55.9801 15.55 57.2201 13.92 57.2701 11.93C57.3101 10.08 56.4001 8.26 55.1801 6.92C52.7301 4.23 49.2401 3.82 45.8201 3.8C42.4001 3.78 38.1701 4.52 37.0101 8.43C36.7901 9.16 37.1401 10.21 37.8701 10.55C40.0001 11.54 42.1401 12.52 44.2701 13.51C45.3701 14.02 46.4701 14.53 47.5801 15.04C47.9501 15.21 48.3101 15.41 48.7101 15.46C49.5701 15.58 50.2001 15.05 50.8901 14.63C51.6201 14.19 52.3601 13.77 53.1101 13.36L50.2901 11.74C50.2801 11.33 50.5101 11.5 49.8201 11.63C49.4401 11.7 49.0501 11.71 48.6701 11.69C47.9301 11.66 47.2101 11.46 46.5101 11.22C44.9501 10.67 43.5301 9.73 42.1801 8.8L42.5601 11.74C43.4301 10.9 44.6201 10.36 45.8501 10.54L44.7301 7.79C44.5001 8.22 44.2601 8.57 43.8201 8.82C43.7801 8.84 43.4201 8.97 43.4001 9.01C43.3801 9.02 43.3501 9.03 43.3201 9.03C43.0801 9.05 43.2301 9.21 43.7901 9.49V10.49C43.4301 10.71 43.3801 10.77 43.6501 10.68C43.8401 10.62 44.0301 10.58 44.2201 10.55C44.4801 10.5 44.7301 10.47 44.9901 10.46C45.4101 10.43 45.8501 10.42 46.2701 10.46C46.6601 10.49 46.9701 10.7 46.5501 10.22C46.1301 9.74 46.1201 10.04 45.4601 10.2C45.2901 10.24 45.0601 10.25 44.9101 10.3H44.6301C44.3101 10.15 44.5101 10.36 45.2401 10.93L44.9801 11.88C45.3301 11.18 46.8801 10.81 47.5901 10.6C48.1101 10.45 48.6501 10.31 49.1901 10.26C49.4101 10.24 49.6301 10.23 49.8601 10.26C50.0801 10.4 50.1301 10.39 50.0201 10.22C50.3301 9.73 49.7301 10.11 49.6001 10.15C49.1001 10.31 48.6301 10.5 48.1101 10.62C47.5201 10.76 46.9301 10.85 46.3201 10.88C45.4301 10.93 45.9001 10.72 46.0001 11.24V12.24C45.9601 12.48 46.3201 12.1 46.5801 11.98C46.8201 11.88 47.0901 11.81 47.3501 11.77C47.9401 11.68 48.5901 11.73 49.1401 11.98L48.4701 9.41C47.8801 10.4 46.8401 10.89 45.7101 10.59L46.1601 14.02C48.3201 12.93 50.7101 12.78 53.0201 13.47L52.5701 10.04C51.1601 11.05 49.6401 11.65 47.9001 11.7L48.8501 15.19C49.5501 14.66 50.2101 14.32 51.0901 14.27L49.2801 12.89L49.2501 12.93L49.5101 11.98L49.6501 11.88L50.6001 11.62C49.8201 11.68 49.3701 11.92 48.7501 12.34C47.7401 13.05 47.3401 14.97 48.7501 15.58C50.5201 16.34 53.3801 15.85 53.2601 13.36C53.2201 12.57 52.7101 11.73 51.8801 11.55C51.0501 11.37 50.4001 11.52 49.8101 12.11C49.1901 12.74 49.1501 13.63 49.5201 14.38L49.5701 14.48C50.6301 16.65 53.8701 14.75 52.8101 12.59L52.7601 12.49L52.4701 14.76L52.5801 14.65L50.7601 15.13L50.9001 15.16L49.5201 13.35V13.61C49.6201 13.29 49.7001 12.98 49.7901 12.66L50.6601 12.33V15.57L51.3001 15.12L50.3501 15.38C52.1901 15.24 53.3901 13.71 52.9201 11.88C52.7301 11.12 51.9201 10.46 51.1101 10.5C49.6001 10.58 48.1901 11.01 46.9801 11.93C45.6201 12.96 45.8801 15.49 47.9301 15.42C50.3001 15.35 52.5701 14.63 54.5001 13.25C55.7801 12.33 55.6901 10.31 54.0501 9.82C50.7601 8.84 47.3601 9.22 44.3101 10.75C42.8401 11.49 43.2701 13.77 44.7601 14.18C47.5101 14.93 50.3101 13.7 51.7501 11.28C52.2301 10.48 52.0001 9.12 51.0801 8.71C48.5901 7.61 45.7501 7.71 43.5601 9.47C41.1201 11.44 42.9201 14.38 45.6301 14.59C47.9301 14.77 51.3601 14.09 52.9201 12.25C54.8101 10.02 53.1901 6.99 50.5201 6.54C48.0501 6.12 44.4301 7.24 42.5901 8.92C40.4001 10.92 41.9301 13.92 44.6801 14.01C46.9301 14.08 49.5601 12.96 50.0301 10.56C50.6501 7.41 47.5101 6.51 45.0401 6.68C43.6201 6.77 41.9401 6.98 40.9101 8.08C39.8801 9.18 39.9501 10.93 41.0501 11.93C43.3501 14.02 46.8101 11.92 48.0201 9.66C48.5301 8.71 48.1601 7.09 46.9001 6.91C44.2901 6.52 41.8701 7.22 39.9601 9.07C39.0401 9.96 39.3701 11.35 40.3401 12.01C42.6801 13.63 45.2301 15.06 48.1001 15.36C50.5301 15.62 54.2001 14.81 54.0901 11.71C54.0401 10.27 52.5401 9.39 51.2701 10.09C50.1801 10.68 49.1201 11.31 48.0701 11.97H49.9601C46.5801 10.41 43.2001 8.85 39.8201 7.29L40.6801 9.41C41.3801 7.05 45.3101 7.51 47.1401 7.55C49.6201 7.61 53.3101 8.51 53.5701 11.59C53.7001 13.06 51.8801 13.79 50.7201 14.1C49.4401 14.45 48.0601 14.49 46.7601 14.22C43.8301 13.61 41.3801 11.84 39.9401 9.21L38.8201 11.96L39.7501 11.71L38.3101 8.28C37.9101 8.49 36.8101 8.03 36.3101 8.05C35.5501 8.09 34.8201 8.33 34.1901 8.74C32.9401 9.54 32.1701 10.9 31.5601 12.2L34.1301 11.53L31.9701 10.28C30.8201 9.61 29.0301 10.44 29.1501 11.9C29.2601 13.21 29.9101 14.23 31.2301 14.57L30.7801 11.14C29.7501 11.86 28.6901 12.55 27.6101 13.2C27.1001 13.5 26.5901 13.8 26.0701 14.08C25.9101 14.17 24.9001 14.55 24.8601 14.71L25.7301 15.86L25.9801 15.6C26.1901 15.48 26.3801 15.21 26.5601 15.05C26.9401 14.7 27.3301 14.35 27.7401 14.05C28.5201 13.48 29.5301 12.84 30.5501 13.01L29.7201 9.88C27.6001 11.56 24.9401 12.74 22.2401 13.06C21.9901 13.09 21.7201 13.07 21.4801 13.11C21.3401 13.13 20.7701 12.97 21.2201 13.21C21.6101 13.42 21.5001 13.21 22.0701 12.93C22.9801 12.47 24.6601 11.67 25.6901 12.14L25.0201 9.57C24.9101 9.77 24.5501 10.26 24.5101 10.47L24.3701 10.61C24.6301 10.48 24.8801 10.49 25.1301 10.65L25.3901 11.6C25.4101 11.92 25.1501 11.83 25.7301 11.54C25.9501 11.43 26.1801 11.36 26.4201 11.31C26.9801 11.2 27.5601 11.28 28.0701 11.53L27.4001 8.96C27.1001 9.63 26.8101 10.36 26.3401 10.94C26.1301 11.2 25.8501 11.49 25.5301 11.6L25.2601 11.67C24.9701 11.64 24.9401 11.66 25.1601 11.73L25.4201 12.68L25.4401 12.4L25.1801 13.35C24.9801 13.69 25.1001 13.47 25.4601 13.41C25.7701 13.36 26.0801 13.26 26.3801 13.2C27.0701 13.06 27.7601 12.97 28.4601 12.92C29.7801 12.83 31.1301 12.86 32.4401 13.06C33.3201 13.19 34.0501 12.96 34.5601 12.2L35.3101 11.08L31.8201 10.13C32.0801 13.4 29.5201 15.52 26.5801 16.27C24.1901 16.88 20.9201 16.69 19.8101 14.08C18.6101 11.27 21.3401 9.86 23.6701 9.34C26.6701 8.67 29.8001 9.3 32.4301 10.84L32.8801 7.41C30.8401 8.12 28.8001 8.84 26.7601 9.55L23.0101 10.87C22.6601 10.99 22.3101 11.11 21.9701 11.23C21.1801 11.53 20.7701 12.04 20.2501 12.69C18.7701 14.54 21.0801 17.01 22.9001 15.34C23.4901 14.8 23.9201 14.02 23.9101 13.2C23.9101 12.59 23.5701 11.84 22.9801 11.58C21.3501 10.85 19.6501 11.96 19.5401 13.74C19.3801 16.15 23.1301 16.14 23.2901 13.74L23.1701 13.79Z" fill="#FFFF03"/>
</g>
<defs>
<clipPath id="clip0_79_119">
<rect width="72.47" height="60.4" fill="white"/>
</clipPath>
</defs>
</svg>
