<svg width="82" height="82" viewBox="0 0 82 82" fill="none" xmlns="http://www.w3.org/2000/svg">
<path d="M40.9998 74.5834C36.4101 74.5834 32.0723 73.7012 27.9863 71.937C23.9003 70.1727 20.3327 67.7659 17.2833 64.7166C14.2339 61.6672 11.8271 58.0995 10.0629 54.0136C8.29863 49.9276 7.4165 45.5897 7.4165 41C7.4165 36.3543 8.32661 31.9885 10.1468 27.9025C11.967 23.8166 14.4298 20.2623 17.5352 17.2398C20.6405 14.2173 24.2641 11.8251 28.4061 10.0631C32.548 8.30105 36.9698 7.41893 41.6715 7.41669C46.1493 7.41669 50.3752 8.18686 54.3492 9.72722C58.3232 11.2676 61.8081 13.3945 64.8037 16.1081C67.7993 18.8216 70.1782 22.04 71.9402 25.7633C73.7022 29.4865 74.5832 33.502 74.5832 37.8096C74.5832 44.2464 72.6241 49.1865 68.7061 52.6299C64.788 56.0733 60.0304 57.7939 54.4332 57.7917H48.2203C47.7165 57.7917 47.3672 57.9316 47.1725 58.2115C46.9777 58.4913 46.8792 58.7992 46.8769 59.135C46.8769 59.8067 47.2967 60.7728 48.1363 62.0333C48.9759 63.2938 49.3957 64.7345 49.3957 66.3554C49.3957 69.1541 48.6266 71.225 47.0885 72.5684C45.5504 73.9117 43.5208 74.5834 40.9998 74.5834ZM22.529 44.3584C23.9843 44.3584 25.1877 43.8826 26.1392 42.9311C27.0907 41.9795 27.5665 40.7761 27.5665 39.3209C27.5665 37.8656 27.0907 36.6622 26.1392 35.7106C25.1877 34.7591 23.9843 34.2834 22.529 34.2834C21.0737 34.2834 19.8703 34.7591 18.9188 35.7106C17.9673 36.6622 17.4915 37.8656 17.4915 39.3209C17.4915 40.7761 17.9673 41.9795 18.9188 42.9311C19.8703 43.8826 21.0737 44.3584 22.529 44.3584ZM32.604 30.925C34.0593 30.925 35.2627 30.4493 36.2142 29.4977C37.1657 28.5462 37.6415 27.3428 37.6415 25.8875C37.6415 24.4322 37.1657 23.2288 36.2142 22.2773C35.2627 21.3258 34.0593 20.85 32.604 20.85C31.1487 20.85 29.9453 21.3258 28.9938 22.2773C28.0423 23.2288 27.5665 24.4322 27.5665 25.8875C27.5665 27.3428 28.0423 28.5462 28.9938 29.4977C29.9453 30.4493 31.1487 30.925 32.604 30.925ZM49.3957 30.925C50.851 30.925 52.0544 30.4493 53.0059 29.4977C53.9574 28.5462 54.4332 27.3428 54.4332 25.8875C54.4332 24.4322 53.9574 23.2288 53.0059 22.2773C52.0544 21.3258 50.851 20.85 49.3957 20.85C47.9404 20.85 46.737 21.3258 45.7855 22.2773C44.8339 23.2288 44.3582 24.4322 44.3582 25.8875C44.3582 27.3428 44.8339 28.5462 45.7855 29.4977C46.737 30.4493 47.9404 30.925 49.3957 30.925ZM59.4707 44.3584C60.926 44.3584 62.1294 43.8826 63.0809 42.9311C64.0324 41.9795 64.5082 40.7761 64.5082 39.3209C64.5082 37.8656 64.0324 36.6622 63.0809 35.7106C62.1294 34.7591 60.926 34.2834 59.4707 34.2834C58.0154 34.2834 56.812 34.7591 55.8605 35.7106C54.9089 36.6622 54.4332 37.8656 54.4332 39.3209C54.4332 40.7761 54.9089 41.9795 55.8605 42.9311C56.812 43.8826 58.0154 44.3584 59.4707 44.3584ZM40.9998 67.8667C41.5036 67.8667 41.9099 67.7268 42.2189 67.4469C42.5279 67.167 42.6812 66.8032 42.679 66.3554C42.679 65.5718 42.2592 64.6483 41.4196 63.5848C40.58 62.5213 40.1603 60.9261 40.1603 58.7992C40.1603 56.4484 40.9719 54.5733 42.595 53.174C44.2182 51.7747 46.2053 51.075 48.5561 51.075H54.4332C58.1273 51.075 61.2898 49.9981 63.9205 47.8443C66.5512 45.6905 67.8665 42.3456 67.8665 37.8096C67.8665 31.037 65.2784 25.3972 60.102 20.8903C54.9257 16.3834 48.7822 14.1311 41.6715 14.1334C34.0593 14.1334 27.5665 16.7361 22.1932 21.9415C16.8198 27.1469 14.1332 33.4997 14.1332 41C14.1332 48.4443 16.7504 54.7837 21.985 60.0183C27.2195 65.2528 33.5578 67.8689 40.9998 67.8667Z" fill="#5B5B5B"/>
</svg>
