<svg width="10" height="16" viewBox="0 0 10 16" fill="none" xmlns="http://www.w3.org/2000/svg">
<path d="M8.272 15.624C8.05867 15.624 7.86667 15.5493 7.696 15.4C6.416 14.1413 4.84267 12.6693 2.976 10.984C2.21867 10.2907 1.504 9.63467 0.832 9.016C0.714667 8.90933 0.650667 8.81333 0.64 8.728C0.629333 8.64267 0.624 8.58933 0.624 8.568C0.624 8.46133 0.650667 8.36 0.704 8.264C1.248 7.41067 1.872 6.57867 2.576 5.768C3.28 4.95733 4 4.15733 4.736 3.368C5.67467 2.38667 6.53333 1.42133 7.312 0.471999C7.44 0.311999 7.568 0.226666 7.696 0.216C7.824 0.194666 7.904 0.183999 7.936 0.183999C8.128 0.183999 8.304 0.247999 8.464 0.375999C8.61333 0.493333 8.688 0.599999 8.688 0.695999C8.69867 0.781333 8.704 0.84 8.704 0.872C8.704 0.989333 8.66133 1.10667 8.576 1.224C7.75467 2.216 6.88 3.20267 5.952 4.184C4.576 5.592 3.37067 7.02667 2.336 8.488C2.88 8.97867 3.46667 9.512 4.096 10.088C5.97333 11.7733 7.56267 13.256 8.864 14.536C8.98133 14.664 9.04 14.8027 9.04 14.952C9.04 15.112 8.976 15.256 8.848 15.384C8.67733 15.544 8.48533 15.624 8.272 15.624Z" fill="#5B5B5B"/>
</svg>
