<svg width="40" height="39" viewBox="0 0 40 39" fill="none" xmlns="http://www.w3.org/2000/svg">
<g clip-path="url(#clip0_51_201)">
<path d="M22.2481 7.53666C22.1886 4.15969 21.5285 0.949263 20.6976 0.1795C20.4098 -0.0869567 20.2889 0.351586 19.9972 0.360838C19.7228 0.37009 19.5866 -0.0721535 19.3275 0.168398C18.5619 0.880799 17.6082 4.27257 17.6177 7.69024C17.6293 12.2552 18.8708 15.8634 19.9972 15.8634C21.1582 15.8634 22.3287 12.072 22.2481 7.53666Z" fill="#FFFFFD" stroke="#5B5B5B" stroke-miterlimit="10" stroke-linecap="round"/>
<path d="M28.0393 10.1938C29.7395 7.2406 30.8313 4.1412 30.5128 3.07537C30.4015 2.70714 30.0695 3.02726 29.8124 2.89588C29.5706 2.77006 29.6819 2.32411 29.3326 2.40738C28.3003 2.65533 25.7155 5.13301 23.952 8.09734C21.5955 12.0553 20.8011 15.7802 21.7759 16.3223C22.7814 16.8811 25.7596 14.1629 28.0431 10.1957L28.0393 10.1938Z" fill="#FFFFFD" stroke="#5B5B5B" stroke-miterlimit="10" stroke-linecap="round"/>
<path d="M31.6758 15.2898C34.6789 13.5523 37.233 11.3947 37.5093 10.316C37.6053 9.94218 37.1505 10.0606 36.9951 9.82191C36.8492 9.59616 37.1774 9.26309 36.832 9.16687C35.8092 8.88376 32.286 9.78305 29.2215 11.5002C25.1284 13.7929 22.5091 16.6332 23.0713 17.5732C23.6509 18.5428 27.6422 17.6232 31.6739 15.2898H31.6758Z" fill="#FFFFFD" stroke="#5B5B5B" stroke-miterlimit="10" stroke-linecap="round"/>
<path d="M32.1842 21.4535C35.6863 21.3961 39.0156 20.7596 39.8139 19.9584C40.0902 19.6808 39.6354 19.5642 39.6258 19.283C39.6162 19.0184 40.0749 18.887 39.8254 18.6372C39.0866 17.8989 35.5692 16.9792 32.025 16.9885C27.291 16.9996 23.5491 18.1968 23.5491 19.283C23.5491 20.4024 27.481 21.5312 32.1842 21.4535Z" fill="#FFFFFD" stroke="#5B5B5B" stroke-miterlimit="10" stroke-linecap="round"/>
<path d="M29.4267 27.038C32.4893 28.6774 35.7035 29.7303 36.8088 29.4231C37.1907 29.3158 36.8587 28.9957 36.995 28.7477C37.1254 28.5146 37.5879 28.6219 37.5016 28.2851C37.2444 27.2896 34.675 24.7971 31.6009 23.0966C27.4963 20.8243 23.6335 20.0583 23.0712 20.9983C22.509 21.9383 25.3106 24.8397 29.4248 27.0417L29.4267 27.038Z" fill="#FFFFFD" stroke="#5B5B5B" stroke-miterlimit="10" stroke-linecap="round"/>
<path d="M24.1439 30.5445C25.9458 33.4403 28.1832 35.9032 29.302 36.1696C29.6896 36.2622 29.5668 35.8236 29.8143 35.6737C30.0484 35.5331 30.3938 35.8495 30.4936 35.5165C30.7872 34.5302 29.8546 31.1329 28.0738 28.1778C25.6963 24.2309 22.7507 21.7051 21.7759 22.2473C20.7704 22.8061 21.7241 26.6549 24.1439 30.5426V30.5445Z" fill="#FFFFFD" stroke="#5B5B5B" stroke-miterlimit="10" stroke-linecap="round"/>
<path d="M17.75 31.0348C17.8095 34.4118 18.4696 37.6222 19.3005 38.392C19.5884 38.6584 19.7093 38.2199 20.0009 38.2106C20.2753 38.2014 20.4116 38.6436 20.6706 38.4031C21.4363 37.6907 22.39 34.2989 22.3804 30.8812C22.3689 26.3163 21.1273 22.708 20.0009 22.708C18.84 22.708 17.6694 26.4995 17.75 31.0348Z" fill="#FFFFFD" stroke="#5B5B5B" stroke-miterlimit="10" stroke-linecap="round"/>
<path d="M11.9588 28.3758C10.2587 31.329 9.16681 34.4284 9.48535 35.4942C9.59665 35.8625 9.92862 35.5423 10.1858 35.6737C10.4275 35.7996 10.3162 36.2455 10.6655 36.1622C11.6979 35.9143 14.2827 33.4366 16.0462 30.4723C18.4026 26.5143 19.197 22.7894 18.2222 22.2473C17.2167 21.6885 14.2385 24.4067 11.955 28.3739L11.9588 28.3758Z" fill="#FFFFFD" stroke="#5B5B5B" stroke-miterlimit="10" stroke-linecap="round"/>
<path d="M8.32228 23.2817C5.31916 25.0192 2.76508 27.1767 2.48875 28.2555C2.3928 28.6293 2.84759 28.5109 3.00302 28.7496C3.14886 28.9753 2.82072 29.3084 3.16613 29.4046C4.18892 29.6877 7.71207 28.7884 10.7766 27.0713C14.8697 24.7786 17.489 21.9383 16.9267 20.9983C16.3472 20.0287 12.3559 20.9483 8.3242 23.2817H8.32228Z" fill="#FFFFFD" stroke="#5B5B5B" stroke-miterlimit="10" stroke-linecap="round"/>
<path d="M7.81577 17.1161C4.31373 17.1735 0.984398 17.81 0.186125 18.6112C-0.0901999 18.8888 0.364585 19.0054 0.37418 19.2866C0.383775 19.5512 -0.0748485 19.6826 0.174612 19.9324C0.913398 20.6707 4.43079 21.5904 7.97504 21.5811C12.709 21.57 16.4509 20.3728 16.4509 19.2866C16.4509 18.1672 12.5191 17.0384 7.81577 17.1161Z" fill="#FFFFFD" stroke="#5B5B5B" stroke-miterlimit="10" stroke-linecap="round"/>
<path d="M10.5713 11.5316C7.50874 9.8922 4.29454 8.83933 3.18924 9.14649C2.80737 9.25382 3.13935 9.57393 3.0031 9.82189C2.87261 10.055 2.41015 9.94771 2.49651 10.2845C2.75364 11.28 5.32308 13.7725 8.3972 15.473C12.5018 17.7453 16.3646 18.5113 16.9268 17.5713C17.5063 16.6017 14.6874 13.7299 10.5733 11.5279L10.5713 11.5316Z" fill="#FFFFFD" stroke="#5B5B5B" stroke-miterlimit="10" stroke-linecap="round"/>
<path d="M15.856 8.02515C14.0541 5.12929 11.8167 2.66642 10.6979 2.39996C10.3103 2.30744 10.4331 2.74599 10.1856 2.89587C9.95146 3.0365 9.60606 2.72008 9.50627 3.05315C9.21268 4.03941 10.1453 7.43673 11.926 10.3918C14.3036 14.3387 17.2491 16.8645 18.224 16.3223C19.2295 15.7635 18.2758 11.9147 15.856 8.02701V8.02515Z" fill="#FFFFFD" stroke="#5B5B5B" stroke-miterlimit="10" stroke-linecap="round"/>
<path d="M19.9991 25.5558C23.5907 25.5558 26.5023 22.7482 26.5023 19.2848C26.5023 15.8214 23.5907 13.0138 19.9991 13.0138C16.4074 13.0138 13.4958 15.8214 13.4958 19.2848C13.4958 22.7482 16.4074 25.5558 19.9991 25.5558Z" fill="#FFF255" stroke="#5B5B5B" stroke-miterlimit="10" stroke-linecap="round"/>
</g>
<defs>
<clipPath id="clip0_51_201">
<rect width="40" height="38.5714" fill="white"/>
</clipPath>
</defs>
</svg>
