<svg width="132" height="131" viewBox="0 0 132 131" fill="none" xmlns="http://www.w3.org/2000/svg">
<g clip-path="url(#clip0_46_112)">
<path d="M73.4185 25.5967C73.2222 14.1275 71.0438 3.22394 68.3018 0.609596C67.352 -0.29537 66.953 1.19405 65.9905 1.22547C65.085 1.2569 64.6354 -0.245094 63.7805 0.571889C61.2538 2.99141 58.1066 14.5109 58.1383 26.1183C58.1762 41.6221 62.2733 53.8769 65.9905 53.8769C69.8216 53.8769 73.6844 41 73.4185 25.5967Z" stroke="#5B5B5B" stroke-miterlimit="10" stroke-linecap="round"/>
<path d="M92.5298 34.6212C98.1404 24.5912 101.744 14.0647 100.692 10.4448C100.325 9.1942 99.2296 10.2814 98.381 9.83521C97.5831 9.40787 97.9504 7.89331 96.7979 8.17611C93.391 9.01823 84.8612 17.4331 79.0417 27.5009C71.2654 40.9434 68.6438 53.594 71.8607 55.4354C75.1789 57.3333 85.0069 48.1014 92.5425 34.6275L92.5298 34.6212Z" stroke="#5B5B5B" stroke-miterlimit="10" stroke-linecap="round"/>
<path d="M104.53 51.9287C114.44 46.0275 122.869 38.6998 123.78 35.036C124.097 33.7665 122.596 34.1687 122.083 33.358C121.602 32.5913 122.685 31.4601 121.545 31.1333C118.17 30.1718 106.544 33.2261 96.4306 39.0581C82.9235 46.8445 74.2797 56.4912 76.1351 59.6837C78.0475 62.9768 91.219 59.8534 104.523 51.9287H104.53Z" stroke="#5B5B5B" stroke-miterlimit="10" stroke-linecap="round"/>
<path d="M106.208 72.8623C117.765 72.6674 128.751 70.5056 131.386 67.7844C132.298 66.8417 130.797 66.4458 130.765 65.4906C130.734 64.5919 132.247 64.1457 131.424 63.2973C128.986 60.7898 117.378 57.6664 105.682 57.6978C90.0602 57.7355 77.7119 61.8016 77.7119 65.4906C77.7119 69.2927 90.6871 73.1262 106.208 72.8623Z" stroke="#5B5B5B" stroke-miterlimit="10" stroke-linecap="round"/>
<path d="M97.1082 91.8288C107.215 97.3969 117.822 100.973 121.469 99.9295C122.729 99.565 121.634 98.4778 122.083 97.6357C122.514 96.8439 124.04 97.2084 123.755 96.0646C122.907 92.6835 114.427 84.2183 104.283 78.4429C90.7377 70.7256 77.9905 68.1238 76.1351 71.3163C74.2797 74.5088 83.5251 84.3629 97.1018 91.8414L97.1082 91.8288Z" stroke="#5B5B5B" stroke-miterlimit="10" stroke-linecap="round"/>
<path d="M79.6749 103.738C85.6211 113.573 93.0047 121.938 96.6966 122.843C97.9757 123.157 97.5704 121.668 98.3873 121.158C99.1599 120.681 100.3 121.756 100.629 120.624C101.598 117.275 98.5203 105.736 92.6438 95.7001C84.7979 82.2953 75.0776 73.717 71.8607 75.5583C68.5425 77.4562 71.6897 90.5279 79.6749 103.732V103.738Z" stroke="#5B5B5B" stroke-miterlimit="10" stroke-linecap="round"/>
<path d="M58.5752 105.403C58.7715 116.872 60.9499 127.776 63.6918 130.39C64.6417 131.295 65.0406 129.806 66.0032 129.775C66.9087 129.743 67.3583 131.245 68.2132 130.428C70.7398 128.009 73.8871 116.489 73.8554 104.882C73.8174 89.3779 69.7203 77.1231 66.0032 77.1231C62.172 77.1231 58.3092 90 58.5752 105.403Z" stroke="#5B5B5B" stroke-miterlimit="10" stroke-linecap="round"/>
<path d="M39.4639 96.3725C33.8533 106.403 30.2501 116.929 31.3013 120.549C31.6686 121.8 32.7641 120.712 33.6127 121.158C34.4106 121.586 34.0433 123.1 35.1958 122.818C38.6026 121.975 47.1325 113.561 52.952 103.493C60.7282 90.0503 63.3499 77.3997 60.133 75.5583C56.8148 73.6604 46.9868 82.8923 39.4512 96.3662L39.4639 96.3725Z" stroke="#5B5B5B" stroke-miterlimit="10" stroke-linecap="round"/>
<path d="M27.4639 79.0713C17.5536 84.9725 9.12507 92.3002 8.2132 95.964C7.89657 97.2335 9.39736 96.8313 9.91029 97.642C10.3916 98.4087 9.30871 99.5399 10.4486 99.8667C13.8237 100.828 25.4501 97.774 35.5631 91.942C49.0702 84.1555 57.714 74.5088 55.8586 71.3163C53.9462 68.0232 40.7747 71.1466 27.4702 79.0713H27.4639Z" stroke="#5B5B5B" stroke-miterlimit="10" stroke-linecap="round"/>
<path d="M25.7921 58.1314C14.2354 58.3263 3.24855 60.4881 0.61425 63.2093C-0.297624 64.152 1.20317 64.5479 1.23483 65.5031C1.26649 66.4018 -0.246964 66.848 0.576255 67.6964C3.01425 70.2039 14.6216 73.3273 26.3177 73.2959C41.9398 73.2582 54.2881 69.1921 54.2881 65.5031C54.2881 61.701 41.3129 57.8675 25.7921 58.1314Z" stroke="#5B5B5B" stroke-miterlimit="10" stroke-linecap="round"/>
<path d="M34.8855 39.1649C24.7789 33.5968 14.172 30.021 10.5245 31.0642C9.26438 31.4287 10.3599 32.5159 9.91029 33.358C9.47968 34.1499 7.95356 33.7854 8.23852 34.9291C9.08707 38.3102 17.5662 46.7754 27.7108 52.5508C41.2559 60.2682 54.0032 62.8699 55.8586 59.6774C57.771 56.3844 48.4686 46.6308 34.8918 39.1523L34.8855 39.1649Z" stroke="#5B5B5B" stroke-miterlimit="10" stroke-linecap="round"/>
<path d="M52.3251 27.2558C46.3789 17.4206 38.9953 9.05594 35.3034 8.15097C34.0243 7.83675 34.4296 9.32617 33.6127 9.83521C32.8401 10.3128 31.7003 9.23819 31.371 10.3694C30.4021 13.719 33.4797 25.2573 39.3562 35.2936C47.2021 48.6984 56.9224 57.2768 60.1393 55.4354C63.4575 53.5375 60.3103 40.4658 52.3251 27.2621V27.2558Z" stroke="#5B5B5B" stroke-miterlimit="10" stroke-linecap="round"/>
<path d="M65.9968 86.795C77.8492 86.795 87.4575 77.2595 87.4575 65.4969C87.4575 53.7342 77.8492 44.1987 65.9968 44.1987C54.1444 44.1987 44.5361 53.7342 44.5361 65.4969C44.5361 77.2595 54.1444 86.795 65.9968 86.795Z" fill="#FFF255" stroke="#5B5B5B" stroke-miterlimit="10" stroke-linecap="round"/>
</g>
<defs>
<clipPath id="clip0_46_112">
<rect width="132" height="131" fill="white"/>
</clipPath>
</defs>
</svg>
