<svg width="36" height="36" viewBox="0 0 36 36" fill="none" xmlns="http://www.w3.org/2000/svg">
<path d="M33 20.495H20.5V32.995C20.5 33.658 20.2366 34.2939 19.7678 34.7628C19.2989 35.2316 18.663 35.495 18 35.495C17.337 35.495 16.7011 35.2316 16.2322 34.7628C15.7634 34.2939 15.5 33.658 15.5 32.995V20.495H3C2.33696 20.495 1.70107 20.2316 1.23223 19.7628C0.763393 19.2939 0.5 18.658 0.5 17.995C0.5 17.332 0.763393 16.6961 1.23223 16.2272C1.70107 15.7584 2.33696 15.495 3 15.495H15.5V2.995C15.5 2.33196 15.7634 1.69607 16.2322 1.22723C16.7011 0.758392 17.337 0.495001 18 0.495001C18.663 0.495001 19.2989 0.758392 19.7678 1.22723C20.2366 1.69607 20.5 2.33196 20.5 2.995V15.495H33C33.663 15.495 34.2989 15.7584 34.7678 16.2272C35.2366 16.6961 35.5 17.332 35.5 17.995C35.5 18.658 35.2366 19.2939 34.7678 19.7628C34.2989 20.2316 33.663 20.495 33 20.495Z" fill="#5B5B5B"/>
</svg>
