<svg width="10" height="16" viewBox="0 0 10 16" fill="none" xmlns="http://www.w3.org/2000/svg">
<path d="M1.728 15.624C1.94133 15.624 2.13333 15.5493 2.304 15.4C3.584 14.1413 5.15733 12.6693 7.024 10.984C7.78133 10.2907 8.496 9.63467 9.168 9.016C9.28533 8.90933 9.34933 8.81333 9.36 8.728C9.37067 8.64267 9.376 8.58933 9.376 8.568C9.376 8.46133 9.34933 8.36 9.296 8.264C8.752 7.41067 8.128 6.57867 7.424 5.768C6.72 4.95733 6 4.15733 5.264 3.368C4.32533 2.38667 3.46667 1.42133 2.688 0.471999C2.56 0.311999 2.432 0.226666 2.304 0.216C2.176 0.194666 2.096 0.183999 2.064 0.183999C1.872 0.183999 1.696 0.247999 1.536 0.375999C1.38667 0.493333 1.312 0.599999 1.312 0.695999C1.30133 0.781333 1.296 0.84 1.296 0.872C1.296 0.989333 1.33867 1.10667 1.424 1.224C2.24533 2.216 3.12 3.20267 4.048 4.184C5.424 5.592 6.62933 7.02667 7.664 8.488C7.12 8.97867 6.53333 9.512 5.904 10.088C4.02667 11.7733 2.43733 13.256 1.136 14.536C1.01867 14.664 0.96 14.8027 0.96 14.952C0.96 15.112 1.024 15.256 1.152 15.384C1.32267 15.544 1.51467 15.624 1.728 15.624Z" fill="#5B5B5B"/>
</svg>
