<svg width="98" height="125" viewBox="0 0 98 125" fill="none" xmlns="http://www.w3.org/2000/svg">
<g clip-path="url(#clip0_207_304)">
<path d="M72.89 49.74V104.56C72.89 104.56 73.26 122.5 60.13 122.5C47 122.5 48.15 105.94 48.15 105.94C48.15 105.94 49.3 122.5 36.17 122.5C23.04 122.5 23.41 104.56 23.41 104.56V49.74" fill="#FFF100"/>
<path d="M72.89 49.74V104.56C72.89 104.56 73.26 122.5 60.13 122.5C47 122.5 48.15 105.94 48.15 105.94C48.15 105.94 49.3 122.5 36.17 122.5C23.04 122.5 23.41 104.56 23.41 104.56V49.74" stroke="black" stroke-width="4" stroke-linecap="round" stroke-linejoin="round"/>
<path d="M32.84 43.11C27.44 36.02 17.7 32.56 9.03998 34.65C7.23998 35.09 5.19998 36.07 4.94998 37.91C4.83998 38.75 5.13998 39.59 5.58998 40.31C6.90998 42.39 9.58998 43.51 12 42.98C10.05 41.65 7.48998 41.25 5.21998 41.93C4.13998 42.25 3.09998 42.83 2.45998 43.76C1.19998 45.6 1.91998 48.21 3.31998 49.94C6.49998 53.88 12.11 54.68 17.16 54.88C20.79 55.03 26.28 54.54 29.91 54.37" fill="white"/>
<path d="M34.1699 41.78C30.2399 36.71 24.2099 33.36 17.8799 32.46C14.7299 32.01 11.4799 32.08 8.3899 32.88C5.2999 33.68 2.1299 36.22 3.3299 39.85C4.5299 43.48 8.7799 45.48 12.5099 44.78C14.1899 44.47 14.2099 42.16 12.9599 41.35C10.0099 39.45 5.7999 39.04 2.7499 40.99C-0.450101 43.03 -0.680101 47.04 1.1899 50.11C4.6799 55.83 12.4599 56.76 18.5499 56.78C22.3499 56.79 26.1499 56.43 29.9499 56.24C32.3499 56.12 32.3699 52.37 29.9499 52.49C23.4699 52.81 16.5999 53.86 10.2499 52.05C7.5899 51.29 4.1199 49.49 3.7399 46.39C3.5399 44.8 4.7199 43.97 6.1299 43.63C7.8599 43.21 9.6099 43.65 11.0799 44.6L11.5299 41.17C10.2099 41.41 8.8099 40.96 7.8399 40.06C6.9599 39.24 6.3899 38.09 7.5199 37.28C8.6499 36.47 10.2499 36.25 11.5799 36.08C13.0799 35.89 14.6199 35.88 16.1299 36.01C22.1799 36.52 27.8299 39.66 31.5299 44.44C32.1599 45.25 33.5199 45.08 34.1799 44.44C34.9799 43.66 34.7999 42.58 34.1799 41.79L34.1699 41.78Z" fill="black"/>
<path d="M64.5098 42.71C70.1698 35.77 80.0698 32.62 88.6998 35.01C90.4998 35.51 92.5098 36.56 92.6998 38.42C92.7898 39.26 92.4498 40.1 91.9698 40.8C90.5698 42.85 87.8398 43.88 85.4398 43.27C87.4498 42 90.0298 41.69 92.2798 42.44C93.3498 42.8 94.3798 43.42 94.9898 44.37C96.1998 46.26 95.3798 48.86 93.9098 50.55C90.5898 54.4 84.9198 55.01 79.8298 55.05C76.1798 55.07 70.0098 54.98 66.3698 54.68" fill="white"/>
<path d="M65.8398 44.03C69.7398 39.34 75.5198 36.42 81.6198 36.12C84.2398 35.99 87.8498 36.06 90.0798 37.63C91.2998 38.49 90.7098 39.68 89.7098 40.53C88.7098 41.38 87.2598 41.75 85.9398 41.46L86.3898 44.89C87.9098 43.98 89.6798 43.65 91.4098 44.13C93.0298 44.58 94.0498 45.68 93.5598 47.4C92.6698 50.55 89.0398 52.02 86.1498 52.63C82.9998 53.29 79.7298 53.2 76.5298 53.16C73.1498 53.13 69.7498 53.07 66.3798 52.8C63.9698 52.61 63.9898 56.36 66.3798 56.55C69.6298 56.8 72.8998 56.87 76.1598 56.9C79.4198 56.93 82.6598 56.96 85.8798 56.47C89.0998 55.98 92.3898 54.76 94.7598 52.4C97.2498 49.91 98.6098 45.69 96.1098 42.73C93.3198 39.43 87.9498 39.58 84.4998 41.64C83.1698 42.43 83.3298 44.71 84.9498 45.07C88.2198 45.79 91.7098 44.57 93.5998 41.74C94.6198 40.21 94.9398 38.23 94.0698 36.55C93.3298 35.13 91.9298 34.23 90.4898 33.63C84.6298 31.22 77.4298 32.22 71.8198 34.78C68.5098 36.29 65.5198 38.56 63.1998 41.36C61.6698 43.2 64.3098 45.87 65.8498 44.01L65.8398 44.03Z" fill="black"/>
<path d="M70.8899 74.94C75.4699 73.13 79.8499 70.79 83.8999 67.98C86.7199 66.02 89.4699 63.73 91.0099 60.66C92.5499 57.59 92.6099 53.56 90.3699 50.95C88.2599 48.5 84.6199 47.86 81.4599 48.52C78.2999 49.18 75.4899 50.93 72.7499 52.65C69.0599 54.97 65.3599 57.29 61.6699 59.61" fill="#FFF100"/>
<path d="M70.8899 74.94C75.4699 73.13 79.8499 70.79 83.8999 67.98C86.7199 66.02 89.4699 63.73 91.0099 60.66C92.5499 57.59 92.6099 53.56 90.3699 50.95C88.2599 48.5 84.6199 47.86 81.4599 48.52C78.2999 49.18 75.4899 50.93 72.7499 52.65C69.0599 54.97 65.3599 57.29 61.6699 59.61" stroke="black" stroke-width="4" stroke-linecap="round" stroke-linejoin="round"/>
<path d="M24.7798 75.39C20.3398 73.26 16.1498 70.6 12.3198 67.5C9.64982 65.34 7.07982 62.86 5.75982 59.68C4.43982 56.5 4.67982 52.48 7.10982 50.04C9.38982 47.75 13.0698 47.37 16.1698 48.26C19.2698 49.15 21.9498 51.1 24.5498 53.01C28.0698 55.59 31.5798 58.18 35.0998 60.76" fill="#FFF100"/>
<path d="M24.7798 75.39C20.3398 73.26 16.1498 70.6 12.3198 67.5C9.64982 65.34 7.07982 62.86 5.75982 59.68C4.43982 56.5 4.67982 52.48 7.10982 50.04C9.38982 47.75 13.0698 47.37 16.1698 48.26C19.2698 49.15 21.9498 51.1 24.5498 53.01C28.0698 55.59 31.5798 58.18 35.0998 60.76" stroke="black" stroke-width="4" stroke-linecap="round" stroke-linejoin="round"/>
<path d="M40.8599 68.09C37.5199 74.17 34.9299 83.15 36.4899 89.91C36.8599 91.51 37.3899 93.13 38.4499 94.39C39.5099 95.65 41.1799 96.5 42.7999 96.19C44.1699 95.93 45.2699 94.9 46.0799 93.77C47.5499 91.72 47.9699 89.55 48.2099 87.1C48.2799 88.63 48.5499 90.16 49.1699 91.56C50.1399 93.76 52.0399 95.67 54.5999 95.57C62.2699 95.26 61.2499 84.7 60.3099 79.81C59.6999 76.65 57.8599 69.89 56.2599 67.22" fill="white"/>
<path d="M39.2399 67.14C35.4199 74.16 32.6899 83.25 34.8799 91.2C35.9599 95.14 39.4199 99.44 44.0099 97.77C48.2999 96.21 49.6699 91.13 50.0799 87.08H46.3299C46.5799 91.17 48.3399 96.23 52.8699 97.24C56.0399 97.95 59.3199 96.53 61.0399 93.81C63.9699 89.2 62.8899 82.49 61.7099 77.48C60.8199 73.71 59.8199 69.61 57.8599 66.23C56.6499 64.14 53.4099 66.03 54.6199 68.12C55.9999 70.51 56.7299 73.33 57.4499 75.97C58.0399 78.12 58.5999 80.47 58.8399 82.57C59.2199 85.87 59.6999 92.09 55.9199 93.41C51.9499 94.79 50.2499 90.18 50.0599 87.07C49.9099 84.63 46.5499 84.69 46.3099 87.07C46.1599 88.61 45.8999 90.2 45.1799 91.58C44.5899 92.71 43.5799 94.29 42.1499 94.35C39.0399 94.49 38.1399 89.6 37.9499 87.35C37.4199 81.05 39.4799 74.5 42.4599 69.02C43.6099 66.9 40.3799 65 39.2199 67.13L39.2399 67.14Z" fill="black"/>
<path d="M39.76 28.76C36.43 22.68 34.01 14.86 35.57 8.11C35.94 6.52 36.46 4.9 37.52 3.63C40.11 0.530002 43.76 1.94 45.78 4.85C46.78 6.29 47.16 8.09 48.29 9.46C49.34 8.4 49.85 6.19 50.68 4.82C52.7 1.48 57.33 0.720001 59.47 4.37C61.88 8.49 60.1 13.89 59.27 18.21C58.66 21.37 57.25 26.51 55.67 29.19" fill="white"/>
<path d="M41.38 27.81C38.4 22.31 36.02 15.53 37.25 9.2C37.65 7.13 38.75 3.02 41.67 3.87C44.59 4.72 45.04 8.27 46.67 10.41C47.35 11.3 48.72 11.78 49.61 10.79C51.43 8.75 51.56 5.02 54.42 4.02C57.5 2.94 58.75 6.65 58.81 9.03C58.9 12.4 57.91 15.85 57.17 19.11C56.47 22.21 55.64 25.48 54.05 28.24C52.84 30.34 56.08 32.23 57.29 30.13C58.82 27.47 59.72 24.42 60.46 21.47C61.24 18.37 61.96 15.18 62.37 12.01C62.78 8.84 62.57 5 60.32 2.34C58.49 0.180003 55.48 -0.469997 52.88 0.590003C51.38 1.2 50.14 2.24 49.23 3.59C48.32 4.94 48.07 6.87 46.96 8.12L49.9 8.5C48.65 6.87 48.17 4.83 46.88 3.21C45.83 1.88 44.43 0.800003 42.81 0.280003C38.69 -1.03 35.51 2.18 34.25 5.81C31.51 13.7 34.33 22.66 38.13 29.69C39.28 31.81 42.52 29.92 41.37 27.8L41.38 27.81Z" fill="black"/>
<path d="M30.1397 57.67C27.2797 56.47 19.3497 59.29 16.5697 60.66C13.7897 62.03 11.5297 64.29 9.6997 66.79C8.7697 68.06 7.9097 69.45 7.7297 71.01C7.5497 72.57 8.2097 74.32 9.6397 74.98C10.6097 75.43 11.7397 75.31 12.7897 75.09C15.2297 74.58 17.5597 73.56 19.5897 72.12C20.1497 71.72 20.6797 70.82 20.0797 70.48C18.1497 72.09 16.6097 74.15 15.6097 76.45C15.2697 77.24 14.9797 78.08 14.9697 78.94C14.9397 81.85 18.1797 83.96 21.0797 83.71C23.9797 83.46 26.4497 81.52 28.4797 79.44C30.5097 77.36 38.0897 70.19 40.5897 68.69" fill="white"/>
<path d="M30.6398 55.86C28.0098 54.86 24.6098 55.86 22.0398 56.61C19.1298 57.46 16.0398 58.5 13.5498 60.27C11.8698 61.46 10.3998 62.88 9.10979 64.49C7.81979 66.1 6.42979 67.96 5.98979 70.08C5.59979 71.95 5.97979 74.04 7.27979 75.5C8.73979 77.12 10.8498 77.33 12.8898 76.97C15.1998 76.56 17.4898 75.64 19.4998 74.42C21.2398 73.36 23.4798 71.1 21.4098 69.15C20.6298 68.41 19.5498 68.47 18.7598 69.15C16.0598 71.46 12.8898 75.48 13.1098 79.26C13.3198 82.81 16.5998 85.25 19.9498 85.56C23.8698 85.92 27.2598 83.31 29.8698 80.7C31.5798 78.99 33.3398 77.33 35.1198 75.69C37.1598 73.81 39.2498 71.71 41.5498 70.29C43.5998 69.03 41.7198 65.78 39.6598 67.05C37.2998 68.51 35.2198 70.54 33.1698 72.39C31.1198 74.24 29.1798 76.06 27.2698 77.99C25.0198 80.26 21.2498 83.41 18.0198 80.97C16.4598 79.8 16.7998 78.23 17.5798 76.66C18.5198 74.76 19.8198 73.16 21.4298 71.79H18.7798C18.9198 70.67 18.7798 70.31 18.3198 70.72C18.0898 70.88 17.8598 71.02 17.6198 71.17C17.2698 71.39 16.8998 71.59 16.5398 71.78C15.6998 72.22 14.8298 72.57 13.9198 72.85C12.7198 73.22 10.4698 74.07 9.78979 72.5C9.06979 70.84 10.4098 68.98 11.3398 67.71C12.3898 66.28 13.6198 64.94 15.0098 63.84C17.1598 62.14 19.8398 61.2 22.4298 60.4C24.5498 59.74 27.6298 58.69 29.6598 59.46C31.9198 60.32 32.8898 56.7 30.6598 55.84L30.6398 55.86Z" fill="black"/>
<path d="M58.4899 30.43C58.0599 27.36 62.9199 19.26 64.9499 16.92C66.9799 14.58 69.7599 12.99 72.6399 11.86C74.0999 11.29 75.6699 10.82 77.2299 11.05C78.7899 11.28 80.3099 12.37 80.5799 13.92C80.7599 14.97 80.3599 16.04 79.8799 16.99C78.7599 19.21 77.1699 21.2 75.2499 22.8C74.7199 23.24 73.7099 23.51 73.5299 22.85C75.5799 21.4 77.9699 20.44 80.4499 20.07C81.2999 19.94 82.1899 19.88 83.0199 20.1C85.8399 20.82 87.0499 24.5 86.0499 27.23C85.0499 29.96 82.5499 31.85 80.0099 33.28C77.4699 34.71 70.0999 39.5 67.9999 41.52" fill="white"/>
<path d="M60.3699 30.43C60.1399 28.25 61.8299 25.38 62.9599 23.36C64.3199 20.9 65.6699 18.61 67.7099 16.83C69.1799 15.54 70.9699 14.57 72.7699 13.83C74.2599 13.21 76.3399 12.34 77.8799 13.24C79.6099 14.24 78.1899 16.3 77.4299 17.5C76.9199 18.31 76.3599 19.06 75.7099 19.76C75.3399 20.17 74.9399 20.56 74.5299 20.93C74.3799 21.07 74.2199 21.21 74.0599 21.34C73.6499 21.58 73.9999 21.77 75.1299 21.91L74.4599 24.48C76.1899 23.29 78.0499 22.46 80.1099 22.04C81.5799 21.74 83.0499 21.64 83.9299 23.04C85.8499 26.08 82.9199 29.2 80.5199 30.78C75.8799 33.83 70.7199 36.36 66.6599 40.21C64.8999 41.87 67.5599 44.52 69.3099 42.86C71.0599 41.2 73.1799 39.87 75.1799 38.53C77.2799 37.13 79.4299 35.82 81.5999 34.52C84.4699 32.8 87.4099 30.27 88.0899 26.83C88.6699 23.87 87.5899 20.31 84.8099 18.82C81.0799 16.82 75.7399 19.07 72.5699 21.25C71.6999 21.85 71.4099 22.85 71.8999 23.82C72.9699 25.95 75.4799 25.08 76.8799 23.88C78.5099 22.47 79.9099 20.74 80.9899 18.88C82.0699 17.02 82.9599 14.91 82.1899 12.82C81.4999 10.94 79.6699 9.61 77.7199 9.27C75.4399 8.88 73.2399 9.6 71.1599 10.48C69.0799 11.36 67.3399 12.35 65.6599 13.69C63.1999 15.66 61.4699 18.36 59.9299 21.08C58.9999 22.72 58.1599 24.41 57.4799 26.16C56.9599 27.49 56.4499 29.02 56.5999 30.46C56.7099 31.47 57.3899 32.34 58.4799 32.34C59.4099 32.34 60.4599 31.48 60.3599 30.46L60.3699 30.43Z" fill="black"/>
<path d="M65.96 57.67C68.82 56.47 76.53 59.29 79.31 60.66C82.09 62.02 84.35 64.29 86.18 66.79C87.11 68.06 87.97 69.45 88.15 71.01C88.33 72.57 87.67 74.32 86.24 74.98C85.27 75.43 84.14 75.31 83.09 75.09C80.65 74.58 78.32 73.56 76.29 72.12C75.73 71.72 75.2 70.82 75.8 70.48C77.73 72.09 79.27 74.15 80.27 76.45C80.61 77.24 80.9 78.08 80.91 78.94C80.94 81.85 77.7 83.96 74.8 83.71C71.9 83.46 69.43 81.52 67.4 79.44C65.36 77.36 59.49 70.19 57 68.69" fill="white"/>
<path d="M66.46 59.47C68.52 58.69 71.61 59.79 73.73 60.47C76.28 61.29 78.9 62.25 81.01 63.95C82.4 65.08 83.64 66.44 84.68 67.9C85.57 69.15 86.79 70.9 86.11 72.51C85.43 74.12 83.18 73.23 81.98 72.86C81.07 72.58 80.2 72.23 79.36 71.79C78.99 71.6 78.63 71.39 78.28 71.18C78.04 71.04 77.81 70.89 77.58 70.73C77.13 70.32 76.98 70.67 77.12 71.8H74.47C75.97 73.09 77.21 74.57 78.14 76.32C78.91 77.77 79.55 79.36 78.24 80.66C75.52 83.37 71.63 80.88 69.44 78.8C67.46 76.92 65.75 74.77 63.92 72.75C62.09 70.73 60.25 68.5 57.95 67.06C55.9 65.78 54.01 69.02 56.06 70.3C56.74 70.72 57.55 71.5 58.27 72.23C59.26 73.22 60.22 74.25 61.16 75.29C62.81 77.11 64.37 79.01 66.08 80.76C68.55 83.3 71.89 85.78 75.62 85.59C78.75 85.43 82.09 83.33 82.68 80.07C83.41 76.02 80.01 71.62 77.13 69.15C76.34 68.48 75.26 68.41 74.48 69.15C72.76 70.78 74.13 72.9 75.7 73.97C77.42 75.15 79.4 76.03 81.4 76.6C83.4 77.17 85.65 77.55 87.5 76.44C89.1 75.48 89.94 73.66 90.06 71.85C90.2 69.72 89.16 67.69 87.95 66.01C86.74 64.33 85.42 62.76 83.84 61.44C81.35 59.34 78.43 58.1 75.36 57.07C72.48 56.1 68.49 54.72 65.48 55.87C63.25 56.72 64.22 60.35 66.48 59.49L66.46 59.47Z" fill="black"/>
<path d="M38.47 30.59C39.03 27.54 34.48 19.94 32.56 17.51C30.64 15.08 27.94 13.37 25.1 12.11C23.66 11.47 22.12 10.94 20.55 11.09C18.98 11.24 17.42 12.27 17.08 13.81C16.85 14.85 17.21 15.93 17.65 16.91C18.67 19.18 20.17 21.24 22.01 22.92C22.52 23.38 23.51 23.7 23.72 23.05C21.74 21.51 19.39 20.45 16.93 19.96C16.08 19.79 15.21 19.69 14.36 19.87C11.51 20.46 10.14 24.08 11.01 26.86C11.88 29.64 14.3 31.63 16.77 33.17C19.24 34.71 26.59 39.32 28.59 41.44" fill="white"/>
<path d="M40.2699 31.09C40.7099 28.13 39.2299 25.15 37.9099 22.59C36.5899 20.03 34.9999 17.26 32.9399 15.13C31.4799 13.62 29.7099 12.37 27.8599 11.38C26.0099 10.39 23.8199 9.38 21.6099 9.22C19.6599 9.07 17.5999 9.78 16.3099 11.31C14.7899 13.11 14.9699 15.38 15.8399 17.44C16.7699 19.64 18.1299 21.66 19.7899 23.38C21.1999 24.85 23.9399 26.48 25.3399 24C25.8799 23.04 25.4899 22.05 24.6699 21.43C21.8399 19.3 17.4899 17.26 13.8599 18.06C10.7399 18.75 8.92994 21.97 8.87994 24.99C8.76994 31.47 15.7999 34.69 20.4299 37.72C22.7599 39.25 25.3199 40.75 27.2699 42.76C28.9499 44.49 31.5999 41.84 29.9199 40.11C26.0599 36.13 20.7099 33.83 16.2899 30.59C13.9899 28.9 11.3299 25.74 13.2699 22.81C14.2299 21.36 15.7399 21.57 17.2499 21.95C19.2799 22.46 21.1099 23.41 22.7799 24.67L22.1099 22.1C23.4599 21.84 23.8699 21.67 23.3399 21.59C23.1299 21.4 22.9299 21.21 22.7399 21.02C22.4499 20.73 22.1599 20.42 21.8899 20.11C21.2599 19.4 20.7199 18.62 20.2299 17.8C19.5399 16.64 18.0399 14.4 19.5899 13.36C21.1399 12.32 23.1099 13.24 24.5299 13.89C26.2699 14.68 27.9899 15.66 29.4299 16.94C30.6199 17.99 31.2099 18.74 32.0199 19.94C32.8299 21.14 33.4999 22.27 34.1599 23.47C34.8199 24.67 35.4799 25.96 35.9699 27.28C36.1899 27.87 36.3899 28.48 36.5299 29.09C36.5499 29.2 36.6399 29.73 36.6299 29.61C36.6299 29.69 36.6099 30.45 36.6699 30.07C36.5199 31.08 36.9199 32.07 37.9799 32.38C38.8599 32.63 40.1399 32.07 40.2899 31.07L40.2699 31.09Z" fill="black"/>
<path d="M31.36 36.5C31.36 36.5 27.64 41.64 27.78 48.27C27.91 54.68 30.23 61.21 35.48 64.88C42.09 69.49 51.38 69.96 58.36 65.92C65.34 61.88 69.59 53.53 68.61 45.53C67.63 37.53 61.42 30.4 53.61 28.44C45.53 26.41 36.55 29.97 31.36 36.49" fill="#FFF100"/>
<path d="M29.7399 35.56C25.0699 42.09 24.9099 51.2 28.0099 58.39C32.0099 67.66 42.4299 71.81 52.0499 70.17C61.6699 68.53 68.9899 60.57 70.3599 51.13C71.7299 41.69 66.8299 32.57 58.5199 28.32C48.8299 23.37 36.7099 26.9 30.0299 35.17C29.3899 35.96 29.2699 37.04 30.0299 37.82C30.6799 38.49 32.0499 38.61 32.6799 37.82C37.7099 31.6 46.2699 28.07 54.1299 30.54C61.4099 32.83 66.8199 40.09 66.8699 47.72C66.9199 55.35 61.6299 63.35 54.0199 65.82C46.4099 68.29 36.6699 66.02 32.4099 58.8C28.6499 52.42 28.6099 43.55 32.9799 37.45C34.3899 35.48 31.1399 33.61 29.7399 35.56Z" fill="black"/>
<path d="M54.49 46.63L54.83 46.8C55.12 46.98 55.43 47.08 55.76 47.1C56.09 47.17 56.42 47.16 56.76 47.06C57.09 46.98 57.37 46.83 57.61 46.61C57.88 46.43 58.1 46.2 58.25 45.91L58.5 45.31C58.62 44.87 58.62 44.42 58.5 43.98L58.25 43.38C58.03 43 57.73 42.71 57.35 42.48L57.01 42.31C56.72 42.13 56.41 42.03 56.08 42.01C55.75 41.94 55.42 41.95 55.08 42.05C54.75 42.13 54.47 42.28 54.23 42.5C53.96 42.68 53.74 42.91 53.59 43.2L53.34 43.8C53.22 44.24 53.22 44.69 53.34 45.13L53.59 45.73C53.81 46.11 54.11 46.4 54.49 46.63Z" fill="black"/>
<path d="M42.0299 42.48L41.6899 42.31C41.3999 42.13 41.0899 42.03 40.7599 42.01C40.4299 41.94 40.0999 41.95 39.7599 42.05C39.4299 42.13 39.1499 42.28 38.9099 42.5C38.6399 42.68 38.4199 42.91 38.2699 43.2L38.0199 43.8C37.8999 44.24 37.8999 44.69 38.0199 45.13L38.2699 45.73C38.4899 46.11 38.7899 46.4 39.1699 46.63L39.5099 46.8C39.7999 46.98 40.1099 47.08 40.4399 47.1C40.7699 47.17 41.0999 47.16 41.4399 47.06C41.7699 46.98 42.0499 46.83 42.2899 46.61C42.5599 46.43 42.7799 46.2 42.9299 45.91L43.1799 45.31C43.2999 44.87 43.2999 44.42 43.1799 43.98L42.9299 43.38C42.7099 43 42.4099 42.71 42.0299 42.48Z" fill="black"/>
<path d="M43.5898 52.36H52.6998C52.9798 52.36 53.2098 52.6 53.2298 52.91C53.3298 54.47 52.3598 58.85 48.2798 58.85C44.1998 58.85 43.0298 54.53 43.0498 52.94C43.0498 52.62 43.2898 52.36 43.5798 52.36H43.5898Z" stroke="black" stroke-width="2.5" stroke-linecap="round" stroke-linejoin="round"/>
</g>
<defs>
<clipPath id="clip0_207_304">
<rect width="97.44" height="124.51" fill="white"/>
</clipPath>
</defs>
</svg>
