<svg width="72" height="72" viewBox="0 0 72 72" fill="none" xmlns="http://www.w3.org/2000/svg">
<path d="M15.4168 30.1191H56.5835V36H62.4645V18.3572C62.4645 15.1226 59.818 12.4762 56.5835 12.4762H53.643V6.59525H47.7621V12.4762H24.2383V6.59525H18.3573V12.4762H15.4168C12.1529 12.4762 9.56529 15.1226 9.56529 18.3572L9.53589 59.5238C9.53589 61.0835 10.1555 62.5794 11.2584 63.6823C12.3613 64.7852 13.8571 65.4048 15.4168 65.4048H36.0002V59.5238H15.4168V30.1191ZM15.4168 18.3572H56.5835V24.2381H15.4168V18.3572ZM67.8749 48.5852L65.7872 50.673L59.5534 44.4392L61.6411 42.3514C61.9132 42.0788 62.2363 41.8626 62.592 41.715C62.9477 41.5675 63.3291 41.4915 63.7142 41.4915C64.0993 41.4915 64.4806 41.5675 64.8363 41.715C65.192 41.8626 65.5152 42.0788 65.7872 42.3514L67.8749 44.4392C69.0217 45.586 69.0217 47.4385 67.8749 48.5852ZM57.4656 46.5269L63.6995 52.7607L48.1149 68.3452H41.8811V62.1114L57.4656 46.5269Z" fill="#5B5B5B"/>
</svg>
