<svg width="89" height="74" viewBox="0 0 89 74" fill="none" xmlns="http://www.w3.org/2000/svg">
<g filter="url(#filter0_d_73_77)">
<path d="M43.7914 15.1049C43.7914 23.9846 36.9749 47.2613 20.0965 47.2613C11.9175 47.2613 7 41.4318 7 32.552C7 23.6723 16.8489 15.1049 19.8437 18.0782C28.0227 18.0782 43.7914 6.22513 43.7914 15.1049Z" fill="#C5D9E0"/>
<path d="M64.6228 42.4747C68.6716 42.4747 67.2335 62 49.4623 62C31.6912 62 26.2696 49.8716 26.2696 44.3209C26.2696 38.7702 33.9766 15.1049 43.7914 15.1049C53.6061 15.1049 60.574 42.4747 64.6228 42.4747Z" fill="#C5D9E0"/>
<path d="M82 34.5141C82 42.5059 76.0327 48.9845 68.6716 48.9845C61.3106 48.9845 55.3433 42.5059 55.3433 34.5141C55.3433 26.5223 61.3106 20.0437 68.6716 20.0437C76.0327 20.0437 82 26.5223 82 34.5141Z" fill="#C5D9E0"/>
<path d="M74.3486 18.8438C74.3486 27.7235 67.7183 34.922 59.5393 34.922C51.3604 34.922 44.73 27.7235 44.73 18.8438C44.73 9.96401 51.3604 2.76556 59.5393 2.76556C67.7183 2.76556 74.3486 9.96401 74.3486 18.8438Z" fill="#C5D9E0"/>
<path d="M49.4623 18.0782C49.4623 26.9579 42.832 34.1564 34.653 34.1564C26.4741 34.1564 19.8437 26.9579 19.8437 18.0782C19.8437 9.19845 26.4741 2 34.653 2C42.832 2 49.4623 9.19845 49.4623 18.0782Z" fill="#C5D9E0"/>
<path d="M20.0965 48.2613C22.0932 48.2613 23.9522 47.9542 25.6787 47.399C27.2817 53.859 33.8322 63 49.4623 63C58.8025 63 63.9357 57.8272 66.1454 52.6285C66.536 51.7094 66.8371 50.7863 67.0547 49.8877C67.5849 49.9516 68.1244 49.9845 68.6716 49.9845C76.6608 49.9845 83 42.9792 83 34.5141C83 28.5713 79.8756 23.3479 75.2495 20.7628C75.315 20.1323 75.3486 19.4919 75.3486 18.8438C75.3486 9.49072 68.3464 1.76556 59.5393 1.76556C54.6184 1.76556 50.2609 4.17735 47.3736 7.9373C44.5069 3.74229 39.9003 1 34.653 1C26.3368 1 19.6298 7.88814 18.9081 16.5308C18.0344 16.3805 17.0843 16.5644 16.2104 16.9049C14.6942 17.4956 13.0679 18.6642 11.5863 20.1685C8.63251 23.1677 6 27.7675 6 32.552C6 37.1697 7.27945 41.1027 9.72932 43.8959C12.1928 46.7047 15.7539 48.2613 20.0965 48.2613Z" stroke="#9FC1CB" stroke-width="2" stroke-linejoin="round"/>
</g>
<path d="M39.8596 42.5V39.74H43.9996V25.58H39.8596V22.82H51.5596V25.58H47.4196V39.74H51.5596V42.5H39.8596Z" fill="white"/>
<defs>
<filter id="filter0_d_73_77" x="0" y="0" width="89" height="74" filterUnits="userSpaceOnUse" color-interpolation-filters="sRGB">
<feFlood flood-opacity="0" result="BackgroundImageFix"/>
<feColorMatrix in="SourceAlpha" type="matrix" values="0 0 0 0 0 0 0 0 0 0 0 0 0 0 0 0 0 0 127 0" result="hardAlpha"/>
<feOffset dy="5"/>
<feGaussianBlur stdDeviation="2.5"/>
<feComposite in2="hardAlpha" operator="out"/>
<feColorMatrix type="matrix" values="0 0 0 0 0 0 0 0 0 0 0 0 0 0 0 0 0 0 0.25 0"/>
<feBlend mode="normal" in2="BackgroundImageFix" result="effect1_dropShadow_73_77"/>
<feBlend mode="normal" in="SourceGraphic" in2="effect1_dropShadow_73_77" result="shape"/>
</filter>
</defs>
</svg>
