<svg width="33" height="292" viewBox="0 0 33 292" fill="none" xmlns="http://www.w3.org/2000/svg">
<g clip-path="url(#clip0_46_140)">
<path d="M11.5379 11.0982H14.1144C14.2098 11.0982 14.2965 11.1685 14.3226 11.2653L22.373 42.713C22.4077 42.8537 22.3036 42.9857 22.1648 42.9857H11.5292H11.3383H0.711356C0.572555 42.9857 0.468454 42.8537 0.503155 42.713L8.55363 11.2653C8.57965 11.1685 8.6664 11.0982 8.76183 11.0982H11.3383" fill="white"/>
<path d="M11.5379 11.0982H14.1144C14.2098 11.0982 14.2965 11.1685 14.3226 11.2653L22.373 42.713C22.4077 42.8537 22.3036 42.9857 22.1648 42.9857H11.5292H11.3383H0.711356C0.572555 42.9857 0.468454 42.8537 0.503155 42.713L8.55363 11.2653C8.57965 11.1685 8.6664 11.0982 8.76183 11.0982H11.3383" stroke="#5B5B5B" stroke-miterlimit="10" stroke-linecap="round"/>
<path d="M11.4945 0.439705V11.0982" stroke="#5B5B5B" stroke-miterlimit="10" stroke-linecap="round"/>
<path d="M11.347 11.0982H8.7705C8.67508 11.0982 8.58833 11.1685 8.5623 11.2653L0.503155 42.7042C0.468454 42.845 0.572555 42.9769 0.711356 42.9769H11.347" stroke="#5B5B5B" stroke-miterlimit="10" stroke-linecap="round"/>
<path d="M22.4511 42.9769V257.369C22.4511 259.365 20.8549 260.983 18.8856 260.983H11.5379H11.347H3.99921C2.02997 260.983 0.433754 259.365 0.433754 257.369V42.9769" fill="white"/>
<path d="M22.4511 42.9769V257.369C22.4511 259.365 20.8549 260.983 18.8856 260.983H11.5379H11.347H3.99921C2.02997 260.983 0.433754 259.365 0.433754 257.369V42.9769" stroke="#5B5B5B" stroke-miterlimit="10" stroke-linecap="round"/>
<path d="M16.2918 260.983V267.271H6.58438V260.983" fill="white"/>
<path d="M16.2918 260.983V267.271H6.58438V260.983" stroke="#5B5B5B" stroke-miterlimit="10" stroke-linecap="round"/>
<path d="M11.6333 267.271H18.6688C20.8115 267.271 22.5379 269.03 22.5379 271.193V287.638C22.5379 289.81 20.8028 291.56 18.6688 291.56H11.6333H11.4424H4.40694C2.2642 291.56 0.537855 289.801 0.537855 287.638V271.193C0.537855 269.021 2.27287 267.271 4.40694 267.271H11.4424" fill="white"/>
<path d="M11.6333 267.271H18.6688C20.8115 267.271 22.5379 269.03 22.5379 271.193V287.638C22.5379 289.81 20.8028 291.56 18.6688 291.56H11.6333H11.4424H4.40694C2.2642 291.56 0.537855 289.801 0.537855 287.638V271.193C0.537855 269.021 2.27287 267.271 4.40694 267.271H11.4424" stroke="#5B5B5B" stroke-miterlimit="10" stroke-linecap="round"/>
<path d="M22.4511 234.689H28.7666V145.894C28.7666 145.05 29.4345 144.373 30.2673 144.373C31.5079 144.373 32.5142 145.393 32.5142 146.651L32.5662 237.644C32.5662 238.963 31.5166 240.027 30.2153 240.027H22.5032L22.4511 234.689Z" fill="white" stroke="#5B5B5B" stroke-miterlimit="10" stroke-linecap="round"/>
</g>
<defs>
<clipPath id="clip0_46_140">
<rect width="33" height="292" fill="white"/>
</clipPath>
</defs>
</svg>
