<svg width="96" height="92" viewBox="0 0 96 92" fill="none" xmlns="http://www.w3.org/2000/svg">
<g clip-path="url(#clip0_171_451)">
<path d="M53.3952 17.9763C53.2525 9.92161 51.6682 2.26414 49.674 0.428113C48.9832 -0.207435 48.6931 0.838571 47.9931 0.860639C47.3345 0.882706 47.0075 -0.172127 46.3858 0.401632C44.5482 2.10084 42.2593 10.1908 42.2823 18.3426C42.31 29.2308 45.2897 37.8372 47.9931 37.8372C50.7793 37.8372 53.5887 28.7939 53.3952 17.9763Z" fill="#FFFFFD" stroke="#5B5B5B" stroke-miterlimit="10" stroke-linecap="round"/>
<path d="M67.2944 24.3141C71.3748 17.2701 73.9953 9.87748 73.2308 7.33528C72.9637 6.45699 72.1669 7.22053 71.5498 6.90717C70.9695 6.60705 71.2366 5.54339 70.3984 5.742C67.9207 6.33341 61.7172 12.2431 57.4848 19.3136C51.8294 28.7541 49.9227 37.6386 52.2623 38.9317C54.6755 40.2646 61.8231 33.7811 67.3036 24.3185L67.2944 24.3141Z" fill="#FFFFFD" stroke="#5B5B5B" stroke-miterlimit="10" stroke-linecap="round"/>
<path d="M76.0217 36.469C83.2292 32.3247 89.359 27.1785 90.0222 24.6054C90.2524 23.7139 89.161 23.9964 88.7879 23.427C88.4379 22.8886 89.2254 22.0941 88.3965 21.8646C85.9418 21.1893 77.4862 23.3343 70.1314 27.4301C60.308 32.8984 54.0216 39.6732 55.371 41.9153C56.7618 44.228 66.3411 42.0344 76.0171 36.469H76.0217Z" fill="#FFFFFD" stroke="#5B5B5B" stroke-miterlimit="10" stroke-linecap="round"/>
<path d="M77.2421 51.1704C85.647 51.0336 93.6374 49.5154 95.5532 47.6043C96.2164 46.9423 95.1249 46.6642 95.1019 45.9934C95.0789 45.3622 96.1796 45.0489 95.5809 44.4531C93.8078 42.6921 85.3661 40.4985 76.8598 40.5206C65.4983 40.5471 56.5177 43.4026 56.5177 45.9934C56.5177 48.6636 65.9542 51.3558 77.2421 51.1704Z" fill="#FFFFFD" stroke="#5B5B5B" stroke-miterlimit="10" stroke-linecap="round"/>
<path d="M70.6242 64.4905C77.9744 68.4009 85.6885 70.9122 88.3412 70.1795C89.2577 69.9235 88.4609 69.16 88.7879 68.5686C89.1011 68.0125 90.211 68.2685 90.0038 67.4652C89.3866 65.0907 83.22 59.1457 75.8421 55.0897C65.9911 49.6698 56.7204 47.8426 55.371 50.0847C54.0216 52.3268 60.7455 59.2472 70.6195 64.4993L70.6242 64.4905Z" fill="#FFFFFD" stroke="#5B5B5B" stroke-miterlimit="10" stroke-linecap="round"/>
<path d="M57.9454 72.8541C62.2699 79.7613 67.6398 85.6357 70.3248 86.2712C71.2551 86.4919 70.9603 85.4459 71.5544 85.0884C72.1163 84.753 72.9453 85.5077 73.1847 84.7133C73.8894 82.3609 71.6511 74.2576 67.3773 67.2092C61.6712 57.7952 54.6019 51.7707 52.2623 53.0639C49.8491 54.3967 52.138 63.5769 57.9454 72.8497V72.8541Z" fill="#FFFFFD" stroke="#5B5B5B" stroke-miterlimit="10" stroke-linecap="round"/>
<path d="M42.6001 74.0237C42.7429 82.0784 44.3272 89.7358 46.3213 91.5719C47.0121 92.2074 47.3023 91.1614 48.0023 91.1394C48.6609 91.1173 48.9879 92.1721 49.6096 91.5984C51.4472 89.8991 53.7361 81.8092 53.713 73.6574C53.6854 62.7692 50.7057 54.1628 48.0023 54.1628C45.216 54.1628 42.4067 63.2061 42.6001 74.0237Z" fill="#FFFFFD" stroke="#5B5B5B" stroke-miterlimit="10" stroke-linecap="round"/>
<path d="M28.701 67.6815C24.6206 74.7255 22.0001 82.1181 22.7646 84.6603C23.0317 85.5386 23.8285 84.775 24.4456 85.0884C25.0259 85.3885 24.7588 86.4522 25.5969 86.2536C28.0747 85.6622 34.2782 79.7525 38.5106 72.682C44.166 63.2414 46.0727 54.357 43.7331 53.0639C41.3199 51.731 34.1722 58.2144 28.6918 67.677L28.701 67.6815Z" fill="#FFFFFD" stroke="#5B5B5B" stroke-miterlimit="10" stroke-linecap="round"/>
<path d="M19.9737 55.531C12.7662 59.6753 6.63642 64.8215 5.97324 67.3946C5.74297 68.2861 6.83446 68.0036 7.2075 68.573C7.55751 69.1114 6.76998 69.9059 7.59896 70.1354C10.0536 70.8107 18.5092 68.6657 25.8641 64.5699C35.6874 59.1016 41.9738 52.3268 40.6244 50.0847C39.2336 47.772 29.6543 49.9656 19.9783 55.531H19.9737Z" fill="#FFFFFD" stroke="#5B5B5B" stroke-miterlimit="10" stroke-linecap="round"/>
<path d="M18.7579 40.8251C10.353 40.9619 2.36257 42.4802 0.446713 44.3913C-0.216467 45.0533 0.875017 45.3313 0.898044 46.0022C0.921072 46.6333 -0.179624 46.9467 0.419081 47.5425C2.19217 49.3035 10.6339 51.497 19.1401 51.475C30.5017 51.4485 39.4823 48.5929 39.4823 46.0022C39.4823 43.332 30.0458 40.6398 18.7579 40.8251Z" fill="#FFFFFD" stroke="#5B5B5B" stroke-miterlimit="10" stroke-linecap="round"/>
<path d="M25.3713 27.5051C18.021 23.5947 10.3069 21.0834 7.65422 21.8161C6.73774 22.0721 7.53448 22.8356 7.20749 23.427C6.89432 23.9831 5.78442 23.7271 5.99166 24.5304C6.60879 26.9049 12.7754 32.8499 20.1533 36.9059C30.0043 42.3257 39.275 44.1529 40.6244 41.9109C42.0153 39.5982 35.2499 32.7484 25.3759 27.4963L25.3713 27.5051Z" fill="#FFFFFD" stroke="#5B5B5B" stroke-miterlimit="10" stroke-linecap="round"/>
<path d="M38.0546 19.1415C33.7301 12.2343 28.3602 6.35989 25.6752 5.72434C24.7449 5.50366 25.0397 6.54967 24.4456 6.90716C23.8837 7.24259 23.0548 6.48788 22.8153 7.28231C22.1106 9.63472 24.3489 17.738 28.6227 24.7864C34.3288 34.2004 41.3981 40.2249 43.7377 38.9317C46.1509 37.5988 43.862 28.4187 38.0546 19.1459V19.1415Z" fill="#FFFFFD" stroke="#5B5B5B" stroke-miterlimit="10" stroke-linecap="round"/>
<path d="M47.9977 60.9552C56.6176 60.9552 63.6054 54.2586 63.6054 45.9978C63.6054 37.737 56.6176 31.0403 47.9977 31.0403C39.3777 31.0403 32.3899 37.737 32.3899 45.9978C32.3899 54.2586 39.3777 60.9552 47.9977 60.9552Z" fill="#FFF255" stroke="#5B5B5B" stroke-miterlimit="10" stroke-linecap="round"/>
</g>
<defs>
<clipPath id="clip0_171_451">
<rect width="96" height="92" fill="white"/>
</clipPath>
</defs>
</svg>
