<svg width="56" height="69" viewBox="0 0 56 69" fill="none" xmlns="http://www.w3.org/2000/svg">
<path d="M41.3213 27.284V57.3116C41.3213 57.3116 41.5261 67.1383 34.2564 67.1383C26.9867 67.1383 27.6234 58.0675 27.6234 58.0675C27.6234 58.0675 28.2602 67.1383 20.9905 67.1383C13.7208 67.1383 13.9256 57.3116 13.9256 57.3116V27.284" fill="#FFF100"/>
<path d="M34.2565 68.2338C32.0805 68.2338 30.3033 67.5217 28.9744 66.114C28.4042 65.506 27.9612 64.8158 27.6235 64.0983C27.2857 64.8158 26.8428 65.506 26.2725 66.114C24.9437 67.5217 23.1664 68.2338 20.9905 68.2338C18.8146 68.2338 17.1757 67.5382 15.8192 66.1688C12.7353 63.0521 12.8183 57.5253 12.8183 57.2898V27.284C12.8183 26.6815 13.3166 26.1885 13.9257 26.1885C14.5347 26.1885 15.033 26.6815 15.033 27.284V57.3117C15.033 57.3829 14.9721 62.1866 17.4027 64.6406C18.3384 65.5827 19.5122 66.0428 20.985 66.0428C22.5408 66.0428 23.7367 65.5772 24.6392 64.6241C26.1009 63.0795 26.4386 60.6256 26.5106 59.2178C26.4829 58.5167 26.5106 58.0511 26.5106 57.9909C26.5494 57.4158 27.0311 56.9721 27.6179 56.9721C28.2048 56.9721 28.681 57.4158 28.7253 57.9909C28.7253 58.0511 28.7585 58.5167 28.7253 59.2178C28.7917 60.6201 29.135 63.0795 30.5967 64.6241C31.4992 65.5772 32.6951 66.0428 34.2509 66.0428C35.7237 66.0428 36.8975 65.5827 37.8332 64.6406C40.2638 62.1921 40.2029 57.3829 40.2029 57.3336V27.284C40.2029 26.6815 40.7012 26.1885 41.3102 26.1885C41.9193 26.1885 42.4176 26.6815 42.4176 27.284V57.3117C42.4176 57.5253 42.5006 63.0521 39.4167 66.1688C38.0602 67.5382 36.3216 68.2338 34.2454 68.2338H34.2565Z" fill="#5B5B5B"/>
<path d="M23.5925 37.3297C16.5941 48.9804 25.3034 59.4643 27.6565 47.737C28.7416 56.868 39.6268 52.6065 32.1135 36.8422" fill="white"/>
<path d="M22.6957 36.8149C20.4422 40.6053 19.0968 45.3926 20.337 49.7473C20.7246 51.1002 21.4001 52.4751 22.5739 53.3186C23.5871 54.0471 24.927 54.08 25.9512 53.3569C27.6289 52.1683 28.2656 49.9116 28.6587 48.0164L26.6212 47.7425C26.826 49.3803 27.2801 51.0564 28.4594 52.2833C29.3508 53.22 30.6408 53.702 31.9254 53.4336C35.2363 52.7435 35.9284 48.4327 35.7512 45.6994C35.5408 42.4238 34.4113 39.2798 33.0105 36.3274C32.7725 35.8235 32.0416 35.6975 31.5876 35.9604C31.0672 36.2617 30.9786 36.8587 31.2167 37.3681C32.3129 39.6796 33.2431 42.2157 33.5753 44.708C33.6971 45.6227 33.7359 46.5594 33.6694 47.4851C33.6307 47.9616 33.6362 47.978 33.531 48.4655C33.459 48.8051 33.3704 49.1393 33.2542 49.4624C33.2265 49.5391 33.1988 49.6158 33.1711 49.687C33.077 49.939 33.2652 49.4898 33.1545 49.7308C33.0881 49.8678 33.0272 49.9992 32.9552 50.1307C32.8887 50.2512 32.8112 50.3717 32.7337 50.4922C32.695 50.547 32.6562 50.6018 32.6174 50.6565C32.5122 50.8044 32.7725 50.4977 32.5731 50.7003C32.4181 50.8647 32.2631 51.018 32.0859 51.1659C32.3461 50.9523 32.0416 51.1878 31.9696 51.2317C31.8811 51.2864 31.488 51.4398 31.8257 51.3248C31.643 51.3905 31.4547 51.4234 31.272 51.4782C31.6042 51.385 31.3163 51.4672 31.189 51.4672C31.1391 51.4672 31.0838 51.4617 31.0339 51.4672C30.7793 51.4782 31.1945 51.5274 31.0561 51.4727C30.9675 51.4398 30.8457 51.4234 30.7516 51.4015C30.7017 51.3905 30.6519 51.3631 30.6021 51.3522C30.4083 51.2919 30.8291 51.4672 30.6519 51.3741C30.5689 51.3303 30.4858 51.2919 30.4083 51.2426C30.3585 51.2152 30.3142 51.1824 30.2643 51.1495C30.0263 51.0126 30.3695 51.2536 30.2422 51.1331C30.137 51.0345 30.0263 50.9468 29.9266 50.8428C29.8823 50.7989 29.8435 50.7442 29.7993 50.7003C29.5999 50.4922 29.8546 50.7935 29.755 50.651C29.5723 50.3936 29.4117 50.1252 29.2733 49.8404C29.24 49.7692 29.2068 49.698 29.1736 49.6268C29.2843 49.8732 29.1404 49.5391 29.1238 49.4953C29.0518 49.3036 28.9909 49.1119 28.9355 48.9147C28.8746 48.7065 28.8248 48.4929 28.786 48.2793C28.7694 48.1807 28.7528 48.0876 28.7307 47.989C28.7196 47.9233 28.7085 47.8575 28.6975 47.7918C28.7085 47.8959 28.7085 47.8849 28.6975 47.7589C28.6365 47.2495 28.3486 46.8168 27.795 46.7511C27.3133 46.6963 26.7596 46.9811 26.6544 47.4851C26.4772 48.345 26.2447 49.2652 25.9125 50.043C25.7851 50.3388 25.6357 50.6291 25.464 50.903C25.4308 50.9578 25.1816 51.3083 25.2868 51.1769C25.1982 51.2919 25.0986 51.4015 24.9934 51.5001C24.927 51.5603 24.7166 51.7301 24.9048 51.5987C24.8162 51.6644 24.7166 51.7137 24.628 51.7739C24.4508 51.8999 24.7885 51.7575 24.5338 51.8178C24.4231 51.8451 24.1241 51.8561 24.4342 51.8561C24.3401 51.8561 24.2459 51.8561 24.1518 51.8561C24.0189 51.8561 24.4065 51.9328 24.2127 51.8561C24.185 51.8451 24.1186 51.8287 24.0909 51.8232C24.0522 51.8232 24.0023 51.7904 23.9691 51.7849C24.2016 51.8561 24.0964 51.8451 24.0355 51.8123C23.9248 51.752 23.8196 51.6863 23.7089 51.6206C23.5926 51.5494 23.8528 51.7411 23.7476 51.6534C23.6978 51.6151 23.6535 51.5713 23.6037 51.5329C23.5262 51.4617 23.4542 51.3905 23.3822 51.3138C23.3435 51.2755 23.3102 51.2317 23.277 51.1933C23.0998 50.9961 23.3545 51.3084 23.2549 51.1714C23.1552 51.0345 23.0666 50.903 22.9836 50.7661C22.6458 50.2019 22.524 49.8842 22.3358 49.2214C21.9039 47.7151 21.8652 46.1321 22.0645 44.5436C22.3635 42.1774 23.2659 39.9206 24.484 37.8775C25.165 36.7382 23.3711 35.703 22.6901 36.8423L22.6957 36.8149Z" fill="#5B5B5B"/>
<path d="M22.9836 15.7868C20.8132 11.7444 19.0304 6.10804 21.7434 2.02183C24.3844 -0.777172 26.6489 3.0023 27.7064 5.21521C28.2878 4.6346 28.5701 3.42407 29.0297 2.67365C30.1481 0.844167 32.7116 0.427877 33.8964 2.42716C35.6018 6.60649 33.3871 12.084 31.787 16.0223" fill="white"/>
<path d="M23.8806 15.2719C22.1975 12.1059 20.7025 8.15116 21.7158 4.55244C22.0258 3.45146 22.9062 1.37549 24.3623 2.30666C25.5306 3.05708 26.2337 4.53601 26.8151 5.74106C27.0974 6.32167 28.0221 6.41479 28.4429 5.9492C29.4561 4.83179 29.517 2.78868 31.106 2.24093C31.6209 2.06565 32.1801 2.12043 32.6065 2.46551C33.2044 2.95301 33.3318 3.93896 33.4204 4.65651C33.8854 8.4579 32.1968 12.3141 30.8015 15.7594C30.5911 16.2798 31.034 16.8823 31.5268 17.0247C32.1192 17.189 32.5954 16.822 32.8058 16.3072C34.4668 12.2155 36.4656 7.41717 35.1866 2.95301C34.6218 0.975632 32.8169 -0.328012 30.7184 0.219737C29.7551 0.471702 28.9301 1.09066 28.3487 1.87942C27.7674 2.66818 27.6456 3.77463 26.9867 4.50314L28.6145 4.71129C27.5072 2.40526 25.1374 -1.30301 22.0701 0.460747C20.4977 1.36453 19.7779 3.32 19.5066 5.01255C19.2132 6.83108 19.3682 8.677 19.7945 10.4627C20.2818 12.5058 21.1178 14.4612 22.0978 16.3126C22.7179 17.4848 24.5118 16.4441 23.8917 15.2774L23.8806 15.2719Z" fill="#5B5B5B"/>
<path d="M17.6352 23.1156C14.1693 19.7415 4.0537 18.1092 1.93314 23.3567C2.22105 25.219 4.71257 26.0406 6.31821 25.3121C-2.79521 23.4114 -0.713405 36.0973 17.2975 29.475" fill="white"/>
<path d="M18.3716 22.3871C15.9299 20.0537 12.1317 19.0294 8.8152 18.9582C7.09882 18.9199 5.32154 19.1828 3.78234 19.9661C2.44799 20.6453 0.476923 22.3652 1.03059 24.0194C1.81681 26.3638 4.72358 27.0814 6.84414 26.194C7.66357 25.8489 7.41995 24.485 6.59498 24.3152C5.00595 23.992 3.22867 23.9154 1.76144 24.726C0.698391 25.3231 -0.0269176 26.4186 0.000765932 27.6455C0.0838165 31.1347 4.57962 32.3014 7.37012 32.4164C10.8472 32.5589 14.3408 31.6386 17.5743 30.461C18.82 30.0063 18.2774 28.0235 17.0206 28.4781C14.3907 29.4367 11.6278 30.22 8.8152 30.3514C7.87396 30.3952 6.8386 30.3679 5.99148 30.2254C5.5873 30.1542 5.18866 30.0666 4.79555 29.9461C4.3803 29.8201 4.2142 29.7599 3.9429 29.6284C3.65499 29.4915 3.38369 29.3326 3.12347 29.1573C2.87985 28.993 3.1733 29.2231 2.95737 29.0368C2.84663 28.9382 2.7359 28.8451 2.63624 28.7356C2.58087 28.6753 2.30957 28.3302 2.48675 28.5822C2.42584 28.4945 2.36494 28.4069 2.30957 28.3138C2.25421 28.2207 2.20991 28.133 2.16562 28.0454C2.06596 27.8537 2.24313 28.2754 2.18223 28.0728C2.16562 28.018 2.14347 27.9632 2.12686 27.9085C2.10471 27.8044 2.07149 27.4429 2.0881 27.7989C2.0881 27.7113 2.07703 27.6181 2.07703 27.5305C2.07703 27.421 2.14901 27.158 2.06596 27.4867C2.09364 27.3881 2.11579 27.284 2.14347 27.1799C2.19884 26.9444 2.01059 27.3443 2.17669 27.1087C2.23206 27.0266 2.28189 26.9389 2.33726 26.8568C2.11579 27.1909 2.80788 26.4788 2.49782 26.6979C2.60302 26.6267 2.70822 26.5555 2.81341 26.4953C2.86878 26.4624 2.92968 26.435 2.99059 26.4021C3.25081 26.2707 2.88539 26.4295 3.06256 26.3748C3.35601 26.2762 3.64946 26.1995 3.95397 26.1557C3.70482 26.194 4.19759 26.1392 4.28064 26.1392C4.46889 26.1337 4.65714 26.1337 4.84538 26.1392C5.38798 26.1611 5.51533 26.183 6.04685 26.2926L5.7977 24.4138C4.69589 24.8739 3.16776 24.2604 2.93522 23.0718V23.6196C3.9429 21.2314 7.14865 20.8808 9.44085 21.0287C12.021 21.193 15.0274 22.0366 16.9043 23.8277C17.8677 24.7479 19.3349 23.2964 18.3716 22.3762V22.3871Z" fill="#5B5B5B"/>
<path d="M37.5287 23.0992C41.0113 19.7086 51.1822 18.0654 53.3138 23.3457C53.0259 25.219 50.5178 26.0406 48.9066 25.3066C57.3169 23.2416 57.267 35.807 37.4512 29.7434" fill="white"/>
<path d="M38.2594 23.8277C40.1475 22.0256 43.176 21.1766 45.7672 21.0123C48.0705 20.8644 51.2984 21.2204 52.3116 23.6196V23.0718C52.0846 24.2659 50.5343 24.8849 49.427 24.4193L49.1778 26.2981C49.3716 26.2543 49.5599 26.2159 49.7536 26.1776C49.7813 26.1721 50.0969 26.1283 49.8478 26.1611C49.9364 26.1502 50.0249 26.1392 50.1135 26.1338C50.4457 26.1064 50.7779 26.1064 51.1101 26.1228C51.1876 26.1228 51.2652 26.1338 51.3371 26.1447C51.0492 26.1118 51.2984 26.1392 51.3537 26.1502C51.47 26.1721 51.5863 26.194 51.7026 26.2269C51.8354 26.2597 51.9628 26.3036 52.0901 26.3474C52.1566 26.3693 52.3559 26.4679 52.0791 26.3419C52.1455 26.3748 52.2119 26.4021 52.2728 26.435C52.367 26.4898 52.4611 26.5446 52.5552 26.5993C52.8376 26.7637 52.4943 26.5117 52.6604 26.6815C52.7324 26.7527 52.7988 26.8239 52.8763 26.8896C53.0812 27.0759 52.8154 26.7198 52.9539 26.9937C52.9982 27.0814 53.0535 27.1745 53.1034 27.2621C53.131 27.3114 53.0591 27.054 53.1034 27.295C53.12 27.3881 53.1476 27.4922 53.1698 27.5853C53.0812 27.2293 53.1532 27.5908 53.1587 27.7113C53.1587 27.8208 53.0757 28.0837 53.1643 27.7441C53.1366 27.8482 53.1144 27.9468 53.0923 28.0509C53.0812 28.1057 53.0535 28.1549 53.0369 28.2042C52.976 28.4014 53.1532 27.9797 53.0535 28.1604C52.9982 28.2645 52.9428 28.3631 52.8819 28.4617C52.8487 28.511 52.8154 28.5603 52.7767 28.6096C52.6493 28.7903 52.9372 28.4288 52.7822 28.5986C52.7102 28.6808 52.6383 28.763 52.5608 28.8396C52.4611 28.9382 52.3559 29.0259 52.2452 29.1135C52.4611 28.9382 52.0403 29.2504 51.9628 29.2997C51.2984 29.7106 50.9717 29.8201 50.1855 30.0283C49.2332 30.2747 48.4414 30.3569 47.4393 30.3843C44.1339 30.4719 40.8506 29.7106 37.7058 28.7575C36.4268 28.3686 35.8787 30.3514 37.1521 30.7403C40.3523 31.7098 43.7131 32.4657 47.0794 32.4438C49.0726 32.4274 51.243 32.148 52.976 31.0964C54.1498 30.3843 55.1132 29.2669 55.2239 27.8646C55.318 26.6267 54.637 25.5203 53.6238 24.8411C52.1732 23.8715 50.2464 23.9318 48.6131 24.3262C47.8158 24.5179 47.5223 25.8489 48.3639 26.205C50.2409 26.9937 52.6438 26.561 53.8231 24.8027C54.0889 24.4029 54.338 23.8442 54.338 23.3512C54.338 22.8966 54.0114 22.3817 53.7622 22.0092C53.3027 21.319 52.7158 20.7548 52.0292 20.2947C49.1114 18.3502 44.8924 18.7172 41.7033 19.7032C39.9149 20.2564 38.1376 21.0835 36.7756 22.3817C35.8122 23.3019 37.2794 24.7534 38.2428 23.8332L38.2594 23.8277Z" fill="#5B5B5B"/>
<path d="M17.6517 31.6222C13.7372 30.3898 1.77795 36.5136 6.30144 41.1037C7.57489 41.6898 12.5247 40.189 12.0873 38.6334C9.28019 40.6327 7.55827 45.8746 12.641 45.8801C16.6495 45.19 19.9937 39.5591 23.4431 37.6529" fill="white"/>
<path d="M17.9285 30.6308C16.2121 30.1214 14.2189 30.6144 12.5856 31.1785C10.5481 31.8851 8.61022 32.9149 6.94921 34.2898C5.58164 35.4236 4.2473 37.0395 4.25837 38.9018C4.26391 39.8494 4.6404 40.7149 5.23283 41.4434C5.9526 42.3307 6.98797 42.3198 8.04548 42.1719C9.85598 41.9199 13.632 40.8299 13.0839 38.3595C12.951 37.757 12.0873 37.3626 11.5613 37.7461C9.38536 39.3345 6.98243 43.1359 9.16943 45.6282C10.3266 46.9483 12.4361 47.1674 14.003 46.5594C15.9464 45.8089 17.5188 44.3793 18.9805 42.9497C20.5474 41.416 22.0312 39.6358 23.9635 38.5403C25.1207 37.883 24.0798 36.1083 22.9171 36.7656C19.883 38.4855 17.9451 41.5529 15.1546 43.5796C14.0307 44.4012 12.6022 45.2502 11.1903 44.6148C10.8304 44.4505 10.609 44.1821 10.5259 43.9411C10.3875 43.5577 10.4041 43.125 10.5093 42.6813C10.7972 41.4653 11.6 40.2602 12.6133 39.5208L11.0907 38.9073C11.0796 38.869 11.0741 38.7484 11.1073 38.7211C10.9633 38.847 11.1294 38.7704 10.9246 38.9402C10.7197 39.11 10.3764 39.3181 10.0608 39.4715C9.31892 39.833 8.45519 40.085 7.63576 40.1835C7.44751 40.2055 6.94921 40.2164 6.86062 40.2055C7.00458 40.2274 6.72774 40.1835 6.72774 40.1726L6.68898 40.1616C6.54503 40.1123 6.63362 40.1616 6.94921 40.2876C6.92153 40.3041 6.69452 39.9699 6.6613 39.9206C6.45644 39.5975 6.45644 39.5755 6.36785 39.2359C6.31802 39.0333 6.3291 39.225 6.33463 38.9621C6.33463 38.8689 6.37339 38.48 6.34571 38.6389C6.56718 37.4065 7.60808 36.3657 8.6822 35.5386C9.98886 34.5308 11.5115 33.742 13.0673 33.1943C13.859 32.9149 14.7836 32.6575 15.5533 32.5534C15.819 32.5151 16.2564 32.4877 16.5886 32.4986C17.026 32.5096 16.954 32.4986 17.3748 32.6191C18.6593 33.0025 19.2075 31.0197 17.9285 30.6363V30.6308Z" fill="#5B5B5B"/>
<path d="M33.3538 16.707C33.7579 12.8454 37.2128 7.72392 41.1937 6.5353C42.661 5.83418 45.1414 5.75202 45.5843 7.66366C45.828 9.03304 43.0818 13.3712 41.681 12.5551C44.3552 10.386 49.9196 10.0957 48.6129 14.9542C46.9685 18.4817 41.238 20.0209 38.6192 22.7816" fill="white"/>
<path d="M34.3893 16.707C34.7658 13.4588 37.0524 10.0135 39.8319 8.28807C40.4907 7.87725 41.1994 7.59242 41.9303 7.34046C42.5116 7.14327 43.1705 7.01729 43.7795 7.17066C44.228 7.28568 44.5547 7.58147 44.5547 7.94846C44.5547 8.06349 44.5547 7.93203 44.5602 7.91012C44.5492 7.97585 44.5325 8.05253 44.5159 8.11826C44.4827 8.23329 44.455 8.34284 44.4163 8.45239C44.3221 8.73722 44.1948 9.00014 44.0564 9.26306C43.7186 9.89845 43.3255 10.5119 42.8217 11.0323C42.6168 11.2459 42.4175 11.4212 42.2237 11.5417C42.1628 11.58 42.0299 11.5855 42.0133 11.6293C42.0133 11.6129 42.1684 11.6458 42.2016 11.6622L42.412 13.2726C43.2369 12.6208 44.4495 12.1661 45.4738 12.0894C46.0551 12.0456 46.4482 12.0511 46.9687 12.2538C47.1957 12.3414 47.5113 12.566 47.6497 12.9001C47.6885 12.9878 47.7549 13.2671 47.766 13.4424C47.7826 13.7656 47.7604 14.0942 47.6774 14.4064C47.5058 15.0583 46.9742 15.6224 46.4981 16.0825C45.3132 17.2273 43.8349 18.0435 42.4175 18.8651C40.8285 19.7908 39.173 20.7165 37.8885 22.0421C36.9639 22.9951 38.4311 24.4522 39.3557 23.4936C42.0078 20.7603 46.1271 19.8511 48.5799 16.8713C49.7204 15.4855 50.3129 13.5519 49.4436 11.8594C48.7737 10.5448 47.2621 10.0135 45.8503 10.019C44.0675 10.0244 42.3234 10.7256 40.9392 11.8156C40.4243 12.2209 40.6015 13.1466 41.1496 13.426C42.866 14.3024 44.4107 12.5003 45.2689 11.2459C46.1769 9.91488 47.1791 8.03062 46.2046 6.48597C45.0198 4.60719 42.567 4.90845 40.7897 5.57123C38.6027 6.38737 36.8531 7.75127 35.4191 9.57528C33.7969 11.6403 32.612 14.0723 32.313 16.6851C32.2466 17.2383 32.8335 17.7148 33.3539 17.7148C33.9685 17.7148 34.3284 17.2438 34.3948 16.6851L34.3893 16.707Z" fill="#5B5B5B"/>
<path d="M37.4842 31.6222C41.371 30.3952 53.2196 36.5793 48.7127 41.1037C47.4392 41.6898 42.4894 40.189 42.9268 38.6334C45.7339 40.6327 47.4559 45.8746 42.3732 45.8801C38.2926 45.3652 35.7014 39.696 32.5178 37.6529" fill="white"/>
<path d="M37.7611 32.6136C37.8885 32.5753 38.0158 32.5479 38.1431 32.5205C38.0767 32.5314 38.2262 32.5095 38.3868 32.4986C38.7079 32.4822 39.029 32.4986 39.3501 32.526C39.8983 32.5807 40.7731 32.7944 41.4319 33.0025C43.0431 33.5119 44.5823 34.2842 45.9554 35.2592C46.5811 35.6974 47.1624 36.2069 47.6663 36.7765C48.0317 37.1928 48.4193 37.7679 48.5577 38.2116C48.7182 38.7375 48.7459 39.1099 48.5577 39.5646C48.4968 39.707 48.2144 40.0356 48.159 40.189C48.0815 40.3917 48.2255 40.2383 48.3694 40.1397C48.3251 40.1671 48.2144 40.1945 48.1646 40.1945C48.2532 40.1945 47.9708 40.2054 47.8158 40.2C46.9687 40.1835 46.0385 39.9261 45.2357 39.5919C44.8758 39.4386 44.4384 39.2195 44.1726 39.0059C44.2335 39.0552 44.073 38.9127 44.0619 38.9018C43.9511 38.7922 43.9844 38.8087 43.9622 38.8032C43.8902 38.7703 43.9345 38.6224 43.9124 38.7265C43.8626 38.9675 43.9733 38.7046 43.929 38.9073L42.4064 39.5207C43.2812 40.1561 44.0231 41.1804 44.3719 42.1992C44.5491 42.7251 44.6488 43.2181 44.5713 43.6617C44.5159 43.9959 44.3553 44.2807 44.0785 44.4669C41.4762 46.2471 38.3757 42.254 36.9472 40.5889C35.7568 39.2085 34.583 37.7844 33.0438 36.771C31.9254 36.037 30.8845 37.8172 31.9974 38.5457C33.52 39.5481 34.6606 41.0983 35.8399 42.4567C37.0856 43.8918 38.4477 45.4091 40.1917 46.2635C41.9358 47.118 43.9788 47.2057 45.4848 45.9787C46.6752 45.0147 46.8524 43.4207 46.4814 42.0185C46.0274 40.2985 44.8813 38.7922 43.4528 37.7515C42.9213 37.3681 42.0631 37.7625 41.9302 38.365C41.4319 40.6108 44.5879 41.7008 46.2766 42.0623C47.1458 42.2485 48.2753 42.4512 49.1169 42.0459C49.9585 41.6405 50.5232 40.5012 50.6838 39.6467C51.0437 37.7789 49.9529 36.0699 48.6518 34.8156C47.1015 33.3257 45.1748 32.2466 43.1815 31.4524C41.3932 30.7348 39.1342 30.0611 37.213 30.6362C35.9395 31.0197 36.4821 33.0025 37.7666 32.6191L37.7611 32.6136Z" fill="#5B5B5B"/>
<path d="M22.2639 16.7946C22.0092 12.9987 18.6263 8.04707 14.8613 6.67222C13.4273 5.91085 10.9579 5.71366 10.4209 7.6034C10.1164 8.96182 12.6577 13.4205 14.0973 12.6646C11.5227 10.3805 5.98045 9.83822 7.06011 14.7515C8.48858 18.416 14.2357 19.9716 16.7936 22.7377" fill="white"/>
<path d="M23.3046 16.7946C23.1219 14.5215 22.1918 12.3414 20.8962 10.4736C19.6006 8.60576 17.8621 6.84748 15.7194 5.91631C13.9808 5.16589 11.6665 4.4812 10.1384 6.0642C8.79294 7.45548 9.52932 9.33974 10.3266 10.8022C11.1239 12.2647 12.6963 14.4338 14.6231 13.5519C15.21 13.2835 15.3041 12.3469 14.8335 11.9416C12.8347 10.2107 8.64345 8.74817 6.63916 11.2623C5.54843 12.6262 5.70899 14.6913 6.58933 16.1154C7.60808 17.7696 9.28017 18.9144 10.908 19.9278C12.6686 21.0178 14.6286 21.9544 16.0682 23.4717C16.9817 24.4412 18.449 22.9842 17.5354 22.0202C15.293 19.6484 12.0042 18.6296 9.59576 16.466C8.58808 15.5622 7.74096 14.4448 8.0178 13.0754C8.10085 12.6591 8.31678 12.4126 8.62684 12.2428C8.96458 12.0566 9.37429 12.0018 9.87813 12.0128C11.0796 12.0402 12.4361 12.5879 13.3718 13.3986L13.5822 11.7882C13.6209 11.7718 13.704 11.7553 13.7317 11.7389C13.8701 11.6512 13.6431 11.8211 13.7594 11.7389C13.7815 11.7225 13.7649 11.7389 13.7483 11.7279C13.5324 11.5746 13.4438 11.5417 13.2278 11.3226C12.796 10.8899 12.4582 10.375 12.1648 9.84367C11.8713 9.31236 11.6388 8.80843 11.5004 8.24424C11.4395 7.9868 11.4063 8.04705 11.4506 7.77318C11.4173 8.01967 11.4949 7.70745 11.5558 7.61981C11.6056 7.54312 11.661 7.4774 11.7329 7.41714C12.6852 6.64482 14.457 7.55408 15.3318 8.01967C16.8599 8.83581 18.1334 10.1175 19.1078 11.5253C20.1875 13.0754 21.0844 14.9049 21.2339 16.8111C21.3391 18.1202 23.4154 18.1311 23.3102 16.8111L23.3046 16.7946Z" fill="#5B5B5B"/>
<path d="M18.3272 20.0318C11.8161 29.2888 21.843 42.3362 33.2763 36.1521C48.5078 25.8982 30.3087 6.14634 18.3272 20.0318Z" fill="#FFF100"/>
<path d="M17.4302 19.5115C14.2356 24.1236 14.673 30.2145 18.2386 34.487C19.8719 36.4479 22.1807 37.9104 24.6944 38.4801C27.6732 39.1593 30.7405 38.5896 33.4369 37.2257C34.6826 36.5958 35.8343 35.5551 36.781 34.5418C37.6448 33.6161 38.4144 32.5699 38.9625 31.4305C39.9591 29.3765 40.3135 27.1252 39.9757 24.8685C39.3501 20.6727 36.3215 16.9261 32.4126 15.2391C30.0927 14.2367 27.5292 13.9573 25.0543 14.5215C22.0922 15.2007 19.5453 17.0576 17.5853 19.3034C16.716 20.3003 18.1777 21.7573 19.0525 20.7549C20.5751 19.0076 22.4299 17.4848 24.6778 16.7563C26.4883 16.1702 28.3819 16.1264 30.1868 16.6194C33.6306 17.5615 36.5263 20.366 37.5894 23.7237C38.8075 27.5853 37.3236 31.4305 34.2397 34.12C30.5135 37.3736 24.7553 37.6475 20.9682 34.3391C19.0968 32.7013 17.851 30.4775 17.4247 28.04C16.9652 25.3998 17.696 22.7378 19.2131 20.5522C19.9716 19.4567 18.1722 18.4324 17.4192 19.517L17.4302 19.5115Z" fill="#5B5B5B"/>
<path d="M31.1336 25.5751L31.3218 25.6682C31.4824 25.7668 31.654 25.8216 31.8367 25.8325C32.0194 25.8709 32.2022 25.8654 32.3904 25.8106C32.5731 25.7668 32.7281 25.6846 32.861 25.5641C33.0105 25.4655 33.1323 25.3395 33.2154 25.1807L33.3538 24.852C33.4202 24.611 33.4202 24.3645 33.3538 24.1235L33.2154 23.7949C33.0936 23.5867 32.9275 23.4279 32.7171 23.3019L32.5288 23.2088C32.3683 23.1102 32.1966 23.0554 32.0139 23.0445C31.8312 23.0061 31.6485 23.0116 31.4602 23.0664C31.2775 23.1102 31.1225 23.1924 30.9896 23.3129C30.8401 23.4115 30.7183 23.5374 30.6353 23.6963L30.4969 24.0249C30.4304 24.2659 30.4304 24.5124 30.4969 24.7534L30.6353 25.0821C30.7571 25.2902 30.9232 25.4491 31.1336 25.5751Z" fill="#5B5B5B"/>
<path d="M24.2349 23.3073L24.0466 23.2142C23.8861 23.1156 23.7144 23.0609 23.5317 23.0499C23.349 23.0116 23.1663 23.017 22.9781 23.0718C22.7954 23.1156 22.6403 23.1978 22.5074 23.3183C22.358 23.4169 22.2361 23.5429 22.1531 23.7017L22.0147 24.0304C21.9482 24.2714 21.9482 24.5179 22.0147 24.7589L22.1531 25.0875C22.2749 25.2957 22.441 25.4545 22.6514 25.5805L22.8396 25.6736C23.0002 25.7722 23.1718 25.827 23.3546 25.8379C23.5373 25.8763 23.72 25.8708 23.9082 25.816C24.0909 25.7722 24.246 25.6901 24.3788 25.5695C24.5283 25.471 24.6501 25.345 24.7332 25.1861L24.8716 24.8575C24.9381 24.6165 24.9381 24.37 24.8716 24.129L24.7332 23.8003C24.6114 23.5922 24.4453 23.4333 24.2349 23.3073Z" fill="#5B5B5B"/>
<path d="M27.6566 33.0956C27.4462 33.0956 27.2413 33.0354 27.0586 32.9203L24.8661 31.5181C24.3511 31.1895 24.2017 30.5102 24.5339 30.0063C24.8661 29.4969 25.5526 29.3545 26.062 29.6777L27.6067 30.6636L30.591 28.4452C31.0782 28.0837 31.7759 28.1768 32.1413 28.6643C32.5067 29.1518 32.4071 29.8365 31.9198 30.198L28.321 32.871C28.1272 33.0189 27.8891 33.0901 27.6566 33.0901V33.0956Z" fill="#5B5B5B"/>
</svg>
