<svg width="284" height="109" viewBox="0 0 284 109" fill="none" xmlns="http://www.w3.org/2000/svg">
<g clip-path="url(#clip0_209_340)">
<path d="M1.04001 86.22C6.59001 93.08 12.86 100.34 21.98 102.05C29.93 103.55 37.13 99.58 41.35 92.91C49 80.82 48.62 61.03 36.53 51.76C30.63 47.23 21.25 46.46 17.64 54.22C14.03 61.98 21.44 70.97 26.05 76.76C30.66 82.55 38.64 92.8 47.19 92.24C55.05 91.72 59.36 82.08 61.38 75.6C66.7 58.55 62 39.68 49.17 27.3C47.36 25.56 44.86 27.45 44.09 29.22C43.04 31.63 43.8 34.28 45.61 36.02C54.36 44.46 57.9 57.47 55.15 69.24C53.8 75.01 49.87 85.64 42.42 80.76C36.28 76.74 31.09 70.02 27.12 63.94C26.76 63.39 24.12 59.94 24.34 59.25C24.77 57.87 27.67 58.12 28.77 58.36C31.84 59.02 34.47 61.4 36.12 63.96C39.13 68.64 39.61 74.86 38.27 80.17C36.61 86.74 31.69 93.05 24.26 92.38C16.28 91.65 10.84 84.76 6.18001 79C2.27001 74.16 -1.97999 82.45 1.06001 86.2L1.04001 86.22Z" fill="#FFF100"/>
<path d="M76.4001 56.87C83.5201 53.78 91.9501 45.08 88.1201 36.63C84.0601 27.67 73.6201 33.01 70.0501 39.29C61.2401 54.76 76.2901 73.95 93.0801 65.78C97.3201 63.72 95.7301 54.17 90.5101 56.71C84.7901 59.49 76.4001 57.04 75.1801 50.17C74.6101 46.93 76.1501 42.02 80.1301 41.73C82.8201 41.54 80.3901 43.26 79.3501 44.32C77.7701 45.94 75.8701 46.92 73.8301 47.8C69.5101 49.68 71.0701 59.19 76.4001 56.87Z" fill="#FFF100"/>
<path d="M98.3 4.72C98.86 16.22 99.85 27.69 101.35 39.1C102.05 44.44 102.54 49.98 103.8 55.22C104.67 58.86 107.12 61.24 111.14 60.22C117.11 58.71 115.89 51.3 109.8 52.84L109.18 53L113.76 54.05C112.78 53.14 112.77 48.16 112.56 46.8C112.27 44.9 111.98 43.01 111.72 41.11C111.14 36.99 110.62 32.87 110.17 28.74C109.23 20.16 108.57 11.55 108.15 2.93C107.91 -1.95 98.07 -0.300003 98.31 4.72H98.3Z" fill="#FFF100"/>
<path d="M144.91 28.3C133.82 23.36 121.66 32.61 121.59 44.3C121.56 49.23 123.52 54.23 128.22 56.43C133.7 58.99 139.95 57.27 145.13 54.84C151.07 52.06 145.86 46.12 140.72 48.52C138.63 49.5 135.8 50.84 133.63 49.39C131.93 48.26 131.45 45.63 131.42 43.78C131.35 39.43 134.14 32.87 139.42 35.23C143.84 37.2 150.61 30.84 144.91 28.3Z" fill="#FFF100"/>
<path d="M187.71 47.87C184.92 51.99 182.66 56.36 180.97 61.04C179.28 65.72 185.82 66.53 188.41 63.8C192.19 59.81 195.97 55.83 199.75 51.84C200.49 51.06 203.1 49.39 200.47 49.72C198.63 49.95 199.21 50.26 198.84 52.1C198.28 54.84 197.18 57.54 195.84 59.98C192.67 65.76 200.6 67.05 203.54 62.82C204.89 60.89 206.36 59.12 208.16 57.58C208.97 56.89 209.81 56.27 210.7 55.69C211.11 55.41 211.54 55.15 211.98 54.91C213.1 54.49 212.83 54.17 211.16 53.96C210.18 55 209.7 59.18 209.23 60.67C208.23 63.81 207.23 66.96 206.23 70.1C204.34 76.04 213.56 75.51 215.03 70.88C216.76 65.46 219.2 59.85 220.23 54.24C220.8 51.14 220.38 47.44 216.89 46.3C209.21 43.81 199.59 54.6 195.84 59.97L203.54 62.81C205.94 58.43 213.12 44.36 204.73 41.76C200.94 40.59 197.51 43.14 195.02 45.67C190.72 50.05 186.57 54.59 182.34 59.04L189.78 61.8C191.22 57.8 193.03 54.21 195.42 50.69C199.09 45.28 190.62 43.56 187.72 47.85L187.71 47.87Z" fill="#FFF100"/>
<path d="M251.05 91.62C253.75 86.04 256.44 80.35 260.21 75.4C262.26 72.71 272.88 61.11 276.77 66.71L275.9 63.37C275.9 62.43 273.82 65.13 273.48 65.48C272.09 66.89 270.67 68.27 269.22 69.62C266.84 71.85 264.38 73.99 261.87 76.07C256.6 80.41 251.06 84.37 245.3 88.04L250.76 91.82L250.99 90.08C251.28 87.94 249.83 85.36 247.46 85.49C244.87 85.64 243.6 88.56 243.31 90.73L243.08 92.47C242.63 95.86 245.67 98.09 248.54 96.25C257.3 90.67 265.55 84.35 273.11 77.22C277.43 73.15 289.4 63.28 280.78 57.36C273.64 52.46 264.18 59.29 259.25 64.27C252.84 70.74 248.69 79.01 244.77 87.13C242.31 92.23 248.18 97.53 251.04 91.6L251.05 91.62Z" fill="#FFF100"/>
<path d="M235.78 107.71C238.44 108.76 241.21 108.62 243.93 107.94C246.21 107.38 248.06 104.28 247.8 102.02C247.51 99.51 245.68 98.54 243.36 99.12C244.08 98.94 242.96 99.15 242.8 99.17C242.53 99.19 242.25 99.21 241.98 99.2C241.53 99.2 241.43 99.2 241.67 99.19C241.26 99.14 240.07 98.81 239.39 98.54C238.47 98.18 237 98.75 236.26 99.24C235.23 99.9 234.24 101.1 233.83 102.26C233.03 104.52 233.42 106.78 235.78 107.71Z" fill="#FFF100"/>
<path d="M226.59 67.61C231.44 73.79 240.68 78.6 246.96 71.16C252.96 64.06 245.99 54.44 237.97 53.45C229.95 52.46 222.15 59.71 220.75 67.6C219.23 76.17 224.72 84.04 232.61 87.06C237.37 88.89 243.81 82.97 237.71 80.63C231.61 78.29 228.79 71.88 231.46 65.9C232.71 63.1 236.76 58.31 238.87 63.31C239.24 64.18 239.56 66.55 238.77 67.15C238.02 67.71 235.96 64.81 235.26 63.91C232.36 60.22 223.04 63.09 226.59 67.62V67.61Z" fill="#FFF100"/>
<path d="M163.8 46.58C160.49 45.42 160.37 42.31 162.11 39.44C163.85 36.57 167.48 35.28 170.56 35.97C173.64 36.66 175.58 39.42 174.02 42.46C172.29 45.82 167.31 47.34 163.81 46.58C158.56 45.44 157.29 55.24 161.93 56.25C169.95 57.98 178.48 53.84 181.2 45.88C183.92 37.92 180.79 28.64 172.5 26.3C155.57 21.53 145.19 50.38 161.94 56.25C166.96 58.01 168.34 48.17 163.82 46.58H163.8Z" fill="#FFF100"/>
</g>
<defs>
<clipPath id="clip0_209_340">
<rect width="283.83" height="108.47" fill="white"/>
</clipPath>
</defs>
</svg>
