<svg width="15" height="15" viewBox="0 0 15 15" fill="none" xmlns="http://www.w3.org/2000/svg">
<path d="M13.35 1H1.65C1.47761 1 1.31228 1.06848 1.19038 1.19038C1.06848 1.31228 1 1.47761 1 1.65V13.35C1 13.5224 1.06848 13.6877 1.19038 13.8096C1.31228 13.9315 1.47761 14 1.65 14H13.35C13.5224 14 13.6877 13.9315 13.8096 13.8096C13.9315 13.6877 14 13.5224 14 13.35V1.65C14 1.47761 13.9315 1.31228 13.8096 1.19038C13.6877 1.06848 13.5224 1 13.35 1Z" stroke="#5B5B5B" stroke-width="1.2" stroke-linejoin="round"/>
<path d="M1 7.5H5.225M9.775 7.5H14" stroke="#5B5B5B" stroke-width="1.2" stroke-linecap="round" stroke-linejoin="round"/>
<path d="M7.49985 9.77516C7.79861 9.77516 8.09444 9.71631 8.37046 9.60199C8.64647 9.48766 8.89727 9.32008 9.10852 9.10883C9.31977 8.89757 9.48735 8.64678 9.60168 8.37076C9.71601 8.09475 9.77485 7.79892 9.77485 7.50016C9.77485 7.2014 9.71601 6.90557 9.60168 6.62955C9.48735 6.35354 9.31977 6.10274 9.10852 5.89149C8.89727 5.68024 8.64647 5.51266 8.37046 5.39833C8.09444 5.284 7.79861 5.22516 7.49985 5.22516C6.89649 5.22516 6.31783 5.46485 5.89119 5.89149C5.46454 6.31814 5.22485 6.89679 5.22485 7.50016C5.22485 8.10353 5.46454 8.68218 5.89119 9.10883C6.31783 9.53547 6.89649 9.77516 7.49985 9.77516Z" stroke="#5B5B5B" stroke-width="1.2" stroke-linejoin="round"/>
</svg>
