<svg width="22" height="18" viewBox="0 0 22 18" fill="none" xmlns="http://www.w3.org/2000/svg">
<path d="M21.5629 8.90651C21.5629 9.03083 21.5135 9.15006 21.4256 9.23797C21.3377 9.32588 21.2184 9.37526 21.0941 9.37526H1.60115L9.23826 17.0124C9.32622 17.1003 9.37563 17.2196 9.37563 17.344C9.37563 17.4684 9.32622 17.5877 9.23826 17.6757C9.1503 17.7636 9.03101 17.813 8.90662 17.813C8.78223 17.813 8.66293 17.7636 8.57498 17.6757L0.137478 9.23815C0.0938953 9.19462 0.059321 9.14292 0.0357315 9.08602C0.012142 9.02911 0 8.96811 0 8.90651C0 8.84491 0.012142 8.78391 0.0357315 8.72701C0.059321 8.6701 0.0938953 8.6184 0.137478 8.57487L8.57498 0.13737C8.61853 0.0938181 8.67023 0.0592711 8.72714 0.0357011C8.78404 0.0121311 8.84503 0 8.90662 0C8.96821 0 9.0292 0.0121311 9.0861 0.0357011C9.143 0.0592711 9.19471 0.0938181 9.23826 0.13737C9.28181 0.180921 9.31636 0.232625 9.33993 0.289528C9.3635 0.346431 9.37563 0.407419 9.37563 0.469011C9.37563 0.530602 9.3635 0.59159 9.33993 0.648493C9.31636 0.705396 9.28181 0.7571 9.23826 0.800651L1.60115 8.43776H21.0941C21.2184 8.43776 21.3377 8.48715 21.4256 8.57505C21.5135 8.66296 21.5629 8.78219 21.5629 8.90651Z" fill="#5B5B5B"/>
</svg>
