<svg width="16" height="15" viewBox="0 0 16 15" fill="none" xmlns="http://www.w3.org/2000/svg">
<path d="M9.79167 5.62583L9.175 5.52333C9.16012 5.61286 9.16491 5.70456 9.18905 5.79205C9.21318 5.87955 9.25609 5.96073 9.31477 6.02996C9.37346 6.0992 9.44652 6.15482 9.52888 6.19296C9.61123 6.2311 9.70091 6.25085 9.79167 6.25083V5.62583ZM0.625 5.62583V5.00083C0.45924 5.00083 0.300268 5.06668 0.183058 5.18389C0.0658479 5.3011 0 5.46007 0 5.62583H0.625ZM2.29167 14.5842H11.7583V13.3342H2.29167V14.5842ZM12.7583 5.00083H9.79167V6.25083H12.7583V5.00083ZM10.4083 5.72833L11.08 1.69917L9.84667 1.49333L9.175 5.52333L10.4083 5.72833ZM9.64167 0.000833273H9.46333V1.25083H9.64083L9.64167 0.000833273ZM6.8625 1.3925L4.76667 4.53667L5.80667 5.23L7.9025 2.08583L6.8625 1.3925ZM3.9 5.00083H0.625V6.25083H3.9V5.00083ZM0 5.62583V12.2925H1.25V5.62583H0ZM14.0058 12.7425L15.0058 7.7425L13.7808 7.49667L12.7808 12.4967L14.0058 12.7425ZM4.76667 4.53667C4.67158 4.6794 4.54273 4.79562 4.39154 4.87659C4.24035 4.95757 4.07151 4.99996 3.9 5V6.25C4.66667 6.25 5.38167 5.8675 5.80667 5.23L4.76667 4.53667ZM11.08 1.69917C11.1147 1.49031 11.1036 1.27556 11.0473 1.07145C10.991 0.867346 10.8909 0.677944 10.754 0.516409C10.6172 0.354873 10.4468 0.225078 10.2547 0.136044C10.0626 0.0470092 9.85339 0.000870245 9.64167 0.000833273L9.64083 1.25083C9.67104 1.25091 9.7017 1.25755 9.72909 1.2703C9.75647 1.28305 9.78076 1.3016 9.80026 1.32467C9.81976 1.34774 9.83401 1.37477 9.84202 1.40389C9.85004 1.43302 9.85162 1.46354 9.84667 1.49333L11.08 1.69917ZM12.7583 6.25C13.4167 6.25 13.9083 6.85167 13.78 7.49583L15.0058 7.74167C15.0721 7.40924 15.0639 7.06542 14.9817 6.73657C14.8994 6.40772 14.7453 6.10121 14.5303 5.83913C14.3153 5.57705 14.0449 5.36592 13.7385 5.22096C13.4321 5.076 13.0973 5.00082 12.7583 5.00083V6.25ZM11.7583 14.5842C12.2881 14.5843 12.8015 14.4 13.2113 14.0642C13.621 13.7285 13.9018 13.2611 14.0058 12.7417L12.7808 12.4958C12.7336 12.7322 12.6059 12.9448 12.4194 13.0975C12.233 13.2502 11.9993 13.3344 11.7583 13.3342V14.5842ZM9.46333 0.000833273C8.94889 0.000870647 8.44241 0.127079 7.98885 0.36985C7.53529 0.612621 7.14868 0.963611 6.86333 1.39167L7.9025 2.08583C8.07379 1.82888 8.30588 1.61738 8.57818 1.47171C8.85047 1.32604 9.15453 1.25072 9.46333 1.25083V0.000833273ZM2.29167 13.3342C1.71667 13.3342 1.25 12.8675 1.25 12.2925H0C0 12.9003 0.241443 13.4832 0.671214 13.913C1.10098 14.3427 1.68388 14.5842 2.29167 14.5842V13.3342Z" fill="#5B5B5B"/>
<path d="M3.95825 5.62582V13.9592" stroke="#5B5B5B" stroke-width="1.2"/>
</svg>
